<?xml version="1.0" encoding="utf-8"?>
<!-- Generator: Adobe Illustrator 22.1.0, SVG Export Plug-In . SVG Version: 6.00 Build 0)  -->
<svg version="1.1" xmlns="http://www.w3.org/2000/svg" xmlns:xlink="http://www.w3.org/1999/xlink" x="0px" y="0px"
	 viewBox="0 0 1120.4 1137.9" style="enable-background:new 0 0 1120.4 1137.9;" xml:space="preserve">
<style type="text/css">
	.st0{fill:#DFDED9;}
	.st1{fill:#FAE9E3;}
	.st2{fill:#ECE0DF;}
	.st3{fill:#EEEFF1;}
	.st4{fill:#EFEFEF;}
	.st5{fill:#F2BE54;}
	.st6{fill:#FC860A;}
	.st7{fill:none;}
	.st8{fill:#E6E3F4;}
	.st9{fill:#BDD3DE;}
	.st10{opacity:7.000000e-02;fill:#19233D;}
	.st11{opacity:4.000000e-02;fill:#19233D;}
	.st12{opacity:5.000000e-02;fill:#19233D;}
	.st13{opacity:0.45;fill:#640042;}
	.st14{opacity:0.3;fill:url(#SVGID_1_);}
	.st15{opacity:0.3;fill:url(#SVGID_2_);}
	.st16{opacity:0.17;fill:url(#SVGID_3_);}
	.st17{fill:#004E5A;}
	.st18{opacity:0.12;fill:url(#SVGID_4_);}
	.st19{opacity:0.12;fill:url(#SVGID_5_);}
	.st20{fill:#271C41;}
	.st21{opacity:4.000000e-02;fill:#FFFFFF;}
	.st22{fill:#8677A7;}
	.st23{opacity:0.42;fill:url(#SVGID_6_);}
	.st24{opacity:0.12;fill:url(#SVGID_7_);}
	.st25{fill:#336859;}
	.st26{opacity:0.5;fill:#BDD3DE;}
	.st27{opacity:0.17;fill:url(#SVGID_8_);}
	.st28{opacity:8.000000e-02;fill:#19233D;}
	.st29{fill:#FF7D93;}
	.st30{opacity:0.25;fill:#19233D;}
	.st31{fill:#19233D;}
	.st32{opacity:5.000000e-02;fill:#FFFFFF;}
	.st33{fill:#002544;}
	.st34{fill:#640042;}
	.st35{opacity:0.12;fill:url(#SVGID_9_);}
	.st36{fill:#FFFFFF;}
	.st37{opacity:0.84;fill:#19233D;}
	.st38{opacity:0.24;fill:url(#SVGID_10_);}
	.st39{opacity:0.5;fill:#153E5C;}
	.st40{fill:url(#window_2_);}
	.st41{opacity:0.3;fill:url(#SVGID_11_);}
	.st42{opacity:0.3;fill:url(#SVGID_12_);}
	.st43{opacity:0.3;fill:url(#SVGID_13_);}
	.st44{fill:#CD907F;}
	.st45{opacity:0.12;fill:url(#SVGID_14_);}
	.st46{fill:#A2625E;}
	.st47{opacity:0.1;fill:#FFFFFF;}
</style>
<g id="background">
	<g id="general_1_">
		<g id="floor_lines">
			<path class="st0" d="M496.1,933H1c-0.6,0-1-0.4-1-1s0.4-1,1-1h495.1c0.6,0,1,0.4,1,1S496.6,933,496.1,933z"/>
			<path class="st0" d="M1090.4,933H523.7c-0.6,0-1-0.4-1-1s0.4-1,1-1h566.7c0.6,0,1,0.4,1,1S1090.9,933,1090.4,933z"/>
			<path class="st0" d="M1066.3,975.5H845.4c-0.6,0-1-0.4-1-1s0.4-1,1-1h220.9c0.6,0,1,0.4,1,1S1066.8,975.5,1066.3,975.5z"/>
			<path class="st0" d="M791.7,975.5H148.5c-0.6,0-1-0.4-1-1s0.4-1,1-1h643.1c0.6,0,1,0.4,1,1S792.2,975.5,791.7,975.5z"/>
			<path class="st0" d="M127.4,975.5h-86c-0.6,0-1-0.4-1-1s0.4-1,1-1h86c0.6,0,1,0.4,1,1S127.9,975.5,127.4,975.5z"/>
			<path class="st0" d="M1104.7,1033.2H418.5c-0.6,0-1-0.4-1-1s0.4-1,1-1h686.2c0.6,0,1,0.4,1,1S1105.3,1033.2,1104.7,1033.2z"/>
			<path class="st0" d="M367.6,1033.2H23.7c-0.6,0-1-0.4-1-1s0.4-1,1-1h343.9c0.6,0,1,0.4,1,1S368.1,1033.2,367.6,1033.2z"/>
			<path class="st0" d="M1051.7,1100.5H17.1c-0.6,0-1-0.4-1-1s0.4-1,1-1h1034.5c0.6,0,1,0.4,1,1S1052.2,1100.5,1051.7,1100.5z"/>
		</g>
		<g id="carpet">
			<path class="st1" d="M773.8,1137.9c-11.5-0.7-23-1.5-34.4-2.2c-120.3-7.8-240.7-15.6-361-23.4l44.1-151.9
				c71.3-0.4,142.6-0.8,213.9-1.1c35.8-0.2,71.5-0.4,107.3-0.6c5.6,30.6,11.1,61.8,16.4,93.4
				C764.9,1081.1,769.5,1109.7,773.8,1137.9z"/>
			<path class="st2" d="M773.8,1137.9c-11.5-0.7-23-1.5-34.4-2.2c-0.2-54.6-75-29.3-110.6-104.7c-17.5-37.1-7.9-58.9,7.5-71.7
				c35.8-0.2,71.5-0.4,107.3-0.6c5.6,30.6,11.1,61.8,16.4,93.4C764.9,1081.1,769.5,1109.7,773.8,1137.9z"/>
			<ellipse class="st2" cx="491.1" cy="1037" rx="33.1" ry="38.1"/>
		</g>
		<g id="lamp2">
			<rect x="807.2" class="st0" width="2" height="177"/>
			<path class="st0" d="M801,201.6c0-7.7,0-15.3,0-23c0-4,3.2-7.2,7.2-7.2h0c4,0,7.2,3.2,7.2,7.2c0,7.7,0,15.3,0,23
				c-0.5,0.5-3.1,3-7.2,3C804.1,204.6,801.5,202.1,801,201.6z"/>
			<circle class="st1" cx="808.2" cy="208.8" r="15.3"/>
		</g>
		<g id="bricks">
			<rect x="44" y="472.6" class="st3" width="60.3" height="23"/>
			<rect x="88.3" y="752.4" class="st3" width="60.3" height="23"/>
			<rect x="1060.1" y="502.7" class="st3" width="60.3" height="23"/>
			<rect x="145.8" y="198.4" class="st3" width="60.3" height="23"/>
			<rect x="182.6" y="226.9" class="st3" width="60.3" height="23"/>
			<rect x="367.8" y="638.4" class="st3" width="60.3" height="23"/>
			<rect x="549.6" y="383.9" class="st3" width="60.3" height="23"/>
			<rect x="386.1" y="65.9" class="st3" width="60.3" height="23"/>
			<rect x="940.8" y="127.8" class="st3" width="60.3" height="23"/>
			<rect x="1017.5" y="474.5" class="st3" width="60.3" height="23"/>
			<rect x="127.4" y="781.9" class="st3" width="60.3" height="23"/>
			<rect x="876.6" y="763.5" class="st3" width="60.3" height="23"/>
		</g>
		<g id="picture">
			<g>
				<circle class="st4" cx="966.3" cy="383.6" r="70.5"/>
				<path class="st1" d="M966.3,461c-42.7,0-77.5-34.7-77.5-77.5s34.7-77.5,77.5-77.5c42.7,0,77.5,34.7,77.5,77.5
					S1009,461,966.3,461z M966.3,320.1c-35,0-63.5,28.5-63.5,63.5s28.5,63.5,63.5,63.5c35,0,63.5-28.5,63.5-63.5
					S1001.3,320.1,966.3,320.1z"/>
			</g>
			<path class="st1" d="M947.3,319c-0.1,0-0.3,0-0.4-0.1c-0.5-0.2-0.7-0.8-0.5-1.3l18.9-43.8c0.2-0.4,0.5-0.6,0.9-0.6
				c0.4,0,0.8,0.2,0.9,0.6l20.6,43.8c0.2,0.5,0,1.1-0.5,1.3c-0.5,0.2-1.1,0-1.3-0.5l-19.7-41.8l-18.1,41.8
				C948.1,318.8,947.7,319,947.3,319z"/>
			<circle class="st1" cx="966.3" cy="276.4" r="3.9"/>
			<path class="st2" d="M906.8,387.6c10.9-17.3,22.5-28,29.5-25.5c3.1,1.1,4.8,4.7,6.4,8c5.8,12.2,1.2,22.3,5.2,24.2
				c3.5,1.8,7.6-6.4,13.9-5.5c7.5,1.1,7.2,13.5,16.2,16.7c7.9,2.9,13.8-4.7,19.3-1.9c3.5,1.8,6.6,7.7,4.5,26.3L906.8,387.6z"/>
			<path class="st1" d="M986.1,342.8c2.7,2.4,6.9,6.8,9.7,13.5c4.6,10.9,2.6,20.7,1.8,24.3c2.3-2,8.7-8.3,9.7-18
				c0.3-2.6,0.7-7.3-1.9-11.6C1001.9,345.2,994.4,342.2,986.1,342.8z"/>
		</g>
		<g id="lamp">
			<circle class="st1" cx="319.5" cy="531.1" r="26.6"/>
			<path class="st0" d="M282.8,503.8c-2.4-0.5-4.6-1-6.5-1.4c-0.2-5-4.3-9.1-9.4-9.1c-5.2,0-9.4,4.2-9.4,9.4c0,2.1,0.7,4.1,1.9,5.6
				C211.5,577.6,107.2,727.9,82,762.4c-0.4-0.1-0.9-0.1-1.4-0.1c-5.2,0-9.4,4.2-9.4,9.4c0,3.3,1.7,6.1,4.2,7.8
				c-9,21.9-16.3,43.6-11.1,60.7c2.3,7.4,5.7,10.3,9.7,13.7c1.3,1.1,2.6,2.2,4,3.6c0.1,30,0.2,62.5,0.3,93.3
				c-3.9,15.2-7.6,32-8.8,50.7c-1.7,24.9,1.2,50.6,8.5,76.5c-38,0.4-68.4,9.3-68.4,20.1c0,11.1,32,20.1,71.4,20.1
				c39.4,0,71.4-9,71.4-20.1c0-10.8-30.3-19.6-68.4-20.1c0.3-15.5,0.5-52.2,0.3-140.1c0.1-0.4,0.2-0.8,0.3-1.3
				c8.2-29.8,14.6-53.3,0.8-73.9c-0.5-0.7-1-1.4-1.4-2c-0.2-35.9-0.3-65.9-0.4-80.2c3.7-1.3,6.4-4.8,6.4-8.9c0-2.6-1-4.9-2.7-6.6
				c27.4-37.4,126.6-180.5,177-253.4c0.8,0.2,1.7,0.4,2.6,0.4c3.2,0,6-1.6,7.7-4c1.3,0.3,2.7,0.6,4.3,1c0.2,0,0.3,0.1,0.5,0.1
				c-14.1,25.1-8.6,59.8,14.6,88.5c27-37.8,54-75.5,81.1-113.3C338,470.7,301,478.5,282.8,503.8z M75.7,852.1
				c-3.9-3.3-6.9-5.9-9-12.6c-5-16.3,2.1-37.5,10.9-58.9c0,0,0.1,0,0.1,0c0.1,20,0.2,45.6,0.4,73.6
				C77.3,853.5,76.5,852.8,75.7,852.1z M78.3,1069.6c-5.7-23-7.8-45.8-6.3-67.9c1-14.8,3.5-28.4,6.5-41
				C78.6,1006.1,78.5,1046.9,78.3,1069.6z M84.3,929c0-0.2,0-0.3,0-0.5c-0.1-21.7-0.1-43.5-0.2-63.6C95.5,882.9,91.2,903.5,84.3,929
				z"/>
		</g>
	</g>
</g>
<g id="main">
	<g id="general">
		<g id="sofa">
			<polygon class="st5" points="938.2,955.5 907.4,955.5 938.2,1044.2 929.1,1044.2 883,955.5 861.4,955.5 872.6,987.7 863.5,987.7 
				846.7,955.5 253.5,955.5 238.7,983.9 229.6,983.9 239.5,955.5 217.3,955.5 173.1,1040.4 164,1040.4 193.5,955.5 164,955.5 
				164,946 938.2,946 			"/>
			<path class="st6" d="M187.4,1012.9l-0.5,0.9c-2.9-1.3-5.8-3.8-8.6-7.4c-0.6-0.8-1.2-1.5-1.7-2.3l0.4-1.2
				C179.7,1006.8,183.3,1011.1,187.4,1012.9z"/>
			<path class="st6" d="M179.7,1027.8l-0.8,1.6c-0.4-4-1.3-7.9-2.7-11.7c-0.7-1.8-1.5-3.6-2.4-5.3l0.4-1.3c1.1,2,2.1,4,2.9,6.2
				C178.4,1020.7,179.2,1024.2,179.7,1027.8z"/>
			<path class="st6" d="M208.2,972.8l-0.7,1.3c-0.5-2.2-1.2-4.2-2.2-6c-1.6-2.8-3.7-4.7-6.1-5.3c-3.2-0.8-6.5,0.7-9.1,2.5l0.5-1.5
				c2.6-1.6,5.8-2.7,8.9-1.9c2.7,0.7,5,2.7,6.7,5.8C207,969.2,207.7,971,208.2,972.8z"/>
			<path class="st6" d="M182.1,945.9h1.8c-3.9,2.4-7.7,5.6-11.1,9.5h-1.3C174.8,951.6,178.4,948.4,182.1,945.9z"/>
			<path class="st6" d="M226,955.4h-1.2c-1.9-3.5-4.9-6.9-8.2-9.5h1.6C221.4,948.6,224.2,951.9,226,955.4z"/>
			<path class="st6" d="M292.5,945.9c-7.7,3.5-17.9,6.6-30,6.6c-1.8,0-3.7-0.1-5.6-0.2c-8.4-0.7-16.6-2.8-24.3-6.4h2.5
				c7,3,14.3,4.8,21.9,5.4c13.2,1,24.4-1.8,32.9-5.4H292.5z"/>
			<path class="st6" d="M248.6,964.8l-1.2,2.2l0,0v0c-1.6,1.1-3.4,2.2-5.5,3.1c-2.6,1.1-5.4,1.7-8.2,1.9l0.3-1
				c2.6-0.2,5.1-0.8,7.5-1.8C244.5,968,246.8,966.4,248.6,964.8z"/>
			<path class="st6" d="M244.7,972.3l-1,1.9c-1.2,0.7-2.5,1.4-3.9,2c-2.6,1.1-5.4,1.7-8.2,1.9l0.4-1v0c2.6-0.2,5.1-0.8,7.5-1.8
				C241.5,974.4,243.2,973.4,244.7,972.3z"/>
			<path class="st6" d="M341.7,945.9c-9.7,1-19.5,2.4-29.1,4c-9.3,1.6-18.6,3.4-27.8,5.5h-4.4c10.6-2.5,21.3-4.7,32-6.5
				c6.8-1.1,13.7-2.1,20.6-3H341.7z"/>
			<path class="st6" d="M405.3,954.9l-0.1,0.5h-1.8c-13.4-3.8-27.2-5.2-41-4c-7.3,0.6-14.6,2-21.7,4h-3.5c8.1-2.6,16.6-4.3,25-5
				C376.8,949.1,391.3,950.7,405.3,954.9z"/>
			<path class="st6" d="M504.1,945.9c-12,5.1-23.6,7.2-34.5,6.2c-3.5-0.3-5.7-0.8-7.9-1.3c-2.6-0.6-5.1-1.2-9.8-1.4
				c-7.9-0.3-12.7,0.7-17.5,1.8c-3.6,0.8-7,1.5-11.3,1.5c-0.6,0-1.3,0-1.9,0c-7-0.3-14.1-2.6-21.1-6.7h2c6.4,3.5,12.8,5.4,19.1,5.7
				c5.2,0.3,9-0.6,13-1.5c4.6-1,9.7-2.1,17.7-1.8c4.9,0.2,7.4,0.8,10,1.4c2.1,0.5,4.2,1,7.7,1.3c10.1,0.9,20.8-0.8,31.8-5.2H504.1z"
				/>
			<path class="st6" d="M475.8,955.4h-5.5c-3.1-0.7-7-1.5-11.7-2.8c-11.3-3-21.1,0.5-25.9,2.8h-2.2c3.8-2.1,15.1-7.2,28.3-3.7
				C466.6,953.7,472.1,954.8,475.8,955.4z"/>
			<path class="st6" d="M517.6,945.9c3.8,3.1,9.8,7.2,16.7,9.5h-2.9c-6.5-2.6-12-6.7-15.4-9.5H517.6z"/>
			<path class="st6" d="M577.1,945.9h5.6c-9.6,1.4-18.2,4.1-24.6,8.1c-0.8,0.5-1.7,1-2.6,1.4h-2.5c1.5-0.6,3.1-1.3,4.6-2.3
				C562.8,949.8,569.5,947.5,577.1,945.9z"/>
			<path class="st6" d="M650.2,953.1c2,1,4,1.8,6,2.3h-3.3c-1.1-0.4-2.2-0.9-3.2-1.4c-7.4-3.8-17.6-6.6-28.8-8.1h6.2
				C636,947.5,644.1,950,650.2,953.1z"/>
			<path class="st6" d="M698.5,945.9c-3.1,2-8.1,4.9-14,7.3c-2.1,0.9-4.2,1.6-6.2,2.2h-4.1c3.6-0.8,7-1.9,10-3.1
				c5.1-2,9.5-4.5,12.5-6.4H698.5z"/>
			<path class="st6" d="M636.8,955.4h-5.2c-4.9-1-10-2.3-14.2-3.9c-7.5-2.9-28.5,1-41.7,3.9h-4.6c12.3-2.9,37.9-8.3,46.6-4.9
				C623.4,952.7,630.8,954.3,636.8,955.4z"/>
			<polygon class="st6" points="738,955.4 735.9,955.4 718.4,945.9 720.5,945.9 			"/>
			<path class="st6" d="M818.6,945.9c-4.6,1.7-9.8,3.4-15.2,4.5c-2.8,0.6-6.1,0.8-9.7,0.8c-12.4,0-28.5-2.9-39.7-5.4h4.8
				c14.2,2.9,33.5,5.9,44.3,3.5c4.4-0.9,8.6-2.2,12.5-3.5H818.6z"/>
			<path class="st6" d="M872,955.4h-1.7c-15.5-10.8-45.3-4.2-59.8,0H807c5.1-1.6,13.5-3.9,22.7-5.4C843.2,947.8,861.3,947,872,955.4
				z"/>
			<path class="st6" d="M863.7,961.9c-5.3-0.9-11.4-2-14.9-2.5l-0.6-1.1c3.2,0.4,9.2,1.5,15,2.5L863.7,961.9z"/>
			<polygon class="st6" points="868.7,976.5 852.7,966.9 851.8,965.2 868.2,975.1 			"/>
			<path class="st6" d="M938.2,945.9v0.3c-19.2-1.6-40.3,9.4-51.5,16.3l-0.5-0.9c8.8-5.4,23.4-13.2,38.5-15.8H938.2z"/>
			<path class="st6" d="M911,965.9c-6.5-4.2-17-1.2-22.2,0.8l-0.5-0.9c2-0.8,4.9-1.7,8-2.4c5.8-1.2,10.6-0.8,14.2,1v0L911,965.9z"/>
			<path class="st6" d="M917.7,985.1c-4.4-2.3-7.8-2.7-10.2-1.2c-3.4,2.1-3.9,7.7-3.9,11.2l-1-1.8v0c0.2-3.6,1.1-8.2,4.3-10.3
				c2.5-1.5,5.9-1.3,10.2,0.7v0L917.7,985.1z"/>
			<polygon class="st6" points="931.6,1025.1 917.2,1021.2 916.9,1020.7 916.9,1020.6 917,1020.2 931.2,1024 			"/>
			<polygon class="st7" points="938.2,945.9 938.2,955.4 907.4,955.4 910.5,964.5 910.5,964.5 911,965.9 917.2,983.8 917.2,983.8 
				917.7,985.1 931.2,1024 931.6,1025.1 931.6,1025.2 938.2,1044.1 929.1,1044.1 917.2,1021.2 916.9,1020.7 916.9,1020.6 
				903.7,995.2 903.7,995.1 903.6,995.1 902.7,993.3 902.7,993.3 888.8,966.7 888.4,965.8 886.7,962.5 886.2,961.7 883,955.4 
				861.4,955.4 863.3,960.8 863.7,961.9 868.2,975.1 868.7,976.5 872.6,987.6 863.5,987.6 852.7,966.9 851.8,965.2 848.8,959.4 
				848.2,958.3 846.7,955.4 253.5,955.4 248.6,964.8 247.5,967 247.5,967 247.5,967 244.7,972.3 243.8,974.2 238.8,983.8 
				229.6,983.8 231.6,978 232,977 232,977 233.8,972 233.8,972 234.1,970.9 239.5,955.4 217.3,955.4 208.2,972.8 207.5,974.1 
				187.4,1012.9 187,1013.8 179.7,1027.8 178.8,1029.3 173.1,1040.4 164,1040.4 173.7,1012.4 174.2,1011.1 176.6,1004.1 177,1002.9 
				190.1,965.3 190.6,963.8 193.5,955.4 164,955.4 164,945.9 			"/>
			<path class="st8" d="M935.5,845.5c-256.4,2.4-512.8,4.8-769.2,7.2C214,732.9,261.9,672.4,304.4,643c21.9-15.1,42.3-22,60.6-24.5
				c84.2-11.4,117.4,71.4,233.8,60c79.2-7.8,118.9-51.5,199.9-31.8c14,3.4,45.3,11.3,74.8,36.3c5.9,5,11.1,10.2,15.9,15.7
				C938.9,754.6,936.3,831.3,935.5,845.5z"/>
			<path class="st9" d="M896,843.1v36.7c0,7.5-6.1,13.6-13.6,13.6h-666c-3,0-5.8-1-8.1-2.7c-2.9-2.2-5-5.6-5.4-9.4
				c-0.1-0.5-0.1-1-0.1-1.5v-36.7c0-7.5,6.1-13.6,13.6-13.6h666C889.9,829.5,896,835.6,896,843.1z"/>
			<path class="st8" d="M938.2,748.8v183.5c0,7.5-6.1,13.6-13.6,13.6h-48.8c-0.1,0-0.3,0-0.4,0c-0.1,0-0.3,0-0.4,0H177.6
				c-7.5,0-13.6-6.1-13.6-13.6V748.8c0-7.5,6.1-13.6,13.6-13.6h48.8c5.1,0,9.6,2.8,11.9,7c1.1,1.9,1.7,4.2,1.7,6.6v133.2h622.3
				V748.8c0-7.5,6.1-13.6,13.6-13.6h48.8C932.1,735.2,938.2,741.3,938.2,748.8z"/>
			<path class="st10" d="M938.2,860.8v71.6c0,7.5-6.1,13.6-13.6,13.6h-48.8c-0.1,0-0.3,0-0.4,0c-0.1,0-0.3,0-0.4,0H414.6
				c77.3-16.4,183.2-31.3,306.6-28.6C838.3,920,902.8,892.2,938.2,860.8z"/>
			<path class="st10" d="M938.2,748.8v36.5c-33.3,7.3-62.7-16.4-76-29.5v-7.1c0-7.5,6.1-13.6,13.6-13.6h48.8
				C932.1,735.2,938.2,741.3,938.2,748.8z"/>
			<path class="st11" d="M240,748.8v133.2c-53.4-20.6-14.2-113.4-1.7-139.8C239.3,744.2,240,746.4,240,748.8z"/>
			<path class="st12" d="M843.8,829.5c-4.8,7-12.7,16.8-25,24.7c-35.6,22.9-73.5,7.7-128.8-1.5c-53.4-8.8-156.9-25.9-236.8,6.6
				c-10,4.1-27.9,12.3-51.8,10.5c-34-2.5-60.2-23.6-76.6-40.4H843.8z"/>
			<g id="pattern_1_">
				<circle class="st5" cx="278.1" cy="706.8" r="3.1"/>
				<circle class="st5" cx="361.3" cy="763.5" r="3.1"/>
				<circle class="st5" cx="275" cy="800.7" r="3.1"/>
				<circle class="st5" cx="184.1" cy="767.3" r="3.1"/>
				<circle class="st5" cx="222.1" cy="852.7" r="3.1"/>
				<circle class="st5" cx="184.1" cy="914.2" r="3.1"/>
				<circle class="st5" cx="307.6" cy="925.8" r="3.1"/>
				<circle class="st5" cx="370.7" cy="899.4" r="3.1"/>
				<circle class="st5" cx="487" cy="922.7" r="3.1"/>
				<circle class="st5" cx="762.7" cy="925.8" r="3.1"/>
				<circle class="st5" cx="854.8" cy="904.3" r="3.1"/>
				<circle class="st5" cx="906.5" cy="814.3" r="3.1"/>
				<circle class="st5" cx="925.2" cy="750.9" r="3.1"/>
				<circle class="st5" cx="567.4" cy="899.4" r="3.1"/>
				<circle class="st5" cx="601.7" cy="818.5" r="3.1"/>
				<circle class="st5" cx="718" cy="764.2" r="3.1"/>
				<circle class="st5" cx="854.8" cy="767.3" r="3.1"/>
				<circle class="st5" cx="847" cy="821.6" r="3.1"/>
			</g>
			<g id="plaid">
				<path class="st5" d="M890.2,717.7c-0.1,0.1-0.3,0.1-0.5,0.1c-0.4,0-0.8-0.2-1-0.7l-7.1-16.3c-2.3,0.6-4.6,1.3-6.9,1.9l5,14.6
					c0.2,0.6-0.1,1.2-0.7,1.4c-0.1,0-0.2,0.1-0.4,0.1c-0.5,0-0.9-0.3-1.1-0.8l-5-14.7c-3.2,0.9-6.3,1.7-9.5,2.6l7.1,16.3
					c0.2,0.6,0,1.2-0.6,1.5c-0.1,0.1-0.3,0.1-0.5,0.1c-0.4,0-0.8-0.2-1-0.7l-7.3-16.7c-3.9,1.1-7.8,2.1-11.7,3.2l5.4,15.8
					c0.2,0.6-0.1,1.2-0.7,1.4c-0.1,0-0.2,0.1-0.4,0.1c-0.5,0-0.9-0.3-1.1-0.8l-5.5-15.9c-34.9,9.5-69.7,19-104.6,28.5l8.4,19.3
					c0.2,0.6,0,1.2-0.6,1.5c-0.1,0.1-0.3,0.1-0.5,0.1c-0.4,0-0.8-0.2-1-0.7l-8.6-19.6c-2.2,0.6-4.4,1.2-6.6,1.8l6.2,18
					c0.2,0.6-0.1,1.2-0.7,1.4c-0.1,0-0.2,0.1-0.4,0.1c-0.5,0-0.9-0.3-1.1-0.8l-6.2-18.2c-2.8,0.8-5.6,1.5-8.5,2.3l7.4,17.1
					c0.2,0.6,0,1.2-0.6,1.5c-0.1,0.1-0.3,0.1-0.5,0.1c-0.4,0-0.8-0.2-1-0.7l-7.6-17.4c-2.3,0.6-4.5,1.2-6.8,1.8l5.4,15.7
					c0.2,0.6-0.1,1.2-0.7,1.4c-0.1,0-0.2,0.1-0.4,0.1c-0.5,0-0.9-0.3-1.1-0.8l-5.4-15.9c-3.2,0.9-6.4,1.7-9.6,2.6l7.6,17.5
					c0.2,0.6,0,1.2-0.6,1.5c-0.1,0.1-0.3,0.1-0.5,0.1c-0.4,0-0.9-0.2-1-0.7l-7.8-17.8c-3.9,1.1-7.8,2.1-11.6,3.2l5.8,16.9
					c0.2,0.6-0.1,1.2-0.7,1.4c-0.1,0-0.2,0.1-0.4,0.1c-0.5,0-0.9-0.3-1.1-0.8l-5.9-17.1c-2.8,0.8-5.6,1.5-8.4,2.3l8.3,19
					c0.3,0.6,0,1.2-0.6,1.5c-0.1,0.1-0.3,0.1-0.5,0.1c-0.4,0-0.9-0.2-1-0.7l-8.4-19.3c-24.2,6.6-48.4,13.2-72.5,19.8l7.4,21.2
					c0.2,0.6-0.1,1.2-0.7,1.4c-0.1,0-0.2,0.1-0.4,0.1c-0.5,0-0.9-0.3-1.1-0.8l-7.5-21.3c-2.2,0.6-4.3,1.2-6.5,1.8l5,19.1
					c0.2,0.6-0.2,1.2-0.8,1.4c-0.1,0-0.2,0-0.3,0c-0.5,0-1-0.3-1.1-0.8l-5-19c-2.8,0.8-5.6,1.5-8.4,2.3l6.1,17.4
					c0.2,0.6-0.1,1.2-0.7,1.4c-0.1,0-0.2,0.1-0.4,0.1c-0.5,0-0.9-0.3-1.1-0.8l-6.1-17.6c-2.4,0.6-4.8,1.3-7.1,1.9l4.9,18.9
					c0.2,0.6-0.2,1.2-0.8,1.4c-0.1,0-0.2,0-0.3,0c-0.5,0-1-0.3-1.1-0.8l-4.9-18.9c-4.4,1.2-8.8,2.4-13.1,3.6l8.8,19.8
					c0.3,0.6,0,1.2-0.6,1.5c-0.2,0.1-0.3,0.1-0.5,0.1c-0.4,0-0.8-0.2-1-0.7l-9-20.1c-1.3,0.4-2.6,0.7-3.8,1.1l7.1,20.2
					c0.2,0.6-0.1,1.2-0.7,1.4c-0.1,0-0.2,0.1-0.4,0.1c-0.5,0-0.9-0.3-1.1-0.8l-7.2-20.3c-3.5,1-7,1.9-10.5,2.9l9,20.2
					c0.3,0.6,0,1.2-0.6,1.5c-0.1,0.1-0.3,0.1-0.5,0.1c-0.4,0-0.8-0.2-1-0.7l-9.2-20.5c-2.2,0.6-4.4,1.2-6.5,1.8l6.7,19
					c0.2,0.6-0.1,1.2-0.7,1.4c-0.1,0-0.2,0.1-0.4,0.1c-0.5,0-0.9-0.3-1.1-0.8l-6.8-19.2c-2.9,0.8-5.7,1.6-8.6,2.3l8.1,18.1
					c0.2,0.6,0,1.2-0.6,1.5c-0.1,0.1-0.3,0.1-0.5,0.1c-0.4,0-0.8-0.2-1-0.7l-8.2-18.5c-2,0.6-4.1,1.1-6.2,1.7l5.3,21.2
					c0.1,0.6-0.2,1.2-0.8,1.4c-0.1,0-0.2,0-0.3,0c-0.5,0-1-0.4-1.1-0.9l-5.3-21.2c-1.5,0.4-3,0.8-4.5,1.2l-0.4,22.9
					c0,0.6-0.5,1.1-1.1,1.1c0,0,0,0,0,0c-0.6,0-1.1-0.5-1.1-1.2l0.4-22.2c-2.2,0.6-4.5,1.2-6.7,1.8l-0.3,20.2c0,0.6-0.5,1.1-1.1,1.1
					c0,0,0,0,0,0c-0.6,0-1.1-0.5-1.1-1.2l0.3-19.5c-2.8,0.8-5.6,1.5-8.4,2.3l-8.4,15.6c-0.2,0.4-0.6,0.6-1,0.6c-0.2,0-0.4,0-0.5-0.1
					c-0.5-0.3-0.8-1-0.5-1.5l7.9-14.6c-1.7-1.6-3.4-3.1-5-4.7l-8.8,16.3c-0.2,0.4-0.6,0.6-1,0.6c-0.2,0-0.4,0-0.5-0.1
					c-0.6-0.3-0.8-1-0.5-1.5l9-16.8c-8.7-8-17.4-16.1-26.1-24.1c-0.1-0.1-0.1-0.1-0.2-0.2l-0.3,0.3l-10.9,13.7
					c-0.2,0.3-0.6,0.4-0.9,0.4c-0.2,0-0.5-0.1-0.7-0.2c-0.5-0.4-0.6-1.1-0.2-1.6l9-11.2l2.3-2.9c-2.3-2.2-4.7-4.3-7-6.5L428.6,784
					c-0.2,0.2-0.5,0.4-0.8,0.4c-0.3,0-0.6-0.1-0.8-0.3c-0.5-0.4-0.5-1.1,0-1.6l13.1-13.9l-5.1-4.7l-13.8,10.3
					c-0.2,0.1-0.4,0.2-0.7,0.2c-0.4,0-0.7-0.2-0.9-0.5c-0.4-0.5-0.3-1.2,0.2-1.6l13.4-10c-2.1-2-4.2-3.9-6.3-5.9l-12.8,11.2
					c-0.2,0.2-0.5,0.3-0.7,0.3c-0.3,0-0.6-0.1-0.8-0.4c-0.4-0.5-0.4-1.2,0.1-1.6l12.6-11.1c-1.7-1.6-3.5-3.2-5.2-4.8L405,761.3
					c-0.2,0.2-0.4,0.2-0.7,0.2c-0.3,0-0.7-0.2-0.9-0.5c-0.4-0.5-0.3-1.2,0.2-1.6l14.8-11c-2.6-2.4-5.2-4.8-7.8-7.2L397.5,753
					c-0.2,0.2-0.5,0.3-0.7,0.3c-0.3,0-0.6-0.1-0.9-0.4c-0.4-0.5-0.4-1.2,0.1-1.6l13-11.5c-1.1-1-2.1-2-3.2-3l-14.3,10.6
					c-0.2,0.2-0.4,0.2-0.7,0.2c-0.4,0-0.7-0.2-0.9-0.5c-0.4-0.5-0.3-1.2,0.2-1.6l13.9-10.4c-3.1-2.9-6.3-5.8-9.5-8.8l-10.3,10.8
					c-0.2,0.2-0.5,0.4-0.8,0.4c-0.3,0-0.6-0.1-0.8-0.3c-0.5-0.4-0.5-1.2,0-1.6L393,725c-1.9-1.8-3.8-3.5-5.7-5.3l-10.2,9
					c-0.2,0.2-0.5,0.3-0.7,0.3c-0.3,0-0.6-0.1-0.8-0.4c-0.4-0.5-0.4-1.2,0.1-1.6l10.1-8.9c-2-1.9-4.1-3.8-6.1-5.7l-10,10.4
					c-0.2,0.2-0.5,0.3-0.8,0.3c-0.3,0-0.6-0.1-0.8-0.3c-0.5-0.4-0.5-1.1,0-1.6l10-10.4c-1.8-1.6-3.5-3.3-5.3-4.9l-12.8,11.3
					c-0.2,0.2-0.5,0.3-0.7,0.3c-0.3,0-0.6-0.1-0.8-0.4c-0.4-0.5-0.4-1.2,0.1-1.6l12.6-11.1c-2.5-2.4-5.1-4.7-7.6-7.1l-11.7,12.1
					c-0.2,0.2-0.5,0.3-0.8,0.3c-0.3,0-0.6-0.1-0.8-0.3c-0.4-0.4-0.5-1.1,0-1.6l11.6-12.1c-1.1-1-2.1-2-3.2-3l-13.2,11.7
					c-0.2,0.2-0.5,0.3-0.7,0.3c-0.3,0-0.6-0.1-0.8-0.4c-0.4-0.5-0.4-1.2,0.1-1.6l13-11.5c-3.1-2.9-6.2-5.7-9.2-8.6l-10.2,10.7
					c-0.2,0.2-0.5,0.4-0.8,0.4c-0.3,0-0.6-0.1-0.8-0.3c-0.4-0.4-0.5-1.2,0-1.6l10.2-10.6c-1.5-1.4-3.1-2.8-4.6-4.3l-12.3,10.9
					c-0.2,0.2-0.5,0.3-0.7,0.3c-0.3,0-0.6-0.1-0.8-0.4c-0.4-0.5-0.4-1.2,0.1-1.6l12.2-10.8c-2.8-2.6-5.7-5.2-8.5-7.8l-10.4,10.8
					c-0.2,0.2-0.5,0.4-0.8,0.4c-0.3,0-0.6-0.1-0.8-0.3c-0.5-0.4-0.5-1.1,0-1.6l10.4-10.8c-1.7-1.6-3.5-3.2-5.2-4.9L311,672.9
					c-0.2,0.2-0.5,0.3-0.8,0.3c-0.3,0-0.6-0.1-0.8-0.4c-0.4-0.5-0.4-1.2,0.1-1.6l13-11.5c-2.1-2-4.2-3.9-6.4-5.9L303.4,667
					c-0.2,0.2-0.5,0.3-0.8,0.3c-0.3,0-0.6-0.1-0.8-0.3c-0.5-0.4-0.5-1.1,0-1.6l12.7-13.2c-1.7-1.6-3.4-3.1-5-4.7l-15.7,13.9
					c-0.2,0.2-0.5,0.3-0.7,0.3c-0.3,0-0.6-0.1-0.8-0.4c-0.4-0.5-0.4-1.2,0.1-1.6l15.5-13.7c-1.1-1-2.2-2-3.3-3.1
					c21.9-15.1,42.3-22,60.6-24.5c84.2-11.4,117.4,71.4,233.8,60c79.2-7.8,118.9-51.5,199.9-31.8c10.9,2.6,32.1,7.9,54.8,21.9
					c6.6,4.1,13.4,8.8,20,14.5c5.9,5,11.1,10.2,15.9,15.7c-1.9,0.5-3.8,1-5.7,1.6l7,15.9C891,716.8,890.8,717.4,890.2,717.7z"/>
				<path class="st13" d="M877.5,717.6l-0.1,0l0.1,0.4L877.5,717.6z M852.4,719.5l-2.3,0.2l0.3,0.9c0.8-0.1,1.6-0.1,2.3-0.2
					L852.4,719.5z M763.2,641.7c-0.4,0-0.8,0-1.2,0c10,18.5,29.9,54.8,43.8,79.9c0.3-0.1,0.6-0.2,0.9-0.2L763.2,641.7z M472.7,809.9
					l-0.6,1c0.4,0.8,0.9,1.6,1.3,2.4l0.6-1L472.7,809.9z M413.2,752.4l-2.3,1.7c1.3-0.1,2.7-0.2,4.2-0.3l2.4-1.8L413.2,752.4z
					 M798.4,723.5l-85.1,6.4L675,660c-0.3,0.1-0.7,0.2-1,0.3c6.6,12.2,19.4,35.6,38.2,69.7l-93.9,7l-31.6-57.7c-0.4,0-0.8,0-1.2,0.1
					c7.2,13.1,17.8,32.4,31.7,57.7l-82.2,6.2l-40-72.9c6.9-0.5,13.5-1,19.7-1.4c-0.8-0.3-1.7-0.6-2.5-0.9l-17.8,1.2l-6.3-11.5
					c-0.6-0.3-1.3-0.6-1.9-0.9c2,3.6,4.2,7.8,6.8,12.5l-94,6.3l-31.6-57.5c-0.4,0-0.8,0.1-1.3,0.2c5.2,9.8,14.6,27,31.4,57.5
					l-53.7,3.6c0.5,0.4,0.9,0.8,1.4,1.3c14.6-1,32.3-2.2,53.1-3.6c11.4,20.8,25,45.5,40.5,73.4l-16.8,1.3c0.5,0.5,1.1,1,1.6,1.5
					c4.9-0.3,10.3-0.7,16.1-1.1c6.3,11.4,12.5,22.5,18.2,32.8c0.8,0.8,1.7,1.6,2.5,2.3l-19.4-35.3c24.4-1.8,55.9-4.1,93.8-6.9
					c9.1,16.5,17.6,31.9,24.2,43.8c0.3-0.1,0.6-0.2,1-0.3L535.9,745c26.3-2,54.1-4.1,82.1-6.3c6.1,11.1,11.9,21.5,16.3,29.5
					c0.3-0.1,0.6-0.2,0.9-0.2l-16.1-29.4c31.8-2.4,63.7-4.9,93.8-7.3c2.6,4.7,5.1,9.3,7.4,13.4c0.1,0,0.2,0,0.3-0.1l1.2,2.6
					c3.3,6.1,6.2,11.2,8.3,15c0.3-0.3,0.4-0.8,0.2-1.2l-0.6-1.3L714,731.3c28.4-2.2,55.1-4.3,78.4-6.2
					C794.4,724.6,796.4,724.1,798.4,723.5z M399.7,677c27-1.8,58.5-4,93.9-6.5c10,18.3,23.5,42.8,40.1,72.9l-93.7,7L399.7,677z
					 M535.2,744.2l-0.7,0c-38.1,2.9-69.9,5.2-94.3,7l-0.7,0c-0.5,0-1,0.1-1.4,0.1l2-0.1l173.9-13
					C587.1,740.3,560.4,742.3,535.2,744.2z M332.7,681.5c1.2-0.1,2.4-0.2,3.7-0.2l1.6-1.5l-3.7,0.2L332.7,681.5z M477.8,819.2
					l-0.5,1c0.5,0.8,0.9,1.6,1.3,2.4l0.5-1L477.8,819.2z M868.4,718.3l-2.4,0.2l0.4,0.9c0.8-0.1,1.6-0.1,2.4-0.2L868.4,718.3z"/>
				<path class="st7" d="M890.2,717.7c-0.1,0.1-0.3,0.1-0.5,0.1c-0.4,0-0.9-0.3-1-0.7l-7.1-16.3c-2.3,0.6-4.6,1.3-6.9,1.9l5,14.6
					c0.2,0.6-0.1,1.2-0.7,1.4c-0.1,0-0.2,0.1-0.4,0.1c-0.5,0-0.9-0.3-1.1-0.8c0,0,0,0,0,0l-0.1-0.4l-4.9-14.3
					c-3.2,0.9-6.3,1.7-9.5,2.6l5.4,12.4l0.4,0.9l1.4,3.1c0.2,0.6,0,1.2-0.6,1.5c-0.2,0.1-0.3,0.1-0.5,0.1c-0.4,0-0.9-0.3-1-0.7
					l-1.7-3.8l-0.4-0.9l-5.2-12c-3.9,1.1-7.8,2.1-11.8,3.2l3.4,9.8l0.3,0.9l1.8,5.1c0.2,0.6-0.1,1.2-0.7,1.4c-0.1,0-0.2,0.1-0.4,0.1
					c-0.5,0-0.9-0.3-1.1-0.8l-1.9-5.7l-0.3-0.9l-3.2-9.4c-13.4,3.7-26.8,7.3-40.2,11c-0.3,0.1-0.6,0.2-0.9,0.2
					c-2.4,0.7-4.9,1.3-7.3,2c-2,0.5-4,1.1-6,1.6c-16.7,4.6-33.4,9.1-50.1,13.7l8.4,19.3c0.2,0.6,0,1.2-0.6,1.5
					c-0.1,0.1-0.3,0.1-0.5,0.1c-0.4,0-0.9-0.2-1-0.7l-8.5-19.6c-2.2,0.6-4.4,1.2-6.6,1.8l6.2,18c0.2,0.6-0.1,1.2-0.7,1.4
					c-0.1,0-0.2,0.1-0.4,0.1c-0.5,0-0.9-0.3-1.1-0.8l-6.2-18.2c-2.8,0.8-5.6,1.5-8.5,2.3l6.9,15.7l0.6,1.3c0.2,0.4,0.1,0.9-0.2,1.2
					c-0.1,0.1-0.2,0.2-0.4,0.3c-0.1,0.1-0.3,0.1-0.5,0.1c-0.4,0-0.9-0.2-1-0.7l-6.4-14.7l-1.2-2.6c-0.1,0-0.2,0.1-0.3,0.1
					c-2.2,0.6-4.4,1.2-6.5,1.8l5.4,15.7c0.2,0.6-0.1,1.2-0.7,1.4c-0.1,0-0.2,0.1-0.4,0.1c-0.5,0-0.9-0.3-1.1-0.8l-5.4-15.9
					c-3.2,0.9-6.4,1.8-9.6,2.6l7.6,17.5c0.2,0.6,0,1.2-0.6,1.5c-0.1,0.1-0.3,0.1-0.5,0.1c-0.4,0-0.9-0.2-1-0.7l-7.8-17.8
					c-3.9,1.1-7.8,2.1-11.7,3.2l5.8,16.9c0.2,0.6-0.1,1.2-0.7,1.4c-0.1,0-0.2,0.1-0.4,0.1c-0.5,0-0.9-0.3-1.1-0.8l-5.9-17.1
					c-2.8,0.8-5.6,1.5-8.4,2.3l8.3,19c0.2,0.6,0,1.2-0.6,1.5c-0.2,0.1-0.3,0.1-0.5,0.1c-0.4,0-0.9-0.2-1-0.7l-8.4-19.3
					c-13.4,3.6-26.7,7.3-40.1,10.9c-0.3,0.1-0.6,0.2-0.9,0.2c-10.5,2.9-21,5.7-31.6,8.6l7.4,21.2c0.2,0.6-0.1,1.2-0.7,1.4
					c-0.1,0-0.2,0.1-0.4,0.1c-0.5,0-0.9-0.3-1.1-0.8l-7.5-21.3c-2.2,0.6-4.3,1.2-6.5,1.8l5,19.1c0.2,0.6-0.2,1.2-0.8,1.4
					c-0.1,0-0.2,0-0.3,0c-0.5,0-1-0.3-1.1-0.8l-5-19c-2.8,0.8-5.6,1.5-8.4,2.3l6.1,17.4c0.2,0.6-0.1,1.2-0.7,1.4
					c-0.1,0-0.2,0.1-0.4,0.1c-0.5,0-0.9-0.3-1.1-0.8l-6.2-17.6c-2.4,0.7-4.8,1.3-7.1,1.9l5,19c0.2,0.6-0.2,1.2-0.8,1.4
					c-0.1,0-0.2,0-0.3,0c-0.5,0-1-0.3-1.1-0.8l-5-18.9c-4,1.1-8.1,2.2-12.1,3.3c-0.3,0.1-0.6,0.2-1,0.3c0,0,0,0,0,0l8.8,19.8
					c0.3,0.6,0,1.2-0.6,1.5c-0.2,0.1-0.3,0.1-0.5,0.1c-0.4,0-0.8-0.2-1-0.7l-9-20.1c-1.3,0.4-2.6,0.7-3.9,1.1l7.1,20.2
					c0.2,0.6-0.1,1.2-0.7,1.4c-0.1,0-0.2,0.1-0.4,0.1c-0.5,0-0.9-0.3-1.1-0.8l-7.2-20.4c-3.5,1-7,1.9-10.5,2.9l9,20.2
					c0.3,0.6,0,1.2-0.6,1.5c-0.2,0.1-0.3,0.1-0.5,0.1c-0.4,0-0.8-0.2-1-0.7l-9.2-20.5c-2.2,0.6-4.3,1.2-6.5,1.8l6.7,19
					c0.2,0.6-0.1,1.2-0.7,1.4c-0.1,0-0.2,0.1-0.4,0.1c-0.5,0-0.9-0.3-1.1-0.8l-6.8-19.2c-2.9,0.8-5.7,1.6-8.6,2.3l8.1,18.1
					c0.2,0.6,0,1.2-0.6,1.5c-0.1,0.1-0.3,0.1-0.5,0.1c-0.4,0-0.8-0.2-1-0.7l-8.2-18.4c-2,0.6-4.1,1.1-6.1,1.7l5.3,21.2
					c0.2,0.6-0.2,1.2-0.8,1.4c-0.1,0-0.2,0-0.3,0c-0.5,0-1-0.3-1.1-0.9l-5.3-21.2c-1.5,0.4-3,0.8-4.5,1.2l-0.4,22.9
					c0,0.6-0.5,1.1-1.1,1.1c0,0,0,0,0,0c-0.6,0-1.1-0.5-1.1-1.2l0.4-22.2c-2.2,0.6-4.5,1.2-6.7,1.8l-0.3,20.2c0,0.6-0.5,1.1-1.1,1.1
					c0,0,0,0,0,0c-0.6,0-1.1-0.5-1.1-1.1l0.3-19.5c-2.8,0.8-5.6,1.5-8.4,2.3l-6.9,12.8l-0.5,1l-1,1.9c-0.2,0.4-0.6,0.6-1,0.6
					c-0.2,0-0.4,0-0.5-0.1c-0.5-0.3-0.8-1-0.5-1.5l1.7-3.2l0.5-1l5.6-10.5c-1.7-1.5-3.4-3.1-5-4.7l-4.4,8.2l-0.6,1l-3.8,7
					c-0.2,0.4-0.6,0.6-1,0.6c-0.2,0-0.4,0-0.5-0.1c-0.6-0.3-0.8-1-0.5-1.5l4.5-8.3l0.6-1l4-7.4c-5.5-5-10.9-10.1-16.4-15.2
					c-0.8-0.8-1.7-1.6-2.5-2.3c-2.5-2.3-4.9-4.6-7.4-6.8l-11.2,14c-0.2,0.3-0.6,0.4-0.9,0.4c-0.2,0-0.5-0.1-0.7-0.2
					c-0.5-0.4-0.6-1.1-0.2-1.6l11.3-14.1c-2.3-2.2-4.7-4.3-7-6.5L428.6,784c-0.2,0.2-0.5,0.4-0.8,0.4c-0.3,0-0.6-0.1-0.8-0.3
					c-0.5-0.4-0.5-1.2,0-1.6l13.1-13.9c-1.7-1.6-3.4-3.1-5.1-4.7l-13.8,10.3c-0.2,0.2-0.4,0.2-0.7,0.2c-0.3,0-0.7-0.2-0.9-0.5
					c-0.4-0.5-0.3-1.2,0.2-1.6l13.4-10c-2.1-2-4.2-3.9-6.3-5.9l-12.8,11.2c-0.2,0.2-0.5,0.3-0.7,0.3c-0.3,0-0.6-0.1-0.8-0.4
					c-0.4-0.5-0.4-1.2,0.1-1.6l12.6-11.1c-0.6-0.5-1.2-1.1-1.8-1.6c-0.5-0.5-1.1-1-1.6-1.5c-0.6-0.6-1.2-1.1-1.8-1.7l-2.7,2
					l-2.4,1.8l-10,7.5c-0.2,0.2-0.4,0.2-0.7,0.2c-0.3,0-0.7-0.2-0.9-0.5c-0.4-0.5-0.3-1.2,0.2-1.6l7.2-5.4l2.3-1.7l5.2-3.9
					c-2.6-2.4-5.2-4.8-7.8-7.2L397.5,753c-0.2,0.2-0.5,0.3-0.8,0.3c-0.3,0-0.6-0.1-0.9-0.4c-0.4-0.5-0.4-1.2,0.1-1.6l13-11.5
					c-1.1-1-2.1-2-3.2-3l-14.3,10.6c-0.2,0.2-0.4,0.2-0.7,0.2c-0.3,0-0.7-0.2-0.9-0.5c-0.4-0.5-0.3-1.2,0.2-1.6l13.9-10.4
					c-3.2-2.9-6.3-5.8-9.5-8.8l-10.3,10.8c-0.2,0.2-0.5,0.3-0.8,0.3c-0.3,0-0.6-0.1-0.8-0.3c-0.5-0.4-0.5-1.1,0-1.6L393,725
					c-1.9-1.8-3.8-3.5-5.7-5.3l-10.2,9c-0.2,0.2-0.5,0.3-0.8,0.3c-0.3,0-0.6-0.1-0.8-0.4c-0.4-0.5-0.4-1.2,0.1-1.6l10.1-8.9
					c-2-1.9-4.1-3.8-6.1-5.7l-10,10.4c-0.2,0.2-0.5,0.3-0.8,0.3c-0.3,0-0.6-0.1-0.8-0.3c-0.4-0.4-0.5-1.2,0-1.6l10-10.4
					c-1.8-1.6-3.5-3.3-5.3-4.9l-12.8,11.3c-0.2,0.2-0.5,0.3-0.8,0.3c-0.3,0-0.6-0.1-0.9-0.4c-0.4-0.5-0.4-1.2,0.1-1.6l12.6-11.1
					c-2.5-2.3-5.1-4.7-7.6-7.1l-11.7,12.1c-0.2,0.2-0.5,0.3-0.8,0.3c-0.3,0-0.6-0.1-0.8-0.3c-0.5-0.4-0.5-1.1,0-1.6l11.6-12.1
					c-1.1-1-2.1-2-3.2-3l-13.2,11.6c-0.2,0.2-0.5,0.3-0.8,0.3c-0.3,0-0.6-0.1-0.8-0.4c-0.4-0.5-0.4-1.2,0.1-1.6l13-11.5
					c-3.1-2.9-6.2-5.7-9.2-8.6l-10.2,10.6c-0.2,0.2-0.5,0.4-0.8,0.4c-0.3,0-0.6-0.1-0.8-0.3c-0.4-0.4-0.5-1.2,0-1.6l10.2-10.6
					c-0.2-0.2-0.4-0.4-0.6-0.6c-0.5-0.4-0.9-0.8-1.4-1.3c-0.9-0.8-1.7-1.6-2.6-2.4l-3.2,2.8l-1.6,1.5l-7.5,6.7
					c-0.2,0.2-0.5,0.3-0.8,0.3c-0.3,0-0.6-0.1-0.8-0.4c-0.4-0.5-0.4-1.2,0.1-1.6l5.4-4.7l1.6-1.4l5.2-4.6c-2.8-2.6-5.7-5.2-8.5-7.8
					l-10.4,10.8c-0.2,0.2-0.5,0.3-0.8,0.3c-0.3,0-0.6-0.1-0.8-0.3c-0.4-0.4-0.5-1.2,0-1.6l10.4-10.8c-1.8-1.6-3.5-3.2-5.2-4.8
					L311,672.9c-0.2,0.2-0.5,0.3-0.8,0.3c-0.3,0-0.6-0.1-0.9-0.4c-0.4-0.5-0.4-1.2,0.1-1.6l13-11.5c-2.1-2-4.2-3.9-6.3-5.9
					L303.4,667c-0.2,0.2-0.5,0.4-0.8,0.4c-0.3,0-0.6-0.1-0.8-0.3c-0.5-0.4-0.5-1.2,0-1.6l12.7-13.2c-1.7-1.6-3.4-3.1-5-4.7
					l-15.7,13.9c-0.2,0.2-0.5,0.3-0.8,0.3c-0.3,0-0.6-0.1-0.8-0.4c-0.4-0.5-0.4-1.2,0.1-1.6l15.5-13.7c-1.1-1-2.2-2-3.3-3.1
					c21.9-15.1,42.3-22,60.6-24.5c0.4,0,0.8-0.1,1.1-0.1c0.4-0.1,0.9-0.1,1.3-0.2c47.5-5.5,78.8,19.1,118.8,38.8
					c0.6,0.3,1.3,0.6,1.9,0.9c7.6,3.7,15.6,7.2,24.1,10.3c0.8,0.3,1.7,0.6,2.5,0.9c20,7,42.9,11.5,70.8,10.4c0.4,0,0.8,0,1.2-0.1
					c3.9-0.2,8-0.4,12.1-0.9c29.1-2.8,52.8-10.5,75.2-18.2c0.3-0.1,0.7-0.2,1-0.3c28.3-9.6,54.6-19,87-18.3c0.4,0,0.8,0,1.2,0
					c11,0.3,22.8,1.9,35.6,5c14,3.4,45.3,11.2,74.8,36.3c5.8,5,11.1,10.2,15.9,15.7c-1.9,0.5-3.8,1-5.7,1.5l7,16
					C891,716.8,890.8,717.4,890.2,717.7z"/>
				<path class="st5" d="M677,778.9c-0.4,0-0.8-0.3-0.9-0.7l-7.7-22.6c-0.2-0.5,0.1-1.1,0.6-1.3c0.5-0.2,1.1,0.1,1.3,0.6l7.7,22.6
					c0.2,0.5-0.1,1.1-0.6,1.3C677.2,778.8,677.1,778.9,677,778.9z"/>
				<path class="st5" d="M441.9,795.5c-0.3,0-0.6-0.1-0.8-0.3c-0.4-0.4-0.3-1,0.1-1.4l17.9-15.8c0.4-0.4,1-0.3,1.4,0.1
					c0.4,0.4,0.3,1-0.1,1.4l-17.9,15.8C442.3,795.5,442.1,795.5,441.9,795.5z"/>
				<path class="st5" d="M449.5,803.9c-0.3,0-0.6-0.1-0.8-0.4c-0.3-0.4-0.2-1.1,0.2-1.4l19.2-14.3c0.4-0.3,1.1-0.2,1.4,0.2
					c0.3,0.4,0.2,1.1-0.2,1.4l-19.2,14.3C449.9,803.8,449.7,803.9,449.5,803.9z"/>
				<path class="st5" d="M458.6,810.3c-0.3,0-0.6-0.1-0.8-0.3c-0.4-0.4-0.3-1,0.1-1.4l17.9-15.8c0.4-0.4,1-0.3,1.4,0.1
					c0.4,0.4,0.3,1-0.1,1.4L459.3,810C459.1,810.2,458.8,810.3,458.6,810.3z"/>
				<linearGradient id="SVGID_1_" gradientUnits="userSpaceOnUse" x1="437.1922" y1="785.5284" x2="450.0996" y2="785.5284">
					<stop  offset="0" style="stop-color:#FC860A"/>
					<stop  offset="1" style="stop-color:#F2BE54"/>
				</linearGradient>
				<path class="st14" d="M446.4,779.5c1.2-0.3,2.5-0.7,3.7-1l-10.9,13.7c-0.2,0.3-0.6,0.4-0.9,0.4c-0.2,0-0.5-0.1-0.7-0.2
					c-0.5-0.4-0.6-1.1-0.2-1.6L446.4,779.5z"/>
				<linearGradient id="SVGID_2_" gradientUnits="userSpaceOnUse" x1="450.5863" y1="747.975" x2="890.8613" y2="747.975">
					<stop  offset="0" style="stop-color:#FC860A"/>
					<stop  offset="1" style="stop-color:#F2BE54"/>
				</linearGradient>
				<path class="st15" d="M890.2,717.7c-0.1,0.1-0.3,0.1-0.5,0.1c-0.4,0-0.8-0.2-1-0.7l-7.1-16.3c-2.3,0.6-4.6,1.3-6.9,1.9l5,14.6
					c0.2,0.6-0.1,1.2-0.7,1.4c-0.1,0-0.2,0.1-0.4,0.1c-0.5,0-0.9-0.3-1.1-0.8l-5-14.7c-3.2,0.9-6.3,1.7-9.5,2.6l7.1,16.3
					c0.2,0.6,0,1.2-0.6,1.5c-0.1,0.1-0.3,0.1-0.5,0.1c-0.4,0-0.8-0.2-1-0.7l-7.3-16.7c-3.9,1.1-7.8,2.1-11.7,3.2l5.4,15.8
					c0.2,0.6-0.1,1.2-0.7,1.4c-0.1,0-0.2,0.1-0.4,0.1c-0.5,0-0.9-0.3-1.1-0.8l-5.5-15.9c-34.9,9.5-69.7,19-104.6,28.5l8.4,19.3
					c0.2,0.6,0,1.2-0.6,1.5c-0.1,0.1-0.3,0.1-0.5,0.1c-0.4,0-0.8-0.2-1-0.7l-8.6-19.6c-2.2,0.6-4.4,1.2-6.6,1.8l6.2,18
					c0.2,0.6-0.1,1.2-0.7,1.4c-0.1,0-0.2,0.1-0.4,0.1c-0.5,0-0.9-0.3-1.1-0.8l-6.2-18.2c-2.8,0.8-5.6,1.5-8.5,2.3l7.4,17.1
					c0.2,0.6,0,1.2-0.6,1.5c-0.1,0.1-0.3,0.1-0.5,0.1c-0.4,0-0.8-0.2-1-0.7l-7.6-17.4c-2.3,0.6-4.5,1.2-6.8,1.8l5.4,15.7
					c0.2,0.6-0.1,1.2-0.7,1.4c-0.1,0-0.2,0.1-0.4,0.1c-0.5,0-0.9-0.3-1.1-0.8l-5.4-15.9c-3.2,0.9-6.4,1.7-9.6,2.6l7.6,17.5
					c0.2,0.6,0,1.2-0.6,1.5c-0.1,0.1-0.3,0.1-0.5,0.1c-0.4,0-0.9-0.2-1-0.7l-7.8-17.8c-3.9,1.1-7.8,2.1-11.6,3.2l5.8,16.9
					c0.2,0.6-0.1,1.2-0.7,1.4c-0.1,0-0.2,0.1-0.4,0.1c-0.5,0-0.9-0.3-1.1-0.8l-5.9-17.1c-2.8,0.8-5.6,1.5-8.4,2.3l8.3,19
					c0.3,0.6,0,1.2-0.6,1.5c-0.1,0.1-0.3,0.1-0.5,0.1c-0.4,0-0.9-0.2-1-0.7l-8.4-19.3c-24.2,6.6-48.4,13.2-72.5,19.8l7.4,21.2
					c0.2,0.6-0.1,1.2-0.7,1.4c-0.1,0-0.2,0.1-0.4,0.1c-0.5,0-0.9-0.3-1.1-0.8l-7.5-21.3c-2.2,0.6-4.3,1.2-6.5,1.8l5,19.1
					c0.2,0.6-0.2,1.2-0.8,1.4c-0.1,0-0.2,0-0.3,0c-0.5,0-1-0.3-1.1-0.8l-5-19c-2.8,0.8-5.6,1.5-8.4,2.3l6.1,17.4
					c0.2,0.6-0.1,1.2-0.7,1.4c-0.1,0-0.2,0.1-0.4,0.1c-0.5,0-0.9-0.3-1.1-0.8l-6.1-17.6c-2.4,0.6-4.8,1.3-7.1,1.9l4.9,18.9
					c0.2,0.6-0.2,1.2-0.8,1.4c-0.1,0-0.2,0-0.3,0c-0.5,0-1-0.3-1.1-0.8l-4.9-18.9c-4.4,1.2-8.8,2.4-13.1,3.6l8.8,19.8
					c0.3,0.6,0,1.2-0.6,1.5c-0.2,0.1-0.3,0.1-0.5,0.1c-0.4,0-0.8-0.2-1-0.7l-9-20.1c-1.3,0.4-2.6,0.7-3.8,1.1l7.1,20.2
					c0.2,0.6-0.1,1.2-0.7,1.4c-0.1,0-0.2,0.1-0.4,0.1c-0.5,0-0.9-0.3-1.1-0.8l-7.2-20.3c-3.5,1-7,1.9-10.5,2.9l9,20.2
					c0.3,0.6,0,1.2-0.6,1.5c-0.1,0.1-0.3,0.1-0.5,0.1c-0.4,0-0.8-0.2-1-0.7l-9.2-20.5c-2.2,0.6-4.4,1.2-6.5,1.8l6.7,19
					c0.2,0.6-0.1,1.2-0.7,1.4c-0.1,0-0.2,0.1-0.4,0.1c-0.5,0-0.9-0.3-1.1-0.8l-6.8-19.2c-2.9,0.8-5.7,1.6-8.6,2.3l8.1,18.1
					c0.2,0.6,0,1.2-0.6,1.5c-0.1,0.1-0.3,0.1-0.5,0.1c-0.4,0-0.8-0.2-1-0.7l-8.2-18.5c-2,0.6-4.1,1.1-6.2,1.7l5.3,21.2
					c0.1,0.6-0.2,1.2-0.8,1.4c-0.1,0-0.2,0-0.3,0c-0.5,0-1-0.4-1.1-0.9l-5.3-21.2c-1.5,0.4-3,0.8-4.5,1.2l-0.4,22.9
					c0,0.6-0.5,1.1-1.1,1.1c0,0,0,0,0,0c-0.6,0-1.1-0.5-1.1-1.2l0.4-22.2c-2.2,0.6-4.5,1.2-6.7,1.8l-0.3,20.2c0,0.6-0.5,1.1-1.1,1.1
					c0,0,0,0,0,0c-0.6,0-1.1-0.5-1.1-1.2l0.3-19.5c-2.8,0.8-5.6,1.5-8.4,2.3l-8.4,15.6c-0.2,0.4-0.6,0.6-1,0.6c-0.2,0-0.4,0-0.5-0.1
					c-0.5-0.3-0.8-1-0.5-1.5l7.9-14.6c-1.7-1.6-3.4-3.1-5-4.7l-8.8,16.3c-0.2,0.4-0.6,0.6-1,0.6c-0.2,0-0.4,0-0.5-0.1
					c-0.6-0.3-0.8-1-0.5-1.5l9-16.8c-8.7-8-17.4-16.1-26.1-24.1c100.5-27.6,297.1-81,402.9-109.8c6.6,4.1,13.4,8.8,20,14.5
					c5.9,5,11.1,10.2,15.9,15.7c-1.9,0.5-3.8,1-5.7,1.6l7,15.9C891,716.8,890.8,717.4,890.2,717.7z"/>
			</g>
			<linearGradient id="SVGID_3_" gradientUnits="userSpaceOnUse" x1="519.852" y1="995.0969" x2="938.1968" y2="995.0969">
				<stop  offset="2.383814e-03" style="stop-color:#FF931E"/>
				<stop  offset="0.6622" style="stop-color:#0D2A28"/>
			</linearGradient>
			<polygon class="st16" points="938.2,955.5 907.4,955.5 938.2,1044.2 929.1,1044.2 883,955.5 861.4,955.5 872.6,987.7 
				863.5,987.7 846.7,955.5 519.9,955.5 524.6,946 938.2,946 			"/>
			<path class="st1" d="M311.7,583.9"/>
		</g>
		<g id="woman1">
			<g id="body_general">
				<g id="socks">
					<path class="st6" d="M418.7,837.5c0,0-0.6,4.8-2.7,10.1c-2.1,5.4-5.7,11.4-11.7,13c-6.3,1.8-10.3-2.3-16.5-7.2
						c-5.3-4.2-12.1-9-23.4-11.3c-24.6-5.1-15.3-30.9-10.5-20.7c1.2,2.4,4,4.5,7.7,6.2c7,3.2,17.1,5.2,24,6.2c4.6,0.7,7.9,1,7.9,1
						L418.7,837.5z"/>
					<path class="st6" d="M632,1089c-2.9,4-9.1,0.8-19.5,1.7c-1.6,0.1-3.3,0.4-5.1,0.8c-9.6,2.1-8.9,5.3-19.1,7.4
						c-10,2-22.5,1.3-24.3-3.4c-0.5-1.4-0.4-3.8,0.8-4.7c1.1-0.8,2.9,0.1,3.5,0.2c3.1,0.3,6,0.1,8.8-0.4c6.1-1.2,11.6-4,16.7-6.5
						c3.1-1.6,5.6-2.8,7.5-4.1c2.2-1.5,3.8-3,5.1-5.1c2.5-4.1,2.8-8.4,2.8-10.9c6.7-0.9,13.4-1.7,20.1-2.6c1.1,3.3,2.3,8.1,3,13.9
						c0,0,0,0.1,0,0.1C632.8,1083.2,633.3,1087.2,632,1089z"/>
					<path class="st17" d="M416,847.6c-2.1,5.4-5.7,11.4-11.7,13c-6.3,1.8-10.3-2.3-16.5-7.2C395.2,847.1,409.9,847.2,416,847.6z"/>
					<path class="st17" d="M632,1089c-2.9,4-9.1,0.8-19.5,1.7c3.3-10,14.1-14.1,19.5-15.5c0,0,0,0.1,0,0.1
						C632.8,1083.2,633.3,1087.2,632,1089z"/>
					<linearGradient id="SVGID_4_" gradientUnits="userSpaceOnUse" x1="361.7148" y1="831.9087" x2="385.6901" y2="831.9087">
						<stop  offset="0" style="stop-color:#FFFFFF;stop-opacity:0.5"/>
						<stop  offset="0.8362" style="stop-color:#F07125"/>
					</linearGradient>
					<path class="st18" d="M385.7,833.7c-1.6,0.9-3.5,1.6-5.7,2c-10,2.1-15.4-2.6-18.3-8.2C368.7,830.7,378.8,832.7,385.7,833.7z"/>
					<linearGradient id="SVGID_5_" gradientUnits="userSpaceOnUse" x1="576.9716" y1="1085.8472" x2="601.1166" y2="1085.8472">
						<stop  offset="0" style="stop-color:#FFFFFF;stop-opacity:0.5"/>
						<stop  offset="0.8362" style="stop-color:#F07125"/>
					</linearGradient>
					<path class="st19" d="M601.1,1079.9c-0.7,2.2-2,4.4-4,6.5c-5.9,6.5-14,6-20.2,4.1c6.1-1.2,11.6-4,16.7-6.5
						C596.8,1082.4,599.2,1081.2,601.1,1079.9z"/>
				</g>
				<g id="leg_back">
					<path class="st20" d="M745.1,805.9c-14.1,16.5-28.3,33-42.4,49.5c-21.1-13.9-42.6-28.7-64.4-44.3
						c-14.8-10.6-29.3-21.2-43.3-31.8c-13-9.8-25.6-19.6-37.9-29.3c-5,5.1-12.8,12.5-23,20.6c-20,15.8-37,24.3-47.3,29.7
						c-16.8,8.8-40.6,22.5-69.6,43.6c-3.6-1.3-7.2-2.6-10.9-3.9c-5.5-2-11-3.9-16.5-5.9c44.6-40.1,75.2-68,93-84.2
						c21.1-19.2,37.9-34.8,53.9-43.1c10.6-5.5,20.8-7.9,31.7-6.2c5,0.8,7.8,2.1,30,14.6c27.1,15.3,44.2,24.9,57.1,32.5
						c4.5,2.6,8.5,5,12.2,7.3C688.3,768,714.7,785,745.1,805.9z"/>
					<path class="st21" d="M536.7,706.9c-43.5,44.4-86.9,88.8-130.4,133.2c-5.5-2-11-3.9-16.5-5.9c44.6-40.1,75.2-68,93-84.2
						C503.8,730.8,520.6,715.3,536.7,706.9z"/>
				</g>
				<g id="leg_front">
					<path class="st22" d="M728.6,884.8c-43.1,14.3-83.1,23.1-118,28.4c1.5,2.8,3.6,7,5.7,12.3c9,23,8,43,7.8,50.9
						c-0.6,19.6,1.1,48.8,7.5,95.1c-1.5-0.1-3-0.1-4.6-0.2c-3.2-0.1-6.3-0.2-9.5-0.3c-3.1-0.1-6.3-0.2-9.4-0.3
						c-9.9-30.7-17.3-57-22.7-77c-22.2-83-21.1-106.4-8.1-120.1c0.5-0.5,1.2-1.1,2.2-1.8c2.9-2,8.1-5,16.4-9.7
						c36.4-20.7,65.4-35.4,69.2-37.3c13-6.6,30.3-15.7,51-27.6c6.7-3.9,13.8-8,21.3-12.5c6.1,7.6,12.1,15.1,18.2,22.7
						c6.6,8.2,13.2,16.5,19.8,24.7c7,8.8,14,17.5,21.1,26.3C776,867.6,753.3,876.6,728.6,884.8z"/>
					<linearGradient id="SVGID_6_" gradientUnits="userSpaceOnUse" x1="597.1514" y1="947.5131" x2="796.4393" y2="947.5131">
						<stop  offset="0" style="stop-color:#9776A6"/>
						<stop  offset="1" style="stop-color:#271C41"/>
					</linearGradient>
					<path class="st23" d="M728.6,884.8c-43.1,14.3-83.1,23.1-118,28.4c1.5,2.8,3.6,7,5.7,12.3c9,23,8,43,7.8,50.9
						c-0.6,19.6,1.1,48.8,7.5,95.1c-1.5-0.1-3-0.1-4.6-0.2c-4.6-23.5-12.2-62.2-21.9-112c-7.1-36.6-11.9-52.5-3.4-59.9
						c4.4-3.8,10.2-3.5,13.9-3.5c37.2,0.4,75.3-21.1,105.9-38.5c11.7-6.7,28.6-17.4,47.1-34.1c2.3,2.9,4.6,5.7,6.8,8.6
						c7,8.8,14,17.5,21.1,26.3C776,867.6,753.3,876.6,728.6,884.8z"/>
					<linearGradient id="SVGID_7_" gradientUnits="userSpaceOnUse" x1="579.4506" y1="828.1982" x2="755.541" y2="828.1982">
						<stop  offset="0" style="stop-color:#FFFFFF;stop-opacity:0.5"/>
						<stop  offset="0.8362" style="stop-color:#F07125"/>
					</linearGradient>
					<path class="st24" d="M755.5,807.3c-45.2,16.7-130.7,48.2-176.1,64.4c2.9-2,8.1-5,16.4-9.7c36.4-20.7,65.4-35.4,69.2-37.3
						c13-6.6,30.3-15.7,51-27.6c6.7-3.9,13.8-8,21.3-12.5C743.4,792.2,749.5,799.8,755.5,807.3z"/>
				</g>
				<g id="body_up">
					<path class="st17" d="M865.6,669.7c0.6,30.5-19.4,76.5-49.3,145.6c-0.6,1.4-10.9,25.1-10.9,25.1c-3.3,7.3-6.3,13.4-8.7,18.2
						c-7.8-0.3-18.5-1.6-30.2-6.4c-2.2-0.9-4.4-1.9-6.6-3c-19.9-10.3-31.8-26.7-38.8-40.6c-5.8-11.7-8.2-21.6-8.9-24.7
						c9.2-5.3,22.9-15.4,31.5-32.5c0.8-1.6,3.4-6.9,5.5-14.7c4.7-17.3,3.1-32.2,1.3-41c-2.9,8.3-8.9,21.5-21.4,32.2
						c-11.4,9.8-24.1,14.5-35.8,16.6c-12.3,2.3-23.5,1.8-30.7,1.4c-29-1.5-50.3-13.6-61.1-20.9c-1.1-2.8-2.2-6-3.1-9.5
						c-1.4-5.4-2.1-10.3-2.5-14.5c68.2,20.2,95.9,10.1,108.6-3c13.6-14,15.3-36.9,37.6-57.1c1-0.9,2.1-1.8,3.2-2.7c0,0,0,0,0,0
						c0.6-0.5,1.2-1,1.8-1.5c10-7.8,19.8-12,26.5-14.4c63.6-4,80.5,16.5,85.3,23.8C863.4,652.7,865.5,660.5,865.6,669.7z"/>
					<path class="st25" d="M832.3,607.5c-3.5,11.7-9,19.1-12.4,23c-4.8,5.5-8.4,7.4-9.5,7.9c-7.4,3.8-18.3,5-27.8-0.7
						c-7-4.1-10.3-10.4-11.9-14.4c0.9-0.4,1.8-0.9,2.7-1.3l0,0c0.7-0.3,50.5-12.7,54.2-13.6c0.1,0,0.1,0,0.1,0
						C829.5,608.1,830.9,607.8,832.3,607.5z"/>
					<path class="st26" d="M750,647L750,647c0,0-5.4-3-7.4-6.4c1-0.9,2.1-1.8,3.2-2.7c0.8,1.1,1.5,2.5,2.2,3.9
						c-0.7-2.8-0.8-5.6,2.1-5.8c2.7-0.1,2.8,2.3,2.2,4.9c1.7-3.4,3.8-6.6,5.3-4C760,641.3,750,647,750,647z"/>
					<path class="st26" d="M775.2,664.3c-1.5-2.6-3.6,0.6-5.3,4c0.6-2.6,0.5-5-2.2-4.9c-2.9,0.1-2.8,3-2.1,5.8
						c-1.7-3.7-4.1-7.6-5.7-4.8c-2.5,4.3,7.6,10,7.7,10c0,0,0,0,0,0C767.7,674.3,777.6,668.6,775.2,664.3z"/>
					<path class="st26" d="M805.5,683.9c-1.5-2.6-3.6,0.6-5.3,4c0.6-2.6,0.5-5-2.2-4.9c-2.9,0.1-2.8,3-2.1,5.8
						c-1.7-3.7-4.1-7.6-5.7-4.8c-2.5,4.3,7.6,10,7.7,10c0,0,0,0,0,0C797.9,693.9,807.9,688.1,805.5,683.9z"/>
					<path class="st26" d="M841.5,673.2c-1.5-2.6-3.6,0.6-5.3,4c0.6-2.6,0.5-5-2.2-4.9c-2.9,0.1-2.8,3-2.1,5.8
						c-1.7-3.7-4.1-7.6-5.7-4.8c-2.5,4.3,7.6,10,7.7,10c0,0,0,0,0,0C833.9,683.2,843.9,677.5,841.5,673.2z"/>
					<linearGradient id="SVGID_8_" gradientUnits="userSpaceOnUse" x1="693.1917" y1="741.5583" x2="774.5207" y2="741.5583">
						<stop  offset="2.383814e-03" style="stop-color:#FF931E"/>
						<stop  offset="0.6622" style="stop-color:#0D2A28"/>
					</linearGradient>
					<path class="st27" d="M720.9,808.4c-5.8-11.7-8.2-21.6-8.9-24.7c9.2-5.3,22.9-15.4,31.5-32.5c0.8-1.6,3.4-6.9,5.5-14.7
						c4.7-17.3,3.1-32.2,1.3-41c-2.9,8.3-8.9,21.5-21.4,32.2c-11.4,9.8-24.1,14.5-35.8,16.6v0c7.9-6.7,19.9-18.1,31.4-34.7
						c13.9-20,18.3-34.7,27.2-34.8c9.2-0.1,17.3,15.6,20.2,24.4C786.8,743.8,731.6,798.2,720.9,808.4z"/>
					<path class="st28" d="M865.6,669.7c0.6,30.5-19.4,76.5-49.3,145.6c-0.6,1.4-10.9,25.1-10.9,25.1c-3.3,7.3-6.3,13.4-8.7,18.2
						c-7.8-0.3-18.5-1.6-30.2-6.4c42.7-26.5,91.6-184.5,91.6-184.5L865.6,669.7z"/>
				</g>
				<g id="hand_front">
					<path class="st29" d="M824.6,782.4c-0.1,0.8-0.3,1.6-0.5,2.3c-1.4,6-4.5,10.7-6.3,13.4c-0.6,0.9-0.5,0.7-0.6,0.9
						c-3.1,5.8,5,17.1,4.1,19.9c0,0.1-0.1,0.5-0.4,0.6c-0.7,0.3-2-1.5-2.5-2.1c-4.4-6.1-5-32.1-5-32.5c0,0-0.1-2,0.3-6.2v0
						c0-0.2,0-0.4,0.1-0.7c0.5-5.6,1.1-6.4,1.6-6.8c2.6-2.2,8.4,0.8,9.1,1.2C825.2,776.7,824.9,780.1,824.6,782.4z"/>
					<path class="st29" d="M815.4,805.4c0,0,6,14.3,8.1,13c2.1-1.2-6.8-17.8-6.8-17.8L815.4,805.4z"/>
					<path class="st29" d="M816.6,801.1c0,0,6,14.3,8.1,13c2.1-1.2-6.8-17.8-6.8-17.8L816.6,801.1z"/>
					<path class="st29" d="M827.6,788.3c0,0,0,18.2-2.5,16.3c-2.5-1.9-4.2-21.2-4.2-21.2l5.1-6.4L827.6,788.3"/>
					<path class="st30" d="M826,778.1c0.3,2.1,0.2,3.5,0.2,3.9c0,0.6-0.1,1.1-0.2,1.5c-0.6,0.2-4.4,1.5-8.2-0.5
						c-2.5-1.4-3.7-3.5-4.1-4.3v0c0-0.2,0-0.4,0.1-0.7c0.5-5.6,1.1-6.4,1.6-6.8c2.6-2.2,8.4,0.8,9.1,1.2
						C825,773.8,825.7,775.8,826,778.1z"/>
					<path class="st25" d="M935.1,721.1c-0.4,1.1-0.9,2.1-1.5,3.1c-5.9,10.4-20,16.9-36.6,24.6c-14.3,6.6-19.6,6.4-32.6,12.5
						c-16.8,7.9-28.8,18.5-36.9,27c-1.6-2.3-3.2-4.5-4.9-6.8c-2.4-3.4-4.9-6.9-7.3-10.3c7.8-11.4,21-27.6,41.8-40.7
						c18.4-11.6,34.5-15.5,34.3-24c-0.2-10-22.7-21.1-31.5-30.2c-4-4.2-5.8-6.1-10.3-10.6c-6-5.9-9-8.4-11.9-11.8
						c-1.8-2.1-3-3.9-3.4-4.5c-6.6-9.9-6.5-33,2.3-37.8c1.9-1,8.7-3.7,34.8,18.6c1.1,0.9,2.1,1.8,3.3,2.8
						c8.3,7.3,17.5,15.5,26.3,24.1C923.2,678.6,942.3,702.6,935.1,721.1z"/>
					<path class="st30" d="M901.2,657.2c-23.3,5.2-54.2,1.6-54.2,1.6l24.6-28.4c1.1,0.9,2.1,1.8,3.3,2.8
						C883.1,640.4,892.4,648.6,901.2,657.2z"/>
					<path class="st28" d="M933.6,724.2c-5.9,10.4-20,16.9-36.6,24.6c-14.3,6.6-19.6,6.4-32.6,12.5c-16.8,7.9-28.8,18.5-36.9,27
						c-1.6-2.3-3.2-4.5-4.9-6.8C832.8,771.2,882.7,723.2,933.6,724.2z"/>
				</g>
			</g>
			<g id="laptop">
				<path class="st31" d="M706.8,780.2c0,0-65.3-26.6-67.4-27.5c-11.3-4.6-22.6-9.1-33.9-13.7c-4.9-2-9.7-3.9-14.6-5.9
					c-1.4-20.4-2.9-40.7-4.3-61.1c26.3,2.1,52.6,4.2,78.9,6.3c0.1,0,0.1,0,0.2,0c-1.1,23.4-2.2,46.8-3.3,70.2l44.2,25.6L706.8,780.2
					z"/>
				<ellipse class="st8" cx="618.3" cy="708.8" rx="6.9" ry="9.2"/>
				<path class="st32" d="M706.8,780.2c0,0-65.3-26.6-67.4-27.5c-11.3-4.6-22.6-9.1-33.9-13.7l60-60.7c0.1,0,0.1,0,0.2,0
					c-1.1,23.4-2.2,46.8-3.3,70.2l44.2,25.6L706.8,780.2z"/>
			</g>
			<g id="hand_back">
				<path class="st29" d="M589,707.3c2.4-0.7,4.4-1.1,5.8-1.4c3.6-0.7,4.9-0.6,5.3,0.1c0,0,0.4,0.5,0.2,1c-0.3,1.1-2.8,0.9-5.4,1.4
					c-1.5,0.3-3.5,0.8-5.7,1.9c-0.1-0.1-0.9-0.8-0.8-1.8C588.6,707.9,588.9,707.5,589,707.3z"/>
				<path class="st29" d="M589.3,711.6c2.9-0.7,5.2-1.4,6.7-1.9c2.4-0.7,4.2-1.4,5-0.5c0.4,0.4,0.5,1,0.4,1.5
					c-0.3,1.2-2.3,1.5-4.4,2c-1.8,0.4-4.3,1-7.4,2c-0.1-0.1-1-0.7-0.9-1.7C588.6,712.2,589.1,711.7,589.3,711.6z"/>
				<path class="st29" d="M589.5,714.4c3.3-0.7,5.8-1.3,7.5-1.7c2-0.5,3.8-1,4.5-0.2c0.3,0.4,0.3,1,0.1,1.4c-0.4,1.2-2.3,1.6-4.1,2
					c-1.7,0.3-4.3,0.9-7.7,1.6c-0.1-0.1-0.8-0.5-0.9-1.4C588.7,715.1,589.4,714.4,589.5,714.4z"/>
				<path class="st29" d="M589.8,718.6c3.4-0.8,5.6-1.4,7.2-2c0.7-0.2,2.2-0.7,2.6-0.2c0.3,0.3,0.1,0.9,0.1,0.9
					c-0.3,0.8-1.4,1.1-1.9,1.2c-1.7,0.4-4.4,1.2-7.8,2.2c-0.1-0.1-0.5-0.4-0.6-1.1C589.4,719.1,589.8,718.6,589.8,718.6z"/>
			</g>
			<g id="head_general">
				<g id="neck">
					<path class="st29" d="M827.9,608.4c-0.7,3-4.9,20.3-20.3,27.5c-3.3,1.6-10.6,5-18.9,2.3c-10.9-3.6-14.7-14.7-15.2-16.2l0,0
						c3.6-1.4,5.8-3.4,7.1-4.9c2-2.2,3.2-4.7,3.8-7.2c1.5-5.4,0.6-11.1-0.3-14.5c-0.5-1.8-0.9-3-1-3.2c9.8-3.4,19.6-6.9,29.4-10.3
						c0.3,3.1,1.1,8.7,4.6,14.7C820.7,603,825.3,606.6,827.9,608.4z"/>
					<path class="st30" d="M798.9,592.6c-1,7.7-9,13.9-14.4,17.3c1.5-5.4,0.6-11.1-0.3-14.5L798.9,592.6z"/>
				</g>
				<path class="st29" d="M764.4,551c3.6-15.3,15.7-32.8,29.1-32.5c4.8,0.1,8.3,2.5,10.8,4.2c12.3,8.4,18.1,26.2,15.2,41.2
					c-4.7,24.3-33.2,42.2-45.8,35.8c-10.7-5.4-12.1-29.7-10.2-43.8C763.7,554.6,763.9,553.1,764.4,551z"/>
				<g id="eyes">
					<circle cx="784.3" cy="559.4" r="2"/>
					<circle cx="767.3" cy="560.3" r="2"/>
				</g>
				<path id="head" d="M776.7,588c-1.3,0-2.4-0.3-3-0.5c-0.3-0.1-0.5-0.5-0.4-0.8c0.1-0.3,0.5-0.5,0.8-0.4c0.8,0.3,2.8,0.8,5,0
					c2.6-1,3.8-3.2,4-3.8c0.1-0.3,0.5-0.4,0.8-0.3c0.3,0.1,0.4,0.5,0.3,0.8c-0.3,0.8-1.7,3.3-4.7,4.4
					C778.5,587.8,777.6,588,776.7,588z"/>
				<g id="brows">
					
						<ellipse transform="matrix(0.1619 -0.9868 0.9868 0.1619 116.6073 1236.0764)" class="st33" cx="786" cy="549.4" rx="0.9" ry="4.7"/>
					
						<ellipse transform="matrix(0.9503 -0.3115 0.3115 0.9503 -133.3912 266.3883)" class="st33" cx="767.3" cy="550.8" rx="4.7" ry="0.9"/>
				</g>
				<path id="nose_2_" class="st34" d="M775.4,560.3c-2.6,4.4-4.6,7.6-5.7,9.4c-2.3,3.7-3.1,5.2-2.5,6.2c1.1,1.8,7,0.1,8.7-0.5
					C775.7,570.4,775.5,565.4,775.4,560.3z"/>
				<g id="hair">
					<path class="st31" d="M876,648.7c-9,12.6-26.3,21.9-42,17.8c-23.8-6.3-29.9-39.7-30.7-44.7c-3-18.5,3.9-26.2,3.3-57
						c-0.2-11.6-1.4-21-2.4-26.9c-1.7,0.3-4.1,0.6-7,1c-12.6,1.6-21.3,2.8-26.7,2.3c-3.3-0.3-5.4-1.1-6.6-2.8
						c-3.4-4.8,1.6-14.3,5-18.7c4-5.3,8.9-7.6,11.9-9c1.5-0.7,13.5-6.1,27-3.4c1.4,0.3,2.8,0.6,4.2,1.1c21.6,7,29.9,32.3,31.5,37.2
						c7.9,24.4-1.7,41,8.9,48.8c7.8,5.8,15.7-1.5,23.7,4.3C887,606.6,887.8,632,876,648.7z"/>
					<linearGradient id="SVGID_9_" gradientUnits="userSpaceOnUse" x1="762.73" y1="523.8414" x2="807.6912" y2="523.8414">
						<stop  offset="0" style="stop-color:#FFFFFF;stop-opacity:0.5"/>
						<stop  offset="0.8362" style="stop-color:#F07125"/>
					</linearGradient>
					<path class="st35" d="M770.4,541.2c-3.3-0.3-5.4-1.1-6.6-2.8c-3.4-4.8,1.6-14.3,5-18.7c4-5.3,8.9-7.6,11.9-9
						c1.5-0.7,13.5-6.1,27-3.4C768.5,516.4,769.4,534.6,770.4,541.2z"/>
				</g>
				<circle id="ear" class="st29" cx="807.1" cy="563.8" r="9"/>
				<path id="headphone" class="st36" d="M808.7,561.6c0.7,0.1,1.4,0.5,1.8,1.2c0.8,1.3,0.2,2.9-0.8,5.5c-0.5,1.4-1.4,3.7-2.6,7.1
					c-0.4-0.1-0.9-0.2-1.3-0.4c0.7-2.5,1.3-5,2-7.4c-0.2,0-0.5,0-0.7-0.1c-1.5-0.4-2.3-2.1-1.9-3.7
					C805.7,562.3,807.3,561.4,808.7,561.6z"/>
			</g>
		</g>
		<path id="coffee_table" class="st37" d="M1053.2,1095.5l-52.3-184.3l-0.1,0v0h-4.5H883h-4.5v0l-0.1,0l-50.6,178.4
			c-5.2,0.9-9.2,5.4-9.2,10.8c0,6.1,4.9,11,11,11s11-4.9,11-11c0-3.8-1.9-7.1-4.8-9.1l48.4-170.4h111l50,176
			c-3.1,1.9-5.2,5.4-5.2,9.3c0,6.1,4.9,11,11,11c6.1,0,11-4.9,11-11C1061.8,1101,1058.1,1096.6,1053.2,1095.5z"/>
		<g id="cup">
			<path class="st6" d="M959.7,880c-1-2.3-4.6-3.1-11.8-2.5c0.4-1.8,0.7-3.3,0.9-4.3c-2.5-0.1-7.4-0.2-13.3-0.3
				c-15.6-0.2-38.5-0.1-45.2,0.3c1.2,5.7,7,32.8,18.2,34.6c0.2,0,0.5,0.1,0.8,0.1v3.3h20.6v-3.3c0.4,0,0.7-0.1,0.8-0.1
				c3.8-0.6,7-4.2,9.6-8.9C959.3,886.7,960.6,882.4,959.7,880z M942.3,895c2.2-5,3.9-10.7,5-15.1c9-0.9,10.1,0.7,10.3,1
				C957.9,881.6,957.6,884.7,942.3,895z"/>
			<linearGradient id="SVGID_10_" gradientUnits="userSpaceOnUse" x1="921.6359" y1="892.0587" x2="959.9008" y2="892.0587">
				<stop  offset="0" style="stop-color:#153E5C"/>
				<stop  offset="1" style="stop-color:#271C41"/>
			</linearGradient>
			<path class="st38" d="M959.7,880c-1-2.3-4.6-3.1-11.8-2.5c0.4-1.8,0.7-3.3,0.9-4.3c-2.5-0.1-7.4-0.2-13.3-0.3l-13.9,38.3h8.2
				v-3.3c0.4,0,0.7-0.1,0.8-0.1c3.8-0.6,7-4.2,9.6-8.9C959.3,886.7,960.6,882.4,959.7,880z M942.3,895c2.2-5,3.9-10.7,5-15.1
				c9-0.9,10.1,0.7,10.3,1C957.9,881.6,957.6,884.7,942.3,895z"/>
		</g>
		<g id="window_1_">
			<path id="line" class="st39" d="M609.2,666.8c-0.4,0-0.7-0.2-0.9-0.6l-93.7-187.4c-0.2-0.5,0-1.1,0.4-1.3s1.1,0,1.3,0.4
				l93.7,187.4c0.2,0.5,0,1.1-0.4,1.3C609.5,666.8,609.3,666.8,609.2,666.8z"/>
			<linearGradient id="window_2_" gradientUnits="userSpaceOnUse" x1="545.9953" y1="623.3223" x2="531.6317" y2="55.9593">
				<stop  offset="0" style="stop-color:#F1F0E2"/>
				<stop  offset="0.4305" style="stop-color:#F0F0E2"/>
				<stop  offset="1" style="stop-color:#D3E0DF"/>
			</linearGradient>
			<rect id="window" x="391.2" y="136" class="st40" width="294.4" height="373.7"/>
			<g id="background_room">
				<polygon class="st5" points="685.6,325.7 685.6,340.6 666.5,340.6 666.5,509.7 659.1,509.7 659.1,340.6 636.4,340.6 
					636.4,508.2 629,508.2 629,340.6 605.8,340.6 605.8,509 598.4,509 598.4,340.6 575.7,340.6 575.7,507.5 568.3,507.5 
					568.3,340.6 544.6,340.6 544.6,325.7 				"/>
				<linearGradient id="SVGID_11_" gradientUnits="userSpaceOnUse" x1="623.6882" y1="417.7207" x2="685.5847" y2="417.7207">
					<stop  offset="0" style="stop-color:#FC860A"/>
					<stop  offset="1" style="stop-color:#F2BE54"/>
				</linearGradient>
				<polygon class="st41" points="685.6,325.7 685.6,340.6 666.5,340.6 666.5,509.7 659.1,509.7 659.1,340.6 636.4,340.6 
					636.4,508.2 629,508.2 629,340.6 623.7,340.6 629,325.7 				"/>
				<linearGradient id="SVGID_12_" gradientUnits="userSpaceOnUse" x1="598.3886" y1="449.6764" x2="605.7917" y2="449.6764">
					<stop  offset="0" style="stop-color:#FC860A"/>
					<stop  offset="1" style="stop-color:#F2BE54"/>
				</linearGradient>
				<polygon class="st42" points="598.4,411 605.8,390.4 605.8,509 598.4,509 				"/>
				<linearGradient id="SVGID_13_" gradientUnits="userSpaceOnUse" x1="568.2554" y1="490.8634" x2="575.6584" y2="490.8634">
					<stop  offset="0" style="stop-color:#FC860A"/>
					<stop  offset="1" style="stop-color:#F2BE54"/>
				</linearGradient>
				<polygon class="st43" points="568.3,494.9 575.7,474.3 575.7,507.5 568.3,507.5 				"/>
			</g>
			<g id="woman_2">
				<g>
					<g id="neck_1_">
						<path class="st44" d="M582.9,377.4c-5.4,15.2-15.6,31.8-35,43.5c-30.4,18.4-53.6-18.2-65.7-44.4c3.7-1.6,8.4-4.1,13-8.1
							c0.2-0.2,0.5-0.4,0.7-0.6c1.7-1.5,3.4-3.2,5-5.1c7.3-8.8,10.4-18.8,11.3-27.7c0.8-7.3,0.2-13.9-0.5-18.3
							c-0.5-2.8-1-4.8-1.2-5.6c12.6-0.9,25.2-1.8,37.7-2.7c-1.3,13.6-0.8,33,10.5,49.2c2,2.8,4.1,5.3,6.3,7.5
							c0.2,0.2,0.4,0.4,0.7,0.6C571.5,371.2,577.7,374.8,582.9,377.4z"/>
						<path class="st30" d="M540.7,310.2c0.4,18.9-19.4,23.6-28.5,24.8c0.8-7.3,0.2-13.9-0.5-18.3L540.7,310.2z"/>
					</g>
					<g id="necklace">
						<path class="st5" d="M565.8,365.7c-5.1,10.1-13.6,21.6-27.3,27.1c-3,1.2-6,1.8-8.8,1.9c-16,0.3-28.4-16.2-34.5-26.2
							c0.2-0.2,0.5-0.4,0.7-0.6c6.9,11.6,22.5,32.1,42.2,24.1c13.6-5.5,22-16.9,27-26.9C565.3,365.3,565.6,365.5,565.8,365.7z"/>
						<circle class="st5" cx="527.7" cy="397.7" r="3.4"/>
					</g>
				</g>
				<g id="body">
					<path class="st31" d="M640.1,509.8H606l0,0c-0.8,0-1.5,0-2.3,0H421.1c6.7-71.9,22.1-105.2,38.1-120.4c0.7-0.6,1.3-1.2,2-1.8
						c0.4-0.4,0.9-0.7,1.3-1.1c0.5-0.4,0.9-0.7,1.4-1.1c2.8-2,5.6-3.6,8.3-4.8c2.5-1.1,6-2.3,10-4.2c9.1,19.9,24.7,45.7,44.9,49
						c6.5,1.1,13.4-0.2,20.8-4.6c1-0.6,2.1-1.3,3.1-1.9c0.5-0.3,1-0.7,1.5-1c0.4-0.3,0.8-0.6,1.2-0.9c0,0,0.1,0,0.1-0.1
						c0.1-0.1,0.2-0.1,0.3-0.2c0,0,0.1-0.1,0.1-0.1c0,0,0.1-0.1,0.1-0.1c0.3-0.2,0.6-0.5,1-0.7c0.5-0.4,1.1-0.8,1.6-1.3
						c0.4-0.3,0.7-0.6,1.1-0.9c0.6-0.5,1.2-1,1.8-1.6c0.1-0.1,0.1-0.1,0.2-0.2c0.6-0.5,1.2-1,1.7-1.6c0.3-0.3,0.6-0.5,0.8-0.8
						c0.3-0.3,0.5-0.5,0.8-0.8c0.1-0.1,0.1-0.1,0.2-0.2c0.5-0.5,1.1-1.1,1.6-1.6c0.4-0.4,0.7-0.8,1.1-1.2c0.7-0.8,1.4-1.6,2.1-2.4
						c0.7-0.8,1.4-1.7,2-2.6c0.3-0.4,0.7-0.9,1-1.3c0.3-0.4,0.6-0.9,0.9-1.3c0.7-0.9,1.3-1.9,1.9-2.8c0.2-0.4,0.5-0.7,0.7-1.1
						c0.3-0.5,0.6-0.9,0.8-1.3c0.5-0.9,1-1.8,1.5-2.6c0.3-0.5,0.5-1,0.8-1.4c0.2-0.3,0.3-0.6,0.5-0.9c0.2-0.4,0.4-0.8,0.6-1.3
						c0,0,0,0,0,0c0.3-0.5,0.5-1,0.7-1.6c0.3-0.7,0.6-1.4,0.9-2c0.3-0.6,0.5-1.3,0.8-1.9c0.2-0.6,0.4-1.1,0.7-1.7
						c0-0.1,0.1-0.2,0.1-0.3c0.2-0.7,0.5-1.3,0.7-1.9c3.2,1.6,6.1,2.8,8.2,3.9c2.4,1.2,4.8,2.7,7.2,4.5c1.9,1.4,3.7,3,5.6,4.8
						c0.6,0.6,1.2,1.2,1.8,1.9c8.1,8.7,15.8,22,22,42.3v0c0.4,1.3,0.8,2.6,1.2,3.9c2.9,10.2,5.4,22,7.4,35.8
						C638,485.2,639.2,496.9,640.1,509.8z"/>
					<linearGradient id="SVGID_14_" gradientUnits="userSpaceOnUse" x1="421.0757" y1="443.1845" x2="527.1306" y2="443.1845">
						<stop  offset="0" style="stop-color:#FFFFFF;stop-opacity:0.5"/>
						<stop  offset="0.8362" style="stop-color:#F07125"/>
					</linearGradient>
					<path class="st45" d="M527.1,425.6l-82.5,84.2h-23.5c6.7-71.9,22.1-105.2,38.1-120.4c0.7-0.6,1.3-1.2,2-1.8
						c0.4-0.4,0.9-0.7,1.3-1.1c0.5-0.4,0.9-0.7,1.4-1.1c2.8-2,5.6-3.6,8.3-4.8c2.5-1.1,6-2.3,10-4.2
						C491.4,396.4,506.9,422.2,527.1,425.6z"/>
				</g>
				<g id="hand_2_">
					<path class="st44" d="M612.2,501.6c-1.4,3.4-3.7,6.1-6.2,8.2h-14.5c0.2-0.1,0.5-0.1,0.8-0.2c1.7-0.3,3.2-0.1,4.1,0
						c0.7-0.8,1.3-1.6,1.9-2.4c0.8-1.1,1.6-2.1,2.3-3.3c0.2-0.3,0.4-0.6,0.6-0.9c0.1-0.2,0.3-0.4,0.4-0.7c0.2-0.3,0.5-0.7,0.7-1.1
						c0.2-0.4,0.5-0.8,0.7-1.2c0.1-0.3,0.3-0.6,0.5-0.9c0.1-0.1,0.1-0.2,0.2-0.4c0.1-0.1,0.1-0.2,0.2-0.4c0.1-0.1,0.1-0.3,0.2-0.4
						c0.5-1,1-2.2,1.6-4c0.7-2,1.5-4.6,2.4-8.1c0.9-3.6,2-8.3,2.9-13.8c0,0,0,0,0-0.1c0.4,2.2,1,5.4,1.4,9.2
						C613.6,491.7,614.2,496.9,612.2,501.6z"/>
					<path class="st44" d="M600.1,504.8c0.2-0.2,0.4-0.5,0.6-0.8c-0.7,1.1-1.5,2.2-2.3,3.3c-0.6,0.8-1.3,1.6-1.9,2.4
						c-0.9-0.2-2.4-0.3-4.1,0c-0.3,0-0.5,0.1-0.8,0.2h-0.4c2.4-4.8,4.1-8.4,5.2-11.1c0.3-0.6,4.2-9.2,4.9-9.9
						c0.5-0.6,1.1-1.2,1.8-1.2c0,0,0.5,0,1,0.5C605.4,489.4,601.5,500.8,600.1,504.8z"/>
				</g>
				<g id="head_general_1_">
					<path id="head_1_" class="st44" d="M564,216.6c10.1,18.3,6.4,36.6,1.8,59.4c-2.7,13.7-4.9,23.9-14,32.9
						c-2.9,2.9-13.9,13-30.4,13.1c-24,0.1-37.1-21.3-38.1-22.9c-1.1-1.8-3.9-6.9-6.4-24.1c-3.7-25.6-5.7-38.4-0.7-51.3
						c5.7-14.7,21.5-36.2,44.7-36.5C547.1,187,562.4,213.8,564,216.6z"/>
					<path id="nose" class="st46" d="M517.4,284.9c-1.1,0.9-3,2.3-5.7,3.1c-1,0.3-6.2,1.8-7.9-0.2c-1.5-1.7,0.5-5.2,3.5-11.8
						c1.7-3.7,4.2-9.4,7.3-16.5l0,0.1C515.6,268,516.5,276.5,517.4,284.9z"/>
					<g id="brows_1_">
						<path id="brow_2_" d="M507.7,252.7c-1.6-0.8-5.2-2.4-10.1-2.2c-5.3,0.2-9,2.5-10.5,3.5c0.5-0.8,3.1-4.7,8.1-5.8
							C499.8,247.2,504.6,249,507.7,252.7z"/>
						<path id="brow_1_" d="M524,251.4c1.6-0.9,5.1-2.7,10-2.6c5.3,0,9.1,2.1,10.6,3.1c-0.5-0.8-3.3-4.6-8.3-5.5
							C531.7,245.7,527,247.6,524,251.4z"/>
					</g>
					<g id="eyes_1_">
						<circle cx="500.3" cy="262.5" r="2.7"/>
						<circle cx="531.6" cy="261.8" r="2.7"/>
					</g>
					<path id="smile" d="M515.5,305.1c-2.1,0-3.8-0.4-4.9-0.7c-0.3-0.1-0.5-0.4-0.4-0.7c0.1-0.3,0.4-0.5,0.7-0.4
						c1.8,0.5,5.4,1.2,9.4-0.1c5.2-1.7,7.9-5.7,8.8-7.3c0.2-0.3,0.5-0.4,0.8-0.2c0.3,0.2,0.4,0.5,0.2,0.8c-1,1.7-3.9,6-9.5,7.9
						C518.9,304.9,517.1,305.1,515.5,305.1z"/>
					<g id="hair_1_">
						<path d="M510.1,215.8c3,4.4,7.5,10.8,13.6,18c20.7,24.6,33,27.5,33.2,38.8c0.3,14.7-17.2,21.2-13.6,32.3
							c2.4,7.4,13.7,14.4,22.5,10.3c6.4-3,10.3-11.2,8.6-20c0,0,1.8,15.4,14.4,6.9c1.1-0.7,4.5-3,6-7.5c2.3-7-2.2-13-2.6-13.6
							c3.9,2.9,8.7,3.1,11.7,0.8c3.3-2.5,3-6.9,3-7.6c-0.3-5.1-5.1-9.9-11.8-11.7c3.3-0.5,5.9-2.4,6.9-5c1.3-3.7-1.3-7.2-2.1-8.2
							c-2.9-3.8-6.1-3.3-9.4-6.1c-4.5-3.9-4.6-10.3-4.9-13.1c-1.7-16.3-23.6-45.3-48.2-48.1c-4.4-0.5-12.1-0.4-22.3,5.2
							c-4.5-0.7-11.8-1.3-19.8,1.4c-17.2,5.8-30.1,24.3-33.2,42.2c-2.5,14.2,1,29.5-5.7,32.3c-2.5,1.1-4.9-0.3-7.6,1.9
							c-3.1,2.4-4.6,7.4-3.2,11.6c1.7,4.9,7.2,8.3,13.4,7.4c-7.7,4-9.3,12.8-5.9,17.3c2.6,3.4,8.3,4.6,13.7,2.3
							c0.6,5.6,2.9,9,4.3,10.6c6.6,7.8,20.1,9.6,33.5,3.9c-5-6.4-14.8-20.7-16.9-41.1c-0.7-7-2.7-29.1,11.1-49
							C502.7,222.5,507,218.4,510.1,215.8z"/>
						<path class="st22" d="M571.9,245.3c-2.7-6-8.2-16.1-18.9-24.8c-4.6-3.8-14.6-12-27.6-14.3c-3.9-0.7-8.1-0.9-12.5-0.2
							c-17.1,2.6-31.6,16.8-37.7,35.7c0.2-4.1,1.3-20.2,14.3-33c2.6-2.6,10.7-10.4,23.5-12.6c6.7-1.2,13-0.5,18.5,1.1
							c12.3,3.5,21,11.6,23.1,13.7C568.2,223.6,571.1,239.6,571.9,245.3z"/>
						<path class="st10" d="M571.9,245.3c-2.7-6-8.2-16.1-18.9-24.8c-4.6-3.8-14.6-12-27.6-14.3l6-9c12.3,3.5,21,11.6,23.1,13.7
							C568.2,223.6,571.1,239.6,571.9,245.3z"/>
					</g>
				</g>
			</g>
			<g id="baby">
				<g id="dolphin_toy">
					<path class="st9" d="M487.8,429c-1.9-0.3-4.4-0.8-6.5-1.3c-3.4,8.4-10.8,14-15.9,17c0.5,3.4,1.5,5.8,2.5,7.5
						c1.4,2.6,3.1,4.4,2.4,5.7c-0.3,0.6-1.1,0.9-2,1c-0.9,0.1-1.9,0-2.8-0.3c-2.9-0.9-4.9-3.9-5.8-7.3c-1.7,3.5-5,5.5-8.1,5.2
						c-3-0.3-6-2.9-5.7-4.7c0.2-1.6,2.7-1.6,6.1-4.1c0,0,2.2-1.6,4.8-5.1c0.9-1.3,1.6-2.8,1.9-4.6c1.1-5.1,0.3-12.2-0.6-21.1
						c0,0-0.5-4.7-0.6-10.7c-0.1-6.8,0.4-15.1,2.8-19.9c0.2-0.4,0.6-1.3,1.3-1.7c0.2-0.1,0.4-0.2,0.6-0.2c0.2,0,0.4,0,0.6,0.1
						c1.4,0.5,2.6,3,3,3.7c2.7,5,1.3,8.8,3.8,10.2c0.9,0.5,1.2,0.1,3.1,0.8c0,0,2.1,0.8,4,2.5c1,0.8,2.6,3,3.9,6
						c1.2,2.5,2.1,5.7,2.3,9.3C485.3,420.6,490.9,429.5,487.8,429z"/>
					<path class="st8" d="M463.4,435.7c-1.6,1.3-3.2,2.1-4.7,2.4c1.1-5.1,0.3-12.2-0.6-21.1c0,0-0.5-4.7-0.6-10.7
						C463.2,412.2,474.4,426.6,463.4,435.7z"/>
					<path d="M463.2,401.8c-0.1,0.1-0.2,0.1-0.4,0.1c-0.2,0-0.3-0.1-0.4-0.2c-2.8-3.3-1.6-12.3-0.7-17c0.2-0.1,0.4-0.2,0.6-0.2
						c0.2,0,0.4,0,0.6,0.1c-0.8,4.4-2.1,13.3,0.4,16.3C463.5,401.3,463.4,401.6,463.2,401.8z"/>
					<path d="M467.3,405.2c0,0.6-0.5,1.2-1.2,1.2c-0.6,0-1.2-0.5-1.2-1.2s0.5-1.2,1.2-1.2C466.8,404.1,467.3,404.6,467.3,405.2z"/>
					<path class="st30" d="M487.8,429c-1.9-0.3-4.4-0.8-6.5-1.3c-3.4,8.4-10.8,14-15.9,17c0.5,3.4,1.5,5.8,2.5,7.5
						c1.4,2.6,3.1,4.4,2.4,5.7c-0.3,0.6-1.1,0.9-2,1c-4-1.4-5.3-9.3-5.1-14.2c0.4-9,6.2-12.9,12.6-25.5c2.2-4.3,3.8-8.2,4.9-11.4
						c1.2,2.5,2.1,5.7,2.3,9.3C485.3,420.6,490.9,429.5,487.8,429z"/>
				</g>
				<path id="hand_1_" class="st44" d="M486.3,440.6l-16.1,6.6c-4-2.4-6.9-4.9-8.9-6.6c-3.2-2.9-7-6.4-6.2-8.9c0-0.1,0.3-1,0.9-1.1
					c0.9-0.1,1.6,1.7,2.9,3.5c0.8,1.1,2.2,2.6,4.5,4c-2.2-3.1-6.8-9.6-6-10.8c0.9-1.2,1.6-1,1.6-1l0,0c0.6,0.1,0.9,0.6,1.1,0.8
					c1.2,1.6,1.5,2.6,3,4.7c0.9,1.4,2.1,2.9,3.5,4.5c0.1,0.1-1.3-1.8-2.8-4.5c-1.4-2.6-3.9-7-2.5-8.4c0.5-0.5,1.3-0.5,1.8-0.3
					c0.6,0.2,0.8,0.7,2.3,3.4c0.6,1.1,0.7,1.2,0.7,1.3c0.5,0.9,1.2,1.8,2,2.8c1,1.2,2.3,2.5,3.8,3.8c-0.5-2.1-1-3.9-1.5-5.6
					c0,0-0.9-2.3-1.7-5.4c-0.3-1.2-0.6-2.4,0-3c0.5-0.5,1.2-0.4,1.3-0.4c1.2,0.2,1.9,1.7,2.9,4.1c0,0,1.3,2.9,4.6,10.2
					c0.4,0.9,0.8,1.7,0.9,1.6c0.2-0.1-0.1-1.4-0.4-2.5c0.5-0.7,1.1-1.6,1.6-2.5c0.5-1,1-1.9,1.4-2.7
					C482.9,432.4,484.6,436.5,486.3,440.6z"/>
				<g id="body_general_1_">
					<path class="st8" d="M611.1,472.2c0,7.2-1.9,15.1-5.3,22.6c-0.5,1.1-1,2.2-1.6,3.3c-0.1,0.1-0.1,0.3-0.2,0.4
						c-0.1,0.1-0.1,0.3-0.2,0.4c-0.1,0.1-0.2,0.3-0.2,0.4c-0.2,0.3-0.3,0.6-0.5,0.9c-0.2,0.4-0.5,0.8-0.7,1.2
						c-0.2,0.4-0.5,0.8-0.7,1.1c-0.2,0.2-0.3,0.5-0.4,0.7c-0.2,0.3-0.4,0.6-0.6,0.9c-0.2,0.3-0.4,0.5-0.6,0.8
						c1.4-4,5.3-15.4,3.9-16.7c-0.5-0.5-1-0.5-1-0.5c-0.7,0-1.3,0.6-1.8,1.2c-0.7,0.8-4.6,9.3-4.9,9.9c-1.1,2.7-2.8,6.3-5.2,11.1
						H471.1c1.7-2.1,4-4.8,7-7.7c3.1-3,5.5-4.6,10.7-8.8c4.1-3.3,8.7-6.9,13.6-10.6c0.1-0.1,0.2-0.2,0.3-0.3
						c-0.2-0.1-0.4-0.3-0.6-0.4c-5.1-3.6-9.6-7.3-13.4-11.1c-4.3-4.2-7.9-8.3-10.7-12c-4.1-5.3-6.6-9.6-7.8-11.7l16.1-6.6
						c0.8,0.7,1.5,1.5,2.4,2.2c4.9,4.4,11,9.3,18.5,13.9c1,0.6,2,1.2,3,1.8c3.3,1.9,6.9,3.7,10.7,5.4c0.1,0,0.1,0.1,0.2,0.1
						c1.7,0.8,3.5,1.5,5.2,2.1c6.1-3.9,12.2-7.5,18.3-10.6c0.5-0.3,1.1-0.5,1.6-0.8c1.7-0.9,3.5-1.7,5.2-2.5
						c1.3-0.6,2.6-1.2,3.9-1.7c3.9-1.6,8.2-3.1,13-4c1.5-0.3,3-0.5,4.5-0.7h0c0.9-0.1,1.9-0.2,2.8-0.2c2.5-0.1,5.1,0,7.8,0.3
						c0.4,0,0.9,0.1,1.3,0.2c3.3,0.5,8.7,1.3,13.6,3.8c1.1,0.5,2.2,1.1,3.2,1.8c1,0.7,1.9,1.4,2.8,2.3l0,0c0.5,0.5,1,1,1.4,1.6
						c0,0,0.1,0.1,0.1,0.2C609.5,459.9,611.1,465.8,611.1,472.2z"/>
					<g id="pattern">
						<path class="st25" d="M479.6,454.5c-0.2,0-0.4-0.1-0.5-0.4c-0.1-0.3,0.1-0.5,0.3-0.6l10.5-3.1c0.3-0.1,0.5,0.1,0.6,0.3
							c0.1,0.3-0.1,0.5-0.3,0.6l-10.5,3.1C479.7,454.5,479.7,454.5,479.6,454.5z"/>
						<path class="st25" d="M498.6,470.1c-0.2,0-0.4-0.1-0.5-0.4l-3.2-10.5c-0.1-0.3,0.1-0.5,0.3-0.6c0.3-0.1,0.5,0.1,0.6,0.3
							l3.2,10.5c0.1,0.3-0.1,0.5-0.3,0.6C498.7,470.1,498.6,470.1,498.6,470.1z"/>
						<path class="st25" d="M578.2,486.2c-0.1,0-0.3-0.1-0.4-0.2c-0.2-0.2-0.2-0.5,0-0.7l8.3-7.2c0.2-0.2,0.5-0.2,0.7,0
							c0.2,0.2,0.2,0.5,0,0.7l-8.3,7.2C578.4,486.1,578.3,486.2,578.2,486.2z"/>
						<path class="st25" d="M595.5,489.7c-0.2,0-0.4-0.1-0.4-0.3c-0.1-0.2,0-0.5,0.2-0.7l9.8-4.9c0.2-0.1,0.5,0,0.7,0.2
							c0.1,0.2,0,0.5-0.2,0.7l-9.8,4.9C595.6,489.6,595.5,489.7,595.5,489.7z"/>
						<path class="st25" d="M555.2,503c-0.1,0-0.3-0.1-0.4-0.2c-0.2-0.2-0.2-0.5,0-0.7l8.3-7.2c0.2-0.2,0.5-0.2,0.7,0
							c0.2,0.2,0.2,0.5,0,0.7l-8.3,7.2C555.5,503,555.4,503,555.2,503z"/>
						<path class="st25" d="M494,506.7c0,0-0.1,0-0.1,0c-0.3-0.1-0.4-0.3-0.4-0.6l2.2-10.8c0.1-0.3,0.3-0.4,0.6-0.4
							c0.3,0.1,0.4,0.3,0.4,0.6l-2.2,10.8C494.4,506.5,494.2,506.7,494,506.7z"/>
						<path class="st25" d="M525.6,502.8c-0.2,0-0.4-0.1-0.5-0.3c-0.1-0.2,0-0.5,0.2-0.7l9.9-4.7c0.2-0.1,0.5,0,0.7,0.2
							c0.1,0.2,0,0.5-0.2,0.7l-9.9,4.7C525.8,502.8,525.7,502.8,525.6,502.8z"/>
						<path class="st25" d="M578.2,501.5c-0.2,0-0.4-0.2-0.5-0.4c-0.1-0.3,0.1-0.5,0.4-0.6l10.8-2.1c0.3-0.1,0.5,0.1,0.6,0.4
							c0.1,0.3-0.1,0.5-0.4,0.6L578.2,501.5C578.2,501.5,578.2,501.5,578.2,501.5z"/>
						<path class="st25" d="M563.2,480C563.2,480,563.2,480,563.2,480c-0.3,0-0.5-0.2-0.5-0.5l0.6-11c0-0.3,0.2-0.5,0.5-0.5
							c0.3,0,0.5,0.2,0.5,0.5l-0.6,11C563.7,479.8,563.5,480,563.2,480z"/>
						<path class="st25" d="M550.7,466.3C550.7,466.3,550.7,466.3,550.7,466.3c-0.3,0-0.5-0.2-0.5-0.5l0.6-11c0-0.3,0.2-0.5,0.5-0.5
							c0.3,0,0.5,0.2,0.5,0.5l-0.6,11C551.2,466.1,551,466.3,550.7,466.3z"/>
						<path class="st25" d="M584.6,464.8c-0.1,0-0.2,0-0.3-0.1l-8.8-6.5c-0.2-0.2-0.3-0.5-0.1-0.7c0.2-0.2,0.5-0.3,0.7-0.1l8.8,6.5
							c0.2,0.2,0.3,0.5,0.1,0.7C584.9,464.7,584.7,464.8,584.6,464.8z"/>
						<path class="st25" d="M607.1,468.7c-0.1,0-0.1,0-0.2,0l-10.3-3.9c-0.3-0.1-0.4-0.4-0.3-0.6c0.1-0.3,0.4-0.4,0.6-0.3l10.3,3.9
							c0.3,0.1,0.4,0.4,0.3,0.6C607.5,468.5,607.3,468.7,607.1,468.7z"/>
					</g>
				</g>
				<g id="head_general_2_">
					<path id="head_2_" class="st44" d="M594.5,390.5c-1.3,0.2-2.5,0.5-3.6,1c-1.2,0.4-2.3,0.9-3.3,1.5c-7.7,4.4-12.4,13.1-15,21.1
						c0,0-6.5,3.6-6.4,6.6c0,0.5,0.2,1,0.7,1.5c1,0.9,2.2,1.6,3.4,2c0,0.4-0.1,0.7-0.1,1c-0.2,1.8-0.5,4.2-0.5,7
						c1.1,0.4,2.7,0.8,4.6,0.6c3.3-0.3,5.4-2.1,6.2-1.3c0.5,0.5,0,1.8-0.2,2.2c-1.6,4.2-7.2,6.3-9.5,7.1c0.9,3.2,2.5,6.3,5.2,9
						c8.6,8.4,21.9,5.7,24.9,5c1.1-0.2,2.3-0.5,3.5-0.9c12.1-3.7,25.6-14.3,26.1-29.9C631.1,405,612.8,387.3,594.5,390.5z"/>
					<path id="hair_2_" d="M630.5,424c-0.5,15.6-14,26.1-26.1,29.9c3.1-6.5,6.1-15.8,6.1-26.9c0-9.3,0-18.3-6-23.4
						c-4.7-4-10.4-3.5-12.8-8.5c-0.6-1.2-0.8-2.4-0.8-3.6c1.2-0.4,2.4-0.7,3.6-1C612.8,387.3,631.1,405,630.5,424z"/>
					<circle id="ear_1_" class="st44" cx="612.2" cy="430.3" r="8.5"/>
					<circle id="eye" cx="580.4" cy="414.1" r="2.2"/>
					
						<ellipse id="brow" transform="matrix(0.7223 -0.6916 0.6916 0.7223 -118.0063 519.0549)" cx="587.3" cy="406.5" rx="0.9" ry="5.1"/>
				</g>
			</g>
			<g id="call_button">
				<circle class="st34" cx="527.7" cy="474" r="26.8"/>
				<path class="st36" d="M546.9,478.8c-0.1-3.1-2.5-5.4-4.1-6.7c-2.2-2-8.3-5.3-15.2-5.3c-3.6,0-7.1,0.9-9.8,2c0,0,0,0,0,0l0,0
					c-1,0.4-2,0.9-2.8,1.4l0,0c0,0-5.9,2.6-6.5,7.4c-0.1,0.7,0,1.3,0.3,1.6c1.3,1.8,6.3,0.8,7-1.1c0.2-0.5,0-1-0.1-1.2
					c-0.3-0.9-0.3-2.1,0.1-3.8c2.7-0.5,6.7-1,11.8-1c5.3,0,9.4,0.7,12.1,1.1c0.5,2,0.3,3.4,0,4.3c-0.1,0.3-0.3,0.7-0.2,1.2
					c0.5,2,5.5,3.3,6.9,1.6C546.8,480.1,547,479.6,546.9,478.8z"/>
			</g>
			<rect x="391.2" y="136" class="st47" width="294.4" height="373.7"/>
		</g>
	</g>
</g>
</svg>
