<?xml version="1.0" encoding="utf-8"?>
<!-- Generator: Adobe Illustrator 22.1.0, SVG Export Plug-In . SVG Version: 6.00 Build 0)  -->
<svg version="1.1" xmlns="http://www.w3.org/2000/svg" xmlns:xlink="http://www.w3.org/1999/xlink" x="0px" y="0px"
	 viewBox="0 0 1138.9 1113.4" style="enable-background:new 0 0 1138.9 1113.4;" xml:space="preserve">
<style type="text/css">
	.st0{fill:#DFDED9;}
	.st1{fill:#EEEDEE;}
	.st2{opacity:0.42;fill:#BDD3DE;}
	.st3{fill:#BDD3DE;}
	.st4{fill:none;}
	.st5{fill:url(#SVGID_1_);}
	.st6{fill:#FFFFFF;}
	.st7{opacity:0.18;fill:#BDD3DE;}
	.st8{fill:url(#book_x27_s_spine_1_);}
	.st9{fill:#EBDEDE;}
	.st10{fill:url(#SVGID_2_);}
	.st11{fill:url(#SVGID_3_);}
	.st12{opacity:0.35;fill:#FFFFFF;}
	.st13{fill:url(#SVGID_4_);}
	.st14{fill:#E6E3F4;}
	.st15{fill:#5A142A;}
	.st16{opacity:0.38;fill:#365588;}
	.st17{fill:#19233D;}
	.st18{opacity:0.1;fill:#19233D;}
	.st19{opacity:0.28;fill:url(#SVGID_5_);}
	.st20{opacity:0.28;fill:url(#SVGID_6_);}
	.st21{opacity:0.28;fill:url(#SVGID_7_);}
	.st22{opacity:0.15;fill:#365588;}
	.st23{opacity:0.28;fill:#365588;}
	.st24{opacity:0.28;fill:url(#SVGID_8_);}
	.st25{opacity:0.28;fill:url(#SVGID_9_);}
	.st26{fill:#FF7D93;}
	.st27{fill:#153E5C;}
	.st28{opacity:0.51;fill:#E6E3F4;}
	.st29{opacity:0.37;fill:#0B1D36;}
	.st30{opacity:9.000000e-02;fill:url(#SVGID_10_);}
	.st31{fill:#F2BE54;}
	.st32{fill:#FC860A;}
	.st33{opacity:0.3;fill:url(#SVGID_11_);}
	.st34{opacity:0.46;fill:#302C34;}
	.st35{fill:#302C34;}
	.st36{fill:url(#SVGID_12_);}
	.st37{opacity:0.34;fill:url(#SVGID_13_);}
	.st38{opacity:0.34;fill:url(#SVGID_14_);}
	.st39{opacity:4.000000e-02;fill:url(#SVGID_15_);}
	.st40{opacity:0.4;fill:#19233D;}
	.st41{opacity:0.15;fill:#19233D;}
	.st42{opacity:0.32;fill:url(#SVGID_16_);}
	.st43{opacity:0.2;fill:#365588;}
	.st44{opacity:0.15;fill:url(#SVGID_17_);}
	.st45{fill:#0D2A28;}
	.st46{fill:#336859;}
	.st47{opacity:0.19;fill:#FFFFFF;}
	.st48{opacity:8.000000e-02;fill:#2A303D;}
	.st49{opacity:9.000000e-02;fill:#2A303D;}
	.st50{opacity:9.000000e-02;fill:url(#SVGID_18_);}
	.st51{opacity:9.000000e-02;fill:url(#SVGID_19_);}
	.st52{opacity:9.000000e-02;fill:url(#SVGID_20_);}
	.st53{opacity:0.98;}
	.st54{fill:url(#SVGID_21_);}
	.st55{opacity:0.86;fill:url(#SVGID_22_);}
	.st56{opacity:0.5;fill:#FFFFFF;}
	.st57{opacity:0.26;fill:#E6E3F4;}
	.st58{opacity:0.91;fill:#19233D;}
	.st59{fill:#791D2C;}
	.st60{opacity:0.26;fill:#19233D;}
	.st61{fill:#BACFDA;}
	.st62{opacity:0.32;fill:url(#SVGID_23_);}
</style>
<g id="background">
	<g id="general">
		<path id="floor_line" class="st0" d="M1138.9,693.2v-0.5c0-6.6-5.4-12-12-12H12c-6.6,0-12,5.4-12,12v0.5H1138.9z"/>
		<g id="cupboard">
			<path class="st1" d="M731.2,444v182.4c0,5.9-4.9,10.7-10.8,10.7h-63.4l23.2,131.1l2.8,15.8h-13.3l-5.8-15.9l-47.5-130.9H106.7
				L59.6,767l-6.2,17H40.1l3-17l23-129.9H19.1c-6,0-10.8-4.8-10.8-10.7V444c0-5.9,4.9-10.7,10.8-10.7h701.2
				C726.3,433.3,731.2,438.1,731.2,444z"/>
			<path class="st2" d="M507.7,458.3v152.4c0,6.8-5.6,12.4-12.5,12.4H244.2c-6.8,0-12.5-5.6-12.5-12.4V458.3
				c0-6.8,5.6-12.5,12.5-12.5h251.1C502.1,445.9,507.7,451.5,507.7,458.3z"/>
			<rect x="231.8" y="522.7" class="st2" width="276" height="12"/>
			<path class="st2" d="M210.2,603.9H35.6c-6.6,0-12-5.4-12-12V457.6c0-6.6,5.4-12,12-12h174.6c6.6,0,12,5.4,12,12v134.3
				C222.2,598.5,216.8,603.9,210.2,603.9z"/>
			<path class="st2" d="M705.8,604.2H531.2c-6.6,0-12-5.4-12-12V457.9c0-6.6,5.4-12,12-12h174.6c6.6,0,12,5.4,12,12v134.3
				C717.8,598.8,712.4,604.2,705.8,604.2z"/>
			<path class="st3" d="M549.2,475.9c-1.1,1.9-2.2,3.6-3.4,5.4c-2.4,3.6-4.9,7.3-6.9,13.3c-3,9-2.9,16.6-2.8,19.8l0,0.7
				c0.2,12.8-5.5,29.6-17,49.9v-2c10.8-19.5,16.1-35.6,16-47.9l0-0.6c-0.1-3.3-0.2-11,2.9-20.2c2.1-6.1,4.6-9.9,7-13.5
				c1.2-1.8,2.3-3.4,3.3-5.3c4.5-8.1,6.3-18,5.5-29.5h1C555.7,457.6,553.8,467.6,549.2,475.9z"/>
			<path class="st3" d="M576.1,471.3c-2.6,4.4-5.3,6.2-8.5,8.2c-2.1,1.3-4.4,2.8-7.2,5.4c-17.8,16.4-22.2,47.5-17.2,68.5
				c0.9,4,2,6.9,3,9.4c1.6,4.3,2.9,7.6,2.7,13.7c-0.3,9.4-4,18.7-10.9,27.7h-1.3c7.1-9,10.8-18.3,11.2-27.7c0.2-5.9-1-9.2-2.6-13.3
				c-1-2.6-2.1-5.5-3-9.5c-5-21.2-0.6-52.8,17.5-69.4c2.8-2.6,5.2-4.1,7.3-5.5c3.2-2,5.7-3.6,8.2-7.9c3.9-6.6,4.9-15,3.1-24.9h1
				C581.1,456,580,464.5,576.1,471.3z"/>
			<path class="st3" d="M592.1,489.7c2.3,3.1,4.7,6.3,4.2,10.8c-0.6,5.3-5.3,9.2-13.8,16.3c-4.9,4.1-8.3,6.4-10.8,8.1
				c-3.3,2.2-5.1,3.5-6.9,6.3c-4.5,6.9-3.7,14.8-3,22.4c1.6,16.5,3.8,33.5,6.6,50.5h-1c-2.8-17.1-5-34-6.6-50.5
				c-0.8-7.8-1.5-15.8,3.1-23c2-3,3.9-4.4,7.2-6.6c2.5-1.7,5.9-4,10.7-8.1c8.9-7.4,12.9-10.9,13.4-15.6c0.5-4.1-1.7-7-4-10.1
				c-1.3-1.7-2.6-3.5-3.5-5.6c-4-9,0.8-22,14-38.9h1.3c-13.3,16.8-18.1,29.7-14.3,38.5C589.5,486.3,590.8,488,592.1,489.7z"/>
			<path class="st3" d="M649.2,484.7c-1.4,4.1-4.7,13.7-13.8,19.5c-5.4,3.4-9.8,3.5-14.5,3.6c-3.2,0.1-6.5,0.1-10.5,1.1
				c-19.4,4.9-36.6,27.2-34,44.2c0.7,4.4,2.4,6.7,5.2,10.3c2.1,2.8,4.8,6.2,8,11.8c5,8.9,8.7,18.6,10.8,28.9h-1
				c-2.2-10.1-5.8-19.6-10.7-28.4c-3.1-5.6-5.8-9-7.9-11.7c-2.8-3.7-4.7-6.1-5.4-10.8c-2.6-17.4,14.9-40.3,34.8-45.3
				c4.2-1.1,7.7-1.1,10.8-1.2c4.7-0.1,8.8-0.2,14-3.5c8.8-5.6,12-15,13.4-19c5.2-15.2,0.7-29.8-3.4-38.5h1.1
				C650.1,454.8,654.4,469.4,649.2,484.7z"/>
			<path class="st3" d="M674,445.9c-4,9.2-7.9,18.6-11.5,27.8c-4.1,10.5-6.9,18.5-9.2,24.9C648.1,513,646,519,639,526.9
				c-5.1,5.7-9.1,8.4-12.7,10.8c-4.3,2.9-7.7,5.1-11.1,11.7c-5.8,11.3-6.6,25-2,36.6c3.3,8.4,8.7,14.3,13.5,18.2h-1.6
				c-4.7-3.9-9.7-9.7-12.9-17.8c-4.7-11.9-3.9-25.9,2.1-37.4c3.5-6.8,7-9.1,11.4-12.1c3.5-2.3,7.5-5,12.5-10.6
				c6.8-7.7,9-13.7,14.1-28c2.3-6.4,5.1-14.4,9.2-24.9c3.6-9.1,7.4-18.3,11.4-27.5H674z"/>
			<path class="st3" d="M688.2,501.5c-0.7,4.3-5.1,6.1-9.7,8.1c-4.9,2.1-10,4.2-12,9.4c-2.1,5.4,0.7,10.6,3.5,15.6
				c2.7,4.9,5.3,9.6,3.3,14.4c-2.6,6.6-11.5,7.8-20.1,9.1c-7.9,1.1-15.3,2.2-17.7,7c-3.5,7,4.8,20.2,24.8,39.2h-1.5
				c-20-19.2-27.9-32.2-24.2-39.6c2.6-5.2,10.3-6.4,18.4-7.5c8.3-1.2,16.9-2.4,19.3-8.5c1.8-4.4-0.7-8.8-3.3-13.5
				c-2.9-5.2-5.8-10.6-3.5-16.4c2.2-5.6,7.7-7.9,12.5-10c4.5-1.9,8.4-3.6,9.1-7.3c0.7-3.8-2.7-6.8-6.6-10.2c-3.7-3.3-7.9-7-8.9-12.1
				c-1.8-9,6.9-20.1,25.8-33.1h1.8C679.9,459,671,470,672.7,478.8c0.9,4.8,4.8,8.2,8.6,11.6C685.2,493.8,688.9,497.1,688.2,501.5z"
				/>
			<path class="st3" d="M717.1,453.7L717.1,453.7c-7.2,10.1-12.2,21-14.9,32.3c-2.6,11-2.1,18.5-1.6,25c0.5,7,0.9,13.6-2.4,23
				c-4,11.1-9.8,16.8-15.4,22.4c-5.4,5.3-10.4,10.3-12.9,19.7c-2.3,8.5-1.6,17.9,1.9,28h-1.1c-3.5-10.2-4.1-19.6-1.8-28.3
				c2.6-9.6,7.7-14.7,13.2-20.1c5.5-5.5,11.2-11.1,15.1-22c3.3-9.2,2.9-15.5,2.4-22.6c-0.5-6.6-1-14.2,1.7-25.3
				c2.8-11.7,8-22.8,15.4-33.2C716.8,453,717,453.4,717.1,453.7z"/>
			<path class="st3" d="M717.8,531.1v4c-3.3,12.1-7.9,22.2-13.8,30.3l-0.5,0.7c-2.1,2.9-5.7,7.7-8.4,15c-2.7,7.1-3.9,14.8-3.7,23h-1
				c-0.2-8.3,1-16.1,3.8-23.3c2.8-7.5,6.4-12.4,8.6-15.3l0.5-0.7C709.6,556.1,714.5,544.8,717.8,531.1z"/>
			<path class="st4" d="M717.8,457.9v134.3c0,6.6-5.4,12-12,12H531.2c-6.6,0-12-5.4-12-12V457.9c0-6.6,5.4-12,12-12h174.6
				c4.7,0,8.9,2.8,10.8,6.8c0.2,0.4,0.3,0.7,0.5,1.1v0C717.6,455,717.8,456.4,717.8,457.9z"/>
			<g>
				<path class="st3" d="M45.1,487.2c2.3,15.7-4.9,41.3-21.5,76.1V561c15.9-33.6,22.8-58.3,20.5-73.6l-0.1-0.4
					c-0.4-2.7-1.5-9.9,0.1-19.1c1.3-7.6,4.2-15,8.6-22H54c-4.6,7.1-7.5,14.5-8.9,22.2c-1.5,9-0.5,16.1-0.1,18.8L45.1,487.2z"/>
				<path class="st3" d="M80.5,471.1c-3.5,19.9-11,32.6-19,46.1c-6.5,11-13.2,22.4-17.7,38.3c-4.3,15.1-5.7,31.5-4,48.6h-1
					c-1.6-17.2-0.2-33.7,4.1-48.9c4.5-16,11.3-27.4,17.8-38.5c7.9-13.4,15.4-26.1,18.8-45.8c1.4-8.2,2-16.6,1.6-25.1h1
					C82.5,454.4,82,462.9,80.5,471.1z"/>
				<path class="st3" d="M111.6,503.2c-3.4,3-7.3,2.3-11.5,1.5c-3.8-0.7-8.2-1.5-13,0.4c-16.8,6.4-19.9,37.1-21.1,48.6
					c-1.7,16.8,0.4,33.7,6.1,50.5h-1c-5.7-16.8-7.8-33.8-6.1-50.6c1.2-11.7,4.3-42.9,21.7-49.4c5-1.9,9.6-1.1,13.5-0.4
					c4.1,0.7,7.6,1.4,10.6-1.3c3.9-3.5,3.4-9.6,2.5-19.7c-0.3-3.4-0.6-7.3-0.8-11.7c-0.4-8.4-0.4-16.8,0.2-25.2h1
					c-0.5,8.3-0.6,16.8-0.2,25.2c0.2,4.4,0.5,8.2,0.8,11.6C115.4,493.1,115.9,499.4,111.6,503.2z"/>
				<path class="st3" d="M148.7,481.2c-1.8,12.6-4.4,29.9-16,43.4c-10.1,11.7-22.5,15-32.3,17.7c-8.6,2.3-16.1,4.3-19.6,11.1
					c-5.3,10.5,1.6,27.6,20.5,50.7h-1.3C81.1,581,74.4,563.8,79.8,553c3.6-7.2,11.3-9.3,20.2-11.7c10.3-2.8,21.9-5.9,31.8-17.4
					c11.5-13.3,14-30.4,15.8-42.9c1.7-11.7,1.6-23.5-0.3-35.2h1C150.3,457.6,150.4,469.5,148.7,481.2z"/>
				<path class="st3" d="M188,445.9c-4,9.2-7.9,18.6-11.5,27.8c-4.1,10.5-7,18.5-9.2,24.9C162.1,513,160,519,153,526.9
					c-5.1,5.7-9.1,8.4-12.7,10.8c-4.3,2.9-7.7,5.1-11.1,11.7c-5.8,11.3-6.6,25-2,36.6c3.3,8.4,8.7,14.3,13.5,18.2h-1.6
					c-4.6-3.9-9.7-9.7-12.9-17.8c-4.7-11.9-3.9-25.9,2.1-37.4c3.5-6.8,7-9.1,11.4-12.1c3.5-2.3,7.5-5,12.5-10.6
					c6.8-7.7,9-13.7,14.1-28c2.3-6.4,5.1-14.4,9.2-24.9c3.6-9.1,7.4-18.3,11.4-27.5H188z"/>
				<path class="st3" d="M177.4,499.4c-0.2,7.6,1.1,14.7,2.5,21.5c2.2,11,4,20.6-2.2,28.2c-3.8,4.7-8.7,6-13,7.2
					c-4.1,1.1-8,2.2-10.4,5.9c-5.1,7.7-0.9,21.8,12.5,42h-1.2c-13.3-20.2-17.4-34.5-12.2-42.5c2.7-4.1,6.7-5.2,11-6.3
					c4.3-1.2,8.8-2.4,12.5-6.9c5.9-7.2,4.1-16.5,2-27.3c-1.3-6.6-2.7-14-2.5-21.7c0.5-17.8,10-35.8,28.2-53.5h1.4
					C187.6,463.6,177.9,481.6,177.4,499.4z"/>
				<path class="st3" d="M222.2,485.2v4.8c-3.8,16.3-10.6,27.7-17.6,39.7c-6.5,11-13.2,22.4-17.7,38.3c-3.2,11.5-4.8,23.6-4.7,36.2
					h-1c-0.1-12.7,1.5-25,4.7-36.5c4.5-16,11.3-27.4,17.8-38.5C211.4,516.2,218.6,503.9,222.2,485.2z"/>
				<path class="st3" d="M222.2,517v1.7c-4.5,6.5-8.4,13.3-11.6,20.4c-6.6,14.8-8.7,27.4-11.1,42c-1.3,7.6-2.2,15.4-2.8,23.1h-1
					c0.6-7.8,1.6-15.5,2.8-23.2c2.4-14.6,4.5-27.3,11.2-42.2C213.1,531.2,217.3,523.9,222.2,517z"/>
			</g>
			<path class="st4" d="M222.2,457.9v134.3c0,6.6-5.4,12-12,12H35.6c-6.6,0-12-5.4-12-12V457.9c0-6.6,5.4-12,12-12h174.6
				C216.8,445.9,222.2,451.3,222.2,457.9z"/>
			<circle class="st3" cx="543.2" cy="466" r="10"/>
			<circle class="st3" cx="199" cy="466" r="10"/>
			<path class="st3" d="M59.6,767l-6.2,17H40.1l3-17C47.4,766.8,53.4,766.8,59.6,767z"/>
			<polygon class="st3" points="682.9,784 669.6,784 663.8,768 680.1,768.2 			"/>
		</g>
		<g id="vinyl_player">
			<linearGradient id="SVGID_1_" gradientUnits="userSpaceOnUse" x1="66.355" y1="407.9239" x2="260.8814" y2="407.9239">
				<stop  offset="2.043269e-03" style="stop-color:#F0E2E2"/>
				<stop  offset="1" style="stop-color:#F4DBA9"/>
			</linearGradient>
			<path class="st5" d="M254.5,382.6H72.7c-3.5,0-6.4,2.9-6.4,6.4v38c0,3.5,2.9,6.4,6.4,6.4h36.4v-6.7c0-3.5,2.9-6.4,6.4-6.4h96.3
				c3.5,0,6.4,2.9,6.4,6.4v6.7h36.4c3.5,0,6.4-2.9,6.4-6.4v-38C260.9,385.4,258,382.6,254.5,382.6z"/>
			<ellipse class="st2" cx="163.6" cy="382.6" rx="78" ry="11.9"/>
			<ellipse class="st2" cx="163.6" cy="380.5" rx="25.8" ry="6"/>
			<rect x="72.3" y="402" class="st2" width="26.5" height="11.9"/>
			<rect x="228.4" y="402" class="st2" width="26.5" height="11.9"/>
			<circle class="st2" cx="134.3" cy="407.9" r="3"/>
			<circle class="st2" cx="166.6" cy="407.9" r="3"/>
			<circle class="st2" cx="199" cy="407.9" r="3"/>
			<path class="st2" d="M251.2,384.8l-4-14.8c-1.3-0.7-2.5-1.5-3.8-2.2c-16.7,0.7-33.4,1.3-50.1,2l0.6,8.3c0,0,3.9,3.5,4.1,3.1
				c0.3-0.4,4.5-6.3,4.5-6.3c13.4-1.5,26.8-2.9,40.2-4.4l4.1,14.3H251.2z"/>
		</g>
		<g id="books">
			<path class="st6" d="M371.6,521.8c0.1,0.1,0.1,0.3,0.2,0.4h-127c-0.1-0.1-0.2-0.2-0.3-0.4c-1.4-1.6-4-5.3-3.9-10.3
				c0.1-4.9,2.9-8.5,4.2-9.9h127c-0.2,0.4-0.3,0.8-0.5,1.2c-0.9,2.4-1.7,5.6-1.6,9.3c0,0,0,0.1,0,0.3c0,0.3,0,0.5,0,0.8
				c0,0.4,0.1,1,0.1,1.6c0.1,0.8,0.2,1.5,0.3,2.2c0,0.1,0.1,0.3,0.1,0.4c0,0.1,0,0.3,0.1,0.4c0.1,0.3,0.1,0.5,0.2,0.8
				c0,0.1,0.1,0.3,0.1,0.4c0,0.1,0.1,0.3,0.1,0.4c0.1,0.2,0.1,0.4,0.2,0.6c0,0.1,0,0.2,0.1,0.2c0,0,0,0.1,0,0.1
				c0.1,0.2,0.1,0.4,0.2,0.5C371.3,521.1,371.5,521.5,371.6,521.8z"/>
			<path class="st7" d="M366,506.4H249.5c-0.3,0-0.5-0.2-0.5-0.5s0.2-0.5,0.5-0.5H366c0.3,0,0.5,0.2,0.5,0.5S366.3,506.4,366,506.4z
				"/>
			<path class="st7" d="M366,508.5H249.5c-0.3,0-0.5-0.2-0.5-0.5s0.2-0.5,0.5-0.5H366c0.3,0,0.5,0.2,0.5,0.5S366.3,508.5,366,508.5z
				"/>
			<path class="st7" d="M366,510.6H249.5c-0.3,0-0.5-0.2-0.5-0.5s0.2-0.5,0.5-0.5H366c0.3,0,0.5,0.2,0.5,0.5S366.3,510.6,366,510.6z
				"/>
			<path class="st7" d="M366,512.7H249.5c-0.3,0-0.5-0.2-0.5-0.5s0.2-0.5,0.5-0.5H366c0.3,0,0.5,0.2,0.5,0.5S366.3,512.7,366,512.7z
				"/>
			<path class="st7" d="M366,514.9H249.5c-0.3,0-0.5-0.2-0.5-0.5s0.2-0.5,0.5-0.5H366c0.3,0,0.5,0.2,0.5,0.5S366.3,514.9,366,514.9z
				"/>
			<path class="st7" d="M366,516.9H249.5c-0.3,0-0.5-0.2-0.5-0.5s0.2-0.5,0.5-0.5H366c0.3,0,0.5,0.2,0.5,0.5S366.3,516.9,366,516.9z
				"/>
			
				<linearGradient id="book_x27_s_spine_1_" gradientUnits="userSpaceOnUse" x1="238.4355" y1="511.4995" x2="375.9552" y2="511.4995">
				<stop  offset="2.043269e-03" style="stop-color:#F0E2E2"/>
				<stop  offset="1" style="stop-color:#F4DBA9"/>
			</linearGradient>
			<path id="book_x27_s_spine" class="st8" d="M376,521.8c0,0.6-0.4,1.2-0.9,1.4c-0.2,0.1-0.4,0.1-0.7,0.1H244.3
				c-0.2,0-0.5-0.1-0.7-0.1c-0.2-0.1-0.4-0.2-0.5-0.4c-1.8-2-4.8-6.2-4.7-11.8c0.1-4.9,2.6-8.7,4.7-10.9c0.3-0.3,0.7-0.5,1.2-0.5
				h129.6c0.9,0,1.6,0.7,1.6,1.6c0,0.9-0.7,1.6-1.6,1.6H245c-1.6,1.9-3.3,4.8-3.4,8.4c-0.1,4.1,1.9,7.3,3.4,9.1h129.4
				C375.3,520.2,376,520.9,376,521.8z"/>
			<path class="st6" d="M354.2,496.9c0.2,0.6,0.3,1.3,0.5,1.8H244.9c-1.1-1.7-3.8-6.3-3.6-12.7c0.1-5.9,2.5-10.1,3.6-11.8h109.8
				c-0.1,0.3-0.2,0.6-0.3,0.9c-0.8,2.9-1.6,7-1.6,11.8C353,490.8,353.5,494.2,354.2,496.9z"/>
			<path class="st9" d="M358.4,498.3c0,0.8-0.6,1.4-1.4,1.4H244.5c-0.5,0-0.9-0.2-1.1-0.6c-1.5-2.3-4.1-7.1-3.9-13.5
				c0.1-5.6,2.2-9.9,3.9-12.5c0.2-0.4,0.7-0.6,1.1-0.6h112c0.8,0,1.4,0.6,1.4,1.4c0,0.8-0.6,1.4-1.4,1.4H245.3
				c-1.4,2.4-3,5.9-3.1,10.5c-0.1,5.1,1.7,9.1,3.1,11.3H357C357.8,496.9,358.4,497.5,358.4,498.3z"/>
			<path class="st7" d="M348.8,479.7H248.1c-0.3,0-0.5-0.2-0.5-0.5s0.2-0.5,0.5-0.5h100.7c0.3,0,0.5,0.2,0.5,0.5
				S349.1,479.7,348.8,479.7z"/>
			<path class="st7" d="M348.8,481.5H248.1c-0.3,0-0.5-0.2-0.5-0.5s0.2-0.5,0.5-0.5h100.7c0.3,0,0.5,0.2,0.5,0.5
				S349.1,481.5,348.8,481.5z"/>
			<path class="st7" d="M348.8,483.3H248.1c-0.3,0-0.5-0.2-0.5-0.5s0.2-0.5,0.5-0.5h100.7c0.3,0,0.5,0.2,0.5,0.5
				S349.1,483.3,348.8,483.3z"/>
			<path class="st7" d="M348.8,485.1H248.1c-0.3,0-0.5-0.2-0.5-0.5s0.2-0.5,0.5-0.5h100.7c0.3,0,0.5,0.2,0.5,0.5
				S349.1,485.1,348.8,485.1z"/>
			<path class="st7" d="M348.8,487H248.1c-0.3,0-0.5-0.2-0.5-0.5s0.2-0.5,0.5-0.5h100.7c0.3,0,0.5,0.2,0.5,0.5S349.1,487,348.8,487z
				"/>
			<path class="st7" d="M348.8,488.8H248.1c-0.3,0-0.5-0.2-0.5-0.5s0.2-0.5,0.5-0.5h100.7c0.3,0,0.5,0.2,0.5,0.5
				S349.1,488.8,348.8,488.8z"/>
			<path class="st7" d="M348.8,490.6H248.1c-0.3,0-0.5-0.2-0.5-0.5s0.2-0.5,0.5-0.5h100.7c0.3,0,0.5,0.2,0.5,0.5
				S349.1,490.6,348.8,490.6z"/>
			<path class="st7" d="M348.8,492.4H248.1c-0.3,0-0.5-0.2-0.5-0.5s0.2-0.5,0.5-0.5h100.7c0.3,0,0.5,0.2,0.5,0.5
				S349.1,492.4,348.8,492.4z"/>
			<path class="st7" d="M348.8,494.2H248.1c-0.3,0-0.5-0.2-0.5-0.5s0.2-0.5,0.5-0.5h100.7c0.3,0,0.5,0.2,0.5,0.5
				S349.1,494.2,348.8,494.2z"/>
			<path class="st7" d="M366,514.8H249.5c-0.3,0-0.5-0.2-0.5-0.5s0.2-0.5,0.5-0.5H366c0.3,0,0.5,0.2,0.5,0.5S366.3,514.8,366,514.8z
				"/>
			<path class="st7" d="M366,516.9H249.5c-0.3,0-0.5-0.2-0.5-0.5s0.2-0.5,0.5-0.5H366c0.3,0,0.5,0.2,0.5,0.5S366.3,516.9,366,516.9z
				"/>
		</g>
		<g id="candles">
			<path class="st9" d="M358.5,566.2c-0.1,0-0.1,0-0.2,0c-0.3-0.1-0.4-0.4-0.3-0.7c1.2-2.9,1.4-4.9,0.7-5.6
				c-0.2-0.2-0.5-0.3-0.9-0.4c-0.4-0.1-1-0.3-1.4-0.8c-1-1.1-0.6-3.2,1.1-6.3c0.1-0.3,0.5-0.4,0.8-0.2c0.3,0.1,0.4,0.5,0.2,0.8
				c-1.8,3.4-1.5,4.6-1.2,5c0.2,0.2,0.4,0.3,0.8,0.4c0.4,0.1,0.9,0.2,1.4,0.7c1.1,1.1,1,3.4-0.4,6.8
				C359,566,358.8,566.2,358.5,566.2z"/>
			<path class="st6" d="M346.4,623.2c0,0-5.9-60.9-0.2-64.3c1.5-0.9,2.4-0.6,2.4-0.6c1.4,0.6,0.8,3.2,2.2,4c1.5,0.9,3.1-1.6,5.6-1.1
				c2.4,0.4,2.6,2.9,4.5,3.4c3.6,0.9,6.9-6.9,9-6.8c3,0.2,5.6,16.4,6.3,65.5H346.4z"/>
			<linearGradient id="SVGID_2_" gradientUnits="userSpaceOnUse" x1="390.4302" y1="582.5487" x2="393.4921" y2="582.5487">
				<stop  offset="2.043269e-03" style="stop-color:#F0E2E2"/>
				<stop  offset="1" style="stop-color:#F4DBA9"/>
			</linearGradient>
			<path class="st10" d="M391.6,587.5c-0.2,0-0.4-0.1-0.4-0.3c-0.8-2.2-0.9-3.9-0.3-5.2c0.1-0.1,0.2-0.3,0.3-0.5
				c0.2-0.4,0.5-0.8,0.8-1.5c0.3-0.7,0.5-1.4,0.7-2.1c0.1-0.2,0.3-0.4,0.5-0.4c0.2,0.1,0.4,0.3,0.4,0.5c-0.2,0.8-0.4,1.5-0.7,2.3
				c-0.3,0.7-0.6,1.2-0.8,1.6c-0.1,0.2-0.2,0.3-0.3,0.4c-0.5,1.1-0.4,2.6,0.3,4.5c0.1,0.2,0,0.5-0.3,0.6
				C391.7,587.5,391.6,587.5,391.6,587.5z"/>
			<linearGradient id="SVGID_3_" gradientUnits="userSpaceOnUse" x1="328.1024" y1="586.833" x2="330.347" y2="586.833">
				<stop  offset="2.043269e-03" style="stop-color:#F0E2E2"/>
				<stop  offset="1" style="stop-color:#F4DBA9"/>
			</linearGradient>
			<path class="st11" d="M329.2,591c-0.2,0-0.4-0.1-0.4-0.3c-0.8-2-0.8-3.6-0.2-4.8c0.1-0.3,0.3-0.5,0.5-0.7
				c0.3-0.4,0.5-0.6,0.4-0.8c0-0.4-0.5-0.7-0.8-0.9c-0.2-0.1-0.3-0.4-0.2-0.6c0.1-0.2,0.4-0.3,0.6-0.2c0.8,0.4,1.2,1,1.3,1.6
				c0.1,0.6-0.3,1.1-0.6,1.5c-0.2,0.2-0.3,0.4-0.4,0.6c-0.5,0.9-0.4,2.3,0.3,4c0.1,0.2,0,0.5-0.3,0.6C329.3,591,329.2,591,329.2,591
				z"/>
			<path class="st6" d="M321.1,623.2c0.3-14.4,0-23.4-0.5-29.2c0,0-0.6-7.1,0.4-7.2c0.5-0.1,0.9,2.8,2.2,3c1.2,0.1,1.5-2,3.7-2.8
				c1.5-0.5,3.4-0.3,4.6,0.7c1.5,1.2,1.1,3,2.1,3.3c1.7,0.6,3.9-4.7,5.9-4.4c2.1,0.3,2.8,6.4,2.8,7.5c0.3,7.5,0.9,17.2,1.5,29.1
				C336.1,623.2,328.6,623.2,321.1,623.2z"/>
			<path class="st6" d="M382.6,623.2c-0.9-15.8-1.4-27.5-1.9-33c-0.1-1.2-0.3-4.6,1.7-7.2c1.7-2.2,4.7-3.7,6.2-2.8
				c1.7,1.1,0.2,4.9,1.6,5.6c1.1,0.5,2.2-1.4,5.3-2.7c2-0.9,5.3-1.5,7.4-0.3c2.8,1.6,3,6.2,3.1,8.3c0.3,8.2,0.9,19.1,1.6,32.3
				C399.3,623.2,390.9,623.2,382.6,623.2z"/>
		</g>
		<g id="vase_1_">
			<path class="st9" d="M465.8,500.3c0,0.1,0,0.3,0,0.4c0,2.5-0.5,4.8-1.3,7c-1.7,4.2-4.9,7.7-9,9.7v5.3H439v-5.3
				c-1.5-0.7-2.9-1.7-4.1-2.8c-2.3-2-4.1-4.6-5.1-7.5c-0.7-2-1.1-4.1-1.1-6.4c0-6.4,3.2-12,8.1-15.3l-8.1-21.7h37.8l-8.2,22
				C462.7,489,465.7,494.3,465.8,500.3z"/>
			<g id="pattern">
				<circle class="st12" cx="439.7" cy="472.1" r="4.8"/>
				<path class="st12" d="M462.3,463.7c0,2.6-2.1,4.8-4.8,4.8c-2.6,0-4.8-2.1-4.8-4.8H462.3z"/>
				<circle class="st12" cx="447.5" cy="490.1" r="4.8"/>
				<path class="st12" d="M465.8,500.7c0,2.5-0.5,4.8-1.3,7c-0.7,0.4-1.4,0.5-2.2,0.5c-2.6,0-4.8-2.1-4.8-4.8s2.1-4.8,4.8-4.8
					c1.4,0,2.7,0.6,3.6,1.6C465.8,500.5,465.8,500.6,465.8,500.7z"/>
				<path class="st12" d="M438.1,510.1c0,2.1-1.4,3.9-3.3,4.5c-2.3-2-4.1-4.6-5.1-7.5c0.8-1,2.2-1.7,3.6-1.7
					C436,505.4,438.1,507.5,438.1,510.1z"/>
			</g>
		</g>
		<g id="poster">
			<rect x="8.3" y="0.8" class="st9" width="210.9" height="306.1"/>
			<path class="st6" d="M201.7,293.4h-176c-4.5,0-8.1-3.6-8.1-8.1V22.5c0-4.5,3.6-8.1,8.1-8.1h176c4.5,0,8.1,3.6,8.1,8.1v262.8
				C209.8,289.8,206.2,293.4,201.7,293.4z"/>
			<g>
				<rect x="64.1" y="14.4" class="st2" width="2" height="279"/>
				<rect x="111.9" y="14.4" class="st2" width="2" height="279"/>
				<rect x="155.8" y="14.4" class="st2" width="2" height="279"/>
				<path class="st2" d="M207.4,16.7V291c-0.6,0.6-1.3,1.1-2,1.5V15.3C206.2,15.7,206.8,16.2,207.4,16.7z"/>
				<path class="st2" d="M209.8,207.2v2.1c-0.8-0.2-1.6-0.4-2.4-0.6c-0.7-0.2-1.3-0.3-2-0.4c-16.6-3.6-32.5-4.2-47.6-1.6
					c-0.7,0.1-1.3,0.2-2,0.3c-3.5,0.7-7,1.5-10.4,2.5c-12.3,3.6-20.1,8.2-27.8,12.7c-1.2,0.7-2.5,1.4-3.7,2.1
					c-0.7,0.4-1.3,0.8-2,1.1c-5.4,3-11.1,5.7-18.5,7.5c-5.1,1.2-10.3,1.8-15.8,1.8c-3.8,0-7.6-0.3-11.6-0.9c-0.7-0.1-1.3-0.2-2-0.3
					c-14.5-2.5-30-8.9-46.5-19.3v-2.4c16.5,10.5,32.1,17,46.5,19.6c0.7,0.1,1.3,0.2,2,0.3c9.4,1.5,18.4,1.2,26.9-0.9
					c7.5-1.8,13.3-4.6,18.9-7.8c0.7-0.4,1.3-0.8,2-1.1c0.9-0.5,1.8-1,2.7-1.6c7.7-4.5,15.7-9.2,28.2-12.9c3.6-1,7.3-1.9,11-2.6
					c0.7-0.1,1.3-0.2,2-0.3c15.1-2.5,31-2,47.6,1.6c0.7,0.1,1.3,0.3,2,0.5C208.2,206.8,209,207,209.8,207.2z"/>
				<path class="st2" d="M209.8,256.4v2.1c-0.8-0.3-1.6-0.5-2.4-0.7c-0.7-0.2-1.3-0.4-2-0.5c-4.8-1.2-9.5-1.8-14.3-1.8h0
					c-14.3,0-23.6,5.2-33.3,10.8c-0.1,0-0.1,0.1-0.2,0.1c-0.6,0.3-1.2,0.7-1.8,1c-7.4,4.2-15.3,8.4-25.6,9.8c-2.1,0.3-4,0.4-5.8,0.4
					c-3.8,0-7-0.6-10.5-1.7c-0.7-0.2-1.3-0.4-2-0.6c-1.6-0.5-3.3-1.2-5.2-1.8c-5.5-2-12.5-4.5-23-7.2c-5.8-1.5-11.7-2.7-17.6-3.7
					c-0.7-0.1-1.3-0.2-2-0.3c-15-2.5-30.5-3.6-46.5-3.4v-2c16-0.2,31.5,0.9,46.5,3.3c0.7,0.1,1.3,0.2,2,0.3c6.1,1,12.2,2.3,18.1,3.8
					c10.6,2.7,17.6,5.2,23.1,7.2c1.6,0.6,3.1,1.1,4.5,1.6c0.7,0.2,1.3,0.4,2,0.6c5.2,1.6,9.5,2.3,16,1.4
					c10.4-1.5,18.3-5.8,25.9-10.1c0.3-0.2,0.5-0.3,0.8-0.5c0.4-0.2,0.8-0.5,1.2-0.7c9.2-5.3,19-10.5,33.3-10.5h0
					c4.8,0,9.6,0.6,14.3,1.7c0.7,0.2,1.3,0.3,2,0.5C208.2,256,209,256.2,209.8,256.4z"/>
				<path class="st2" d="M209.8,157.7v2c-0.8-0.2-1.6-0.3-2.4-0.5c-0.7-0.1-1.3-0.2-2-0.3c-6.9-1.1-13.8-1.4-20.5-0.8
					c-11.7,1-19.9,4.2-27.1,7.7c-0.7,0.3-1.3,0.7-2,1c-1.3,0.7-2.5,1.3-3.8,2c-8.1,4.2-15.7,8.3-26.7,8.6c-0.5,0-0.9,0-1.4,0
					c-3.9,0-7.1-0.5-10-1.4c-0.7-0.2-1.3-0.4-2-0.7c-3.7-1.4-6.9-3.3-10.6-5.5c-5.8-3.5-12.4-7.4-23.2-10.7c-3.9-1.2-7.9-2.1-12-2.8
					c-0.7-0.1-1.3-0.2-2-0.3c-14.5-2.2-30.1-1.4-46.5,2.4v-2c16.4-3.7,32-4.5,46.5-2.3c0.7,0.1,1.3,0.2,2,0.3
					c4.3,0.7,8.5,1.7,12.6,2.9c11.1,3.3,17.8,7.3,23.7,10.9c3.4,2,6.3,3.8,9.5,5.1c0.7,0.3,1.3,0.5,2,0.7c3.2,1,6.8,1.6,11.3,1.5
					c10.5-0.3,18-4.2,25.9-8.4c1.5-0.8,3.1-1.6,4.7-2.4c0.7-0.3,1.3-0.7,2-1c7.1-3.4,15.4-6.5,26.9-7.5c6.8-0.6,13.8-0.3,20.7,0.7
					c0.7,0.1,1.3,0.2,2,0.3C208.2,157.3,209,157.5,209.8,157.7z"/>
				<path class="st2" d="M209.8,109.6v2c-0.8-0.2-1.6-0.3-2.4-0.4c-0.7-0.1-1.3-0.2-2-0.3c-8.6-1.1-17-1-25.2,0.4
					c-10.9,1.9-16.5,5.2-22.4,8.7c-0.1,0.1-0.3,0.2-0.4,0.3c-0.5,0.3-1,0.6-1.6,0.9c-3.8,2.2-7.8,4.5-13.4,6.3
					c-5.4,1.8-10.3,2.5-15,2.5c-4.4,0-8.8-0.6-13.4-1.7c-0.7-0.1-1.3-0.3-2-0.5c-3.7-0.9-7.6-2-11.9-3.2c-9-2.5-19.7-5.6-33.9-8.1
					c-0.7-0.1-1.3-0.2-2-0.3c-2.4-0.4-4.8-0.8-7.4-1.1c-13-1.8-26.1-2.8-39.2-2.8v-2c13.2,0.1,26.4,1,39.4,2.9
					c2.4,0.3,4.8,0.7,7.1,1.1c0.7,0.1,1.3,0.2,2,0.4c14.4,2.5,25.3,5.6,34.4,8.2c4.1,1.2,7.8,2.2,11.4,3.1c0.7,0.2,1.3,0.3,2,0.5
					c9.5,2.1,17.7,2.6,27.8-0.7c5.9-1.9,10.1-4.4,14-6.8c0.2-0.1,0.4-0.2,0.5-0.3c0.5-0.3,1-0.6,1.5-0.9c5.5-3.2,11.5-6.5,22-8.3
					c8.3-1.5,16.9-1.6,25.6-0.5c0.7,0.1,1.3,0.2,2,0.3C208.2,109.3,209,109.4,209.8,109.6z"/>
				<path class="st2" d="M209.8,66.1v2c-0.8-0.1-1.6-0.2-2.4-0.3c-0.7-0.1-1.3-0.2-2-0.2c-16.1-2-32-2.8-47.6-2.2
					c-0.7,0-1.3,0-2,0.1c-5.1,0.2-10.2,0.5-15.3,1c-9.8,0.9-18.4,2.2-26.6,3.6c-0.7,0.1-1.3,0.2-2,0.3c-1.2,0.2-2.4,0.4-3.6,0.6
					c-13.6,2.3-26.6,4.5-42.2,4.7c-0.7,0-1.3,0-2,0h-0.1c-4.7,0-9.6-0.2-14.8-0.6c-10.6-0.8-21.2-2.5-31.6-5v-2.1
					c10.4,2.5,21.1,4.3,31.8,5.1c5.2,0.4,10.1,0.6,14.7,0.6c0.7,0,1.3,0,2,0c15.4-0.2,28.4-2.4,41.8-4.7c1.3-0.2,2.6-0.4,4-0.7
					c0.7-0.1,1.3-0.2,2-0.3c8.1-1.4,16.7-2.7,26.4-3.6c5.1-0.5,10.3-0.8,15.5-1c0.7,0,1.3-0.1,2-0.1c15.6-0.5,31.5,0.2,47.6,2.2
					c0.7,0.1,1.3,0.2,2,0.2C208.2,65.8,209,65.9,209.8,66.1z"/>
				<path class="st2" d="M25.8,14.4h6.8c-4.2,0.6-8.4,1.4-12.6,2.4C21.5,15.3,23.5,14.4,25.8,14.4z"/>
				<path class="st2" d="M209.5,20.2c-0.7,0.3-1.4,0.6-2.1,0.9c-0.7,0.3-1.3,0.5-2,0.8c-16.6,6.5-32.5,10.2-47.6,10.9
					c-0.7,0-1.3,0.1-2,0.1c-1.2,0-2.3,0.1-3.5,0.1c-7.7,0-15.2-0.8-22.4-2.3c-6.3-1.4-11.3-3-16-4.8c-0.7-0.3-1.3-0.5-2-0.8
					c-1-0.4-2.1-0.8-3.2-1.3c-6.2-2.5-12.5-5-21.7-7.2c-3.4-0.8-6.9-1.5-10.4-2.1H87c0.2,0,0.3,0.1,0.5,0.1c9.3,2.2,15.8,4.8,22,7.3
					c0.8,0.3,1.6,0.7,2.4,1c0.7,0.3,1.3,0.5,2,0.8c4.8,1.9,9.9,3.6,16.4,5c8.2,1.8,16.7,2.5,25.5,2.2c0.7,0,1.3,0,2-0.1
					c15.1-0.7,31-4.4,47.6-11c0.7-0.3,1.3-0.5,2-0.8c0.4-0.2,0.8-0.3,1.3-0.5C209,18.9,209.3,19.5,209.5,20.2z"/>
			</g>
			<path class="st4" d="M209.8,22.5v262.8c0,2.3-0.9,4.3-2.4,5.8c-0.6,0.6-1.3,1.1-2,1.5c-1.1,0.6-2.4,0.9-3.7,0.9h-176
				c-4.5,0-8.1-3.6-8.1-8.1V22.5c0-2.2,0.9-4.3,2.4-5.8c1.5-1.5,3.5-2.4,5.7-2.4h176c1.3,0,2.6,0.3,3.7,0.9c0.7,0.4,1.4,0.9,2,1.5
				c0.5,0.5,0.9,1,1.3,1.6c0.3,0.6,0.6,1.2,0.8,1.8C209.7,20.9,209.8,21.7,209.8,22.5z"/>
			<circle class="st2" cx="17.6" cy="11.3" r="3.1"/>
			<circle class="st2" cx="17.6" cy="298.8" r="3.1"/>
			<circle class="st2" cx="211.6" cy="298.8" r="3.1"/>
			<circle class="st2" cx="211.6" cy="11.3" r="3.1"/>
			<g>
				<path class="st2" d="M116.3,142.6c-19.1,3.4-35.7,19.8-34.9,33.5c0.8,14.4,20.3,13.3,30.6,32.3c13.5,24.8-9.5,45.5,4.6,63.1
					c9.8,12.2,32.7,17.1,50.2,9c16.5-7.6,25.5-25.6,24.2-40.2c-2-22.8-28.3-23.2-35-51c-4.3-17.8,4.2-26.7-4.6-37.1
					C143.4,142.9,128.1,140.5,116.3,142.6z"/>
				<polygon class="st2" points="55.7,55 121.8,181.2 137,176.8 71.9,47.5 				"/>
				
					<ellipse transform="matrix(0.9668 -0.2557 0.2557 0.9668 -46.3923 41.4164)" class="st2" cx="136.1" cy="199.1" rx="12.1" ry="11"/>
				<path class="st2" d="M166.2,247.3l-21.6,5.6c-1.3,0.3-2.1,1.7-1.7,2.9l0.5,1.8c0.3,1.3,1.7,2.1,2.9,1.7l21.6-5.6
					c1.3-0.3,2.1-1.7,1.7-2.9l-0.5-1.8C168.8,247.7,167.5,246.9,166.2,247.3z"/>
				<path class="st2" d="M81.4,56.9C74.2,62.4,67.1,68,59.9,73.5c-1.1-5.3-3.7-13.5-9.8-22c-4.6-6.4-9.8-10.8-13.8-13.7
					c8.5-4.8,16.9-9.6,25.4-14.4c1.8,5.3,4.5,11.7,8.6,18.5C73.9,47.9,77.9,52.9,81.4,56.9z"/>
				<ellipse transform="matrix(0.9668 -0.2557 0.2557 0.9668 -10.0736 12.2513)" class="st2" cx="42.1" cy="44.9" rx="4" ry="3.7"/>
				<ellipse transform="matrix(0.9668 -0.2557 0.2557 0.9668 -5.3229 17.4044)" class="st2" cx="64.3" cy="29.2" rx="4" ry="3.7"/>
				<ellipse transform="matrix(0.9668 -0.2557 0.2557 0.9668 -7.7993 19.7006)" class="st2" cx="71.9" cy="39.8" rx="4" ry="3.7"/>
				<ellipse transform="matrix(0.9668 -0.2557 0.2557 0.9668 -10.3382 21.7103)" class="st2" cx="78.3" cy="50.6" rx="4" ry="3.7"/>
				<ellipse transform="matrix(0.9668 -0.2557 0.2557 0.9668 -12.1778 14.4501)" class="st2" cx="49.5" cy="54.1" rx="4" ry="3.7"/>
				<ellipse transform="matrix(0.9668 -0.2557 0.2557 0.9668 -14.749 16.2721)" class="st2" cx="55.2" cy="64.9" rx="4" ry="3.7"/>
			</g>
		</g>
		<g id="lamp">
			<polygon class="st1" points="616.6,337.6 510.4,337.6 514.3,325.1 518.5,311.7 523.4,295.9 527.6,282.5 532.3,267.5 536.5,254.1 
				543.6,231.5 583.4,231.5 590.5,254.1 594.7,267.5 599.4,282.5 603.6,295.9 608.5,311.7 612.7,325.1 			"/>
			<linearGradient id="SVGID_4_" gradientUnits="userSpaceOnUse" x1="543.3865" y1="232.2903" x2="583.6227" y2="232.2903">
				<stop  offset="2.043269e-03" style="stop-color:#F0E2E2"/>
				<stop  offset="1" style="stop-color:#F4DBA9"/>
			</linearGradient>
			<ellipse class="st13" cx="563.5" cy="232.3" rx="20.1" ry="5.7"/>
			<path class="st9" d="M572.9,360v-22.4h-18.8V360c-6.6,1.8-11.6,9.5-11.6,18.6v54.7h41.9v-54.7C584.5,369.5,579.5,361.8,572.9,360
				z"/>
			<path class="st2" d="M619.7,337.6H507.9c-1.5,0-2.8-1.3-2.8-2.8v-1.2c0-1.5,1.3-2.8,2.8-2.8h111.9c1.5,0,2.8,1.3,2.8,2.8v1.2
				C622.6,336.4,621.3,337.6,619.7,337.6z"/>
		</g>
		<g id="carpet">
			<g>
				<path class="st1" d="M799.5,815.3c-3.4,31.7-6.8,63.3-10.2,95c-6.1,56.5-12.2,112.9-18.2,169.4c-113,0.4-226,0.8-339.1,1.2
					c-106.5,0.4-212.9,0.8-319.4,1.1l-7.6-11.8l10.1-1.6c9.6-51.3,19.2-102.5,28.8-153.8c6.2-33.2,12.4-66.3,18.6-99.5h621.3
					l8.2-11.8L799.5,815.3z"/>
				<path class="st9" d="M791.9,803.5c-3.7,33.9-7.3,67.8-11,101.7c-5.8,54.2-11.7,108.4-17.5,162.6c-109.7,0.4-219.3,0.8-329,1.2
					c-109.8,0.4-219.6,0.8-329.4,1.2l28.5-152.4c7.1-38.1,14.2-76.2,21.4-114.3H791.9z"/>
			</g>
			<path class="st1" d="M434.4,1069c-0.7,4.5-1.6,8.5-2.4,11.8c-106.5,0.4-212.9,0.8-319.4,1.1l-7.6-11.8l28.5-152.4
				c3.2-1,6.7-2.1,10.4-3c33.2-8.8,79.5-12.8,78.4,34.3c-1.8,73.3,192.3,18.7,207.5,60.4C437.8,1031.6,437,1053.4,434.4,1069z"/>
			<path class="st1" d="M799.5,815.3c-3.4,31.7-6.8,63.3-10.2,95c-1.7-1.3-4.6-3.3-8.3-5c-36.9-17.1-68,32.4-114.2,32.7
				c-53,0.3-64.3-64.6-122.1-62.7c-33.4,1.1-46.5,23.4-66.4,12.8c-27-14.4-31-70.3-31.1-72.6c-0.2-4.2-0.2-8.2-0.2-11.8h345
				L799.5,815.3z"/>
			<path class="st1" d="M654.5,1038.2c-9,0-17.9-0.4-26.7-1.2c-18.6-1.7-32-4.8-43.8-7.5c-16.3-3.7-30.4-6.9-53.3-5.9
				c-17.7,0.8-27,3.6-36.8,6.5c-8.4,2.5-17.1,5.1-31.5,6.6c-30.8,3.3-54.8-3.9-76-10.3c-12.2-3.7-23.7-7.1-35.1-8.1
				c-60.2-5-121.3-0.7-181.7,12.7c-0.8,0.2-1.6-0.3-1.8-1.1c-9.2-37.2-8.3-69.6,2.6-96.2c1.3-3.3,2.7-6.5,4.1-9.6
				c4.7-10.7,9.5-21.8,13.6-39.4c4.4-18.7,5.9-38.1,4.7-57.8c0-0.5,0.2-1,0.7-1.3c0.4-0.3,1-0.3,1.5-0.1
				c25.4,12.3,51.6,18.9,77.8,19.5c19.9,0.5,33.5-2.6,49.2-6.1c8.8-2,17.9-4,28.9-5.6c42-6.1,73.9,0,99.4,4.9
				c4.1,0.8,7.9,1.5,11.6,2.2c62.7,11,154.1,9.4,271.7-4.7c0.6-0.1,1.3,0.3,1.5,0.9c16.4,36.3,19.5,67.1,9.4,91.4
				c-3.1,7.6-7,13.5-11.1,19.9c-5.8,9-11.9,18.4-16.3,33.3c-4.6,15.5-5.3,32.2-2.1,49.7c0.1,0.8-0.4,1.6-1.2,1.7
				C693.9,1036.3,674,1038.2,654.5,1038.2z M539.4,1020.5c18.3,0,30.9,2.9,45.3,6.2c11.7,2.7,25,5.7,43.4,7.4
				c27.2,2.5,55.4,1.1,83.8-4.2c-3-17.5-2.2-34.2,2.4-49.7c4.5-15.3,10.7-24.8,16.6-34.1c4-6.2,7.8-12.1,10.9-19.4
				c9.7-23.3,6.7-52.9-8.9-88c-117.3,14-208.7,15.6-271.4,4.6c-3.7-0.7-7.6-1.4-11.7-2.2c-25.3-4.8-56.9-10.9-98.4-4.9
				c-10.9,1.6-20,3.6-28.7,5.6c-15.3,3.4-29.7,6.7-49.9,6.2c-25.8-0.6-51.6-6.9-76.7-18.7c1,19.1-0.6,38-4.9,56.2
				c-4.2,17.8-9,29-13.8,39.9c-1.3,3.1-2.7,6.3-4.1,9.6c-10.5,25.7-11.4,56.9-2.8,92.9c60.2-13.2,121.2-17.4,181.2-12.5
				c11.6,1,23.3,4.5,35.7,8.2c20.9,6.3,44.6,13.4,74.8,10.1c14.1-1.5,22.7-4,31-6.5c10-3,19.5-5.8,37.6-6.6
				C533.6,1020.5,536.6,1020.5,539.4,1020.5z"/>
		</g>
		<g id="plant_and_vase">
			<g id="plant">
				<path class="st9" d="M989,583.1c-0.1,0-0.3,0-0.4,0c-1.6-0.2-2.8-1.7-2.6-3.4c4-30.6,17.6-189.5-104-314.1
					c-48.9-50.2-109.5-84.4-179.9-101.8c-49.8-12.3-90.4-12.5-110.1-11.6c-1.7,0.1-3.1-1.2-3.1-2.9c-0.1-1.7,1.2-3.1,2.9-3.1
					c20.1-1,61.3-0.7,111.8,11.7c71.5,17.6,133,52.4,182.7,103.4C1009.8,388,996,549.4,991.9,580.5C991.7,582,990.4,583.1,989,583.1
					z"/>
				<path class="st9" d="M688.1,157.6c0,0-31.1-52.5-79.9-51.8s-103.2,51.8-103.2,51.8S627.1,230.9,688.1,157.6z"/>
				<path class="st9" d="M787.5,193.1c0,0,34.6-50.2,13.5-94.2c-21.1-44-90.3-72-90.3-72c-6.1,21-10.6,50,3.8,73.8
					c6.4,10.5,13.3,14.8,24.1,25C752.6,139.1,771,160.1,787.5,193.1z"/>
				<path class="st9" d="M920.4,307.9c0,0,51.2-33.1,48.6-81.8c-2.6-48.8-55.8-101.1-55.8-101.1c-23.6,30.7-26.6,53.9-24.8,69.7
					c1.9,16.3,8.8,24.3,17.4,47.9C915.6,269.1,919,292.3,920.4,307.9z"/>
				<path class="st9" d="M986.7,470.3c0,0,60.2-9.7,77.4-55.4c17.2-45.7-10.5-115-10.5-115c-4.6,10.2-12.6,24.4-26.5,37.1
					c-10.8,9.8-19.6,13.8-24.2,16.7C988.1,363.4,975.6,391,986.7,470.3z"/>
				<path class="st9" d="M831.4,216.4c0,0-17,58.5-64.5,70c-47.5,11.5-112.8-24.5-112.8-24.5c21.2-29.2,42.1-40.2,59.7-43.7
					c13.9-2.8,22.9-0.3,45.7,0.9C778.2,220.2,802.6,220.1,831.4,216.4z"/>
				<path class="st9" d="M945.9,345.5c-33.4,50.3-58.6,59.3-75.2,58.3c-13.3-0.8-20.7-7.8-52.4-22c-23.1-10.3-42.5-17-54.7-20.9
					c12.6-11,34.9-26.8,66.1-33.2c26.1-5.3,47.5-1.7,62.5,0.9C915.1,332.6,933.4,339.7,945.9,345.5z"/>
				<path class="st9" d="M990.8,499.2c-43,41.5-69.6,45.3-86.1,40.6c-11-3.1-16.5-9.8-36.9-25.7c-23.7-18.4-44.5-31.4-58.4-39.5
					c13.8-7,38.9-17.4,71.7-18c12.7-0.3,41.4-0.5,72.9,15.6C971.2,480.9,983.3,491.5,990.8,499.2z"/>
			</g>
			<path id="vase" class="st1" d="M1010.4,590.6v-14.9h-47.5v14.9h-41c0,51.7,0,103.3,0,155c14.5,5.2,37.6,11.5,66.4,11.2
				c27.2-0.2,49-6.2,63.2-11.2c0-51.7,0-103.3,0-155H1010.4z"/>
		</g>
	</g>
</g>
<g id="main">
	<g id="general_1_">
		<g id="chair_down">
			<rect x="931.9" y="847.1" class="st14" width="9.9" height="31.8"/>
			<path class="st15" d="M1045.1,813.6c0,0-88.7,70.7-165.8,54.7s-49.1-71-49.1-71L1045.1,813.6z"/>
			<path class="st16" d="M1045.1,813.6c0,0-88.7,70.7-165.8,54.7s-49.1-71-49.1-71L1045.1,813.6z"/>
			<polygon class="st14" points="832.3,1065.1 832.1,1065.2 832.5,1079.3 821.7,1081.2 823.9,1059.9 927.8,997.3 931.7,1012.6 
				929.9,1013.5 			"/>
			<polygon class="st14" points="1037.5,1076.5 1037.9,1062.3 988.8,1036.4 938.3,1009.7 942.2,994.4 979.8,1017.1 1046.1,1057 
				1048.3,1078.3 			"/>
			<path class="st14" d="M945.9,876.9v133.6c0,0,0,0,0,0h-18c0,0,0,0,0,0V876.8L945.9,876.9C945.9,876.9,945.9,876.9,945.9,876.9z"
				/>
			<path class="st14" d="M946.1,878.7h-18.4c-1,0-1.7-0.8-1.7-1.7v-0.3c0-1,0.8-1.7,1.7-1.7h18.4c1,0,1.7,0.8,1.7,1.7v0.3
				C947.8,877.9,947,878.7,946.1,878.7z"/>
			<path class="st14" d="M945.9,988.7v6.9c-0.5,5-1,10-1.5,15c-1,10.3-2,20.6-3,30.9c-0.6,6.2-1.2,12.5-1.8,18.7
				c1.2,6.5,2.4,13.1,3.7,19.6c-4.1,0.1-8.1,0.1-12.1,0.2c0.9-6.5,1.9-13.1,2.8-19.6c-0.4-4.9-0.8-9.8-1.2-14.6
				c-1-11.8-2-23.5-3-35.3c-0.6-7.3-1.3-14.7-1.9-22C933.8,988.6,939.9,988.7,945.9,988.7z"/>
			<path class="st17" d="M840.5,1079.9v6.5c0,4.9-4,8.8-8.8,8.8h-8.3c-0.4,0-0.7,0-1.1-0.1c-4.4-0.5-7.8-4.3-7.8-8.8v-6.5
				c0-2.2,0.8-4.2,2.1-5.8c1.6-1.9,4-3.1,6.7-3.1h8.3C836.5,1071.1,840.5,1075,840.5,1079.9z"/>
			<path class="st17" d="M949.9,1078.5v6.6c0,4.9-4,8.8-8.8,8.8h-8.3c-4.5,0-8.2-3.3-8.8-7.6c0-0.4-0.1-0.8-0.1-1.2v-6.6
				c0-4.9,4-8.8,8.8-8.8h8.3c0.8,0,1.6,0.1,2.3,0.3C947.1,1071,949.9,1074.4,949.9,1078.5z"/>
			<path class="st17" d="M1055.8,1077.9v6.5c0,4.9-4,8.8-8.8,8.8h-8.3c-4.9,0-8.8-4-8.8-8.8v-6.5c0-3.7,2.3-6.9,5.6-8.2
				c1-0.4,2.1-0.6,3.2-0.6h8.3C1051.9,1069.1,1055.8,1073.1,1055.8,1077.9z"/>
			<path class="st14" d="M945.9,876.8C945.9,876.9,945.9,876.9,945.9,876.8l0,118.8l-17.4-118.8H945.9z"/>
			<path class="st18" d="M990.3,881.8c0,0.1,0,0.1-0.1,0.1C990.2,881.8,990.3,881.7,990.3,881.8z"/>
			<polygon class="st18" points="1037.5,1076.5 1037.9,1062.3 988.8,1036.4 979.8,1017.1 1046.1,1057 1048.3,1078.3 			"/>
			<path class="st18" d="M931.1,1080c0.9-6.5,1.9-13.1,2.8-19.6c-0.4-4.9-0.8-9.8-1.2-14.6l8.7-4.3c-0.6,6.2-1.2,12.5-1.8,18.7
				c1.2,6.5,2.4,13.1,3.7,19.6C939.2,1079.9,935.1,1080,931.1,1080z"/>
			<path class="st18" d="M929.9,1013.5l-97.6,51.5c-1.7-1-3.3-1.9-5-2.9C861.5,1046,895.7,1029.7,929.9,1013.5z"/>
			<linearGradient id="SVGID_5_" gradientUnits="userSpaceOnUse" x1="814.5104" y1="1084.6693" x2="822.2789" y2="1084.6693">
				<stop  offset="0.2271" style="stop-color:#153E5C"/>
				<stop  offset="0.4085" style="stop-color:#1C4461"/>
				<stop  offset="1" style="stop-color:#BDD3DE"/>
			</linearGradient>
			<path class="st19" d="M822.3,1095.2c-4.4-0.5-7.8-4.3-7.8-8.8v-6.5c0-2.2,0.8-4.2,2.1-5.8
				C818.3,1080.9,820.6,1089.3,822.3,1095.2z"/>
			<linearGradient id="SVGID_6_" gradientUnits="userSpaceOnUse" x1="923.8811" y1="1077.9091" x2="943.3417" y2="1077.9091">
				<stop  offset="0.2271" style="stop-color:#153E5C"/>
				<stop  offset="0.4085" style="stop-color:#1C4461"/>
				<stop  offset="1" style="stop-color:#BDD3DE"/>
			</linearGradient>
			<path class="st20" d="M943.3,1069.9c-7.3,3.8-15.6,12.2-19.4,16.2c0-0.4-0.1-0.8-0.1-1.2v-6.6c0-4.9,4-8.8,8.8-8.8h8.3
				C941.8,1069.6,942.6,1069.7,943.3,1069.9z"/>
			<linearGradient id="SVGID_7_" gradientUnits="userSpaceOnUse" x1="1029.8716" y1="1075.8682" x2="1035.5051" y2="1075.8682">
				<stop  offset="0.2271" style="stop-color:#153E5C"/>
				<stop  offset="0.4085" style="stop-color:#1C4461"/>
				<stop  offset="1" style="stop-color:#BDD3DE"/>
			</linearGradient>
			<path class="st21" d="M1035.5,1069.7l-5.6,12.4v-4.1C1029.9,1074.2,1032.2,1071,1035.5,1069.7z"/>
		</g>
		<g id="man_down">
			<g id="shoes">
				<path d="M737.8,961.6c-3.3,5.8-13.3,4.9-25.5,5.2c-35.5,0.6-60.6,9.7-66.1,1.5c-0.9-1.4-1.3-2.9-1.4-3.6
					c-0.1-0.3-0.1-0.5-0.1-0.5c-0.1-1.9,0.4-3.6,1.3-5.2c1.8-3.3,5.1-5.7,6.1-6.5c3.4-2.4,6.6-2.9,10-2.9c3.9,0,8.1,0.5,13.7-0.7
					c4.2-0.9,8-2.5,11.4-4.5c0.6-0.3,1.1-0.7,1.7-1c1.1-0.7,2.2-1.4,3.3-2.2c0.5-0.4,1.1-0.8,1.6-1.2c8.9-6.8,14.7-14.4,17.4-12.4
					c0.4,0.3,0.2,0.4,1.1,1.5c2.3,2.8,5.5,4.6,7.5,5.1c6.2,1.6,10.2-6.1,14-4.4c1.7,0.8,2.3,3,3.5,15c0.7,6.9,1,10.8,1.1,13.2
					C738.4,960.4,738.1,961,737.8,961.6z"/>
				<path class="st22" d="M738.3,957.8c0.1,2.6-0.2,3.2-0.5,3.8c-3.2,5.8-13.3,4.9-25.5,5.2c-35.5,0.6-60.6,9.7-66.1,1.5
					c-0.9-1.4-1.3-2.9-1.4-3.6L738.3,957.8z"/>
				<path class="st3" d="M692.5,951.2c-0.2,0.1-0.3,0.1-0.5,0.1c-0.3,0-0.7-0.2-0.8-0.5l-4-6.5c0.6-0.3,1.1-0.7,1.7-1l4,6.5
					C693.1,950.3,693,950.9,692.5,951.2z"/>
				<path class="st3" d="M697.7,948.3c-0.2,0.1-0.3,0.1-0.5,0.1c-0.3,0-0.7-0.2-0.8-0.5l-4.2-6.8c0.5-0.4,1.1-0.8,1.6-1.2l4.3,7
					C698.3,947.4,698.2,948,697.7,948.3z"/>
				<path d="M626.4,1026.5c-4,6.2-15.1,4.7-28.8,4.2c-39.6-1.5-68.2,7.2-73.8-2.4c-0.9-1.5-1.2-3.1-1.3-3.9
					c-0.1-0.4-0.1-0.7-0.1-0.7c0-2.2,0.7-4.2,1.9-5.9c2.2-3.5,5.9-5.9,7-6.7c2.8-1.8,6.2-2.3,9.8-2.4c5.4-0.1,11.4,0.8,16.9-0.2
					c4-0.7,8.1-2.4,12-4.5c0.6-0.3,1.2-0.6,1.7-0.9c1.1-0.6,2.3-1.3,3.4-2c0.6-0.3,1.1-0.7,1.7-1c8.4-5.3,15.8-11.3,20.2-12.3
					c0.6-0.1,2.2-0.5,3.1,0.4c1.3,1.3-0.5,3.8,0.2,5c2.1,3.4,19.9-7.5,25.4-3.2c2.2,1.7,0.9,4.5,0.9,17.6c0,6.9,0.4,10.9,0.6,13.5
					C627.5,1023.7,627.4,1025,626.4,1026.5z"/>
				<path class="st15" d="M626.4,1026.5c-4,6.2-15.1,4.7-28.8,4.2c-1.4,0-2.8-0.1-4.2-0.1c-37.4-0.8-64.1,6.9-69.6-2.2
					c-0.9-1.5-1.2-3.1-1.3-3.9c12.6-0.4,46.4-1.5,73.5-2.3c13-0.4,24.5-0.8,31.4-1C627.5,1023.7,627.4,1025,626.4,1026.5z"/>
				<path class="st3" d="M576.3,1012.3c-0.2,0.1-0.3,0.1-0.5,0.1c-0.3,0-0.7-0.2-0.8-0.5l-4.9-7.9c0.6-0.3,1.2-0.6,1.7-0.9l4.8,7.8
					C576.9,1011.4,576.8,1012,576.3,1012.3z"/>
				<path class="st3" d="M581.5,1009.4c-0.2,0.1-0.3,0.1-0.5,0.1c-0.3,0-0.7-0.2-0.8-0.5l-4.9-8c0.6-0.3,1.1-0.7,1.7-1l4.9,8
					C582.1,1008.5,582,1009.1,581.5,1009.4z"/>
				<path class="st3" d="M599.4,999.6c-0.9-3.1-8.7-5.7-11.4-6.5c-0.5-2.3-2.4-9.6-5.6-11.2c-0.9-0.4-1.8-0.4-2.7,0
					c-1.1,0.5-1.4,1.4-1.5,2c-0.4,3.1,5.1,8,7.5,10.1c-1,1.2-2.3,3.9-0.9,8.9c0.2,0.5,0.7,0.8,1.2,0.7c0.5-0.2,0.8-0.7,0.7-1.2
					c-0.9-3.2-0.6-5.1-0.1-6.2l2.9,13.3c0.1,0.5,0.5,0.8,1,0.8c0.1,0,0.1,0,0.2,0c0.5-0.1,0.9-0.6,0.8-1.2l-2.4-11.1
					c2.1,2.3,4.9,5,7.2,5.2c0.1,0,0.1,0,0.2,0c0.9,0,1.7-0.4,2.3-1C599.6,1001.1,599.6,1000.2,599.4,999.6z M580.2,984.1
					c0-0.1,0-0.3,0.4-0.4c0.2-0.1,0.3-0.1,0.5-0.1c0.2,0,0.3,0,0.5,0.1c1.5,0.8,3,4.2,3.9,7.4C582.8,988.6,580.1,985.5,580.2,984.1z
					 M597.4,1000.8c-0.2,0.3-0.5,0.4-0.9,0.4c-1.7-0.1-4.4-2.7-6.5-5.3c3.5,1.3,7.2,3,7.6,4.4
					C597.6,1000.3,597.6,1000.5,597.4,1000.8z"/>
				<path class="st3" d="M714.7,938.5c-0.9-3.1-8.7-5.7-11.4-6.5c-0.9-2.4-1.5-4.5-1.8-5.9c-0.7-2.8-1-5.1-2.6-6.3
					c-0.3-0.2-1-0.7-1.9-0.7c-0.2,0-1,0-1.6,0.6c-0.1,0.1-0.4,0.3-0.6,0.8c0,0-0.5,0.9-0.4,2.1c0.1,1.3,2.5,5.3,6.6,10.3
					c-5.7,4.3-6.1,5.6-5.9,6.1c0.1,0.1,0.3,0.5,0.7,0.6c0.6,0.1,1.2-0.7,1.5-1c0.7-0.9,1.9-2.1,4.5-4c2.1,4.3,4.2,8.6,6.4,12.9
					c0,0,0.5,0.3,1,0.2c0.1,0,0.4-0.1,0.5-0.5c0.1-0.3,0.1-0.7-0.2-1c-1.7-3.1-3.4-6.2-5.1-9.3c2.1,2.3,4.9,5,7.2,5.2
					c0.1,0,0.1,0,0.2,0c0.9,0,1.7-0.4,2.3-1C714.9,940,714.8,939.1,714.7,938.5z M695.8,923.2c-0.2-0.5-0.2-0.9-0.2-0.9
					c0-0.2,0-0.6,0.3-1c0,0,0.4-0.6,1-0.6c0,0,0.5,0,1.1,0.5c1.3,1.1,3,9.3,3.1,9.7C698.1,926.9,696.1,923.9,695.8,923.2z
					 M712.6,939.6c-0.2,0.3-0.5,0.4-0.9,0.4c-1.7-0.1-4.4-2.7-6.5-5.3c3.5,1.3,7.2,3,7.6,4.4C712.8,939.1,712.8,939.3,712.6,939.6z"
					/>
				<path class="st23" d="M626.4,1026.5c-4,6.2-15.1,4.7-28.8,4.2c-1.4,0-2.8-0.1-4.2-0.1l2.6-8.5c13-0.4,24.5-0.8,31.4-1
					C627.5,1023.7,627.4,1025,626.4,1026.5z"/>
				<linearGradient id="SVGID_8_" gradientUnits="userSpaceOnUse" x1="645.918" y1="954.6094" x2="662.038" y2="954.6094">
					<stop  offset="0.2271" style="stop-color:#153E5C"/>
					<stop  offset="0.4085" style="stop-color:#1C4461"/>
					<stop  offset="1" style="stop-color:#BDD3DE"/>
				</linearGradient>
				<path class="st24" d="M662,949.6c-0.9,2-2.3,4.3-4.5,6.7c-4,4.4-8.8,3.7-11.6,2.7c1.8-3.3,5.1-5.7,6.1-6.5
					C655.5,950,658.6,949.6,662,949.6z"/>
				<linearGradient id="SVGID_9_" gradientUnits="userSpaceOnUse" x1="524.3314" y1="1013.2369" x2="541.1432" y2="1013.2369">
					<stop  offset="0.2271" style="stop-color:#153E5C"/>
					<stop  offset="0.4085" style="stop-color:#1C4461"/>
					<stop  offset="1" style="stop-color:#BDD3DE"/>
				</linearGradient>
				<path class="st25" d="M541.1,1008.7c-1.8,2.8-4.9,6-10.6,8c-2.3,0.8-4.3,1.1-6.2,1c2.2-3.5,5.9-5.9,7-6.7
					C534.2,1009.3,537.5,1008.8,541.1,1008.7z"/>
				<path class="st15" d="M738.3,957.8c0.1,2.6-0.2,3.2-0.5,3.8c-3.2,5.8-13.3,4.9-25.5,5.2c-35.5,0.6-60.6,9.7-66.1,1.5
					c-0.9-1.4-1.3-2.9-1.4-3.6L738.3,957.8z"/>
			</g>
			<g id="leg_back">
				<path class="st26" d="M737.4,910.1c-0.5,2.2-1.2,4.8-1.9,7.8c-0.4,1.8-0.9,3.7-1.5,5.7c-1,3.7-1.7,6.6-2.4,8.8
					c-1.7,5.8-2.6,7.1-4.2,7.9c-4.4,2.2-11.8-0.6-15.1-5.4c-0.1-0.2-0.3-0.4-0.4-0.6c-0.6-1.1-1-2.2-1-4.6c0-2.5,0.5-6.4,1.5-13.2
					c1-6,1.9-11,2.6-14.6C722.6,904.6,730,907.3,737.4,910.1z"/>
				<path class="st23" d="M735.5,917.8c-0.4,1.8-0.9,3.7-1.5,5.7c-1,3.7-1.7,6.6-2.4,8.8c-1.7,5.8-2.6,7.1-4.2,7.9
					c-4.4,2.2-11.8-0.6-15.1-5.4l2.7-4.8l10.8-19L735.5,917.8z"/>
				<path class="st17" d="M931.2,693.9c-3,25.1-6,50.3-9,75.4c-36.6-8.9-73.2-17.8-109.9-26.7c-2,2.3-5.1,6-8.7,10.8
					c-31.9,41.6-44.6,83.7-55,119.6c-3.7,12.6-8.4,30.6-12.7,52.7c-4.5-0.6-10.7-2-17.5-5.2c-5.3-2.4-9.4-5.3-12.4-7.7
					c8.1-47.5,14.2-84.9,18.4-110.9c3.2-19.6,7.2-39.1,10-58.7c6.7-47.9,4.3-54.4,11.9-62.3c11.1-11.5,29-11.1,104.4,0
					C883.1,685.7,910.5,690.3,931.2,693.9z"/>
			</g>
			<g id="leg_front">
				<path class="st26" d="M630.2,976c-1,3.5-2.7,8.3-5.5,13.7c-0.5,0.9-0.9,1.8-1.4,2.6c-3.5,6.8-5.8,10.4-9.7,11.1
					c-0.1,0-0.2,0-0.3,0c-5.5,0.7-11.9-4.6-13.6-10.3c-0.1-0.5-0.2-1-0.3-1.6c-0.1-1.8,0.5-4.8,2.4-12.2c1.5-6,3.2-10.8,4.3-14.1
					c6.3,2.8,12.7,5.7,19,8.5C626.9,974.5,628.5,975.2,630.2,976z"/>
				<path class="st27" d="M1000,713.3c-0.8,32.2-7,55.3-14.6,71.9c-9.6,20.8-21.5,31.2-27.7,35.8c-32.4,24.4-72.1,21.4-139,15.4
					c-48-4.3-86.8-13.8-113-21.5c-1.2,5.3-3.3,13.2-6.3,22.4c-2.2,6.6-4.4,12.2-6.7,17.4c-3.3,7.5-5.7,13.1-9,19.5
					c-5.9,11.4-11.1,19.3-14.3,24.2c-7,10.8-14.3,22.1-20.9,34.3c0,0.1,0,0.1,0,0.1c-8.3,15.3-15.4,32.1-19.4,51.1
					c-0.6,3-1.1,5.5-1.3,6.9c-5.1-2-10.1-4.1-15.2-6.1c-0.6-0.2-1.2-0.5-1.8-0.7c-5.1-2-10.2-4.1-15.3-6.1c2-4.1,5.2-10.7,8.7-18.8
					c21.3-50.1,19.8-78.3,35.1-131c10.3-35.5,15.6-53.2,24.3-61.6c3.7-3.6,7.5-6.4,11.8-8.7c3.1-1.6,6.4-3,10.1-4.1
					c1.1-0.3,2.2-0.7,3.4-0.9c7.3-1.9,15.8-3,26.2-3.9c0.6,0,1.1-0.1,1.7-0.1c7.7-0.6,16.4-1.1,26.3-1.7c12.4-0.7,26.7-1.4,43.4-2.6
					c55.9-3.9,109.5-5.1,109.5-5.1c0.1-0.1,0.1-0.2,0.2-0.3c0.4-0.6,0.9-1.3,1.3-1.9c10.1-14.9,20.2-29.7,30.3-44.6
					C951.7,699.4,975.8,706.3,1000,713.3z"/>
				<path class="st28" d="M955.3,776.5c-46.1,18.4-91.7,26-135.4,22.7c-22-1.6-41-5.8-57.7-9.4c-30.3-6.6-52.2-11.4-70.9,2.5
					c-13,9.6-16.3,22.3-22.4,45.4c-1.2,4.6-2.6,9.8-4.1,15.3c-12.3,43.9-29.9,88.2-52.3,131.6c-0.6-0.2-1.2-0.5-1.8-0.7
					c22.4-43.4,39.9-87.6,52.2-131.4c1.6-5.6,2.9-10.7,4.1-15.3c6.2-23.5,9.6-36.5,23.1-46.5c19.4-14.4,42.8-9.3,72.5-2.9
					c16.7,3.6,35.6,7.7,57.5,9.4c43.4,3.3,88.7-4.4,134.6-22.6c0.5-0.2,1.1,0,1.3,0.6C956.1,775.7,955.8,776.3,955.3,776.5z"/>
				<path class="st29" d="M985.4,785.2c-9.6,20.8-21.5,31.2-27.7,35.8c-32.4,24.4-72.1,21.4-139,15.4c-48-4.3-86.8-13.8-113-21.5
					c-1.2,5.3-3.3,13.2-6.3,22.4c-2.2,6.6-4.4,12.2-6.7,17.4c-3.3,7.5-5.7,13.1-9,19.5c-5.9,11.4-11.1,19.3-14.3,24.2
					c-7,10.8-14.3,22.1-20.9,34.3c1.6-3.7,51.7-123.6,57.6-133.2c5.9-9.7,129.7,23.4,184.4,24.2c54.7,0.8,81.5-49.2,81.5-49.2
					L985.4,785.2z"/>
				<linearGradient id="SVGID_10_" gradientUnits="userSpaceOnUse" x1="675.183" y1="753.1401" x2="896.6486" y2="753.1401">
					<stop  offset="0.2271" style="stop-color:#153E5C"/>
					<stop  offset="0.4085" style="stop-color:#1C4461"/>
					<stop  offset="1" style="stop-color:#BDD3DE"/>
				</linearGradient>
				<path class="st30" d="M894.9,752.4c-5.2,11.3-23,15.3-47.5,14.9c-73.7-1.4-142.2-6.9-172.2-9.6c3.1-1.6,6.4-3,10.1-4.1
					c1.1-0.3,2.2-0.7,3.4-0.9c7.3-1.9,15.8-3,26.2-3.9c0.6,0,1.1-0.1,1.7-0.1c11.2-0.9,19.3-1.4,26.3-1.7c9.1-0.4,16.3-0.5,25.6-1.1
					c0,0,7.5-0.5,17.8-1.5c55.9-3.9,109.5-5.1,109.5-5.1c0.1-0.1,0.1-0.2,0.2-0.3C897.4,743.6,896.5,749,894.9,752.4z"/>
			</g>
			<g id="socks">
				<path class="st14" d="M731.7,932.3c-1.7,5.8-2.6,7.1-4.2,7.9c-4.4,2.2-11.8-0.6-15.1-5.4c-0.1-0.2-0.3-0.4-0.4-0.6
					c-0.6-1.1-1-2.2-1-4.6c1,0.1,2.5,0.2,4.1,0.4C720.5,930.7,728.2,931.8,731.7,932.3z"/>
				<path class="st14" d="M623.4,992.3c-3.5,6.8-5.8,10.4-9.7,11.1c-0.1,0-0.2,0-0.3,0c-5.5,0.7-11.9-4.6-13.6-10.3
					c-0.1-0.5-0.2-1-0.3-1.6c4.8,0.2,12.1,0.4,18.5,0.6C619.8,992.2,621.7,992.3,623.4,992.3z"/>
			</g>
		</g>
		<g id="table">
			<path class="st31" d="M788.7,673.1c-0.1-94.4-0.1-188.7-0.2-283.1h-6.9c-0.1,94.2-0.2,188.4-0.4,282.6c1.3,0.1,2.7,0.1,4.1,0.2
				C786.4,672.9,787.6,673,788.7,673.1z"/>
			<path class="st31" d="M376.5,1000.9c-1.9-1.9-4.2-3.1-6.7-3.7v-398H363v398c-2.4,0.6-4.7,1.8-6.6,3.7c-5.6,5.6-5.6,14.6,0,20.2
				c5.6,5.6,14.6,5.6,20.2,0C382.1,1015.5,382.1,1006.5,376.5,1000.9z"/>
			<path class="st31" d="M576.9,1089c-1.9-1.9-4.2-3.1-6.7-3.7V650.9h-6.9v434.4c-2.4,0.6-4.7,1.8-6.6,3.7c-5.6,5.6-5.6,14.6,0,20.2
				c5.6,5.6,14.6,5.6,20.2,0S582.5,1094.5,576.9,1089z"/>
			<polygon class="st18" points="363,599.1 369.9,599.1 369.9,693.9 363,686.6 			"/>
			<polygon class="st18" points="570.3,675.7 570.3,907 563.4,899.7 563.4,668.1 			"/>
			<path class="st32" d="M1021.2,494.1c-7.7,30.5-36.3,46.7-51,57.1c-76.3,53.9-127.6,72-172.4,99.2c-10.7,6.5-21.1,13.5-31.3,21.7
				c-10.8,8.6-21.4,18.4-32.2,30.2c-15.3,16.7-17.9,23.2-25,31.5c0,0-4.8,5.5-11.6,11.5c-103.9,91.7-183.3,39.5-183.3,39.5
				c-59.4-31.3-33-101.3-101-137.8c-11.5-6.2-48.2-19.8-55.5-49.8c-2.2-9.1-1.2-17.2,0.1-22.9c520.4-135.4,652.8-141.7,662.8-115.5
				C1022.2,462.4,1025.4,477.4,1021.2,494.1z"/>
			<path class="st31" d="M1021.7,465.2c-0.4,16.8-13.1,30.3-51,57.1c-76.7,54.2-128.1,72.2-173.2,99.6c-21.8,13.2-42,28.7-62.8,51.4
				c-21.3,23.3-18,26.7-36.6,43c-47.5,41.8-132.2,75.4-185.3,44.3c-38-22.3-22-55.5-73.3-112C398,602.9,360.1,601.9,358,575
				c-2.6-31.8,46-59.8,75.3-76.7c29.9-17.2,51.3-24.1,76.2-29.9c32-7.4,70-12.9,139.7-36c41.4-13.7,83.3-25.9,124.4-40.3
				c26.4-9.2,48.5-17.1,79.4-18.6c44.2-2.1,76.6,10.7,84.2,13.5C970.3,399.6,1022.7,430.3,1021.7,465.2z"/>
			<path class="st32" d="M446.1,656.4c-0.3-0.3-0.6-0.7-0.9-1c2.6-15.1,2.4-30.1-0.7-44.9c-3.9-18.7-12.2-37-24.9-54.6
				c-9.2-12.8-19.4-23.4-28.1-31.2c0.3-0.2,0.6-0.4,0.8-0.6c8.7,7.9,18.9,18.4,28.1,31.2c12.7,17.7,21.1,36.2,25,55
				C448.8,625.5,448.9,640.9,446.1,656.4z"/>
			<path class="st32" d="M421.9,631.6c-0.5-0.4-1-0.9-1.5-1.3c-2.4-7.5-3.6-15-3.6-22.3c0-5.2,0.5-9.4,1.1-13
				c0.8-6.2,1.5-10.6-1.2-16.6c-2.4-5.5-5.8-8-10.9-11.9c-2.9-2.2-6.5-4.9-10.8-8.8c-6.6-6.1-12.6-13-17.9-20.8
				c0.2-0.2,0.5-0.5,0.8-0.7c5.3,7.7,11.3,14.7,17.9,20.8c4.2,3.9,7.8,6.6,10.8,8.8c5.2,3.9,8.7,6.5,11.2,12.3
				c2.7,6.2,2.1,11.1,1.2,17.2c-0.5,3.6-1.1,7.7-1.1,12.9C417.9,615.8,419.2,623.7,421.9,631.6z"/>
			<path class="st32" d="M399.4,607.6c-0.2,2.4,0,4.9,0.5,7.4c-0.4-0.3-0.8-0.5-1.2-0.8c-0.4-2.3-0.5-4.5-0.3-6.7
				c0.5-6.3,3.3-10.7,5.6-14.3c2.2-3.5,3.9-6.2,2.9-9.4c-1.2-3.8-5.5-4.9-10.8-6.3c-4.7-1.2-10.5-2.8-15.8-6.7
				c-6.5-4.7-11.1-11.9-13.9-21.6c0.2-0.4,0.5-0.7,0.8-1.1c2.7,9.9,7.3,17.2,13.7,21.9c5.2,3.8,10.7,5.2,15.5,6.5
				c5.7,1.5,10.1,2.7,11.5,7c1.2,3.6-0.8,6.7-3,10.3C402.5,597.4,399.9,601.5,399.4,607.6z"/>
			<path class="st32" d="M477.1,667.2c-0.4,9.9-2,19.8-4.8,29.6c-0.2-0.5-0.4-0.9-0.7-1.4c2.6-9.3,4.1-18.7,4.5-28.2
				c1-26.6-7.5-47-13.1-60.5c-13.2-32-28.8-65-46.3-98.6c0.3-0.2,0.6-0.4,0.9-0.5c17.6,33.6,33.1,66.7,46.4,98.7
				C469.5,619.8,478.1,640.4,477.1,667.2z"/>
			<path class="st32" d="M505.1,755.6c-0.4-0.3-0.8-0.7-1.2-1c-5.1-29.1-8.6-59-10.6-88.8c-1-15.4-1.3-26.3-1.5-35.1
				c-0.3-11.3-0.5-19.4-2-30c-5.1-36.3-21.6-72.1-48.9-106.6c0.3-0.2,0.6-0.3,0.9-0.5c27.4,34.6,43.9,70.6,49,107
				c1.5,10.7,1.7,18.9,2,30.2c0.2,8.8,0.5,19.6,1.5,35C496.3,695.9,500,726.1,505.1,755.6z"/>
			<path class="st32" d="M508.4,653c-7.3,34.3-5.2,70.9,6.1,108.6c-0.4-0.2-0.9-0.5-1.3-0.7h0c-11.1-37.6-13-73.9-5.8-108.1
				c3-14,6.8-24.5,10.2-33.8c4.9-13.4,8.7-23.9,8.3-39c-1-32.3-22-64.9-62.6-96.9c0.4-0.2,0.7-0.3,1.1-0.5
				c40.5,32.2,61.6,64.9,62.5,97.4c0.5,15.3-3.6,26.5-8.3,39.4C515.1,628.6,511.3,639.1,508.4,653z"/>
			<path class="st32" d="M606.7,766.1c-1,0.3-2.1,0.6-3.1,0.8c-13.3-0.8-25.8-2.6-36.7-5.3c-25.3-6.3-41.7-17.2-48.9-32.4
				c-10.3-22-0.6-51.9,17-106.1c4.2-12.8,7.6-21.7,10.1-28.2c4.9-12.6,6.7-17.3,4.9-26.4c-2.9-14.6-11.5-23.3-21.5-33.3
				c-9.8-9.9-21-21.2-27.6-40.2c-2.6-7.5-4.2-15.3-4.8-23.4c0.3-0.1,0.7-0.2,1-0.3c0.6,8.1,2.2,15.9,4.8,23.3
				c6.5,18.9,17.6,30,27.3,39.9c9.7,9.8,18.8,19,21.8,33.8c1.9,9.4,0,14.2-4.9,27c-2.5,6.5-6,15.4-10.1,28.1
				c-17.6,53.9-27.3,83.6-17.1,105.3C523.9,739.4,542.2,763.3,606.7,766.1z"/>
			<path class="st32" d="M629.9,758.1c-0.4,0.2-0.8,0.3-1.2,0.5c-49.4-26.2-73.6-50.5-71.9-72.4c0.9-11.4,8.1-18.8,16.4-27.3
				c9.4-9.6,20-20.5,23.3-39.7c4.7-26.8-8.2-51.2-13.1-60.4c-7.3-13.8-14.7-21-21.9-27.9c-7-6.8-13.6-13.1-20-25
				c-6.7-12.4-10.7-26.4-11.8-41.8c0.3-0.1,0.7-0.1,1-0.2c1.2,15.3,5.1,29.2,11.7,41.5c6.3,11.8,12.9,18.1,19.9,24.8
				c7.3,7,14.8,14.2,22.1,28.2c4.9,9.3,17.9,33.9,13.2,61.1c-3.4,19.5-14.1,30.5-23.6,40.2c-8.2,8.4-15.3,15.7-16.1,26.7
				C556.1,707.8,580.3,732,629.9,758.1z"/>
			<path class="st32" d="M638,754.6c-0.3,0.2-0.7,0.3-1.1,0.5c-4.7-3.9-9.1-8.3-12.9-13c-28.9-35.4-34.1-92.9-11-120.7
				c2.7-3.3,5.3-5.5,7.5-7.4c3.7-3.2,6.6-5.7,8.5-11.4c4.4-13.5-1.5-30.3-17.5-50c-8.3-10.2-15.1-14.7-21.1-18.7
				c-4.3-2.8-8.4-5.5-12.5-9.9c-13.3-14-18.3-36.5-14.9-67.1c0.4-0.1,0.7-0.2,1.1-0.2c-3.4,30.4,1.5,52.8,14.6,66.7
				c4,4.3,8.1,6.9,12.3,9.7c6.1,4,13,8.5,21.4,18.9c16.2,20,22.1,37.2,17.7,51c-1.9,6-5,8.6-8.8,11.9c-2.2,1.9-4.7,4.1-7.4,7.3
				c-22.9,27.5-17.6,84.4,11,119.4C628.7,746.2,633.2,750.6,638,754.6z"/>
			<path class="st32" d="M650.6,641.9c-9.9,30.6-9.1,66,2.3,105.4c-0.3,0.2-0.6,0.3-0.9,0.5c-11.6-39.6-12.4-75.3-2.4-106.2
				c1.6-4.8,3.2-8.8,4.7-12.8c4.1-10.4,7.3-18.6,5.7-30.6c-2.4-18.1-13.9-28.8-27.2-41.2c-6.8-6.4-14.5-13.6-21.8-22.5
				c-17.4-21.5-28.7-48.7-33.5-81.1c0.3-0.1,0.7-0.2,1-0.2c4.8,32.2,16,59.4,33.3,80.7c7.2,8.9,14.9,16.1,21.7,22.4
				c13.4,12.6,25,23.4,27.5,41.9c1.7,12.3-1.6,20.6-5.8,31.2C653.7,633.1,652.1,637.2,650.6,641.9z"/>
			<path class="st32" d="M663.9,648.9c-5.2,12.3-10.1,23.9-9.8,41.7c0.2,16.3,4.7,32.5,13.3,48.3c-0.3,0.2-0.6,0.4-0.9,0.5
				c0,0,0,0,0,0c-8.7-15.9-13.2-32.4-13.5-48.8c-0.3-18,4.7-29.7,9.9-42.1c5.1-12.2,10.5-24.8,11.3-44.6c0.5-11,1.6-36.8-13-60.5
				c-8.2-13.3-17.4-19.5-26.2-25.5c-8.7-5.9-16.9-11.4-23.5-23.1c-7.5-13.2-9.9-29.5-7.4-48.7c0.4-0.1,0.7-0.2,1.1-0.3
				c-2.6,19.1-0.2,35.3,7.2,48.4c6.5,11.4,14.6,16.9,23.2,22.7c8.9,6,18.2,12.3,26.5,25.8c14.8,23.9,13.7,49.9,13.2,61
				C674.4,624,669.1,636.7,663.9,648.9z"/>
			<path class="st32" d="M693.7,720.1c-0.3,0.3-0.7,0.5-1,0.8c-0.8-21.3-1.5-43-2-64.5c-0.6-22.5-0.9-39.5-1.2-53.2
				c-0.7-34.9-0.9-45.4-3.9-60c-7.4-36.4-27-71.3-58.3-103.9c0.4-0.1,0.7-0.2,1.1-0.3c31.2,32.6,50.8,67.5,58.2,104
				c3,14.7,3.2,25.2,3.9,60.2c0.3,13.7,0.6,30.7,1.2,53.2C692.2,677.7,692.9,699.1,693.7,720.1z"/>
			<path class="st32" d="M715.6,697.1c-0.8,1.1-1.6,2.2-2.4,3.3c12.1-30,16.3-59.8,12.4-88.8c-2.6-19.2-8.2-33.8-26.3-73.6
				c-15.8-35-32.7-70.4-50.2-105.5c0.3-0.1,0.7-0.2,1-0.3c17.5,35,34.4,70.5,50.2,105.4c18.1,40,23.8,54.6,26.4,73.9
				C730.3,639.5,726.6,668.2,715.6,697.1z"/>
			<path class="st32" d="M764.9,644.7c-0.3,0.3-0.7,0.6-1,0.8c-0.6-37.5-9.6-68.8-26.9-93.2c-6.2-8.7-12.2-15-18.6-21.6
				c-8.1-8.4-16.5-17-25.8-31.5c-13.7-21.3-23.1-45.4-28.1-71.9c0.3-0.1,0.7-0.2,1-0.3c5,26.4,14.3,50.4,28,71.6
				c9.3,14.4,17.6,23,25.7,31.3c6.4,6.6,12.5,12.9,18.8,21.7C755.2,576.1,764.3,607.3,764.9,644.7z"/>
			<path class="st32" d="M774.9,637c-0.3,0.2-0.6,0.5-0.9,0.7c-5.6-26.2-9.9-52.1-12.8-77c-0.2-1.5-0.3-2.9-0.5-4.3
				c-1.8-15.6-2.9-25.9-10.4-37.7c-6.9-10.9-14.5-15.7-22.5-20.8c-5.5-3.5-11.1-7-16.5-12.7c-13.6-14.5-19.4-37.2-17.1-67.3
				c0.4-0.1,0.7-0.2,1.1-0.3c-2.3,30.1,3.3,52.6,16.8,67c5.2,5.6,10.8,9.1,16.2,12.5c7.8,4.9,15.8,10,22.8,21.1
				c7.5,12,8.8,22.9,10.5,38.1c0.2,1.4,0.3,2.8,0.5,4.3C765.1,585.3,769.3,611,774.9,637z"/>
			<path class="st32" d="M788.5,627.6c-0.3,0.2-0.7,0.4-1,0.7c-3-30.1-5.6-59.4-7.8-87.4l-0.4-5c-2.5-32.3-3.4-43.2-12.6-55.5
				c-6.2-8.2-12.6-12.4-19.5-16.9c-7.3-4.8-14.9-9.7-22.3-20c-6.4-8.9-10.7-19.3-13-31.1c0.3-0.1,0.7-0.2,1-0.3
				c2.2,11.6,6.5,21.9,12.9,30.8c7.2,10.1,14.7,15,22,19.7c6.6,4.3,13.5,8.8,19.8,17.1c9.4,12.5,10.3,24.4,12.8,56l0.4,5
				C782.9,568.5,785.5,597.7,788.5,627.6z"/>
			<path class="st32" d="M816.3,611.1c-0.3,0.2-0.6,0.4-1,0.5c-9.9-8.3-15.5-17.3-16.6-26.8c-0.8-7.1,1.1-12.5,3.2-18.1
				c1-2.7,2-5.5,2.8-8.6c4.3-16.7-0.2-30.2-7-50.8c-14.5-43.7-55.4-86.7-69.1-100.2c0.4-0.1,0.7-0.2,1.1-0.4
				c14.1,13.9,54.5,56.6,69,100.2c6.6,20,11.4,34.4,7,51.4c-0.8,3.2-1.9,6-2.9,8.7c-2.1,5.8-3.9,10.8-3.1,17.6
				C800.8,594,806.4,602.9,816.3,611.1z"/>
			<path class="st32" d="M825.6,606.1c-0.3,0.2-0.6,0.3-0.9,0.5c-3.7-6.2-6.7-12.8-9-19.6c-6.2-18.5-4.6-31.8-2.6-48.5
				c1.1-9.4,2.4-20,2.6-33.5c0.3-26.1,0.8-65.4-20.2-77.3c-3.8-2.2-7.5-2.9-11.4-3.6c-5.2-1-11.2-2.2-18.9-7.1
				c-6.4-4.1-12-9.6-16.7-16.3c0.3-0.1,0.7-0.2,1-0.3c4.6,6.5,10,11.8,16.2,15.8c7.5,4.8,13.3,6,18.5,7c4,0.8,7.7,1.5,11.7,3.7
				c21.5,12.2,21,51.9,20.7,78.2c-0.2,13.5-1.4,24.2-2.6,33.6c-2,16.6-3.6,29.8,2.5,48.1C819,593.4,822,599.9,825.6,606.1z"/>
			<path class="st32" d="M843.7,596.8c-0.4,0.2-0.7,0.4-1.1,0.6c-6.4-3.9-11.6-8.7-15.3-14.4c-8.8-13.2-7.2-26.3-3.9-52.4
				c1.3-10.3,2.7-21.9,3.9-36.3c4.1-50.7-1.4-61.4-7.3-68c-4-4.4-14.7-16.2-29.8-17.4c-3-0.2-5.7,0-8.1,0.2c-4.3,0.4-8,0.7-10.9-1.9
				c-2.8-2.5-4-6.8-3.5-13c0.4-0.1,0.7-0.2,1.1-0.4c-0.6,6,0.4,10.2,3,12.6c2.6,2.2,5.9,2,10.1,1.6c2.4-0.2,5.2-0.4,8.2-0.2
				c15.6,1.2,26.4,13.2,30.5,17.7c3.1,3.4,6.1,8,7.8,18.3c1.7,11,1.7,27.5-0.2,50.5c-1.2,14.5-2.7,26.6-3.9,36.4
				c-3.2,25.8-4.8,38.8,3.8,51.7C831.9,588.1,837.1,592.9,843.7,596.8z"/>
			<path class="st32" d="M863.3,586.8c-0.6,0.3-1.1,0.6-1.7,0.9c-6-0.8-10.7-3-13.9-6.4c-7.2-7.8-4.3-18.7,0.2-35.2
				c3.4-12.6,7.6-28.3,8.6-48c0.8-15,3-60.9-21.2-77.7c-3.3-2.3-6.5-3.6-10-5.1c-5.2-2.2-11.1-4.7-19.1-11
				c-6.3-5-11.9-10.8-16.9-17.4c0.3-0.1,0.7-0.2,1-0.3h0c4.8,6.4,10.4,12,16.5,16.9c7.9,6.3,13.8,8.7,18.9,10.9
				c3.5,1.5,6.8,2.9,10.1,5.2c24.7,17.2,22.4,63.4,21.6,78.6c-1,19.8-5.2,35.5-8.6,48.2c-4.3,16.2-7.2,26.9-0.4,34.2
				C851.9,584,856.8,586.1,863.3,586.8z"/>
			<path class="st32" d="M884.3,575.7c-0.3,0.2-0.6,0.3-0.9,0.5c-3.9-5.5-7.3-11.4-10.1-17.5c-8.4-18.1-10.6-35.2-9.8-76.1
				c0.3-14.2,0.8-25.6,1.2-34.6c1.1-24.2,1.5-32.3-5.4-37.7c-4.8-3.8-10.4-4.1-16.4-4.5c-7.4-0.5-15-0.9-22.5-7.5
				c-5-4.4-8.7-10.3-11-17.8c0.3-0.1,0.7-0.2,1-0.3c2.2,7.3,5.7,13.1,10.6,17.3c7.3,6.3,14.7,6.8,21.9,7.2
				c6.1,0.4,11.9,0.7,16.9,4.7c7.3,5.7,6.9,14,5.8,38.6c-0.4,9.1-0.9,20.4-1.2,34.6c-0.8,40.7,1.4,57.6,9.7,75.6
				C877,564.3,880.4,570.2,884.3,575.7z"/>
			<path class="st32" d="M905.4,564c-0.3,0.2-0.6,0.4-0.9,0.5c-1.2-4-2.9-7.7-5-11.1c-4-6.3-8.1-9.2-11.8-11.7
				c-2.4-1.6-4.4-3.1-6-5.2c-5.5-7.2-1.1-16.5,4.9-29.4c4.5-9.6,10.1-21.6,12.8-36c5.4-29-0.8-66.8-20.2-77.2
				c-2.9-1.6-5.8-2.3-9.4-3.2c-5-1.3-11.1-2.9-20.8-7.5c-5-2.3-9.9-5-14.5-7.9c0.5-0.1,1.1-0.2,1.7-0.2c4.3,2.6,8.8,5,13.3,7.2
				c9.6,4.5,15.7,6.1,20.6,7.4c3.7,1,6.5,1.7,9.6,3.4c19.9,10.6,26.2,48.9,20.7,78.3c-2.7,14.5-8.3,26.5-12.9,36.2
				c-5.8,12.5-10.1,21.6-5,28.3c1.5,2,3.5,3.3,5.8,4.9c3.5,2.5,7.9,5.5,12,12C902.5,556.3,904.2,560,905.4,564z"/>
			<path class="st32" d="M925,552.4c-0.7,0.4-1.3,0.8-1.9,1.2c7.7-12.2,10-22.2,6.8-29.7c-2.4-5.7-7.3-8.5-12-11.2
				c-5-2.8-10.1-5.8-12.2-12.1c-2.2-6.7,0.7-11.6,4.7-18.4c2.7-4.6,6.1-10.3,8.6-18c9.1-27.8,2.3-61.5-14.6-72.1
				c-2.9-1.8-4.9-2.2-7.9-2.8c-3-0.6-7.2-1.4-14.2-4.1c-8.1-3.1-15.9-7-23.3-11.8c0.6,0,1.2,0,1.9,0c6.9,4.3,14.2,8,21.8,10.8
				c7,2.7,11.1,3.5,14.1,4c3.1,0.6,5.2,1,8.2,2.9c17.3,10.8,24.3,45.1,15,73.3c-2.6,7.8-6,13.6-8.7,18.2c-3.9,6.6-6.7,11.3-4.6,17.5
				c2,5.9,6.7,8.6,11.8,11.5c4.9,2.8,9.9,5.7,12.5,11.7C934,530.9,932,540.6,925,552.4z"/>
			<path class="st32" d="M934.1,494.8c-0.4,7,0.7,11.8,1.9,16.9c1.1,4.7,2.2,9.5,2.2,16.3c0,5.7-0.7,11.6-2.3,17.5
				c-0.4,0.3-0.9,0.5-1.3,0.8c1.7-6.2,2.6-12.3,2.5-18.3c0-6.7-1.1-11.5-2.2-16.1c-1.2-5.2-2.3-10.1-1.9-17.2
				c0.4-7.2,2.1-12.1,3.6-16.5c0.3-0.8,0.6-1.7,0.9-2.5c8.7-26.6,6.6-74.4-14.1-85.9c-3.1-1.7-5.6-2.1-8.8-2.5
				c-3.8-0.5-8.5-1.1-16.2-4.5c-5.1-2.3-10-5.1-14.7-8.4c0.7,0.1,1.4,0.1,2.1,0.2c4.1,2.8,8.4,5.3,12.9,7.3
				c7.5,3.3,12.2,3.9,15.9,4.4c3.1,0.4,5.9,0.8,9.2,2.6c9.6,5.3,16.2,18.6,18.6,37.4c2.1,16.5,0.6,35.6-4,49.8
				c-0.3,0.8-0.6,1.7-0.8,2.5C936.2,482.9,934.5,487.8,934.1,494.8z"/>
			<path class="st32" d="M948,454.9c-5.1,17.9-6,24-4.1,31.2c1,4.1,2.3,6.1,4,8.7c1.3,2,2.7,4.2,4.2,7.8c3.8,8.6,5.4,18.4,4.8,29.2
				c-0.4,0.2-0.7,0.5-1.1,0.7c0.7-10.9-0.9-20.9-4.7-29.5c-1.5-3.5-2.9-5.7-4.2-7.6c-1.7-2.6-3.1-4.8-4.1-9
				c-2-7.9-0.7-14.8,4.1-31.8c3.8-13.3,6.1-19.7,7.5-23.5c1.3-3.6,1.8-5,2-7.9c0.7-10.9-4.6-22.6-15.7-34.6c0.7,0.3,1.5,0.6,2.2,0.9
				h0c10.4,11.7,15.2,23.1,14.5,33.8c-0.2,3-0.7,4.4-2.1,8.1C954.1,435.3,951.8,441.6,948,454.9z"/>
			<path class="st32" d="M972.9,468.5c-0.3,0.8-0.8,1.7-1.2,2.7c-1.6,3.5-3.8,8.4-5.6,15.4c-3.1,12.4-3.3,25.6-0.6,39.2
				c-0.3,0.2-0.6,0.4-0.9,0.7c-2.9-13.9-2.7-27.4,0.5-40.1c1.8-7.1,4-12,5.6-15.5c0.4-1,0.8-1.9,1.2-2.7
				c7.2-17.1,2.5-41.2-13.8-71.7c0.5,0.3,1.1,0.5,1.6,0.8h0C975.7,427.4,980.1,451.4,972.9,468.5z"/>
			<path class="st32" d="M985.7,474.4c-1.7,2.4-3.8,4.6-5.7,6.7c-4.4,4.7-8.9,9.6-11.1,17.7c-2,7.3-1.6,15.3,1.2,23.9
				c-0.3,0.2-0.6,0.4-0.9,0.6c-3-8.9-3.4-17.2-1.3-24.8c2.3-8.3,6.9-13.3,11.3-18.1c2-2.2,3.9-4.2,5.6-6.6
				c9.4-13,10.7-32.7,3.8-58.7c0.4,0.3,0.9,0.7,1.3,1C996.6,441.8,995.1,461.4,985.7,474.4z"/>
			<path class="st32" d="M994.3,471.8c-1.8,2.6-3.9,4.8-5.9,7c-4.3,4.6-8.7,9.4-10.8,17.3c-1.8,6.4-1.7,13.5,0.3,20.9
				c-0.3,0.2-0.6,0.4-0.9,0.6c-2.1-7.8-2.3-15.1-0.4-21.8c2.2-8.1,6.7-13,11.1-17.7c2-2.2,4.1-4.4,5.9-7c7.9-11,10.1-26.7,6.5-46.7
				c0.4,0.4,0.8,0.8,1.2,1.2l0,0C1004.5,445.3,1002.2,460.8,994.3,471.8z"/>
			<path class="st32" d="M1011.3,480.4c-2.1,2.2-4.6,3.7-7.2,5.3c-4,2.5-8.2,5-11.6,10.5c-2.5,3.9-4,8.5-4.5,13.5
				c-0.4,0.3-0.8,0.6-1.1,0.9c0.5-5.6,2-10.6,4.7-14.9c3.6-5.7,7.9-8.3,12-10.8c2.5-1.5,5-3,7-5.1c6.9-7.1,7.8-20.5,2.9-39.7
				c0.6,0.9,1.2,1.9,1.7,2.8c0,0,0,0,0,0C1019.3,460.7,1018,473.4,1011.3,480.4z"/>
			<path class="st4" d="M1021.6,465.2c-0.4,13.9-9.1,25.6-33.7,44.4c-0.4,0.3-0.8,0.6-1.1,0.9c-2.8,2.1-5.8,4.3-8.9,6.6
				c-0.3,0.2-0.6,0.4-0.9,0.6c-2,1.5-4.2,3-6.4,4.6c-0.2,0.1-0.3,0.2-0.5,0.3c-0.3,0.2-0.6,0.4-0.9,0.6c-1.2,0.9-2.5,1.7-3.7,2.6
				c-0.3,0.2-0.6,0.4-0.9,0.7c-2.6,1.8-5.2,3.6-7.7,5.3c-0.4,0.2-0.7,0.5-1.1,0.7c-6.9,4.6-13.5,9-19.9,13.1
				c-0.4,0.3-0.9,0.5-1.3,0.8c-3.2,2.1-6.4,4-9.6,6c-0.7,0.4-1.3,0.8-1.9,1.2h0c-6.1,3.7-12,7.2-17.7,10.4c-0.3,0.2-0.6,0.4-0.9,0.5
				c-6.9,4-13.6,7.7-20.1,11.2c-0.3,0.2-0.6,0.3-0.9,0.5c-6.9,3.7-13.6,7.2-20.1,10.6c-0.6,0.3-1.1,0.6-1.7,0.9
				c-6.2,3.2-12.1,6.2-18,9.2c-0.4,0.2-0.7,0.4-1.1,0.6c-5.8,3-11.5,5.9-17,8.8c-0.3,0.2-0.6,0.3-0.9,0.5c-2.8,1.5-5.6,3-8.4,4.5
				c-0.3,0.2-0.6,0.4-1,0.5c-9.2,5.1-18.2,10.3-26.9,15.9c-0.3,0.2-0.7,0.4-1,0.7c-4.2,2.8-8.5,5.7-12.6,8.8
				c-0.3,0.2-0.6,0.5-0.9,0.7c-3,2.2-6,4.5-9,7c-0.3,0.3-0.7,0.6-1,0.8c-9.8,8-19.5,17.1-29.3,27.8c-10.4,11.4-15,18-19,23.7
				c-0.8,1.1-1.6,2.2-2.4,3.3l0,0c-3.5,4.7-7.4,9.2-15.1,16c-1.4,1.2-2.9,2.5-4.4,3.7c-0.3,0.3-0.7,0.5-1,0.8
				c-7.7,6.3-16.2,12.4-25.3,18c-0.3,0.2-0.6,0.4-0.9,0.5c-4.4,2.7-9,5.3-13.6,7.8c-0.3,0.2-0.6,0.3-0.9,0.5
				c-4.6,2.4-9.2,4.7-14,6.8h0c-0.3,0.2-0.7,0.3-1.1,0.5c-2.4,1-4.7,2.1-7.1,3c-0.4,0.2-0.8,0.3-1.2,0.5c-7.2,2.9-14.5,5.4-21.9,7.5
				c-1,0.3-2.1,0.6-3.1,0.8c-31.8,8.5-63.9,8.7-89.2-5.3h0c-0.4-0.2-0.9-0.5-1.3-0.7h0c-0.1-0.1-0.3-0.2-0.4-0.2
				c-2.8-1.6-5.3-3.3-7.6-5.1c-0.4-0.3-0.8-0.7-1.2-1c-17.3-14.3-19.7-32.7-31.7-57.8c-0.2-0.5-0.4-0.9-0.7-1.4
				c-5.6-11.5-13.3-24.4-25.4-38.9c-0.3-0.3-0.6-0.7-0.9-1c-1.8-2.2-3.8-4.4-5.8-6.6c-5.9-6.5-11.8-12.2-17.5-17.1
				c-0.5-0.4-1-0.9-1.5-1.3c-7.2-6.1-14.1-11.1-20.6-15.4c-0.4-0.3-0.8-0.5-1.2-0.8c-22.9-15.1-39.4-21.6-40.8-39.1
				c-0.7-9,2.6-17.6,8.4-25.8c0.2-0.4,0.5-0.7,0.8-1.1c2.8-3.8,6.2-7.6,10-11.2c0.2-0.2,0.5-0.5,0.8-0.7c4.2-4,8.9-7.9,13.8-11.5
				c0.3-0.2,0.6-0.4,0.8-0.6c7.8-5.8,16.2-11.2,24.1-16c0.3-0.2,0.6-0.4,0.9-0.5c5.5-3.3,10.8-6.4,15.6-9.1c2.6-1.5,5.2-3,7.7-4.3
				c0.3-0.2,0.6-0.3,0.9-0.5c7.6-4.1,14.7-7.5,21.5-10.4c0.4-0.2,0.7-0.3,1.1-0.5c11-4.7,21.3-8.1,31.9-10.9c0.3-0.1,0.7-0.2,1-0.3
				c10.2-2.7,20.7-4.9,32.3-7.4c0.3-0.1,0.7-0.1,1-0.2c9.8-2,20.4-4.3,32.5-7c0.4-0.1,0.7-0.2,1.1-0.2c4.3-1,8.8-2.1,13.4-3.2
				c0.3-0.1,0.7-0.2,1-0.2c7.9-2,16.4-4.2,25.5-6.8c0.4-0.1,0.7-0.2,1.1-0.3v0c7-2,14.3-4.1,22.1-6.5c0.4-0.1,0.7-0.2,1.1-0.3
				c6.6-2,13.5-4.2,20.7-6.6h0c0.3-0.1,0.7-0.2,1-0.3c4.8-1.6,9.6-3.2,14.4-4.7c0.3-0.1,0.7-0.2,1-0.3c9.6-3.1,19.2-6.1,28.8-9.1
				c0.4-0.1,0.7-0.2,1.1-0.3h0c5.5-1.7,11-3.5,16.6-5.2c0.3-0.1,0.7-0.2,1-0.3c5.2-1.7,10.5-3.3,15.7-5c0.4-0.1,0.7-0.2,1.1-0.4
				c6.3-2,12.6-4.1,18.9-6.1c0.3-0.1,0.7-0.2,1-0.3c6-2,12-4,17.9-6c0.4-0.1,0.7-0.2,1.1-0.4c1.6-0.5,3.2-1.1,4.8-1.6
				c5.4-1.9,10.7-3.7,15.8-5.5c0.3-0.1,0.7-0.2,1-0.3h0c6.4-2.1,12.7-4.1,19.1-5.9c0.3-0.1,0.7-0.2,1-0.3c7.7-2,15.6-3.7,24-4.9
				c0.5-0.1,1.1-0.2,1.7-0.2c5.3-0.7,10.9-1.2,16.8-1.5c2-0.1,4.1-0.2,6.1-0.2h0c0.6,0,1.2,0,1.9,0c8.1-0.1,15.8,0.3,23,1.1
				c0.7,0.1,1.4,0.1,2.1,0.2c26.8,3,45.6,10.4,51.1,12.4c1.2,0.5,2.4,0.9,3.7,1.4h0c0.7,0.3,1.5,0.6,2.2,0.9h0c4.9,2,10,4.3,15.2,7
				c0.5,0.3,1.1,0.5,1.6,0.8h0c9.8,5,19.8,11,28.8,17.8c0.4,0.3,0.9,0.7,1.3,1c3.5,2.7,6.9,5.5,10,8.5h0c0.4,0.4,0.8,0.8,1.2,1.2
				l0,0c4.7,4.5,8.8,9.3,12.1,14.2c0,0,0,0,0,0c0.6,0.9,1.2,1.9,1.7,2.8c0,0,0,0,0,0C1019.4,449.9,1021.8,457.5,1021.6,465.2z"/>
			<linearGradient id="SVGID_11_" gradientUnits="userSpaceOnUse" x1="509.4864" y1="497.6449" x2="1021.759" y2="497.6449">
				<stop  offset="0" style="stop-color:#FC860A"/>
				<stop  offset="1" style="stop-color:#F2BE54"/>
			</linearGradient>
			<path class="st33" d="M1021.7,465.2c-0.4,16.8-13.1,30.3-51,57.1c-76.7,54.2-128.1,72.2-173.2,99.6
				C714.7,578.2,570,501.8,509.5,468.4c32-7.4,70-12.9,139.7-36c34.5-11.4,69.3-21.8,103.8-33.2c0.7-0.2,1.4-0.5,2.1-0.7
				c6.2-2.1,12.4-4.2,18.6-6.3c2.2-0.8,4.4-1.5,6.5-2.3c0.5-0.2,0.9-0.3,1.4-0.5c0.2-0.1,0.4-0.1,0.6-0.2
				c22.8-7.9,43.4-14.4,70.9-15.7c44.2-2.1,76.6,10.7,84.2,13.5C970.3,399.6,1022.7,430.3,1021.7,465.2z"/>
			<path class="st18" d="M588.5,490c0,0-1.9,22,24.9,11.5c26.8-10.5,90.6-26.8,90.4-34.5s0,0,0,0L588.5,490L588.5,490z"/>
			<path class="st18" d="M919.4,494.3l-383.2,100c0,0,3.5,2.4,9.4,6.4c0,0,0,0,0,0c-3.7,2-33.8,18.4-30.9,27.9
				c1.8,5.8,15.9,9.4,26.7,5.8c4.5-1.5,7.4-3.9,8.8-5.1c1-0.9,11.8-10.2,10.3-18.7c33.3,21.6,90.5,56.9,104.3,53
				c6-1.7,31.7-17.9,64.7-39.6l32.9,22.9c0,0,0,16.4,4.1,25.2c10.2-8.1,20.6-15.2,31.3-21.7L751.8,609
				C825.8,559.5,919.4,494.3,919.4,494.3z"/>
		</g>
		<g id="piano">
			<path class="st34" d="M816.8,411.8c-0.2,11.4-17.5,26.7-40.1,35.5c-8.9,3.5-14.1,8.2-15.4,14c-2,9.1,6.4,18,6.4,18.1l-1.4,1.4
				c-0.4-0.4-9.2-9.8-6.9-19.9c1.4-6.5,7-11.6,16.6-15.4c21.5-8.4,38.6-23.2,38.8-33.7c0.1-3.8-2.2-6.8-6.7-8.8
				c-9.5-4.2-15.6,1.1-22.1,6.6c-5.9,5.1-12,10.3-20.8,7.8c-9.8-2.7-12.8-11.3-12.4-17.8c0-0.1,0-0.3,0-0.5
				c0.7-8,5.8-14.1,12.5-15.1c10-1.4,14.7,2.5,16.6,5.1c-0.7,0.2-1.3,0.5-2,0.7c-1.8-2.2-5.9-5.1-14.3-3.9
				c-6.4,0.9-9.9,6.8-10.7,12.4c-0.1,0.4-0.1,0.9-0.1,1.3c-0.4,6,2.3,13.3,10.9,15.8c7.7,2.2,13.2-2.5,18.9-7.5
				c6.7-5.7,13.5-11.6,24.2-6.9C815.6,404.1,816.9,408.6,816.8,411.8z"/>
			<path class="st35" d="M919.8,477.8v16c0,0.2-0.1,0.4-0.4,0.6l-1.1,0.7l-250,157.6c-3,1.9-8.3,2-11.7,0.4l-120.4-58.6
				c-1.1-0.5-1.6-1.3-1.5-2v-15.7c0-0.4,0.1-0.7,0.3-1.1c0.4-0.6,1.1-1.2,2.3-1.7l268.2-118.5c1.2-0.6,4.1-0.6,6.3-0.2L916.3,476
				C918.4,476.4,919.8,477.1,919.8,477.8z"/>
			<path class="st14" d="M882.1,490.7c-23.8,15.5-48.1,30.9-72.8,46.4c-10.9,6.8-21.8,13.6-32.7,20.3c-34,21-67.6,41.2-100.9,60.8
				c-0.3,0.2-0.6,0.4-0.9,0.5c-1.2,0.7-2.6,0.8-3.9,0.2c-0.7-0.3-1.4-0.6-2.1-0.9c-17.1-7.7-34.3-15.4-51.4-23
				c-3.3-1.5-3.4-6.2-0.2-7.8c3.4-1.8,6.9-3.5,10.3-5.3c2.6-1.3,5.2-2.7,7.8-4c1.8-0.9,3.6-1.9,5.4-2.8h0c2.6-1.3,5.1-2.6,7.7-3.9
				c5.8-3,11.5-5.9,17.3-8.8c2.4-1.2,4.8-2.4,7.1-3.6c2.2-1.1,4.4-2.3,6.6-3.4c2.4-1.2,4.8-2.4,7.1-3.7h0c1.8-0.9,3.5-1.8,5.3-2.7
				c2.4-1.2,4.8-2.4,7.1-3.6c4.3-2.2,8.7-4.4,13-6.6c2.2-1.1,4.4-2.2,6.6-3.3h0c1.8-0.9,3.6-1.8,5.4-2.8c2.2-1.1,4.4-2.2,6.6-3.3
				c4.1-2.1,8.2-4.2,12.3-6.3c2-1,3.9-2,5.9-3c0.2-0.1,0.5-0.2,0.7-0.4c2-1,4.1-2.1,6.1-3.1c2.2-1.1,4.4-2.2,6.6-3.3h0
				c1.6-0.8,3.2-1.7,4.9-2.5c2.2-1.1,4.4-2.2,6.6-3.3h0c2.9-1.4,5.7-2.9,8.6-4.3h0c0.8-0.4,1.7-0.8,2.5-1.2c1.1-0.6,2.2-1.1,3.3-1.7
				c1.8-0.9,3.6-1.8,5.4-2.7c1.9-1,3.8-1.9,5.8-2.9c2.4-1.2,4.7-2.4,7.1-3.6c2-1,4-2,6-3h0c2-1,3.9-2,5.9-3c2-1,4-2,6-3
				c1.5-0.7,2.9-1.5,4.4-2.2c2-1,4-2,6-3c2-1,4-2,5.9-3c0.9-0.5,2-0.6,2.9-0.3c7.9,2,15.7,3.9,23.6,5.9c4.5,1.1,9.1,2.3,13.6,3.4
				c1.9,0.5,3,2,3.2,3.6C884.2,488,883.6,489.7,882.1,490.7z"/>
			<g>
				<path d="M675.9,582c-2.5,1.4-5,2.9-7.5,4.3c-9.2-3.7-18.4-7.5-27.7-11.2c2.6-1.3,5.1-2.6,7.7-3.9L675.9,582z"/>
				<path d="M744.4,544.9c-2.2,1.2-4.4,2.4-6.7,3.6c-8.6-3.2-17.1-6.5-25.7-9.7c2.2-1.1,4.4-2.2,6.6-3.3h0L744.4,544.9z"/>
				<path d="M755.3,538.4l-6.7,3.6c-8.2-3.1-16.4-6.2-24.6-9.3c2.2-1.1,4.4-2.2,6.6-3.3L755.3,538.4z"/>
				<path d="M812.9,508c-1.9,1-3.9,2.1-5.8,3.1c-8.2-2.6-16.5-5.3-24.7-8c1.9-1,3.8-1.9,5.8-2.9L812.9,508z"/>
				<path d="M823.6,502.3c-1.9,1-3.9,2-5.8,3.1c-8.1-2.6-16.2-5.2-24.3-7.8c1.9-1,3.8-1.9,5.8-2.9L823.6,502.3z"/>
				<path d="M699.1,567.9c-2.4,1.3-4.8,2.6-7.2,3.9c-8.7-3.2-17.4-6.3-26.1-9.4c2.4-1.2,4.8-2.4,7.1-3.6L699.1,567.9z"/>
				<path d="M712.4,560.7c-2.4,1.3-4.8,2.6-7.2,3.9c-8.6-3.1-17.1-6.2-25.7-9.3c2.4-1.2,4.8-2.4,7.1-3.7h0L712.4,560.7z"/>
				<path d="M724.5,554.3c-2.4,1.3-4.8,2.6-7.2,3.9c-8.5-3.1-16.9-6.1-25.4-9.2c2.4-1.2,4.8-2.4,7.1-3.6L724.5,554.3z"/>
				<path d="M773.1,528c-2.2,1.2-4.4,2.4-6.6,3.6c-7.8-2.9-15.7-5.7-23.5-8.5c2-1,3.9-2,5.9-3c0.2-0.1,0.5-0.2,0.7-0.4L773.1,528z"
					/>
				<path d="M785.3,521.4c-2.2,1.2-4.4,2.4-6.6,3.6c-7.7-2.8-15.3-5.6-23-8.4c2.2-1.1,4.4-2.2,6.6-3.3h0L785.3,521.4z"/>
				<path d="M796.4,515.5c-2.2,1.2-4.4,2.4-6.6,3.6c-7.5-2.7-15.1-5.5-22.6-8.2c2.2-1.1,4.4-2.2,6.6-3.3h0L796.4,515.5z"/>
				<path d="M837.1,494.8c-2,1-4,2.1-6,3.2c-8.3-2.3-16.5-4.6-24.8-6.9c2-1,4-2,6-3h0L837.1,494.8z"/>
				<path d="M848.7,488.7c-2,1.1-4,2.1-6,3.2c-8.1-2.3-16.2-4.5-24.4-6.8c2-1,4-2,6-3L848.7,488.7z"/>
				<path d="M858.7,483.4c-2,1.1-4,2.1-6.1,3.2c-8-2.2-16-4.4-24-6.7c2-1,4-2,6-3L858.7,483.4z"/>
				<path d="M664.9,589.2c-2.6,1.4-5.1,2.9-7.7,4.3c-9.9-3.9-19.8-7.8-29.7-11.7c2.6-1.3,5.2-2.7,7.8-4L664.9,589.2z"/>
			</g>
			<path class="st27" d="M591.7,593.7c-0.3,0.3-0.4,0.4-0.4,0.4L548,574c0,0,15.9-8.4,32-14.6c13.7-5.4,27.5-9.2,31.7-5.2
				C620.2,562.4,595.2,589.9,591.7,593.7z"/>
			<path class="st27" d="M835.8,465c-2.8,1.4-13.4,6.6-23.8,10.1c-8.4,2.8-16.8,4.4-21.1,1.8c-0.6-0.4-1.9-1.2-2.3-2.6
				c-1.4-5.6,13.7-13.6,18-15.8c0.1,0,0.2,0,0.3,0.1C816.6,460.7,826.2,462.9,835.8,465z"/>
			<g>
				<path class="st3" d="M740.9,509c-5.5,2.7-11,5.4-16.4,8.1c-1.5,0.7-3,1.4-4.4,2.2c-0.6,0.3-1.3,0.6-1.9,0.9
					c-2.3,1.1-4.5,2.2-6.8,3.3c-1,0.5-2.1,1-3.1,1.5l-16.2-7.5c5.7-2.5,11.3-5.1,17-7.6c2.3-1,4.6-2,6.8-3.1c0.7-0.3,1.3-0.6,2-0.9
					h0c1.5-0.7,3-1.3,4.5-2c1.8-0.8,3.5-1.6,5.3-2.4C732.1,504,736.5,506.5,740.9,509z"/>
				<linearGradient id="SVGID_12_" gradientUnits="userSpaceOnUse" x1="714.5445" y1="502.9586" x2="718.5214" y2="524.1167">
					<stop  offset="0.2656" style="stop-color:#D3E0DF"/>
					<stop  offset="0.3738" style="stop-color:#D6E1DF"/>
					<stop  offset="0.7159" style="stop-color:#F1F0E2"/>
				</linearGradient>
				<path class="st36" d="M708.3,526c-0.1,0-0.3,0-0.4-0.1l-16.2-7.5c-0.4-0.2-0.6-0.5-0.6-1c0-0.4,0.2-0.8,0.6-0.9l4.3-1.9
					c4.2-1.9,8.5-3.8,12.7-5.7c2.2-1,4.3-1.9,6.5-2.9l0.3-0.1c0.7-0.3,1.3-0.6,2-0.9c0,0,0,0,0.1,0l1.1-0.5c1.1-0.5,2.2-1,3.3-1.5
					l5.3-2.4c0.3-0.1,0.6-0.1,0.9,0l13.3,7.4c0.3,0.2,0.5,0.5,0.5,0.9c0,0.4-0.2,0.7-0.6,0.9c-2.8,1.4-5.6,2.7-8.4,4.1l-12.5,6.1
					c-0.6,0.3-1.3,0.6-1.9,0.9l-9.9,4.8C708.6,526,708.4,526,708.3,526z M694.6,517.5l13.7,6.3l9.4-4.6c0.6-0.3,1.3-0.6,1.9-0.9
					l12.5-6.1c2.2-1.1,4.4-2.1,6.6-3.2l-11.1-6.2l-4.8,2.2c-1.1,0.5-2.2,1-3.3,1.5l-1.1,0.5c0,0-0.1,0-0.1,0
					c-0.6,0.3-1.3,0.6-1.9,0.8l-0.3,0.2c-2.2,1-4.3,1.9-6.5,2.9c-4.2,1.9-8.5,3.8-12.7,5.7L694.6,517.5z"/>
			</g>
			<linearGradient id="SVGID_13_" gradientUnits="userSpaceOnUse" x1="712.6758" y1="510.0009" x2="714.929" y2="521.9883">
				<stop  offset="0.2656" style="stop-color:#D3E0DF"/>
				<stop  offset="0.3738" style="stop-color:#D6E1DF"/>
				<stop  offset="0.7159" style="stop-color:#F1F0E2"/>
			</linearGradient>
			<path class="st37" d="M718.1,519c-1,0.5-2,1-3,1.6c-1.2,0.6-2.4,1.2-3.5,1.7c-0.8-3.8-1.7-7.5-2.5-11.3c1.2-0.5,2.4-1.1,3.5-1.6
				c1.1-0.5,2.2-1,3.2-1.5C716.6,511.6,717.4,515.3,718.1,519z"/>
			<linearGradient id="SVGID_14_" gradientUnits="userSpaceOnUse" x1="717.85" y1="511.5768" x2="724.5224" y2="511.5768">
				<stop  offset="0" style="stop-color:#D3E0DF"/>
				<stop  offset="0.5467" style="stop-color:#F1F0E2"/>
			</linearGradient>
			<path class="st38" d="M724.5,515.9c-0.7,0.3-1.3,0.6-2,1c-0.8,0.4-1.7,0.8-2.5,1.2l-2.2-11.1c0.8-0.4,1.6-0.7,2.5-1.1
				c0.7-0.3,1.3-0.6,2-0.9C723,508.7,723.8,512.3,724.5,515.9z"/>
			<g id="buttons">
				
					<ellipse transform="matrix(0.9986 -5.302526e-02 5.302526e-02 0.9986 -27.8523 34.7655)" class="st15" cx="641.3" cy="542.3" rx="3.9" ry="2.1"/>
				
					<ellipse transform="matrix(0.9986 -5.302526e-02 5.302526e-02 0.9986 -27.5858 35.215)" class="st15" cx="649.9" cy="537.5" rx="3.9" ry="2.1"/>
				
					<ellipse transform="matrix(0.9986 -5.302526e-02 5.302526e-02 0.9986 -28.0926 35.1955)" class="st15" cx="649.2" cy="547" rx="3.9" ry="2.1"/>
				
					<ellipse transform="matrix(0.9986 -5.302526e-02 5.302526e-02 0.9986 -27.8262 35.645)" class="st15" cx="657.8" cy="542.2" rx="3.9" ry="2.1"/>
			</g>
			<linearGradient id="SVGID_15_" gradientUnits="userSpaceOnUse" x1="626.0684" y1="520.8323" x2="781.0645" y2="520.8323">
				<stop  offset="4.184100e-03" style="stop-color:#BDD3DE"/>
				<stop  offset="1" style="stop-color:#FFFFFF"/>
			</linearGradient>
			<path class="st39" d="M626.1,542.3l27.4,16.7c42.5-21.5,85.1-43.1,127.6-64.6c-8.3-3.9-16.7-7.7-25-11.6
				C712.7,502.6,669.4,522.4,626.1,542.3z"/>
			<path class="st40" d="M591.7,593.7L580,559.4c13.7-5.4,27.5-9.2,31.7-5.2C620.2,562.4,595.2,589.9,591.7,593.7z"/>
			<path class="st40" d="M835.8,465c-2.8,1.4-13.4,6.6-23.8,10.1l-5.1-16.5C816.6,460.7,826.2,462.9,835.8,465z"/>
			<path class="st40" d="M919.8,485.4v7.8c-0.5,0.6-1,1.2-1.5,1.8l-250,157.6c-3,1.9-8.3,2-11.7,0.4l-120.4-58.6
				c-1.1-0.5-1.6-1.3-1.5-2v-15.7c0-0.4,0.1-0.7,0.3-1.1c35.5,21.6,113.7,67.5,132.4,63.2C688.3,633.9,869.1,518,919.8,485.4z"/>
			<path class="st41" d="M882.1,490.7c-23.8,15.5-48.1,30.9-72.8,46.4c-10.9,6.8-21.8,13.6-32.7,20.3l8.2-55.6
				c1.1-0.6,2.2-1.1,3.3-1.7c1.8-0.9,3.6-1.8,5.4-2.7c1.9-1,3.8-1.9,5.8-2.9c2.4-1.2,4.7-2.4,7.1-3.6c2-1,4-2,6-3h0c2-1,3.9-2,5.9-3
				c2-1,4-2,6-3c1.5-0.7,2.9-1.5,4.4-2.2c2-1,4-2,6-3c2-1,4-2,5.9-3c0.9-0.5,2-0.6,2.9-0.3c7.9,2,15.7,3.9,23.6,5.9
				c4.5,1.1,9.1,2.3,13.6,3.4C884.4,483.8,885.2,488.7,882.1,490.7z"/>
			<path class="st41" d="M882.1,490.7c-23.8,15.5-48.1,30.9-72.8,46.4c-10.9,6.8-21.8,13.6-32.7,20.3c-34,21-67.6,41.2-100.9,60.8
				c-0.3,0.2-0.6,0.4-0.9,0.5c-1.2,0.7-2.6,0.8-3.9,0.2c-0.7-0.3-1.4-0.6-2.1-0.9L884,486.5C884.2,488,883.6,489.7,882.1,490.7z"/>
		</g>
		<g id="man_up">
			<g id="head_general">
				<path id="head" class="st26" d="M968.4,400.1c-0.1,6-1.1,11.4-2.6,16.4c-0.5,1.4-1.9,5.9-5.1,11.5c-2.5,4.4-5.4,8.3-8.4,11.8
					c-11.3,13.1-24.3,19.8-24.3,19.8c-1.6,0.8-3.1,1.6-4.5,2.3c-9.1,4.6-14.9,6.9-21.1,4.9c-4.7-1.5-8-5.1-10.7-10.4
					c-0.3-0.6-0.6-1.3-0.9-2c-0.6-1.4-1.2-2.9-1.8-4.5c-0.1-0.4-0.3-0.8-0.4-1.2c-2.2-6.7-4-15-6.1-24.4
					c-5.3-24.2-9.2-41.9-0.5-57.2c3.8-6.7,12.2-16.8,21.7-22c1.3-0.7,2.4-1.2,3.1-1.6c5.5-2.6,12.4-6,20.7-5.2
					C952,340.7,968.9,373.5,968.4,400.1z"/>
				<path id="nose_1_" class="st26" d="M879.8,412.5c-1.2,3-2.7,7.2-4,12.4c-2.7,10.6-1.5,12.4-1,13c2.9,3.4,10.2,1.3,11.3,0.9
					C884.1,430,881.9,421.3,879.8,412.5z"/>
				<path d="M892.6,449.7c-0.3,0-0.6-0.3-0.6-0.6c0-0.3,0.3-0.6,0.6-0.6c1.1,0,4.7-0.2,7.4-3.3c3.5-3.9,2.3-9,2.2-9.2
					c-0.1-0.3,0.1-0.7,0.5-0.8c0.3-0.1,0.7,0.1,0.8,0.5c0.2,0.6,1.4,6.1-2.5,10.4C897.9,449.4,893.8,449.7,892.6,449.7L892.6,449.7z
					"/>
				
					<ellipse id="eye_1_" transform="matrix(0.9659 -0.2588 0.2588 0.9659 -75.266 243.9013)" cx="888.7" cy="407.8" rx="3.1" ry="3"/>
				
					<rect id="brow_1_" x="876.1" y="392.3" transform="matrix(0.9979 6.452232e-02 -6.452232e-02 0.9979 27.2544 -56.2835)" width="17.8" height="3.1"/>
				<polygon id="neck" class="st26" points="973.1,468.8 955.3,475 928.2,484.4 926.1,463.6 925.3,455.6 922.6,428.1 962.8,405.9 
					968.6,441.5 				"/>
				<path id="hair" d="M868.2,333.5c-7,5.2-4,29.3,9.9,42.8c14.5,13.9,27,7.3,39.2,21.3c12.9,14.9,4.3,30.4,17,38.9
					c9.5,6.4,25.3,4.8,32.9-3.4c2.7-3,5.2-7.9,4.7-26.1c-0.3-13-1.4-42.1-21.1-68.6c-2.4-3.3-15.7-21.2-23.3-18.4
					c-1.5,0.5-3.3,2.1-3.7,4c-0.8,4.7,8,9.5,7.3,10.6c-0.2,0.3-1.3,0.6-5.7-1.4c-11.9-5.5-13.8-12-21.3-13.2c-3.6-0.6-9,0-10.6,2.9
					c-3,5.7,10.5,16.4,8.5,19.2C899.3,345.7,876.3,327.4,868.2,333.5z"/>
				<g id="ear">
					<path class="st26" d="M937.7,407.8c0,6.9-5.6,12.6-12.6,12.6c-6.6,0-12-5-12.5-11.5c0-0.4-0.1-0.7-0.1-1.1
						c0-6.9,5.6-12.6,12.6-12.6c2.7,0,5.1,0.8,7.2,2.2C935.6,399.7,937.7,403.5,937.7,407.8z"/>
					<linearGradient id="SVGID_16_" gradientUnits="userSpaceOnUse" x1="912.5942" y1="402.0716" x2="932.3215" y2="402.0716">
						<stop  offset="0" style="stop-color:#FFFFFF;stop-opacity:0.1"/>
						<stop  offset="0.8362" style="stop-color:#F07125"/>
					</linearGradient>
					<path class="st42" d="M932.3,397.5c-5.7,3.2-15.9,9-19.7,11.4c0-0.4-0.1-0.7-0.1-1.1c0-6.9,5.6-12.6,12.6-12.6
						C927.8,395.2,930.3,396.1,932.3,397.5z"/>
				</g>
				<path class="st23" d="M973.1,468.8l-17.8,6.2l-29.2-11.4l-7.8-3c2.4-1.8,4.7-3.5,7-5c21.1-14,36.2-14.8,43.3-14.1L973.1,468.8z"
					/>
			</g>
			<g id="hands">
				<path class="st26" d="M876.9,499.4l-11.6-17.4c-1.9-2.1-3.8-4.7-5.3-8c-0.4-0.9-0.7-1.6-0.9-2.3c-0.8-2.1-0.9-3.3-2.3-5
					c-1.8-2.3-3.9-3.2-8.1-5.1c-1.5-0.6-5.1-2.1-9.6-2.2c-0.8,0-2.9,0-3.3,0.9c-0.3,0.7,0.6,1.6,0.9,1.9c3.8,4.2,12.6,2.2,16,6.9
					c0.1,0.2,0.2,0.3,0.3,0.5c0,0,0.1,0.1,0.1,0.1c0.2,0.3,0.3,0.7,0.4,1.1c-1.1-1.5-1.5-1.8-1.5-1.8s-7.9-6.2-20.7-3.7
					c-0.9,0.2-3.2,0.6-3.4,1.7c-0.1,0.8,1,1.6,1.4,1.9c0.2,0.1,0.4,0.3,0.6,0.4c-1,0.2-1.9,0.4-3,0.8c-0.9,0.3-3.1,0.9-3.2,2
					c0,0.8,1.2,1.5,1.6,1.8c1,0.6,2.1,0.9,3.2,1c-0.5,0.1-1.1,0.3-1.6,0.4c-0.9,0.3-3.1,0.9-3.2,2c0,0.8,1.2,1.5,1.6,1.8
					c5.5,3.2,14.2-1.9,19.3,1.9c1,0.7,1.2,1.3,2.4,3.2c1.5,2.4,3.7,5.4,6.7,8.8c-7.9,0.2-12.7-2-15.6-4.2c-3-2.2-6-5.7-7.8-4.8
					c-1.1,0.5-1.2,2.2-1.3,2.6v0.1c-0.1,1.2,0.2,3.3,3.2,6.2c5.6,5.2,20.3,12.7,30,17.3c5.2,2.5,9,4.2,9,4.2l9.1-10.3L876.9,499.4z"
					/>
				<path class="st16" d="M876.9,499.4l-14.8,11c-9.7-4.6-24.4-12-30-17.3c-3.1-2.9-3.3-5-3.2-6.2v-0.1c5.2,4.4,20.5,16.6,26.5,13.3
					c5.1-2.8,8.5-12.6,10-18.2L876.9,499.4z"/>
				<path class="st26" d="M736.2,566.8c-0.1-0.1-0.1-0.3-0.2-0.4c-0.1-0.2-0.2-0.4-0.3-0.6c-0.1-0.1-0.1-0.3-0.2-0.4
					c-0.1-0.1-0.1-0.3-0.2-0.4c-0.3-0.5-0.5-1-0.7-1.4c-1.7-3.4-3.4-6.6-4.9-9.2c-0.3-0.6-0.6-1.1-0.9-1.6
					c-6.7-11.1-22.9-16.5-23.6-13c-0.6,3.5,7.6,7.7,7.6,7.7v0c-0.5-0.2-1-0.4-1.4-0.6c-1.2-0.5-2.3-1-3.4-1.4c0,0,0,0,0,0
					c-4.1-1.6-7.7-2.7-10.7-3.6c-3.3-0.9-14.1-3.8-16.2-0.6c0,0-0.1,0.1-0.1,0.2c-0.3,0.4-0.8,1.5-0.4,2.3c-2,0.1-4.5,0.5-5.9,2.3
					c-0.6,0.8-1.3,2.2-0.8,3.1c0.8,1.4,4,1.1,5.2,1c7.7-0.7,16.6,2.6,24.6,6.1c-3.7-1.3-8-2.4-12.6-2.8c-5.1-0.5-13.7-0.4-14.7,2.6
					c-0.3,0.9,0.2,2,0.7,2.6c1.7,2,5.1,1.2,8.6,0.9c7.5-0.5,16.2,1.5,21.4,6.4c1.2,1.1,2,2.3,2.5,3c-5.6-3.6-10.6-4.9-13.8-5.4
					c-2.8-0.5-11.5-1.9-13.6,1.8c-0.4,0.6-0.6,1.6-0.4,2.4c0,0.2,0.1,0.5,0.3,0.7c1.5,2.3,7.1-0.4,12.7,0c6.5,0.5,9.6,5,17.7,12.2
					c0.5,0.4,1,0.9,1.5,1.3c1.9,1.7,4.2,3.5,6.7,5.5c2.6,2,5.5,4,8.7,6.2l12.6-15.1C740,574.7,738.1,570.7,736.2,566.8z"/>
				<path class="st23" d="M729.6,554.3c-2.5-2.6-6.1-4.9-10.9-5.4c-2.9-0.3-5.3-1.1-7.4-2.1c0.5,0.2,0.9,0.4,1.4,0.6v0
					c0,0-8.2-4.2-7.6-7.7c0.6-3.5,16.9,2,23.6,13C729,553.2,729.3,553.8,729.6,554.3z"/>
				<path class="st43" d="M859.1,471.8c-2.6,0.2-5.7-0.8-5.7-0.8c0-0.4-0.2-0.8-0.4-1.1c0,0,0-0.1-0.1-0.1c-0.1-0.2-0.2-0.3-0.3-0.5
					c-3.4-4.6-12.1-2.7-16-6.9c-0.3-0.3-1.1-1.2-0.9-1.9c0.4-0.9,2.5-0.9,3.3-0.9c4.5,0.1,8.2,1.5,9.6,2.2c4.2,1.9,6.4,2.8,8.1,5.1
					C858.2,468.6,858.4,469.8,859.1,471.8z"/>
				<linearGradient id="SVGID_17_" gradientUnits="userSpaceOnUse" x1="680.7474" y1="542.5057" x2="707.7886" y2="542.5057">
					<stop  offset="0" style="stop-color:#FFFFFF;stop-opacity:0.5"/>
					<stop  offset="0.8362" style="stop-color:#F07125"/>
				</linearGradient>
				<path class="st44" d="M707.8,545.3c-0.7-0.1-20.1-3.1-27-4c0-0.1,0.1-0.1,0.1-0.2c2.1-3.2,13-0.3,16.2,0.6
					C700.1,542.6,703.7,543.7,707.8,545.3z"/>
				<path class="st23" d="M741.6,578.2l-12.6,15.1c-2.7-2.1-5.6-4.2-8.7-6.2c-2.6-2-4.8-3.8-6.7-5.5c-0.5-0.5-1.1-0.9-1.5-1.3
					c-8.1-7.2-11.2-11.7-17.7-12.2c-5.6-0.4-11.1,2.3-12.7,0c-0.1-0.2-0.2-0.4-0.3-0.7c5.4-1.8,12.4-3,19-0.2
					c6.9,2.9,8.5,8.1,14,9.1c4.1,0.7,10.5-1,20.1-12.9c0.2,0.5,0.5,0.9,0.7,1.4c0.1,0.1,0.1,0.3,0.2,0.4c0,0.1,0.1,0.3,0.2,0.4
					c0.1,0.2,0.2,0.4,0.3,0.6c0.1,0.1,0.1,0.3,0.2,0.4C737.2,569,738.8,572.2,741.6,578.2z"/>
			</g>
			<g id="body">
				<path class="st45" d="M1064.9,595.7c-8.4,9.4-22.6,10.3-32.8,10.3c-29.2-0.1-58.8-17.4-58.8-17.4c4.4-47.1,8.8-94.2,13.1-141.4
					c2.8,0.1,6.9,0.6,11.6,2.2c1.7,0.6,6.2,2.4,12.1,7.1c0.7,0.6,7.7,6.2,12.9,13.7C1035.7,488.7,1090,567.4,1064.9,595.7z"/>
				<path class="st46" d="M1051.4,741.9l-27.3-10.6l-13.6-5.3l-82.6-32.1l-4.8-1.9c-4.9-10.6-9.8-22.1-14.5-34.4
					c-2.4-6.2-4.7-12.7-6.9-19.3c-4.1-12.3-7.6-24.2-10.5-35.4c-7.5,10.3-19.1,24.9-35.6,40.2c-16.6,15.6-25,23.4-35,25.1
					c-23,3.9-44.5-16.8-69.9-41.3c-16.7-16.1-28.4-31.2-35.7-41.3c1.8-1.6,3.6-3.2,5.3-4.8c3.2-2.9,6.3-5.7,9.5-8.6
					c2.2-2,4.4-4,6.6-5.9c5.9,3.4,73.1,49.8,73.8,49.9c0.7,0.1,1.3,0,1.9-0.2c6.8-2.3,12.1-22.6,21.4-48.4
					c10.8-29.9,27.2-67,58.1-91.6c0,0,7.8-6.2,21.3-12.9c3.5-1.7,7.3-3.5,11.5-5.2c13.1-5.3,29.6-10.1,48.3-11.4
					c3.9-0.3,7.3-0.1,10.2,0.2c4.1,0.5,7.3,1.4,9.6,2.3c4.2,1.6,7.9,3.7,11,6.1c5.1,3.9,8.9,8.5,11.8,12.3
					c19.3,25.5,29.5,57.2,34.8,74.3c0.4,1.3,0.8,2.4,1.1,3.5c3.5,16,7.2,31.9,10.8,47.7C1070.6,650.3,1062.2,702.6,1051.4,741.9z"/>
				<circle class="st47" cx="936.2" cy="464.3" r="3.5"/>
				<circle class="st47" cx="969.4" cy="460.9" r="3.5"/>
				<path class="st47" d="M993.2,454.1c-1.9,0.4-3.7-0.8-4.1-2.6c-0.3-1.2,0.2-2.5,1-3.3h0c0.9,0.3,1.8,0.6,2.6,0.9
					c1.1,0.4,2.2,0.9,3.2,1.3C996.1,452.1,994.9,453.7,993.2,454.1z"/>
				<circle class="st47" cx="930.8" cy="494.9" r="3.5"/>
				<circle class="st47" cx="957.6" cy="484.5" r="3.5"/>
				<circle class="st47" cx="948.9" cy="513.6" r="3.5"/>
				<circle class="st47" cx="974.4" cy="497.3" r="3.5"/>
				<circle class="st47" cx="994.1" cy="477.6" r="3.5"/>
				<circle class="st47" cx="1002.3" cy="504.9" r="3.5"/>
				<path class="st47" d="M1024.8,481.3c-0.3,0.2-0.8,0.4-1.2,0.5c-1.9,0.4-3.7-0.8-4.1-2.6c-0.3-1.5,0.4-3,1.6-3.7
					C1022.4,477.4,1023.6,479.3,1024.8,481.3z"/>
				<circle class="st47" cx="955.9" cy="540.8" r="3.5"/>
				<circle class="st47" cx="931.5" cy="546.2" r="3.5"/>
				<circle class="st47" cx="978.8" cy="534.5" r="3.5"/>
				<circle class="st47" cx="1028.4" cy="513.6" r="3.5"/>
				<path class="st47" d="M1032.9,496.4c-1.1-0.3-2-1.2-2.3-2.4c-0.2-0.7-0.2-1.4,0.1-2.1C1031.5,493.4,1032.2,494.9,1032.9,496.4z"
					/>
				<circle class="st47" cx="948.9" cy="564.9" r="3.5"/>
				<circle class="st47" cx="999.6" cy="551.7" r="3.5"/>
				<circle class="st47" cx="1022.7" cy="541.5" r="3.5"/>
				<circle class="st47" cx="973.6" cy="569.8" r="3.5"/>
				<circle class="st47" cx="998.8" cy="580" r="3.5"/>
				<circle class="st47" cx="1037.4" cy="554.4" r="3.5"/>
				<circle class="st47" cx="953.8" cy="601.1" r="3.5"/>
				<circle class="st47" cx="1027.7" cy="578.1" r="3.5"/>
				<circle class="st47" cx="977.9" cy="605.1" r="3.5"/>
				<circle class="st47" cx="1020.8" cy="601.7" r="3.5"/>
				<circle class="st47" cx="1053.1" cy="569.2" r="3.5"/>
				<circle class="st47" cx="986.2" cy="631.7" r="3.5"/>
				<circle class="st47" cx="961.8" cy="637" r="3.5"/>
				<circle class="st47" cx="1009" cy="625.3" r="3.5"/>
				<circle class="st47" cx="998.8" cy="525.4" r="3.5"/>
				<circle class="st47" cx="1058.6" cy="604.4" r="3.5"/>
				<circle class="st47" cx="1002.3" cy="650.6" r="3.5"/>
				<circle class="st47" cx="1035.5" cy="632.4" r="3.5"/>
				<circle class="st47" cx="1012.5" cy="685.8" r="3.5"/>
				<circle class="st47" cx="1049.6" cy="642.5" r="3.5"/>
				<path class="st47" d="M1065.6,642.4c0,1.9,0,3.7-0.1,5.5c-0.6-0.4-1-1.1-1.2-1.8C1063.9,644.7,1064.5,643.3,1065.6,642.4z"/>
				<circle class="st47" cx="987.1" cy="668.9" r="3.5"/>
				<circle class="st47" cx="1024.9" cy="660" r="3.5"/>
				<circle class="st47" cx="1058" cy="668.9" r="3.5"/>
				<circle class="st47" cx="1000.3" cy="705.7" r="3.5"/>
				<circle class="st47" cx="1035.8" cy="692.5" r="3.5"/>
				<circle class="st47" cx="1016.4" cy="722.5" r="3.5"/>
				<circle class="st47" cx="1039.2" cy="716.1" r="3.5"/>
				<circle class="st47" cx="921.5" cy="645.2" r="3.5"/>
				<circle class="st47" cx="930.8" cy="668.9" r="3.5"/>
				<path class="st47" d="M927.1,693.6l-4.1-1.6c-0.4-0.8-0.7-1.6-1.1-2.4c0.3-0.2,0.7-0.4,1.1-0.5c1.9-0.4,3.7,0.8,4.1,2.6
					C927.4,692.4,927.3,693,927.1,693.6z"/>
				<circle class="st47" cx="946.9" cy="682.3" r="3.5"/>
				<circle class="st47" cx="956.2" cy="660.1" r="3.5"/>
				<circle class="st47" cx="1049.5" cy="737.1" r="3.5"/>
				<circle class="st47" cx="975.3" cy="698.7" r="3.5"/>
				<circle class="st47" cx="873.8" cy="557" r="3.5"/>
				<circle class="st47" cx="842" cy="586.9" r="3.5"/>
				<circle class="st47" cx="863.4" cy="576.5" r="3.5"/>
				<circle class="st47" cx="911.6" cy="559.7" r="3.5"/>
				<circle class="st47" cx="828" cy="606.4" r="3.5"/>
				<circle class="st47" cx="878.8" cy="593.4" r="3.5"/>
				<circle class="st47" cx="901.9" cy="583.4" r="3.5"/>
				<circle class="st47" cx="867.4" cy="615.1" r="3.5"/>
				<circle class="st47" cx="918" cy="596.9" r="3.5"/>
				<path class="st47" d="M863.4,635.5c-1.5,1.5-3.1,3.1-4.7,4.6c-0.8-0.4-1.5-1.2-1.8-2.1c-0.5-1.8,0.6-3.8,2.4-4.3
					C861,633.2,862.7,634,863.4,635.5z"/>
				<circle class="st47" cx="910.3" cy="621.1" r="3.5"/>
				<circle class="st47" cx="932.8" cy="609.7" r="3.5"/>
				<path class="st47" d="M957.1,448.5c-0.4,1.1-1.3,1.9-2.5,2.2c-1.2,0.3-2.5-0.2-3.3-1C953.2,449.2,955.1,448.8,957.1,448.5z"/>
				<path class="st47" d="M891.4,478.3c-0.8,0.2-1.6,0.1-2.3-0.2c0.8-0.7,1.7-1.4,2.6-2.1c0,0,0.8-0.6,2.2-1.6
					C894.2,476.1,893.1,477.8,891.4,478.3z"/>
				<circle class="st47" cx="878.7" cy="494.9" r="3.5"/>
				<circle class="st47" cx="894.8" cy="508.3" r="3.5"/>
				<circle class="st47" cx="909.5" cy="481.1" r="3.5"/>
				<circle class="st47" cx="859.9" cy="542.1" r="3.5"/>
				<circle class="st47" cx="882.3" cy="526" r="3.5"/>
				<circle class="st47" cx="909.5" cy="521.2" r="3.5"/>
				<path class="st47" d="M741,617.1c-1.2-1.3-2.4-2.5-3.5-3.8c1.6,0,3.1,1.1,3.4,2.7C741.1,616.4,741.1,616.8,741,617.1z"/>
				<path class="st47" d="M789.1,601.9c-0.4,0.4-1,0.8-1.6,0.9c-1.9,0.4-3.7-0.8-4.1-2.6c-0.2-0.7-0.1-1.4,0.2-2.1
					C785.4,599.4,787.3,600.7,789.1,601.9z"/>
				<circle class="st47" cx="779" cy="623.7" r="3.5"/>
				<circle class="st47" cx="804.4" cy="627.1" r="3.5"/>
				<path class="st47" d="M772,646.8c-1.5-1.3-3-2.7-4.5-4c0.1,0,0.3-0.1,0.4-0.1c1.9-0.4,3.7,0.8,4.1,2.7
					C772.2,645.8,772.1,646.3,772,646.8z"/>
				<circle class="st47" cx="807.9" cy="649.4" r="3.5"/>
				<circle class="st47" cx="822.6" cy="662.3" r="3.5"/>
				<circle class="st47" cx="728.7" cy="596.8" r="3.5"/>
				<circle class="st47" cx="751.6" cy="590.5" r="3.5"/>
				<path class="st4" d="M1065.6,642.4c0,1.9,0,3.7-0.1,5.5c-0.7,33.1-6.1,63.2-12.7,88.4c-0.3,1-0.5,2-0.8,3
					c-0.2,0.8-0.4,1.7-0.7,2.5l-124.2-48.3l-4.1-1.6c-0.4-0.8-0.7-1.6-1.1-2.4c-7.1-15.4-14-32.5-20.3-51.3
					c-4.1-12.3-7.6-24.1-10.5-35.4c-6.2,8.6-15.4,20.1-27.7,32.6c-1.5,1.5-3.1,3.1-4.7,4.6c-1,1-2.1,2-3.2,3
					c-16.6,15.6-25,23.3-35,25.1c-16.3,2.8-31.8-6.8-48.6-21.4c-1.5-1.3-3-2.7-4.5-4c-5.4-4.9-11-10.3-16.8-15.9
					c-3.4-3.3-6.7-6.6-9.7-9.8c-1.2-1.3-2.4-2.5-3.5-3.8c-9.9-10.8-17.3-20.5-22.5-27.7c7.1-6.4,14.2-12.9,21.4-19.3
					c3.4,2,27.4,18.3,47.1,31.8c1.9,1.3,3.8,2.6,5.6,3.8c11.8,8,20.9,14.2,21.1,14.3c16,2.6,21.3-89.7,78.9-138
					c0.8-0.7,1.7-1.4,2.6-2.1c0,0,0.8-0.6,2.2-1.6c6.6-4.7,27.7-18.4,57.4-24.8c1.9-0.4,3.8-0.8,5.8-1.1h0c5-0.9,10.3-1.6,15.8-1.9
					c3.9-0.3,7.3-0.1,10.2,0.2c2.8,0.3,5.1,0.9,7.1,1.4h0c0.9,0.3,1.8,0.6,2.6,0.9c1.1,0.4,2.2,0.9,3.2,1.3
					c9.3,4.4,15.3,11.5,19.6,17c2,2.6,3.9,5.3,5.7,8c1.3,1.9,2.5,3.9,3.7,5.8c2.1,3.5,4.1,7.1,5.9,10.6c0.8,1.5,1.5,3,2.2,4.4
					c9.5,19.5,15.1,38.3,18.4,48.8c5,16.2,8.6,32.1,10.8,47.7C1064.7,609.9,1065.7,626.5,1065.6,642.4z"/>
				<path class="st48" d="M1062.2,592.9c-3.5,17.4-27.2,78.2-51.8,133.1c-23.7,52.9-48.2,100.2-56.5,97.7
					c-6.4-1.9-8.7-11.3-11.4-24.2c-8.9-42.4-13-78.5-14.7-105.7c-1.9-30.5-0.9-49.9-0.7-54.8c2.7-46.5,7.7-63.9,21-77.5
					c9.6-9.8,20.4-14.3,29.3-17.9c31.1-12.7,53.1-5.1,56.3-13.5c3.7-9.6-25.2-20.2-32.3-44.5c-2.9-10-1.6-20.4,2.2-30.5
					c5.1,3.9,8.9,8.5,11.8,12.3c19.3,25.5,29.5,57.2,34.8,74.3c0.4,1.3,0.8,2.4,1.1,3.5C1054.9,561.2,1058.5,577.1,1062.2,592.9z"/>
				<path class="st49" d="M908.6,657.6c-2.4-6.2-4.7-12.7-6.9-19.3c-4.1-12.3-7.6-24.2-10.5-35.4c-7.5,10.3-19.1,24.9-35.6,40.2
					c-16.6,15.6-25,23.4-35,25.1c-23,3.9-44.5-16.8-69.9-41.3c-16.7-16.1-28.4-31.2-35.7-41.3c1.8-1.6,3.6-3.2,5.3-4.8
					c16.1,18.9,77.3,93.3,98.2,73.3c23.8-22.8,78.7-104.8,92.1-97.7C921.1,561.9,912.9,627.8,908.6,657.6z"/>
				<linearGradient id="SVGID_18_" gradientUnits="userSpaceOnUse" x1="833.5757" y1="515.3759" x2="912.9994" y2="515.3759">
					<stop  offset="0.2271" style="stop-color:#153E5C"/>
					<stop  offset="0.4085" style="stop-color:#1C4461"/>
					<stop  offset="1" style="stop-color:#BDD3DE"/>
				</linearGradient>
				<path class="st50" d="M913,463.1l-79.4,104.5c10.8-29.9,27.2-67,58.1-91.6C891.7,476,899.5,469.8,913,463.1z"/>
				<linearGradient id="SVGID_19_" gradientUnits="userSpaceOnUse" x1="729.8782" y1="592.7921" x2="812.178" y2="592.7921">
					<stop  offset="0.2271" style="stop-color:#153E5C"/>
					<stop  offset="0.4085" style="stop-color:#1C4461"/>
					<stop  offset="1" style="stop-color:#BDD3DE"/>
				</linearGradient>
				<path class="st51" d="M812.2,616c-9.2,15.6-64.7-29-82.3-43.8c2.2-2,4.4-4,6.6-5.9c5.9,3.4,73.1,49.8,73.8,49.9
					C810.9,616.3,811.5,616.2,812.2,616z"/>
				<path class="st45" d="M855.5,519.2c-1.9-1.6-3.9-3.2-5.8-4.8l20-25.4c2.8-0.1,5.6-0.3,8.4-0.4c-3.9,4.3-8.1,9.3-12.2,15
					C861.9,509,858.4,514.3,855.5,519.2z"/>
			</g>
		</g>
		<g id="chair_up">
			<path class="st15" d="M1080,627.4c-1.6,70.6-30.4,170.9-34.9,186.1c-4.7,2-10,4-15.8,5.9c-5.9,1.9-12.3,3.7-19.3,5.3
				c-2.3,0.5-4.6,1-7,1.4c-9.6,1.8-18.6,2.7-26.7,3c-5,0.2-9.6,0.3-13.9,0.1c0,0-0.1,0-0.1,0c-2.6-0.1-5.1-0.2-7.4-0.3
				c-0.3-1.8-0.7-3.6-1-5.4c-2.5-13.7-4.6-26.9-6.6-39.7c0-0.1,0-0.2,0-0.3c-2.6-17.3-4.8-33.6-6.6-49c0-0.1,0-0.2,0-0.3
				c-2.1-18.3-3.8-35.3-5-50.8c0-0.2,0-0.4,0-0.6c-0.1-1.6-0.2-3.2-0.4-4.7c-0.1-1.8-0.3-3.6-0.4-5.5c-0.1-1.5-0.2-2.9-0.3-4.3
				c-0.1-1.7-0.2-3.4-0.3-5.1c-3-46.4-1.6-66.3,11.6-84.9c5.3-7.4,12-14,19.7-19.5c0,0,0.1-0.1,0.1-0.1c0,0,0.1-0.1,0.2-0.1
				c0,0,0.1,0,0.1,0c17.5-12.5,39.7-19.7,59.5-18.7c10.2,0.5,19.8,3.2,27.7,8.5c0.9,0.6,2.4,1.5,4.3,3
				C1068.2,560,1081.1,577.8,1080,627.4z"/>
			<path class="st16" d="M962.4,829.4C962.4,829.4,962.4,829.4,962.4,829.4L962.4,829.4c-2.7-0.1-5.1-0.2-7.5-0.3
				c-0.3-1.8-0.7-3.6-1-5.4c-2.5-13.7-4.6-26.9-6.6-39.7c0-0.1,0-0.2,0-0.3c-2.6-18.9-4.8-35.4-6.6-49c0-0.1,0-0.2,0-0.3
				c-0.7-5.8-2.9-24.8-5-50.8c0-0.2,0-0.4,0-0.6c-0.1-1.5-0.2-3.1-0.4-4.7c-0.1-1.8-0.3-3.6-0.4-5.5c-0.1-1.4-0.2-2.9-0.3-4.3
				c-0.1-1.7-0.2-3.4-0.3-5.1c-3-46.4-1.6-66.3,11.6-84.9c5.3-7.4,12-14,19.7-19.5C961.7,562,926.8,596.7,962.4,829.4z"/>
			<linearGradient id="SVGID_20_" gradientUnits="userSpaceOnUse" x1="976.2932" y1="684.6157" x2="1080.074" y2="684.6157">
				<stop  offset="0.2271" style="stop-color:#153E5C"/>
				<stop  offset="0.4085" style="stop-color:#1C4461"/>
				<stop  offset="1" style="stop-color:#BDD3DE"/>
			</linearGradient>
			<path class="st52" d="M1080,627.4c-1.6,70.6-30.4,170.9-34.9,186.1c-5.2,1.8-10.5,3.8-15.8,5.9c-5.9,1.9-12.3,3.7-19.3,5.3
				c-2.3,0.5-4.6,1-7,1.4c-9.6,1.8-18.6,2.7-26.7,3c17.8-36.9,36.6-87.1,46.2-148.4c8.7-55.9,7.1-104.4,3-140.9
				c10.2,0.5,19.8,3.2,27.7,8.5c0.9,0.6,2.4,1.5,4.3,3C1068.2,560,1081.1,577.8,1080,627.4z"/>
		</g>
		<g id="tablet">
			<path class="st53" d="M697.6,469.2l-4.5,1.3l-24.3,7l-24.3,7l-9.4,2.7L597.9,498c-0.6,0.2-1.1,0.2-1.7,0.3l0.6,0.6l0,0l-0.2-0.1
				l-2.1-0.7c-0.3-0.1-0.6-0.2-0.9-0.3l0,0c-2.1-0.8-3.8-2.7-4.3-5.1l-18.5-77.2c-1-4.1,1.5-8,5.4-8.7l11.3-2.1l11.6-2.1l10.1-1.9
				l9.1-1.7l7.4-1.4l2.7-0.5l49.8-9.2c0.9-0.2,1.8-0.1,2.6,0.2v0l2.5,0.8l0.4,0.1c0,0,0,0,0.1,0l-0.8,0.3c1.1,1,2,2.4,2.3,3.9
				l16.3,67.8C702.4,464.7,700.6,468.3,697.6,469.2z"/>
			<linearGradient id="SVGID_21_" gradientUnits="userSpaceOnUse" x1="582.6938" y1="454.9254" x2="696.0984" y2="427.6896">
				<stop  offset="0" style="stop-color:#271C41"/>
				<stop  offset="1" style="stop-color:#19233D"/>
			</linearGradient>
			<path class="st54" d="M700.4,470.1l-6.1,1.8l-6.6,1.9l-1.9,0.6l-5.7,1.7l-6.4,1.9l-3.6,1l-22.8,6.6l-7.2,2.1l-2,0.6l-0.2,0.1
				l-10.5,3l-9.6,2.7l-17.1,5c-1.3,0.4-2.7,0.3-3.9-0.1c-0.1,0-0.1,0-0.2-0.1c-2.2-0.8-4-2.7-4.6-5.2l-18.5-77.2
				c-1-4.1,1.5-8,5.4-8.7l11.3-2.1l9.9-1.8l11.9-2.2l9.1-1.7l5.7-1l4.5-0.8l49.8-9.2c0.8-0.1,1.5-0.1,2.3,0.1h0l0.4,0.1
				c0,0,0,0,0.1,0c2,0.8,3.8,2.7,4.4,5.2l16.3,67.8C705.2,465.6,703.4,469.2,700.4,470.1z"/>
			<polygon class="st3" points="699,463.2 673,470.7 663.4,473.4 654.8,475.9 654.2,476.1 634.1,481.8 613.1,487.8 600.8,491.4 
				598.6,482.4 598.2,480.5 595.3,468.7 594.9,466.7 592.2,455.7 591.8,453.8 589,442.2 588.5,440.2 585.7,428.4 585.2,426.5 
				582.3,414.4 593.9,412.2 615.6,408.1 622.6,406.7 624.6,406.3 634.7,404.4 682.6,395.2 684.6,403.5 685.1,405.4 687.5,415.4 
				687.9,417.3 690.4,427.4 690.8,429.3 693.3,439.7 693.8,441.7 696.2,451.6 696.6,453.6 			"/>
			
				<linearGradient id="SVGID_22_" gradientUnits="userSpaceOnUse" x1="552.2704" y1="519.6697" x2="654.3174" y2="519.6697" gradientTransform="matrix(0.9724 -0.2335 0.2335 0.9724 -66.8188 76.4895)">
				<stop  offset="0" style="stop-color:#D3E0DF"/>
				<stop  offset="0.5467" style="stop-color:#F1F0E2"/>
			</linearGradient>
			<polygon class="st55" points="682.6,395.1 699,463.2 673,470.6 663.4,473.4 654.8,475.8 634.1,481.7 600.8,491.3 582.3,414.4 
				593.9,412.1 615.6,408 622.6,406.6 624.6,406.2 634.7,404.3 			"/>
			<polygon class="st56" points="684.6,403.5 585.2,426.5 585.7,428.4 685.1,405.4 			"/>
			<polygon class="st56" points="687.9,417.3 589,442.2 588.5,440.2 687.5,415.4 			"/>
			<polygon class="st56" points="693.8,441.7 595.3,468.7 594.9,466.7 693.3,439.7 			"/>
			<polygon class="st56" points="696.2,451.6 598.2,480.5 598.6,482.4 696.6,453.6 			"/>
			<polygon class="st56" points="690.8,429.3 592.2,455.7 591.8,453.8 690.4,427.4 			"/>
			
				<ellipse transform="matrix(0.9766 -0.2152 0.2152 0.9766 -75.9885 139.4081)" class="st56" cx="602.2" cy="418.7" rx="7.2" ry="4"/>
			<path class="st56" d="M607.2,463.9c-0.5,0-0.9-0.3-1-0.8L595,419.6c-0.1-0.6,0.2-1.1,0.7-1.3c0.6-0.1,1.1,0.2,1.3,0.7l11.2,43.5
				c0.1,0.6-0.2,1.1-0.7,1.3C607.4,463.9,607.3,463.9,607.2,463.9z"/>
			<path class="st56" d="M664.9,422c-3.2,0-5.8-1.3-6.3-3.5c-0.2-1,0-2,0.6-2.9c1.1-1.8,3.5-3.2,6.3-3.9c4.5-1,8.6,0.4,9.2,3.1l0,0
				c0.2,1,0,2-0.6,2.9c-1.1,1.8-3.5,3.2-6.3,3.9C666.8,421.9,665.8,422,664.9,422z M668.5,413.5c-0.8,0-1.6,0.1-2.5,0.3
				c-2.2,0.5-4.2,1.7-5,2.9c-0.3,0.5-0.4,0.9-0.3,1.3c0.3,1.4,3.2,2.4,6.7,1.6c2.3-0.5,4.2-1.7,5-2.9c0.3-0.5,0.4-0.9,0.3-1.3l0,0
				C672.4,414.3,670.8,413.5,668.5,413.5z"/>
			<path class="st56" d="M670.4,462.1c-0.5,0-0.9-0.3-1-0.8l-11.2-43.5c-0.1-0.6,0.2-1.1,0.7-1.3c0.6-0.1,1.1,0.2,1.3,0.7l11.2,43.5
				c0.1,0.6-0.2,1.1-0.7,1.3C670.5,462.1,670.5,462.1,670.4,462.1z"/>
			
				<ellipse transform="matrix(0.9817 -0.1902 0.1902 0.9817 -70.142 128.5975)" class="st56" cx="634.7" cy="429.6" rx="7.2" ry="4"/>
			<path class="st56" d="M638.9,474.9c-0.5,0-0.9-0.3-1-0.8l-10.8-43.6c-0.1-0.6,0.2-1.1,0.8-1.3c0.6-0.1,1.1,0.2,1.3,0.8l10.8,43.6
				c0.1,0.6-0.2,1.1-0.8,1.3C639.1,474.9,639,474.9,638.9,474.9z"/>
			<polygon class="st57" points="694.3,471.9 687.7,473.8 685.8,474.3 680.1,476 673.6,477.8 670,478.9 668.7,477.5 600,403.7 
				598.9,402.5 609,400.6 618.1,398.9 625.5,397.6 626.6,398.8 693,470.5 			"/>
			<path class="st35" d="M688.8,477.5c-0.2,0.3-0.5,0.4-0.8,0.4l-13.7,0.1h-0.1c-0.2,0-0.4,0-0.5-0.1l0.4-0.1l6.1-1.7l6.5,0
				c-0.2-0.6-0.5-1.1-0.8-1.6c-4.6-9.1-13.3-15-22-14.9c-2.7,0-5.4,0.7-7.9,1.8c-3.2,1.4-6.1,3.6-8.7,6.5
				c-4.7,5.4-7.2,12.4-7.2,19.7c0,1.2,0.1,2.4,0.2,3.6c0,0.3,0,0.5-0.2,0.7c-0.2,0.2-0.4,0.3-0.7,0.4l-21.5,1.7l9.6-2.7l10.8-0.9
				c-0.1-0.7-0.1-1.5-0.1-2.2c-0.2-8,2.6-15.7,7.7-21.6c2.5-2.9,5.4-5.1,8.6-6.7c3-1.5,6.2-2.3,9.4-2.4c9.6-0.2,19,6.4,23.9,16.3
				c0.5,0.9,0.9,1.8,1.2,2.8C689.1,476.9,689,477.2,688.8,477.5z"/>
			<path class="st58" d="M688.8,477.5c-0.2,0.3-0.5,0.4-0.8,0.4l-13.7,0.1l-0.3-0.3l6.1-1.7l6.5,0c-0.2-0.6-0.5-1.1-0.8-1.6
				c-4.6-9.1-13.3-15-22-14.9c-2.7,0-5.4,0.7-7.9,1.8l-1.6-1.4c3-1.5,6.2-2.3,9.4-2.4c9.6-0.2,19,6.4,23.9,16.3
				c0.5,0.9,0.9,1.8,1.2,2.8C689.1,476.9,689,477.2,688.8,477.5z"/>
		</g>
		<g id="coffee">
			<path class="st59" d="M548.4,559.2c0,0.1-0.1,2.3-0.2,2.4c-0.1,1.3-0.2,2.6-0.3,3.9c0,0.5-0.1,1.1-0.1,1.6l0,0.4
				c-1.4,20.2-2.7,40.3-4,60.5c-2.2,1.2-6.4,3.2-12.1,3.7c-0.8,0.1-1.5,0.1-2.4,0.1c-5.3,0.1-9.5-1.1-12.4-2.2
				c-0.9-0.4-1.7-0.7-2.3-1c-2.9-20.7-5.9-41.3-8.9-62c-0.2-1.1-0.3-2.2-0.5-3.4c0-0.1-0.3-2.3-0.3-2.4c0.4-0.3,0.8-0.6,1.3-0.9
				c2-1.3,5.1-3.2,9.2-4.6c3-1,6.4-1.8,10.3-2C537.2,552.8,545.5,557.4,548.4,559.2z"/>
			<path class="st18" d="M548.5,567.3c0,0-0.2,0-0.7,0.1c-4.8,0.9-34.2,6.2-36.5,2c-1.8-3.4-4.6-4.3-5.1-9.4c2-1.3,5.1-3.2,9.2-4.6
				c11,3.9,28.8,10.4,32.4,11.7C548.3,567.2,548.5,567.3,548.5,567.3z"/>
			<path class="st60" d="M548,565.5c0,0.5-0.1,1.1-0.1,1.6l0,0.4c-1.4,20.2-2.7,40.3-4,60.5c-2.2,1.2-6.4,3.2-12.1,3.7v-60.5
				L548,565.5z"/>
			<path class="st61" d="M549.2,559c-1.6-2.3-3.8-3.5-5.8-4.5c-2.1-0.9-4.2-1.6-6.4-2c-4.3-0.9-8.6-1.1-12.9-1
				c-4.3,0.2-8.7,0.9-12.9,2.6c-0.9,0.4-1.7,0.8-2.6,1.3c-0.2,0.1-0.3,0.2-0.5,0.3c-0.5,0.3-1,0.7-1.5,1c-0.5,0.4-1,0.8-1.4,1.3
				c-0.9,0.9-1.7,2.3-1.8,3.9c-0.2,1.6,0.3,3.2,1.1,4.4c0.8,1.2,1.7,2.1,2.7,2.8l0.7,0.5l0.8,0.5l0.8,0.4l0.8,0.4
				c2.1,1,4.2,1.7,6.4,2.2c4.3,1,8.7,1.4,13.1,1.1c4.4-0.2,8.7-1.1,12.9-2.8c2.1-0.9,4.2-2,6-4.1c0.5-0.5,0.8-1.1,1.2-1.8
				c0,0,0-0.1,0.1-0.2c0.3-0.7,0.5-1.3,0.6-2.1C550.5,561.7,549.9,560.1,549.2,559z M545.1,564.4c-1,1.1-2.6,2-4.4,2.7
				c-3.5,1.4-7.5,2-11.4,2.2c-3.9,0.2-7.9,0-11.8-0.8c-1.9-0.4-3.8-1-5.5-1.7c-1.7-0.8-3.3-1.8-4-2.9c-0.4-0.6-0.5-1-0.5-1.5
				c0-0.5,0.2-1.1,0.8-1.6c0.9-1.2,2.6-2.2,4.3-2.9c0.8-0.3,1.6-0.7,2.5-0.9c2.9-0.9,6-1.3,9-1.5c4-0.2,8,0.1,11.9,0.9
				c1.9,0.5,3.8,1.1,5.5,1.9c1.7,0.8,3.2,1.9,4,3.1c0.3,0.6,0.4,1.1,0.4,1.6c0,0.2-0.1,0.5-0.2,0.7c-0.2,0.2-0.3,0.5-0.5,0.7
				L545.1,564.4z"/>
			<path class="st6" d="M539,554.6c-0.1,0-0.2,0-0.2-0.1c-0.3-0.1-0.4-0.4-0.2-0.7c4.2-8.2,5.1-14.8,2.9-19.5c-0.5-1.1-1.2-2-1.8-3
				c-1.5-2.2-3-4.4-3.3-7.9c-0.3-2.7,0.2-5.4,1.5-8.2c0.1-0.3,0.4-0.4,0.7-0.3c0.3,0.1,0.4,0.4,0.3,0.7c-1.2,2.6-1.7,5.2-1.4,7.6
				c0.3,3.2,1.8,5.3,3.2,7.4c0.7,1,1.4,2,1.9,3.2c2.4,5.1,1.5,11.9-2.9,20.4C539.4,554.5,539.2,554.6,539,554.6z"/>
			<path class="st6" d="M527.6,553.9c-0.1,0-0.2,0-0.2-0.1c-0.3-0.1-0.4-0.4-0.2-0.7c4.2-8.2,5.1-14.8,2.9-19.5
				c-0.8-1.6-1.4-2.8-2.1-4c-1.2-2.1-2.2-3.9-3.1-6.8c-2-6.4-0.7-14,4-22.7c0.1-0.3,0.5-0.3,0.7-0.2c0.3,0.1,0.3,0.5,0.2,0.7
				c-4.5,8.4-5.8,15.8-3.9,21.9c0.9,2.8,1.9,4.6,3,6.6c0.6,1.1,1.3,2.4,2.1,4c2.4,5.1,1.5,11.9-2.9,20.4
				C527.9,553.8,527.7,553.9,527.6,553.9z"/>
			<path class="st6" d="M513.4,555.4c-0.1,0-0.2,0-0.2-0.1c-0.3-0.1-0.4-0.4-0.2-0.7c4.2-8.2,5.1-14.8,2.9-19.5
				c-0.6-1.3-1.3-2.4-1.9-3.5c-1.2-2.1-2.3-4-3.3-7.3c-1.3-4.8-1.1-10,0.8-15.5c0.1-0.3,0.4-0.4,0.7-0.3c0.3,0.1,0.4,0.4,0.3,0.7
				c-1.8,5.3-2,10.3-0.8,14.9c0.9,3.2,2,5.1,3.2,7.1c0.6,1.1,1.3,2.2,1.9,3.6c2.4,5.1,1.5,11.9-2.9,20.4
				C513.7,555.3,513.5,555.4,513.4,555.4z"/>
			<path class="st18" d="M550.3,563.3c-0.1,0.8-0.3,1.4-0.6,2.1l-4.6-1.1c0.2-0.2,0.3-0.5,0.5-0.7c0.1-0.3,0.2-0.5,0.2-0.7
				c0.1-0.5,0-1-0.4-1.6c-0.8-1.2-2.3-2.3-4-3.1c-1.7-0.8-3.6-1.4-5.5-1.9c-3.8-0.9-7.9-1.2-11.9-0.9c-3.1,0.2-6.2,0.6-9,1.5
				l-6.6-1.6c0.8-0.5,1.7-0.9,2.6-1.3c4.2-1.7,8.5-2.3,12.9-2.6c4.3-0.1,8.7,0,12.9,1c2.1,0.4,4.3,1.1,6.4,2c2.1,1,4.2,2.2,5.8,4.5
				C549.9,560.1,550.5,561.7,550.3,563.3z"/>
			<linearGradient id="SVGID_23_" gradientUnits="userSpaceOnUse" x1="505.8296" y1="598.0759" x2="516.9386" y2="598.0759">
				<stop  offset="0" style="stop-color:#FFFFFF;stop-opacity:0.1"/>
				<stop  offset="0.8362" style="stop-color:#F07125"/>
			</linearGradient>
			<path class="st62" d="M516.9,629.6c-0.9-0.4-1.7-0.7-2.3-1c-2.9-20.7-5.9-41.3-8.9-62l8,5.8L516.9,629.6z"/>
		</g>
	</g>
</g>
</svg>
