<?xml version="1.0" encoding="utf-8"?>
<!-- Generator: Adobe Illustrator 22.1.0, SVG Export Plug-In . SVG Version: 6.00 Build 0)  -->
<svg version="1.1" xmlns="http://www.w3.org/2000/svg" xmlns:xlink="http://www.w3.org/1999/xlink" x="0px" y="0px"
	 viewBox="0 0 1200 1200" style="enable-background:new 0 0 1200 1200;" xml:space="preserve">
<style type="text/css">
	.st0{fill:url(#SVGID_1_);}
	.st1{fill:url(#SVGID_2_);}
	.st2{fill:url(#SVGID_3_);}
	.st3{fill:url(#SVGID_4_);}
	.st4{fill:#EEEDEE;}
	.st5{opacity:0.42;fill:#BDD3DE;}
	.st6{fill:none;}
	.st7{fill:url(#figure2_1_);}
	.st8{fill:#336859;}
	.st9{fill:#E4C9C2;}
	.st10{fill:#FFFFFF;}
	.st11{fill:#271C41;}
	.st12{opacity:0.12;fill:url(#SVGID_5_);}
	.st13{opacity:0.12;fill:url(#SVGID_6_);}
	.st14{opacity:9.000000e-02;fill:url(#SVGID_7_);}
	.st15{opacity:0.15;fill:url(#SVGID_8_);}
	.st16{fill:url(#SVGID_9_);}
	.st17{opacity:0.4;fill:#271C41;}
	.st18{fill:#BACFDA;}
	.st19{opacity:0.14;fill:#0B1D36;}
	.st20{fill:#5A142A;}
	.st21{opacity:0.31;fill:url(#SVGID_10_);}
	.st22{fill:#19233D;}
	.st23{fill:url(#SVGID_11_);}
	.st24{opacity:9.000000e-02;fill:#365588;}
	.st25{fill:#640042;}
	.st26{opacity:7.000000e-02;fill:url(#SVGID_12_);}
	.st27{opacity:0.45;fill:url(#SVGID_13_);}
	.st28{fill:#302C34;}
	.st29{opacity:0.45;fill:url(#SVGID_14_);}
	.st30{fill:url(#SVGID_15_);}
	.st31{opacity:0.67;fill:#336859;}
	.st32{opacity:0.26;fill:#E6E3F4;}
	.st33{opacity:0.12;fill:url(#SVGID_16_);}
	.st34{fill:#39215A;}
	.st35{opacity:7.000000e-02;fill:#0B1D36;}
	.st36{opacity:4.000000e-02;fill:url(#SVGID_17_);}
	.st37{fill:url(#SVGID_18_);}
	.st38{opacity:0.16;fill:#365588;}
	.st39{opacity:7.000000e-02;fill:url(#SVGID_19_);}
	.st40{opacity:4.000000e-02;fill:url(#SVGID_20_);}
	.st41{fill:url(#SVGID_21_);}
	.st42{opacity:0.22;fill:url(#SVGID_22_);}
</style>
<g id="background">
	<g id="general">
		<g id="squares">
			
				<linearGradient id="SVGID_1_" gradientUnits="userSpaceOnUse" x1="1620.3322" y1="1389.5289" x2="1679.1696" y2="1389.5289" gradientTransform="matrix(-0.9967 -8.101486e-02 8.101486e-02 -0.9967 2628.1296 2625.7383)">
				<stop  offset="0" style="stop-color:#EBDEDE"/>
				<stop  offset="1" style="stop-color:#F0E2E2"/>
			</linearGradient>
			<polygon class="st0" points="1069.4,1075.4 1128.1,1080.2 1123.3,1138.8 1064.7,1134.1 			"/>
			
				<linearGradient id="SVGID_2_" gradientUnits="userSpaceOnUse" x1="2603.0906" y1="2118.22" x2="2643.679" y2="2118.22" gradientTransform="matrix(-0.9631 -0.269 0.269 -0.9631 2363.0928 2823.9788)">
				<stop  offset="0" style="stop-color:#EBDEDE"/>
				<stop  offset="1" style="stop-color:#F0E2E2"/>
			</linearGradient>
			<polygon class="st1" points="392.2,53.1 431.3,64 420.4,103.1 381.3,92.2 			"/>
		</g>
		<g id="circles">
			
				<linearGradient id="SVGID_3_" gradientUnits="userSpaceOnUse" x1="398.2206" y1="1209.02" x2="434.8206" y2="1209.02" gradientTransform="matrix(0.9179 0.3967 -0.3967 0.9179 160.347 -407.0947)">
				<stop  offset="0" style="stop-color:#F4DBA9"/>
				<stop  offset="0.998" style="stop-color:#F0E2E2"/>
			</linearGradient>
			<circle class="st2" cx="63" cy="868" r="18.3"/>
			
				<linearGradient id="SVGID_4_" gradientUnits="userSpaceOnUse" x1="1146.9849" y1="554.4725" x2="1199.3202" y2="554.4725" gradientTransform="matrix(0.9179 0.3967 -0.3967 0.9179 160.347 -407.0947)">
				<stop  offset="0" style="stop-color:#F4DBA9"/>
				<stop  offset="0.998" style="stop-color:#F0E2E2"/>
			</linearGradient>
			<circle class="st3" cx="1017.2" cy="567.3" r="26.2"/>
		</g>
		<g id="figure3">
			<path class="st4" d="M1145.1,904.4c-90,195.5-360.5,306-503.8,230.9c-38-19.9-88.1-63.7-82.7-104.3
				c3.8-28.4,32.4-34.3,102.9-85.7c63-45.9,113.4-83.5,144.3-145.3c11-21.9,17.1-43.9,29.4-88c25.4-90.9,18.4-118.5,40.6-131
				c29.9-16.9,56.8,25.3,138.9,37.6c73.1,11,95.6-15.9,124.8,1.2C1195,652.4,1194.5,797.1,1145.1,904.4z"/>
			<path class="st5" d="M690.8,1114.8c0,13.1-3.8,25.3-10.4,35.6c-13.8-3.8-26.9-8.8-39.1-15.2c-24.2-12.7-53.3-35.1-69.9-60.2
				c12.1-16.1,31.4-26.6,53.1-26.6C661.2,1048.6,690.8,1078.2,690.8,1114.8z"/>
			<path class="st5" d="M1151.6,889.4c-2.1,5.1-4.2,10.1-6.5,15c-29.7,64.4-78.9,119.6-136.8,162c-16.6-21-26.7-48.5-26.7-78.7
				c0-66.1,48.5-119.6,108.3-119.6C1112.8,868.1,1134.1,875.9,1151.6,889.4z"/>
			<path class="st5" d="M1059.9,662.6c-2.2,80.6-69.3,144.2-149.9,142c-35-0.9-66.8-14.2-91.5-35.4c5-14.7,9.9-32.4,16.8-57.1
				c25.4-90.9,18.4-118.5,40.6-131c29.9-16.9,56.8,25.3,138.8,37.7c15.6,2.3,28.9,3,40.4,2.7
				C1058.6,634.5,1060.2,648.3,1059.9,662.6z"/>
			<path class="st6" d="M1151.6,889.4c-2.1,5.1-4.2,10.1-6.5,15c-29.7,64.4-78.9,119.6-136.8,162c-102.8,75.2-232.6,110-327.8,84.1
				c-13.8-3.8-26.9-8.8-39.1-15.2c-24.2-12.7-53.3-35.1-69.9-60.2c-9.4-14.3-14.8-29.4-12.8-44.1c3.8-28.4,32.4-34.3,102.9-85.7
				c63-45.9,113.4-83.5,144.3-145.3c4.8-9.7,8.7-19.3,12.6-30.9c5-14.7,9.9-32.4,16.8-57.1c25.4-90.9,18.4-118.5,40.6-131
				c29.9-16.9,56.8,25.3,138.8,37.7c15.6,2.3,28.9,3,40.4,2.7c42.6-1.1,61.5-15,84.4-1.5C1192.4,651,1194.4,784.1,1151.6,889.4z"/>
		</g>
		<linearGradient id="figure2_1_" gradientUnits="userSpaceOnUse" x1="69.9139" y1="831.5768" x2="808.4772" y2="831.5768">
			<stop  offset="0" style="stop-color:#EBDEDE"/>
			<stop  offset="1" style="stop-color:#F0E2E2"/>
		</linearGradient>
		<path id="figure2" class="st7" d="M730.1,772c-116.3,144.1-239.7,121.8-281.6,233.5c-21.4,57.3,6.4,80.4-21.7,117.1
			c-64.3,84.1-293.4,71.3-345.8-34.3c-26.1-52.5-1.6-114.4,25.8-183.7c37.6-95.1,93-154.8,129.7-193.6c0,0,133-140.5,320.1-200.5
			c6.8-2.2,40.1-12.7,85.5-18.3c66.4-8.3,119.2-14.9,147.4,14.4c30.7,31.9,17.1,90.6,8.2,129.4C781.8,704.3,746.9,751.2,730.1,772z"
			/>
		<g id="figure1">
			<path class="st4" d="M1155.8,225.5c0.8,4,2,10.6,3.3,19.1c5.5,35.6,17.2,189.4-41.5,245.8c-55.9,53.8-141.1-14.4-338.8-27.2
				c-76.7-5-226.7-14.7-365.6,49.6C207.2,608,159.1,804.2,91.5,782.6c-55.8-17.8-56.3-162.1-55-285.8c2-187.8,3.6-341.2,88.1-383.6
				c104.6-52.5,247.3,110.5,341.8,45.1c54-37.4,29.3-104.2,80.1-128.2c91-43.1,229.1,143.7,313.4,98.4
				c42.4-22.7,24.9-79.3,72.7-100.8c54.5-24.5,137.7,29.8,180.3,88.3C1118.9,124.2,1143.2,158.8,1155.8,225.5z"/>
			<path class="st5" d="M1163.6,301.1c-18.2,34.5-38,68.1-59.4,100.8c-20.5,31.3-41.9,62.2-65.9,91c-3.9,4.6-7.8,9.3-11.9,13.9
				c6.1,1.1,12,2,17.6,2.7c4.6-5.4,9.1-11,13.4-16.5c24.4-30.7,46.7-63.1,67.8-96.1c13.5-21.1,26.3-42.7,38.5-64.6
				C1163.9,321.5,1163.9,310.9,1163.6,301.1z M1097.8,173.9c7.9-14.3,16.3-28.4,25.3-42.1c-3.6-6.3-6.7-10.9-8.7-13.8
				c-11.6,16.9-22.1,34.6-31.9,52.6c-38.2,70.5-64.3,147.9-75.6,227.3c-4.8,33.9-9.4,69.3-6.4,103.6c5.3,1.2,10.4,2.3,15.3,3.3
				c-0.2-2.1-0.4-4.2-0.5-6.2c-2.7-37.7,2.5-77,8.8-114.1C1036.7,310.8,1061.7,239.4,1097.8,173.9z M1012.2,199
				c13.2-38.9,25.8-78.5,34.5-118.7c1.7-8,3.4-16.2,4.8-24.4c-4.6-3.2-9.2-6.3-13.9-9.2c-3.4,23.2-8.9,46.2-15.2,68.8
				c-10.3,36.8-22,73.2-35.1,109.1c-25.6,70.4-57.1,138.9-97,202.4c-4.6,7.3-9.4,14.6-14.3,21.8c-2.8-17-4.6-34.2-5.9-51.4
				c-3-38.4-2.9-77-1.3-115.5c1.6-39.3,3.9-78.7,8.2-117.8c2.6-23.1,6-46.2,10.8-68.9c-4.5,10.9-10.4,20.9-20.5,28.6
				c-3.1,19.3-5.3,38.8-7.2,58.2c-7.8,81.9-12,166-1.9,247.8c1.5,12.2,3.3,24.3,5.7,36.3c-1.4,1.9-2.7,3.8-4.1,5.7
				c1.8,0.3,3.7,0.6,5.5,0.9c3.7,0.6,7.4,1.2,11,1.8c1.6,0.3,3.2,0.6,4.9,0.8c-0.4-1.9-0.9-3.9-1.3-5.8
				c11.4-16.1,22.2-32.7,32.4-49.6C954,350.6,986.1,275.6,1012.2,199z M734,231.6c-13.6,75.8-31.2,151-54.4,224.5
				c-0.4,1.1-0.7,2.3-1.1,3.4c5.3,0,10.6,0,15.7,0c1.7-5.3,3.3-10.7,5-16c23.8-78.8,41.6-159.4,54.9-240.6
				c4.7-28.9,8.9-58,11.2-87.3c-4.7-2.4-9.4-5-14.1-7.7C748.6,149.6,741.2,191.4,734,231.6z M636.8,40.2c-4.6-2.2-9.1-4.2-13.6-6
				c-0.8,1.9-1.6,3.8-2.4,5.8c-9,21.8-15.9,44.5-21.4,67.5c-2.6-13.4-6.3-26.5-11.5-39c-6.6-16.2-16.2-31.6-29.2-42.7
				c-4.2,1-8.2,2.5-12.2,4.4c-1.4,0.7-2.7,1.3-3.9,2c22.7,14.3,33.5,42.6,39.6,67.6c4.4,18,6.7,36.4,7.7,55
				c-6.8,39.6-10.6,79.7-11.5,119.8c-0.3,15.4-0.2,30.9,0.3,46.3c-6.3,39.8-15.1,79.1-26.9,117.2c-3.6,11.6-7.5,23.2-11.9,34.6
				c5.8-1.1,11.5-2.2,17.2-3.1c5.5-15.4,10.4-31,14.7-46.5c4.1-14.8,7.7-29.8,11-44.9c0.7,6.8,1.6,13.7,2.5,20.5
				c2.9,22,6.8,43.9,12.2,65.4c5.1-0.5,10.1-1,15.1-1.5c-12.2-46.3-17.9-94.7-19.2-142.9c0.8-5.1,1.5-10.2,2.2-15.3
				c5.7-41.1,9.7-82.4,9.7-123.9c0-8.2-0.1-16.5-0.5-24.9c0.8-4.9,1.8-9.8,2.7-14.6C614.2,106.7,622.8,72.3,636.8,40.2z
				 M392.3,372.8c-3.1-38.3-3.5-76.8-1.5-115.2c1.5-28.3,4.3-56.5,9.8-84.3c-4.9-0.5-9.8-1.3-14.8-2.3c-6.4,32.7-9.2,66.1-10.5,99.3
				c-1.6,41.8-0.3,83.6,4.2,125.2c4.4,40.8,11.6,81.4,21.9,121.1c0.1,0.5,0.2,1,0.4,1.5c3.8-1.9,7.7-3.7,11.6-5.5
				c0.7-0.3,1.5-0.7,2.2-1c-1.9-7.6-3.7-15.2-5.5-22.8C401.3,450.7,395.4,411.9,392.3,372.8z M308.7,297.3
				c-12.6-58.8-28.8-117.8-51-174.1c-6.4-2.5-12.8-4.9-19.1-7.1c26.3,63.4,44.7,130.7,58.3,197.7c15.6,76.5,23.5,154.2,24.3,232.2
				c0.1,7.4,0.1,14.8,0.1,22.2c4.9-3.7,9.9-7.4,15-11c0-4.6,0-9.2-0.1-13.8C335.2,460.8,326.1,378.2,308.7,297.3z M162.9,438.5
				c-29.5-70.3-49.5-144.7-63.8-219.5c-4.7-24.8-8.7-49.8-10.9-74.9c-4.7,6.3-9,13.2-12.9,20.7c2.5,20.4,5.9,40.6,9.8,60.7
				c15.4,80.3,37.7,159.9,70.9,234.8c16.2,36.5,35.2,71.8,57.1,105.2c13.5,20.5,28.4,40.7,45.5,58.6c3.5-3.6,7-7.2,10.6-10.7
				c-21.6-22.6-39.5-48.7-55.8-75.3C194.2,506.2,177.4,472.9,162.9,438.5z M57.6,333.7c-4.8-7.5-9.9-14.7-15.2-21.8
				c-0.6,7.6-1.2,15.4-1.7,23.4c6.3,9.3,12.1,19,17.6,28.8c36,65,56.5,139.1,72.2,211.4c11.1,51.2,17.9,104.3,14.8,156.8
				c-42.7-50.5-79.3-106.3-108.9-165.6c0.1,11.3,0.3,22.6,0.6,33.6c29.7,54.6,65.4,106.2,106.4,152.8c-0.3,3-0.7,6-1.1,8.9
				c1.6-1.5,3.1-3.2,4.7-4.9c3.3-3.5,6.6-7.2,10.1-11.2c0.8-0.9,1.5-1.8,2.3-2.7c5.2-62.4-3.7-125.7-17.8-186.5
				C123.8,479.9,100.7,400.5,57.6,333.7z"/>
			<path class="st6" d="M1163.7,332.4c-1.3,57-11.4,124.6-46.1,158c-19.7,19-43,22.8-73.7,19.2c-5.6-0.6-11.5-1.6-17.6-2.7
				c-3.4-0.6-7-1.3-10.6-2c-4.9-1-10-2.1-15.3-3.3c-32.4-7.3-71.4-17.7-119.4-26.1c-1.6-0.3-3.2-0.6-4.9-0.8
				c-3.6-0.6-7.3-1.2-11-1.8c-1.8-0.3-3.6-0.6-5.5-0.9c-24.7-3.8-51.5-6.9-80.9-8.8c-22.6-1.5-51.5-3.3-84.6-3.6
				c-5.1,0-10.4,0-15.7,0c-20.7,0.2-42.9,1-65.9,3c-5,0.4-10,0.9-15.1,1.5c-13.2,1.4-26.7,3.2-40.3,5.5c-5.7,0.9-11.5,2-17.2,3.1
				c-41,7.9-83.2,20.3-124.5,39.1c-0.7,0.3-1.5,0.7-2.2,1c-3.9,1.8-7.8,3.7-11.6,5.5c-23.9,11.8-45.6,25-65.4,39
				c-5.1,3.6-10.1,7.3-15,11c-19.1,14.5-36.3,29.8-51.9,45.2c-3.6,3.6-7.2,7.1-10.6,10.7c-42.9,44.2-73.6,88.4-99.4,119.1
				c-0.8,0.9-1.5,1.8-2.3,2.7c-3.4,4-6.8,7.8-10.1,11.2c-1.6,1.7-3.2,3.3-4.7,4.9c-17.6,17.5-33.5,26.1-50.7,20.6
				C51,769.7,39.7,690.2,37,600.3c-0.3-11.1-0.5-22.3-0.6-33.6c-0.2-23.4,0-46.9,0.2-69.8c0.6-57.9,1.2-112.5,4.2-161.5
				c0.5-7.9,1-15.7,1.7-23.4c4.8-60.1,14.2-110.6,33.1-147.1c3.9-7.5,8.2-14.4,12.9-20.7c10-13.3,22-23.7,36.3-30.9
				c34.8-17.5,73.9-11.1,114,2.9c6.4,2.2,12.7,4.6,19.1,7.1c43.4,17.1,87.4,39.9,128,47.9c5,1,9.9,1.8,14.8,2.3
				c23.5,2.4,45.8-1.2,65.8-15C518.9,122,497,57.8,542.5,32.2c1.3-0.7,2.6-1.4,3.9-2c4-1.9,8-3.3,12.2-4.4c19.9-5,41.7-0.8,64.5,8.4
				c4.5,1.8,9,3.8,13.6,6C674.2,58,713.7,86.7,751.1,108c4.7,2.7,9.4,5.2,14.1,7.7c34.9,18.1,67.6,27.5,94.7,13
				c2.7-1.4,5.1-3,7.3-4.7c10.1-7.7,16-17.7,20.5-28.6c10.3-24.7,13.8-53.5,44.9-67.6c30.1-13.5,69-3,105,19
				c4.7,2.9,9.3,5.9,13.9,9.2c23.8,16.8,45.5,38.2,61.5,60.1c0.4,0.5,0.9,1.2,1.4,2c2.1,2.9,5.1,7.5,8.7,13.8
				c9.9,17.4,24.1,48,32.7,93.7c0.8,4,2,10.6,3.3,19.1c1.6,10.5,3.8,31.1,4.5,56.5C1163.9,310.9,1163.9,321.5,1163.7,332.4z"/>
		</g>
	</g>
</g>
<g id="main">
	<g id="general_1_">
		<g id="boxes">
			<g id="box2">
				<g>
					<polygon class="st8" points="680.2,649.7 680.2,677.7 674.4,677.7 674.4,842.6 571.7,842.6 571.7,677.7 565.9,677.7 
						565.9,649.7 					"/>
					<ellipse class="st9" cx="593.2" cy="705.6" rx="12" ry="12"/>
					<path class="st9" d="M654.7,649.7c0,6.6-5.3,12-12,12c-6.6,0-12-5.4-12-12H654.7z"/>
					<path class="st9" d="M674.4,708.5v18.3c-2.1,1.8-4.8,2.9-7.8,2.9c-6.6,0-12-5.4-12-12s5.4-12,12-12
						C669.6,705.6,672.3,706.7,674.4,708.5z"/>
					<path class="st9" d="M580.4,824.7c0,5.5-3.7,10.1-8.7,11.5v-23.1C576.7,814.6,580.4,819.2,580.4,824.7z"/>
					<ellipse class="st9" cx="617.9" cy="768.8" rx="12" ry="12"/>
					<path class="st9" d="M576.1,649.7c-2.1,3.4-5.9,5.6-10.1,5.6v-5.6H576.1z"/>
					<path class="st9" d="M674.4,773.8v13.9c-1.4-2-2.2-4.4-2.2-7C672.2,778.2,673,775.8,674.4,773.8z"/>
					<path class="st9" d="M653.8,836.7c0,2.1-0.6,4.2-1.6,5.9h-20.8c-1-1.7-1.6-3.8-1.6-5.9c0-6.6,5.4-12,12-12
						S653.8,830.1,653.8,836.7z"/>
					<polygon class="st6" points="680.2,649.7 680.2,677.7 674.4,677.7 674.4,842.6 571.7,842.6 571.7,677.7 565.9,677.7 
						565.9,649.7 					"/>
				</g>
				<polygon class="st10" points="656.7,734.8 629.5,773.6 623.5,769.7 589.2,747.8 616,710.7 628.2,717.9 				"/>
				<polygon class="st11" points="674.4,740.4 674.4,743.7 624.7,743.7 624.7,842.6 621.4,842.6 621.4,743.7 571.7,743.7 
					571.7,740.4 621.4,740.4 621.4,649.7 624.7,649.7 624.7,740.4 				"/>
				<linearGradient id="SVGID_5_" gradientUnits="userSpaceOnUse" x1="623.4567" y1="745.7615" x2="656.6512" y2="745.7615">
					<stop  offset="6.454763e-03" style="stop-color:#640042"/>
					<stop  offset="1" style="stop-color:#002544"/>
				</linearGradient>
				<polygon class="st12" points="656.7,734.8 629.5,773.6 623.5,769.7 628.2,717.9 				"/>
				<linearGradient id="SVGID_6_" gradientUnits="userSpaceOnUse" x1="647.3267" y1="746.1644" x2="680.2173" y2="746.1644">
					<stop  offset="6.454763e-03" style="stop-color:#640042"/>
					<stop  offset="1" style="stop-color:#002544"/>
				</linearGradient>
				<polygon class="st13" points="680.2,649.7 680.2,677.7 674.4,677.7 674.4,842.6 647.3,842.6 655.1,743.7 655.4,740.4 
					655.7,736.2 655.8,734.3 662.5,649.7 				"/>
			</g>
			<g id="box1">
				<g>
					<rect x="360.8" y="778.6" class="st11" width="211" height="64"/>
					<polygon class="st9" points="571.7,791.3 571.7,794.6 467.9,794.6 467.9,842.6 464.6,842.6 464.6,794.6 360.8,794.6 
						360.8,791.3 464.6,791.3 464.6,778.6 467.9,778.6 467.9,791.3 					"/>
				</g>
				<linearGradient id="SVGID_7_" gradientUnits="userSpaceOnUse" x1="470.0542" y1="810.6147" x2="571.7219" y2="810.6147">
					<stop  offset="6.454763e-03" style="stop-color:#640042"/>
					<stop  offset="1" style="stop-color:#002544"/>
				</linearGradient>
				<path class="st14" d="M571.7,778.6v64H470.1c4.1-15.5,8.8-32.9,12.8-48c0.3-1.1,0.6-2.2,0.9-3.3c1.2-4.5,2.3-8.8,3.4-12.7H571.7
					z"/>
			</g>
			<g id="box3">
				<rect x="386" y="842.6" class="st9" width="311.7" height="263.9"/>
				<linearGradient id="SVGID_8_" gradientUnits="userSpaceOnUse" x1="534.4567" y1="974.5741" x2="697.7047" y2="974.5741">
					<stop  offset="0" style="stop-color:#365588;stop-opacity:0.3"/>
					<stop  offset="1" style="stop-color:#E4C9C2;stop-opacity:0.7"/>
				</linearGradient>
				<polygon class="st15" points="697.7,842.6 697.7,1106.5 534.5,1106.5 577.4,1005.7 578.8,1002.6 617.2,912.4 620,905.8 
					646.9,842.6 				"/>
				<linearGradient id="SVGID_9_" gradientUnits="userSpaceOnUse" x1="386.015" y1="974.5741" x2="589.1224" y2="974.5741">
					<stop  offset="0" style="stop-color:#FC860A;stop-opacity:0.2"/>
					<stop  offset="1" style="stop-color:#E4C9C2;stop-opacity:0.2"/>
				</linearGradient>
				<polygon class="st16" points="589.1,1106.5 386,1106.5 386,842.6 534.6,842.6 558.3,957.6 559.1,961.2 565.3,991.1 566.3,996.3 
									"/>
				<polygon class="st17" points="559.1,961.2 544.4,973.5 565.3,991.1 578.8,1002.6 697.7,1103.3 697.7,1106.5 696.4,1106.5 
					577.4,1005.7 566.3,996.3 541.9,975.6 386,1106.5 386,1102.3 539.4,973.5 386,843.5 386,842.6 390,842.6 541.9,971.4 
					558.3,957.6 620,905.8 695.2,842.6 697.7,842.6 697.7,844.8 617.2,912.4 				"/>
			</g>
		</g>
		<g id="woman">
			<g id="socks">
				<g>
					<g>
						<path class="st8" d="M721.9,1094.6c-0.1,1.1-0.2,2.2-0.3,3.4v0c-1.3,14.4-2.6,28.8-3.9,43.2c-0.2,2-1.8,3.6-3.8,3.8
							c-0.4,0.1-0.7,0.1-1.1,0.2c-0.2,0-0.4,0-0.6,0.1c-0.3,0-0.6,0.1-0.9,0.1c-0.2,0-0.5,0.1-0.8,0.1c-0.4,0-0.7,0.1-1.1,0.1
							c-0.8,0.1-1.8,0.2-2.7,0.3c-0.3,0-0.7,0.1-1,0.1c-0.5,0.1-0.9,0.1-1.4,0.2c-0.3,0-0.7,0.1-1,0.1c-0.7,0.1-1.4,0.2-2,0.3
							c0,0-0.1,0-0.1,0c-0.4,0-0.7,0.1-1.1,0.1c-0.9,0.1-1.8,0.2-2.8,0.4c-0.3,0-0.7,0.1-1,0.1c-0.3,0-0.6,0.1-0.9,0.1
							c-0.6,0.1-1.2,0.1-1.8,0.2c-0.4,0-0.7,0.1-1.1,0.1h0c-1,0.1-2,0.3-3,0.4c-0.5,0.1-1.1,0.1-1.6,0.2h0c-0.5,0.1-1.1,0.1-1.7,0.2
							c-1.3,0.2-2.7,0.4-4.2,0.5h0c-1,0.1-2.1,0.3-3.1,0.4c0,0,0,0,0,0c-1,0.1-2.1,0.3-3.2,0.4c0,0,0,0,0,0
							c-0.7,0.1-1.4,0.2-2.1,0.3c-1.8,0.2-3.7,0.4-5.5,0.7c-0.7,0.1-1.5,0.2-2.2,0.2c0,0,0,0,0,0c-1.1,0.1-2.2,0.2-3.3,0.4
							c-1.5,0.2-3,0.3-4.4,0.5c-0.4,0-0.7,0.1-1.1,0.1c-0.7,0.1-1.4,0.1-2.2,0.2c-0.4,0-0.7,0.1-1.1,0.1c0,0,0,0-0.1,0
							c-15.9,1.3-29.4,1.4-30.5-2.3c-1-3.4,8.6-8.9,12-10.8c0.3-0.2,0.5-0.3,0.7-0.4c1.5-0.8,2.9-1.5,4.3-2.1
							c10-4.4,18.2-4.4,25.3-5.4c1.1-0.2,2.2-0.3,3.2-0.5c1.9-0.4,3.8-0.9,5.5-1.8c0.4-0.2,0.7-0.4,1.1-0.6c0.2-0.1,0.5-0.3,0.7-0.4
							c0.5-0.3,0.9-0.6,1.4-0.9c0.2-0.1,0.4-0.3,0.5-0.4c0.3-0.3,0.7-0.6,1-0.9c0.3-0.3,0.7-0.6,1-1v0c4.4-4.5,6.3-10.4,8.1-16.2
							c0.1-0.5,0.3-0.9,0.4-1.4c0.3-0.9,0.5-1.8,0.7-2.7c0.1-0.5,0.2-0.9,0.3-1.4c0-0.1,0.1-0.3,0.1-0.4c0-0.1,0.1-0.3,0.1-0.4
							c0.1-0.3,0.1-0.5,0.2-0.8c0.1-0.3,0.1-0.5,0.2-0.8c0.1-0.8,0.3-1.5,0.3-2.2c0.1-0.9,0.2-1.8,0.3-2.7c0.1-0.6,0.1-1.2,0.1-1.8
							c0-0.2,0-0.4,0-0.6c0-0.2,0-0.5,0-0.7c0-1.1,0.1-2.1,0.1-3.1c2,0.6,4,1.2,6.2,1.7c1.1,0.3,2.2,0.5,3.4,0.8
							c1.1,0.2,2.3,0.5,3.5,0.7c0.8,0.2,1.6,0.3,2.4,0.4c0.7,0.1,1.4,0.2,2.1,0.3c0.5,0.1,1,0.1,1.4,0.2c0.5,0.1,1.1,0.1,1.6,0.2
							c1,0.1,2.1,0.2,3.1,0.3c0.5,0.1,1,0.1,1.5,0.1c0.6,0.1,1.1,0.1,1.6,0.1c0.3,0,0.7,0,1,0.1s0.6,0,1,0.1h0.1
							C720.6,1094.6,721.3,1094.6,721.9,1094.6z"/>
						<path class="st8" d="M878.8,1089.4c-0.2,12.4-0.3,24.7-0.5,37.1c-0.1,2-1.5,3.7-3.4,4.1c-2.9,0.6-7.7,1.6-13.4,2.8
							c-7.8,1.6-21.7,4.7-35.3,7.3c-19,3.6-37.6,6-39.2,1.6c-1.3-3.5,9.2-10.6,11.6-12.2c17.9-12,31.2-5.4,41.9-17.2
							c4.6-5,6.4-10.9,7.3-13.5c0.4-1.3,0.7-2.6,1-3.9c0.5-2.1,0.7-4.2,0.8-6.1c0.3-5.4-0.4-9.9-1-12.5c3.9,0.9,8.3,1.7,13,2.2
							c6.3,0.7,12.1,0.8,17.2,0.7L878.8,1089.4z"/>
					</g>
					<path class="st6" d="M721.9,1094.6c-0.1,1.1-0.2,2.2-0.3,3.4v0c-1.3,14.4-2.6,28.8-3.9,43.2c-0.2,2-1.8,3.6-3.8,3.8
						c-0.4,0.1-0.7,0.1-1.1,0.2c-0.2,0-0.4,0-0.6,0.1c-0.3,0-0.6,0.1-0.9,0.1c-0.2,0-0.5,0.1-0.8,0.1c-0.4,0-0.7,0.1-1.1,0.1
						c-0.8,0.1-1.8,0.2-2.7,0.3c-0.3,0-0.7,0.1-1,0.1c-0.5,0.1-0.9,0.1-1.4,0.2c-0.3,0-0.7,0.1-1,0.1c-0.7,0.1-1.4,0.2-2,0.3
						c0,0-0.1,0-0.1,0c-0.4,0-0.7,0.1-1.1,0.1c-0.9,0.1-1.8,0.2-2.8,0.4c-0.3,0-0.7,0.1-1,0.1c-0.3,0-0.6,0.1-0.9,0.1
						c-0.6,0.1-1.2,0.1-1.8,0.2c-0.4,0-0.7,0.1-1.1,0.1h0c-1,0.1-2,0.3-3,0.4c-0.5,0.1-1.1,0.1-1.6,0.2h0c-0.5,0.1-1.1,0.1-1.7,0.2
						c-1.3,0.2-2.8,0.4-4.2,0.6h0c-1,0.1-2.1,0.3-3.1,0.4c0,0,0,0,0,0c-1,0.1-2.1,0.3-3.2,0.4c0,0,0,0,0,0c-0.7,0.1-1.4,0.2-2.1,0.3
						c-1.8,0.2-3.7,0.4-5.5,0.7c-0.7,0.1-1.5,0.2-2.2,0.2c0,0,0,0,0,0c-1.1,0.1-2.2,0.2-3.3,0.4c-1.5,0.2-3,0.3-4.4,0.5
						c-0.4,0-0.7,0.1-1.1,0.1c-0.7,0.1-1.4,0.1-2.2,0.2c-0.4,0-0.7,0.1-1.1,0.1h-0.1v0c-15.9,1.3-29.4,1.4-30.5-2.3
						c-1-3.4,8.6-8.9,12-10.8c0.3-0.2,0.5-0.3,0.7-0.4c1.5-0.8,2.9-1.5,4.3-2.1c10-4.4,18.2-4.4,25.3-5.4c1.1-0.2,2.2-0.3,3.2-0.5
						c1.9-0.4,3.8-0.9,5.5-1.8c0.4-0.2,0.7-0.4,1.1-0.6c0.2-0.1,0.5-0.3,0.7-0.4c0.5-0.3,0.9-0.6,1.4-0.9c0.2-0.1,0.4-0.3,0.5-0.4
						c0.3-0.3,0.7-0.6,1-0.9c0.3-0.3,0.7-0.6,1-1v0c4.4-4.5,6.3-10.4,8.1-16.2c0.1-0.5,0.3-0.9,0.4-1.4c0.3-0.9,0.5-1.8,0.7-2.7
						c0.1-0.5,0.2-0.9,0.3-1.4c0-0.1,0.1-0.3,0.1-0.4c0-0.1,0.1-0.3,0.1-0.4c0.1-0.3,0.1-0.6,0.2-0.8c0.1-0.3,0.1-0.5,0.2-0.8
						c0.1-0.8,0.3-1.5,0.3-2.2c0.1-0.9,0.2-1.8,0.3-2.7c0.1-0.6,0.1-1.2,0.1-1.8c0-0.2,0-0.4,0-0.6c0-0.2,0-0.5,0-0.7
						c0-1.1,0.1-2.1,0.1-3.1c2,0.6,4,1.2,6.2,1.7c1.1,0.3,2.2,0.5,3.4,0.8c1.1,0.2,2.3,0.5,3.5,0.7c0.8,0.2,1.6,0.3,2.4,0.4
						c0.7,0.1,1.4,0.2,2.1,0.3c0.5,0.1,1,0.2,1.4,0.2c0.5,0.1,1.1,0.1,1.6,0.2c1,0.1,2.1,0.2,3.1,0.3c0.5,0.1,1,0.1,1.5,0.1
						c0.6,0.1,1.1,0.1,1.6,0.1c0.3,0,0.7,0,1,0.1s0.6,0,1,0.1h0c0.1,0,0.1,0,0.1,0C720.6,1094.6,721.3,1094.6,721.9,1094.6z"/>
					<g>
						<path class="st18" d="M699.7,1109.6c-0.3,0.3-0.7,0.5-1.2,0.5c-0.4,0-0.8-0.2-1.1-0.5l-7.5-7.5l0,0c0.1-0.3,0.1-0.5,0.2-0.8
							c0.1-0.3,0.1-0.5,0.2-0.8c0.1-0.8,0.3-1.5,0.3-2.2l9.2,9.1C700.3,1107.9,700.3,1109,699.7,1109.6z"/>
						<path class="st18" d="M702.9,1136c-0.3,0-0.5-0.1-0.8-0.2c-0.8-0.4-1.1-1.4-0.7-2.2l7.2-13.4c0.4-0.8,1.4-1.1,2.2-0.7
							c0.8,0.4,1.1,1.4,0.7,2.2l-7.2,13.4C704,1135.7,703.4,1136,702.9,1136z"/>
						<path class="st18" d="M640.2,1136.5l-6.9,13c-0.3,0.6-0.9,0.9-1.4,0.9c-0.3,0-0.5-0.1-0.8-0.2c-0.8-0.4-1.1-1.4-0.7-2.2
							l4.8-8.9c0.3-0.2,0.5-0.3,0.7-0.4C637.4,1137.8,638.8,1137.1,640.2,1136.5z"/>
						<path class="st18" d="M669.3,1141.9c0,0.9-0.7,1.7-1.5,1.7h-0.1c-0.9,0-1.6-0.7-1.6-1.5l-0.5-11c1.1-0.2,2.2-0.3,3.2-0.5
							L669.3,1141.9z"/>
						<path class="st18" d="M689.4,1148.1L689.4,1148.1c-0.5,0.1-1.1,0.1-1.6,0.2h0c-0.5,0.1-1.1,0.1-1.7,0.2v0l-2.1-7.6
							c-0.2-0.9,0.3-1.8,1.1-2s1.8,0.3,2,1.1L689.4,1148.1z"/>
						<path class="st18" d="M656.9,1151.9L656.9,1151.9c-0.7,0.1-1.4,0.1-2.2,0.2c-0.4,0-0.7,0.1-1.1,0.1c0,0,0,0-0.1,0v0l-0.8-3
							c-0.2-0.9,0.3-1.8,1.1-2c0.9-0.2,1.8,0.3,2,1.2L656.9,1151.9z"/>
						<path class="st18" d="M721.9,1094.6c-0.1,1.1-0.2,2.2-0.3,3.4v0l-1.8,3.4c-0.3,0.6-0.9,0.9-1.4,0.9c-0.3,0-0.5-0.1-0.8-0.2
							c-0.8-0.4-1.1-1.4-0.7-2.2l2.9-5.4v0h0c0.1,0,0.1,0,0.1,0C720.6,1094.6,721.3,1094.6,721.9,1094.6z"/>
						<path class="st18" d="M864.8,1119c-0.4,0-0.8-0.2-1.1-0.5l-10.8-10.7c-0.6-0.6-0.6-1.7,0-2.3c0.6-0.6,1.7-0.6,2.3,0l10.8,10.7
							c0.6,0.6,0.6,1.7,0,2.3C865.7,1118.8,865.3,1119,864.8,1119z"/>
						<path class="st18" d="M813.7,1131.9l-6.3,11.8c-1.3,0.2-2.6,0.3-3.9,0.4c0-0.1,0.1-0.2,0.1-0.3l7.2-13.4
							c0.4-0.8,1.4-1.1,2.2-0.7C813.8,1130.2,814.1,1131.1,813.7,1131.9z"/>
						<path class="st18" d="M878.7,1096.7c0,2.4-0.1,4.7-0.1,7.1l-0.8,1.5c-0.3,0.6-0.9,0.9-1.4,0.9c-0.3,0-0.5-0.1-0.8-0.2
							c-0.8-0.4-1.1-1.4-0.7-2.2L878.7,1096.7z"/>
						<path class="st18" d="M836.2,1129.9c-0.1,0-0.3,0.1-0.4,0.1c-0.7,0-1.4-0.5-1.6-1.2l-2.7-9.8c1-0.4,2-0.9,3-1.4l2.8,10.3
							C837.6,1128.8,837.1,1129.7,836.2,1129.9z"/>
						<path class="st18" d="M858.2,1134.1c-1,0.2-2.1,0.4-3.2,0.7l-1.2-4.4c-0.2-0.9,0.3-1.8,1.2-2c0.9-0.2,1.8,0.3,2,1.1
							L858.2,1134.1z"/>
						<path class="st18" d="M867.5,1079.7l-5.6,10.5c-0.3,0.6-0.9,0.9-1.4,0.9c-0.3,0-0.5-0.1-0.8-0.2c-0.8-0.4-1.1-1.4-0.7-2.2
							l4.9-9.3C865.2,1079.5,866.4,1079.6,867.5,1079.7z"/>
					</g>
					<path class="st6" d="M878.8,1089.4c0,2.4-0.1,4.8-0.1,7.2c0,2.4-0.1,4.7-0.1,7.1c-0.1,7.6-0.2,15.2-0.3,22.8
						c-0.1,2-1.5,3.7-3.3,4.1c-2.9,0.6-7.7,1.6-13.5,2.8c-1,0.2-2.1,0.4-3.3,0.7c-1,0.2-2.1,0.4-3.2,0.7c-12.8,2.7-32.7,7.1-47.6,9
						c-1.3,0.2-2.6,0.3-3.9,0.4c-9.1,0.9-15.7,0.7-16.6-1.9c-1.3-3.6,9.2-10.6,11.6-12.2c13.3-8.9,24-7.6,33-11.1c1-0.4,2-0.9,3-1.4
						c2-1.1,4-2.6,5.9-4.7c4.6-5,6.4-10.9,7.3-13.5c1.1-3.5,1.7-6.9,1.8-10c0.3-5.4-0.4-9.9-1-12.5c3.9,0.9,8.3,1.7,13,2.2
						c0.8,0.1,1.7,0.2,2.5,0.2c1.2,0.1,2.4,0.2,3.5,0.3h0c4,0.2,7.7,0.3,11.1,0.2L878.8,1089.4z"/>
				</g>
				<path class="st19" d="M721.9,1094.6c-1.4,15.5-2.8,31-4.2,46.5c-0.2,2-1.8,3.6-3.8,3.8c-1.4,0.2-3.1,0.4-5.2,0.7
					c4.6-12.3,2.9-37.2,1.3-52.1C714.3,1094.2,718.3,1094.5,721.9,1094.6z"/>
				<path class="st19" d="M878.8,1089.4c-0.2,12.4-0.3,24.7-0.5,37.1c-0.1,2-1.5,3.7-3.4,4.1c-2.9,0.6-7.7,1.6-13.4,2.8
					c-7.8,1.6-21.7,4.7-35.3,7.3c12.5-5.9,25.1-12,30.6-15.4c12.8-7.9,14.7-13.1,13.1-22.6c-1.2-6.9-13.9-7.2-21.2-7.1
					c0.5-2.1,0.7-4.2,0.8-6.1c0.3-5.4-0.4-9.9-1-12.5c3.9,0.9,8.3,1.7,13,2.2c6.3,0.7,12.1,0.8,17.2,0.7L878.8,1089.4z"/>
			</g>
			<g id="hand_back">
				<path class="st20" d="M865.5,436.2c-7.5,19.2-15,38.4-22.5,57.6c6.7,12.4,13.4,21.7,18.3,28.1c9,11.5,14,15.4,15.9,24
					c1.4,6.8,0.1,13.2-5.7,26.7c-4.9,11.3-12.6,26.9-24.8,44.6c6.7,6.5,13.5,13.1,20.2,19.6c20.7-22.8,31.4-44.7,37-59
					c7-17.8,12.4-31.9,9.2-49c-2.9-15-10-20.2-22.9-41.3C883.1,476.1,873.8,459.1,865.5,436.2z"/>
				<linearGradient id="SVGID_10_" gradientUnits="userSpaceOnUse" x1="843.0075" y1="536.5366" x2="914" y2="536.5366">
					<stop  offset="0" style="stop-color:#002544"/>
					<stop  offset="0.9935" style="stop-color:#640042"/>
				</linearGradient>
				<path class="st21" d="M865.5,436.2c-7.5,19.2-15,38.4-22.5,57.6c6.7,12.4,13.4,21.7,18.3,28.1c9,11.5,14,15.4,15.9,24
					c1.4,6.8,0.1,13.2-5.7,26.7c-4.9,11.3-12.6,26.9-24.8,44.6c6.7,6.5,13.5,13.1,20.2,19.6c20.7-22.8,31.4-44.7,37-59
					c7-17.8,12.4-31.9,9.2-49c-2.9-15-10-20.2-22.9-41.3C883.1,476.1,873.8,459.1,865.5,436.2z"/>
			</g>
			<path id="hair_back" class="st22" d="M730.3,400.2c-1,6.4-2.9,16.3-6.9,28c-8.5,25.1-16.8,30.6-13.8,40.1
				c5.3,16.9,38.4,19.9,42.9,20.3c8.7,0.8,17.1,1.5,25.4-3.3c14.3-8.4,17-27.1,18-34.5c5.1-36.5-23-66.2-29-72.4L730.3,400.2z"/>
			<g id="neck">
				
					<linearGradient id="SVGID_11_" gradientUnits="userSpaceOnUse" x1="753.5938" y1="387.4598" x2="817.2197" y2="387.4598" gradientTransform="matrix(0.9918 0.1279 -0.1279 0.9918 52.6192 -82.2719)">
					<stop  offset="0" style="stop-color:#EFDDCB"/>
					<stop  offset="0.331" style="stop-color:#F1BDAF"/>
					<stop  offset="0.6278" style="stop-color:#F2A89C"/>
					<stop  offset="0.8209" style="stop-color:#F2A095"/>
				</linearGradient>
				<polygon class="st23" points="811.5,422.5 769.6,442.4 762.2,422 756.6,406.6 751.3,391.9 782.1,360.9 				"/>
				<path class="st24" d="M785.8,372.8c-3.6,23.3-16,40.6-23.6,49.2l-5.6-15.5L785.8,372.8z"/>
			</g>
			<g id="body">
				<path class="st25" d="M883.4,643.3c-0.6,7.9-1.6,16.5-3.4,25.4c-0.5,2.3-1,4.6-1.5,6.8c-34-1.8-68-3.5-102-5.3
					c-1.8-9.1-3.5-17.5-5.2-25.4c-1.6-7.4-3.2-14.3-4.7-20.6c-1.6-6.7-3.2-12.9-4.8-18.6c-7.7-28.2-14.5-44.8-20.2-55.1
					c-2.4-4.3-7.9-13.4-8.9-26.5c-0.9-11.9,3.1-11.9,8.3-41.9c1.8-10.1,4.7-19.9,6-30.1c0.1-0.8,0.6-4,2-7.9
					c0.2-0.6,0.5-1.1,0.8-1.9c8.6-18.1,30.7-28.3,48.8-30.5c23.1-2.8,49.5,7.4,62.7,26.8c0.1,0.1,0.2,0.3,0.3,0.4
					c2.9,4.4,4.6,8.5,5.5,12.5c3.2,15.1,2.3,26.7,0.4,38.7c-1.9,12-5,24.6-6.1,41.8c-2.4,36.9,8.7,71,17.6,98.1
					C880.7,635.7,882.3,640.3,883.4,643.3z"/>
				<linearGradient id="SVGID_12_" gradientUnits="userSpaceOnUse" x1="761.7924" y1="532.3518" x2="869.1356" y2="532.3518">
					<stop  offset="0" style="stop-color:#002544"/>
					<stop  offset="0.6197" style="stop-color:#042444;stop-opacity:0.5"/>
					<stop  offset="1" style="stop-color:#640042;stop-opacity:0.2"/>
				</linearGradient>
				<path class="st26" d="M835.2,494.3c-14.4,18,26,57.3,15.8,90.5c-8.8,28.5-53.1,46.8-84.4,39.6c-1.6-6.7-3.2-12.9-4.8-18.6
					c18.8-2.1,49.2-2.8,62.4-19.1c11.6-14.3,13.2-44.4-23.6-111.6c20.2-12.1,40.4-24.2,60.6-36.3c0.1,0.1,0.2,0.3,0.3,0.4
					c2.9,4.4,4.6,8.5,5.5,12.5c3.2,15.1,2.3,26.7,0.4,38.7c-2.4-1.6-10.9-6.7-20.3-4.2C847.2,486.1,840.3,487.9,835.2,494.3z"/>
			</g>
			<g id="smartphone">
				<linearGradient id="SVGID_13_" gradientUnits="userSpaceOnUse" x1="626.8569" y1="515.4901" x2="697.7014" y2="515.4901">
					<stop  offset="0" style="stop-color:#002544"/>
					<stop  offset="0.9174" style="stop-color:#271C41"/>
				</linearGradient>
				<path class="st27" d="M696.2,540.3l-14.7,14.5c-2.8,2.7-8.1,1.1-11.7-3.6l-39.9-51.4c-3.7-4.7-4-10.4-0.8-12.6l17-11.6
					c2.9-2,8,0,11.4,4.4l37.2,47.8C698,532.3,698.7,537.8,696.2,540.3z"/>
				<g>
					<path class="st28" d="M694.6,527.9l-37.2-47.8c-3.4-4.4-8.5-6.4-11.4-4.4l-17,11.6c-1.2,0.8-1.9,2.1-2.1,3.6l0,0l0,0
						c-0.1,0.6-0.1,1.3,0,2l0,1.9c-0.4,2.5,0.5,5.7,2.7,8.5l38.1,49c3.2,4.1,7.8,5.7,10.7,3.8c1.2-0.1,2.3-0.5,3.2-1.3l14.7-14.5
						C698.8,537.8,698,532.3,694.6,527.9z"/>
					<linearGradient id="SVGID_14_" gradientUnits="userSpaceOnUse" x1="626.8613" y1="515.4901" x2="697.7058" y2="515.4901">
						<stop  offset="0" style="stop-color:#002544"/>
						<stop  offset="0.9174" style="stop-color:#271C41"/>
					</linearGradient>
					<path class="st29" d="M696.2,540.3l-14.7,14.5c-2.8,2.7-8.1,1.1-11.7-3.6l-39.9-51.4c-3.7-4.7-4-10.4-0.8-12.6l17-11.6
						c2.9-2,8,0,11.4,4.4l37.2,47.8C698,532.3,698.7,537.8,696.2,540.3z"/>
				</g>
				<linearGradient id="SVGID_15_" gradientUnits="userSpaceOnUse" x1="633.2587" y1="515.212" x2="693.7426" y2="515.212">
					<stop  offset="0" style="stop-color:#D3E0DF"/>
					<stop  offset="0.6644" style="stop-color:#F1F0E2"/>
				</linearGradient>
				<path class="st30" d="M693.7,530.9c-6.9,6-13.7,11.9-20.6,17.9c-2.8-3.2-9.2-11.1-16.1-19.8c-0.9-1.2-1.8-2.3-2.8-3.5
					c-0.8-1-1.5-1.9-2.3-2.9c-2.5-3.1-4.9-6.2-7.2-9.1c-5.1-6.6-9.5-12.3-11.6-15.1c7.6-5.6,15.2-11.2,22.8-16.8
					c0.2,0.3,0.4,0.5,0.6,0.8c1.8,2.4,4,5.1,6.3,8.1c0.6,0.8,1.2,1.5,1.8,2.3c0.9,1.2,1.8,2.4,2.8,3.6
					C679.6,512,693.4,530.1,693.7,530.9z"/>
				<path class="st31" d="M677.3,534.1c-0.4,0-0.8-0.1-1.1-0.3l-21.6-13.4c-1-0.6-1.3-2-0.7-3c0.6-1,2-1.3,3-0.7l15.3,9.5
					l-15.9-33.5c-0.5-1.1-0.1-2.4,1-2.9c1.1-0.5,2.4-0.1,2.9,1l19.1,40.2c0.4,0.9,0.2,1.9-0.5,2.6
					C678.3,533.9,677.8,534.1,677.3,534.1z"/>
				<path class="st32" d="M663,490.5c-3.7,10.7-7.4,21.4-11,32c-2.5-3.1-4.9-6.2-7.2-9.1l11.9-31.1
					C658.6,484.8,660.7,487.6,663,490.5z"/>
				<path class="st32" d="M667.6,496.4L657.1,529c-0.9-1.2-1.8-2.3-2.8-3.5l10.5-32.6C665.7,494,666.6,495.2,667.6,496.4z"/>
			</g>
			<g id="legs">
				<g id="leg_back">
					<path class="st11" d="M881.4,1081.3h-2.7c-1.8-116.6-4.3-157.3-6.6-166.6c-0.4-1.6-3.6-13.8-5.4-30.7c-0.1-1.4-0.3-3-0.5-4.8
						c-3.9-50.2,24.6-160.9,24.1-188.1c-0.4-19.1-3.5-35.4-6.9-47.8c-32.4,9.6-64.7,19.2-97.1,28.8c-1.9,103.3,8.8,173.8,19.4,220
						c2.6,11.2,8.2,34,17,73c10.9,48,19.3,88,25.1,116.2h-0.3c-2.2,0-4,1.8-4,4.1s1.8,4.1,4,4.1h2c9.8,0,19.5,0,29.3,0h2.6
						c2.2,0,4-1.8,4-4.1S883.6,1081.3,881.4,1081.3z"/>
					<linearGradient id="SVGID_16_" gradientUnits="userSpaceOnUse" x1="786.1266" y1="866.3967" x2="890.3159" y2="866.3967">
						<stop  offset="6.454763e-03" style="stop-color:#640042"/>
						<stop  offset="1" style="stop-color:#002544"/>
					</linearGradient>
					<path class="st33" d="M881.4,1081.3h-2.7c-1.8-116.6-4.3-157.3-6.6-166.6c-0.4-1.6-3.6-13.8-5.4-30.7c-0.1-1.4-0.3-3-0.5-4.8
						c-3.9-50.2,24.6-160.9,24.1-188.1c-0.4-19.1-3.5-35.4-6.9-47.8c-32.4,9.6-64.7,19.2-97.1,28.8c-1.9,103.3,8.8,173.8,19.4,220
						c2.6,11.2,8.2,34,17,73c10.9,48,19.3,88,25.1,116.2h-0.3c-2.2,0-4,1.8-4,4.1s1.8,4.1,4,4.1h2c9.8,0,19.5,0,29.3,0h2.6
						c2.2,0,4-1.8,4-4.1S883.6,1081.3,881.4,1081.3z"/>
				</g>
				<g id="leg_front">
					<path class="st34" d="M883.4,643.3c-0.5,6.4-1.2,12.5-2.1,18.2c-0.4,2.3-0.8,4.6-1.2,6.8c-0.5,2.5-1,4.9-1.6,7.2
						c0,0.1,0,0.2-0.1,0.3c-4.6,19.6-11.5,34.3-17.5,45c-22.5,39.4-68.4,81.8-100.2,114.4c-15.9,16.3-28.3,30.2-32.4,39.9
						c-0.6,1.5-1.1,2.9-1.3,4.2c-1,5.7-1.3,11.5-1.3,11.5c0.9,9.3,1.7,18.7,2.4,28.3c4.4,64.6,1.1,124.7-6.5,179.2
						c-0.4,0-0.8,0-1.2,0c-2.3,0.1-4.6,0.2-6.9,0.3c-7.8,0.3-15.5,0.6-23.3,0.9c-1.8-28.4-5.2-51.3-7.8-66.6
						c-5.8-33.5-13.1-60.3-18.4-84.8c-7-32.8-10.3-61.7-1.4-97.7c3-12.3,5.3-15.8,60.7-117.3c5.6-10.2,10.9-19.9,15.8-29
						c12.6-23,22.9-42,30.2-55.3c0.7-1.3,1.4-2.5,2-3.7c0.1-0.2,0.2-0.4,0.3-0.6c34.4-0.3,68.8-0.7,103.1-1
						C877.6,643.4,880.5,643.4,883.4,643.3z"/>
					<path class="st11" d="M721.9,1099.6h-34.5c-2.1,0-3.7-1.7-3.7-3.7v-0.7c0-2.1,1.7-3.7,3.7-3.7h34.5c2.1,0,3.7,1.7,3.7,3.7v0.7
						C725.6,1097.9,723.9,1099.6,721.9,1099.6z"/>
					<path class="st35" d="M883.4,643.3c-0.5,6-1.2,12.1-2.1,18.2c-0.4,2.3-0.8,4.6-1.2,6.8c-0.5,2.5-1,4.9-1.6,7.2
						c0,0.1,0,0.2-0.1,0.3c-0.9,3.8-6.8,24.8-17.5,45c-22.5,39.4-68.4,81.8-100.2,114.4c-15.9,16.3-28.3,30.2-32.4,39.9
						c-0.6,1.5-1.1,2.9-1.3,4.2c-1,5.7-1.3,11.5-1.3,11.5c0.9,9.3,1.7,18.7,2.4,28.3c4.4,64.6,1.1,124.7-6.5,179.2
						c-0.4,0-0.8,0-1.2,0c-8-12.1-7.1-48.4-9.5-111.1c-3.5-92.8-8.4-89.2-3.4-105.9c12.3-41.1,36-42.9,93.2-112.7
						c32.4-39.5,72.5-97.2,61.9-109.2c-3.9-4.4-12.1,0.7-30.8,2c-26,1.7-47.8-5.8-62.6-12.8c0.7-1.2,1.4-2.5,2-3.7
						c0.1-0.2,0.2-0.4,0.3-0.6c34.4-0.3,68.8-0.7,103.1-1C877.6,643.4,880.5,643.4,883.4,643.3z"/>
					<linearGradient id="SVGID_17_" gradientUnits="userSpaceOnUse" x1="657.2078" y1="826.0561" x2="739.1381" y2="826.0561">
						<stop  offset="0" style="stop-color:#FFFFFF;stop-opacity:0.5"/>
						<stop  offset="0.8362" style="stop-color:#F07125"/>
					</linearGradient>
					<path class="st36" d="M739.1,704c-9,34.1-27.3,92.1-56,134c-19,27.7-21.9,70.6-19.1,110.1c-7-32.8-10.3-61.7-1.4-97.7
						c3-12.3,5.3-15.8,60.7-117.3C728.9,722.8,734.2,713.1,739.1,704z"/>
				</g>
			</g>
			<g id="hand_front">
				<path class="st20" d="M839.2,587.9c-3.2,5-7.3,7.7-12.1,11c-0.1,0.1-0.2,0.1-0.3,0.2c0,0-0.1,0-0.1,0.1
					c-4.6,3.1-22.1,14-59.2,10.8c-28.5-2.5-53.4-12-72.3-21.5c-9.2-4.6-16.9-9.3-22.8-13.2c3.6-5.9,7.1-11.8,10.7-17.8
					c37.1,16.9,67.2,17.2,83.8,15.9c11.4-0.9,22-1.8,27.8-5.8c1.6-1.2,2.9-2.6,3.6-4.3c6.1-14.1-28.5-29.4-46.6-75.8
					c-4.8-12.4-14.4-37.6-2.6-54c2.2-3.1,6.8-8.1,13.2-12c4.4-2.6,9.7-4.7,15.6-5.1c0.3,0,3.4-0.2,5.6,0.1
					c13.9,2.1,19.9,28.3,30.5,64.1c2.1,7.2,4.4,14.7,7,22.6c1.5,4.4,2.9,8.6,4.3,12.6C839.1,554.4,849.5,572.2,839.2,587.9z"/>
				<linearGradient id="SVGID_18_" gradientUnits="userSpaceOnUse" x1="636.1136" y1="543.5905" x2="683.1047" y2="543.5905">
					<stop  offset="1.127746e-03" style="stop-color:#E4C9C2"/>
					<stop  offset="0.7693" style="stop-color:#FDB2A4"/>
				</linearGradient>
				<path class="st37" d="M683.1,557.5c-1.6,3.4-3.5,7.1-5.9,10.9c-1.6,2.5-3.2,4.8-4.8,6.8c-3-2.4-5.1-4.1-6.4-5.2
					c-1.3-1-1.9-1.5-2-1.6c0,0-0.2-0.2-0.5-0.5c0,0,0,0-0.1-0.1c0,0-0.1-0.1-0.1-0.1c-12-11.2-18.9-24.9-18.9-24.9
					c-6.2-12.5-7.9-24-8.4-31.2c1.8,2.2,4.6,5.5,8,9.8c0.3,0.4,0.7,0.8,0.9,1.2c0,0,0,0,0,0c2.1,2.7,3.6,4.7,6.3,8.2
					c3.2,4.2,6.4,8.3,9.7,12.5c0.6-1.8,1.4-4.5,1.5-8.1c0.1-2.2-0.2-4.1-0.6-7.9c-0.6-4.9-1.5-10.5,0.2-11.2c0.1,0,0.2-0.1,0.2-0.1
					c0.8,0,1.9,0.2,2.9,0.9c2.4,1.8,2.3,5.7,2.3,7.4c0,0.1,0,7.4,4.6,19.1c1.3,3.3,3.6,7.5,8.5,11.7
					C681.3,556.1,682.2,556.8,683.1,557.5z"/>
				<path class="st38" d="M683.1,557.5c-1.6,3.4-3.5,7.1-5.9,10.9c-1.6,2.5-3.2,4.8-4.8,6.8c-3-2.4-5.1-4.1-6.4-5.2l14.2-14.5
					l0.3-0.2C681.3,556.1,682.2,556.8,683.1,557.5z"/>
				<path class="st38" d="M661,543.5c-9.5-0.5-13.9-11.2-15.9-20.6c2.1,2.7,3.6,4.7,6.3,8.2C654.5,535.2,657.8,539.4,661,543.5z"/>
				<linearGradient id="SVGID_19_" gradientUnits="userSpaceOnUse" x1="695.2297" y1="541.8311" x2="843.3865" y2="541.8311">
					<stop  offset="0" style="stop-color:#002544"/>
					<stop  offset="0.6197" style="stop-color:#042444;stop-opacity:0.5"/>
					<stop  offset="1" style="stop-color:#640042;stop-opacity:0.2"/>
				</linearGradient>
				<path class="st39" d="M839.2,587.9c-3.9,5.1-10.4,9.7-12.1,11c-0.1,0.1-0.2,0.2-0.3,0.2c0,0-0.1,0-0.1,0.1
					c-4.6,3.1-22.1,14-59.2,10.8c-28.5-2.5-53.4-12-72.3-21.5c33.1,8.1,111.9,25,125.8-1c3.5-6.6,1-17.5-4-39.3
					c-9.6-41.4-24.7-65.5-16.3-73c1.2-1.1,3.5-2.4,8.2-1.9c1.8,2.5,3.5,4.9,5.2,7.4c2.1,7.2,4.4,14.7,7,22.6
					c1.5,4.4,2.9,8.6,4.3,12.6C839.1,554.4,849.5,572.2,839.2,587.9z"/>
				<linearGradient id="SVGID_20_" gradientUnits="userSpaceOnUse" x1="743.4529" y1="494.8683" x2="806.2151" y2="494.8683">
					<stop  offset="0" style="stop-color:#FFFFFF;stop-opacity:0.5"/>
					<stop  offset="0.8362" style="stop-color:#F07125"/>
				</linearGradient>
				<path class="st40" d="M797.2,568.2c-0.7,0-1.5-0.3-2.5-0.7c1.6-1.2,2.9-2.6,3.6-4.3c6.1-14.1-28.5-29.4-46.6-75.8
					c-4.8-12.4-14.4-37.6-2.6-54c2.2-3.1,6.8-8.1,13.2-12c-3.2,14.3-9.3,55.7,17.9,94.4C813.8,563.6,809.5,568.8,797.2,568.2z"/>
			</g>
			<path id="hair" class="st22" d="M779.6,340.7c2.8,10.5,5.9,27.2,3.4,47c-3.8,30.6-17.5,40.6-13.7,63.6
				c2.3,13.6,11,33.9,26.6,38.8c15,4.8,24.1-8.4,49.1-4.2c11.1,1.9,13.8,5.2,19.4,3.1c12.4-4.6,17.4-27.8,16.2-45.8
				c-2.2-31.7-22.8-35.6-45.3-81.4c-17.6-35.9-13.3-50.5-30.1-62.4c-18.2-12.8-42.9-9.5-61.5-4.3
				C755.7,310.4,767.7,325.5,779.6,340.7z"/>
			<g id="head_general">
				<g id="head">
					
						<linearGradient id="SVGID_21_" gradientUnits="userSpaceOnUse" x1="701.5386" y1="347.5898" x2="796.9728" y2="347.5898" gradientTransform="matrix(0.9918 0.1279 -0.1279 0.9918 52.6192 -82.2719)">
						<stop  offset="0" style="stop-color:#EFDDCB"/>
						<stop  offset="0.331" style="stop-color:#F1BDAF"/>
						<stop  offset="0.6278" style="stop-color:#F2A89C"/>
						<stop  offset="0.8209" style="stop-color:#F2A095"/>
					</linearGradient>
					<path class="st41" d="M783.3,366.4c0.4,2.2,0.9,5.7,0.3,9.9c-0.6,4.6-2.1,8-3.3,10.2c-7,14-13.4,26.6-24.1,28
						c-5.6,0.7-10.1-1.9-14.6-4.5c-10.6-6.1-15.5-15.6-17.4-19.9c-7.4,3.3-10.3,2.9-11.4,1.7c-1.8-2,0.8-6.3,2.8-16.9
						c0.7-3.7,1.1-6.9,1.4-9.2c-3.2-4.4-11.1-16.6-10.3-33.1c0.2-5,1.2-24.8,14.2-31.2c11-5.4,24.4,1.9,31.2,6.4
						c8.7,5.8,17.1,14.3,22.9,23.9c0.2,0.3,0.4,0.6,0.6,0.9c1.5,2.6,2.8,5.2,4,8c5.8-3.2,13.3-1.7,17.5,3.7c0,0,0,0,0,0
						c1.4,1.8,2.2,3.8,2.6,5.9c0.9,4.9-0.9,10.2-5.1,13.5C791.3,366.4,787.1,367.2,783.3,366.4z"/>
					
						<linearGradient id="SVGID_22_" gradientUnits="userSpaceOnUse" x1="760.7045" y1="328.2463" x2="792.9482" y2="328.2463" gradientTransform="matrix(0.9918 0.1279 -0.1279 0.9918 52.6192 -82.2719)">
						<stop  offset="0" style="stop-color:#FFFFFF;stop-opacity:0.5"/>
						<stop  offset="0.8362" style="stop-color:#F07125"/>
					</linearGradient>
					<path class="st42" d="M797.1,344.5c-7.3,1.4-28.9,5.4-29.6,5.6l-2.3-10.3l10.5-7c1.5,2.6,2.8,5.2,4,8
						C785.5,337.6,792.9,339,797.1,344.5C797.1,344.5,797.1,344.5,797.1,344.5z"/>
				</g>
				<path id="smile" d="M736.8,401.6c-0.3,0-0.6-0.3-0.6-0.6c0-0.4,0.2-0.7,0.6-0.7c0.3,0,7.1-0.6,9.9-6.1c1.2-2.3,1.2-4.5,1.1-6
					c0-0.4,0.2-0.7,0.6-0.7c0.4,0,0.7,0.2,0.7,0.6c0.2,1.7,0.1,4.2-1.2,6.8C744.7,400.8,737.6,401.5,736.8,401.6
					C736.8,401.6,736.8,401.6,736.8,401.6z"/>
				<ellipse id="eye" cx="727.8" cy="363" rx="3" ry="3"/>
				
					<rect id="brow" x="715" y="346.1" transform="matrix(0.9917 0.1283 -0.1283 0.9917 50.5902 -90.1719)" class="st22" width="20.2" height="2.9"/>
			</g>
			<path id="forelock" class="st22" d="M706.8,332.7c14.2,18.5,35.3,27.1,53,21.8c9.7-2.9,16.2-9.3,19.8-13.8
				c0.1-4.7-0.4-12-3.3-20.2c-1.9-5.2-8.2-22.3-25.6-28.9c-2.7-1-20.4-7.7-34.1,3.2C706.1,303.1,702.1,318.3,706.8,332.7z"/>
		</g>
	</g>
</g>
</svg>
