<?xml version="1.0" encoding="utf-8"?>
<!-- Generator: Adobe Illustrator 22.1.0, SVG Export Plug-In . SVG Version: 6.00 Build 0)  -->
<svg version="1.1" xmlns="http://www.w3.org/2000/svg" xmlns:xlink="http://www.w3.org/1999/xlink" x="0px" y="0px"
	 viewBox="0 0 1050.4 1006" style="enable-background:new 0 0 1050.4 1006;" xml:space="preserve">
<style type="text/css">
	.st0{fill:url(#SVGID_1_);}
	.st1{fill:url(#SVGID_2_);}
	.st2{fill:url(#SVGID_3_);}
	.st3{fill:url(#SVGID_4_);}
	.st4{fill:url(#SVGID_5_);}
	.st5{opacity:0.42;fill:#BDD3DE;}
	.st6{fill:#EBDEDE;}
	.st7{opacity:0.5;fill:#153E5C;}
	.st8{fill:#F1F0E2;}
	.st9{fill:#153E5C;}
	.st10{fill:#C5545A;}
	.st11{fill:#87AEB4;}
	.st12{fill:#271C41;}
	.st13{fill:url(#window1_2_);}
	.st14{fill:url(#window3_2_);}
	.st15{fill:#8677A7;}
	.st16{opacity:0.37;fill:url(#SVGID_6_);}
	.st17{opacity:0.5;fill:#271C41;}
	.st18{opacity:0.17;fill:url(#SVGID_7_);}
	.st19{fill:#C5856E;}
	.st20{fill:#E4B351;}
	.st21{fill:url(#SVGID_8_);}
	.st22{opacity:0.35;fill:#0B224C;}
	.st23{opacity:0.25;fill:#153E5C;}
	.st24{opacity:0.19;fill:url(#SVGID_9_);}
	.st25{opacity:0.4;}
	.st26{opacity:0.3;fill:url(#SVGID_10_);}
	.st27{opacity:0.17;fill:url(#SVGID_11_);}
	.st28{fill:#191535;}
	.st29{opacity:0.19;fill:url(#SVGID_12_);}
	.st30{fill:url(#main_part_1_);}
	.st31{fill:#BDD3DE;}
	.st32{opacity:0.64;fill:url(#SVGID_13_);}
	.st33{opacity:0.64;fill:url(#SVGID_14_);}
	.st34{opacity:0.11;fill:url(#SVGID_15_);}
	.st35{opacity:0.31;fill:url(#SVGID_16_);}
	.st36{opacity:0.19;fill:url(#SVGID_17_);}
	.st37{opacity:0.17;fill:#153E5C;}
	.st38{fill:#F2BE54;}
	.st39{fill:#F28F3F;}
	.st40{opacity:0.37;fill:url(#SVGID_18_);}
	.st41{opacity:0.61;fill:#87AEB4;}
	.st42{opacity:0.61;fill:#FFFFFF;}
	.st43{opacity:0.2;fill:url(#SVGID_19_);}
	.st44{opacity:0.45;fill:#FFFFFF;}
</style>
<g id="background">
	<g id="general_1_">
		<g id="figures">
			<linearGradient id="SVGID_1_" gradientUnits="userSpaceOnUse" x1="42.1512" y1="383.6376" x2="922.0085" y2="383.6376">
				<stop  offset="2.043269e-03" style="stop-color:#F0E2E2"/>
				<stop  offset="1" style="stop-color:#F4DBA9"/>
			</linearGradient>
			<path class="st0" d="M921,261.3c-0.2,1.3-0.4,2.7-0.6,4c-2.3,14.8-7.4,28.8-16.1,41c-3.8,5.3-8,10-12.6,14
				c-1.7,1.5-3.5,2.9-5.4,4.2c-14.9,10.8-33.5,16.2-55,18.2c-1.3,0.1-2.7,0.2-4,0.3c-16.7,1.2-35.2,0.6-55-1.2
				c-1.3-0.1-2.7-0.2-4-0.3c-17.4-1.6-35.8-3.9-55-6.4c-1.3-0.2-2.7-0.3-4-0.5c-17.7-2.3-36.1-4.7-55-6.7c-1.3-0.2-2.7-0.3-4-0.4
				c-12.2-1.3-24.5-2.4-37-3.2c-29.5-2-59.9-2.5-90.7,0c-15,1.2-30.2,3.2-45.3,6c-1.3,0.2-2.7,0.5-4,0.8c-12.3,2.4-24.7,5.5-37,9.2
				c-5.9,1.8-11.9,3.8-18,6c-1.3,0.5-2.7,1-4,1.5c-17.7,6.6-36.1,15.1-55,25.8c-1.3,0.8-2.7,1.5-4,2.3c-1.9,1.1-3.8,2.2-5.7,3.4
				c-2.1,1.3-4.3,2.6-6.4,4c-14.1,8.9-28.4,19.2-42.9,31.1c-1.3,1.1-2.7,2.2-4,3.3c-7.7,6.4-15.4,13.3-23.1,20.6
				c-1.4,1.3-2.8,2.6-4.2,4c-9.2,8.9-18.5,18.6-27.7,28.9c-1.3,1.5-2.7,3-4,4.5c-6,6.9-12,14-18.1,21.6c-1.1,1.3-2.1,2.7-3.2,4
				c-11.3,14.3-22.5,29.7-33.7,46.4c-1.3,2-2.7,4-4,6c-0.6,0.9-1.2,1.7-1.7,2.6c-0.9,1.3-1.7,2.7-2.6,4c-11,17.1-22,35.4-32.9,55
				c-0.7,1.3-1.5,2.7-2.2,4c-5.2,9.5-10.4,19.4-15.6,29.5c-1.3,2.6-2.7,5.3-4,7.9c-2.9,5.7-5.7,11.6-8.6,17.5
				c-0.6,1.3-1.3,2.7-1.9,4c-8.3,17.5-16.5,35.8-24.6,55c-0.6,1.3-1.1,2.7-1.7,4c-4.1,9.8-8.2,19.8-12.2,30
				c-2.1-7.7-4.1-15.5-6-23.2c-1.4-5.8-2.7-11.5-4-17.2c-3.6-16.2-6.6-32.4-9.1-48.6c-0.2-1.3-0.4-2.7-0.6-4
				c-2.8-18.4-4.9-36.8-6.3-55c-0.1-1.3-0.2-2.7-0.3-4c-1.3-18.5-2-36.8-1.9-55c0-1.3,0-2.7,0-4c0.1-18.5,1-36.9,2.5-55
				c0.1-1.3,0.2-2.7,0.4-4c1.7-18.6,4.1-37,7.2-55c0.2-1.3,0.5-2.7,0.7-4c2.2-12.1,4.6-24,7.4-35.7c1.3-5.4,2.6-10.7,4-16
				c0.3-1.1,0.6-2.2,0.9-3.3c0.4-1.3,0.7-2.7,1.1-4c5.2-18.8,11.2-37.2,18-55c0.5-1.3,1-2.7,1.5-4c7.4-19,15.6-37.3,24.8-55
				c0.7-1.3,1.4-2.7,2.1-4c2.2-4.1,4.4-8.2,6.6-12.2c1.3-2.4,2.7-4.7,4-7c7.1-12.3,14.7-24.2,22.7-35.8c0.9-1.3,1.9-2.7,2.8-4
				c9.3-13.1,19.1-25.7,29.5-37.7c1.3-1.5,2.7-3,4-4.6c3.8-4.3,7.7-8.6,11.7-12.7c1.3-1.3,2.6-2.7,3.9-4
				c12.5-12.8,25.6-24.7,39.4-35.8c1.3-1.1,2.7-2.1,4-3.2c7.1-5.6,14.3-10.9,21.7-16c2-1.4,3.9-2.7,5.9-4c4.1-2.7,8.2-5.4,12.4-8
				c4.9-3,9.9-6,15-8.9c1.3-0.8,2.7-1.5,4-2.2c17.6-9.7,36-18.3,55-25.8c1.3-0.5,2.7-1.1,4-1.6c7.9-3,15.9-5.9,24-8.6
				c4.2-1.4,8.4-2.7,12.6-4c6.1-1.9,12.2-3.6,18.4-5.2c1.3-0.4,2.7-0.7,4-1c18.1-4.7,36.5-8.5,55-11.4c1.3-0.2,2.7-0.4,4-0.6
				c18.3-2.8,36.7-4.7,55-5.8c1.3-0.1,2.7-0.2,4-0.2c18.4-1,36.8-1.1,55-0.5c1.3,0,2.7,0.1,4,0.2c18.6,0.8,37,2.5,55,5.1
				c1.3,0.2,2.7,0.4,4,0.6c18.9,2.8,37.3,6.6,55,11.3c1.3,0.4,2.7,0.7,4,1.1c7.4,2,14.7,4.2,21.9,6.6c3.9,1.3,7.7,2.6,11.5,4
				c7.4,2.7,14.5,5.5,21.6,8.6c1.3,0.6,2.7,1.2,4,1.8c19.9,8.9,38.4,19.3,55,31.1c1.3,0.9,2.7,1.9,4,2.9c4.7,3.5,9.2,7,13.6,10.7
				c1.6,1.3,3.1,2.6,4.6,4c14.3,12.8,26.7,26.9,36.8,42.3c1,1.5,2,3.1,3,4.7c0.3,0.5,0.7,1.1,1,1.6c1.2,2.1,2.5,4.2,3.7,6.4
				c0.7,1.3,1.4,2.6,2.2,4c8.4,16,15.9,35.1,20.6,55c0.3,1.3,0.6,2.7,0.9,4C921.6,224.6,923.2,243.4,921,261.3z"/>
			<linearGradient id="SVGID_2_" gradientUnits="userSpaceOnUse" x1="348.4474" y1="603.5895" x2="980.8589" y2="603.5895">
				<stop  offset="2.043269e-03" style="stop-color:#F0E2E2"/>
				<stop  offset="1" style="stop-color:#F4DBA9"/>
			</linearGradient>
			<path class="st1" d="M980.4,654.3c-0.7,6.8-2,13.5-3.9,20c-0.4,1.3-0.8,2.7-1.2,4c-5.3,16.1-14.2,31.2-25.9,45.2
				c-1.3,1.6-2.6,3.1-4,4.6c-1.6,1.8-3.2,3.5-4.8,5.2c-1.3,1.3-2.6,2.7-4,4c-13.3,13-29,24.8-46.2,35.1c-1.3,0.8-2.7,1.6-4,2.4
				c-11.1,6.4-22.8,12.3-34.9,17.5c-3.2,1.4-6.4,2.7-9.7,4c-3.4,1.4-6.9,2.7-10.4,3.9c-1.3,0.5-2.7,1-4,1.4
				c-18.1,6.3-36.7,11.1-55,14.2c-1.3,0.2-2.7,0.5-4,0.7c-13.2,2.1-26.3,3.4-39,3.8c-5.3,0.1-10.7,0.1-16,0c-1.3,0-2.7-0.1-4-0.1
				c-18.5-0.9-36.9-3.6-55-7.9c-1.3-0.3-2.7-0.6-4-1c-15.4-3.9-30.5-8.9-45.3-14.9c-3.2-1.3-6.3-2.6-9.5-4c-0.1,0-0.2-0.1-0.2-0.1
				c-1.3-0.6-2.7-1.2-4-1.8c-19-8.6-37.4-18.8-55-30.2c-1.3-0.9-2.7-1.7-4-2.6c-9.7-6.4-19.1-13.2-28.2-20.3c-1.7-1.3-3.4-2.7-5.1-4
				c-7.4-5.9-14.7-12-21.7-18.4c-1.3-1.2-2.7-2.4-4-3.6c-11.6-10.6-22.6-21.7-33-33c-1.2-1.3-2.4-2.7-3.6-4
				c-6.5-7.2-12.6-14.6-18.5-22c-1.3-1.7-2.7-3.4-4-5.1c-7.1-9.2-13.6-18.5-19.7-27.8c-0.9-1.3-1.7-2.7-2.6-4
				c-11.8-18.6-21.5-37.1-28.7-55c-0.5-1.3-1.1-2.7-1.6-4c-0.9-2.3-1.7-4.5-2.5-6.8c-1.5-4.2-2.8-8.3-4-12.4
				c-3.6-12.5-5.9-24.5-6.6-35.8c-0.1-1.3-0.2-2.7-0.2-4c-0.5-14.9,1.6-28.4,6.8-40c1.2-2.6,2.5-5.2,4-7.6c1.5-2.5,3.2-5,5.1-7.4
				c1-1.4,2.2-2.7,3.3-4c11.2-12.7,27.2-23,46.6-30.9c1.3-0.5,2.7-1.1,4-1.6c16.3-6.2,34.8-10.9,55-14.1c1.3-0.2,2.7-0.4,4-0.6
				c17.3-2.5,35.8-3.9,55-4.2c1.3,0,2.7,0,4,0c17.8-0.1,36.3,0.7,55,2.4c1.3,0.1,2.7,0.2,4,0.4c18.2,1.8,36.6,4.5,55,8
				c1.3,0.2,2.7,0.5,4,0.8c18.5,3.7,36.9,8.2,55,13.6c1.3,0.4,2.7,0.8,4,1.2c18.8,5.8,37.3,12.4,55,20c1.3,0.6,2.7,1.1,4,1.7
				c2.5,1.1,5,2.2,7.5,3.4c2.8,1.3,5.7,2.6,8.5,4c6.5,3.1,20.8,10.1,39,20.4c1.3,0.7,2.7,1.5,4,2.3c15.1,8.7,32.5,19.6,49.9,32.3
				c3,2.2,6,4.5,9.1,6.8c19.8,15.2,39.2,32.8,54.9,52.2c1.4,1.7,2.8,3.5,4.1,5.2c12.7,16.7,22.5,34.7,27.6,53.8c0.3,1.3,0.7,2.7,1,4
				C980.6,630.6,981.5,642.3,980.4,654.3z"/>
			<linearGradient id="SVGID_3_" gradientUnits="userSpaceOnUse" x1="137.3652" y1="804.7751" x2="426.3652" y2="804.7751">
				<stop  offset="2.043269e-03" style="stop-color:#F0E2E2"/>
				<stop  offset="1" style="stop-color:#F4DBA9"/>
			</linearGradient>
			<path class="st2" d="M426.4,804.8c0,16.3-2.7,31.9-7.6,46.5c-1.3,3.8-2.8,7.6-4.4,11.2c-7.9,18.2-19.5,34.4-33.8,47.8
				c-1.5,1.4-2.9,2.7-4.5,4c-5.3,4.5-10.9,8.7-16.8,12.5c-1.3,0.8-2.7,1.7-4,2.5c-16.5,9.8-35.1,16.3-55,18.9
				c-1.3,0.2-2.7,0.3-4,0.5c-4.8,0.5-9.6,0.7-14.5,0.7c-14.1,0-27.7-2-40.5-5.8c-1.3-0.4-2.7-0.8-4-1.2c-18.5-6-35.4-15.6-49.8-28
				c-1.5-1.3-3-2.6-4.5-4c-0.2-0.2-0.5-0.5-0.8-0.7c-1.4-1.3-2.7-2.6-4-3.9c-13.9-14.2-24.8-31.3-31.9-50.3c-0.5-1.3-1-2.7-1.4-4
				c-5-14.6-7.6-30.2-7.6-46.5c0-2.9,0.1-5.7,0.2-8.5c0.1-1.3,0.2-2.7,0.3-4c1.7-19.7,7.3-38.3,16.2-55c0.7-1.3,1.4-2.7,2.2-4
				c6.1-10.7,13.5-20.6,22.1-29.4c1.3-1.3,2.6-2.6,4-3.9c8.9-8.4,18.8-15.7,29.6-21.7c2.6-1.4,5.1-2.8,7.8-4
				c5.7-2.7,11.6-5.1,17.6-7c1.3-0.4,2.7-0.8,4-1.2c12.8-3.7,26.4-5.8,40.5-5.8c4.9,0,9.7,0.2,14.5,0.7c1.3,0.1,2.7,0.3,4,0.5
				c15.4,2,30.1,6.4,43.6,12.8c2.6,1.2,5.2,2.6,7.8,4c1.2,0.7,2.4,1.4,3.6,2.1c1.3,0.8,2.7,1.6,4,2.5c19.8,12.6,36.4,30,48.1,50.5
				c0.8,1.3,1.5,2.7,2.2,4c1.7,3.2,3.3,6.4,4.7,9.8c1.5,3.3,2.8,6.7,4,10.2c3.9,11.1,6.4,22.9,7.5,35c0.1,1.3,0.2,2.7,0.3,4
				C426.3,799.1,426.4,801.9,426.4,804.8z"/>
			<linearGradient id="SVGID_4_" gradientUnits="userSpaceOnUse" x1="11.8742" y1="106.2665" x2="139.2951" y2="106.2665">
				<stop  offset="2.043269e-03" style="stop-color:#F0E2E2"/>
				<stop  offset="1" style="stop-color:#F4DBA9"/>
			</linearGradient>
			<path class="st3" d="M137.7,120.3c-1.9,8.5-5.5,16.3-10.3,23c-1,1.4-2,2.7-3.1,4c-0.3,0.4-0.6,0.8-1,1.1c-1.3,1.4-2.6,2.8-4,4.1
				c-14.2,13.5-34.5,20.1-55,16.4c-0.9-0.2-1.8-0.3-2.8-0.5c-0.4-0.1-0.8-0.2-1.2-0.3c-13.6-3.3-25.1-10.8-33.5-20.8
				c-1.1-1.3-2.1-2.6-3.1-4c-10.2-14.2-14.5-32.6-10.3-51c0.3-1.4,0.6-2.7,1-4c0.4-1.4,0.8-2.7,1.3-4C23.2,64,40.2,49.4,60.4,44.4
				c1.3-0.3,2.7-0.6,4-0.9c8.1-1.5,16.7-1.3,25.2,0.6c11.6,2.6,21.7,8.2,29.8,15.9c1.4,1.3,2.7,2.7,4,4.2c5.2,5.9,9.3,12.7,12,20.1
				c0.5,1.3,0.9,2.6,1.3,4C139.7,98.3,140.2,109.3,137.7,120.3z"/>
			<linearGradient id="SVGID_5_" gradientUnits="userSpaceOnUse" x1="549.3652" y1="901.1982" x2="1050.3719" y2="901.1982">
				<stop  offset="2.043269e-03" style="stop-color:#F0E2E2"/>
				<stop  offset="1" style="stop-color:#F4DBA9"/>
			</linearGradient>
			<path class="st4" d="M1050.4,876.3c-0.2,11.5-5.4,23-14.4,34c-1.1,1.3-2.2,2.7-3.4,4c-6.1,6.7-13.6,13.3-22.2,19.5
				c-1.3,1-2.6,1.9-4,2.8c-15.6,10.8-34.4,20.5-55,28.8c-1.3,0.5-2.7,1.1-4,1.6c-2,0.8-4,1.6-6.1,2.3c-3.8,1.4-7.7,2.7-11.5,4
				c-12.1,4-24.7,7.4-37.3,10.2c-1.3,0.3-2.7,0.6-4,0.9c-18.4,3.8-37,6.2-55,6.8c-1.3,0-2.7,0.1-4,0.1c-0.3,0-0.7,0-1,0
				c-18.7,0.3-36.8-1.2-54-4.3c-1.3-0.2-2.7-0.5-4-0.7c-16.2-3.1-31.6-7.6-46.3-13c-4.3-1.6-8.5-3.2-12.7-5
				c-19.9-8.3-38.3-18.2-55-28.9c-1.3-0.9-2.7-1.7-4-2.6c-11.2-7.3-21.6-14.9-31.2-22.5c-1.7-1.3-3.3-2.7-5-4
				c-6.7-5.5-13-11-18.9-16.3c-1.4-1.2-2.7-2.5-4-3.7c-14.3-13.4-25.7-25.7-33.9-35c-1.2-1.4-2.4-2.7-3.5-4c-2.7-3.2-4.9-5.9-6.7-8
				c6.2,2.8,12.4,5.5,18.4,8c3.2,1.4,6.4,2.7,9.6,4c5.4,2.2,10.7,4.4,16,6.4c1.3,0.5,2.7,1,4,1.5c19.5,7.5,37.8,13.7,55,18.7
				c1.3,0.4,2.7,0.8,4,1.2c19.7,5.7,38,9.8,55,12.7c1.3,0.2,2.7,0.5,4,0.7c20.2,3.2,38.4,4.6,55,4.5c1.3,0,2.7,0,4-0.1
				c21-0.4,39.2-3.3,55-7.8c1.3-0.4,2.7-0.8,4-1.2c15.5-4.8,28.7-11.3,40-18.6c5-3.2,10-6.9,15-10.7c1.3-1,2.7-2.1,4-3.1
				c1.7-1.4,3.5-2.8,5.2-4.2c1.6-1.3,3.3-2.7,4.9-4c14.6-11.9,29.3-24,44.9-31.8c1.3-0.7,2.7-1.3,4-1.9c12.6-5.7,25.8-8.2,40-5.3
				c5.1,1,10.1,2.7,15,5c1.3,0.6,2.7,1.3,4,2c13.8,7.3,26,19,33.2,32c0.7,1.3,1.4,2.6,2,4C1048.7,862.1,1050.5,869.2,1050.4,876.3z"
				/>
		</g>
		<path id="lines" class="st5" d="M1010.4,855.3h35.2c-0.6-1.4-1.3-2.7-2-4h-33.2v-32c-1.3-0.7-2.7-1.4-4-2v34h-55v-33.7
			c-1.3,0.6-2.7,1.2-4,1.9v31.8h-44.9c-1.6,1.3-3.3,2.7-4.9,4h49.8v55h-55v-50.8c-1.3,1-2.7,2.1-4,3.1v47.7h-55v-18.4
			c-1.3,0.4-2.7,0.8-4,1.2v17.2h-55v-9.4c-1.3,0-2.7,0-4,0.1v9.3h-55v-13.8c-1.3-0.2-2.7-0.4-4-0.7v14.5h-55v-27.2
			c-1.3-0.4-2.7-0.8-4-1.2v28.3h-36.1c1.6,1.3,3.3,2.7,5,4h31.2v22.5c1.3,0.9,2.7,1.7,4,2.6v-25.1h55v54c4.2,1.7,8.4,3.4,12.7,5
			h46.3v13c1.3,0.2,2.7,0.5,4,0.7v-13.7h55v18c1.3,0,2.7-0.1,4-0.1v-17.9h55v11c1.3-0.3,2.7-0.6,4-0.9v-10.2h37.3
			c3.9-1.3,7.8-2.6,11.5-4h-48.9v-55h55V967c1.3-0.5,2.7-1,4-1.6v-51.1h55v22.4c1.4-0.9,2.7-1.9,4-2.8v-19.5h22.2
			c1.2-1.3,2.4-2.7,3.4-4h-25.6V855.3z M770.4,969.3h-55v-55h55V969.3z M829.4,969.3h-55v-55h55V969.3z M888.4,969.3h-55v-55h55
			V969.3z M1006.4,910.3h-55v-55h55V910.3z M949.4,619.3H978c-0.3-1.3-0.6-2.7-1-4h-27.6v-53.8c-1.3-1.8-2.7-3.5-4.1-5.2h-54.9
			v-52.2c-3-2.3-6-4.6-9.1-6.8h-49.9V465c-1.3-0.8-2.7-1.5-4-2.3v34.6h-55v-55h16c-2.8-1.4-5.6-2.7-8.5-4h-7.5v-3.4
			c-1.3-0.6-2.7-1.2-4-1.7v5.1h-55v-25.2c-1.3-0.4-2.7-0.8-4-1.2v26.4h-55v-40c-1.3-0.3-2.7-0.5-4-0.8v40.7h-55v-48.7
			c-1.3-0.1-2.7-0.3-4-0.4v49.1h-55v-51.5c-1.3,0-2.7,0-4,0v51.4h-55v-47.2c-1.3,0.2-2.7,0.4-4,0.6v46.6h-55v-32.5
			c-1.3,0.5-2.7,1-4,1.6v30.9h-46.6c-1.2,1.3-2.3,2.6-3.3,4h49.9v55h-55v-47.6c-1.5,2.5-2.8,5-4,7.6v40h-6.8c0,1.3,0.1,2.7,0.2,4
			h6.6v35.8c1.2,4.1,2.5,8.2,4,12.4v-48.2h55v55h-52.5c0.5,1.3,1,2.7,1.6,4h50.9v55h-22.3c0.8,1.3,1.7,2.7,2.6,4h19.7v27.8
			c1.3,1.7,2.7,3.4,4,5.1v-33h55v55h-36.5c1.2,1.3,2.4,2.7,3.6,4h33v33c1.3,1.2,2.7,2.4,4,3.6v-36.6h55v55h-33.3
			c1.7,1.3,3.4,2.7,5.1,4h28.2v20.3c1.3,0.9,2.7,1.8,4,2.6v-22.9h55v53.1c1.3,0.6,2.7,1.2,4,1.8v-54.9h55v55h-54.8
			c3.1,1.4,6.3,2.7,9.5,4h45.3v14.9c1.3,0.3,2.7,0.7,4,1v-15.9h55v23.8c1.3,0.1,2.7,0.1,4,0.1v-24h55v20.2c1.3-0.2,2.7-0.4,4-0.7
			v-19.6h55v5.3c1.3-0.5,2.7-0.9,4-1.4v-3.9h10.4c3.3-1.3,6.5-2.6,9.7-4h-20.1v-55h55v37.5c1.3-0.8,2.7-1.6,4-2.4v-35.1h46.2
			c1.4-1.3,2.7-2.7,4-4h-50.2v-55h55v49.8c1.4-1.5,2.7-3.1,4-4.6v-45.2h25.9c0.5-1.3,0.9-2.7,1.2-4h-27.1V619.3z M473.4,615.3h-55
			v-55h55V615.3z M473.4,556.3h-55v-55h55V556.3z M473.4,497.3h-55v-55h55V497.3z M532.4,674.3h-55v-55h55V674.3z M532.4,615.3h-55
			v-55h55V615.3z M532.4,556.3h-55v-55h55V556.3z M532.4,497.3h-55v-55h55V497.3z M591.4,733.3h-55v-55h55V733.3z M591.4,674.3h-55
			v-55h55V674.3z M591.4,615.3h-55v-55h55V615.3z M591.4,556.3h-55v-55h55V556.3z M591.4,497.3h-55v-55h55V497.3z M650.4,733.3h-55
			v-55h55V733.3z M650.4,674.3h-55v-55h55V674.3z M650.4,615.3h-55v-55h55V615.3z M650.4,556.3h-55v-55h55V556.3z M650.4,497.3h-55
			v-55h55V497.3z M709.4,792.3h-55v-55h55V792.3z M709.4,733.3h-55v-55h55V733.3z M709.4,674.3h-55v-55h55V674.3z M709.4,615.3h-55
			v-55h55V615.3z M709.4,556.3h-55v-55h55V556.3z M709.4,497.3h-55v-55h55V497.3z M768.4,792.3h-55v-55h55V792.3z M768.4,733.3h-55
			v-55h55V733.3z M768.4,674.3h-55v-55h55V674.3z M768.4,615.3h-55v-55h55V615.3z M768.4,556.3h-55v-55h55V556.3z M768.4,497.3h-55
			v-55h55V497.3z M827.4,792.3h-55v-55h55V792.3z M827.4,733.3h-55v-55h55V733.3z M827.4,674.3h-55v-55h55V674.3z M827.4,615.3h-55
			v-55h55V615.3z M827.4,556.3h-55v-55h55V556.3z M886.4,733.3h-55v-55h55V733.3z M886.4,674.3h-55v-55h55V674.3z M886.4,615.3h-55
			v-55h55V615.3z M886.4,556.3h-55v-55h55V556.3z M945.4,674.3h-55v-55h55V674.3z M945.4,615.3h-55v-55h55V615.3z M920.4,265.3
			c0.2-1.3,0.4-2.7,0.6-4h-30.6v-55h27.3c-0.3-1.3-0.6-2.7-0.9-4h-26.4v-55h5.8c-0.7-1.4-1.4-2.7-2.2-4h-3.7v-6.4
			c-0.3-0.6-0.7-1.1-1-1.6c-1-1.6-2-3.2-3-4.7v12.7h-55v-55h18.2c-1.5-1.4-3-2.7-4.6-4h-13.6V73.6c-1.3-1-2.7-1.9-4-2.9v13.6h-55
			V39.6c-1.3-0.6-2.7-1.2-4-1.8v46.4h-55v-55h33.4c-3.8-1.4-7.6-2.7-11.5-4h-21.9v-6.6c-1.3-0.4-2.7-0.7-4-1.1v7.7h-55v-19
			c-1.3-0.2-2.7-0.4-4-0.6v19.6h-55V0.6c-1.3-0.1-2.7-0.1-4-0.2v24.9h-55V0.9c-1.3,0.1-2.7,0.2-4,0.2v24.2h-55V6.9
			c-1.3,0.2-2.7,0.4-4,0.6v17.7h-55V19c-1.3,0.3-2.7,0.7-4,1v5.2H396c-4.2,1.3-8.4,2.6-12.6,4h31v55h-55V37.9c-1.3,0.5-2.7,1-4,1.6
			v44.9h-55V65.2c-1.3,0.7-2.7,1.5-4,2.2v16.9h-27.4c-2,1.3-3.9,2.6-5.9,4h33.3v55h-55v-39c-1.3,1-2.7,2.1-4,3.2v35.8H198
			c-1.3,1.3-2.6,2.7-3.9,4h43.3v55h-55V160c-1.3,1.5-2.7,3-4,4.6v37.7h-29.5c-0.9,1.3-1.9,2.7-2.8,4h32.3v55h-55v-19.2
			c-1.3,2.3-2.7,4.7-4,7v12.2h-6.6c-0.7,1.3-1.4,2.7-2.1,4h8.7v55H85.9c-0.5,1.3-1,2.7-1.5,4h35v55h-53c-0.4,1.3-0.7,2.7-1.1,4h54.1
			v55h-55v-51.7c-1.4,5.3-2.7,10.6-4,16v35.7h-7.4c-0.2,1.3-0.5,2.7-0.7,4h8.1v55H45c-0.1,1.3-0.2,2.7-0.4,4h15.7v55H42.2
			c0,1.3,0,2.7,0,4h18.2v55H44.1c0.1,1.3,0.2,2.7,0.3,4h16v55h-9.7c0.2,1.3,0.4,2.7,0.6,4h9.1v48.6c1.3,5.7,2.6,11.5,4,17.2v-6.8
			h18.2c0.6-1.3,1.1-2.7,1.7-4H64.4v-55h44.5c0.6-1.3,1.3-2.7,1.9-4H64.4v-55h55v37.5c1.3-2.7,2.7-5.3,4-7.9v-29.5H139
			c0.7-1.3,1.5-2.7,2.2-4h-17.8v-55H174c0.9-1.3,1.7-2.7,2.6-4h-53.3v-55h55v52.4c1.3-2,2.7-4,4-6v-46.4h33.7c1.1-1.3,2.1-2.7,3.2-4
			h-36.9v-55h55v33.4c1.3-1.5,2.7-3,4-4.5v-28.9h27.7c1.4-1.4,2.8-2.7,4.2-4h-31.9v-55h55v34.4c1.3-1.1,2.7-2.2,4-3.3v-31.1h42.9
			c2.2-1.4,4.3-2.7,6.4-4h-49.3v-55h55v51.6c1.3-0.8,2.7-1.6,4-2.3v-49.3h55v23.5c1.3-0.5,2.7-1,4-1.5v-22h55v6.8
			c1.3-0.3,2.7-0.5,4-0.8v-6h45.3c30.8-2.5,61.2-2,90.7,0h37v3.2c1.3,0.1,2.7,0.3,4,0.4v-3.7h55v10.4c1.3,0.2,2.7,0.3,4,0.5v-10.9
			h55v17.3c1.3,0.1,2.7,0.2,4,0.3v-17.7h55v18.8c1.3-0.1,2.7-0.2,4-0.3v-18.5h55v0.2c1.8-1.3,3.6-2.8,5.4-4.2h-1.4v-55H920.4z
			 M119.4,615.3h-55v-55h55V615.3z M119.4,556.3h-55v-55h55V556.3z M119.4,497.3h-55v-55h55V497.3z M178.4,497.3h-55v-55h55V497.3z
			 M178.4,438.3h-55v-55h55V438.3z M178.4,379.3h-55v-55h55V379.3z M178.4,320.3h-55v-55h55V320.3z M237.4,438.3h-55v-55h55V438.3z
			 M237.4,379.3h-55v-55h55V379.3z M237.4,320.3h-55v-55h55V320.3z M237.4,261.3h-55v-55h55V261.3z M296.4,379.3h-55v-55h55V379.3z
			 M296.4,320.3h-55v-55h55V320.3z M296.4,261.3h-55v-55h55V261.3z M296.4,202.3h-55v-55h55V202.3z M355.4,320.3h-55v-55h55V320.3z
			 M355.4,261.3h-55v-55h55V261.3z M355.4,202.3h-55v-55h55V202.3z M355.4,143.3h-55v-55h55V143.3z M414.4,320.3h-55v-55h55V320.3z
			 M414.4,261.3h-55v-55h55V261.3z M414.4,202.3h-55v-55h55V202.3z M414.4,143.3h-55v-55h55V143.3z M473.4,320.3h-55v-55h55V320.3z
			 M473.4,261.3h-55v-55h55V261.3z M473.4,202.3h-55v-55h55V202.3z M473.4,143.3h-55v-55h55V143.3z M473.4,84.3h-55v-55h55V84.3z
			 M532.4,320.3h-55v-55h55V320.3z M532.4,261.3h-55v-55h55V261.3z M532.4,202.3h-55v-55h55V202.3z M532.4,143.3h-55v-55h55V143.3z
			 M532.4,84.3h-55v-55h55V84.3z M591.4,320.3h-55v-55h55V320.3z M591.4,261.3h-55v-55h55V261.3z M591.4,202.3h-55v-55h55V202.3z
			 M591.4,143.3h-55v-55h55V143.3z M591.4,84.3h-55v-55h55V84.3z M650.4,320.3h-55v-55h55V320.3z M650.4,261.3h-55v-55h55V261.3z
			 M650.4,202.3h-55v-55h55V202.3z M650.4,143.3h-55v-55h55V143.3z M650.4,84.3h-55v-55h55V84.3z M709.4,320.3h-55v-55h55V320.3z
			 M709.4,261.3h-55v-55h55V261.3z M709.4,202.3h-55v-55h55V202.3z M709.4,143.3h-55v-55h55V143.3z M709.4,84.3h-55v-55h55V84.3z
			 M768.4,320.3h-55v-55h55V320.3z M768.4,261.3h-55v-55h55V261.3z M768.4,202.3h-55v-55h55V202.3z M768.4,143.3h-55v-55h55V143.3z
			 M827.4,320.3h-55v-55h55V320.3z M827.4,261.3h-55v-55h55V261.3z M827.4,202.3h-55v-55h55V202.3z M827.4,143.3h-55v-55h55V143.3z
			 M886.4,320.3h-55v-55h55V320.3z M886.4,261.3h-55v-55h55V261.3z M886.4,202.3h-55v-55h55V202.3z M593.4,861.7v28.6
			c1.3,1.2,2.6,2.5,4,3.7v-30.8C596,862.7,594.7,862.2,593.4,861.7z M567.8,851.3H556c1.1,1.3,2.2,2.6,3.5,4h17.9
			C574.2,854,571,852.6,567.8,851.3z M418.4,796.3h7.8c-0.1-1.3-0.2-2.7-0.3-4h-7.5v-35c-1.2-3.5-2.5-6.9-4-10.2v45.2h-55v-55h50.3
			c-0.7-1.3-1.4-2.7-2.2-4h-48.1v-50.5c-1.3-0.8-2.7-1.7-4-2.5v52.9h-55v-55h51.4c-2.6-1.4-5.1-2.8-7.8-4h-43.6v-12.8
			c-1.3-0.2-2.7-0.3-4-0.5v13.3h-55V666c-1.3,0.4-2.7,0.8-4,1.2v7h-17.6c-2.6,1.2-5.2,2.6-7.8,4h25.4v55h-55V700
			c-1.4,1.3-2.7,2.6-4,3.9v29.4h-22.1c-0.8,1.3-1.5,2.7-2.2,4h24.3v55h-40.5c-0.1,1.3-0.2,2.7-0.3,4h40.8v55H145
			c0.5,1.3,0.9,2.7,1.4,4h31.9v50.3c1.3,1.3,2.6,2.7,4,3.9v-54.3h55v55h-54.2c1.5,1.4,2.9,2.7,4.5,4h49.8v28c1.3,0.4,2.7,0.8,4,1.2
			v-29.2h55v34.3c1.3-0.1,2.7-0.3,4-0.5v-33.8h55v14.9c1.3-0.8,2.7-1.6,4-2.5v-12.5h16.8c1.5-1.3,3-2.6,4.5-4h-21.2v-55h55v7.2
			c1.6-3.7,3.1-7.4,4.4-11.2h-0.4V796.3z M237.4,851.3h-55v-55h55V851.3z M237.4,792.3h-55v-55h55V792.3z M296.4,910.3h-55v-55h55
			V910.3z M296.4,851.3h-55v-55h55V851.3z M296.4,792.3h-55v-55h55V792.3z M296.4,733.3h-55v-55h55V733.3z M355.4,910.3h-55v-55h55
			V910.3z M355.4,851.3h-55v-55h55V851.3z M355.4,792.3h-55v-55h55V792.3z M414.4,851.3h-55v-55h55V851.3z M123.4,88.3h13.3
			c-0.4-1.4-0.8-2.7-1.3-4h-12V64.2c-1.3-1.5-2.6-2.8-4-4.2v24.3h-55V43.6c-1.3,0.2-2.7,0.5-4,0.9v39.9H15.8c-0.5,1.3-0.9,2.6-1.3,4
			h45.9v55H23.7c1,1.4,2,2.7,3.1,4h33.5v20.8c0.4,0.1,0.8,0.2,1.2,0.3c0.9,0.2,1.9,0.4,2.8,0.5v-21.7h55v5.3c1.4-1.3,2.7-2.7,4-4.1
			v-1.1h1c1.1-1.3,2.1-2.6,3.1-4h-4.1V88.3z M119.4,143.3h-55v-55h55V143.3z"/>
		<g id="rectangles">
			
				<rect x="-9.6" y="889.3" transform="matrix(0.7828 0.6222 -0.6222 0.7828 591.9792 132.3598)" class="st6" width="232" height="50"/>
			
				<rect x="868.4" y="299.3" transform="matrix(0.1601 -0.9871 0.9871 0.1601 506.6896 1244.0333)" class="st6" width="232" height="50"/>
		</g>
	</g>
</g>
<g id="main">
	<g id="general_2_">
		<g id="lines_5_">
			<path class="st7" d="M574,437.1c-0.2,0-0.4-0.1-0.5-0.2c-0.4-0.3-0.4-0.8-0.1-1.2l113.7-143.1c0.3-0.4,0.8-0.4,1.2-0.1
				c0.4,0.3,0.4,0.8,0.1,1.2L574.7,436.7C574.5,437,574.3,437.1,574,437.1z"/>
			<path class="st7" d="M568.3,437.1c-0.4,0-0.7-0.2-0.8-0.6l-70.6-232.3c-0.1-0.4,0.1-0.9,0.6-1.1c0.4-0.1,0.9,0.1,1.1,0.6
				L569.1,436c0.1,0.4-0.1,0.9-0.6,1.1C568.5,437.1,568.4,437.1,568.3,437.1z"/>
			<path class="st7" d="M564,439.6c-0.1,0-0.2,0-0.3-0.1L290,324.1c-0.4-0.2-0.6-0.7-0.5-1.1c0.2-0.4,0.7-0.6,1.1-0.5L564.3,438
				c0.4,0.2,0.6,0.7,0.5,1.1C564.6,439.4,564.3,439.6,564,439.6z"/>
		</g>
		<g id="windows">
			<g id="window2_1_">
				<rect id="window2" x="423.6" y="79.5" class="st8" width="231.7" height="143.8"/>
				<g id="lines_3_">
					<path class="st9" d="M446.2,161.1c-0.2,0-0.4-0.2-0.4-0.4c0-0.2,0.2-0.4,0.4-0.4l164-1.7c0,0,0,0,0,0c0.2,0,0.4,0.2,0.4,0.4
						c0,0.2-0.2,0.4-0.4,0.4L446.2,161.1C446.2,161.1,446.2,161.1,446.2,161.1z"/>
					<path class="st9" d="M595.2,162.2c-0.2,0-0.4-0.2-0.4-0.4c0-0.2,0.2-0.4,0.4-0.4l49.8-0.5c0,0,0,0,0,0c0.2,0,0.4,0.2,0.4,0.4
						c0,0.2-0.2,0.4-0.4,0.4L595.2,162.2C595.2,162.2,595.2,162.2,595.2,162.2z"/>
					<path class="st9" d="M436.8,170.7c-0.2,0-0.4-0.2-0.4-0.4c0-0.2,0.2-0.4,0.4-0.4l40.5-0.4c0,0,0,0,0,0c0.2,0,0.4,0.2,0.4,0.4
						c0,0.2-0.2,0.4-0.4,0.4L436.8,170.7C436.8,170.7,436.8,170.7,436.8,170.7z"/>
				</g>
				<g id="woman2">
					<path class="st10" d="M574.6,187.8c-0.3,0.9-2.9,0.8-5.9,0.7c-3-0.1-4.7-0.1-6.8-0.7c-3.4-1.1-7.6-3.8-7-5.5
						c0.6-1.8,6.2-2.5,10.4-1.2c1.3,0.4,2.3,1,4.2,2.2C571.9,184.8,575,186.7,574.6,187.8z"/>
					<path class="st10" d="M522.2,185.7c-0.3-0.9,1.7-2.1,4.1-3.6c2.3-1.5,3.7-2.3,5.8-2.8c3.4-0.9,8.5-0.7,9.3,0.9
						c0.8,1.8-3,5.3-7.2,6.3c-1.3,0.3-2.5,0.3-4.9,0.3C526.4,186.8,522.6,186.8,522.2,185.7z"/>
					<path class="st9" d="M550.9,103.8c0,0,3.4-1.7,2.5-4.2c-0.8-2.5-8.4,1.7-11,0.8c-2.5-0.8-5.1-2.5-5.1,0.8
						c0,3.4,4.2,5.9,0.8,7.6c-3.4,1.7-5.9,2.5-3.4,5.1c2.5,2.5,0.8,5.9,5.1,5.9s5.1,3.4,6.8,1.7c1-1,1.7-2,1.9-3.2
						c0.2-0.9,0-1.6-0.3-2.7c-0.9-3.4-2.3-4.8-3.4-8.4c-0.3-1.1-0.5-2,0-2.5c0.7-0.8,2.4-0.8,2.5-0.8c0,0,0,0,0.8,0
						c0.3,0,0.6,0,0.8,0C549.8,103.8,550.4,103.8,550.9,103.8z"/>
					<path class="st11" d="M550.9,105.5c-1.1,0-2.3,0-3.4,0c0-0.6,0-1.1,0-1.7h3.4C550.9,104.4,550.9,105,550.9,105.5z"/>
					<path class="st12" d="M588,145.4c-8-5.5-25.1,4.9-39.7,16.2c-13.7-12.1-29.9-23.5-38.2-18.5c-3.8,2.3-5,7.5-4.9,11
						c0.3,9,9.7,17.7,25.1,24.4l4.6,7.7c4.3-0.5,8.4-1.1,12.3-1.9c4.2,1.1,8.6,2.2,13.3,3l5.5-8.1c15.6-5.7,25.4-13.7,26.2-22.5
						C592.6,153.2,591.7,148,588,145.4z"/>
					<path class="st10" d="M597.3,137.6c-0.3,0-0.5,0-0.8-0.1c-0.7-0.2-1.4-0.1-2,0.2c-6.9,3.1-13.9,6.1-20.8,9.2
						c-5.4-4.2-10.8-8.4-16.2-12.5l-1.3-1c0,0-2.6,12.7-6.1,10.1h-1.7c-0.3,0.2-0.6,0.3-0.9,0.3c-3.1,0-5.3-10.5-5.3-10.5l-0.5,0.4
						l-17.2,12.3l-21.2-8.3c-0.6-0.3-1.3-0.3-2-0.2c-0.2,0.1-0.5,0.1-0.8,0.1c-2.4,0-4.3-2.3-3.3-4.7c0.3-0.8,1-1.5,1.9-1.8
						c0.5-0.2,1-0.3,1.4-0.3c1.3,0,2.4,0.7,3,1.6l20.1,5.1l15.9-13.5c0.6-0.5,1.4-0.8,2.2-0.9c0,0,0.1,0,0.1,0h3.6l1.3-5.9h5.1
						c0.4,2,0.9,3.9,1.3,5.9h3.5c0.3,0,0.7,0,1,0.1c0.5,0.1,1,0.4,1.4,0.7c5.2,4.8,10.4,9.6,15.6,14.3c6.6-2,13.2-4,19.7-6
						c0.8-1.3,2.5-2,4.4-1.4c0.9,0.3,1.5,1,1.9,1.8C601.5,135.4,599.6,137.6,597.3,137.6z"/>
					<path class="st11" d="M561.9,153.7c-1.3,1.1-2.7,2.2-4.2,3.4c-3.2,2.4-6.4,4.3-9.3,5.9c-2.5-1.6-5.1-3.5-7.6-5.9
						c-0.3-0.3-0.6-0.6-0.8-0.8c2.5-3.6,2.8-6,2.5-7.6c0-0.3-0.6-3.8-0.8-5.9c-0.2-1.3,0-1.2,0-6.8c0-0.7,0-1.4,0-2.2
						c0-2.4,0-4.8,0-7.1v-3.4c0,0,0.1,0,0.1,0h2.5c0.4,3.2,0.6,5.8,0.7,7.6c0.2,3.7,0.2,5.6,1.7,6.8c1.3,1,3.2,0.9,3.4,0.8
						c0.3,0,1.6-0.1,2.5-0.8c1.6-1.2,1.4-3.5,1.7-7.6c0.1-1.7,0.4-4,1-6.8h1.4c0.3,0,0.7,0,1,0.1c-0.3,6.3-0.3,9.5-0.1,11
						c0,0.3,0.1,0.5,0.1,0.7c0.1,0.2,0.4,1.3,0.7,2.9c0.1,0.4,0.1,0.8,0.2,1.3c0.4,3.8-0.3,5.2,0,7.6
						C558.7,148.6,559.5,151,561.9,153.7z"/>
					<path class="st10" d="M555.1,112.7c0,3.7-2.6,8-5.9,8c-3.3,0-5.9-4.4-5.9-8c0-1.4,0.4-2.9,1.1-4.3c1.1-2.1,2.8-3.7,4.8-3.7
						c1.9,0,3.5,1.4,4.6,3.3C554.7,109.4,555.1,111.1,555.1,112.7z"/>
					<path class="st9" d="M553.8,108l-4.6,1.8c-1.6-0.4-3.2-0.9-4.8-1.3c1.1-2.1,2.8-3.7,4.8-3.7C551.1,104.7,552.8,106.1,553.8,108
						z"/>
				</g>
			</g>
			<g id="window1_1_">
				<linearGradient id="window1_2_" gradientUnits="userSpaceOnUse" x1="181.6401" y1="272.2251" x2="383.3977" y2="272.2251">
					<stop  offset="0" style="stop-color:#D3E0DF"/>
					<stop  offset="1" style="stop-color:#F1F0E2"/>
				</linearGradient>
				<rect id="window1" x="181.6" y="209.6" class="st13" width="201.8" height="125.2"/>
				<g id="lines_2_">
					<path class="st9" d="M195.8,271.8c-0.2,0-0.4-0.2-0.4-0.4c0-0.2,0.2-0.4,0.4-0.4l136.3-1.7c0.3,0,0.4,0.2,0.4,0.4
						c0,0.2-0.2,0.4-0.4,0.4L195.8,271.8C195.8,271.8,195.8,271.8,195.8,271.8z"/>
					<path class="st9" d="M315,273.3c-0.2,0-0.4-0.2-0.4-0.4c0-0.2,0.2-0.4,0.4-0.4l50.7-0.6c0.2,0,0.4,0.2,0.4,0.4
						c0,0.2-0.2,0.4-0.4,0.4L315,273.3C315,273.3,315,273.3,315,273.3z"/>
				</g>
				<g id="woman1">
					<path class="st10" d="M225.4,290.2c-1.4,0.5-3.3,0.9-4.6,0c-1-0.7-0.9-1.6-2-3.9c-1.4-3-3.6-5.5-3.9-5.4c0,0,0,0.1,0,0.1
						c0,1.3,1.3,15.1,2.6,15.1s7.9,0,7.9,0V290.2z"/>
					<path class="st10" d="M331.6,292c0.5-0.6,1.4-1.5,2.6-1.7c1.2-0.2,2.2,0.3,2.6,0.4c4.6,2.1,11.9,0.5,12.1,1.8
						c0,0.3-0.3,0.6-0.6,0.8c-3.9,2.7-11.8,2.1-16.6,1.7l0,0l0,0V292z"/>
					<path class="st9" d="M294,243.8c0,0,7.7,4.4,7,8.9c-0.6,3.3-1.1,5-0.5,5.9c0.3,0.4,0.5,0.3,1.2,0.8c0.8,0.5,3.7,2.3,3.7,4.5
						c0,1.7-1.7,3.1-3,3.7c-2.8,1.3-6.4-0.1-7-1.7c-0.1-0.2-0.4-0.7-0.4-1.3c0-3.7-3.7-3-3.7-6S292,246,292,246L294,243.8z"/>
					<path class="st10" d="M260.6,290.3c1.3-0.7,1.8-2.4,1.1-3.7c0,0,0,0,0,0c1.7-2.3,5.3-7.5,12-17.5c4.4-6.4,6.2-9.3,5.2-12.4
						c-0.7-2.1-2.5-3.4-3.9-4.2c-5.4,10.9-10.8,21.8-16.2,32.6c-0.3,0-0.6,0.1-0.8,0.3c-1.3,0.7-1.8,2.4-1.1,3.7
						C257.5,290.5,259.2,291,260.6,290.3z"/>
					<path class="st12" d="M334.6,295.3c-16.4,4.9-29.7,4.1-37.4,3c-8.9-1.3-17.8-2.8-23.8-10.2c-2.6-3.2-3.9-6.6-4.7-9.6
						c0,0,0,0,0,0c-0.4-1.5-0.6-3-0.7-4.2c0,0,0-0.1,0-0.1c0,0,0,0,0,0c3.7-1.5,7.3-3,11-4.4c0,0.2,0.1,0.4,0.1,0.6
						c0.2,0.7,0.4,1.5,0.8,2.4c0.6,1.5,1,2.3,1.7,2.9c1.3,1.1,3,0.4,4.5,0.5c4.1,0.1,7.1,5.1,7.9,6.2c2.6,3.5,11.6,6.8,40.1,5.7
						C334.3,290.5,334.5,292.9,334.6,295.3z"/>
					<path class="st12" d="M274.8,278.1c-0.4,4-11.2,5.2-11.2,5.2c-8.4,1-22.9,2.9-41.9,5.2c0.2,2.5,0.5,5,0.7,7.5
						c16.9,0,28.4,0,35.2,0c12.7,0,20.3,0.1,24.7-5.2C285.3,287.2,274.8,277.5,274.8,278.1z"/>
					<path class="st11" d="M289.7,252.7c-0.7,3-12.2,10.7-10.6,17.7l-10.4,8.1c0,0,0,0,0,0c-0.3-0.8-0.5-2-0.7-3.4
						c0,0-0.3-2.4,0-5.2c0.6-5.6,4.1-12,4.5-12.7c0,0,0-5.2,2.2-6S290.5,249.7,289.7,252.7z"/>
					<path class="st10" d="M295,247.5c0,0.8-0.1,1.7-0.4,2.4c-0.9,2.5-3.2,4.3-5.9,4.3c-3.5,0-6.4-3-6.4-6.7c0-2.8,1.6-5.1,3.8-6.2
						c0,0,0,0,0,0c0.1,0,0.2-0.1,0.5-0.2c0.1,0,0.1,0,0.2-0.1c0.6-0.2,1.2-0.3,1.8-0.3C292.1,240.7,295,243.7,295,247.5z"/>
					<path class="st9" d="M295,247.5c0,0.8-0.1,1.7-0.4,2.4c-0.9-0.2-2-0.4-3.4-0.3c-0.5,0-1,0.1-1.5,0.2c0.1-1.1,0-3.5-1.5-6
						c-0.7-1.1-1.5-1.9-2.2-2.4c0,0,0,0,0,0c0.1,0,0.2-0.1,0.5-0.2c0.1,0,0.1,0,0.2-0.1c0.6-0.2,1.2-0.3,1.8-0.3
						C292.1,240.7,295,243.7,295,247.5z"/>
					<path class="st10" d="M310.3,237.7c-1.4,0-2.6,1.2-2.6,2.6c0,0,0,0,0,0c-2.4,1.2-7.8,3.9-17.9,9.2c-6.5,3.4-9.4,5-9.9,8
						c-0.4,2.1,0.6,4,1.4,5.3c9.4-6.7,18.8-13.4,28.2-20c0.3,0.1,0.5,0.1,0.8,0.1c1.4,0,2.6-1.2,2.6-2.6S311.8,237.7,310.3,237.7z"
						/>
				</g>
			</g>
			<g id="window3">
				<linearGradient id="window3_2_" gradientUnits="userSpaceOnUse" x1="703.619" y1="346.0831" x2="699.1827" y2="170.8488">
					<stop  offset="0" style="stop-color:#D3E0DF"/>
					<stop  offset="0.6644" style="stop-color:#F1F0E2"/>
				</linearGradient>
				<rect id="window3_1_" x="610.1" y="196.7" class="st14" width="182.3" height="113.1"/>
				<g id="lines_1_">
					<path class="st9" d="M700.8,261.6h-73.2c-0.2,0-0.4-0.2-0.4-0.4c0-0.2,0.2-0.4,0.4-0.4h73.2c0.2,0,0.4,0.2,0.4,0.4
						C701.3,261.4,701.1,261.6,700.8,261.6z"/>
					<path class="st9" d="M773.2,266.7H700c-0.2,0-0.4-0.2-0.4-0.4c0-0.2,0.2-0.4,0.4-0.4h73.2c0.2,0,0.4,0.2,0.4,0.4
						C773.7,266.5,773.5,266.7,773.2,266.7z"/>
				</g>
				<g id="woman3_1_">
					<path class="st10" d="M689.3,273.7l12.1-42.2l-4.9-1.8l-10.2,43.1c-2.1,0.2-4,2-3.7,2.7c0.2,0.6,2.2,0.3,3.9,0.1
						c1.7-0.2,3.3-0.4,3.4-1C689.9,274.3,689.7,274,689.3,273.7z"/>
					<path class="st9" d="M682.4,271.9c-1.6,1.8-2.3-1-4.5,0.3s-7.1,2.8-9.6-0.4c-0.5-0.7-1.2-1.5-1-1.9c0.3-0.5,1.5,0.2,2.5-0.5
						c0.9-0.6,1-1.7,1-1.8c0.2-1.6-1.3-2.2-1.2-3.8c0-0.8,0.5-1.3,0.8-1.8c1.6-2.4,4.2-1.1,7.1-3.3c0.9-0.7,1.5-1.4,2-2
						c0.3-0.4,0.6-0.7,0.9-0.8c0.3-0.2,0.5-0.3,0.8-0.2c0.3,0.1,0.5,0.4,0.6,0.5c0.1,0.2,0.2,0.3,0.2,0.5c0.1,0.4,0,0.8-0.1,1.2
						c0,0.3-0.1,0.7,0.1,1.1c0.3,1.1,1.3,1.1,1.3,2.1c0,0.8-0.3,1.1-1,1.9c-1,1.2-0.4,2.8,0.9,5S684,270.1,682.4,271.9z"/>
					<path class="st11" d="M682,257.9l-2.4-1.2c0.3-0.4,0.6-0.7,0.9-0.8l1.6,0.8C682.1,257,682,257.4,682,257.9z"/>
					<path class="st10" d="M688.5,254.2c-0.6,0.8-1.4,1.4-2.1,1.9c-2,1.3-4.4,1.4-6.1,0.1c-1.1-0.9-1.7-2.2-1.7-3.7
						c0-1.6,0.5-3.3,1.7-4.8c2.3-2.9,5.9-3.8,8.2-2C690.7,247.6,690.7,251.4,688.5,254.2z"/>
					<path class="st9" d="M686.1,253.6l0.2,2.6c-2,1.3-4.4,1.4-6.1,0.1c-1.1-0.9-1.7-2.2-1.7-3.7
						C681.4,252.8,686.1,253.6,686.1,253.6z"/>
					<path class="st11" d="M713.1,216.3c0.2,2.8,0.3,5.5,0.5,8.3c-0.6,0.3-1.4,0.8-2.3,1.4c-1,0-2.8,0.2-4.6,1.3
						c-0.4,0.3-1.6,1-2.6,2.4c-3.6,4.9-1.4,10.8-5.1,15c-2,2.3-4.9,3.1-8.2,4c-3.3,0.9-4.9,0.5-5.7,0.3c-0.9-0.3-2.7-0.9-3.5-2.4
						c-0.5-1-1.2-3.4,5.7-12.4c0,0,0,0,0,0c2.1-2.7,4.8-6,8.4-10c2.4-2.6,4.6-5,6.7-7.2c0.1-0.1,0.2-0.2,0.3-0.3
						c0.7-0.2,2.2-0.5,4.1-0.7C708.8,215.8,710.9,215.8,713.1,216.3z"/>
					<path class="st10" d="M689.1,244.7c-1.1,1.9-2.5,3.4-4,4.3c-1.5-0.4-2.8-1.2-3.5-2.4c-0.5-1-1.2-3.4,5.7-12.4c0,0,0,0,0,0
						c0.6,0,1.2,0.1,1.7,0.4C691.5,236,691.5,240.5,689.1,244.7z"/>
					<path class="st10" d="M690.1,239.2l-4-3.4l-24.9,37.7c-2.2-0.1-4.3,1.7-4.1,2.3c0.2,0.6,2.1,0.5,3.9,0.4
						c1.7-0.1,3.3-0.1,3.5-0.7c0.1-0.2-0.1-0.5-0.4-0.8L690.1,239.2z"/>
					<path class="st10" d="M727.9,277.2c0,0,1.5,3,1,4.9c-0.1,0.5-0.5,4.2-2.7,5.2c-1.2,0.5-2.8,0.1-3,0.8c-0.1,0.3,0,0.6,0,0.6
						c0.6,1,4.1,1.3,6.2-0.5c1.8-1.5,1-3.2,3.3-5.2c0.6-0.5,1-0.7,1.1-1.3c0.2-0.8-0.4-1.3-2.1-3.6c-0.7-1-2.1-3-2.1-3l0,0
						L727.9,277.2z"/>
					<path class="st10" d="M743.6,268.1c0,0,1.5,3,1,4.9c-0.1,0.5-0.5,4.2-2.7,5.2c-1.2,0.5-2.8,0.1-3,0.8c-0.1,0.3,0,0.6,0,0.6
						c0.6,1,4.1,1.3,6.2-0.5c1.8-1.5,1-3.2,3.3-5.2c0.6-0.5,1-0.7,1.1-1.3c0.2-0.8-0.4-1.3-2.1-3.6c-0.7-1-2.1-3-2.1-3l0,0
						L743.6,268.1z"/>
					<path class="st12" d="M780.7,208.8"/>
					<path class="st12" d="M744.4,271.3l-18.1-23.6c3.9,15,7.3,31.3,7.3,31.3l-5.4,1.2l-20.3-50.1l0-0.1l-5.3-13.1
						c0.4-0.4,0.9-0.9,1.7-1.3c1.7-1,3.4-1,5-0.9c0.8,0,2.5,0.1,4.6,0.8c2.6,0.9,4.3,2.4,5.7,3.7c0,0,1.1,0.9,2,1.9
						c8,9.6,27.7,47.5,27.7,47.5L744.4,271.3z"/>
				</g>
			</g>
		</g>
		<g id="yoga_mat">
			<g>
				<path class="st12" d="M938.5,874c-268.4-0.9-536.9-1.7-805.3-2.6c11.2-71,22.3-142,33.5-212.9c264.9,4.8,529.8,9.7,794.7,14.5
					C953.7,740,946.1,807,938.5,874z"/>
				<path class="st15" d="M960.5,673c-0.8,4.8-1.5,9.7-2.2,14.5c-0.1,0.8-0.2,1.6-0.4,2.3c-4.6,30-9.2,60-13.9,90v0
					c-0.1,0.9-0.3,1.7-0.4,2.6c-4.2,27.1-8.4,54.2-12.5,81.4c-5.6,0-11.2,0.1-16.8,0.2c-0.6,0-1.1,0-1.7,0
					c-47.6,0.5-95.3,0.9-142.9,1.4c-0.6,0-1.1,0-1.7,0c-20.8,0.2-41.6,0.4-62.5,0.6c-25.2,0.2-50.3,0.5-75.5,0.7c-0.6,0-1.1,0-1.7,0
					c-43.1,0.4-86.3,0.8-129.4,1.2c-4.5,0-9,0.1-13.4,0.1c-0.6,0-1.1,0-1.7,0c-40.3,0.4-80.7,0.8-121,1.2c-0.6,0-1.1,0-1.7,0h0
					c-47.5,0.5-95,0.9-142.6,1.4c-0.6,0-1.1,0-1.7,0c-28.2,0.3-56.3,0.5-84.5,0.8c9-74.4,18-148.8,27-223.2
					c28.9,0.9,57.9,1.8,86.8,2.7c0.8,0,1.5,0,2.3,0.1c48,1.5,96,3,144,4.4c0.8,0,1.5,0,2.3,0.1c37.3,1.1,74.6,2.3,111.9,3.5h0
					c0.8,0,1.6,0,2.4,0.1c36.7,1.1,73.4,2.3,110.1,3.4l33.9,1l2.4,0.1l142.1,4.4l2.3,0.1l144,4.4l2.3,0.1L960.5,673z"/>
				<linearGradient id="SVGID_6_" gradientUnits="userSpaceOnUse" x1="132.3652" y1="759.8401" x2="629.0309" y2="759.8401">
					<stop  offset="0" style="stop-color:#C56746"/>
					<stop  offset="1" style="stop-color:#8677A7"/>
				</linearGradient>
				<path class="st16" d="M620.8,769.2c-16.8,43.8-59.7,77.6-121.8,98.7c-4.5,0-9,0.1-13.4,0.1c-0.6,0-1.1,0-1.7,0
					c-40.3,0.4-80.7,0.8-121,1.2c-0.6,0-1.1,0-1.7,0h0c-47.5,0.5-95,0.9-142.6,1.4c-0.6,0-1.1,0-1.7,0c-28.2,0.3-56.3,0.5-84.5,0.8
					c9-74.4,18-148.8,27-223.2c28.9,0.9,57.9,1.8,86.8,2.7c0.8,0,1.5,0,2.3,0.1c48,1.5,96,3,144,4.4c0.8,0,1.5,0,2.3,0.1
					c37.3,1.1,74.6,2.3,111.9,3.5h0c0.8,0,1.6,0,2.4,0.1c36.7,1.1,73.4,2.3,110.1,3.4C634.9,713.5,629.1,747.5,620.8,769.2z"/>
				<g id="lines_4_">
					<path class="st17" d="M283.4,732.1c-3.8,9.2-11,13.4-19.4,18.2c-6.2,3.6-13.2,7.6-20,14.4c-20.9,20.7-29.5,56.2-25.5,105.9
						c-0.6,0-1.1,0-1.7,0c-4-50.1,4.7-86.1,26-107.1c7-7,14.1-11.1,20.4-14.7c8.4-4.9,15.1-8.7,18.6-17.4
						c7.5-18.3-4.6-45.3-35.7-80.5c0.8,0,1.5,0,2.3,0.1C279.3,686.2,291.1,713.4,283.4,732.1z"/>
					<path class="st17" d="M428,734.6c-3.8,9.2-11,13.4-19.3,18.2c-6.2,3.6-13.2,7.6-20,14.4c-20.4,20.1-29,54.4-25.8,102
						c-0.6,0-1.1,0-1.7,0h0c-3.2-48,5.6-82.7,26.3-103.2c7-6.9,14.1-11.1,20.4-14.7c8.4-4.9,15.1-8.7,18.6-17.4
						c7.3-17.9-4.1-44.3-34-78.5c0.8,0,1.5,0,2.3,0.1C424.3,689.8,435.5,716.3,428,734.6z"/>
					<path class="st17" d="M551.3,748.2c-3.8,9.2-11,13.4-19.4,18.2c-6.2,3.6-13.2,7.6-20,14.4c-18.2,18-27,47.2-26.4,87.1
						c-0.6,0-1.1,0-1.7,0c-0.6-40.4,8.4-70.1,26.9-88.4c7-6.9,14.1-11.1,20.4-14.7c8.4-4.9,15.1-8.7,18.6-17.4
						c8-19.6-6.5-49.4-43.2-88.6c0.8,0,1.6,0,2.4,0.1C545.3,698.2,559.5,728.1,551.3,748.2z"/>
					<path class="st17" d="M695.9,750.8c-3.8,9.2-11,13.4-19.4,18.2c-6.2,3.6-13.2,7.6-20,14.4c-17.6,17.4-26.4,45.3-26.5,83.2
						c-0.6,0-1.1,0-1.7,0c0-38.4,9.1-66.7,27-84.4c7-6.9,14.1-11.1,20.4-14.7c8.4-4.9,15.1-8.7,18.6-17.4c7.9-19.3-6-48.4-41.3-86.7
						l2.4,0.1C690.3,701.7,704,731,695.9,750.8z"/>
					<path class="st17" d="M835.6,749.9c-3.8,9.2-11,13.4-19.3,18.2c-6.2,3.6-13.2,7.6-20,14.4c-17.5,17.3-26.4,45-26.5,82.7
						c-0.6,0-1.1,0-1.7,0c0.1-38.2,9.1-66.3,26.9-83.9c7-7,14.1-11,20.4-14.7c8.4-4.9,15.1-8.7,18.6-17.4
						c7.5-18.4-4.8-45.7-36.5-81.4l2.3,0.1C831.2,703.6,843.2,731.1,835.6,749.9z"/>
					<path class="st17" d="M939.5,783.9c1.5-1.5,3-2.9,4.6-4.1c-0.1,0.9-0.3,1.7-0.4,2.6c-1,0.9-2,1.8-3,2.8
						c-16.9,16.7-25.7,43.1-26.4,78.8c-0.6,0-1.1,0-1.7,0C913.3,827.8,922.3,800.9,939.5,783.9z"/>
					<path class="st17" d="M958.3,687.5c-0.1,0.8-0.2,1.6-0.4,2.3c-4.2-5.5-8.9-11.4-14.2-17.4l2.3,0.1
						C950.6,677.7,954.6,682.7,958.3,687.5z"/>
				</g>
				<linearGradient id="SVGID_7_" gradientUnits="userSpaceOnUse" x1="215.4883" y1="766.1544" x2="870.9243" y2="766.1544">
					<stop  offset="0" style="stop-color:#153E5C"/>
					<stop  offset="0.9023" style="stop-color:#8677A7"/>
				</linearGradient>
				<path class="st18" d="M864,733.1c-6.4,4.8-16.3,11.3-29.3,16.6c-42.9,17.4-83.7,6.9-106.6,1.9c-52.5-11.5-12.5,5.5-153.5-13.5
					C415,716.6,321.6,689,302.2,722.7c-8.4,14.6-2.4,40.1-19.4,48.9c-6.5,3.4-9.7,0.9-24.9,2.8c-17.9,2.2-42.6,9.4-42.4,15.7
					c0.1,6.6,27.5,15.6,53.7,12.3c18.8-2.4,21.1-9.1,33.9-6.8c15.5,2.8,16.8,13.4,38.6,21.6c9,3.4,16.2,4.3,28.1,6.1
					c18.6,2.7,33,2.2,39.2,1.9c129.7-5.3,201.9-11.5,201.9-11.5c62.5-5.4,124.2-19.1,186.9-23.1c21.5-1.4,62.5-3.6,71.3-25.7
					C873.5,754.1,868.9,741.9,864,733.1z"/>
			</g>
		</g>
		<g id="woman_3_">
			<polygon class="st19" points="549.6,493.6 564.9,487.9 557.3,472.7 			"/>
			<g id="woman_2_">
				<path id="hair_back" class="st20" d="M456,576.9c-4.6,4.8-11.7,6.8-19.8,6.8h-1.1c-16.5-0.2-36.8-7.9-48.4-15
					c-9.7-5.9-13.7-11.7-15.4-14.4c-7.1-11.4-6.1-24.1-5-32.4c4.6-34.1,35.1-164,66.4-159.5c4.3,0.6,7.1,3.6,11.7,8.4
					c17.2,18.1,12.9,46.1,11.9,52.7c-2,12.8-6.3,21.4-8.2,25.8C425.9,500.3,476.2,555.6,456,576.9z"/>
				<g id="woman">
					<g id="legs">
						<g id="back_leg">
							
								<linearGradient id="SVGID_8_" gradientUnits="userSpaceOnUse" x1="348.6662" y1="691.7341" x2="733.4981" y2="691.7341" gradientTransform="matrix(0.9994 3.388686e-02 -3.388686e-02 0.9994 28.8059 -44.1056)">
								<stop  offset="0" style="stop-color:#153E5C"/>
								<stop  offset="1" style="stop-color:#271C41"/>
							</linearGradient>
							<path class="st21" d="M716.5,758.6c-14.2-0.2-24.4-13.7-30.7-21.2c-37.2-44.8-63.3-36.1-102.6-89c-6.7-9-11.5-16.7-14.3-21.4
								c-10,17.1-37.9,62-81.7,95.9c-8.8,6.8-37.7,28.2-70.8,39c-5.1,1.7-10.2,3.1-15.1,4.3c-19,4.6-36.4,5.9-51.4,5.7
								c8.4-16,18.4-33.4,30.2-51.5c5.6-8.6,11.7-17.4,18.1-26.3c2.2-3,4.4-6,6.6-8.9c15.4-20.4,30.7-37.9,44.8-52.7
								c0.2-0.2,0.4-0.5,0.6-0.7c0.7-0.7,1-1.1,1-1.1c2.1-2.2,4.2-4.3,6.3-6.4c30.2-30.4,53.1-47.7,68.8-57.5
								c3.9-2.4,7.3-4.4,10.3-6c9.9-5.3,14.9-6.4,14.9-6.4c0.4-0.1,1.2-0.3,2.3-0.5c0.8-0.2,1.6-0.3,2.5-0.4c0,0,1.4-0.2,2.7-0.4
								c37.9-4,147.5,153.5,147.5,153.5c9.2,12.6,18.4,25.6,27.6,39c0.5,0.7,1.8,2.5,1.5,4.6C734.9,755.5,723.7,758.7,716.5,758.6z"
								/>
							<path class="st22" d="M536.8,560.7c-3.4,14.3-9.3,32.1-20,50.3c-10.5,17.7-19.2,32.5-35.8,40.8c-7.8,3.9-11.7,3.5-14.6,7.9
								c-8.2,12.5,6.8,41,20.9,63.3c-19.6,15.9-43.1,30-70.8,39c-5.1,1.7-10.2,3.1-15.1,4.3c-11.3-12.3-18.2-28.4-21.3-45.8
								c5.6-8.6,11.7-17.4,18.1-26.3c2.2-3,4.4-6,6.6-8.9c18.4-24.1,38.9-46.4,44.8-52.7c0.2-0.3,0.5-0.5,0.6-0.7
								c0.7-0.7,1-1.1,1-1.1c2.1-2.2,4.2-4.3,6.3-6.4c30.2-30.4,53.1-47.7,68.8-57.5C530.4,564.3,533.8,562.3,536.8,560.7z"/>
						</g>
						<g id="front_leg_1_">
							<g id="feet">
								<path class="st19" d="M862.7,742.1c-2.5,16.2-0.2,24.7-14,26.5c-1.1,0.2-2.4,0.3-3.7,0.5c-7.2,0.9-16.7,1.9-24.7,2.7
									c-8.5,0.9-15.2,1.5-15.2,1.5l10-22.3c0.7-0.1,1.4-0.3,2-0.5c4.2-1,7.9-2.1,11-3.4c7.8-3,12.5-6.6,15.4-10.1
									c1.2-1.4,2.1-2.9,2.8-4.2c5-9.7,7.4-33.1,11-41c0.4-0.8,1.3-2.9,2.8-3.8c0.4-0.2,0.7-0.4,1.2-0.4c0,0,1.1-0.1,2.3,0.9
									C868.2,692.1,866.4,718.9,862.7,742.1z"/>
								<path class="st23" d="M845.1,769.1c-7.2,0.9-16.7,1.9-24.7,2.7l-3.1-21.2c4.2-1,7.9-2.1,11-3.4L845.1,769.1z"/>
								
									<linearGradient id="SVGID_9_" gradientUnits="userSpaceOnUse" x1="857.2221" y1="649.679" x2="879.2083" y2="649.679" gradientTransform="matrix(0.9958 -9.128118e-02 9.128118e-02 0.9958 -71.2884 146.3592)">
									<stop  offset="2.383814e-03" style="stop-color:#FF931E"/>
									<stop  offset="1" style="stop-color:#FFFFFF"/>
								</linearGradient>
								<path class="st24" d="M857.9,733c-4.7,8.9-10.3,7.2-14.3,4.2c1.2-1.4,2.1-2.9,2.8-4.2c5-9.7,7.4-33.1,11-41
									c0.4-0.8,1.3-2.9,2.8-3.8C863.4,697.6,864.2,721,857.9,733z"/>
							</g>
							<g id="front_leg">
								<path class="st11" d="M826.5,772.2c-8.8,1.3-18.3,2.6-28.5,4c-1.9,0.3-3.8,0.5-5.8,0.8c-13.7,1.8-28.5,3.8-44.3,5.7
									c-0.8,0.1-1.7,0.2-2.5,0.3c-7.8,1-15.8,1.9-24.1,2.9c-0.8,0.1-1.6,0.2-2.4,0.3c-14.3,1.7-29.2,3.3-44.8,5
									c-1.2,0.1-2.5,0.3-3.7,0.4h0c-14.7,1.5-30,3.1-45.7,4.6c-1.5,0.1-3,0.3-4.5,0.4c-0.1,0-0.2,0-0.3,0
									c-15,1.4-29.3,2.7-42.9,3.8c-1.1,0.1-2.2,0.2-3.2,0.3h0c-16.6,1.4-32.2,2.5-46.8,3.4c-2,0.1-4,0.3-6,0.4
									c-15.4,1-29.6,1.7-42.7,2.2c-0.8,0-1.6,0.1-2.4,0.1h0c-5.3,0.2-10.4,0.3-15.3,0.4h0c-0.8,0-1.6,0-2.3,0.1
									c-17.3,0.4-32.4,0.3-45.9-0.2h0c-1.3,0-2.7-0.1-4-0.2h0c-4.7-0.2-9.1-0.4-13.4-0.8c-1.3-0.1-2.5-0.2-3.8-0.3
									c-49.7-3.9-69-14.9-79.1-30c0,0,0,0,0,0c0,0,0,0,0,0c-0.7-1-1.3-2-1.9-3c-6.6-11.4-12.7-31-3.9-65.5c0.5-1.8,1-3.6,1.5-5.5
									c1.8-6.1,4-12.6,6.7-19.6c4.5,0.5,8.8,1.1,12.9,1.6c33.2,4.3,56.1,8.3,56.7,9.2c0.5,0.8,1,1.5,1,1.5
									c0.1,0.3,0.4,0.7,0.7,1.2c0,0,7,11.6,26.8,16c0.3,0.1,0.6,0.1,0.9,0.2c1.4,0.3,3.9,0.7,7.5,1.1c0.2,0,0.4,0.1,0.6,0.1
									c4.7,0.6,11.1,1.3,19.1,2.2c0.9,0.1,1.7,0.2,2.6,0.3c2,0.2,4.1,0.4,6.2,0.6c1,0.1,2,0.2,3,0.3c2.9,0.3,6,0.6,9.2,0.9
									c1,0.1,2.1,0.2,3.2,0.3l1.9,0.2c0.8,0.1,1.6,0.1,2.4,0.2c0.3,0,0.5,0,0.8,0.1c0,0,0,0,0,0c0.9,0.1,1.7,0.2,2.6,0.3
									c0.7,0.1,1.3,0.1,2,0.2c2,0.2,4,0.4,6.1,0.6c0.7,0.1,1.4,0.1,2.1,0.2c0.5,0,0.9,0.1,1.4,0.1c0,0,0,0,0,0
									c0.2,0,0.5,0,0.7,0.1c1.4,0.1,2.9,0.3,4.3,0.4c0.5,0,1,0.1,1.4,0.1c2.2,0.2,4.5,0.4,6.7,0.6c1,0.1,2.1,0.2,3.1,0.3
									c1.3,0.1,2.5,0.2,3.8,0.4c0.4,0,0.8,0.1,1.2,0.1c0,0,0,0,0,0c10.3,1,21.4,2,33.2,3c1.7,0.2,3.4,0.3,5.2,0.5
									c1.9,0.2,3.7,0.3,5.6,0.5c1.2,0.1,2.5,0.2,3.7,0.3c0.7,0.1,1.3,0.1,2,0.2c1.8,0.2,3.7,0.3,5.5,0.5c1.7,0.2,3.5,0.3,5.2,0.5
									c1,0.1,2.1,0.2,3.1,0.3c1,0.1,2.1,0.2,3.1,0.3c2.1,0.2,4.2,0.4,6.3,0.6c1.1,0.1,2.1,0.2,3.2,0.3c0.1,0,0.3,0,0.4,0
									c0,0,0,0,0,0c2.1,0.2,4.1,0.4,6.2,0.5c1,0.1,2.1,0.2,3.2,0.3c1.7,0.2,3.4,0.3,5.1,0.4c2.6,0.2,5.1,0.5,7.7,0.7
									c3.2,0.3,6.5,0.6,9.9,0.9c0.4,0,0.8,0.1,1.2,0.1c1.3,0.1,2.5,0.2,3.8,0.3c3.9,0.3,7.8,0.7,11.8,1c1.3,0.1,2.6,0.2,3.8,0.3
									c1.3,0.1,2.7,0.2,4,0.3c1.3,0.1,2.7,0.2,4,0.3c0.5,0,0.9,0.1,1.4,0.1c1.4,0.1,2.8,0.2,4.2,0.4c3.3,0.3,6.6,0.5,9.9,0.8
									c2.1,0.2,4.3,0.4,6.5,0.5c0.5,0,1,0.1,1.6,0.1c2.3,0.2,4.7,0.4,7,0.6c8.7,0.7,17.5,1.5,26.5,2.2c13.8,1.1,28,2.3,42.5,3.5
									c2,0.2,4,0.3,6,0.5h0c4.3,0.4,8.5,0.7,12.9,1.1c0.8,0.1,1.7,0.1,2.5,0.2c19.7,1.6,39.9,3.2,60.6,4.9c0.1,0,0.1,0,0.2,0
									c0,0.2,0,0.3,0,0.5v0c0.4,4.3,0.8,8.7,1.2,13c0,0.4,0.1,0.8,0.1,1.2c0.2,2,0.4,4,0.6,6C826.3,770.3,826.4,771.2,826.5,772.2
									z"/>
								<g class="st25">
									<g>
										<path class="st12" d="M469.6,718.3l-0.6,0.3l-0.2-0.4C469,718.3,469.3,718.3,469.6,718.3z"/>
										<path class="st12" d="M490.6,720.9l-4.8,2.7l-2-3.9c0.2,0,0.5,0,0.7,0.1c1.4,0.1,2.9,0.3,4.3,0.4c0.5,0,1,0.1,1.4,0.1
											L490.6,720.9z"/>
										<path class="st12" d="M507.4,725.9l-4.8,2.7l-2.5-4.8l3.9-2.2c0.4,0,0.8,0.1,1.2,0.1c0,0,0,0,0,0L507.4,725.9z"/>
										<polygon class="st12" points="522.5,730.4 519.9,725.5 515.2,728.2 517.7,733.1 										"/>
										<polygon class="st12" points="539.3,735.4 536.7,730.5 532,733.2 534.5,738.1 										"/>
										<polygon class="st12" points="556.1,740.4 553.5,735.5 548.8,738.2 551.3,743 										"/>
										<polygon class="st12" points="572.9,745.3 570.4,740.5 565.6,743.2 568.1,748 										"/>
										<polygon class="st12" points="590.4,750.5 587.9,745.7 583.1,748.3 585.6,753.2 										"/>
										<polygon class="st12" points="607.2,755.5 604.7,750.6 599.9,753.3 602.4,758.2 										"/>
										<polygon class="st12" points="624,760.5 621.5,755.6 616.7,758.3 619.3,763.2 										"/>
										<polygon class="st12" points="640.8,765.4 638.3,760.6 633.5,763.3 636.1,768.1 										"/>
										<polygon class="st12" points="655.9,769.9 653.4,765.1 648.6,767.8 651.2,772.6 										"/>
										<polygon class="st12" points="672.7,774.9 670.2,770 665.4,772.7 668,777.6 										"/>
										<polygon class="st12" points="689.5,779.9 687,775 682.2,777.7 684.8,782.6 										"/>
										<polygon class="st12" points="706.4,784.8 703.8,780 699.1,782.7 701.6,787.5 										"/>
										<path class="st12" d="M721.2,785.9c-0.8,0.1-1.6,0.2-2.4,0.3l2-1.1L721.2,785.9z"/>
										<polygon class="st12" points="326.9,691.4 324.4,686.5 319.6,689.2 322.2,694.1 										"/>
										<polygon class="st12" points="337.3,698.5 342,695.8 339.5,691 334.7,693.7 										"/>
										<polygon class="st12" points="354.1,703.5 358.8,700.8 356.3,696 351.5,698.7 										"/>
										<polygon class="st12" points="370.9,708.5 375.7,705.8 373.1,700.9 368.4,703.6 										"/>
										<polygon class="st12" points="392.5,710.8 389.9,705.9 385.2,708.6 387.7,713.5 										"/>
										<polygon class="st12" points="409.4,715.8 406.9,710.9 402.1,713.6 404.6,718.5 										"/>
										<polygon class="st12" points="426.2,720.8 423.7,715.9 418.9,718.6 421.5,723.5 										"/>
										<polygon class="st12" points="443,725.7 440.5,720.9 435.7,723.6 438.3,728.4 										"/>
										<polygon class="st12" points="459.9,730.7 457.3,725.9 452.6,728.6 455.1,733.4 										"/>
										<polygon class="st12" points="470.2,737.9 474.9,735.2 472.4,730.3 467.6,733 										"/>
										<polygon class="st12" points="487,742.9 491.8,740.2 489.2,735.3 484.5,738 										"/>
										<polygon class="st12" points="503.8,747.8 508.6,745.2 506,740.3 501.3,743 										"/>
										<polygon class="st12" points="525.4,750.1 522.9,745.3 518.1,748 520.6,752.8 										"/>
										<polygon class="st12" points="542.9,755.3 540.3,750.5 535.6,753.1 538.1,758 										"/>
										<polygon class="st12" points="559.7,760.3 557.2,755.4 552.4,758.1 554.9,763 										"/>
										<polygon class="st12" points="576.5,765.3 574,760.4 569.2,763.1 571.7,767.9 										"/>
										<polygon class="st12" points="593.3,770.2 590.8,765.4 586,768.1 588.6,772.9 										"/>
										<polygon class="st12" points="603.6,777.4 608.4,774.7 605.9,769.9 601.1,772.5 										"/>
										<polygon class="st12" points="620.5,782.4 625.2,779.7 622.7,774.8 617.9,777.5 										"/>
										<polygon class="st12" points="637.3,787.4 642,784.7 639.5,779.8 634.7,782.5 										"/>
										<polygon class="st12" points="658.9,789.6 656.3,784.8 651.6,787.5 654.1,792.3 										"/>
										<path class="st12" d="M673.9,791.1c-1.2,0.1-2.5,0.3-3.7,0.4l3-1.7L673.9,791.1z"/>
										<path class="st12" d="M309.3,705.4l-3.4,1.9c0.5-1.8,1-3.6,1.5-5.5L309.3,705.4z"/>
										<polygon class="st12" points="321.3,713 326.1,710.4 323.5,705.5 318.8,708.2 										"/>
										<polygon class="st12" points="338.1,718 342.9,715.3 340.4,710.5 335.6,713.2 										"/>
										<polygon class="st12" points="354.9,723 359.7,720.3 357.2,715.5 352.4,718.2 										"/>
										<polygon class="st12" points="370,727.5 374.8,724.8 372.3,719.9 367.5,722.6 										"/>
										<polygon class="st12" points="386.8,732.4 391.6,729.8 389.1,724.9 384.3,727.6 										"/>
										<polygon class="st12" points="403.7,737.4 408.4,734.7 405.9,729.9 401.1,732.6 										"/>
										<polygon class="st12" points="420.5,742.4 425.2,739.7 422.7,734.9 417.9,737.6 										"/>
										<polygon class="st12" points="437.4,747.4 442.2,744.7 439.6,739.9 434.9,742.6 										"/>
										<polygon class="st12" points="454.2,752.4 459,749.7 456.5,744.9 451.7,747.5 										"/>
										<polygon class="st12" points="471,757.4 475.8,754.7 473.3,749.8 468.5,752.5 										"/>
										<polygon class="st12" points="487.9,762.4 492.6,759.7 490.1,754.8 485.3,757.5 										"/>
										<polygon class="st12" points="502.9,766.8 507.7,764.1 505.2,759.3 500.4,762 										"/>
										<polygon class="st12" points="519.8,771.8 524.5,769.1 522,764.3 517.2,767 										"/>
										<polygon class="st12" points="536.6,776.8 541.3,774.1 538.8,769.2 534,771.9 										"/>
										<polygon class="st12" points="553.4,781.8 558.2,779.1 555.6,774.2 550.9,776.9 										"/>
										<polygon class="st12" points="570.9,786.9 575.6,784.2 573.1,779.4 568.3,782.1 										"/>
										<polygon class="st12" points="587.7,791.9 592.5,789.2 589.9,784.4 585.2,787.1 										"/>
										<polygon class="st12" points="604.5,796.9 609.3,794.2 606.7,789.4 602,792 										"/>
										<path class="st12" d="M624.5,796.1c-1.5,0.1-3,0.3-4.5,0.4c-0.1,0-0.2,0-0.3,0l3.9-2.2L624.5,796.1z"/>
										<polygon class="st12" points="307.4,727.8 312.2,725.1 309.7,720.3 304.9,722.9 										"/>
										<polygon class="st12" points="320,727.4 322.5,732.3 327.3,729.6 324.7,724.7 										"/>
										<polygon class="st12" points="336.8,732.4 339.3,737.2 344.1,734.6 341.6,729.7 										"/>
										<polygon class="st12" points="353.6,737.4 356.1,742.2 360.9,739.5 358.4,734.7 										"/>
										<polygon class="st12" points="373,747.2 377.7,744.5 375.2,739.7 370.4,742.4 										"/>
										<polygon class="st12" points="389.9,752.2 394.7,749.5 392.1,744.7 387.4,747.4 										"/>
										<polygon class="st12" points="406.7,757.2 411.5,754.5 408.9,749.7 404.2,752.3 										"/>
										<polygon class="st12" points="423.5,762.2 428.3,759.5 425.8,754.6 421,757.3 										"/>
										<polygon class="st12" points="440.3,767.2 445.1,764.5 442.6,759.6 437.8,762.3 										"/>
										<polygon class="st12" points="452.9,766.8 455.4,771.6 460.2,768.9 457.7,764.1 										"/>
										<polygon class="st12" points="469.7,771.7 472.3,776.6 477,773.9 474.5,769.1 										"/>
										<polygon class="st12" points="486.5,776.7 489.1,781.6 493.8,778.9 491.3,774 										"/>
										<polygon class="st12" points="505.9,786.6 510.6,783.9 508.1,779 503.3,781.7 										"/>
										<polygon class="st12" points="523.4,791.7 528.1,789 525.6,784.2 520.8,786.9 										"/>
										<polygon class="st12" points="540.2,796.7 544.9,794 542.4,789.2 537.6,791.9 										"/>
										<polygon class="st12" points="557,801.7 561.8,799 559.2,794.2 554.5,796.8 										"/>
										<path class="st12" d="M576.7,800.3c-1.1,0.1-2.2,0.2-3.2,0.3l2.6-1.5L576.7,800.3z"/>
										<polygon class="st12" points="304.9,739.7 307.4,744.6 312.2,741.9 309.6,737 										"/>
										<polygon class="st12" points="329,746.9 326.4,742 321.7,744.7 324.2,749.6 										"/>
										<polygon class="st12" points="345.8,751.8 343.3,747 338.5,749.7 341,754.5 										"/>
										<polygon class="st12" points="358.3,751.5 353.6,754.2 356.1,759 360.9,756.3 										"/>
										<polygon class="st12" points="375.2,756.4 370.4,759.1 372.9,764 377.7,761.3 										"/>
										<polygon class="st12" points="392,761.4 387.2,764.1 389.7,769 394.5,766.3 										"/>
										<polygon class="st12" points="408.8,766.4 404,769.1 406.6,773.9 411.3,771.3 										"/>
										<polygon class="st12" points="425.7,771.4 421,774.1 423.5,779 428.3,776.3 										"/>
										<polygon class="st12" points="437.8,779.1 440.3,783.9 445.1,781.2 442.5,776.4 										"/>
										<polygon class="st12" points="461.9,786.2 459.4,781.4 454.6,784.1 457.1,788.9 										"/>
										<polygon class="st12" points="478.7,791.2 476.2,786.4 471.4,789 473.9,793.9 										"/>
										<polygon class="st12" points="491.3,790.8 486.5,793.5 489,798.4 493.8,795.7 										"/>
										<polygon class="st12" points="508.1,795.8 503.3,798.5 505.8,803.3 510.6,800.6 										"/>
										<path class="st12" d="M526.6,804c-2,0.1-4,0.3-6,0.4l-0.5-1l4.8-2.7L526.6,804z"/>
										<polygon class="st12" points="310.8,756.3 306.1,759 308.6,763.8 313.4,761.1 										"/>
										<polygon class="st12" points="327.7,761.2 322.9,763.9 325.4,768.8 330.2,766.1 										"/>
										<polygon class="st12" points="344.5,766.2 339.7,768.9 342.2,773.8 347,771.1 										"/>
										<polygon class="st12" points="361.3,771.2 356.5,773.9 359.1,778.7 363.8,776 										"/>
										<polygon class="st12" points="378.2,776.2 373.5,778.9 376,783.7 380.8,781.1 										"/>
										<polygon class="st12" points="395,781.2 390.3,783.9 392.8,788.7 397.6,786 										"/>
										<polygon class="st12" points="411.9,786.2 407.1,788.9 409.6,793.7 414.4,791 										"/>
										<polygon class="st12" points="428.7,791.2 423.9,793.8 426.4,798.7 431.2,796 										"/>
										<polygon class="st12" points="443.8,795.6 439,798.3 441.5,803.2 446.3,800.5 										"/>
										<path class="st12" d="M463.1,805.4l-3,1.7h0c-0.8,0-1.6,0-2.3,0.1l-2-3.9l4.8-2.7L463.1,805.4z"/>
										<path class="st12" d="M477.9,806.6c-0.8,0-1.6,0.1-2.4,0.1l1.9-1.1L477.9,806.6z"/>
										<path class="st12" d="M311.7,775.8C311.7,775.8,311.7,775.8,311.7,775.8L311.7,775.8L311.7,775.8z"/>
										<polygon class="st12" points="328.5,780.7 323.8,783.4 326.3,788.3 331.1,785.6 										"/>
										<polygon class="st12" points="338.8,787.9 341.4,792.7 346.1,790.1 343.6,785.2 										"/>
										<polygon class="st12" points="355.7,792.9 358.2,797.7 363,795 360.4,790.2 										"/>
										<polygon class="st12" points="372.5,797.9 375,802.7 379.8,800 377.2,795.2 										"/>
										<path class="st12" d="M396.6,805l-2,1.1c-1.3-0.1-2.5-0.2-3.8-0.3l-1.6-3l4.8-2.7L396.6,805z"/>
										<path class="st12" d="M411.9,807c-1.3,0-2.7-0.1-4-0.2l3-1.7L411.9,807z"/>
									</g>
									<g>
										<path class="st12" d="M824.3,749.2l-0.3-0.5c0.1,0,0.1,0,0.2,0C824.2,748.8,824.3,749,824.3,749.2z"/>
										<path class="st12" d="M748,742.5l-4.4,2.5l-1.6-3C744,742.2,746,742.4,748,742.5z"/>
										<path class="st12" d="M765.3,747.4l-4.8,2.7l-2.5-4.8l2.9-1.6c0.8,0.1,1.7,0.1,2.5,0.2L765.3,747.4z"/>
										<polygon class="st12" points="779.6,747.5 774.8,750.2 777.3,755 782.1,752.4 										"/>
										<polygon class="st12" points="796.4,752.5 791.6,755.2 794.2,760 798.9,757.3 										"/>
										<polygon class="st12" points="813.2,757.5 808.4,760.2 811,765 815.7,762.3 										"/>
										<path class="st12" d="M826.2,769.4l-0.1,0.1l-2.5-4.9l2.1-1.2C825.8,765.4,826,767.4,826.2,769.4z"/>
										<path class="st12" d="M643.9,733.9l-1,0.6l-0.4-0.7C643,733.8,643.4,733.9,643.9,733.9z"/>
										<path class="st12" d="M665.1,737l-4.8,2.7l-2.4-4.6c2.1,0.2,4.3,0.4,6.5,0.5L665.1,737z"/>
										<polygon class="st12" points="679.4,737.1 674.6,739.8 677.2,744.6 682,742 										"/>
										<polygon class="st12" points="696.2,742.1 691.5,744.8 694,749.6 698.8,746.9 										"/>
										<polygon class="st12" points="713,747.1 708.3,749.7 710.8,754.6 715.6,751.9 										"/>
										<polygon class="st12" points="723.4,754.2 725.9,759.1 730.7,756.4 728.1,751.5 										"/>
										<polygon class="st12" points="740.2,759.2 742.7,764 747.5,761.4 744.9,756.5 										"/>
										<polygon class="st12" points="757,764.2 759.5,769 764.3,766.3 761.8,761.5 										"/>
										<polygon class="st12" points="773.8,769.1 776.3,774 781.1,771.3 778.6,766.5 										"/>
										<path class="st12" d="M798,776.1c-1.9,0.3-3.8,0.5-5.8,0.8l-1.4-2.8l4.8-2.7L798,776.1z"/>
										<path class="st12" d="M565.6,727.1l-3.8,2.2l-1.4-2.6C562.1,726.8,563.8,727,565.6,727.1z"/>
										<path class="st12" d="M583.3,731.6l-4.8,2.7l-2.5-4.8l2.1-1.2c1.1,0.1,2.1,0.2,3.2,0.3c0.1,0,0.3,0,0.4,0c0,0,0,0,0,0
											L583.3,731.6z"/>
										<polygon class="st12" points="592.8,734.4 595.4,739.3 600.1,736.6 597.6,731.7 										"/>
										<polygon class="st12" points="610.3,739.6 612.9,744.5 617.6,741.8 615.1,736.9 										"/>
										<polygon class="st12" points="627.1,744.6 629.7,749.4 634.4,746.7 631.9,741.9 										"/>
										<polygon class="st12" points="644,749.6 646.5,754.4 651.3,751.7 648.7,746.9 										"/>
										<polygon class="st12" points="660.8,754.5 663.3,759.4 668.1,756.7 665.5,751.9 										"/>
										<polygon class="st12" points="675.9,759 678.4,763.9 683.2,761.2 680.6,756.3 										"/>
										<polygon class="st12" points="692.7,764 695.2,768.8 700,766.2 697.4,761.3 										"/>
										<polygon class="st12" points="709.5,769 712,773.8 716.8,771.1 714.3,766.3 										"/>
										<polygon class="st12" points="726.3,773.9 728.8,778.8 733.6,776.1 731.1,771.3 										"/>
										<path class="st12" d="M750.5,781.1l-2.7,1.5c-0.8,0.1-1.7,0.2-2.5,0.3l-2.1-4l4.8-2.7L750.5,781.1z"/>
									</g>
								</g>
								<linearGradient id="SVGID_10_" gradientUnits="userSpaceOnUse" x1="412.1052" y1="729.3437" x2="699.5152" y2="729.3437">
									<stop  offset="0" style="stop-color:#FFFFFF"/>
									<stop  offset="0.7781" style="stop-color:#87AEB4"/>
								</linearGradient>
								<path class="st26" d="M699.5,738.6c-6.2,0.5-12.3,1-18.6,1.5c-2,0.2-3.9,0.3-5.9,0.5c-14,1-28.1,2-42.4,2.8h0
									c-1.2,0.1-2.4,0.1-3.6,0.2c-5.3,0.3-10.6,0.6-16,0.8c-0.1,0-0.1,0-0.2,0c-13.5,0.7-27.2,1.2-41.1,1.6c-1.5,0-3,0.1-4.6,0.1
									h0c-9.6,0.3-19.2,0.5-29,0.7c-4.7,0.1-9.5,0.2-14.5,0.1c-1.2,0-2.4,0-3.7,0h0c-4.4-0.1-9-0.2-13.6-0.5
									c-1.2-0.1-2.3-0.2-3.5-0.2c-20.1-1.6-41.9-6-64.6-17.7c-4.7-2.4-9-4.9-12.8-7.3c-1.8-1.2-3.5-2.3-5.1-3.4
									c-3.2-2.2-6-4.2-8.3-6c0.3,0.1,0.6,0.1,0.9,0.2c1.4,0.3,3.9,0.7,7.5,1.1c0.2,0,0.4,0.1,0.6,0.1c4.7,0.6,11.1,1.3,19.1,2.2
									c0.9,0.1,1.7,0.2,2.6,0.3c2,0.2,4.1,0.4,6.2,0.6c1,0.1,2,0.2,3,0.3c2.9,0.3,6,0.6,9.2,0.9c1,0.1,2.1,0.2,3.2,0.3l1.9,0.2
									c0.8,0.1,1.6,0.1,2.4,0.2c0.3,0,0.5,0,0.8,0.1c0,0,0,0,0,0c0.9,0.1,1.7,0.2,2.6,0.3c0.7,0.1,1.3,0.1,2,0.2
									c2,0.2,4,0.4,6.1,0.6c0.7,0.1,1.4,0.1,2.1,0.2c0.5,0,0.9,0.1,1.4,0.1c0,0,0,0,0,0c0.2,0,0.5,0,0.7,0.1
									c1.4,0.1,2.9,0.3,4.3,0.4c0.5,0,1,0.1,1.4,0.1c2.2,0.2,4.5,0.4,6.7,0.6c1,0.1,2.1,0.2,3.1,0.3c1.3,0.1,2.5,0.2,3.8,0.4
									c0.4,0,0.8,0.1,1.2,0.1c0,0,0,0,0,0c10.3,1,21.4,2,33.2,3c1.7,0.2,3.4,0.3,5.2,0.5c1.9,0.2,3.7,0.3,5.6,0.5
									c1.2,0.1,2.5,0.2,3.7,0.3c0.7,0.1,1.3,0.1,2,0.2c1.8,0.2,3.7,0.3,5.5,0.5c1.7,0.2,3.5,0.3,5.2,0.5c1,0.1,2.1,0.2,3.1,0.3
									c1,0.1,2.1,0.2,3.1,0.3c2.1,0.2,4.2,0.4,6.3,0.6c1.1,0.1,2.1,0.2,3.2,0.3c0.1,0,0.3,0,0.4,0c0,0,0,0,0,0
									c2.1,0.2,4.1,0.4,6.2,0.5c1,0.1,2.1,0.2,3.2,0.3c1.7,0.2,3.4,0.3,5.1,0.4c2.6,0.2,5.1,0.5,7.7,0.7c3.2,0.3,6.5,0.6,9.9,0.9
									c0.4,0,0.8,0.1,1.2,0.1c1.3,0.1,2.5,0.2,3.8,0.3c3.9,0.3,7.8,0.7,11.8,1c1.3,0.1,2.6,0.2,3.8,0.3c1.3,0.1,2.7,0.2,4,0.3
									c1.3,0.1,2.7,0.2,4,0.3c0.5,0,0.9,0.1,1.4,0.1c1.4,0.1,2.8,0.2,4.2,0.4c3.3,0.3,6.6,0.5,9.9,0.8c2.1,0.2,4.3,0.4,6.5,0.5
									c0.5,0,1,0.1,1.6,0.1c2.3,0.2,4.7,0.4,7,0.6C681.7,737.1,690.5,737.8,699.5,738.6z"/>
								<linearGradient id="SVGID_11_" gradientUnits="userSpaceOnUse" x1="301.5058" y1="744.7987" x2="826.4552" y2="744.7987">
									<stop  offset="0" style="stop-color:#153E5C"/>
									<stop  offset="0.8052" style="stop-color:#87AEB4"/>
								</linearGradient>
								<path class="st27" d="M826.5,772.2c-8.8,1.3-18.3,2.6-28.5,4c-1.9,0.3-3.8,0.5-5.8,0.8c-13.7,1.8-28.5,3.8-44.3,5.7
									c-0.8,0.1-1.7,0.2-2.5,0.3c-7.8,1-15.8,1.9-24.1,2.9c-0.8,0.1-1.6,0.2-2.4,0.3c-14.3,1.7-29.2,3.3-44.8,5
									c-1.2,0.1-2.5,0.3-3.7,0.4h0c-14.7,1.5-30,3.1-45.7,4.6c-1.5,0.1-3,0.3-4.5,0.4c-0.1,0-0.2,0-0.3,0
									c-15,1.4-29.3,2.7-42.9,3.8c-1.1,0.1-2.2,0.2-3.2,0.3h0c-16.6,1.4-32.2,2.5-46.8,3.4c-2,0.1-4,0.3-6,0.4
									c-15.4,1-29.6,1.7-42.7,2.2c-0.8,0-1.6,0.1-2.4,0.1h0c-5.3,0.2-10.4,0.3-15.3,0.4h0c-0.8,0-1.6,0-2.3,0.1
									c-17.3,0.4-32.4,0.3-45.9-0.2h0c-1.3,0-2.7-0.1-4-0.2h0c-4.7-0.2-9.1-0.4-13.4-0.8c-1.3-0.1-2.5-0.2-3.8-0.3
									c-49.7-3.9-69-14.9-79.1-30c0,0,0,0,0,0c0,0,0,0,0,0c-0.7-1-1.3-2-1.9-3c-6.6-11.4-12.7-31-3.9-65.5c0.5-1.8,1-3.6,1.5-5.5
									c1.8-6.1,4-12.6,6.7-19.6c4.5,0.5,8.8,1.1,12.9,1.6c-0.3,2.1-0.5,4.4-0.4,6.9v0c0,0.3,0,0.6,0,0.9c0.5,12.6,6.9,29,30.2,44
									c1,0.6,1.9,1.2,3,1.8c3.4,2,7.1,4,11.2,6h0c1.6,0.8,3.2,1.5,4.8,2.2c4.1,1.8,8.6,3.6,13.4,5.3c0.6,0.2,1.2,0.4,1.9,0.6
									c4.7,1.7,9.8,3.2,15.2,4.7h0c0.5,0.1,0.9,0.3,1.4,0.4c4.7,1.3,9.7,2.6,15,3.8c0.9,0.2,1.9,0.4,2.9,0.6
									c4.2,0.9,8.5,1.8,13.1,2.7c2,0.4,3.9,0.7,6,1.1h0c3,0.5,6,1,9.2,1.5c1.8,0.3,3.7,0.6,5.5,0.8c4.9,0.7,9.9,1.4,15.1,2
									c0,0,0.1,0,0.2,0c18,2.1,38.1,3.8,60.6,4.8c2,0.1,4,0.2,6,0.3c4.5,0.2,9,0.3,13.7,0.5h0c0.4,0,0.8,0,1.2,0
									c14.6,0.4,30.1,0.6,46.6,0.5c1.7,0,3.3,0,5,0c4.9,0,9.8-0.1,14.9-0.2c0.1,0,0.2,0,0.4,0c13.8-0.2,28.1-0.7,43.2-1.3
									c2-0.1,4-0.2,6-0.3h0c12.5-0.5,25.4-1.2,38.8-2c2-0.1,4-0.2,6-0.4c13.6-0.8,27.7-1.8,42.3-3c0.8-0.1,1.7-0.1,2.5-0.2
									c5.6-0.4,11.2-0.9,17-1.4h0.1c10.3-0.9,20.9-1.8,31.7-2.8h0c1.2-0.1,2.5-0.2,3.7-0.3c3.8-0.4,7.7-0.7,11.6-1.1
									c0,0.4,0.1,0.8,0.1,1.2c0.2,2,0.4,4,0.6,6C826.3,770.3,826.4,771.2,826.5,772.2z"/>
							</g>
						</g>
					</g>
					<g id="hand_back">
						<path class="st19" d="M553.5,489.8c-16.7,66-39.9,113.8-60.1,112.5c-7.2-0.4-18-8.2-37.1-24.4c-0.6-0.5-1.1-1-1.7-1.4
							c-1.1-0.9-2.2-1.9-3.3-2.9c-1.2-1-2.4-2.1-3.7-3.2c0,0,0,0,0,0c-0.2-0.2-0.4-0.3-0.6-0.5c-4.6-4-9.7-8.4-15.4-13.4
							c-18.6-16.2-33.6-29-41.9-36.2c-3.7-5.5-8-13.1-11.4-22.8c-4-11.5-5.1-21.7-5.3-28.9c9.9,0.5,18,4.2,20,5.1
							c31.3,14.9,58,44.9,70.9,60.8c0.1,0.2,0.3,0.4,0.4,0.6c0.1,0.1,0.3,0.3,0.4,0.5c0.2,0.3,0.4,0.5,0.4,0.5
							c0.9,1.2,1.9,2.5,3,3.9c0.5,0.6,1,1.2,1.5,1.9c0.3,0.3,0.5,0.6,0.5,0.7c0.2,0.3,0.9,1,2,2.3c0.2,0.2,0.5,0.5,0.8,0.8
							c1.5,1.6,3.6,3.9,6.4,6.9c4.1,4.3,9.6,10.2,17,18c8.4-14,16.9-30.1,24.9-48.3c1.8-4.1,3.5-8.2,5.1-12.2h0
							c3.5-8.7,6.6-17.2,9.3-25.2c2.1,0.7,4.2,1.4,6.4,2.1C545.9,488,549.8,489,553.5,489.8z"/>
						<path class="st28" d="M470,542.5c-7.5,9.3-15,18.6-22.5,27.9c-4.7-4.1-10-8.7-16-13.9c-18.6-16.2-33.6-29-41.9-36.2
							c-3.7-5.5-8-13.1-11.4-22.8c-4-11.5-5.1-21.7-5.3-28.9c9.9,0.5,18,4.2,19.9,5.1c31.3,14.9,58,44.9,70.9,60.8
							c0.2,0.2,0.3,0.4,0.4,0.6c0.1,0.2,0.3,0.3,0.4,0.5c0.2,0.3,0.4,0.5,0.4,0.5c1.8,2.3,3.3,4.2,4.5,5.8
							C469.7,542.1,469.8,542.3,470,542.5z"/>
						<path class="st23" d="M472,544.8c-3.1,4.5-6.3,9.2-9.6,13.8c-3.7,5.2-7.4,10.2-11.1,15c-1.2-1-2.4-2.1-3.7-3.2
							c7.5-9.3,15-18.6,22.4-27.9C470.2,542.8,470.9,543.5,472,544.8z"/>
						<linearGradient id="SVGID_12_" gradientUnits="userSpaceOnUse" x1="478.596" y1="544.6427" x2="526.2294" y2="544.6427">
							<stop  offset="2.383814e-03" style="stop-color:#FF931E"/>
							<stop  offset="1" style="stop-color:#FFFFFF"/>
						</linearGradient>
						<path class="st29" d="M526.2,510c0,0-6.4,70-31.9,69.3c-15.8-0.4-16.8-15.5-15.3-26.8c4.1,4.3,9.6,10.2,17,18
							c8.4-14,16.9-30.1,24.9-48.3C522.9,518.1,524.6,514,526.2,510L526.2,510z"/>
					</g>
					<path id="back_fingers" class="st19" d="M584,453.8c-0.7-0.1-1.5,0.1-2.3,0.6c2.5-3.3,4.1-5.8,2.8-6.1
						c-3.6-0.7-11.7,10-11.7,10l-4.5,22c0.3-0.8,18.6-19.6,15-20.3c-0.8-0.2-1.9,0.3-3.1,1.1C583.3,457.3,585.5,454.1,584,453.8z"/>
					<g id="smartphone">
						<linearGradient id="main_part_1_" gradientUnits="userSpaceOnUse" x1="541.4778" y1="465.5026" x2="586.4669" y2="465.5026">
							<stop  offset="0.4713" style="stop-color:#19233D"/>
							<stop  offset="1" style="stop-color:#271C41"/>
						</linearGradient>
						<path id="main_part" class="st30" d="M586.2,444l-9.9,23l-1.2,2.9l-7.3,17c-0.5,1.1-1.5,1.9-2.6,2.1l-19.2,3.3
							c-0.8,0.1-1.4-0.1-1.9-0.5c-0.1,0-2.1-2.5-2.1-2.5l-0.1-0.1c0-0.1-0.1-0.1-0.1-0.2c-0.3-0.6-0.4-1.3,0-2.1l19.6-41.6
							c0.4-0.9,1.4-1.7,2.4-2l18.1-4.4c1-0.2,1.8,0.1,2.3,0.6h0l1.8,2.2h0C586.5,442.2,586.7,443.1,586.2,444z"/>
						<polygon id="screen" class="st31" points="581.1,442.3 580.5,443.7 575.4,455.1 574,458.3 574,458.3 571.2,464.6 564.9,478.9 
							545.5,482.6 545.6,482.5 545.6,482.5 548.7,476 550.2,472.7 555.8,460.9 562.5,446.9 						"/>
						<linearGradient id="SVGID_13_" gradientUnits="userSpaceOnUse" x1="545.63" y1="470.4106" x2="574.0176" y2="470.4106">
							<stop  offset="0" style="stop-color:#FFFFFF"/>
							<stop  offset="1" style="stop-color:#BDD3DE"/>
						</linearGradient>
						<polygon class="st32" points="574,458.3 571.2,464.6 545.6,482.5 548.7,476 						"/>
						<linearGradient id="SVGID_14_" gradientUnits="userSpaceOnUse" x1="550.2357" y1="458.2241" x2="580.4576" y2="458.2241">
							<stop  offset="0" style="stop-color:#FFFFFF"/>
							<stop  offset="1" style="stop-color:#BDD3DE"/>
						</linearGradient>
						<polygon class="st33" points="580.5,443.7 575.4,455.1 550.2,472.7 555.8,460.9 						"/>
					</g>
					<g id="big_finger">
						<path class="st19" d="M559.2,463.1c-2.6,2-5.3,2.6-11.4,3.8c0.4,0.9,0.8,1.9,1,2.8c0.6,2.1,0.9,4.1,0.9,6.1
							c0,3.9-1.2,7.4-3.2,9.8c-0.8,0.9-1.6,1.7-2.6,2.3c-3.7,2.3-8,1.5-9.8,1c0.5-0.8,4.3-25.9,11.7-27.7c6.8-1.7,15-2.3,15.5-0.5
							C561.5,461.4,560.4,462.3,559.2,463.1z"/>
						<linearGradient id="SVGID_15_" gradientUnits="userSpaceOnUse" x1="544.0745" y1="477.7163" x2="549.6854" y2="477.7163">
							<stop  offset="0" style="stop-color:#FFFFFF"/>
							<stop  offset="0.7781" style="stop-color:#87AEB4"/>
						</linearGradient>
						<path class="st34" d="M549.7,475.8c0,3.9-1.2,7.4-3.2,9.8c-5.6-3.6,0-12.7,2.3-15.9C549.4,471.8,549.7,473.9,549.7,475.8z"/>
					</g>
					<g id="body">
						<path class="st12" d="M413,712c-19.5-3.9-35.1-5.6-46-6.5c-17.1-1.4-34.8-1.6-49-12.2c-2.5-1.9-5.5-4.5-5.9-4.9
							c-1.5-1.3-2.9-2.6-4.2-4c-9.8-9.7-15-18.6-15.7-19.7c0.3-2.9,0.7-5.7,1-8.5l11.4-57c0.6-4.7,1.1-9.4,1.6-14.1
							c3.1-14.3,6.1-28.5,9.2-42.8c0,0,0-0.1,0-0.1c4.9-23.5,11.7-43.9,19.5-60c1.8-3.7,3.6-7.2,5.5-10.4c5-1.2,44.6-10,66.7,13.3
							c12,12.7,13.4,28.9,14.3,40.8c1.4,20-2.8,34.9-8.6,48.5c-1.6,3.8-3.3,7.5-5,11.1c-6.8,14.6-13.9,29.1-15.7,48.7
							C390.5,652,392.8,678.3,413,712z"/>
						<linearGradient id="SVGID_16_" gradientUnits="userSpaceOnUse" x1="307.9317" y1="648.6744" x2="413.0048" y2="648.6744">
							<stop  offset="0" style="stop-color:#153E5C"/>
							<stop  offset="1" style="stop-color:#271C41"/>
						</linearGradient>
						<path class="st35" d="M413,712c-19.5-3.9-35.1-5.6-46-6.5c-17.1-1.4-34.8-1.6-49-12.2c-2.5-1.9-5.5-4.5-5.9-4.9
							c-1.5-1.3-2.9-2.6-4.2-4c1.3-9.4,4.1-20.6,9.6-32.3c17.3-36.7,58.1-70.1,90.3-66.5c-6.8,14.6-13.9,29.1-15.7,48.7
							C390.5,652,392.8,678.3,413,712z"/>
					</g>
					<g id="front_hand">
						<path class="st19" d="M349.8,542.3c-3.3,12.8-7.1,27.4-11.1,42.7c-1.7,6.5-3.5,13.2-5.2,19.9c-7.6,28.8-15.4,58.7-21.8,83.6
							c-6.8,26.6-12.1,47.6-13.7,55.6c-2.2,10.9-9,35.4-12.1,37.4c-2,1.2-1.2,0.2-23.4,3.6c-6.6,1-14.3,2.3-15.8-0.6
							c-0.2-0.4-0.2-0.8-0.2-1.1l-15.3,6.2c-3.7,1.4-4.9,1.4-4.9,1.4c-1.1,0-3.3-0.4-3.5-1.4v-0.1c-1.7,0-3.4-0.3-3.6-1.1
							c-0.7-2.4,11.9-8.7,19.5-12c3.6-1.6,7.4-3,10.8-4.2c2.2-1.4,4.1-2.1,7-2.5c1.2-0.1,2.2-0.1,2.4-0.1c1.4,0,4.7-0.1,11.7-0.6
							c1.4-7.1,2.8-14.3,4.2-21.4c7.4-37.9,14.8-75.8,22.2-113.7c1.7-8.7,3.4-17.5,5.1-26.2c1.4-7.5,2.9-15,4.4-22.5
							c0.2-0.9,0.3-1.8,0.5-2.8c2.6-13.4,5.2-26.7,7.8-40.1c0,0,0-0.1,0-0.1H349.8z"/>
						<path class="st23" d="M338.6,584.9c-1.7,6.5-3.5,13.2-5.2,19.9c-9.8,0.8-23.4,2-31.6,2.8c1.4-7.5,2.9-15,4.4-22.5
							c0.2-0.9,0.3-1.8,0.5-2.8C317.9,583.3,331.3,584.4,338.6,584.9z"/>
						<path class="st12" d="M313.4,524c-7.5,24.5-14.9,48.9-22.4,73.4c15.5,0.8,31.1,1.6,46.6,2.5c33.4-19.4,40.4-54.5,28.8-69.6
							C357.4,518.6,335.2,515.8,313.4,524z"/>
						<linearGradient id="SVGID_17_" gradientUnits="userSpaceOnUse" x1="274.5102" y1="690.7361" x2="303.1157" y2="690.7361">
							<stop  offset="2.383814e-03" style="stop-color:#FF931E"/>
							<stop  offset="1" style="stop-color:#FFFFFF"/>
						</linearGradient>
						<path class="st36" d="M284.3,738.1c-3.6,4.3-6.9,7.4-9.8,9.5c7.4-37.9,14.8-75.8,22.2-113.7
							C303.5,659.2,310.9,706.3,284.3,738.1z"/>
					</g>
					<g id="head">
						<g id="neck">
							<path class="st19" d="M409.1,439.5c-2,2.1-4.3,4.7-6.4,7.8c-0.6,0.9-1.2,1.8-1.8,2.8c-1,1.7-2,3.6-2.8,5.6
								c-0.5,1.1-0.9,2.3-1.3,3.5c-0.1,0.2-0.2,0.5-0.2,0.7c-4.3,14.2,1.3,22.5-5.9,29.8c-5.1,5.2-14.6,7.7-22.4,5.4
								c-9.7-3-16.4-13.4-14.3-25.1c8.9-12.6,17.8-25.2,26.7-37.8c0.5-0.7,1-1.4,1.4-2.1c2.9-4.1,5.7-8.1,8.6-12.1L409.1,439.5z"/>
							<path class="st37" d="M401,450.2c-1,1.7-2,3.6-2.8,5.6c-0.5,1.1-0.9,2.3-1.3,3.5c-0.1,0.2-0.2,0.5-0.2,0.7
								c-2.5-1.6-6-4.4-8.6-8.9c-4.2-7.2-3.1-18.8-2-25.1c2.7,7.9,6.3,13.5,7.7,15.6C395.8,444.6,398.1,447.9,401,450.2z"/>
						</g>
						<g id="face">
							<path class="st19" d="M441.7,413.4l0,0.1c6.9-30.4-3-53-5.6-55.1c-0.2-0.2-1.4-1-2.7-1.8c-1.3-0.8-2.8-1.8-3.6-2.2
								c-0.9-0.3-1.8-0.6-2.8-0.9c-16.9-3.8-34,17-40.4,32.3c-0.8,1.9-1.4,3.7-1.9,5.5c-3.8,13.3-1.8,25.5,1.4,34.6
								c2.7,7.9,6.3,13.5,7.7,15.6c2.4,3.7,5.2,7.7,8.9,9.8c0,0,0,0,0,0c1,0.5,1.9,0.9,2.8,1.2c9.2,2.9,18.2-2.8,21.3-4.9
								c-1.2-0.8-4.9-3.5-6.3-8.4c-0.6-2.1-0.5-3.9-0.4-5.2c3.7,2.3,7.4,4.5,11.1,6.8c0.9-1.6,2.3-4.4,3.9-7.9
								c0.4-0.8,0.7-1.7,1.1-2.5l0,0.1c0,0,8.9,0.4,8.5-3.5C444.3,423,441.7,413.4,441.7,413.4z"/>
							<circle cx="433.9" cy="412.3" r="2.3"/>
							<path d="M441.3,397.4c0-0.4-3.7-1.2-7.6-0.3c-3.9,0.9-6.9,3.3-6.7,3.7c0.2,0.3,2.8-1.2,7.8-2.3
								C438.9,397.6,441.3,397.7,441.3,397.4z"/>
						</g>
						<g id="hair_front">
							<path class="st38" d="M444.7,374.3c-0.2,4.8-3.3,7.6-8,10.3c-0.5,0.3-1,0.6-1.5,0.8c-8.1,4.3-20.1,8.6-31.1,20.1
								c-7.8,8.2-11.4,16-15.7,25.4c-18.9,41.5-16.3,83.6-22.8,107.7c-2.3,8.5-5.7,14.7-11.5,17.9c-12.8,7.1-36.9-0.6-55-16.6
								l-0.9-0.8c-9.6-8.7-17.4-19.7-20.7-32l0-0.1l-0.4-1.8c-0.1-0.6-0.3-1.2-0.4-1.8c-4.8-25.1,7.3-52.1,30.6-69.3
								c19.1-14.1,20.8-15,34.5-31c2.3-2.8,5.1-6,8.3-9.8c14.4-17.1,24.5-33.6,44.2-44.4c7.4-4.1,15.8-7.1,24.7-5
								c2.1,0.5,3.9,1.2,5.6,1.9c0.3,0.2,0.7,0.3,1,0.5c3.1,1.6,5.3,3.4,6.5,4.5c1.4,1.2,2.8,2.5,4.1,4c0.3,0.2,0.5,0.5,0.7,0.8v0
								C441.5,361.4,445,368.4,444.7,374.3z"/>
							<path class="st39" d="M425.5,346.6c-47.2,35.1-72.1,63.4-74.2,84.1l-0.1,0.9c-0.4,4.6-1.4,15.6-9.5,23
								c-6.4,5.8-13.8,6.4-21.1,6.9c-3.6,0.3-7,0.5-10.3,1.4c-13.6,3.6-24.6,18.5-32.9,44.4l0-0.1l-0.4-1.8
								c8.4-25.3,19.5-40,33.1-43.6c3.4-0.9,7-1.1,10.5-1.4c7-0.5,14.3-1,20.4-6.6c7.8-7.2,8.8-17.8,9.2-22.4l0.1-0.9
								c2.1-20.9,27-49.4,74.2-84.5C424.9,346.2,425.2,346.4,425.5,346.6z"/>
							<path class="st39" d="M436.8,355.9L436.8,355.9c-46.8,37.9-71.2,68.7-72.7,91.5l-0.1,1c-0.2,4.4-0.8,14.7-7.3,24.6
								c-6.2,9.5-14.3,13.4-22.2,17.2c-4,1.9-8,3.9-11.8,6.5c-11.8,8.3-19.8,22.8-23.7,43.4l-0.9-0.8c4-20.5,12-35.1,24-43.5
								c3.8-2.7,8-4.7,11.9-6.6c7.8-3.7,15.8-7.6,21.8-16.8c6.3-9.7,6.8-19.7,7.1-24l0.1-1c1.5-23.1,26.1-54.1,73.1-92.2
								C436.4,355.4,436.6,355.6,436.8,355.9z"/>
							<linearGradient id="SVGID_18_" gradientUnits="userSpaceOnUse" x1="275.6277" y1="481.2455" x2="365.624" y2="481.2455">
								<stop  offset="2.383814e-03" style="stop-color:#FF931E"/>
								<stop  offset="1" style="stop-color:#FFFFFF"/>
							</linearGradient>
							<path class="st40" d="M365.6,538.6c-2.3,8.5-5.7,14.7-11.5,17.9c-12.8,7.1-36.9-0.6-55-16.6l-0.9-0.8
								c-9.6-8.7-17.4-19.7-20.7-32l0-0.1l-0.4-1.8c-0.1-0.6-0.3-1.2-0.4-1.8c-4.8-25.1,7.3-52.1,30.6-69.3
								c19.1-14.1,20.8-15,34.5-31c-21.3,41.7-43.6,102.5-3.1,119.1C351.1,527.5,359.7,533,365.6,538.6z"/>
						</g>
					</g>
				</g>
			</g>
		</g>
		<g id="bottle_with_water">
			<path class="st41" d="M316.3,911.5h-29c-4.7-7.7-5.4-13.6-5-17.7c0.3-3.2,1.1-4.5,1.8-7.4c0.4-1.3,0.7-3,1-5.3
				c0.5-4.1,0.4-7.7,0.3-15c-0.1-5.2-0.2-7.8-0.5-11.2c-0.5-5.6-1.2-7.3-0.8-10.6c0.4-3.9,1.9-6.9,3.1-8.9H317
				c1,1.8,2.1,4.6,2.5,8.1c0.4,3.6-0.2,5.6-0.8,10.6c-0.4,3.3-0.4,6.2-0.5,11.9c-0.1,7.1-0.2,10.8,0.3,15.7c0.2,2,0.5,3.5,0.7,4.7
				c0.6,3.1,1.3,4.2,1.5,7.4C321,897.8,320.4,903.8,316.3,911.5z"/>
			<path class="st42" d="M317,828.6v6.7h-29.6v-6.7h5c0,0,0-5.2,0-5.2h8.2v5.2H317z"/>
			<path class="st9" d="M316.3,911.5h-29c-4.7-7.7-5.4-13.6-5-17.7c0.3-3.2,1.1-4.5,1.8-7.4h35.1c0.6,3.1,1.3,4.2,1.5,7.4
				C321,897.8,320.4,903.8,316.3,911.5z"/>
			<path class="st42" d="M318.5,881.7c-4.6,1.5-10,2.4-15.8,2.4c-6.6,0-12.7-1.2-17.6-3.1c0.3-4.8,0.4-9.8,0.3-15
				c-0.1-3.9-0.2-7.6-0.5-11.2c5-2,11.1-3.2,17.8-3.2c5.9,0,11.3,0.9,15.9,2.5c-0.3,3.8-0.5,7.8-0.5,11.9
				C318.1,871.4,318.2,876.7,318.5,881.7z"/>
			<linearGradient id="SVGID_19_" gradientUnits="userSpaceOnUse" x1="282.2393" y1="867.4556" x2="305.1264" y2="867.4556">
				<stop  offset="0.7039" style="stop-color:#FFFFFF"/>
				<stop  offset="0.9853" style="stop-color:#87AEB4"/>
			</linearGradient>
			<path class="st43" d="M300.9,911.5h-13.5c-4.7-7.7-5.4-13.6-5-17.7c0.3-3.2,1.1-4.5,1.8-7.4c0.4-1.3,0.7-3,1-5.3
				c0.5-4.1,0.4-7.7,0.3-15c-0.1-5.2-0.2-7.8-0.5-11.2c-0.5-5.6-1.2-7.3-0.8-10.6c0.4-3.9,1.9-6.9,3.1-8.9v-6.7h5c0,0,0-5.2,0-5.2
				h5.5l0.4,11.8c2.8,8.3,6,20.7,6.7,36.2C305.8,888.6,303.2,902.6,300.9,911.5z"/>
			<circle class="st44" cx="291.3" cy="844.7" r="3.9"/>
		</g>
	</g>
</g>
</svg>
