<?xml version="1.0" encoding="utf-8"?>
<!-- Generator: Adobe Illustrator 22.1.0, SVG Export Plug-In . SVG Version: 6.00 Build 0)  -->
<svg version="1.1" xmlns="http://www.w3.org/2000/svg" xmlns:xlink="http://www.w3.org/1999/xlink" x="0px" y="0px"
	 viewBox="0 0 1135.3 1110.6" style="enable-background:new 0 0 1135.3 1110.6;" xml:space="preserve">
<style type="text/css">
	.st0{fill:#EEEDEE;}
	.st1{fill:#EBDEDE;}
	.st2{opacity:0.35;fill:#FFFFFF;}
	.st3{fill:#F8E7E1;}
	.st4{fill:none;}
	.st5{opacity:0.5;fill:#153E5C;}
	.st6{fill:url(#window_3_1_);}
	.st7{opacity:0.5;fill:#F2BE54;}
	.st8{opacity:0.5;fill:#002544;}
	.st9{opacity:0.5;fill:#DA9E29;}
	.st10{fill:url(#window1_1_);}
	.st11{opacity:0.5;fill:url(#SVGID_1_);}
	.st12{opacity:0.5;fill:#FF7D93;}
	.st13{opacity:0.5;fill:url(#SVGID_2_);}
	.st14{opacity:0.5;fill:url(#SVGID_3_);}
	.st15{fill:url(#SVGID_4_);}
	.st16{opacity:0.5;fill:#41548C;}
	.st17{fill:#002544;}
	.st18{fill:#FFFFFF;}
	.st19{opacity:0.11;fill:#FFFFFF;}
	.st20{fill:#0D2A28;}
	.st21{fill:#004E5A;}
	.st22{opacity:0.12;fill:#FFFFFF;}
	.st23{opacity:0.28;fill:#0D2A28;}
	.st24{fill:#DA9E29;}
	.st25{opacity:0.56;fill:url(#SVGID_5_);}
	.st26{fill:#F2BE54;}
	.st27{opacity:0.71;fill:url(#SVGID_6_);}
	.st28{fill:#9776A6;}
	.st29{opacity:0.68;fill:url(#SVGID_7_);}
	.st30{opacity:0.55;fill:url(#SVGID_8_);}
	.st31{opacity:0.25;fill:#002544;}
	.st32{opacity:0.4;fill:url(#SVGID_9_);}
	.st33{opacity:0.4;fill:url(#SVGID_10_);}
	.st34{fill:#E4C9C2;}
	.st35{fill:#C5856E;}
	.st36{fill:url(#SVGID_11_);}
	.st37{opacity:0.8;fill:url(#SVGID_12_);}
	.st38{opacity:0.15;fill:#002544;}
	.st39{fill:#FF7D93;}
	.st40{opacity:0.74;fill:url(#SVGID_13_);}
	.st41{opacity:0.74;fill:url(#SVGID_14_);}
	.st42{fill:#41548C;}
	.st43{opacity:9.000000e-02;fill:url(#SVGID_15_);}
	.st44{fill:#AAC0DC;}
	.st45{fill:#BDD3DE;}
	.st46{opacity:0.14;fill:#002544;}
	.st47{opacity:0.74;fill:url(#SVGID_16_);}
	.st48{fill:#BFC4D4;}
	.st49{opacity:0.16;fill:#002544;}
	.st50{opacity:0.74;fill:url(#SVGID_17_);}
	.st51{opacity:0.74;fill:url(#SVGID_18_);}
	.st52{opacity:0.54;fill:url(#SVGID_19_);}
	.st53{opacity:0.68;fill:url(#SVGID_20_);}
</style>
<g id="background">
	<g id="general">
		<g id="wallpaper">
			<path class="st0" d="M105.9,238.9v496.6h26.7V247.4C123.6,245,114.6,242.3,105.9,238.9z"/>
			<path class="st0" d="M202.2,259.6v475.9H229V261.6C220,261.1,211.1,260.5,202.2,259.6z"/>
			<path class="st0" d="M310.7,270.6v466.8h26.7V267C328.5,268.5,319.6,269.7,310.7,270.6z"/>
			<path class="st0" d="M416.8,252.3c-2.1,0.9-4.2,1.8-6.3,2.6v480.4h26.7V242.5C430.6,246,423.8,249.3,416.8,252.3z"/>
			<path class="st0" d="M535.2,173.4c-8.6,5.7-16.6,12.2-25,18.2v543.9H537V172.2C536.4,172.6,535.8,173,535.2,173.4z"/>
			<path class="st0" d="M619,80.4c-4.2,2.3-8.3,4.8-12.4,7.3v645.7h26.7V73.1C628.5,75.4,623.7,77.8,619,80.4z"/>
			<path class="st0" d="M735.5,44.5c-6.8,0.8-13.6,1.7-20.4,2.9v693.8h26.7V43.9C739.7,44.1,737.6,44.3,735.5,44.5z"/>
			<path class="st0" d="M811.4,43.5v693.9h26.7V46.5C829.2,45.3,820.3,44.2,811.4,43.5z"/>
			<path class="st0" d="M918.1,66.2c-5-2-10.2-3.8-15.3-5.5v683.1h26.7V71.2C925.7,69.4,921.9,67.7,918.1,66.2z"/>
			<path class="st0" d="M1011.2,124.6v625.1h26.7V143.8C1028.9,137.6,1020,131.1,1011.2,124.6z"/>
		</g>
		<g id="carpet">
			<path class="st0" d="M1046.6,873.7v13.2c-2.1,10.6-4.2,21.2-6.3,31.8c-3.2,16-6.4,32-9.6,48c-0.4,2-0.8,3.9-1.2,5.9
				c-5.3,26.4-10.5,52.8-15.8,79.2c-2.2,10.8-4.3,21.6-6.5,32.5c-0.7,3.4-1.4,6.8-2,10.1c-154.4,0.3-308.9,0.6-463.3,0.9
				c-5.2,0-10.3,0-15.5,0c-3.4,0-6.8,0-10.2,0c-45.9,0.1-91.9,0.2-137.8,0.3c-10.4,0-20.8,0-31.3,0.1c-100,0.2-200,0.4-300.1,0.6
				v-13.2l5.2-1.7l36.3-104.7c9.4-27.2,18.9-54.4,28.3-81.7c0.9-2.7,1.9-5.4,2.8-8.1h909.2L1046.6,873.7z"/>
			<path class="st1" d="M1046.6,873.7c-3.1,15.5-6.2,31-9.3,46.5c-2.2,11.1-4.4,22.2-6.7,33.3c-1.2,6.2-2.5,12.3-3.7,18.5
				c-5.3,26.6-10.6,53.1-15.9,79.7c-2,9.8-3.9,19.7-5.9,29.6c-11.5,0-23.1,0-34.6,0.1c-46.4,0.1-92.8,0.2-139.2,0.3h0
				c-14.2,0-28.3,0.1-42.5,0.1c-74.3,0.1-148.7,0.3-223,0.4c-13.1,0-26.3,0.1-39.4,0.1c-4.4,0-8.7,0-13.1,0h0
				c-42.7,0.1-85.3,0.2-128,0.2c-11,0-22,0.1-33,0.1c-101.8,0.2-203.5,0.4-305.3,0.6l41.5-119.7c8.5-24.5,17-48.9,25.4-73.4
				c1.9-5.4,3.8-10.9,5.6-16.3H1046.6z"/>
			<g>
				<path class="st2" d="M144.9,914.5c-7,4-15.9,1.6-20-5.3l-8.2-14.1l-2.9-5c1.9-5.4,3.8-10.9,5.6-16.3h18.7l7.6,13.2l4.4,7.6
					C154.3,901.5,151.9,910.5,144.9,914.5z"/>
				<path class="st2" d="M241.6,933.1L241.6,933.1c3.4,7.3,0.2,16-7.1,19.4l-26.5,12.3c-7.3,3.4-16,0.2-19.4-7.1h0
					c-3.4-7.3-0.2-16,7.1-19.4l26.5-12.3C229.5,922.6,238.2,925.8,241.6,933.1z"/>
				<path class="st2" d="M933.7,966.1L933.7,966.1c3.4,7.3,0.2,16-7.1,19.4l-26.5,12.3c-7.3,3.4-16,0.2-19.4-7.1l0,0
					c-3.4-7.3-0.2-16,7.1-19.4l26.5-12.3C921.6,955.7,930.3,958.9,933.7,966.1z"/>
				<path class="st2" d="M842.9,1060.2L842.9,1060.2c3.4,7.3,0.2,16-7.1,19.4l-26.5,12.3c-7.3,3.4-16,0.2-19.4-7.1l0,0
					c-3.4-7.3-0.2-16,7.1-19.4l26.5-12.3C830.8,1049.7,839.5,1052.9,842.9,1060.2z"/>
				<path class="st2" d="M738.9,1015.9L738.9,1015.9c5.2,6.2,4.3,15.4-1.8,20.6l-22.4,18.8c-6.2,5.2-15.4,4.3-20.6-1.8l0,0
					c-5.2-6.2-4.3-15.4,1.8-20.6l22.4-18.8C724.5,1008.9,733.8,1009.7,738.9,1015.9z"/>
				<path class="st2" d="M1013.7,1051.9c-2.2,10.8-4.3,21.6-6.5,32.5l-16.2,7.5c-7.3,3.4-16,0.2-19.4-7.1c-0.5-1.1-0.9-2.2-1.1-3.4
					c-0.2-0.9-0.3-1.8-0.3-2.7c0-5.5,3.1-10.8,8.5-13.3l26.5-12.3c1.9-0.9,3.8-1.3,5.8-1.3
					C1011.9,1051.7,1012.8,1051.8,1013.7,1051.9z"/>
				<path class="st2" d="M565.8,1082.1c-1.4,2.1-3.4,3.8-5.8,4.9l-18.1,8.4c-5.2,0-10.3,0-15.5,0c-3.4,0-6.8,0-10.2,0
					c-0.8-1-1.5-2.1-2.1-3.3c-0.9-2-1.3-4-1.3-6.1c0-1.3,0.2-2.6,0.5-3.8h0c1.1-4,3.9-7.6,7.9-9.5l26.5-12.3
					c7.3-3.4,16-0.2,19.4,7.1C569.4,1072.5,568.7,1078,565.8,1082.1z"/>
				<path class="st2" d="M470,882.2L470,882.2c3.4,7.3,0.2,16-7.1,19.4l-26.5,12.3c-7.3,3.4-16,0.2-19.4-7.1l0,0
					c-3.4-7.3-0.2-16,7.1-19.4l26.5-12.3C457.9,871.7,466.7,874.9,470,882.2z"/>
				<path class="st2" d="M971.7,873.7c-1.4,3-3.8,5.6-7.1,7.1l-13.2,6.1l-13.3,6.2c-7,3.2-15.2,0.5-18.9-6.2
					c-0.2-0.3-0.3-0.6-0.5-0.9c-0.9-2-1.4-4.1-1.4-6.1c0-2.1,0.5-4.3,1.4-6.2H971.7z"/>
				<path class="st2" d="M813.8,924.5L813.8,924.5c-4,7-13,9.4-19.9,5.3l-25.3-14.6c-7-4-9.4-13-5.3-19.9h0c4-7,13-9.4,19.9-5.3
					l25.3,14.6C815.4,908.6,817.8,917.6,813.8,924.5z"/>
				<path class="st2" d="M625.4,873.7l-14.8,6.8c-7.2,3.3-15.8,0.2-19.2-6.8H625.4z"/>
				<path class="st2" d="M307,873.7c-0.9,0.7-1.9,1.3-2.9,1.8l-24.6,11.4l-1.9,0.9c-4.6,2.2-9.8,1.6-13.9-0.9
					c-2.3-1.4-4.3-3.6-5.5-6.2c-0.9-2-1.3-4-1.3-6.1c0-0.3,0-0.6,0-0.9H307z"/>
				<path class="st2" d="M138.5,1042.6L138.5,1042.6c-2.2,7.7-10.3,12.2-18.1,10l-28.1-8c-7.7-2.2-12.2-10.3-10-18.1h0
					c2.2-7.7,10.3-12.2,18.1-10l28.1,8C136.2,1026.8,140.7,1034.9,138.5,1042.6z"/>
				<path class="st2" d="M332.5,953.1L332.5,953.1c7-4,15.9-1.6,19.9,5.3l14.6,25.3c4,7,1.6,15.9-5.3,19.9h0c-7,4-15.9,1.6-19.9-5.3
					l-14.6-25.3C323.1,966.1,325.5,957.1,332.5,953.1z"/>
				<path class="st2" d="M1040.2,918.8c-3.2,16-6.4,32-9.6,48c-0.4,2-0.8,3.9-1.2,5.9c-0.8-0.1-1.7-0.3-2.5-0.6
					c-0.7-0.2-1.3-0.5-1.9-0.8c-5-2.6-7.8-7.7-7.8-13c0-2.3,0.5-4.6,1.7-6.7l13.6-25.9c1.2-2.2,2.9-4.1,4.9-5.4
					C1038.2,919.6,1039.2,919.1,1040.2,918.8z"/>
				<path class="st2" d="M645.6,916.1L645.6,916.1c8,0,14.6,6.6,14.6,14.6v29.2c0,8-6.6,14.6-14.6,14.6l0,0c-8,0-14.6-6.6-14.6-14.6
					v-29.2C631,922.7,637.6,916.1,645.6,916.1z"/>
				<path class="st2" d="M524.8,959.7L524.8,959.7c5.2,6.2,4.3,15.4-1.8,20.6L500.5,999c-6.2,5.2-15.4,4.3-20.6-1.8l0,0
					c-5.2-6.2-4.3-15.4,1.8-20.6l22.4-18.8C510.4,952.7,519.6,953.5,524.8,959.7z"/>
				<path class="st2" d="M238.3,1013.8L238.3,1013.8c7.1,3.7,9.9,12.6,6.2,19.7l-13.6,25.9c-3.7,7.1-12.6,9.9-19.7,6.2h0
					c-7.1-3.7-9.9-12.6-6.2-19.7l13.6-25.9C222.3,1012.8,231.2,1010,238.3,1013.8z"/>
				<path class="st2" d="M388.2,1077l-2.9,5.5l-6.9,13.2c-10.4,0-20.8,0-31.3,0.1c0-2.2,0.6-4.4,1.7-6.5l3.5-6.8l10-19.1
					c3.7-7.1,12.6-9.9,19.7-6.2C389.1,1061,391.9,1069.8,388.2,1077z"/>
			</g>
		</g>
		<g id="flags">
			<path class="st0" d="M1128.4,62.8c-1.8,3.3-3.6,6.5-5.4,9.6c-3.7,6.2-7.5,12.1-11.6,17.7c-14.5,20-31.4,36.2-50.6,48.6
				c-15.5,10-32.5,17.5-51,22.6c-0.6,0.2-1.3,0.3-1.9,0.5c-21.2,5.6-43.1,7.4-64.6,6.9c-28.3-0.7-55.9-5.7-80.4-12.1
				c-12.6-3.3-24.5-7-35.2-10.8c-12.2-4.3-23.5-8.8-33.8-13.2c-21.6-9.3-38.4-18.1-47.6-23.1c-1.9-1-3.4-1.9-4.6-2.6
				c-1.1,1.3-2.3,2.6-3.5,3.8c-2.9,3.1-5.8,6.2-8.7,9.1c-1.7,1.7-3.3,3.4-5,5v0c-2.3,2.3-4.7,4.5-7.1,6.7v0
				c-7.7,7-15.4,13.5-23.3,19.4c-2.3,1.7-4.6,3.4-6.9,5c-3.8,2.6-7.6,5.1-11.4,7.5c-13,8.1-26.3,14.5-39.8,19.3
				c-20.2,7.3-40.9,10.9-62,10.9h-0.4c-2.5,0-4.9-0.1-7.3-0.2c-22-0.9-42.5-5.8-61-12.6c-23.5-8.6-43.6-20.2-59-30.7
				c-1.1-0.7-2.1-1.5-3.2-2.2c-17.6-12.4-30.9-24.5-38.9-32.2c-2.2-2.2-4-4-5.3-5.4c-1.9,1.9-3.9,3.8-5.8,5.7
				c-4.6,4.4-9.2,8.5-14,12.3c-19.9,16.3-40.8,28.1-62.5,35.4c-21.2,7.1-43.2,10-66,8.5c-4.4-0.3-8.9-0.7-13.2-1.3
				c-2.4-0.3-4.8-0.7-7.2-1.1c-1.2-0.2-2.4-0.4-3.6-0.6c-16.7-3.2-32.9-8.5-48.4-15.2c-2-0.9-4.1-1.8-6.1-2.7
				c-0.8-0.4-1.6-0.8-2.4-1.1c-23.8-11.2-45.7-25.3-64.7-39.6c-9.2-7-17.7-14-25.5-20.7c-11-9.5-20.9-19-29.7-27.9
				C32.9,44.4,20.3,29.4,13.4,21c-3.6-4.5-5.6-7.1-5.7-7.2c-1.4-1.9-1-4.6,0.9-6c1.9-1.4,4.6-1,6,0.9c0.1,0.1,2,2.6,5.5,7
				c6.3,7.8,17.8,21.4,33.3,37.2c9.3,9.6,20.2,20,32.2,30.4c8.3,7.2,17.6,14.8,27.6,22.3c16.1,12,34.3,23.7,53.9,33.5
				c3,1.5,6.1,3,9.3,4.4c0.6,0.3,1.3,0.6,1.9,0.9c2.3,1,4.5,2,6.8,3c1,0.4,1.9,0.8,2.9,1.2c2.5,1,5,2,7.6,2.9
				c0.7,0.2,1.4,0.5,2.1,0.8c0.4,0.2,0.9,0.3,1.3,0.5c0.8,0.3,1.6,0.5,2.4,0.8c0.6,0.2,1.2,0.4,1.8,0.6c1.2,0.4,2.5,0.8,3.8,1.2
				c0.8,0.2,1.6,0.5,2.4,0.7c0.3,0.1,0.5,0.2,0.8,0.2c1.1,0.3,2.2,0.6,3.3,0.9c1.2,0.3,2.4,0.6,3.6,0.9c0.1,0,0.2,0,0.2,0.1
				c1.2,0.3,2.4,0.6,3.7,0.9c1.2,0.3,2.5,0.6,3.8,0.8c0.9,0.2,1.8,0.4,2.8,0.6c0.8,0.2,1.5,0.3,2.3,0.4c2,0.4,4,0.7,6,1
				c0.2,0,0.3,0,0.5,0.1c0.8,0.1,1.7,0.2,2.5,0.4c0.3,0,0.6,0.1,1,0.1c1,0.1,2,0.2,3,0.4c2.9,0.3,5.8,0.6,8.7,0.8
				c19.7,1.3,38.9-0.9,57.4-6.5c0.1,0,0.1,0,0.2-0.1c24.4-7.3,47.7-20.6,69.8-39.6c3.2-2.7,6.3-5.6,9.4-8.6c2.7-2.5,5.3-5.2,7.9-7.9
				c0.8-0.8,2-1.3,3.2-1.3c1.2,0,2.3,0.6,3.1,1.5c0.1,0.1,2.4,2.8,6.8,7.1c7,7,19.1,18.2,35.2,29.9c2.3,1.7,4.6,3.3,7,5
				c15.8,10.8,36.6,22.7,60.9,31c14.8,5.1,30.8,8.8,47.7,10.2c4.5,0.4,9.1,0.6,13.7,0.6h0.3c21.3,0,42.2-3.9,62.6-11.7
				c10.2-3.9,20.2-8.7,30.2-14.5c8.7-5.1,17.2-10.9,25.7-17.4c2.4-1.8,4.8-3.7,7.1-5.7c8.2-6.8,16.4-14.3,24.5-22.5c1-1,1.9-2,2.9-3
				c0.3-0.3,0.5-0.5,0.8-0.8h0c1.2-1.3,2.4-2.6,3.6-3.9c2.1-2.2,4.1-4.5,6.2-6.8c1.4-1.5,3.6-1.9,5.4-0.8c0.1,0.1,3,1.8,8.2,4.7
				c8.5,4.7,23.4,12.4,42.3,20.7c11.1,4.8,23.6,9.9,37.1,14.6c12,4.2,25.4,8.4,39.8,11.9c41.6,10.4,91.2,15.9,137.1,3.4
				c16-4.3,30.9-10.7,44.5-19c0.1-0.1,0.2-0.1,0.3-0.2c21.5-13.1,40-31,55.4-53.6c2.7-4,5.3-8.1,7.9-12.4c1.7-2.9,3.4-5.9,5.1-9
				c1.1-2.1,3.7-2.9,5.8-1.8C1128.8,58.1,1129.6,60.7,1128.4,62.8z"/>
			<circle class="st0" cx="398.7" cy="106.6" r="10.7"/>
			<circle class="st0" cx="10.7" cy="10.7" r="10.7"/>
			<circle class="st0" cx="740.9" cy="100.2" r="10.7"/>
			<circle class="st0" cx="1124.7" cy="61.8" r="10.7"/>
			<path class="st0" d="M114.5,106.7c-3.2,1.2-6.2,2.4-9.2,3.6c-53.8,20.9-77.5,30.4-78.6,31.5c0,0,0,0-0.1,0
				c-0.8-0.2,9.3-34,23.5-80.2c0.9-3,1.9-6.1,2.8-9.2c0.2,0.1,0.3,0.3,0.5,0.4c9.3,9.6,20.1,20,32.2,30.4
				c8.3,7.2,17.6,14.8,27.6,22.3C113.6,105.9,114,106.3,114.5,106.7z"/>
			<path class="st3" d="M384.2,210.3c-0.5,0.7-28.8-19.1-67.4-46.7c-2.8-2-5.7-4.1-8.7-6.2c0.2-0.1,0.5-0.2,0.7-0.3
				c0.1,0,0.1,0,0.2-0.1c24.4-7.3,47.7-20.6,69.8-39.6c0.1,1,0.2,5,0.5,10.7C380.5,152.3,383.2,208.1,384.2,210.3
				C384.2,210.2,384.2,210.3,384.2,210.3z"/>
			<path class="st1" d="M242.7,162.8c-1.7,2.6-3.4,5.3-5.1,8c-9.6,14.9-19.1,29.8-28.7,44.8c-2.2,3.5-4.4,6.9-6.6,10.4
				c-3.1,4.9-6.3,9.8-9.4,14.7c-2.6-10.8-5.3-21.6-8-32.5c-0.9-3.7-1.9-7.5-2.8-11.2v0c-2.8-11.2-5.7-22.3-8.6-33.4
				c-1-3.9-2.1-7.8-3.1-11.7c-0.1-0.6-0.3-1.2-0.5-1.8c-1-3.6-1.9-7.2-2.9-10.9c18.2,9.1,37.5,16.5,57.6,20.7
				c3.7,0.8,7.3,1.5,11.1,2C238.1,162.2,240.4,162.5,242.7,162.8z"/>
			<path class="st0" d="M444.5,137.9c-6.3,52.5-10.7,91.9-9.8,92c0,0,0.1,0,0.1,0c0.9-1.4,24.8-18,79.4-55.1
				c-11-4-23.5-9.3-36.8-16.3C464.6,151.7,453.7,144.6,444.5,137.9z"/>
			<path class="st3" d="M751.6,199.7c-0.1,0.1-1.3-0.3-3.7-1.4c-1-0.5-2.3-1-3.7-1.7c-2.5-1.1-5.5-2.6-9.1-4.3
				c-1.3-0.6-2.6-1.2-4-1.9c-3-1.4-6.2-3-9.8-4.8c-1.3-0.6-2.6-1.3-3.9-1.9c-3.8-1.9-7.8-3.9-12.1-6c-1.3-0.6-2.6-1.3-3.9-2
				c-4.4-2.2-9-4.5-13.8-6.9c-1.4-0.7-2.8-1.4-4.3-2.1c-2.4-1.2-4.9-2.4-7.4-3.7c-3-1.5-6-3-9-4.5c-0.1-0.1-0.2-0.1-0.4-0.2
				c8.1-4.8,17-10.7,26.2-17.7c2-1.5,4-3.1,6-4.7c0.4-0.3,0.8-0.6,1.1-0.9c9.4-7.6,17.5-15.2,24.4-22.3c1-1,1.9-2,2.8-3
				c0,0,0,0,0,0.1c0.4,1.5,0.8,3,1.2,4.5c0.5,1.7,0.9,3.4,1.3,5.1c1.7,6.3,3.2,12.2,4.7,17.7c0.7,2.5,1.3,5,2,7.4
				c1.8,6.7,3.4,12.8,4.8,18.2v0c0.7,2.6,1.4,5,2,7.3c1.9,6.8,3.4,12.4,4.6,16.8v0c0.7,2.6,1.4,4.8,1.9,6.6
				C750.7,197.4,751.3,199.3,751.6,199.7C751.6,199.7,751.6,199.7,751.6,199.7z"/>
			<g>
				<path class="st2" d="M699.9,135.2l-0.1,0.3l-5.5,15.2l-6.6,18.3c-1.4-0.7-2.8-1.4-4.3-2.1l4.1-11.2l5.2-14.4l0.2-0.4
					c2-1.5,4-3.1,6-4.7C699.2,135.8,699.5,135.5,699.9,135.2z"/>
				<path class="st2" d="M730,109.9l-1.7,4.6l-3.7,10.1v0l-19.3,53.2c-1.3-0.6-2.6-1.3-3.9-2l16.2-44.5v0l6.7-18.3l0-0.1
					c1-1,1.9-2,2.8-3c0,0,0,0,0,0.1c0.3-0.3,0.5-0.5,0.8-0.8h0L730,109.9z"/>
				<path class="st2" d="M736.3,144.8l-14.9,40.9c-1.3-0.6-2.6-1.3-3.9-1.9l16.8-46.4C735,139.9,735.6,142.4,736.3,144.8z"/>
				<path class="st2" d="M743.1,170.4l-8,22c-1.3-0.6-2.6-1.2-4-1.9l10-27.4C741.8,165.6,742.5,168.1,743.1,170.4z"/>
				<path class="st2" d="M749.6,193.8l-1.7,4.6c-1-0.5-2.3-1-3.7-1.7l3.5-9.5C748.4,189.8,749.1,192,749.6,193.8z"/>
			</g>
			<path class="st1" d="M559.1,184.3c12.6,15.3,25.2,30.5,37.7,45.9c9.5,11.6,19,23.3,28.5,34.9c4.1-30.7,8.1-61.4,12.2-92.1
				c-10.1,3.4-22.3,6.6-36.3,8.8C585.2,184.2,570.9,184.7,559.1,184.3z"/>
			<path class="st0" d="M793.6,123c1.7,53.2,3.2,93.1,4.1,93.1c0,0,0,0,0.1-0.1c0.7-1.5,22.6-21.6,72.8-66.5
				c-13.2-3.6-27.2-7.9-41.8-13C816.4,132.2,804.6,127.6,793.6,123z"/>
			<path class="st3" d="M1135.3,173.9c-0.1,0.2-2.5-0.8-6.8-2.7c-2.9-1.3-6.6-3-11-5.1c-6.5-3-14.5-6.9-23.7-11.3
				c-3.5-1.7-7.2-3.5-11.1-5.4c-6.7-3.3-14-6.8-21.5-10.5c-3.1-1.5-6.2-3-9.4-4.6c2.6-1.6,5.4-3.4,8.2-5.4
				c6.6-4.6,13.7-10.2,20.9-17c9.9-9.4,17.7-18.7,23.6-26.9c1.2-1.6,2.3-3.2,3.3-4.7c0.4,0.2,1.3,2.6,2.6,6.6
				c3.1,9.9,8.4,29.5,13.4,47.6c1.1,4,2.2,8,3.2,11.8C1131.1,160.8,1134.4,172.6,1135.3,173.9
				C1135.3,173.8,1135.4,173.8,1135.3,173.9z"/>
			<path class="st2" d="M1094.6,151.7c0,1.1-0.3,2.1-0.8,3c-3.5-1.7-7.2-3.5-11.1-5.4c0.9-2.2,3.1-3.8,5.7-3.8
				C1091.9,145.6,1094.6,148.3,1094.6,151.7z"/>
			<path class="st2" d="M1110.4,86.7c-0.4,0.1-0.9,0.2-1.3,0.2c-1.8,0-3.4-0.8-4.5-2c1.2-1.6,2.3-3.2,3.3-4.7
				C1108.3,80.3,1109.2,82.7,1110.4,86.7z"/>
			<circle class="st2" cx="1099.7" cy="113.7" r="6.2"/>
			<path class="st2" d="M1127,146c-0.8,0.3-1.6,0.5-2.5,0.5c-3.4,0-6.2-2.8-6.2-6.1c0-3.2,2.4-5.8,5.4-6.1
				C1124.9,138.3,1126,142.3,1127,146z"/>
			<path class="st2" d="M1129.5,167.7c0,1.3-0.4,2.4-1,3.4c-2.9-1.3-6.6-3-11-5.1c0.7-2.6,3.1-4.5,5.9-4.5
				C1126.8,161.6,1129.5,164.3,1129.5,167.7z"/>
			<path class="st2" d="M1063.3,134.2c0,1.8-0.8,3.5-2.1,4.6c-3.1-1.5-6.2-3-9.4-4.6c2.6-1.6,5.4-3.4,8.2-5.4
				C1062,129.8,1063.3,131.9,1063.3,134.2z"/>
			<path class="st4" d="M1135.3,173.9c-0.1,0.2-2.5-0.8-6.8-2.7c-2.9-1.3-6.6-3-11-5.1c-6.5-3-14.5-6.9-23.7-11.3
				c-3.5-1.7-7.2-3.5-11.1-5.4c-6.7-3.3-14-6.8-21.5-10.5c-3.1-1.5-6.2-3-9.4-4.6c2.6-1.6,5.4-3.4,8.2-5.4
				c6.6-4.6,13.7-10.2,20.9-17c9.9-9.4,17.7-18.7,23.6-26.9c1.2-1.6,2.3-3.2,3.3-4.7c0.4,0.2,1.3,2.6,2.6,6.6
				c3.1,9.9,8.4,29.5,13.4,47.6c1.1,4,2.2,8,3.2,11.8C1131.1,160.8,1134.4,172.6,1135.3,173.9
				C1135.3,173.8,1135.4,173.8,1135.3,173.9z"/>
			<path class="st1" d="M939.2,160c8.4,17.5,16.7,35.2,25,53.1c6.4,13.7,12.6,27.4,18.7,41c9.2-34,18.4-67.9,27.5-101.9
				c-10.1,2.9-22.4,5.6-36.6,7.1C960.8,160.7,949.1,160.6,939.2,160z"/>
			<g>
				<path class="st2" d="M179.5,157.2c0,3.4-2.7,6.1-6,6.2c-1-3.9-2.1-7.8-3.1-11.7c0.9-0.5,1.8-0.7,2.9-0.7
					C176.7,151,179.5,153.8,179.5,157.2z"/>
				<circle class="st2" cx="204.9" cy="176" r="6.2"/>
				<path class="st2" d="M236,163.4c0,3.4-2.8,6.2-6.2,6.2c-3.4,0-6.2-2.8-6.2-6.2c0-1.3,0.4-2.6,1.2-3.6c3.7,0.8,7.3,1.5,11.1,2
					C235.9,162.3,236,162.9,236,163.4z"/>
				<path class="st2" d="M191.9,201.8c0,3.4-2.8,6.2-6.2,6.2c-0.3,0-0.5,0-0.8-0.1c-0.9-3.7-1.9-7.5-2.8-11.2c1-0.7,2.3-1.2,3.6-1.2
					C189.2,195.6,191.9,198.4,191.9,201.8z"/>
				<path class="st2" d="M209,215.5c-2.2,3.5-4.4,6.9-6.6,10.4c-2.2-1-3.7-3.1-3.7-5.7c0-3.4,2.8-6.2,6.2-6.2
					C206.4,213.9,207.9,214.5,209,215.5z"/>
			</g>
		</g>
		<path id="figure" class="st0" d="M1104.2,753.7c-3.2-33.3-11.8-75.2-38.3-86.8c-16.9-7.4-29.5,2.5-47.3,5.3
			c-74.1,11.4-108.3-121.3-196.1-138.1c-77-14.7-132.2,72-167.7,44.9c-31.2-23.9,8-93.6-25.9-128.2c-35.5-36.3-128.6-11-190,32
			c-42.6,29.8-44.2,50-159.5,170.1c-32.5,33.9-50.4,51-76,51.5c-49.6,1-72.3-63.5-110.4-56.8c-43.8,7.7-64.8,79.1-70.2,100.9
			c-0.9,1.7-1.5,3.7-1.5,5.8v0.5C382.3,754.3,743.3,754,1104.2,753.7z"/>
	</g>
</g>
<g id="main">
	<g id="general_2_">
		<g id="lines">
			<path class="st5" d="M605.3,531.1c-0.1,0-0.1,0-0.2,0c-0.5-0.1-0.8-0.6-0.7-1.1l93.5-386.2c0.1-0.5,0.6-0.8,1.1-0.7
				c0.5,0.1,0.8,0.6,0.7,1.1l-93.5,386.2C606.1,530.8,605.7,531.1,605.3,531.1z"/>
			<path class="st5" d="M581.7,533.3c-0.3,0-0.5-0.1-0.7-0.4L398.8,292.6c-0.3-0.4-0.2-1,0.2-1.3c0.4-0.3,1-0.2,1.3,0.2l182.2,240.4
				c0.3,0.4,0.2,1-0.2,1.3C582.1,533.3,581.9,533.3,581.7,533.3z"/>
			<path class="st5" d="M594.1,531.9c-0.4,0-0.8-0.3-0.9-0.7L537,336.1c-0.1-0.5,0.1-1,0.6-1.1c0.5-0.1,1,0.1,1.1,0.6L595,530.7
				c0.1,0.5-0.1,1-0.6,1.1C594.3,531.9,594.2,531.9,594.1,531.9z"/>
		</g>
		<g id="windows_1_">
			<g id="bird_window">
				<linearGradient id="window_3_1_" gradientUnits="userSpaceOnUse" x1="749.9017" y1="221.285" x2="744.5522" y2="9.979">
					<stop  offset="0" style="stop-color:#D3E0DF"/>
					<stop  offset="2.997516e-02" style="stop-color:#D4E1DF"/>
					<stop  offset="0.6644" style="stop-color:#F1F0E2"/>
				</linearGradient>
				<rect id="window_3" x="652.6" y="40.8" class="st6" width="189" height="137.2"/>
				<g id="bird">
					<path class="st7" d="M763.9,97c0.8-2.5,1.9-4.4,2.7-5.5c-1-2.9-1.9-5.8-2.9-8.7c-0.1,0-0.1,0-0.2,0c-4-0.6-9.4-0.8-13.5,2.3
						c-7.4,5.6-4.1,17.1-7.1,24.4c-4.1,9.9-19.4,19.9-70,19.1c18.9,26.4,46.3,41,70.9,36c10.8-2.2,30-9.9,32.6-23.4
						C779.1,126.9,758.6,114.1,763.9,97z"/>
					<path class="st8" d="M776.3,93.7l-9.7-2.2c-1-2.9-1.9-5.8-2.9-8.7c-0.1,0,5.9-7.1,5.9-7.1l-3.4,11.3L776.3,93.7z"/>
					<path class="st9" d="M756.4,130.9c3.4,5-4,17.5-14.6,22.9c-13.2,6.7-30.7,2-31.2-2c-0.2-1.5,1.9-3.7,10.4-7
						c-1,0.3-8.6,2.9-13.5-1c-0.7-0.5-2.4-1.9-2.1-3c0.6-2,7.8-1.7,14.6-1c-8.9-2.4-10.5-4-10.4-5c0.2-2.8,13.2-4.1,21.8-5
						C746.6,128.3,754.2,127.6,756.4,130.9z"/>
					<circle class="st8" cx="757.2" cy="88" r="2.3"/>
				</g>
				<g id="notes">
					<path class="st8" d="M793.2,84.9c-0.6,0-1.1,0.2-1.5,0.5l-1.9-7.1c0-0.2-0.2-0.3-0.4-0.3h-10.7c-0.1,0-0.2,0.1-0.3,0.2
						c-0.1,0.1-0.1,0.2-0.1,0.4l2.1,8c0,0,0,0,0,0c0.1,0.8,0.9,1.4,2,1.4c1.1,0,2-0.7,2-1.5c0-0.8-0.9-1.5-2-1.5
						c-0.6,0-1.1,0.2-1.5,0.5l-1.8-6.6h9.9l2.1,7.7c0,0,0,0,0,0c0.1,0.8,0.9,1.4,2,1.4c1.1,0,2-0.7,2-1.5
						C795.2,85.5,794.3,84.9,793.2,84.9z M782.5,85.7c0.7,0,1.2,0.4,1.2,0.7c0,0.3-0.5,0.7-1.2,0.7c-0.7,0-1.2-0.4-1.2-0.7
						C781.3,86.1,781.8,85.7,782.5,85.7z M793.2,87c-0.7,0-1.2-0.4-1.2-0.7c0-0.3,0.5-0.7,1.2-0.7c0.7,0,1.2,0.4,1.2,0.7
						C794.4,86.7,793.9,87,793.2,87z"/>
					<path class="st8" d="M793.2,68.3c-0.6,0.4-0.9,1-1,1.5l-7-5.3c-0.2-0.1-0.4-0.1-0.5,0.1c-0.1,0.2-0.1,0.4,0.1,0.5l7.7,5.9
						c0,0,0,0,0,0c0.3,0.3,0.6,0.4,1,0.4c0.5,0,1.1-0.2,1.6-0.6c0.4-0.3,0.8-0.8,0.9-1.2c0.2-0.5,0.1-1-0.2-1.3
						C795.3,67.5,794.1,67.6,793.2,68.3z M795.3,69.3c-0.1,0.3-0.4,0.6-0.7,0.9c-0.6,0.5-1.4,0.6-1.7,0.2c-0.3-0.4,0-1.1,0.6-1.6
						c0.4-0.3,0.8-0.4,1.1-0.4c0.2,0,0.4,0.1,0.5,0.2C795.4,68.9,795.4,69.2,795.3,69.3z"/>
					<path class="st8" d="M818.8,72.6c-0.7-0.1-1.3-0.1-1.8,0.2l-0.3-8.8c0-0.2-0.2-0.3-0.4-0.3c-0.2,0-0.3,0.2-0.3,0.4l0.3,9.7
						c0,0,0,0,0,0c-0.1,0.4,0.1,0.7,0.3,1.1c0.3,0.4,0.8,0.7,1.4,0.8c0.5,0.1,1.1,0.1,1.5-0.1c0.5-0.2,0.8-0.5,0.9-1
						C820.8,73.7,820,72.8,818.8,72.6z M819.4,74.9c-0.3,0.1-0.7,0.1-1.1,0.1c-0.8-0.2-1.3-0.7-1.2-1.2c0.1-0.4,0.9-0.7,1.6-0.5
						c0.5,0.1,0.8,0.3,1.1,0.6c0.1,0.2,0.2,0.4,0.2,0.6C819.9,74.7,819.6,74.8,819.4,74.9z"/>
					<path class="st8" d="M806.1,70.7c-0.1-0.1-0.3-0.2-0.4-0.1c-0.2,0-0.3,0.1-0.3,0.3l-2.4,7.3c0,0,0,0-0.1,0
						c-0.4-0.3-0.9-0.4-1.4-0.5c-1.2-0.1-2.1,0.5-2.2,1.4l0,0c-0.1,0.9,0.8,1.6,2,1.7c0.5,0,1-0.1,1.4-0.3c0.1,0,0.1-0.1,0.2-0.1
						c0.3-0.2,0.5-0.5,0.6-0.9l2.5-7.5l1.1,1.3c0.2,0.2,0.4,0.2,0.6,0.1c0.2-0.2,0.2-0.4,0.1-0.6L806.1,70.7z M802.4,79.6
						c-0.2,0.1-0.6,0.2-0.9,0.2c-0.7,0-1.2-0.4-1.1-0.7c0-0.3,0.5-0.6,1.2-0.6c0.3,0,0.7,0.1,0.9,0.3c0.1,0.1,0.3,0.2,0.3,0.4
						C802.7,79.4,802.4,79.6,802.4,79.6z"/>
					<path class="st8" d="M811.8,55.6c-0.1-0.1-0.2-0.1-0.3,0l-8.2,2.7c-0.2,0-0.3,0.2-0.2,0.4l0.3,5.9c-0.3-0.1-0.8-0.1-1.2,0
						c-0.9,0.3-1.4,1-1.2,1.7v0c0.2,0.5,0.7,0.7,1.3,0.7c0.2,0,0.4,0,0.7-0.1c0.4-0.1,0.7-0.4,1-0.6c0.2-0.3,0.3-0.6,0.2-0.9
						c0,0,0,0,0,0l-0.3-5.1l7.5-2.5l0.2,4.2c-0.3-0.1-0.8-0.1-1.2,0c-0.4,0.1-0.7,0.4-1,0.6c-0.3,0.3-0.3,0.7-0.2,1
						c0.2,0.5,0.7,0.7,1.3,0.7c0.2,0,0.4,0,0.7-0.1c0.8-0.3,1.3-1,1.2-1.6c0,0,0,0,0,0l-0.4-6.7C811.9,55.8,811.8,55.7,811.8,55.6z
						 M803.3,65.7c-0.1,0.2-0.4,0.3-0.6,0.4c-0.5,0.2-1,0-1-0.2c-0.1-0.2,0.2-0.6,0.7-0.8c0.5-0.2,1,0,1,0.2
						C803.5,65.5,803.4,65.7,803.3,65.7z M803.8,59.4l0-0.5l7.5-2.5l0,0.5L803.8,59.4z M810.9,63.5c-0.5,0.2-1,0-1-0.2
						c0-0.1,0.1-0.3,0.1-0.4c0.1-0.2,0.4-0.3,0.6-0.4c0.5-0.2,1,0,1,0.2C811.7,62.9,811.4,63.3,810.9,63.5z"/>
				</g>
			</g>
			<g id="pig_window_1_">
				<linearGradient id="window1_1_" gradientUnits="userSpaceOnUse" x1="436.5265" y1="352.772" x2="430.2145" y2="103.45">
					<stop  offset="0" style="stop-color:#F1F0E2"/>
					<stop  offset="0.4305" style="stop-color:#F0F0E2"/>
					<stop  offset="1" style="stop-color:#D3E0DF"/>
				</linearGradient>
				<rect id="window1" x="324.1" y="139.7" class="st10" width="218.3" height="162"/>
				<g id="pig">
					<linearGradient id="SVGID_1_" gradientUnits="userSpaceOnUse" x1="384.616" y1="183.5164" x2="415.9349" y2="183.5164">
						<stop  offset="0" style="stop-color:#CD907F"/>
						<stop  offset="0.7663" style="stop-color:#FF7D93"/>
					</linearGradient>
					<path class="st11" d="M415.9,195.5c-1.5,0.4-3,0.8-4.4,1.3c-1.4,0.5-2.8,1-4.1,1.6s-2.6,1.3-3.9,2c-1.2,0.7-2.4,1.4-3.5,2.1
						c-1.6,1-3.1,2.2-4.5,3.3c-6.2-5.7-13.5-14.7-9.8-23.9c6.1-14.9,16.1-20.8,16.1-20.8L415.9,195.5z"/>
					<path class="st12" d="M407.4,198.4c-1.3,0.6-2.6,1.3-3.9,2c-1.2,0.7-2.4,1.4-3.5,2.1c-3.3-5.1-8.2-14.1-5.4-18.6
						c3.1-5.1,12.9,7.3,17,12.9C410.1,197.3,408.7,197.8,407.4,198.4z"/>
					<linearGradient id="SVGID_2_" gradientUnits="userSpaceOnUse" x1="448.1146" y1="189.2515" x2="479.8914" y2="189.2515">
						<stop  offset="0" style="stop-color:#CD907F"/>
						<stop  offset="0.7663" style="stop-color:#FF7D93"/>
					</linearGradient>
					<path class="st13" d="M466.1,212.3c-1.1-1.3-2.4-2.5-3.6-3.7c-0.3-0.3-0.5-0.5-0.8-0.7c-2.9-2.6-6.1-4.9-9.5-6.9
						c-1.3-0.8-2.7-1.5-4.1-2.1l16.9-32.6c0,0,9.5,6.7,14.3,22.1C482.4,198.4,473,207.3,466.1,212.3z"/>
					<linearGradient id="SVGID_3_" gradientUnits="userSpaceOnUse" x1="427.6979" y1="269.8786" x2="425.7798" y2="194.1138">
						<stop  offset="0" style="stop-color:#CD907F"/>
						<stop  offset="0.7663" style="stop-color:#FF7D93"/>
					</linearGradient>
					<path class="st14" d="M477.8,235.5c-1.4-8.1-5.6-16.3-11.7-23.2c-1.1-1.3-2.4-2.5-3.6-3.7c-0.3-0.3-0.5-0.5-0.8-0.7
						c-2.9-2.6-6.1-4.9-9.5-6.9c-1.3-0.8-2.7-1.5-4.1-2.1c-1.9-0.9-3.9-1.7-5.9-2.3c-4.7-1.5-9.8-2.4-15-2.4
						c-3.9,0-7.7,0.5-11.3,1.4c-1.5,0.4-3,0.8-4.4,1.3c-1.4,0.5-2.8,1-4.1,1.6s-2.6,1.3-3.9,2c-1.2,0.7-2.4,1.4-3.5,2.1
						c-1.6,1-3.1,2.2-4.5,3.3c-0.8,0.7-1.6,1.4-2.4,2.1c-1.2,1.1-2.4,2.3-3.6,3.6c-5.6,6.2-9.7,13.2-11.9,20.1
						c-1.4,4.6-3.5,11.3-1,18.3c6.3,17.3,36.2,18.6,50.6,19.2c16.7,0.8,38.9,1.8,47.7-12.5C480.1,248.5,478.4,239,477.8,235.5z"/>
					<path class="st12" d="M462.5,208.6c-0.3-0.3-0.5-0.5-0.8-0.7c-2.9-2.6-6.1-4.9-9.5-6.9c4.5-5.2,15.4-16.8,18.1-11.4
						C472.7,194.5,466.1,204,462.5,208.6z"/>
					<path class="st8" d="M446.7,247.7c-0.9,5.9-5.4,10.4-10.2,10.2c-4.8-0.2-8.6-4.9-8.8-10.8c3,1,6.6,1.6,10.6,1.6
						C441.3,248.6,444.2,248.3,446.7,247.7z"/>
					<path class="st12" d="M438.2,232.2c-9.9,0-18,3.7-18,8.2c0,2.7,2.9,5.1,7.4,6.6c3,1,6.6,1.6,10.6,1.6c3,0,5.9-0.4,8.4-1
						c5.7-1.4,9.5-4.1,9.5-7.2C456.2,235.9,448.2,232.2,438.2,232.2z"/>
					
						<ellipse transform="matrix(0.9956 -9.360799e-02 9.360799e-02 0.9956 -20.561 41.6393)" class="st8" cx="433.6" cy="240" rx="2.2" ry="2.2"/>
					
						<ellipse transform="matrix(0.9956 -9.360799e-02 9.360799e-02 0.9956 -20.5098 42.7325)" class="st8" cx="445.2" cy="240" rx="2.2" ry="2.2"/>
					<ellipse class="st8" cx="421" cy="227.2" rx="2.8" ry="4.3"/>
					<ellipse class="st8" cx="449.3" cy="227.2" rx="2.8" ry="4.3"/>
				</g>
				<g id="signal">
					<path class="st5" d="M463.3,246c-0.2,0-0.3-0.1-0.4-0.2c-0.1-0.2-0.1-0.5,0.2-0.6l27.6-16.5c0.2-0.1,0.5-0.1,0.6,0.2
						c0.1,0.2,0.1,0.5-0.2,0.6l-27.6,16.5C463.5,246,463.4,246,463.3,246z"/>
					<path class="st5" d="M495,258.7c0,0-0.1,0-0.1,0l-31.2-7.8c-0.2-0.1-0.4-0.3-0.3-0.6c0.1-0.2,0.3-0.4,0.6-0.3l31.2,7.8
						c0.2,0.1,0.4,0.3,0.3,0.6C495.4,258.6,495.2,258.7,495,258.7z"/>
					<path class="st5" d="M463.9,248.7c-0.2,0-0.4-0.1-0.4-0.4c-0.1-0.2,0.1-0.5,0.3-0.5l31.4-6.9c0.2-0.1,0.5,0.1,0.5,0.3
						s-0.1,0.5-0.3,0.5L463.9,248.7C463.9,248.7,463.9,248.7,463.9,248.7z"/>
				</g>
			</g>
			<g id="dolphin_window">
				<linearGradient id="SVGID_4_" gradientUnits="userSpaceOnUse" x1="620.2195" y1="423.1214" x2="614.3801" y2="192.4628">
					<stop  offset="0" style="stop-color:#D3E0DF"/>
					<stop  offset="0.5467" style="stop-color:#F1F0E2"/>
				</linearGradient>
				<rect x="507.4" y="226.3" class="st15" width="219.4" height="149.4"/>
				<g id="window2">
					<path class="st16" d="M685,324.2c-3.2-2.1-6.3-2.7-8.3-2.8c-3.3-8.8-12.2-23.2-26.7-32.9c-1.6-1.1-6.2-4-12.6-6.5
						c-1.8-0.7-3.7-1.3-5.8-1.9c1-3.3,1.9-6.6,2.9-9.9c-4,2.8-8.1,5.6-12.1,8.4c-3.1-0.2-6.2-0.1-9.5,0.4c-4.7,0.7-12.9,2-16.4,8.6
						c-1.4,2.6-1.6,5.4-1.4,7.8c-1.2-0.2-2.7-0.3-4.6-0.2c-4.5,0.3-9.6,2.3-9.5,3.6c0.1,1.3,5.3,1.9,12.1,2.6
						c6.6,0.7,11.7,0.8,16.4,0.9c4.8,0.1,10.9,0.1,18,0.1c0.4,1.8,1.5,5.3,4.4,8.5c1.5,1.6,3.1,2.7,4.3,3.4c-0.5-3.5-1-6.9-1.4-10.4
						c2.3,0.6,4.5,1.2,6.6,1.8c15.4,4.3,24.9,13.6,30.5,19.1c-0.9,1.7-2.1,4.7-2,8.4c0.1,6,3.3,10.1,4.3,11.2
						c1.2-5.2,2.4-10.4,3.7-15.7c4.8,1.7,9.5,3.3,14.3,5C691.8,332.4,690.1,327.5,685,324.2z"/>
					<circle class="st8" cx="604" cy="295.4" r="1"/>
				</g>
				<g id="signals">
					<path class="st5" d="M577.3,307.5c-0.1,0-0.3-0.1-0.4-0.2c-0.9-1.1-2.8-4-2.7-8.1c0.1-3.5,1.7-6,2.7-7.2
						c0.2-0.2,0.4-0.2,0.6-0.1c0.2,0.2,0.2,0.4,0.1,0.6c-0.9,1.1-2.4,3.4-2.5,6.6c-0.1,3.8,1.7,6.5,2.5,7.5c0.2,0.2,0.1,0.5-0.1,0.6
						C577.5,307.5,577.4,307.5,577.3,307.5z"/>
					<path class="st5" d="M570.4,310.1c-0.1,0-0.3-0.1-0.4-0.2c-1.1-1.4-3.7-5.3-3.5-10.6c0.1-4.7,2.3-8.1,3.5-9.8
						c0.2-0.2,0.4-0.2,0.6-0.1c0.2,0.2,0.2,0.4,0.1,0.6c-1.2,1.5-3.2,4.7-3.4,9.2c-0.1,5.1,2.3,8.7,3.4,10.1
						c0.2,0.2,0.1,0.5-0.1,0.6C570.6,310.1,570.5,310.1,570.4,310.1z"/>
					<path class="st5" d="M562.6,314.4c-0.1,0-0.3-0.1-0.3-0.2c-1.7-1.9-5.6-7.3-5.3-15c0.3-7.4,4.4-12.3,6.2-14.1
						c0.2-0.2,0.5-0.2,0.6,0c0.2,0.2,0.2,0.5,0,0.6c-1.7,1.7-5.6,6.4-5.9,13.5c-0.3,7.4,3.4,12.5,5.1,14.3c0.2,0.2,0.1,0.5,0,0.6
						C562.8,314.4,562.7,314.4,562.6,314.4z"/>
					<path class="st5" d="M553.1,317c-0.1,0-0.2,0-0.3-0.1c-1.7-1.7-7.2-8.1-7-17.6c0.2-9.7,6.1-15.9,7.9-17.6
						c0.2-0.2,0.5-0.2,0.6,0c0.2,0.2,0.2,0.5,0,0.6c-1.7,1.6-7.4,7.6-7.6,16.9c-0.2,9.2,5.1,15.3,6.8,16.9c0.2,0.2,0.2,0.5,0,0.6
						C553.4,316.9,553.3,317,553.1,317z"/>
				</g>
			</g>
		</g>
		<g id="ball">
			<path class="st17" d="M740.3,979.1c0,13.1-5.8,24.9-14.9,33c-7.7,6.8-17.8,10.9-28.9,10.9c-10.1,0-19.5-3.4-26.9-9.2
				c-5.3-4.1-9.6-9.3-12.5-15.3c-2.9-5.8-4.5-12.4-4.5-19.3c0-12.1,4.9-23.1,12.9-31.1c7.9-7.9,18.9-12.8,31-12.8
				c8.4,0,16.2,2.4,22.9,6.4c2.1,1.3,4.2,2.8,6.1,4.5C734.5,954.1,740.3,965.9,740.3,979.1z"/>
			<path class="st18" d="M723.1,1011.6c-0.1,0-0.2,0-0.3-0.1c-9.3-8.2-14.6-19.9-14.6-32.3c0-12.4,5.3-24.2,14.6-32.3
				c0.2-0.2,0.5-0.1,0.6,0c0.2,0.2,0.1,0.5,0,0.6c-9.1,8-14.3,19.5-14.3,31.6c0,12.1,5.2,23.6,14.3,31.6c0.2,0.2,0.2,0.5,0,0.6
				C723.4,1011.5,723.3,1011.6,723.1,1011.6z"/>
			<path class="st18" d="M669.8,1011.6c-0.1,0-0.3-0.1-0.3-0.2c-0.2-0.2-0.1-0.5,0-0.6c9.1-8,14.3-19.5,14.3-31.6
				c0-12.1-5.2-23.6-14.3-31.6c-0.2-0.2-0.2-0.5,0-0.6c0.2-0.2,0.5-0.2,0.6,0c9.3,8.2,14.6,19.9,14.6,32.3
				c0,12.4-5.3,24.1-14.6,32.3C670,1011.6,669.9,1011.6,669.8,1011.6z"/>
			<path class="st19" d="M719.3,941.6L657,998.4c-2.9-5.8-4.5-12.4-4.5-19.3c0-12.1,4.9-23.1,12.9-31.1c7.9-7.9,18.9-12.8,31-12.8
				C704.8,935.2,712.7,937.5,719.3,941.6z"/>
		</g>
		<g id="mother">
			<g id="legs">
				<g id="socks_1_">
					<path class="st20" d="M509,937.6c0,0.2-0.2,0.5-0.4,0.5l-3.7,0.3c0,1.6-0.1,3.1-0.2,4.4c-1.5,14.4-90.5,15.2-98.9,11.4
						c-0.4-0.2-1.6-0.8-2.3-2.1c-2.4-4.1,1.5-11.8,6.1-15.4c0.1-0.1,0.3-0.2,0.4-0.3c4.5-3.3,9.1-2.3,15.3-1.6l-3.1-3.3
						c-0.2-0.2-0.2-0.5,0-0.7c0.2-0.2,0.5-0.2,0.7,0l3.9,4.1c2.6,0.3,5.4,0.4,8.7,0.2c7.7-0.5,16.7-3.1,24.4-7.9l-3.6-2.5
						c-0.2-0.1-0.3-0.4-0.1-0.7c0.1-0.2,0.4-0.3,0.7-0.1l3.9,2.7c0.1-0.1,0.2-0.1,0.3-0.2l-1.6-4.8c-0.1-0.2,0-0.5,0.3-0.6
						c0.3-0.1,0.5,0,0.6,0.3l1.5,4.5c4.6-3.2,8.7-7.2,11.7-12.2c2.6-4.3,4-8.8,4.7-13c0.2-1.3,0.4-2.7,0.5-3.9
						c0.2-2.9,0.1-5.6-0.1-8c0.1-2.5,0.1-4.9,0.2-7.3c2.9,0.8,5.9,1.6,8.8,2.4c4.2,1.1,8.3,2.2,12.5,3.3c0,0,0.6,3.9,1.3,9.7
						c0.1,1,0.3,2.1,0.4,3.3c0.8,6.3,1.7,14.1,2.3,21.5l1.7-2.4c0.1-0.2,0.4-0.3,0.7-0.1c0.2,0.1,0.3,0.4,0.1,0.7l-2.4,3.3
						c0.3,4.1,0.6,8.1,0.6,11.6l1.5-1.3c0.2-0.2,0.5-0.1,0.7,0.1c0.2,0.2,0.1,0.5,0,0.7l-2.1,1.8c0,0.5,0,1,0,1.5l3.6-0.2
						C508.7,937.2,509,937.4,509,937.6z"/>
					<path class="st21" d="M921.5,907l-2.1,5.1c0.3,2.3,0.6,5.3,1,9.4c0.7,9.2,1.1,13.7,1,18.2c-0.4,16.7-1,38.2-13.4,45.9
						c-2.5,1.6-5.3,2.4-6.7,2.9c-3.9,1.2-11.8,3.6-19.1,0c-1.7-0.8-7.8-3.9-7.6-7.6c0-0.8,0.4-1.6,1-2.2c3.9-4.1,18.4-4.5,23.8-14.1
						c1.4-2.5,2-5.3,2-8.1h-5.8c-0.3,0-0.5-0.2-0.5-0.5c0-0.3,0.2-0.5,0.5-0.5h5.5l-4-4c-0.2-0.2-0.2-0.5,0-0.7
						c0.2-0.2,0.5-0.2,0.7,0l3.5,3.5c-0.5-6-3.3-11.9-5.7-15.6c-7.5-11.3-22.5-16.8-38.2-14.3c0.6-7.4,1.1-14.7,1.7-22.1
						c12.8-0.7,26.8-1.3,42.3-1.8l1.2,0l-1.7-0.9c-0.2-0.1-0.3-0.4-0.2-0.6c0.1-0.2,0.4-0.3,0.6-0.2l3.3,1.7c0.5,0,0.9,0,1.4,0
						l-1.4-4.7c-0.1-0.2,0.1-0.5,0.3-0.6c0.2-0.1,0.5,0.1,0.6,0.3l1.5,5c0.9,0.1,1.7,0.2,2.5,0.3c2.7,0.5,5.2,1.5,7.1,3.5
						c1.2,1.2,1.9,2.7,2.6,6l1.5-3.7c0.1-0.2,0.4-0.4,0.6-0.3C921.5,906.5,921.6,906.8,921.5,907z"/>
					<path class="st22" d="M491.4,900c0.3,19.9-15.7,33.1-20.7,36.8c-3.4,2.5-16.2,11.5-34.3,10.1c-12-0.9-21.1-6.4-26.4-10.4
						c4.5-3.3,9.1-2.3,15.3-1.6l-3.1-3.3c-0.2-0.2-0.2-0.5,0-0.7c0.2-0.2,0.5-0.2,0.7,0l3.9,4.1c2.6,0.3,5.4,0.4,8.7,0.2
						c7.7-0.5,16.7-3.1,24.4-7.9l-3.6-2.5c-0.2-0.1-0.3-0.4-0.1-0.7c0.1-0.2,0.4-0.3,0.7-0.1l3.9,2.7c0.1-0.1,0.2-0.1,0.3-0.2
						l-1.6-4.8c-0.1-0.2,0-0.5,0.3-0.6c0.3-0.1,0.5,0,0.6,0.3l1.5,4.5c4.6-3.2,8.7-7.2,11.7-12.2c3.4-5.7,4.8-11.6,5.2-17
						c0.3-4.5-0.1-8.6-0.6-11.8c0-1.3,0-2.5,0-3.8c3.2,0.8,6.3,1.7,9.5,2.5c1.4,3,3.1,7.5,3.6,13C491.3,897.9,491.4,898.9,491.4,900
						z"/>
					<path class="st23" d="M921.5,907l-2.1,5.1c0.3,2.3,0.6,5.3,1,9.4c0.7,9.2,1.1,13.7,1,18.2c-0.4,16.7-1,38.2-13.4,45.9
						c-2.5,1.6-5.3,2.4-6.7,2.9c-3.9,1.2-11.8,3.6-19.1,0c-1.7-0.8-7.8-3.9-7.6-7.6c0-0.8,0.4-1.6,1-2.2c2.2,1.2,9.1,4.6,18.1,3.1
						c2.3-0.4,11.3-1.8,16.2-8.6c10.2-14-2.1-44.4-3.8-48.7c-0.6-1.5-2.3-5.4-1.9-10.5c0.4-5.8,3.2-10.3,5.3-13
						c1.5,0.3,4.9,1.2,7.1,3.5c1.2,1.2,1.9,2.7,2.6,6C919.9,909.3,920.7,908.1,921.5,907z"/>
				</g>
				<g id="leg_back">
					<path class="st24" d="M750.4,679.8c-8.4,10.2-16.7,20.3-25.1,30.5c-1.4,1.7-2.7,3.3-4.1,5c-1.8,2.2-3.6,4.4-5.5,6.6
						c-7.6,9.2-15.2,18.4-22.7,27.6c-2.8-0.9-5.7-1.8-8.5-2.8c-46.7-15.2-93.3-30.4-140-45.6c0.5,9.1,0.7,22.8-1.1,39.4
						c-3.4,31.5-12.1,52-20.3,76.5c-6.4,19.3-14.7,47.4-21.4,83.1c0,0,0,0.1,0,0.1c-1.9,0.1-3.8,0.2-5.7,0.3
						c-6,0.3-11.9,0.6-17.9,0.9c0-0.2,0-0.4,0-0.6c0.1-4.1,0.2-8,0.4-12c0.1-2.5,0.1-4.9,0.2-7.3c1.4-48.3,1.6-85.8,1.6-110.7
						c0-55.8,0-106.3,30.6-135c1.5-1.4,2.9-2.5,4.3-3.4c22.2-15.2,49.9-9.1,104.6,2.3C676.4,646.5,720.8,665.1,750.4,679.8z"/>
					<linearGradient id="SVGID_5_" gradientUnits="userSpaceOnUse" x1="495.0418" y1="777.991" x2="734.6932" y2="777.991">
						<stop  offset="2.239147e-03" style="stop-color:#FC860A"/>
						<stop  offset="0.9961" style="stop-color:#DA9E29"/>
					</linearGradient>
					<path class="st25" d="M734.7,715.8c-5.2-0.9-9.7-0.9-13.4-0.5c-4.4,0.5-7.8,1.5-10.1,2.5c-11.9,4.7-21.3,15.2-26.6,29
						c-46.7-15.2-93.3-30.4-140-45.6c0.5,9.1,0.7,22.8-1.1,39.4c-3.4,31.5-12.1,52-20.3,76.5c-6.4,19.3-14.7,47.4-21.4,83.1
						c0,0,0,0.1,0,0.1c-1.9,0.1-3.8,0.2-5.7,0.3c-3.4-61.8,1.9-112.4,8-148.8c11.7-70.2,25.4-83.1,34.9-88.9
						c25.9-15.9,60.5-4.2,109.1,12.4c32.4,11,58.5,24.2,77.3,35C728.7,712.2,731.8,714.1,734.7,715.8z"/>
				</g>
				<g id="leg_front">
					<path class="st26" d="M893.3,900.3c-0.2,0.8-0.4,1.6-0.5,2.4c-0.1,0.6-0.3,1.2-0.4,1.8c-0.8,3.9-1.6,7.9-2.4,12
						c-0.1,0.4-0.2,0.9-0.2,1.3c-0.8,4.4-1.5,8.7-2.1,12.9c-0.4-0.1-0.9-0.1-1.3-0.2c-0.6-0.1-1.2-0.1-1.8-0.2
						c-3.8-0.4-8.3-0.9-13.4-1.5c-0.8-0.1-1.6-0.2-2.5-0.3c-0.8-0.1-1.7-0.2-2.5-0.3c-0.3,0-0.7-0.1-1-0.1c-2-0.2-4.2-0.5-6.4-0.8
						c-0.6-0.1-1.2-0.1-1.8-0.2c-1.8-0.2-3.6-0.4-5.5-0.7c-0.9-0.1-1.7-0.2-2.6-0.3c-0.1,0-0.1,0-0.2,0c-1-0.1-2.1-0.3-3.2-0.4
						c-1.3-0.2-2.7-0.3-4.1-0.5c-1.4-0.2-2.8-0.4-4.2-0.5c-1.1-0.1-2.3-0.3-3.4-0.4c-0.1,0-0.3,0-0.4-0.1c-0.6-0.1-1.2-0.2-1.8-0.2
						c-1-0.1-2-0.3-3-0.4c-1.2-0.2-2.4-0.3-3.6-0.5c-1.2-0.2-2.4-0.3-3.6-0.5c-0.6-0.1-1.2-0.2-1.8-0.2c-1.2-0.2-2.4-0.3-3.7-0.5
						c-3.3-0.4-6.7-0.9-10.1-1.4c-0.6-0.1-1.2-0.2-1.8-0.2c-2.4-0.3-4.8-0.7-7.3-1c-1.1-0.2-2.1-0.3-3.2-0.5c-0.2,0-0.5-0.1-0.7-0.1
						c-2-0.3-4-0.6-6-0.9c-0.4,0-0.8-0.1-1.2-0.2c-1.2-0.2-2.4-0.3-3.7-0.5c-1.2-0.2-2.4-0.3-3.7-0.5c-0.6-0.1-1.2-0.2-1.8-0.3
						c-8.4-1.2-17-2.5-25.7-3.9c-0.6-0.1-1.2-0.2-1.8-0.3c-0.2,0-0.5-0.1-0.7-0.1c-1.8-0.3-3.6-0.6-5.4-0.8c-2-0.3-4-0.6-6.1-1
						c-1.9-0.3-3.8-0.6-5.7-0.9s-3.8-0.6-5.7-0.9c-0.6-0.1-1.2-0.2-1.8-0.3c-0.2,0-0.4-0.1-0.6-0.1c-2-0.3-3.9-0.7-5.8-1
						c-3.4-0.6-6.7-1.2-10.1-1.8c-2.8-0.5-5.6-1-8.4-1.5c-0.3-0.1-0.5-0.1-0.8-0.2c-0.6-0.1-1.2-0.2-1.8-0.3c-1.5-0.3-3-0.5-4.5-0.8
						c-1.1-0.2-2.2-0.4-3.2-0.6c-0.4-0.1-0.8-0.1-1.2-0.2c0,0,0,0,0,0l-0.1,0c-0.2,0-0.5-0.1-0.7-0.2c-3.1-0.6-6.2-1.2-9.2-1.8
						c0,0,0,0,0,0c-1.1-0.2-2.2-0.4-3.3-0.7c-0.6-0.1-1.2-0.2-1.8-0.4c-4.6-0.9-9.2-1.9-13.7-2.9c-1.3-0.3-2.8-0.6-4.4-1
						c-0.3-0.1-0.5-0.1-0.8-0.2c-0.7-0.2-1.4-0.3-2.1-0.5c-0.9-0.2-1.8-0.5-2.7-0.7c-0.7-0.2-1.3-0.4-2-0.6
						c-0.6-0.2-1.2-0.4-1.8-0.6c-0.2-0.1-0.3-0.1-0.5-0.2c-0.5-0.2-1-0.3-1.5-0.5c-2.8-1-5.7-2.2-8.4-3.7c-0.4-0.2-0.8-0.4-1.2-0.7
						c-0.2-0.1-0.3-0.2-0.5-0.3c-0.3-0.2-0.6-0.3-0.9-0.5c-0.1,0-0.1-0.1-0.2-0.1c-0.4-0.2-0.8-0.5-1.2-0.8c-0.3-0.2-0.7-0.4-1-0.7
						c-0.3-0.2-0.6-0.4-0.9-0.6c-0.4-0.3-0.7-0.5-1.1-0.8c-0.1-0.1-0.2-0.1-0.2-0.2c-0.1,0-0.1-0.1-0.2-0.1
						c-0.2-0.2-0.5-0.3-0.7-0.6c-0.1,0-0.1-0.1-0.2-0.1c-0.1-0.1-0.3-0.2-0.4-0.3c0,0,0,0,0,0c0,0-0.1-0.1-0.2-0.1c0,0,0,0-0.1-0.1
						l0,0c-0.3-0.3-0.6-0.6-0.9-0.8c-0.6-0.6-1.2-1.2-1.8-1.9c-0.1-0.2-0.3-0.3-0.4-0.4c-0.6-0.6-1.1-1.3-1.6-2
						c-0.2-0.2-0.3-0.5-0.5-0.7c0,0-0.1-0.1-0.1-0.1c-0.2-0.2-0.3-0.5-0.5-0.8c0-0.1-0.1-0.2-0.2-0.2c-0.2-0.2-0.3-0.5-0.4-0.7
						c-0.1-0.1-0.1-0.2-0.2-0.3c0,0,0,0,0-0.1c-0.1-0.1-0.1-0.2-0.2-0.3c0,0,0-0.1,0-0.1c-0.2-0.4-0.4-0.8-0.6-1.2
						c-2-4.2-2.9-8.7-2.8-13.6c0-0.3,0-0.6,0-0.9c0-0.7,0.1-1.3,0.2-2c0-0.2,0-0.5,0.1-0.7c0.1-0.9,0.2-1.8,0.4-2.7
						c0.1-0.3,0.1-0.6,0.2-0.9c0.2-0.8,0.4-1.7,0.6-2.5c0.2-0.6,0.3-1.2,0.5-1.8c0,0,0-0.1,0-0.1c0.1-0.4,0.2-0.8,0.4-1.2
						c0.1-0.4,0.3-0.9,0.4-1.3c0.1-0.2,0.2-0.5,0.2-0.7c0.2-0.6,0.4-1.1,0.6-1.7c0.1-0.3,0.2-0.6,0.3-0.9c0.1-0.3,0.2-0.6,0.4-0.9
						c0.2-0.6,0.5-1.2,0.7-1.8c0.2-0.5,0.4-1,0.6-1.5c0.1-0.2,0.2-0.5,0.3-0.7c0.5-1.1,1-2.3,1.5-3.4c0.6-1.2,1.2-2.5,1.8-3.8
						c0.4-0.8,0.8-1.6,1.2-2.4c1.3-2.5,2.7-5,4.2-7.7c3.9-7,8.6-14.7,13.9-23.2c0.3-0.4,0.5-0.8,0.8-1.2c0.6-0.9,1.2-1.9,1.8-2.9
						c0.2-0.3,0.4-0.6,0.6-0.9c0.4-0.6,0.8-1.2,1.2-1.8c7-10.9,14.9-22.9,24-35.9c0.6-0.9,1.2-1.7,1.8-2.6c4.8-6.9,10-14,15.4-21.3
						c0.4-0.6,0.9-1.2,1.3-1.8c1.8-2.5,3.7-5,5.6-7.5c0.6-0.8,1.2-1.6,1.8-2.4c7.6-10,15.7-20.3,24.4-30.9c0.4,0.1,0.9,0.2,1.3,0.3
						c0.6,0.2,1.2,0.3,1.8,0.5c7.8,2.1,15.7,4.1,23.5,6.2c0.6,0.2,1.2,0.3,1.8,0.5c8.6,2.3,17.2,4.5,25.7,6.8
						c0.6,0.2,1.2,0.3,1.8,0.5c8.6,2.3,17.2,4.5,25.8,6.8c0.6,0.2,1.2,0.3,1.8,0.5c6.3,1.7,12.5,3.3,18.8,5c0,4.6-0.1,10-0.9,15.6
						c-0.1,0.6-0.2,1.2-0.2,1.8c-1.6,10.8-5.1,22.9-12.4,34.3c-1.7,2.6-3.4,5-5.3,7.2c-0.6,0.7-1.2,1.4-1.8,2.1
						c-5.8,6.3-12.5,11.2-20.9,16.2c-1,0.6-2,1.2-3,1.8c-0.6,0.4-1.3,0.7-1.9,1.1c-0.6,0.3-1.2,0.7-1.8,1
						c-7.4,4.2-15.9,8.8-25.7,14.6c-0.6,0.3-1.2,0.7-1.8,1.1c-6.1,3.6-12.7,7.6-19.9,12.3c-1.2,0.8-2.4,1.6-3.6,2.4
						c-0.6,0.4-1.2,0.8-1.8,1.2c-10.2,6.8-18.9,13.1-25.8,18.4c-0.6,0.5-1.2,0.9-1.8,1.4c-1,0.8-1.9,1.5-2.8,2.2
						c-0.8,0.6-1.6,1.2-2.3,1.8c-0.9,0.7-1.7,1.3-2.4,1.9c2.1-0.5,4.7-1.1,7.5-1.5c0.6-0.1,1.2-0.2,1.8-0.2c0.2,0,0.4-0.1,0.6-0.1h0
						c4-0.5,8.6-0.7,13.7-0.4c2.5,0.1,4.8,0.4,6.9,0.7h0c1.7,0.2,3.2,0.5,4.5,0.8c0.7,0.1,1.3,0.3,1.8,0.4c0.5,0.1,0.9,0.2,1.3,0.3
						c3.8,0.9,11.3,3,22.1,6.1c0.6,0.2,1.2,0.3,1.8,0.5c7.3,2.1,15.9,4.5,25.7,7.4c0.6,0.2,1.2,0.3,1.8,0.5
						c7.9,2.3,16.5,4.8,25.8,7.5c0.6,0.2,1.2,0.4,1.8,0.5c8.1,2.4,16.7,4.9,25.7,7.6c0.6,0.2,1.2,0.3,1.8,0.5
						c7.5,2.2,15.4,4.5,23.5,6.9c0.6,0.2,1.2,0.4,1.8,0.5c8.3,2.5,16.9,5,25.8,7.6c0.6,0.2,1.2,0.4,1.8,0.5
						C888.7,898.9,891,899.6,893.3,900.3z"/>
					<g>
						<path class="st24" d="M646.2,791.6v101.2c-0.6-0.2-1.2-0.4-1.8-0.6v-97.8C644.9,793.5,645.5,792.6,646.2,791.6z"/>
						<path class="st24" d="M624.2,829v52c-0.6-0.6-1.2-1.2-1.8-1.9v-46.4C623,831.6,623.6,830.3,624.2,829z"/>
						<path class="st24" d="M671.9,753c0.6-0.9,1.2-1.7,1.8-2.6V899c-0.6-0.1-1.2-0.2-1.8-0.4V753z"/>
						<path class="st24" d="M697.9,717.4v127.2c-0.6,0.5-1.2,0.9-1.8,1.4V719.8C696.7,719,697.3,718.2,697.9,717.4z"/>
						<path class="st24" d="M697.9,850.2v53.5c-0.6-0.1-1.2-0.2-1.8-0.3v-52.9C696.7,850.4,697.3,850.3,697.9,850.2z"/>
						<path class="st24" d="M725.5,687.4v137.7c-0.6,0.4-1.2,0.8-1.8,1.2V686.9C724.3,687.1,724.9,687.2,725.5,687.4z"/>
						<path class="st24" d="M725.5,851.6v56.8c-0.6-0.1-1.2-0.2-1.8-0.3v-57C724.3,851.4,724.9,851.5,725.5,851.6z"/>
						<path class="st24" d="M750.8,694.1v115.2c-0.6,0.3-1.2,0.7-1.8,1.1V693.6C749.6,693.8,750.2,693.9,750.8,694.1z"/>
						<path class="st24" d="M750.8,858.5v54c-0.6-0.1-1.2-0.2-1.8-0.3V858C749.6,858.2,750.2,858.4,750.8,858.5z"/>
						<path class="st24" d="M778.4,701.3v92.3c-0.6,0.3-1.2,0.7-1.8,1v-93.9C777.1,701,777.7,701.2,778.4,701.3z"/>
						<path class="st24" d="M778.4,866.5v50.2c-0.6-0.1-1.2-0.2-1.8-0.3v-50.5C777.1,866.1,777.7,866.3,778.4,866.5z"/>
						<path class="st24" d="M805.9,708.6v63.9c-0.6,0.7-1.2,1.4-1.8,2.1v-66.4C804.7,708.3,805.3,708.5,805.9,708.6z"/>
						<path class="st24" d="M805.9,874.5v46.1c-0.6-0.1-1.2-0.2-1.8-0.2V874C804.7,874.1,805.3,874.3,805.9,874.5z"/>
						<path class="st24" d="M823.8,729.2c-0.1,0.6-0.2,1.2-0.2,1.8l-17.7-0.2l-1.8,0l-25.8-0.4l-1.8,0l-25.7-0.3l-1.8,0l-23.5-0.3
							l-1.8,0l-25.8-0.4l-1.8,0l-7-0.1c0.4-0.6,0.9-1.2,1.3-1.8l5.6,0.1l1.8,0l25.8,0.4l1.8,0l23.5,0.3l1.8,0l25.7,0.3l1.8,0
							l25.8,0.4l1.8,0L823.8,729.2z"/>
						<path class="st24" d="M783.2,790.8c-1,0.6-2,1.2-3,1.8l-1.9,0l-1.8,0l-25.7-0.4l-1.8,0l-23.5-0.3l-1.8,0l-25.8-0.4l-1.8,0
							l-22.4-0.3l-1.8,0l-25.2-0.3c0.4-0.6,0.8-1.2,1.2-1.8l24,0.3l1.8,0l22.4,0.3l1.8,0l25.8,0.4l1.8,0l23.5,0.3l1.8,0l25.7,0.4
							l1.8,0L783.2,790.8z"/>
						<path class="st24" d="M693.3,848.2c-0.8,0.6-1.6,1.2-2.3,1.8l-17.3-0.2l-1.8,0l-15.5-0.2h0l-10.2-0.1l-1.8,0l-20.1-0.3l-1.8,0
							l-6-0.1c0.2-0.6,0.3-1.2,0.5-1.8l5.5,0.1l1.8,0l20.1,0.3l1.8,0l8,0.1l17.7,0.2l1.8,0L693.3,848.2z"/>
						<path class="st24" d="M712.2,849.7c2.5,0.1,4.8,0.4,6.9,0.7l-20.6-0.3C702.6,849.6,707.2,849.4,712.2,849.7z"/>
						<path class="st24" d="M892.8,902.7c-0.1,0.6-0.3,1.2-0.4,1.8l-6.1-0.1l-1.8,0l-25.8-0.4l-1.8,0l-23.5-0.3l-1.8,0l-25.7-0.4
							l-1.8,0l-21.2-0.3h0l-4.6-0.1l-1.8,0l-25.7-0.4l-1.8,0l-23.5-0.3l-1.8,0l-25.8-0.4l-1.8,0l-8.9-0.1c0,0,0,0,0,0l-0.1,0
							c-0.2,0-0.5-0.1-0.7-0.2c-3.1-0.6-6.2-1.2-9.2-1.8l19,0.3l1.8,0l25.8,0.3l1.8,0l23.5,0.3l1.8,0l23.6,0.3c0,0,0,0,0,0l2.1,0
							l1.8,0l25.8,0.4l1.8,0l25.7,0.4l1.8,0l23.5,0.3l1.8,0l25.8,0.4l1.8,0L892.8,902.7z"/>
						<path class="st24" d="M833.5,882.6v41.6c-0.6-0.1-1.2-0.2-1.8-0.2V882C832.3,882.2,832.9,882.4,833.5,882.6z"/>
						<path class="st24" d="M858.8,890.1v37.3c-0.6-0.1-1.2-0.1-1.8-0.2v-37.6C857.6,889.7,858.2,889.9,858.8,890.1z"/>
						<path class="st24" d="M886.4,898.2v32.3c-0.6-0.1-1.2-0.1-1.8-0.2v-32.6C885.2,897.9,885.8,898.1,886.4,898.2z"/>
					</g>
					<linearGradient id="SVGID_6_" gradientUnits="userSpaceOnUse" x1="614.9157" y1="874.7867" x2="889.8218" y2="874.7867">
						<stop  offset="8.335513e-04" style="stop-color:#DA9E29;stop-opacity:0.5"/>
						<stop  offset="0.9978" style="stop-color:#FC860A"/>
					</linearGradient>
					<path class="st27" d="M889.8,917.8c-0.8,4.4-1.5,8.7-2.1,12.9c-0.4-0.1-0.9-0.1-1.3-0.2c-0.6-0.1-1.2-0.1-1.8-0.2
						c-3.8-0.4-8.3-0.9-13.4-1.5c-0.8-0.1-1.6-0.2-2.5-0.3c-0.8-0.1-1.7-0.2-2.5-0.3c-0.3,0-0.7-0.1-1-0.1c-2-0.2-4.2-0.5-6.4-0.8
						c-0.6-0.1-1.2-0.1-1.8-0.2c-1.8-0.2-3.6-0.4-5.5-0.7c-0.9-0.1-1.7-0.2-2.6-0.3c-0.1,0-0.1,0-0.2,0c-1-0.1-2.1-0.3-3.2-0.4
						c-1.3-0.2-2.7-0.3-4.1-0.5c-1.4-0.2-2.8-0.4-4.2-0.5c-1.1-0.1-2.3-0.3-3.4-0.4c-0.1,0-0.3,0-0.4-0.1c-0.6-0.1-1.2-0.2-1.8-0.2
						c-1-0.1-2-0.3-3-0.4c-1.2-0.2-2.4-0.3-3.6-0.5c-1.2-0.2-2.4-0.3-3.6-0.5c-0.6-0.1-1.2-0.2-1.8-0.2c-1.2-0.2-2.4-0.3-3.7-0.5
						c-3.3-0.4-6.7-0.9-10.1-1.4c-0.6-0.1-1.2-0.2-1.8-0.2c-2.4-0.3-4.8-0.7-7.3-1c-1.1-0.2-2.1-0.3-3.2-0.5c-0.2,0-0.5-0.1-0.7-0.1
						c-2-0.3-4-0.6-6-0.9c-0.4,0-0.8-0.1-1.2-0.2c-1.2-0.2-2.4-0.3-3.7-0.5c-1.2-0.2-2.4-0.3-3.7-0.5c-0.6-0.1-1.2-0.2-1.8-0.3
						c-8.4-1.2-17-2.5-25.7-3.9c-0.6-0.1-1.2-0.2-1.8-0.3c-0.2,0-0.5-0.1-0.7-0.1c-1.8-0.3-3.6-0.6-5.4-0.8c-2-0.3-4-0.6-6.1-1
						c-1.9-0.3-3.8-0.6-5.7-0.9s-3.8-0.6-5.7-0.9c-0.6-0.1-1.2-0.2-1.8-0.3c-0.2,0-0.4-0.1-0.6-0.1c-2-0.3-3.9-0.7-5.8-1
						c-3.4-0.6-6.7-1.2-10.1-1.8c-2.8-0.5-5.6-1-8.4-1.5c-0.3-0.1-0.5-0.1-0.8-0.2c-0.6-0.1-1.2-0.2-1.8-0.3c-1.5-0.3-3-0.5-4.5-0.8
						c-1.1-0.2-2.2-0.4-3.2-0.6c-0.4-0.1-0.8-0.1-1.2-0.2c0,0,0,0,0,0c-0.3-0.1-0.6-0.1-0.9-0.2c-3.1-0.6-6.2-1.2-9.2-1.8
						c0,0,0,0,0,0c-1.1-0.2-2.2-0.4-3.3-0.7c-0.6-0.1-1.2-0.2-1.8-0.4c-4.6-0.9-9.2-1.9-13.7-2.9c-1.3-0.3-2.8-0.6-4.4-1
						c-0.3-0.1-0.5-0.1-0.8-0.2c-0.7-0.2-1.4-0.3-2.1-0.5c-0.9-0.2-1.8-0.5-2.7-0.7c-0.7-0.2-1.3-0.4-2-0.6
						c-0.6-0.2-1.2-0.4-1.8-0.6c-0.2-0.1-0.3-0.1-0.5-0.2c-0.5-0.2-1-0.3-1.5-0.5c-2.8-1-5.7-2.2-8.4-3.7c-0.4-0.2-0.8-0.4-1.2-0.7
						c-0.2-0.1-0.3-0.2-0.5-0.3c-0.3-0.2-0.6-0.3-0.9-0.5c-0.1,0-0.1-0.1-0.2-0.1c-0.4-0.2-0.8-0.5-1.2-0.8c-0.3-0.2-0.7-0.4-1-0.7
						c-0.3-0.2-0.6-0.4-0.9-0.6c-0.4-0.3-0.7-0.5-1.1-0.8c-0.1-0.1-0.2-0.1-0.2-0.2c-0.1,0-0.1-0.1-0.2-0.1
						c-0.2-0.2-0.5-0.3-0.7-0.6c-0.1,0-0.1-0.1-0.2-0.1c-0.1-0.1-0.3-0.2-0.4-0.3c0,0,0,0,0,0c0,0-0.1-0.1-0.2-0.1c0,0,0,0-0.1-0.1
						l0,0c-0.3-0.3-0.6-0.6-0.9-0.8c-0.6-0.6-1.2-1.2-1.8-1.9c-0.1-0.2-0.3-0.3-0.4-0.4c-0.6-0.6-1.1-1.3-1.6-2
						c-0.2-0.2-0.3-0.5-0.5-0.7c0,0-0.1-0.1-0.1-0.1c-0.2-0.2-0.3-0.5-0.5-0.8c0-0.1-0.1-0.2-0.2-0.2c-0.2-0.2-0.3-0.5-0.4-0.7
						c-0.1-0.1-0.1-0.2-0.2-0.3c0,0,0,0,0-0.1c-0.1-0.1-0.1-0.2-0.2-0.3c0,0,0-0.1,0-0.1c-0.2-0.4-0.4-0.8-0.6-1.2
						c-2-4.2-2.9-8.7-2.8-13.6c0-0.3,0-0.6,0-0.9c0-0.7,0.1-1.3,0.2-2c0-0.2,0-0.5,0.1-0.7c0.1-0.9,0.2-1.8,0.4-2.7
						c0.1-0.3,0.1-0.6,0.2-0.9c0.2-0.8,0.4-1.7,0.6-2.5c0.2-0.6,0.3-1.2,0.5-1.8c0,0,0-0.1,0-0.1c0.1-0.4,0.2-0.8,0.4-1.2
						c0.1-0.4,0.3-0.9,0.4-1.3c0.1-0.2,0.2-0.5,0.2-0.7c0.2-0.6,0.4-1.1,0.6-1.7c0.1-0.3,0.2-0.6,0.3-0.9c0.1-0.3,0.2-0.6,0.4-0.9
						c0.2-0.6,0.5-1.2,0.7-1.8c0.2-0.5,0.4-1,0.6-1.5c0.1-0.2,0.2-0.5,0.3-0.7c0.5-1.1,1-2.3,1.5-3.4c0.6-1.2,1.2-2.5,1.8-3.8
						c0.4-0.8,0.8-1.6,1.2-2.4c1.3-2.5,2.7-5,4.2-7.7c2.8,5.1,7.3,11.9,14.7,19.6c0.6,0.6,1.2,1.2,1.8,1.9c2.4,2.4,5,4.8,8,7.3
						c0.7,0.6,1.5,1.2,2.2,1.8h0c4.5,3.7,9.6,7.4,15.5,11.2c0.6,0.4,1.2,0.8,1.8,1.2c6.5,4.1,14,8.3,22.4,12.4
						c0.6,0.3,1.2,0.6,1.8,0.9c7.7,3.7,16.3,7.3,25.8,10.8c0.6,0.2,1.2,0.5,1.8,0.7c7.3,2.6,15.1,5.2,23.5,7.7
						c0.6,0.2,1.2,0.4,1.8,0.5c7.4,2.2,15.3,4.2,23.6,6.2c0,0,0,0,0,0c0.7,0.2,1.4,0.3,2.1,0.5c0.6,0.1,1.2,0.3,1.8,0.4
						c1.5,0.4,3,0.7,4.6,1h0c6.8,1.5,13.8,2.9,21.2,4.2c0.6,0.1,1.2,0.2,1.8,0.3c8.2,1.5,16.8,2.8,25.7,4.1c0.6,0.1,1.2,0.2,1.8,0.3
						c7.5,1,15.4,2,23.5,2.9c0.6,0.1,1.2,0.1,1.8,0.2c8.3,0.9,16.9,1.7,25.8,2.4c0.6,0,1.2,0.1,1.8,0.1
						C887.5,917.7,888.7,917.7,889.8,917.8z"/>
				</g>
			</g>
			<g id="body">
				<path class="st28" d="M909.1,565.1c-1.8,6.5-8.4,11.6-13.5,11.3c-5.1-0.3-8.1-5.9-11.3-10.1c-5.1-6.7-14.9-14.4-36-18
					c-0.9,14.4-2.4,33.2-5.1,55.1c-2.4,19.6-4.9,34.3-8.3,54.3c-3.2,19.1-6.6,37.8-10.2,56c-37.4,8.1-63.8,3.4-82.2-6
					c-13.7-7-23-16.5-29.2-25.3c-8.7-12.4-11.2-23.3-11.2-23.3c16.1-17.4,19.2-31.5,19-41c-0.2-11.2-5.1-17.1-10.1-33.8
					c-5.1-16.8-6.4-31.1-6.8-40.4v-0.1c-0.1,0.1-0.1,0.2-0.2,0.3c-0.4,0.5-0.7,1-1.1,1.5c-11.5,15.6-24.5,32.1-39.2,48.9
					c-10.4,11.9-20.8,23-30.9,33.1c-1.7,1.7-3.4,3.4-5.1,5.1c-3-1.6-6.5-3.8-10.1-6.8c-5.2-4.3-8.8-8.8-11.3-12.4
					c3.6-5.7,35.8-57.1,54-84.4c4.3-6.5,6.1-9,7.3-10.7c1.5-2,2.1-2.7,5-7.3c10.6-16.3,12.5-21.8,20.3-27c0.1,0,0.1-0.1,0.2-0.1
					c0.9-0.6,1.8-1.1,2.8-1.6c3.1-1.5,7.3-2.9,13.9-5.1c4.5-1.5,12-3.7,18.1-7c2.1-1.1,4-2.3,5.6-3.7c1.1-0.9,2-1.9,2.7-3
					c0.2-0.4,0.4-0.7,0.6-1c0.4-0.7,0.8-1.5,1-2.3c0.6-1.6,1-3.2,1.1-4.7c0.1-1,0.2-2,0.2-3c0-0.5,0-1,0-1.5c0-0.3,0-0.7-0.1-1
					c0-0.9,0-1.9,0.1-3c0.2-3.3,1-7.1,2.7-11.5c1.4-3.5,3.4-7.3,6.2-11.4c7.4,0.6,15.3,1,23.6,1.1c11.3,0.1,21.8-0.3,31.5-1.1
					c0.6,0.8,1.5,1.9,2.3,3.4c0.9,1.7,1.7,3.8,2.3,6.8c0.1,0.4,0.1,0.8,0.2,1.2c0.2,1.5,0.3,3,0.3,4.4c0,1.8-0.1,3.4-0.2,4.6
					c-0.1,1.4-0.3,2.2-0.3,2.2c-1.4,6.8-4,10.1-2.5,15.2c0.1,0.2,0.1,0.3,0.2,0.5c0.6,1.1,1.6,2,2.8,2.6c4.9,2.5,13.6,1.6,18.6,1.9
					c0,0,0.3,0.1,4.5,0.8c3.7,0.7,7.6,2.7,11.5,5.4c16.7,11.7,33.3,37.5,33.4,37.6c4.5,6,8.4,11.3,11.8,16c0,0,0,0,0,0
					C909,555.5,910.3,560.4,909.1,565.1z"/>
				<linearGradient id="SVGID_7_" gradientUnits="userSpaceOnUse" x1="689.9769" y1="692.5308" x2="704.8796" y2="554.2805">
					<stop  offset="0" style="stop-color:#271C41"/>
					<stop  offset="1" style="stop-color:#9776A6"/>
				</linearGradient>
				<path class="st29" d="M772.9,607.8c-2.5,20.1-9,25.3-18,52.9c-5.8,17.7-9.7,33.6-12.4,46.9c-13.7-7-23-16.5-29.2-25.3
					c-8.7-12.4-11.2-23.3-11.2-23.3c15.4-16.2,19.2-28.8,19.2-37.9c0-1.5-0.1-2.7-0.1-3.1c-0.2-11.2-5.1-17.1-10.1-33.8
					c-5.1-16.8-6.4-31.1-6.8-40.4v-0.1c-0.1,0.1-0.1,0.2-0.2,0.3c-0.4,0.5-0.7,1-1.1,1.5c-11.5,15.6-24.5,32.1-39.2,48.9
					c-10.4,11.9-20.8,23-30.9,33.1c-1-0.8-2-1.7-2.9-2.8c-8.8-10.6-3.1-27.8-2.3-30.4c59.6-55.7,115-82.6,136.1-66.4
					C781,541.1,776,584,772.9,607.8z"/>
				<linearGradient id="SVGID_8_" gradientUnits="userSpaceOnUse" x1="821.4179" y1="530.3893" x2="869.3837" y2="530.3893">
					<stop  offset="0" style="stop-color:#271C41"/>
					<stop  offset="1" style="stop-color:#9776A6"/>
				</linearGradient>
				<path class="st30" d="M826.9,500.9c11.9,6.4,32,19.4,40.5,40.5c2.1,5.1,2.5,8.4,1.1,11.1c-5.3,10.1-36.6,10.4-46.1-3.2
					C822.4,549.3,818.2,543.2,826.9,500.9L826.9,500.9z"/>
				<path class="st31" d="M808.4,465.3l-1.7,4.2l-67.4-22.1c0.2-3.3,1-7.1,2.7-11.5c1.4-3.5,3.4-7.3,6.2-11.4
					c7.4,0.6,15.3,1,23.6,1.1c11.3,0.1,21.8-0.3,31.5-1.1c0.6,0.8,1.5,1.9,2.3,3.4c0.9,1.7,1.7,3.8,2.3,6.8c0.1,0.4,0.1,0.8,0.2,1.2
					c0.2,1.5,0.3,3,0.3,4.4c0,1.8-0.1,3.4-0.2,4.6c-0.1,1.4-0.3,2.2-0.3,2.2c-1.4,6.8-4,10.1-2.5,15.2c0.1,0.2,0.1,0.3,0.2,0.5
					C806.2,463.8,807.1,464.7,808.4,465.3z"/>
				<linearGradient id="SVGID_9_" gradientUnits="userSpaceOnUse" x1="667.7762" y1="492.5122" x2="733.6245" y2="492.5122">
					<stop  offset="0" style="stop-color:#FFFFFF"/>
					<stop  offset="1" style="stop-color:#9776A6"/>
				</linearGradient>
				<path class="st32" d="M733.6,466.7c-2.5,6.7-8.9,20.3-20.3,30.9c-8,7.4-16,11.1-21.4,13.5c-9.5,4.3-18,6.3-24.2,7.3
					c1.5-2,2.1-2.7,5-7.3c10.6-16.3,12.5-21.8,20.3-27c0.1,0,0.1-0.1,0.2-0.1c0.5-0.3,1.5-0.8,2.8-1.6c3.1-1.5,7.3-2.9,13.9-5.1
					c4.5-1.5,12-3.7,18.1-7C730.1,469.2,732,468,733.6,466.7z"/>
				<linearGradient id="SVGID_10_" gradientUnits="userSpaceOnUse" x1="840.8771" y1="500.2469" x2="888.2831" y2="500.2469">
					<stop  offset="0" style="stop-color:#FFFFFF"/>
					<stop  offset="1" style="stop-color:#9776A6"/>
				</linearGradient>
				<path class="st33" d="M888.3,527c-9.5-3.1-22.1-9.3-35.5-21.6c-13.6-12.5-13.5-23.7-9.8-32c16.7,11.7,33.3,37.5,33.4,37.6
					C881,517.1,884.9,522.4,888.3,527z"/>
			</g>
			<g id="head">
				<g id="face">
					<path class="st34" d="M816,385.7c-0.1-2.1-0.2-3.6-0.3-4.4c-2-19.4-13-51.4-33.4-54.5c-6.6-1-12,1.3-16,3.1
						c-19.1,8.4-32,31.5-31.6,52.9c0.7,39.8,47.2,66.5,57.6,60.6c2-1.2,8.5-6.8,13.4-15.4c0.2-0.4,0.4-0.7,0.6-1.1
						c4.2-7.4,6.6-15,8-21.7c0,0,0-0.1,0-0.1C816,397,816.1,390,816,385.7z"/>
					<g id="eyes">
						<circle cx="776.9" cy="384.5" r="2.8"/>
						<circle cx="803.9" cy="384.5" r="2.8"/>
					</g>
					<g id="brows">
						<path class="st17" d="M786.6,367.8c0-0.5-5.4-1.5-10.7,0.6c-5.3,2.1-8.5,6.4-8.2,6.8c0.3,0.4,3.4-2.5,9.7-4.9
							C783,368.3,786.7,368.2,786.6,367.8z"/>
						<path class="st17" d="M818.4,377.6c0.4-0.4-2.2-5.2-7.1-8c-4.9-2.8-10.3-2.6-10.5-2.1c-0.1,0.4,3.8,1,9.2,4
							C815.5,374.6,818.1,377.9,818.4,377.6z"/>
					</g>
					<path d="M789.4,424.8c-1.1,0-2.3-0.1-3.6-0.4c-5.6-1.4-8.6-5.7-9.3-7c-0.2-0.3-0.1-0.6,0.2-0.7c0.3-0.2,0.6-0.1,0.7,0.2
						c0.7,1.2,3.4,5.2,8.7,6.5c4.6,1.1,8.3-0.4,9.7-1.1c0.3-0.1,0.6,0,0.7,0.2c0.1,0.3,0,0.6-0.2,0.7
						C795.1,423.8,792.6,424.8,789.4,424.8z"/>
					<path id="nose" class="st35" d="M793.1,381.7c2.8,7.4,4.6,13.5,5.7,18c0.9,3.7,1.4,6.3,0,7.9c-2.4,2.7-8.4,0.6-9.1,0.4
						C790.9,399.2,792,390.4,793.1,381.7z"/>
				</g>
				<g id="hair">
					<path class="st17" d="M868.6,427.8c-4.8,1.1-10.4,2.1-16.7,2.8c-0.2,0-0.3,0-0.5,0c-4.2,0.4-8.8,0.7-13.5,0.8
						c-1.5,0-2.9,0-4.3,0c-0.2,0-0.3,0-0.5,0c-5.7-0.1-10.9-0.6-15.7-1.2h0c-0.2,0-0.3,0-0.4-0.1c-4.1-0.6-7.9-1.2-11.3-2
						c0.2-0.4,0.4-0.7,0.6-1.1c4.2-7.4,6.6-15,8-21.7c0,0,0-0.1,0-0.1c0.6-2.4,1-5,1.3-7.6c0.5-4.3,0.5-8.2,0.3-11.8
						c-0.5-7.5-2.2-13.6-3.7-18.6c-2.7-9.3-5-17.1-12.4-22.5c-3.7-2.7-7.5-3.9-10.1-4.5c-4.7,4.2-11,11.3-14.6,21.4
						c-4.6,12.9-2.6,23.4-2.2,31.5c0.6,13-2.5,31.8-20.2,56.2c-3.2-1.2-6.5-2.4-9.7-3.6c-0.2-0.1-0.3-0.1-0.5-0.2
						c-4.6-1.7-9.2-3.4-13.8-5.2c-0.1-0.1-0.3-0.1-0.4-0.2c-8.7-3.3-17.4-6.6-26.2-10c-0.3-0.1-0.6-0.2-1-0.4
						c-0.2-0.1-0.4-0.1-0.5-0.2c-8.5-3.3-16.8-6.6-25.1-10c-0.2-0.1-0.4-0.2-0.6-0.2c-3-1.2-6.1-2.5-9.1-3.7
						c-0.1-0.1-0.3-0.1-0.4-0.2c-0.9-0.4-1.8-0.7-2.7-1.1c15.3-33.4,30.8-46.9,42.8-52.9c4.6-2.3,12.5-5.4,18.7-11.5
						c0.2-0.2,0.4-0.4,0.6-0.6c2.2-2.3,4.1-4.9,5.5-8.1c3-6.8,1.9-11.4,6.8-15.8c6.6-5.9,17.1-4.8,21.4-4.5c5,0.4,9.4,1.8,13.3,3.6
						c2.8-3.1,6.9-6.5,12.5-8.1c7.9-2.3,16.8-0.4,25.2,4h0c0.4,0.2,0.7,0.4,1.1,0.6c10.4,5.8,19.8,15.4,25.5,25.8
						c8.4,15.4,4,24.2,9.9,42.8c0,0,0,0,0,0c0.2,0.7,0.5,1.5,0.8,2.3c0.5,1.4,1.1,2.9,1.7,4.4C854.3,410.9,862.7,421.4,868.6,427.8z
						"/>
					<path class="st24" d="M770.2,329.1l-0.2,0.4c-9.2-3.2-16.8-3.3-22.3,0c-7.9,4.6-9.4,14.5-11,25.1c-0.8,5.5-1.7,11.1-3.5,16.4
						c-6.5,19.8-25.9,36.1-57.7,48.4c-0.2-0.1-0.4-0.2-0.6-0.2c31.9-12.3,51.4-28.6,57.9-48.3c1.7-5.3,2.6-10.9,3.5-16.3
						c1.6-10.6,3.2-20.7,11.3-25.4C753.2,325.9,760.8,325.8,770.2,329.1z"/>
					<path class="st24" d="M771.3,333c-7.4,0.9-13,3.6-16.7,7.8c-6.4,7.3-5.5,17.7-4.8,25.3c0.2,1.8,0.3,3.5,0.3,4.9
						c0.5,18.2-16,37.9-49,58.7c-0.2-0.1-0.4-0.1-0.5-0.2c33-20.8,49.5-40.4,49-58.5c0-1.4-0.2-3.1-0.3-4.9
						c-0.7-7.7-1.6-18.1,4.9-25.6c3.8-4.3,9.5-7,17-7.9L771.3,333z"/>
					<path class="st24" d="M724.7,349.3c-1.6,8.2-4.8,15.2-9.5,20.7c-5,5.9-10.3,8.5-15.9,11.2c-2.2,1.1-4.4,2.2-6.7,3.5
						c-10.9,6.4-19.9,16.7-26.8,30.9c-0.1-0.1-0.3-0.1-0.4-0.2c7-14.2,16.1-24.7,27-31.1c2.3-1.3,4.5-2.4,6.7-3.5
						c5.5-2.7,10.8-5.3,15.7-11.1c4.6-5.3,7.7-12,9.3-19.8C724.3,349.7,724.5,349.5,724.7,349.3z"/>
					<path class="st24" d="M773.6,337.5c-0.1,0-11.1,2.6-13.3,31.3c-1.8,23.3-23.1,58.5-31.5,71.5c-0.1-0.1-0.3-0.1-0.4-0.2
						c8.3-13,29.7-48.1,31.5-71.4c2.2-29.1,13.2-31.6,13.7-31.7L773.6,337.5z"/>
					<path class="st24" d="M779.3,341.9c-1.6,1.4-3.1,2.9-4.5,4.5c-9.4,11.1-9.3,24.2-9.1,38c0.1,6.7,0.1,13.6-0.9,20.3
						c-2.2,14.2-9.5,27.9-21.7,40.8c-0.2-0.1-0.3-0.1-0.5-0.2c12.2-12.9,19.5-26.6,21.7-40.7c1.1-6.7,1-13.6,0.9-20.3
						c-0.1-13.9-0.2-27.1,9.2-38.4c1.4-1.6,2.9-3.1,4.5-4.5L779.3,341.9z"/>
					<path class="st24" d="M817.4,430.1L817.4,430.1c-0.2,0-0.3,0-0.5-0.1c2-16.6,6.2-57,3.6-73.7c-3.3-20.9-32.1-23.4-32.4-23.4
						l0-0.4c0.3,0,29.5,2.5,32.8,23.8C823.6,373,819.3,413.5,817.4,430.1z"/>
					<path class="st24" d="M833.6,431.4c-0.2,0-0.3,0-0.5,0c1-12.5,1.3-25.2,0.9-37.8c-0.9-28-1.4-43.5-11.2-53.9
						c-4.7-4.9-15.8-13-38.1-12.3l0-0.5c22.5-0.8,33.7,7.5,38.4,12.4c9.9,10.5,10.4,26,11.3,54.2
						C834.9,406.1,834.6,418.9,833.6,431.4z"/>
					<path class="st24" d="M810.5,321c-4-0.5-8.1-0.6-12.2-0.4c-4.9,0.2-9.8,1-14.6,2.2l-0.1-0.4c4.8-1.2,9.8-2,14.7-2.3
						c3.7-0.2,7.4-0.1,11.1,0.3h0C809.7,320.6,810.1,320.8,810.5,321z"/>
					<path class="st24" d="M851.9,430.6c-0.2,0-0.3,0-0.5,0l-5.5-41c0.2,0.7,0.5,1.5,0.8,2.3L851.9,430.6z"/>
					<path class="st4" d="M868.6,427.8c-4.8,1.1-10.4,2.1-16.7,2.8c-0.2,0-0.3,0-0.5,0c-4.2,0.4-8.8,0.7-13.5,0.8
						c-1.5,0-2.9,0-4.3,0c-0.2,0-0.3,0-0.5,0c-5.7-0.1-10.9-0.6-15.7-1.2h0c-0.2,0-0.3,0-0.4-0.1c-4.1-0.6-7.9-1.2-11.3-2
						c0.2-0.4,0.4-0.7,0.6-1.1c4.2-7.4,6.6-15,8-21.7c0,0,0-0.1,0-0.1c0.6-2.4,1-5,1.3-7.6c0.5-4.3,0.5-8.2,0.3-11.8
						c-0.5-7.5-2.2-13.6-3.7-18.6c-2.7-9.3-5-17.1-12.4-22.5c-3.7-2.7-7.5-3.9-10.1-4.5c-4.7,4.2-11,11.3-14.6,21.4
						c-4.6,12.9-2.6,23.4-2.2,31.5c0.6,13-2.5,31.8-20.2,56.2c-3.2-1.2-6.5-2.4-9.7-3.6c-0.2-0.1-0.3-0.1-0.5-0.2
						c-4.6-1.7-9.2-3.4-13.8-5.2c-0.1-0.1-0.3-0.1-0.4-0.2c-8.7-3.3-17.4-6.6-26.2-10c-0.3-0.1-0.6-0.2-1-0.4
						c-0.2-0.1-0.4-0.1-0.5-0.2c-8.5-3.3-16.8-6.6-25.1-10c-0.2-0.1-0.4-0.2-0.6-0.2c-3-1.2-6.1-2.5-9.1-3.7
						c-0.1-0.1-0.3-0.1-0.4-0.2c-0.9-0.4-1.8-0.7-2.7-1.1c15.3-33.4,30.8-46.9,42.8-52.9c4.6-2.3,12.5-5.4,18.7-11.5
						c0.2-0.2,0.4-0.4,0.6-0.6c2.2-2.3,4.1-4.9,5.5-8.1c3-6.8,1.9-11.4,6.8-15.8c6.6-5.9,17.1-4.8,21.4-4.5c5,0.4,9.4,1.8,13.3,3.6
						c2.8-3.1,6.9-6.5,12.5-8.1c7.9-2.3,16.8-0.4,25.2,4h0c0.4,0.2,0.7,0.4,1.1,0.6c10.4,5.8,19.8,15.4,25.5,25.8
						c8.4,15.4,4,24.2,9.9,42.8c0,0,0,0,0,0c0.2,0.7,0.5,1.5,0.8,2.3c0.5,1.4,1.1,2.9,1.7,4.4C854.3,410.9,862.7,421.4,868.6,427.8z
						"/>
				</g>
			</g>
			<g id="tablet">
				<path class="st18" d="M532.2,548.5c0-2.1,1.6-3.8,3.6-3.9c16.7-0.7,33.5-1.3,50.5-1.8c16.4-0.5,32.7-1,48.9-1.3
					c2.1,0,3.9,1.7,3.9,3.9v97.2c0,2.4-2.1,4.2-4.5,3.8c-33.1-6.3-66.2-12.5-99.3-18.8c-1.8-0.3-3.1-1.9-3.1-3.8V548.5z"/>
				<linearGradient id="SVGID_11_" gradientUnits="userSpaceOnUse" x1="529.9368" y1="593.9662" x2="637.9402" y2="593.9662">
					<stop  offset="0" style="stop-color:#002544"/>
					<stop  offset="0.9174" style="stop-color:#271C41"/>
				</linearGradient>
				<path class="st36" d="M634,541.5c-16.3,0.4-32.8,0.8-49.4,1.3c-17.1,0.5-34.2,1.1-51,1.8c-2,0.1-3.7,1.8-3.7,3.8v27.8v5.7v41.8
					c0,1.9,1.3,3.5,3.1,3.8c33.5,6.3,66.9,12.5,100.4,18.8c2.4,0.4,4.5-1.4,4.5-3.8v-97.2C637.9,543.2,636.2,541.5,634,541.5z"/>
				<path class="st28" d="M529.9,590.9c-0.4,14.2,1.6,18.7-1.1,20.3c-3.6,2.1-10.4-3.7-11.3-4.5c-1.7-1.5-7.2-6.3-6.8-13.5
					c0.5-7.6,7.2-11.7,10.1-13.5c2.4-1.4,5.7-3.5,7.9-2.3C531,578.8,530.2,582.7,529.9,590.9z"/>
			</g>
			<g id="hand_back">
				<path class="st34" d="M563.1,589.2c-7.9,8.9-32.7,14.6-32.7,14.6c-0.1,0-0.3,0.1-0.5,0.1c-0.7,0.2-1.6,0.3-2.7,0.4
					c-1,0.1-2.3,0.1-3.6-0.1c-0.6-0.1-4.2-0.7-7-2.6c-1.2-0.8-2.2-1.9-2.8-3.2c-1.6-3.6,0.5-7.9,2.7-11c1-1.5,2.1-2.7,2.7-3.5
					c3.4-3.9,7.3-6.2,10.6-7.6v5.7c-0.7,0.5-1.4,1.3-1.3,2.3c0.1,0.9,0.9,1.5,1.3,1.7c0,0,0.1,0,0.1,0.1c4.6,3.1,21-7,28.8-5.3
					c0.5,0.1,2.1,0.5,2.1,1.1c0.1,0.7-2,1.4-4.3,2.1c-8.1,2.7-6.8,2.9-13.1,4.7c-1.8,0.5-4.3,1.2-7.2,1.9c2.1-0.2,3.8-0.4,5-0.6
					c4.4-0.8,8.7-2.2,8.7-2.2c1.9-0.7,3.7-1.4,5.4-2.1c2.5-1.1,2.7-1.4,4.4-2c0.8-0.3,2.9-1.1,3.2-0.6c0.4,0.5-1.4,2.4-2.1,3.2
					c-0.6,0.6-1.2,1.2-1.7,1.6c-0.4,0.4-0.7,0.7-1,0.9c0.9-0.5,2.2-1.1,3.7-1.5c0.5-0.1,1.8-0.5,2.1,0c0,0,0,0,0,0
					C564.5,587.7,563.3,589,563.1,589.2z"/>
				<linearGradient id="SVGID_12_" gradientUnits="userSpaceOnUse" x1="516.6614" y1="595.5963" x2="564.2061" y2="595.5963">
					<stop  offset="0" style="stop-color:#E4C9C2"/>
					<stop  offset="1" style="stop-color:#FF7D93;stop-opacity:0.4"/>
				</linearGradient>
				<path class="st37" d="M563.1,589.2c-7.9,8.9-32.7,14.6-32.7,14.6c-0.1,0-0.3,0.1-0.5,0.1c-1.4,0.3-3.6,0.7-6.3,0.3
					c-0.6-0.1-4.2-0.7-7-2.6c18.1-1.1,33.1-8.1,42.6-13.9c-0.4,0.4-0.7,0.7-1,0.9c0.9-0.5,2.2-1.1,3.7-1.5c0.5-0.1,1.8-0.5,2.1,0
					c0,0,0,0,0,0C564.5,587.7,563.3,589,563.1,589.2z"/>
				<path class="st38" d="M527.2,604.3c-1,0.1-2.3,0.1-3.6-0.1c-0.6-0.1-4.2-0.7-7-2.6c-1.2-0.8-2.2-1.9-2.8-3.2
					c-1.6-3.6,0.5-7.9,2.7-11C515.8,594,517.8,600.8,527.2,604.3z"/>
			</g>
		</g>
		<g id="child">
			<g>
				<g id="legs_3_">
					<path class="st39" d="M803.4,791.9l-8.9,97.5l-6.9,75l-1,11.2l-29.4,2.9c4.3-66.3,8.5-132.7,12.8-199
						C781.1,783.7,792.3,787.8,803.4,791.9z"/>
					<polygon class="st39" points="861.8,793.5 856.1,887.9 851.1,969.6 850.6,977.5 821.3,981.3 828.1,782.2 					"/>
					<linearGradient id="SVGID_13_" gradientUnits="userSpaceOnUse" x1="839.3215" y1="929.0092" x2="856.0508" y2="929.0092">
						<stop  offset="0" style="stop-color:#FF7D93"/>
						<stop  offset="0.2714" style="stop-color:#CD907F"/>
					</linearGradient>
					<polygon class="st40" points="856.1,887.9 851.1,969.6 843.8,970.1 839.3,887.9 					"/>
					<linearGradient id="SVGID_14_" gradientUnits="userSpaceOnUse" x1="781.9448" y1="926.1966" x2="794.4777" y2="926.1966">
						<stop  offset="0" style="stop-color:#FF7D93"/>
						<stop  offset="0.2714" style="stop-color:#CD907F"/>
					</linearGradient>
					<polygon class="st41" points="794.5,889.5 787.6,964.4 781.9,964.4 785.3,887.9 					"/>
					<path class="st17" d="M769.6,702.1c-3.4,61.9-6.8,123.9-10.2,185.8c12.4,2.3,24.8,4.5,37.1,6.8
						c13.6-59.8,27.2-119.5,40.7-179.3L769.6,702.1z"/>
					<path class="st42" d="M873.5,707c-5.4,64.1-10.8,128.2-16.2,192.2c-9-0.8-18.1-1.6-27.1-2.5c-3.3-0.3-6.7-0.6-10-0.9
						c-6.4-60.5-12.8-121.1-19.1-181.6c6.5-0.7,13-1.3,19.5-1.9C838.2,710.5,855.9,708.7,873.5,707z"/>
					<linearGradient id="SVGID_15_" gradientUnits="userSpaceOnUse" x1="801.0479" y1="804.5015" x2="830.2088" y2="804.5015">
						<stop  offset="0" style="stop-color:#41548C"/>
						<stop  offset="0.5397" style="stop-color:#FFFFFF"/>
					</linearGradient>
					<path class="st43" d="M830.2,896.7c-3.3-0.3-6.7-0.6-10-0.9c-6.4-60.5-12.8-121.1-19.1-181.6c6.5-0.7,13-1.3,19.5-1.9
						L830.2,896.7z"/>
				</g>
				<g id="socks">
					<path class="st44" d="M788.3,956.5c-0.2,5.1-0.5,12.9-0.8,22.5c-0.1,2.8-0.1,5.3-0.2,7.5c-0.4,16.2-0.4,19.5-3.2,22.9
						c-3.3,4-6.9,4-22.3,5.6c-3,0.3-6.4,0.7-10.3,1.1c-24.2,2.8-34.3,5.9-37.1,1.1c-1.8-3,0.3-7.4,1.1-9c3.4-7,10.8-8.1,22.5-13.5
						c4.6-2.1,10.8-5.3,18-10.1c0.9-10.1,1.8-20.3,2.7-30.4L788.3,956.5z"/>
					<path class="st21" d="M788.2,960l-28.9-2.4c-1.9-0.2-3.4-1.9-3.2-3.8l0.1-0.9c0.2-1.9,1.9-3.4,3.8-3.2l28.9,2.4
						c1.9,0.2,3.4,1.9,3.2,3.8l-0.1,0.9C791.8,958.7,790.1,960.2,788.2,960z"/>
					<path class="st21" d="M787.4,986.6c-0.4,16.2-0.4,19.5-3.2,22.9c-3.3,4-6.9,4-22.3,5.6L787.4,986.6z"/>
					<path class="st45" d="M850.6,1007.2c-1.4,2.1-3,3.3-4.5,4.5c-4.2,3.2-8.1,4-16.6,4.7h0c-3.9,0.3-8.7,0.5-14.9,1
						c-4.6,0.3-8.8,0.5-15.7,1c-12.8,1-18.3,1.6-20.3-2.1c-1.9-3.5,0.7-8.2,1.1-9c3.5-6.4,10.8-6.7,21.4-11.3
						c4.4-1.9,10.7-5,18-10.1c0.9-10.1,1.8-20.3,2.7-30.4c10,0.8,19.9,1.5,29.9,2.3c-0.1,4.1-0.1,7.8-0.1,11c0,0,0,4.1,0.1,8.1
						c0.1,3,0.3,5.8,0.5,8.4C853.1,994.7,854.4,1001.3,850.6,1007.2z"/>
					<path class="st46" d="M850.6,1007.2c-1.4,2.1-3,3.3-4.5,4.5c-6.1,4.6-11.5,4.3-31.5,5.6c-6.8,0.2-12.3,0.6-15.7,1
						c8-2.8,22.8-9.3,35.9-23.5c8.9-9.5,13.9-19.2,16.8-26.1c0,1.6,0,4.5,0.1,8.1C852,991,855.5,999.8,850.6,1007.2z"/>
					<path class="st21" d="M851.2,963.4l-28.9-2.4c-1.9-0.2-3.4-1.9-3.2-3.8l0.1-0.9c0.2-1.9,1.9-3.4,3.8-3.2l28.9,2.4
						c1.9,0.2,3.4,1.9,3.2,3.8l-0.1,0.9C854.8,962.1,853.1,963.5,851.2,963.4z"/>
					<path class="st21" d="M850.6,1007.2c-1.4,2.1-3,3.3-4.5,4.5c-4.2,3.2-8.1,4-16.6,4.7l22.7-31.1
						C853.1,994.7,854.4,1001.3,850.6,1007.2z"/>
				</g>
			</g>
			<g id="hand_back_2_">
				<path class="st39" d="M801.1,602.2c-5.1,13.2-11.1,23.6-16.7,31.7l0,0c-4.2,6-8.1,10.7-11.4,14.3c-6.8,7.4-11.7,11-18,12.4
					c-7.9,1.7-16.4-0.4-29.3-9c-11.1-7.4-27.5-20.4-44.4-42.1c-1.7,0-3.4-0.3-5.1-0.7c-5.7-1.5-14.7-6.8-14.6-14.6
					c0-3.1,1.5-5.7,3.2-7.7c-1-0.1-1.8-0.2-2.1-0.2c-7.7-1-12.4-1.1-12.4-1.1c-1.8,0-4,0-4.5-1.1c-0.2-0.5,0-1.1,0-1.1
					c0.7-1.6,4.5-1.3,11.8-1.1c7.7,0.2,9.6-0.1,12.9,1.1c1.5,0.6,3,1.3,4.5,2.3c3,1.9,7.4,5.6,12.6,10
					c19.3,16.5,50.1,44.2,66.1,38.3c1.4-0.5,2.9-1.8,4.5-3.8c2.1-2.6,4.4-6.6,7.2-12c1.9-3.5,4-7.7,6.4-12.5c0.3-0.7,0.7-1.4,1-2.1
					c12.1-23.9,15-36.3,19.1-36C794.8,567.5,798.4,573.6,801.1,602.2z"/>
				<path class="st31" d="M792.9,618.7l-8.6,15.3l0,0c-3-1.6-6.6-3.9-10.3-7c-3.7-3.2-6.5-6.4-8.6-9.1c1-1.9,2-3.8,3-5.8
					c1.1-2.1,2.2-4.3,3.4-6.7L792.9,618.7z"/>
				<linearGradient id="SVGID_16_" gradientUnits="userSpaceOnUse" x1="687.6893" y1="618.5713" x2="758.274" y2="618.5713">
					<stop  offset="0" style="stop-color:#FF7D93"/>
					<stop  offset="0.2714" style="stop-color:#CD907F"/>
				</linearGradient>
				<path class="st47" d="M758.3,629.9c-1.7,4.5-6.8,9.5-20.2,11.7c-19.7,3.3-40.5-28.6-50.4-46.2c19.3,16.5,50.1,44.2,66.1,38.3
					C755.2,633.2,756.7,631.9,758.3,629.9z"/>
			</g>
			<g id="body_2_">
				<path class="st48" d="M754.9,599.9c5,3.7,10.3,8.2,15.8,13.5c6.8,6.7,12.4,13.2,16.9,19.1c4.1-25.9,8.3-51.8,12.4-77.6
					c-1.9,1-3.7,2.2-5.6,3.4C776,570.1,763.5,585.6,754.9,599.9z"/>
				<path class="st18" d="M925.5,620.2c-1.5,0.8-3,1.5-4.4,2.2c-3.7,1.9-6.8,3.4-9.2,4.5c-4.6,2.2-7.4,3.5-21.8,10.3
					c-1.7,0.8-3.4,1.6-5.1,2.4c-0.4-1.4-2.2-9.9-3.9-17.3c-1.1-4.4-2.1-8.4-2.8-10.1c-0.4,3.8-0.7,7.2-0.9,10.1
					c-0.1,1.2-0.2,2.3-0.2,3.4c-0.4,6.2-0.7,11.7-0.8,16.9c-0.1,3.5-0.1,6.8-0.1,10.1c0,6.5,0.1,12.9,0.1,20.2c0,3.2,0,6.5,0,10.1
					c0,4.3-0.1,9-0.3,14.1c0,0.3,0,0.6,0,0.9c-0.1,2.3-0.1,4.4-0.2,6.4c-0.1,2.3-0.2,4.3-0.2,6c-1.7,1-4.3,2.5-7.6,4.1
					c-2.1,1-4.5,2.1-7.2,3.2c0,0,0,0,0,0c-13.5,5.5-34.1,10.9-57.9,6.8c-12.2-2.1-22.2-6.1-29.9-10.1c-3.4-1.8-6.3-3.5-8.8-5.1
					c0.5-1.7,0.9-3.3,1.4-5c2-7.4,3.8-14.5,5.3-21.4c0.8-3.4,1.5-6.8,2.1-10.1c1.4-7.1,2.6-13.8,3.5-20.2c0.5-3.5,1-6.9,1.4-10.1
					c0.9-7.3,1.6-14,2-20.2c0.2-2.9,0.4-5.6,0.5-8.3c0-0.6,0.1-1.2,0.1-1.8c0.2-4.1,0.3-7.9,0.5-11.4c0.1-2.7,0.2-5.3,0.3-7.7
					c0.2-3.7,0.4-7,0.8-10.1c0.8-7.1,2.5-12.9,6.1-18c1-1.4,2.2-2.8,3.5-4.2c2.3-2.3,4.9-4.3,7.7-6c0.6-0.3,1.1-0.6,1.7-1
					c2-1.1,4.1-2,6.3-2.8c12.3-4.6,27.1-5.2,40.6-3c2.2,0.3,4.4,0.8,6.5,1.3c3.6,0.8,7,1.8,10.2,3c0.9,0.3,3,1.1,5.9,2.6
					c4.2,2,10,5.3,16,10.1c1.7,1.3,3.4,2.8,5.1,4.4c2.5,2.4,4.7,4.7,6.7,7.1c1.9,2.2,3.5,4.4,4.9,6.5c2.3,3.4,4.2,6.8,6,10.1
					c0.5,1,1,1.9,1.5,2.9c4.1,7.9,4.3,9.6,7.9,15.1c0.2,0.4,0.5,0.8,0.8,1.1C921.9,615.8,924,618.4,925.5,620.2z"/>
				<g>
					<path class="st21" d="M886.7,565.1h-98.6c1-1.4,2.2-2.8,3.5-4.2c2.3-2.3,4.9-4.3,7.7-6h71.3C874.9,557,880.7,560.2,886.7,565.1
						z"/>
					<path class="st21" d="M909.4,593.2H781.3c0.2-3.7,0.4-7,0.8-10.1h121.4C905.7,586.5,907.6,589.8,909.4,593.2z"/>
					<path class="st21" d="M925.5,620.2c-1.5,0.8-3,1.5-4.4,2.2H779.9c0.2-2.9,0.4-5.6,0.5-8.3c0-0.6,0.1-1.2,0.1-1.8h139
						C921.9,615.8,924,618.4,925.5,620.2z"/>
					<path class="st21" d="M876.4,642.7c-0.1,3.5-0.1,6.8-0.1,10.1h-99.8c0.5-3.5,1-6.9,1.4-10.1H876.4z"/>
					<path class="st21" d="M876.4,673.1c0,3.2,0,6.5,0,10.1H770.8c0.8-3.4,1.5-6.8,2.1-10.1H876.4z"/>
					<path class="st21" d="M875.8,704.6c-0.1,2.3-0.2,4.3-0.2,6c-1.7,1-4.3,2.5-7.6,4.1h-95.1c-3.4-1.8-6.3-3.5-8.8-5.1
						c0.5-1.7,0.9-3.3,1.4-5H875.8z"/>
				</g>
				<path class="st49" d="M876,698.2c-0.2,5-0.3,9.2-0.5,12.4c-2.7,1.6-7.9,4.5-14.9,7.4c0,0,0,0,0,0c-13.5,5.5-34,10.9-57.9,6.8
					c-17.6-3-30.7-10-38.7-15.2c11.3-39.8,15.1-72.4,16.3-95.4c0.3-4.8,0.4-9.2,0.6-13.3c34.4,10.8,46.2,25.5,50.5,37.3
					c5.9,16.1-1.3,29.3,7.9,42.8C847.8,693.3,864,697,876,698.2z"/>
			</g>
			<g id="hand_front_1_">
				<path class="st39" d="M908.9,727.1c-2.2,6.9-4.7,13.1-7.1,18.5c0.8,0.7,1.7,1.8,2.3,3.4c1,2.9-0.7,4.2-0.7,7.4
					c0,4.7,3.7,8.6,5.6,14.6c0.2,0.5,0.5,1.7,0,2.3c-0.6,0.6-1.1-2.4,0,1.1c0.1,0.5,0.5,1.8,0,2.3c-0.3,0.3-0.9,0.1-1.1,0
					c-13.4-4.7-18-14.6-18-14.6c-3-6.7-2.5-13-2.3-15.8c2.9-30,9.6-40.7,11.3-64.1c0.6-8.6,0.1-20.4-4.7-35.1
					c-1-3.1-2.2-6.3-3.7-9.6c7.3-3.4,14.5-6.9,21.8-10.3c1.1,4,2.3,8.8,3.3,14.4c0.3,1.5,0.6,3.1,0.8,4.7c0.4,2.8,0.7,5.7,0.9,8.8
					c0.5,5.4,0.7,11.1,0.6,17.1C917.8,693.2,913.9,711.9,908.9,727.1z"/>
				<path class="st31" d="M915.7,641.4c-7.3,2-16.8,4.6-21.5,5.6c-1-3.1-2.2-6.3-3.7-9.6c7.3-3.4,14.5-6.9,21.8-10.3
					C913.5,631,914.7,635.8,915.7,641.4z"/>
				<linearGradient id="SVGID_17_" gradientUnits="userSpaceOnUse" x1="906.0611" y1="690.9854" x2="918.0854" y2="690.9854">
					<stop  offset="0" style="stop-color:#FF7D93"/>
					<stop  offset="0.2714" style="stop-color:#CD907F"/>
				</linearGradient>
				<path class="st50" d="M918.1,671.9c-0.2,21.3-4.2,39.9-9.2,55.2c-0.8-2.3-1.5-5.2-2.1-9c-3.6-23.3,6.4-52.4,10.6-63.2
					C917.9,660.3,918.1,666,918.1,671.9z"/>
				<path class="st39" d="M889.9,761.3c9.1,16.5,12.3,19.6,13.4,19.1c0.3-0.1,0.8-0.7,1-1.4c0.3-1.4-1-2.9-1.6-3.6
					c-3-3.5-4.7-8-7.2-11.8l0,0l0,0L889.9,761.3z"/>
				<path class="st39" d="M887.5,750.8c0,0-0.9,19,1.3,17.9c2.3-1.1,3.4-9,3.4-9L887.5,750.8z"/>
			</g>
			<g id="head_2_">
				<g id="head_1_">
					<path class="st39" d="M852.8,505.3c-0.1,0.3-0.3,0.8-0.5,1.3c0,0-1.3,3.5-3.3,6.9c-1.3,2.3-5.1,7.8-9.7,12.1
						c0,0-0.7,0.7-1.4,1.3c-0.4,0.3-1.3,1.1-2.7,2.2c-21.3,16.8-37.5,11.1-37.5,11.1c-2.2-0.8-5.5-2.3-9-5.6
						c1.4-1.1,3.8-3.3,5.6-6.8c1.7-3.2,2.1-6.1,2.3-7.9c-1.1,1.2-2.9,3-5.6,4.5c-2.7,1.5-5.1,2-6.8,2.3c-3.9-18-3.4-32.9-1.1-41.6
						c1.2-4.3,2.8-8,4.2-10.6c1.4-2.6,2.4-4.2,2.4-4.2c0.5-0.8,2.2-3.1,4.8-5.7c3.7-3.8,8.9-7.8,15.7-10.3c0.4-0.2,0.7-0.3,0.9-0.3
						c0.1,0,0.3-0.1,0.4-0.1c0,0,0,0,0.1,0c0.2-0.1,0.4-0.1,0.7-0.2c0.2-0.1,0.5-0.2,0.8-0.2c1.4-0.4,3.2-0.9,5.2-1.3
						c0.3-0.1,0.6-0.1,0.9-0.2c0.2,0,0.4-0.1,0.6-0.1c0.2,0,0.4-0.1,0.6-0.1c0.6-0.1,1.3-0.2,1.9-0.2c0.2,0,0.4,0,0.6,0
						c0.2,0,0.5,0,0.8-0.1c0.3,0,0.6,0,0.9,0c2.4-0.1,4.9,0.1,7.5,0.6c0.1,0,0.2,0,0.3,0.1c2.7,0.6,5.4,1.6,8.1,3.2
						C855.7,464.4,858.5,488.5,852.8,505.3z"/>
					<circle id="eye" class="st17" cx="792.6" cy="500.4" r="2.8"/>
					<path id="nose_1_" class="st39" d="M781.3,500.9c-6.1,9.8-6.2,13.3-5,14.6c0.7,0.8,2,0.8,9,1.1l0,0l0,0L781.3,500.9z"/>
					<path id="brow" class="st17" d="M786.7,490.1c1.4-0.5,4.4-1.4,8.2-0.7c3.6,0.6,6.1,2.3,7.3,3.2c-0.4-0.6-2.4-3.8-6.6-4.7
						C790.7,486.9,787.1,489.7,786.7,490.1z"/>
					<path id="hair_1_" class="st17" d="M853.9,505.4c-1.1,3.4-3.3,8.7-5.6,13.5c-3.6,7.3-7.3,13-10.1,16.9c-1.1-1.6-2.3-3.9-3-6.6
						c-0.3-1.1-0.4-2.3-0.4-3.5c-0.1-11.1,10.6-17.7,8.4-21.8c-2.2-4.1-13.3,2.3-19.7-3c-7.9-6.5,0.6-21.8-6.8-28.1
						c-7.7-6.6-25.3,3.4-29.6,1.7c1.4-2.6,2.4-4.2,2.4-4.2c0.5-0.8,2.2-3.1,4.8-5.7c3.7-3.8,8.9-7.8,15.7-10.3
						c0.4-0.2,0.7-0.3,0.9-0.3c0.1,0,0.3-0.1,0.4-0.1c0,0,0,0,0.1,0c0.2-0.1,0.4-0.1,0.7-0.2c0.2-0.1,0.5-0.2,0.8-0.2
						c1.4-0.4,3.2-0.9,5.2-1.3c0.3-0.1,0.6-0.1,0.9-0.2c0.2,0,0.4-0.1,0.6-0.1c0.2,0,0.4-0.1,0.6-0.1c0.6-0.1,1.3-0.2,1.9-0.2
						c0.2,0,0.4,0,0.6,0c0.2,0,0.5,0,0.8-0.1c0.3,0,0.6,0,0.9,0c2.4-0.1,4.9,0.1,7.5,0.6c0.1,0,0.2,0,0.3,0.1
						c2.7,0.6,5.5,1.6,8.1,3.2C856.8,464.8,858.5,490.9,853.9,505.4z"/>
					<g id="ear">
						<path class="st39" d="M849.4,503.7c0,6.5-5.3,11.8-11.8,11.8c-5.4,0-9.9-3.6-11.3-8.5c-0.3-1-0.5-2.1-0.5-3.3
							c0-6.5,5.3-11.8,11.8-11.8c4.6,0,8.5,2.6,10.5,6.4C849,499.9,849.4,501.8,849.4,503.7z"/>
						<linearGradient id="SVGID_18_" gradientUnits="userSpaceOnUse" x1="825.8211" y1="499.4875" x2="848.1193" y2="499.4875">
							<stop  offset="0" style="stop-color:#FF7D93"/>
							<stop  offset="0.2714" style="stop-color:#CD907F"/>
						</linearGradient>
						<path class="st51" d="M848.1,498.3l-21.8,8.7c-0.3-1-0.5-2.1-0.5-3.3c0-6.5,5.3-11.8,11.8-11.8
							C842.2,491.9,846.2,494.5,848.1,498.3z"/>
					</g>
					<g id="neck_1_">
						<path class="st39" d="M849.4,553.8c0,9.3-10.8,16.9-24.2,16.9c-13.3,0-24-7.5-24.2-16.7c2-1.1,4.1-2,6.3-2.9
							c0.1,0,0.2-0.1,0.3-0.1c0,0,0,0,0-0.1c-0.3-3.3-0.6-6.5-0.9-9.8c-0.4-4.4-0.8-8.8-1.2-13.2c9.6-3.6,19.1-7.2,28.6-10.7l6,30
							c2.6,0.2,5.2,0.5,7.8,0.9C849,549.9,849.4,551.8,849.4,553.8z"/>
						<path class="st31" d="M820.2,551.6c-5.9,0-10-0.3-12.5-0.6c-0.3-3.3-0.6-6.5-0.9-9.8l16.8-8.7
							C823.6,532.4,831.4,551.6,820.2,551.6z"/>
					</g>
				</g>
			</g>
		</g>
		<g id="hand_front">
			<path class="st34" d="M827.9,604.1c0,1.5-0.6,2.9-1.5,4.5c-0.5,0.9-1,1.8-1.5,2.8c-0.8,1.4-1.4,2.8-2,4.1
				c-0.1,0.2-0.1,0.3-0.2,0.5c-1.9,4.1-2.9,7.4-3.8,11c-1.3,5.2-2.3,10.7-5,19.3c-0.4,1.5-1.4,4.5-2.8,4.6c-0.2,0-0.6-0.1-0.9-0.3
				c-0.8-0.7-0.4-2.3-0.2-2.8c0.4-1.7,1.8-8.3,3.8-18c-0.1,0-0.1,0-0.1,0c-1.5,4.7-3.7,11.7-6,18.6c-0.5,1.5-1.5,4.5-3,4.6
				c-0.3,0-0.7-0.1-1.1-0.3c-1-0.9-0.5-3.1-0.2-4c0.1-0.3,0.1-0.6,0.2-1c0.8-3.2,2.5-10.2,4.8-19.5c-0.2-0.1-0.3-0.1-0.5-0.2
				c-1.6,4.4-4.6,12.4-7.5,20c-0.5,1.4-1.7,4.4-3.3,4.5c0,0-0.5,0-1-0.4c-0.8-0.7-0.7-4.7,7.5-26.1c-0.1-0.1-0.3-0.2-0.4-0.3
				c-5.4,10.5-9.1,19.2-10,20.4c-0.6,0.8-1.3,1.5-2,1.5c0,0-0.5,0-1-0.5c-1.5-1.5,1.3-7.5,1.3-7.5c1.2-2.5,2.7-6,4.5-10.6
				c1.8-4.6,4-10.1,6.5-16.6c-0.9,0.7-2.3,2-3.7,3.7c-2,2.5-2.1,3.7-3.7,5.1c-2.2,2-5.8,3.2-6.6,2.2c-1.5-1.6,4.9-9.5,8.5-13.5
				c0.4-0.4,0.7-0.8,1-1.2c1.1-1.2,2.2-2.3,3.3-3.3c1.5-1.4,2.8-2.5,4.2-3.5c2.3-1.6,4.4-2.7,6.5-3.5c2.6-1,4.5-1.2,6.4-1.1
				c3.5,0.3,8,2.2,9.1,5.5C827.8,603.1,827.9,603.6,827.9,604.1z"/>
			<path class="st38" d="M827.9,604.1c0,1.5-0.6,2.9-1.5,4.5c-0.5,0.9-1,1.8-1.5,2.8c-0.9,1.6-1.6,3.1-2.2,4.5
				c-1.9,4.1-2.9,7.4-3.8,11c-13.9-1.3-14.8-14.6-13.2-25.1c2.3-1.6,4.4-2.7,6.5-3.5c2.6-1,4.5-1.2,6.4-1.1c3.5,0.3,8,2.2,9.1,5.5
				C827.8,603.1,827.9,603.6,827.9,604.1z"/>
			<linearGradient id="SVGID_19_" gradientUnits="userSpaceOnUse" x1="789.9257" y1="634.1204" x2="822.941" y2="634.1204">
				<stop  offset="0" style="stop-color:#E4C9C2"/>
				<stop  offset="1" style="stop-color:#FF7D93;stop-opacity:0.4"/>
			</linearGradient>
			<path class="st52" d="M822.9,615.4c-0.1,0.2-0.1,0.3-0.2,0.5c-1.9,4.1-2.9,7.4-3.8,11c-1.3,5.2-2.3,10.7-5,19.3
				c-0.4,1.5-1.4,4.5-2.8,4.6c-0.2,0-0.6-0.1-0.9-0.3c-0.8-0.7-0.4-2.3-0.2-2.8c0.4-1.7,1.8-8.3,3.8-18c-0.1,0-0.1,0-0.1,0
				c-1.5,4.7-3.7,11.7-6,18.6c-0.5,1.5-1.5,4.5-3,4.6c-0.3,0-0.7-0.1-1.1-0.3c-1-0.9-0.5-3.1-0.2-4c0.1-0.3,0.1-0.6,0.2-1
				c0.8-3.2,2.5-10.2,4.8-19.5c-0.2-0.1-0.3-0.1-0.5-0.2c-1.6,4.4-4.6,12.4-7.5,20c-0.5,1.4-1.7,4.4-3.3,4.5c0,0-0.5,0-1-0.4
				c-0.8-0.7-0.7-4.7,7.5-26.1c-0.1-0.1-0.3-0.2-0.4-0.3c-5.4,10.5-9.1,19.2-10,20.4c-0.6,0.8-1.3,1.5-2,1.5c0,0-0.5,0-1-0.5
				c-1.5-1.5,1.3-7.5,1.3-7.5c1.2-2.5,2.7-6,4.5-10.6L822.9,615.4z"/>
			<path class="st28" d="M883.4,595.6c-10.5,8.4-20.1,13.2-26.2,15.9c-7,3-37.5,16.3-45.7,6.3c-1.4-1.8-2.1-4.1-2.1-6.6
				c-0.1-4.6,1.7-9.8,3.8-13.6c8.2-14.6,23.5-9.6,40.4-23.7c16.5-13.9,13.2-28.7,25.3-31.7c10.9-2.7,25.8,6.1,29.5,16.9
				c0.3,0.9,0.6,1.8,0.7,2.7C911,573.4,898.5,583.4,883.4,595.6z"/>
			<linearGradient id="SVGID_20_" gradientUnits="userSpaceOnUse" x1="809.4406" y1="590.1856" x2="909.2703" y2="590.1856">
				<stop  offset="0" style="stop-color:#271C41"/>
				<stop  offset="1" style="stop-color:#9776A6"/>
			</linearGradient>
			<path class="st53" d="M883.4,595.6c-10.5,8.4-20.1,13.2-26.2,15.9c-7,3-37.5,16.3-45.7,6.3c-1.4-1.8-2.1-4.1-2.1-6.6
				c8,0,44.7-0.3,98.9-52.1c0.3,0.9,0.6,1.8,0.7,2.7C911,573.4,898.5,583.4,883.4,595.6z"/>
		</g>
	</g>
</g>
</svg>
