<?xml version="1.0" encoding="utf-8"?>
<!-- Generator: Adobe Illustrator 22.1.0, SVG Export Plug-In . SVG Version: 6.00 Build 0)  -->
<svg version="1.1" xmlns="http://www.w3.org/2000/svg" xmlns:xlink="http://www.w3.org/1999/xlink" x="0px" y="0px"
	 viewBox="0 0 1218.1 1002.1" style="enable-background:new 0 0 1218.1 1002.1;" xml:space="preserve">
<style type="text/css">
	.st0{fill:#EEEDEE;}
	.st1{opacity:0.42;fill:#BDD3DE;}
	.st2{fill:#FFFFFF;}
	.st3{fill:#EBDEDE;}
	.st4{fill:#336859;}
	.st5{opacity:0.42;fill:#0D2A28;}
	.st6{opacity:0.4;fill:url(#SVGID_1_);}
	.st7{opacity:0.38;fill:url(#SVGID_2_);}
	.st8{opacity:0.38;fill:url(#SVGID_3_);}
	.st9{fill:#FC860A;}
	.st10{fill:none;}
	.st11{opacity:0.5;fill:url(#SVGID_4_);}
	.st12{opacity:0.5;fill:#153E5C;}
	.st13{fill:url(#SVGID_5_);}
	.st14{fill:#FF7D93;}
	.st15{fill:#FDB2A4;}
	.st16{fill:#271C41;}
	.st17{fill:#87AEB4;}
	.st18{fill:#640042;}
	.st19{fill:#39215A;}
	.st20{opacity:0.35;fill:#FFFFFF;}
	.st21{fill:url(#SVGID_6_);}
	.st22{fill:#CD907F;}
	.st23{fill:none;stroke:#000000;stroke-linecap:round;stroke-linejoin:round;stroke-miterlimit:10;}
	.st24{opacity:0.42;fill:url(#SVGID_7_);}
	.st25{opacity:0.35;fill:url(#SVGID_8_);}
	.st26{opacity:0.31;fill:url(#SVGID_9_);}
	.st27{fill:#19233D;}
	.st28{opacity:0.12;fill:url(#SVGID_10_);}
	.st29{opacity:0.22;fill:url(#SVGID_11_);}
	.st30{opacity:0.31;fill:url(#SVGID_12_);}
	.st31{opacity:0.31;fill:url(#SVGID_13_);}
	.st32{opacity:9.000000e-02;fill:url(#SVGID_14_);}
	.st33{fill:url(#SVGID_15_);}
	.st34{opacity:0.33;fill:#153E5C;}
	.st35{fill:url(#SVGID_16_);}
	.st36{fill:#BDD3DE;}
	.st37{opacity:0.36;fill:url(#SVGID_17_);}
	.st38{opacity:0.36;fill:url(#SVGID_18_);}
	.st39{opacity:0.28;fill:url(#SVGID_19_);}
	.st40{opacity:0.28;fill:url(#SVGID_20_);}
	.st41{opacity:8.000000e-02;fill:url(#SVGID_21_);}
	.st42{opacity:8.000000e-02;fill:url(#SVGID_22_);}
	.st43{fill:url(#SVGID_23_);}
	.st44{opacity:0.25;fill:url(#SVGID_24_);}
	.st45{opacity:0.25;fill:url(#SVGID_25_);}
	.st46{opacity:0.24;fill:#153E5C;}
</style>
<g id="background">
	<g id="general_1_">
		<path id="floor_line" class="st0" d="M1216.3,884.3H10.9c-1,0-1.8-0.8-1.8-1.8c0-1,0.8-1.8,1.8-1.8h1205.5c1,0,1.8,0.8,1.8,1.8
			C1218.1,883.5,1217.3,884.3,1216.3,884.3z"/>
		<g id="frame_1_">
			<path id="sky" class="st0" d="M740.9,120v764.5H302.3V120c1.4-2.2,11.5-17.2,29.9-35.9c1.3-1.3,2.6-2.7,4-4
				c28.1-27.7,73.2-61.6,134-74.7c1.3-0.3,2.7-0.6,4-0.8c15-3,30.9-4.6,47.7-4.6c0,0,0,0,0,0c2.5,0,5.1,0,7.7,0.1
				c27.1,0.8,51.7,5.8,73.6,13.4c1.3,0.5,2.7,0.9,4,1.4c1.2,0.4,2.5,0.9,3.7,1.4c70.5,27.1,117.2,86.1,123.6,94.4
				c0.2,0.3,0.5,0.7,0.7,1c2.5,3.4,4.4,6.2,5.4,7.7C740.7,119.7,740.8,119.9,740.9,120z"/>
			<path id="sky_1_" class="st1" d="M740.9,120v764.5H302.3V120c1.4-2.2,11.5-17.2,29.9-35.9c1.3-1.3,2.6-2.7,4-4
				c28.1-27.7,73.2-61.6,134-74.7c1.3-0.3,2.7-0.6,4-0.8c15-3,30.9-4.6,47.7-4.6c0,0,0,0,0,0c2.5,0,5.1,0,7.7,0.1
				c27.1,0.8,51.7,5.8,73.6,13.4c1.3,0.5,2.7,0.9,4,1.4c1.2,0.4,2.5,0.9,3.7,1.4c70.5,27.1,117.2,86.1,123.6,94.4
				c0.2,0.3,0.5,0.7,0.7,1c2.5,3.4,4.4,6.2,5.4,7.7C740.7,119.7,740.8,119.9,740.9,120z"/>
			<g id="clouds">
				<path class="st2" d="M579.1,316h-256c0,0-9.8-0.4-20.8-0.7V207.5c13.5-4,26.3-2.5,37.9,1.7c29.2,10.4,49.9,37.9,49.9,37.9
					c41-29,84,26,84,26c8.7-6.5,18.5-8.2,28.6-6.8c12.8,1.7,26.1,8.4,37.9,16.3C562.3,297.2,579.1,316,579.1,316z"/>
				<path class="st2" d="M740.9,133.8V194H622.1c0,0,32-40,54-32c0,0,7.6-18.2,26.9-26.5C712.6,131.4,725.1,129.7,740.9,133.8z"/>
				<path class="st2" d="M450.1,569h217c-1-3.3-6.9-22.6-27-33c-21.5-11.1-42-3.2-45-2c-2.8-3.8-11-13.8-25.2-17.8
					c-25.1-6.9-45.4,11.5-46.8,12.8c-16.1-9.2-35.8-8.8-51,1C451.7,543.2,450.2,566.7,450.1,569z"/>
			</g>
			<g id="frame_2_">
				<path class="st3" d="M740.6,119.5c-0.4-0.5-0.8-1.2-1.4-2.1c-0.3-0.4-0.6-0.9-1-1.4c-0.8-1.2-1.8-2.6-3-4.2
					c-0.2-0.3-0.5-0.7-0.7-1C719.2,90.4,679.1,43.7,615,18c-1.4-0.6-2.8-1.1-4.1-1.6c-1.2-0.5-2.4-0.9-3.7-1.4c-1.3-0.5-2.7-1-4-1.4
					c-22-7.6-46.5-12.6-73.6-13.4C526.9,0,524.4,0,521.8,0c0,0,0,0,0,0c-16.8,0-32.7,1.7-47.7,4.6c-1.3,0.3-2.7,0.5-4,0.8
					c-60.8,13-105.9,47-134,74.7c-1.4,1.3-2.7,2.7-4,4c-18.3,18.7-28.4,33.7-29.9,35.9v764.5h438.7V120
					C740.8,119.9,740.7,119.7,740.6,119.5z M502.7,846.6H340.2V132.3c7.8-10,23-27.7,45-45c18.5-14.6,38.2-26.1,58.6-34.3
					c8.6-3.5,17.4-6.4,26.3-8.6c1.3-0.3,2.7-0.7,4-1c9.4-2.2,18.9-3.8,28.5-4.6V846.6z M703,846.6H540.6V38.7
					c21.6,1.9,42.6,7,62.6,15.3c0.1,0,0.2,0.1,0.3,0.1c1.2,0.5,2.5,1,3.7,1.6c18.2,8,35.8,18.7,52.2,31.8
					c18.2,14.6,31.5,29.3,39.8,39.6c1.4,1.8,2.7,3.4,3.8,4.9V846.6z"/>
			</g>
		</g>
		<g id="pot_and_plant">
			<path id="plant" class="st0" d="M272.2,287c-35.9,21.7-30.1,39.2-27.1,44.5c-4.1,12.8-8.2,25.6-12.5,38.3
				c-7.8-13-24.2-11.7-34-9.5c2.1-6.9,4.2-13.7,6.4-20.5c21-19.4-4.9-51.3-4.9-51.3c-19.1,38.6-3.4,49.8,1.6,52.3
				c-2.2,6.8-4.3,13.5-6.3,20.3c-2.7,0.8-4.4,1.4-4.4,1.4c1.1,1,2.1,1.9,3.1,2.8c-3.6,12-7.2,24.1-10.6,36.2
				c-9.6-14.4-33.4-5.2-33.4-5.2c16.5,15.4,26.4,14.6,31.4,12.1c-9.6,34.4-18.3,69-26,103.8c-4.4-7.7-15.9-6.8-19.5-6.3
				c0.8-11.9,1.5-23.8,2.3-35.8c15.5,7.8,29.2-13.2,29.2-13.2c-18-2.4-25.5,1.9-28.7,6c1.2-17.5,2.4-35,3.6-52.5
				c0.1-0.2,0.2-0.3,0.2-0.3h-0.1c1.4-18.8,2.7-37.7,4.2-56.5c19.4,7.5,31.1-19.6,31.1-19.6c-20.6,0.8-28,7.2-30.5,12.4
				c1.4-17.6,2.8-35.3,4.2-52.8c24.6-16,3-51.9,3-51.9c-24.1,35.3-10.6,48.6-5.9,51.9c-2.3,28.1-4.5,56.2-6.6,84.5
				c-11.1-19.8-42-7.9-42-7.9c24.3,22.8,37.1,16.7,41.6,13c-0.7,8.9-1.3,17.9-2,26.8c-25.2,0.2-33.3,8.6-35.9,14.8
				c-2.9-30.1-6.2-60.1-9.9-89.9c22.7-23.8-10.2-56.9-10.2-56.9c-16.9,44.7,1.5,55.4,7.4,57.5c3.1,24.8,5.9,49.7,8.4,74.7
				c-7-11.6-26.7-7.8-26.7-7.8c14.2,19.1,23.9,16.1,27.3,14.1c2,20.7,3.8,41.3,5.4,62c-16,6.5-21.4,14-22.9,19.7
				c-5.5-34.4-12.5-68.7-20.9-102.6c25.2-1.3,24.9-37,24.9-37c-20,9.8-26.2,19.4-27.6,26.3c-7.1-27.6-15.3-54.9-24.4-81.9
				c22.8-15,2.7-48.4,2.7-48.4C15,287.2,27,299.8,31.6,303.1c5.1,15,9.8,30.1,14.3,45.2C31.7,331,0,341.8,0,341.8
				c28.3,29.9,44.1,21.4,49,17.2c7.9,27.8,14.8,55.9,20.7,84.1c-5-4.4-17-9.2-42.1,7.3c0,0,29,17.4,43.4-1
				c7.2,35.6,12.8,71.5,16.7,107.5c-3.6-5.5-12.6-11.8-35.2-11.1c0,0,15,29.1,36.1,19.9c0.3,3,0.6,6.1,0.9,9.1
				c0.6,6.4,1.2,12.8,1.6,19.2c1.5,19.9,2.6,39.9,3.1,59.9c0,0.5,0,1,0,1.5c0.5,19.4,0.5,38.8,0.1,58.2c0,0.5,0,1,0,1.5
				c-0.4,15.3-1,30.6-2,45.8c0,0.8,0.5,1.5,1.3,1.5c0,0,0.1,0,0.1,0c0.8,0,1.4-0.6,1.4-1.4c1-15.3,1.6-30.6,2-46c0-0.5,0-1,0-1.5
				c0.5-19.4,0.4-38.8-0.1-58.2c0-0.5,0-1,0-1.5c-0.5-20-1.6-40-3.1-59.9c-0.5-6.5-1-13-1.7-19.5c-2.1-22.5-4.9-44.9-8.2-67.2
				c11.6,1,18.5-6.5,22.5-14.4c0.8,10.6,1.5,21.1,2.1,31.7c-5.5-8.6-20.3-5.7-20.3-5.7c10.5,14.1,17.8,12.5,20.6,11
				c1,16.9,1.9,33.7,2.6,50.5c0.2,4.5,0.4,9,0.5,13.5c0.8,19.9,1.3,39.9,1.7,59.9c0,0.5,0,1,0,1.5c0.3,19.4,0.5,38.8,0.4,58.2
				c0,0.5,0,1,0,1.5c0,16.8-0.2,33.5-0.5,50.2c0,0.8,0.6,1.5,1.4,1.5h0c0.4,0,0.8-0.2,1.1-0.5c0.2,0.3,0.6,0.5,0.9,0.5h0.1
				c0.7,0,1.3-0.5,1.4-1.3c0.6-6.3,1.2-12.6,1.8-18.9c-0.1,3.1-0.3,6.3-0.4,9.4c0,0.8,0.6,1.5,1.4,1.5h0.1c0.8,0,1.4-0.6,1.4-1.4
				c0.2-5.3,0.4-10.6,0.7-15.9c0.2-0.2,0.4-0.5,0.4-0.8c1-8.1,2.1-16.2,3.4-24.3c0.1-0.5,0.1-1,0.2-1.5c2-12.8,4.3-25.5,6.8-38.2
				c0.5-2.3,0.9-4.6,1.4-6.9c0.9-4.3,1.9-8.7,2.8-13c0.1-0.5,0.2-1,0.3-1.5c4.1-17.8,8.7-35.5,14-53.1c0.7-2.3,1.4-4.6,2.1-6.9
				c7.3-23.7,14.2-42.1,22.9-64.8c17.8,10.5,33.8-14.1,33.8-14.1c-17.2-2.3-25.9,0.9-30.3,4.8c2.8-7.3,5.8-15.2,9.1-23.9
				c2.3-1,3.8-1.8,3.8-1.8c-0.9-0.6-1.7-1.1-2.5-1.6c1.3-3.4,2.6-6.9,4-10.5c4.6-12.2,9.1-24.5,13.5-36.9c6.5-1.9,11.2-4.4,11.2-4.4
				c-2.8-2-5.3-3.7-7.8-5.2c1.8-4.9,3.5-9.9,5.2-14.8c3.1,2.9,11.9,7.2,29.6-7.2c0,0-17.5-8.3-27.2,0.4c4.7-13.4,9.2-26.8,13.7-40.3
				c0-0.1,0.1-0.1,0.1-0.1c0,0,0,0,0,0c4.5-13.4,8.9-26.9,13.2-40.4C277,328.9,272.2,287,272.2,287z M154.5,517.6
				c-2.6,11.6-5,23.1-7.3,34.7c-5.4-0.5-10-0.5-13.8-0.1c0.9-14.9,1.8-29.8,2.7-44.8C144.7,518.5,151.1,518.7,154.5,517.6z
				 M129.1,655.4c-0.8,5.1-1.5,10.1-2.2,15.2c0.2-5.1,0.5-10.1,0.8-15.2c0-0.5,0-1,0.1-1.5c1-20,2-40,3.1-59.9c0.3-5,0.6-10,0.8-15
				c0.2-3.2,0.4-6.3,0.5-9.5c5.4-2.4,10.1-6.5,13.4-10.1c-2.3,11.5-4.4,23-6.5,34.5c-1.1,6-2.1,11.9-3.1,17.9
				c-0.5,2.8-1,5.6-1.4,8.4c0,0,0,0.1,0,0.1c-1.8,11.1-3.6,22.3-5.3,33.5C129.3,654.4,129.2,654.9,129.1,655.4z M109.1,487.2
				c2.1-5.9,2.8-10.8,2.8-10.8c-1.2,0.4-2.4,0.8-3.5,1.2c-1.2-15.1-2.5-30.3-3.9-45.4c16.3,6.7,29-7.8,34.8-16.3
				c-3.2,45.6-6.2,91.3-8.9,136.7c-10,1.6-14.6,5.9-16.7,9.6C112.5,537.2,110.9,512.2,109.1,487.2z M121.2,715
				c-1.6,13.6-3.1,27.2-4.4,40.8c0.2-13.6,0.3-27.2,0.4-40.8v-1.5c0-19.4-0.1-38.8-0.5-58.2c0-0.5,0-1,0-1.5
				c-0.3-20-0.9-40-1.7-59.9c-0.2-4.6-0.4-9.1-0.5-13.7c-0.2-3.7-0.3-7.3-0.5-11c5.4,2.8,10.6,2.8,15.3,1.3
				c-0.2,2.8-0.3,5.5-0.5,8.2c-0.3,5-0.6,10.1-0.8,15.1c-1.1,19.9-2.1,39.9-3.1,59.9c0,0.5,0,1-0.1,1.5c-0.8,16.4-1.6,32.8-2.3,49.2
				c-0.4,3-0.7,6-1.1,9C121.4,714,121.3,714.5,121.2,715z M178.6,520c-2.5,6.6-4.9,12.7-7.2,18.6c-3.8-5.9-14.1-3.9-14.1-3.9
				c5.6,7.5,9.9,8.6,12.5,8.2c-6.3,16.8-11.8,32.2-17.6,51.1c-0.6,2-1.2,4-1.8,6c-5.3,17.8-10,35.8-14.1,53.9
				c-0.1,0.4-0.2,0.7-0.2,1.1c0,0.1-0.1,0.2-0.1,0.4c-0.5,2-0.9,4-1.3,6.1c-3.8,17.1-7,34.3-9.6,51.5c0.1-2.7,0.2-5.4,0.4-8.2
				c2-16.5,4.2-33,6.7-49.4c0.1-0.5,0.1-1,0.2-1.5c0.8-5.2,1.5-10.4,2.4-15.5c0.5-3,0.9-6,1.4-9c0.5-2.9,0.9-5.8,1.4-8.7
				c1.5-8.9,3-17.8,4.6-26.7c2.3-13,4.8-26,7.4-39c1-1.4,1.6-2.2,1.6-2.2c-0.4,0-0.8-0.1-1.1-0.1c4-20,8.4-40,13-60
				c6.3,8.6,17.1,7.1,24.2,4.7C184.2,505.6,181.3,513.1,178.6,520z M198.2,468.4c-5-9.8-20.9-6.7-20.9-6.7c8.9,12,15.5,12.6,19,11.6
				c-1,2.6-1.9,5.2-2.9,7.8c-1.3,3.5-2.5,6.8-3.8,10c-14.7-8.7-22.2-5.7-25.6-2.9c4.1-17.2,8.3-34.3,12.9-51.4
				c7.2,11.2,19.6,11.4,29.4,9.2C203.6,453.5,200.9,461,198.2,468.4z M210.6,434.1c-19.2-10.6-28.7-5.3-32.5-1.6
				c2.4-9,4.9-18.1,7.4-27.1c0.1-0.1,0.1-0.2,0.1-0.2c0,0,0-0.1,0-0.1c3.6-12.7,7.2-25.3,11-37.9c17.6,14.4,28.3,12.7,33.7,9.8
				C223.8,396.3,217.3,415.3,210.6,434.1z"/>
			<path id="plant_3_" class="st1" d="M272.2,287c-35.9,21.7-30.1,39.2-27.1,44.5c-4.1,12.8-8.2,25.6-12.5,38.3
				c-7.8-13-24.2-11.7-34-9.5c2.1-6.9,4.2-13.7,6.4-20.5c21-19.4-4.9-51.3-4.9-51.3c-19.1,38.6-3.4,49.8,1.6,52.3
				c-2.2,6.8-4.3,13.5-6.3,20.3c-2.7,0.8-4.4,1.4-4.4,1.4c1.1,1,2.1,1.9,3.1,2.8c-3.6,12-7.2,24.1-10.6,36.2
				c-9.6-14.4-33.4-5.2-33.4-5.2c16.5,15.4,26.4,14.6,31.4,12.1c-9.6,34.4-18.3,69-26,103.8c-4.4-7.7-15.9-6.8-19.5-6.3
				c0.8-11.9,1.5-23.8,2.3-35.8c15.5,7.8,29.2-13.2,29.2-13.2c-18-2.4-25.5,1.9-28.7,6c1.2-17.5,2.4-35,3.6-52.5
				c0.1-0.2,0.2-0.3,0.2-0.3h-0.1c1.4-18.8,2.7-37.7,4.2-56.5c19.4,7.5,31.1-19.6,31.1-19.6c-20.6,0.8-28,7.2-30.5,12.4
				c1.4-17.6,2.8-35.3,4.2-52.8c24.6-16,3-51.9,3-51.9c-24.1,35.3-10.6,48.6-5.9,51.9c-2.3,28.1-4.5,56.2-6.6,84.5
				c-11.1-19.8-42-7.9-42-7.9c24.3,22.8,37.1,16.7,41.6,13c-0.7,8.9-1.3,17.9-2,26.8c-25.2,0.2-33.3,8.6-35.9,14.8
				c-2.9-30.1-6.2-60.1-9.9-89.9c22.7-23.8-10.2-56.9-10.2-56.9c-16.9,44.7,1.5,55.4,7.4,57.5c3.1,24.8,5.9,49.7,8.4,74.7
				c-7-11.6-26.7-7.8-26.7-7.8c14.2,19.1,23.9,16.1,27.3,14.1c2,20.7,3.8,41.3,5.4,62c-16,6.5-21.4,14-22.9,19.7
				c-5.5-34.4-12.5-68.7-20.9-102.6c25.2-1.3,24.9-37,24.9-37c-20,9.8-26.2,19.4-27.6,26.3c-7.1-27.6-15.3-54.9-24.4-81.9
				c22.8-15,2.7-48.4,2.7-48.4C15,287.2,27,299.8,31.6,303.1c5.1,15,9.8,30.1,14.3,45.2C31.7,331,0,341.8,0,341.8
				c28.3,29.9,44.1,21.4,49,17.2c7.9,27.8,14.8,55.9,20.7,84.1c-5-4.4-17-9.2-42.1,7.3c0,0,29,17.4,43.4-1
				c7.2,35.6,12.8,71.5,16.7,107.5c-3.6-5.5-12.6-11.8-35.2-11.1c0,0,15,29.1,36.1,19.9c0.3,3,0.6,6.1,0.9,9.1
				c0.6,6.4,1.2,12.8,1.6,19.2c1.5,19.9,2.6,39.9,3.1,59.9c0,0.5,0,1,0,1.5c0.5,19.4,0.5,38.8,0.1,58.2c0,0.5,0,1,0,1.5
				c-0.4,15.3-1,30.6-2,45.8c0,0.8,0.5,1.5,1.3,1.5c0,0,0.1,0,0.1,0c0.8,0,1.4-0.6,1.4-1.4c1-15.3,1.6-30.6,2-46c0-0.5,0-1,0-1.5
				c0.5-19.4,0.4-38.8-0.1-58.2c0-0.5,0-1,0-1.5c-0.5-20-1.6-40-3.1-59.9c-0.5-6.5-1-13-1.7-19.5c-2.1-22.5-4.9-44.9-8.2-67.2
				c11.6,1,18.5-6.5,22.5-14.4c0.8,10.6,1.5,21.1,2.1,31.7c-5.5-8.6-20.3-5.7-20.3-5.7c10.5,14.1,17.8,12.5,20.6,11
				c1,16.9,1.9,33.7,2.6,50.5c0.2,4.5,0.4,9,0.5,13.5c0.8,19.9,1.3,39.9,1.7,59.9c0,0.5,0,1,0,1.5c0.3,19.4,0.5,38.8,0.4,58.2
				c0,0.5,0,1,0,1.5c0,16.8-0.2,33.5-0.5,50.2c0,0.8,0.6,1.5,1.4,1.5h0c0.4,0,0.8-0.2,1.1-0.5c0.2,0.3,0.6,0.5,0.9,0.5h0.1
				c0.7,0,1.3-0.5,1.4-1.3c0.6-6.3,1.2-12.6,1.8-18.9c-0.1,3.1-0.3,6.3-0.4,9.4c0,0.8,0.6,1.5,1.4,1.5h0.1c0.8,0,1.4-0.6,1.4-1.4
				c0.2-5.3,0.4-10.6,0.7-15.9c0.2-0.2,0.4-0.5,0.4-0.8c1-8.1,2.1-16.2,3.4-24.3c0.1-0.5,0.1-1,0.2-1.5c2-12.8,4.3-25.5,6.8-38.2
				c0.5-2.3,0.9-4.6,1.4-6.9c0.9-4.3,1.9-8.7,2.8-13c0.1-0.5,0.2-1,0.3-1.5c4.1-17.8,8.7-35.5,14-53.1c0.7-2.3,1.4-4.6,2.1-6.9
				c7.3-23.7,14.2-42.1,22.9-64.8c17.8,10.5,33.8-14.1,33.8-14.1c-17.2-2.3-25.9,0.9-30.3,4.8c2.8-7.3,5.8-15.2,9.1-23.9
				c2.3-1,3.8-1.8,3.8-1.8c-0.9-0.6-1.7-1.1-2.5-1.6c1.3-3.4,2.6-6.9,4-10.5c4.6-12.2,9.1-24.5,13.5-36.9c6.5-1.9,11.2-4.4,11.2-4.4
				c-2.8-2-5.3-3.7-7.8-5.2c1.8-4.9,3.5-9.9,5.2-14.8c3.1,2.9,11.9,7.2,29.6-7.2c0,0-17.5-8.3-27.2,0.4c4.7-13.4,9.2-26.8,13.7-40.3
				c0-0.1,0.1-0.1,0.1-0.1c0,0,0,0,0,0c4.5-13.4,8.9-26.9,13.2-40.4C277,328.9,272.2,287,272.2,287z M154.5,517.6
				c-2.6,11.6-5,23.1-7.3,34.7c-5.4-0.5-10-0.5-13.8-0.1c0.9-14.9,1.8-29.8,2.7-44.8C144.7,518.5,151.1,518.7,154.5,517.6z
				 M129.1,655.4c-0.8,5.1-1.5,10.1-2.2,15.2c0.2-5.1,0.5-10.1,0.8-15.2c0-0.5,0-1,0.1-1.5c1-20,2-40,3.1-59.9c0.3-5,0.6-10,0.8-15
				c0.2-3.2,0.4-6.3,0.5-9.5c5.4-2.4,10.1-6.5,13.4-10.1c-2.3,11.5-4.4,23-6.5,34.5c-1.1,6-2.1,11.9-3.1,17.9
				c-0.5,2.8-1,5.6-1.4,8.4c0,0,0,0.1,0,0.1c-1.8,11.1-3.6,22.3-5.3,33.5C129.3,654.4,129.2,654.9,129.1,655.4z M109.1,487.2
				c2.1-5.9,2.8-10.8,2.8-10.8c-1.2,0.4-2.4,0.8-3.5,1.2c-1.2-15.1-2.5-30.3-3.9-45.4c16.3,6.7,29-7.8,34.8-16.3
				c-3.2,45.6-6.2,91.3-8.9,136.7c-10,1.6-14.6,5.9-16.7,9.6C112.5,537.2,110.9,512.2,109.1,487.2z M121.2,715
				c-1.6,13.6-3.1,27.2-4.4,40.8c0.2-13.6,0.3-27.2,0.4-40.8v-1.5c0-19.4-0.1-38.8-0.5-58.2c0-0.5,0-1,0-1.5
				c-0.3-20-0.9-40-1.7-59.9c-0.2-4.6-0.4-9.1-0.5-13.7c-0.2-3.7-0.3-7.3-0.5-11c5.4,2.8,10.6,2.8,15.3,1.3
				c-0.2,2.8-0.3,5.5-0.5,8.2c-0.3,5-0.6,10.1-0.8,15.1c-1.1,19.9-2.1,39.9-3.1,59.9c0,0.5,0,1-0.1,1.5c-0.8,16.4-1.6,32.8-2.3,49.2
				c-0.4,3-0.7,6-1.1,9C121.4,714,121.3,714.5,121.2,715z M178.6,520c-2.5,6.6-4.9,12.7-7.2,18.6c-3.8-5.9-14.1-3.9-14.1-3.9
				c5.6,7.5,9.9,8.6,12.5,8.2c-6.3,16.8-11.8,32.2-17.6,51.1c-0.6,2-1.2,4-1.8,6c-5.3,17.8-10,35.8-14.1,53.9
				c-0.1,0.4-0.2,0.7-0.2,1.1c0,0.1-0.1,0.2-0.1,0.4c-0.5,2-0.9,4-1.3,6.1c-3.8,17.1-7,34.3-9.6,51.5c0.1-2.7,0.2-5.4,0.4-8.2
				c2-16.5,4.2-33,6.7-49.4c0.1-0.5,0.1-1,0.2-1.5c0.8-5.2,1.5-10.4,2.4-15.5c0.5-3,0.9-6,1.4-9c0.5-2.9,0.9-5.8,1.4-8.7
				c1.5-8.9,3-17.8,4.6-26.7c2.3-13,4.8-26,7.4-39c1-1.4,1.6-2.2,1.6-2.2c-0.4,0-0.8-0.1-1.1-0.1c4-20,8.4-40,13-60
				c6.3,8.6,17.1,7.1,24.2,4.7C184.2,505.6,181.3,513.1,178.6,520z M198.2,468.4c-5-9.8-20.9-6.7-20.9-6.7c8.9,12,15.5,12.6,19,11.6
				c-1,2.6-1.9,5.2-2.9,7.8c-1.3,3.5-2.5,6.8-3.8,10c-14.7-8.7-22.2-5.7-25.6-2.9c4.1-17.2,8.3-34.3,12.9-51.4
				c7.2,11.2,19.6,11.4,29.4,9.2C203.6,453.5,200.9,461,198.2,468.4z M210.6,434.1c-19.2-10.6-28.7-5.3-32.5-1.6
				c2.4-9,4.9-18.1,7.4-27.1c0.1-0.1,0.1-0.2,0.1-0.2c0,0,0-0.1,0-0.1c3.6-12.7,7.2-25.3,11-37.9c17.6,14.4,28.3,12.7,33.7,9.8
				C223.8,396.3,217.3,415.3,210.6,434.1z"/>
			<path class="st0" d="M183.3,612.7v336.5c-3.8,1.8-9.6,4.3-17.2,6.6c-0.5,0.2-1,0.3-1.4,0.4c-7.9,2.4-17.5,4.5-28.7,5.5
				c-0.5,0-1,0.1-1.4,0.1c-2.8,0.2-5.7,0.4-8.6,0.4c-8.3,0.2-15.9-0.3-22.9-1.3c-0.5-0.1-1-0.1-1.4-0.2c-11.7-1.7-21.4-4.5-28.6-7.2
				c-0.5-0.2-1-0.3-1.4-0.5c-3.9-1.5-7.1-2.9-9.3-3.9V612.7h28.6V594h64.5v18.6H183.3z"/>
		</g>
		<g id="lines">
			<path class="st2" d="M73,612.7v340.9c-0.5-0.2-1-0.3-1.4-0.5V612.7H73z"/>
			<path class="st2" d="M103.1,594V961c-0.5-0.1-1-0.1-1.4-0.2V594H103.1z"/>
			<rect x="134.6" y="594" class="st2" width="1.4" height="368.8"/>
			<rect x="62.3" y="654" class="st2" width="121.1" height="1.5"/>
			<rect x="62.3" y="713.6" class="st2" width="121.1" height="1.5"/>
			<rect x="62.3" y="773.2" class="st2" width="121.1" height="1.5"/>
			<rect x="62.3" y="824" class="st2" width="121.1" height="1.5"/>
			<rect x="62.3" y="883.6" class="st2" width="121.1" height="1.5"/>
			<rect x="62.3" y="943.2" class="st2" width="121.1" height="1.5"/>
			<path class="st2" d="M166.1,612.7v343.1c-0.5,0.2-1,0.3-1.4,0.4V612.7H166.1z"/>
		</g>
		<g id="plant_1_">
			<path class="st0" d="M262.1,907.1c21.2,7,147.4-271.8,116.8-290.8c-5.5-3.4-16,3.6-33,15c-9.3,6.2-41.5,28.5-52.3,67.3
				c-5.6,20.1-3.2,36.4-2.1,45.8C300.8,829.4,256.4,905.2,262.1,907.1z"/>
			<path class="st0" d="M309.4,649.2c-35,63.1-35.5,169.5-37.4,226.1c-0.2,5.9-0.4,11.2-0.7,15.9c-0.2,4.2-0.5,7.9-0.9,11
				c-0.5,4.7-1.3,8-2.2,9.8c-0.5,0.9-1.1,1.4-1.8,1.4c-1.4,0-2.3-2.1-3.1-6.1c-0.1-0.4-0.2-0.8-0.2-1.3c-0.2-1.3-0.4-2.8-0.6-4.5
				c-0.9-7.8-1.7-19.2-3.3-33.6l0,0c-3-26.4-8.7-62.8-23-105.4c-5-15-10.3-28.2-12.9-47.1c-0.4-2.6-0.7-5.3-0.9-8.1
				c-1-11-1.4-27.2,1.9-45.3c3-16.4,9-34.4,20.5-51.3c8.6-12.7,18.7-27.6,36.5-30.1c2.8-0.4,5.7-0.5,8.5-0.2c0.6,0,1.1,0.1,1.7,0.2
				c11.4,1.3,22.6,7.2,27.7,16.5C329.4,614.9,313.9,641,309.4,649.2z"/>
			<path class="st0" d="M288.6,929.8c-2.6,1.4-10.2-6-20.3-17.9c-1.3-1.6-2.7-3.2-4.1-4.9c-0.3-0.4-0.6-0.7-0.9-1.1
				c-0.5-0.6-0.9-1.1-1.4-1.7c-23.4-28.6-56.2-72.8-75.4-89.6c-10.1-8.9-19.7-16.6-29.6-27.9c-5-5.7-7.5-8.7-10.1-12.9
				c-16.3-26.1-9.4-57.6-7.9-64.4c2.8-12.5,5.9-26.6,17.9-38.7c10.8-10.9,26.8-17.9,40.7-19.2c0.5-0.1,1-0.1,1.5-0.1
				c8.6-0.5,16.4,1.2,21.5,5.7c1.6,1.4,2.9,3,3.9,4.8c7.2,12.4,2.4,33,0.4,43.9c-0.6,3.2-1,6.3-1.4,9.5
				c-6.4,55.2,15.5,111.4,35.8,152.5c3.1,6.3,6.1,12.2,9.1,17.7c1,1.9,2,3.8,3,5.7c1.1,2.1,2.2,4.1,3.3,6.1
				C284.9,916.1,291.6,928.1,288.6,929.8z"/>
		</g>
		<path id="pot_1_" class="st3" d="M353,889.8c-4.5-16.3-27.6-24.2-49-28.1v-9.2h-84.2v8.9c-23,4.1-45.2,12.4-49.6,28.4
			c-5.1,18.5,13.7,46.6,41.8,63.7c0,5.5,0,11.1,0,16.6c14.6,2.1,31.7,3.6,50.8,3.6c18.3,0,34.8-1.5,49-3.6v-17
			C339.6,936,358,908.1,353,889.8z"/>
		<g id="plant_2_">
			<path class="st3" d="M1140.8,562.5c-0.1-0.4-0.2-0.7-0.3-1.1c-0.6-2-1.5-3.9-3-5.5c-0.2-0.3-0.5-0.5-0.8-0.7l0,0
				c0,0-4.3-3.8-12.9-3c-5.4,0.5-11.9,5.4-18.7,12.6c-0.3,0.3-0.5,0.6-0.8,0.9c-8.9,9.6-18.2,23.1-26.3,36c-0.3,0.5-0.6,1-0.9,1.4
				c-8.5,13.6-15.4,26.2-18.9,32.6l-28.6,22.5c-2.7-28.1-7.5-54.3-14.4-78.3l0.2,0.1l15.9-36.6c15.5-13.4,25.7-33,31.3-52l0.3-1.1
				c7.8-27.5,5.8-53.2-3.8-56c-0.3-0.1-0.7-0.2-1.1-0.2c-3-0.3-6.6,1.4-10.9,5.7c-3.9,4-7.1,8.8-9.7,14v0l-0.5,1.1
				c-7.9,16.6-10.3,37.8-10.6,55.6c0,0.4,0,0.8,0,1.2c-0.2,14.3,1,26.2,1.6,31.4l-14,32.2c-2.6-8.7-5.5-17.2-8.7-25.4
				c-9.8-25-22.2-47-37.2-66.1c-1.4-9.4-4.1-21.2-9.9-33.2c-0.2-0.4-0.4-0.7-0.5-1.1c-3.8-7.6-8.8-15.2-15.5-22.3
				c-8.5-9-20-17.5-30.3-22.6l-1-0.5c-8.9-4.3-16.6-5.8-20.2-2.7c-0.2,0.2-0.4,0.3-0.5,0.5c-0.2,0.3-0.5,0.6-0.6,0.9
				c-2,3.4-1.1,8.7-0.5,11.5c2.7,11.5,10,22.2,19.1,31.6c0.3,0.3,0.6,0.6,0.8,0.9c19.7,20,47.4,34.4,56.5,38.9
				c14.7,18.8,27,40.6,36.7,65.3c1.5,3.8,2.9,7.7,4.3,11.7l-30.2-22.2c-6.5-9.3-15.9-21.4-29.3-34.1c-5.3-5-7.6-6.8-8.7-7.6
				c-7.6-5.6-16.4-9.6-24.9-11.9c-0.4-0.1-0.7-0.2-1.1-0.3c-15.7-4.1-30.1-2.9-34.4,2.7c-0.2,0.3-0.4,0.6-0.6,0.9c0,0,0,0,0,0.1
				c-2.1,4.1,0.8,9.6,2.8,12.7c8.7,13.5,24.9,22.8,41.8,29.1l1.2,0.4c22.4,8.2,45.7,11.3,53.5,12.2l31.2,22.9l0.3-0.4
				c10.2,30.7,16.7,65.3,19.4,103.1l-29.2-22c-3.2-10.2-9.1-24.8-20-38l-0.8-1c-5.4-6.3-12-12.3-20.1-17.2
				c-6.3-3.8-13.9-7.2-21.3-9.6c-0.4-0.1-0.8-0.2-1.1-0.4c-12.1-3.8-23.6-4.9-28.2-0.8l-0.1,0.1c-0.2,0.2-0.5,0.5-0.7,0.7
				c-0.1,0.1-0.1,0.1-0.2,0.2c-2.5,3.4-0.7,8.5,1,13c0.2,0.7,0.5,1.3,0.8,2c0.1,0.3,0.3,0.7,0.4,1c12.2,28,47.2,40.5,59.2,44.8
				c2.6,0.9,5.6,1.9,9.1,3h0c0.4,0.1,0.7,0.2,1.1,0.3c5.2,1.5,11.4,2.9,18.4,4l32.1,24.2c4.9,76-7.1,139.3-7.3,139.9l3.2,0.6
				c0.1-0.6,12.4-64.8,7.2-141.8l0.2-0.3l-0.2-0.2c0-0.4,0-0.8-0.1-1.2c-0.2-3.3-0.5-6.6-0.8-9.9l31.5-24.8
				c24.7-8.1,41.9-19.4,52.5-27.6c2.4-1.8,4.5-3.6,6.5-5.3c0.3-0.3,0.6-0.5,0.9-0.8c14.6-13,18.1-22.4,19.2-29.2
				C1141.1,572.5,1141.9,567.4,1140.8,562.5z"/>
		</g>
		<path id="pot_2_" class="st0" d="M1118.5,706.3v25.6h-15.4c-11.9,59.3-23.9,118.7-35.8,178c-11,2.1-24.3,3.9-39.4,4.1
			c-18.1,0.3-33.7-1.7-46.3-4.1c-11.9-59.1-23.8-118.1-35.7-177.2c-0.1-0.3-0.1-0.5-0.2-0.8h-15.4v-25.6H1118.5z"/>
	</g>
</g>
<g id="main">
	<g id="general_2_">
		<g id="bag_chair">
			<path class="st4" d="M895.6,531.1c-1.7-1.7-3.5-3.4-5.4-5.3c-16.6-16.1-42-38.8-79.2-52.6c-6.9-2.5-14.2-4.8-21.9-6.7
				c-100-24-183.1,40.9-197.6,52.2c-3.7,2.9-7.2,5.8-10.6,8.8c-92,80.3-92.9,198.2-92.8,211.3c0.2,19.5,3.5,145.5,107.5,218
				c19.7,13.8,41.3,24.4,63.9,31.8c85,28.1,183.7,11.7,248.4-47.2c69-62.8,74-151.2,75.7-181.2C984.3,748.4,989.4,623.1,895.6,531.1
				z M681.3,642.4c-1.9-0.6-3.8-1.1-5.7-1.7c0.3-0.5,0.5-1,0.7-1.5c2.3-4.6,4.7-9.1,6.2-13.4C682.1,631.4,681.7,636.9,681.3,642.4z"
				/>
			<path class="st5" d="M523,743c0.9,50.4,104.7,87.1,147.4,98.3c60,15.8,109.2,8.7,148.4,3.1c39.4-5.7,59.3-8.8,71.7-22.5
				c27.9-31.1-34.1-87.5-12.3-170.9c3.3-12.7,3.1-23.5,0.9-32.8c-6-25.1-25.4-40.7-33.7-47.1c-51.6-40.2-194-64.8-237.5-3.1
				c-15.2,21.6-2.7,31.6-19.4,73.7C563,705.7,522.4,711.4,523,743z"/>
			<linearGradient id="SVGID_1_" gradientUnits="userSpaceOnUse" x1="610.397" y1="764.0016" x2="983.9064" y2="764.0016">
				<stop  offset="0.4713" style="stop-color:#19233D"/>
				<stop  offset="1" style="stop-color:#271C41"/>
			</linearGradient>
			<path class="st6" d="M983.6,760.4c-1.7,30-6.7,118.4-75.7,181.2c-64.7,58.9-163.3,75.3-248.4,47.2
				c-45.8-33.3-51.4-51.8-48.5-62.5c7.1-25.6,68-21.9,174-43c96.7-19.3,145-28.9,168.9-57.3c62.8-74.8-35.6-251.8-63.8-300.1
				c1.9,1.9,3.7,3.6,5.4,5.3C989.4,623.1,984.3,748.4,983.6,760.4z"/>
			<linearGradient id="SVGID_2_" gradientUnits="userSpaceOnUse" x1="580.9559" y1="494.4939" x2="811.0264" y2="494.4939">
				<stop  offset="0.2271" style="stop-color:#153E5C"/>
				<stop  offset="0.4085" style="stop-color:#1C4461"/>
				<stop  offset="1" style="stop-color:#BDD3DE"/>
			</linearGradient>
			<path class="st7" d="M811,473.3c-54.3,27.8-170.7,46.3-230.1,54.3c3.4-3,7-5.9,10.6-8.8c14.4-11.3,97.5-76.2,197.6-52.2
				C796.9,468.5,804.1,470.7,811,473.3z"/>
			<linearGradient id="SVGID_3_" gradientUnits="userSpaceOnUse" x1="552.083" y1="910.7269" x2="775.8448" y2="910.7269">
				<stop  offset="0.2271" style="stop-color:#153E5C"/>
				<stop  offset="0.4085" style="stop-color:#1C4461"/>
				<stop  offset="1" style="stop-color:#BDD3DE"/>
			</linearGradient>
			<path class="st8" d="M775.8,945.7c0.2,6-55,23.2-113.6,8.2c-60.6-15.5-116.6-63.4-109.5-82.9c1.9-5.3,8.1-7.5,10.2-8.2
				c25.9-9,50.3,34.7,96.2,60.4C717.6,955.8,775.7,939.6,775.8,945.7z"/>
		</g>
		<g id="cup">
			<path class="st9" d="M903.8,926.2c-3.5,0-7,0.1-10.4,0.1c-0.9,0-1.9,0-2.8,0c-0.5,0-1,0-1.5,0c-0.5,0-1,0-1.5,0h0
				c-6.8,0.1-13.6,0.2-20.5,0.3c-2.1,0-4.2,0.1-6.3,0.1c0.2,1.9,0.3,3.7,0.5,5.6c0.9,10.3,1.8,20.7,2.6,31c0.2,2,0.3,3.9,0.5,5.9v0
				c0.7,8.8,1.5,17.7,2.2,26.5H899c0.9-10.9,1.8-21.8,2.8-32.7c2-0.5,4.3-1.1,6.7-2.1c3.5-1.4,6.3-3.2,8.3-5.3
				c0.2-0.2,0.4-0.5,0.7-0.7c0.2-0.2,0.4-0.5,0.6-0.7c0.4-0.5,0.7-1,1.1-1.5c0.2-0.4,0.5-0.8,0.7-1.2c0.2-0.4,0.4-0.8,0.5-1.3
				c0,0,0.1-0.2,0.2-0.5c0-0.1,0-0.2,0.1-0.3c0-0.2,0.1-0.3,0.1-0.6c0.2-0.9,0.5-2.3,0.5-3.8C921.1,937.9,914,930.7,903.8,926.2z
				 M902.8,959c0-0.7,0-1.3,0-2c0-0.4,0-0.7,0-1.1c0-0.1,0-0.2,0-0.3c0-1.6,0.1-3.2,0.1-4.8c0-1,0.1-2.1,0.2-3.1
				c0-0.9,0.1-1.8,0.2-2.8c0.1-1.2,0.2-2.4,0.3-3.6c0.1-1.2,0.2-2.3,0.4-3.5c0.1-0.6,0.1-1.1,0.2-1.7c0.1-1.1,0.3-2.2,0.4-3.3
				c0.1-0.5,0.2-1.1,0.2-1.6c0.8,0.2,2.1,0.6,3.5,1.5c0.4,0.2,0.8,0.4,1.1,0.7c0.4,0.2,0.8,0.5,1.2,0.8s0.8,0.6,1.2,1
				s0.8,0.8,1.2,1.2c0.1,0.1,0.2,0.2,0.3,0.4c1.1,1.3,1.9,2.7,2.4,4c0.2,0.6,0.5,1.1,0.6,1.6c0.1,0.3,0.2,0.7,0.3,1
				c0.1,0.5,0.2,0.9,0.3,1.3c0,0.1,0,0.2,0,0.3c0.1,0.3,0.1,0.5,0.1,0.7C917.4,950.2,911.8,956.7,902.8,959z"/>
			<path class="st2" d="M868,929.3c0,2.3-1.8,4.1-4.1,4.1c-1,0-1.9-0.3-2.6-0.9c-0.1-1.9-0.3-3.7-0.5-5.6c2.1,0,4.2-0.1,6.3-0.1
				C867.6,927.5,868,928.4,868,929.3z"/>
			<circle class="st2" cx="878.2" cy="946.7" r="4.1"/>
			<path class="st2" d="M894.6,929.3c0,2.3-1.8,4.1-4.1,4.1s-4.1-1.8-4.1-4.1c0-1.1,0.4-2.1,1.1-2.8c0,0,0,0,0,0h0c1,0,2,0,3,0
				c0.9,0,1.9,0,2.8,0C894.1,927.1,894.6,928.2,894.6,929.3z"/>
			<path class="st2" d="M903.1,947.8c-0.1,1.1-0.1,2.1-0.2,3.1c-0.1,1.6-0.1,3.2-0.1,4.8v0.3h0c0,0,0,0,0,0c-2.3,0-4.1-1.8-4.1-4.1
				s1.8-4.1,4.1-4.1C902.9,947.7,903,947.7,903.1,947.8z"/>
			<path class="st2" d="M871,966.2c0,2.3-1.8,4.1-4.1,4.1c-1,0-1.9-0.3-2.6-0.9v0c-0.2-2-0.3-3.9-0.5-5.9c0.8-0.8,1.8-1.4,3.1-1.4
				C869.2,962.1,871,963.9,871,966.2z"/>
			<circle class="st2" cx="888.4" cy="972.3" r="4.1"/>
			<circle class="st2" cx="872.1" cy="988.7" r="4.1"/>
			<circle class="st2" cx="894.6" cy="989.7" r="4.1"/>
			<path class="st10" d="M903.8,926.2c-3.5,0-7,0.1-10.4,0.1c-0.9,0-1.9,0-2.8,0c-0.5,0-1,0-1.5,0c-0.5,0-1,0-1.5,0
				c-6.8,0.1-13.6,0.2-20.5,0.3c-2.1,0-4.2,0.1-6.3,0.1c0.2,1.9,0.3,3.7,0.5,5.6c0.9,10.3,1.8,20.7,2.6,31c0.2,2,0.3,3.9,0.5,5.9v0
				c0.7,8.8,1.5,17.7,2.2,26.5H899c0.9-10.9,1.8-21.8,2.8-32.7c2-0.5,4.3-1.1,6.7-2.1c3.5-1.4,6.3-3.2,8.3-5.3
				c0.2-0.2,0.4-0.5,0.7-0.7c0.2-0.2,0.4-0.5,0.6-0.7c0.4-0.5,0.7-1,1.1-1.5c0.2-0.4,0.5-0.8,0.7-1.2c0.2-0.4,0.4-0.8,0.5-1.3
				c0,0,0.1-0.2,0.2-0.5c0-0.1,0-0.2,0.1-0.3c0-0.2,0.1-0.3,0.1-0.6c0.2-0.9,0.5-2.3,0.5-3.8C921.1,937.9,914,930.7,903.8,926.2z
				 M902.8,959c0-0.7,0-1.3,0-2c0-0.4,0-0.7,0-1.1v-0.3c0-1.6,0.1-3.2,0.1-4.8c0-1,0.1-2.1,0.2-3.1c0-0.9,0.1-1.8,0.2-2.8
				c0.1-1.2,0.2-2.4,0.3-3.6c0.1-1.2,0.2-2.3,0.4-3.5c0.1-0.6,0.1-1.1,0.2-1.7c0.1-1.1,0.3-2.2,0.4-3.3c0.1-0.5,0.2-1.1,0.2-1.6
				c0.8,0.2,2.1,0.6,3.5,1.5c0.4,0.2,0.8,0.4,1.1,0.7c0.4,0.2,0.8,0.5,1.2,0.8s0.8,0.6,1.2,1s0.8,0.8,1.2,1.2
				c0.1,0.1,0.2,0.2,0.3,0.4c1.1,1.3,1.9,2.7,2.4,4c0.2,0.6,0.5,1.1,0.6,1.6c0.1,0.3,0.2,0.7,0.3,1c0.1,0.5,0.2,0.9,0.3,1.3
				c0,0.1,0,0.2,0,0.3c0.1,0.3,0.1,0.5,0.1,0.7C917.4,950.2,911.8,956.7,902.8,959z"/>
			<path class="st2" d="M866.4,917c-0.2,0-0.5-0.2-0.5-0.4c-1.2-7.2-0.8-14.2,1-20.7c1.2-4.2,2.5-6.3,3.6-8.1c0.7-1.1,1.2-2,1.7-3.1
				c0-0.1,0.5-1.4,0.8-3c0.7-3.9-2.1-11.2-7.1-18c-0.2-0.2-0.1-0.5,0.1-0.7c0.2-0.2,0.5-0.1,0.7,0.1c5.2,7.2,8,14.6,7.3,18.8
				c-0.4,1.9-0.7,2.8-0.9,3.2l0,0c-0.5,1.3-1.1,2.3-1.8,3.3c-1.1,1.8-2.4,3.8-3.5,7.9c-1.8,6.3-2.2,13.2-1,20.2
				C867,916.7,866.8,917,866.4,917C866.5,917,866.5,917,866.4,917z"/>
			<path class="st2" d="M883.8,918.1c0,0-0.1,0-0.1,0c-0.3-0.1-0.4-0.4-0.3-0.6c7.3-24.4,8.4-41.1,3.1-49.7
				c-0.1-0.2-0.3-0.5-0.5-0.7c-1.6-2.6-4.6-7.3-4.7-13.8c-0.1-5.1,1.7-12.1,2.1-13.4c0.1-0.3,0.3-0.5,0.6-0.4
				c0.3,0.1,0.4,0.3,0.4,0.6c-0.4,1.4-2.1,8.2-2,13.2c0.1,6.2,3,10.8,4.6,13.3c0.2,0.3,0.3,0.5,0.5,0.8c5.4,8.9,4.4,25.9-3,50.6
				C884.3,917.9,884.1,918.1,883.8,918.1z"/>
			<path class="st2" d="M898.2,918.1c-0.1,0-0.2,0-0.3-0.1c-0.2-0.1-0.3-0.5-0.2-0.7c6.2-10.2,8.2-18.3,6.1-24.1
				c-0.1-0.3-0.2-0.6-0.4-0.9c-0.8-2.1-2.2-5.5-2.7-10.4c-0.3-2.7-0.3-5.5,0-8.3c0-0.3,0.3-0.5,0.6-0.5c0.3,0,0.5,0.3,0.5,0.6
				c-0.3,2.7-0.3,5.4,0,8.1c0.5,4.8,1.9,8.2,2.7,10.2c0.1,0.4,0.3,0.7,0.4,1c2.2,6.1,0.2,14.6-6.2,25
				C898.5,918,898.3,918.1,898.2,918.1z"/>
			<linearGradient id="SVGID_4_" gradientUnits="userSpaceOnUse" x1="878.0842" y1="961.0515" x2="921.2009" y2="961.0515">
				<stop  offset="0.1621" style="stop-color:#5A142A"/>
				<stop  offset="0.8767" style="stop-color:#9F6C00"/>
			</linearGradient>
			<path class="st11" d="M903.8,926.2c-4.4,0.1-8.8,0.1-13.2,0.2c-0.1,14.2-1.4,48.9-12.5,69.4H899c0.9-10.9,1.8-21.8,2.8-32.7
				c2-0.5,4.4-1.1,6.7-2.1c6.2-2.6,10.2-6.2,11.9-10.8c0.1-0.2,0.9-2.5,0.9-5.1C921.1,937.9,914,930.7,903.8,926.2z M902.8,959
				c0-4.4,0.1-9,0.5-14c0.4-4.9,0.9-9.4,1.5-13.6c1.6,0.5,5.2,1.7,8.2,5.1c0.1,0.1,0.2,0.2,0.3,0.4c2.9,3.4,3.7,7.5,3.8,8.8
				C917.4,950.3,911.8,956.7,902.8,959z"/>
		</g>
		<g id="photo_windows">
			<path class="st12" d="M686.8,564.9c-0.3,0-0.6-0.1-0.8-0.4L517.1,352.9c-0.4-0.4-0.3-1.1,0.2-1.4c0.4-0.4,1.1-0.3,1.4,0.2
				l168.9,211.6c0.4,0.4,0.3,1.1-0.2,1.4C687.2,564.8,687,564.9,686.8,564.9z"/>
			<g id="_x31_st_photo_window">
				<linearGradient id="SVGID_5_" gradientUnits="userSpaceOnUse" x1="538.3333" y1="416.7747" x2="532.5903" y2="189.9285">
					<stop  offset="0" style="stop-color:#F1F0E2"/>
					<stop  offset="0.4305" style="stop-color:#F0F0E2"/>
					<stop  offset="1" style="stop-color:#D3E0DF"/>
				</linearGradient>
				<rect x="436" y="223" class="st13" width="198.6" height="147.4"/>
				<path class="st14" d="M514.7,296.7c1.4,1.3,0.3,4.7-1.7,6.5c-1.8,1.7-5.1,2.6-6.4,1.3c-1.4-1.3-0.3-4.7,1.7-6.5
					C510.2,296.3,513.4,295.4,514.7,296.7z"/>
				<circle class="st15" cx="558.7" cy="263.2" r="4.4"/>
				<circle class="st15" cx="619" cy="274.2" r="4.4"/>
				<path class="st16" d="M622.3,277.5c-1.7,4.3-4.4,9.8-8.8,15.4c-8.8,11.1-19.4,16.3-25.2,18.7c-2.1,2.6-12.9,16.3-11,36.2
					c0.9,9.5,4.5,17.1,8.2,22.6H546c-0.8-12.3,0.1-29,7.2-46.8c2.3-5.8,5-10.9,7.7-15.4c-1.3-0.6-12.8-6.4-15.4-19.8
					c-3-15.2,8.3-25.7,8.9-26.3c2.2,1.5,4.4,2.9,6.6,4.4c-5.4,5.8-7.5,13.6-4.9,19.8c3.2,7.8,12.3,9.9,17,10.9
					c1.5,0.3,7.2,1.5,14.3,0c16.5-3.5,25.5-18.5,27.4-21.9C617.2,276,619.8,276.8,622.3,277.5z"/>
				<path class="st15" d="M585.1,284.1c0,2.4-0.5,4.6-1.4,6.4c-1.7,3.4-4.6,5.7-7.9,5.7c-5.1,0-9.3-5.4-9.3-12.1
					c0-5.6,2.9-10.3,6.9-11.6c0.2-0.1,0.5-0.2,0.7-0.2c0.6-0.1,1.1-0.2,1.7-0.2C580.9,272,585.1,277.4,585.1,284.1z"/>
				<path class="st15" d="M579.6,299.4c-0.1,4.2-0.2,5.4-1.1,6.6c-0.3,0.4-1.4,1.8-3.3,2.2c-1.4,0.3-3.3,0.1-4.4-1.1
					c-1.2-1.3-0.3-2.8,0-7.7c0.4-5.4-0.4-8,1.1-8.8c0.6-0.3,0.8,0,3.8,0c2.2,0,2.3-0.2,2.7,0C579.3,291.1,579.7,292.3,579.6,299.4z"
					/>
				<circle cx="580.1" cy="267.1" r="7.1"/>
				<path d="M585.1,284.1c0,2.4-0.5,4.6-1.4,6.4c-5.5-1.4-8.6-10.8-9.9-16.1c-0.2-0.8-0.3-1.4-0.4-2c0.2-0.1,0.5-0.2,0.7-0.2
					c0.6-0.1,1.1-0.2,1.7-0.2C580.9,272,585.1,277.4,585.1,284.1z"/>
				<path d="M574,272.2c0,0.6-0.1,1.3-0.3,2.2c-0.6,3.7-2.4,8.9-7.3,9.7c0-5.6,2.9-10.3,6.9-11.6C573.5,272.3,573.8,272.3,574,272.2
					z"/>
				<path class="st17" d="M513.2,370.3h-18.3c-1.8-2.4-3.7-4.8-5.7-7.2c-0.6-0.7-1.2-1.5-1.8-2.2c-0.7,3.1-1.4,6.3-2,9.4H465
					c0.6-13.3,0.1-27.1,2.7-32.7c1-2.1,2.2-3.8,3.1-5c0.3-0.4,0.7-0.8,1-1.1c7.2-0.7,14.3-1.4,21.5-2c5.1,9.6,10.3,19.8,15.4,30.7
					C510.3,363.6,511.8,367,513.2,370.3z"/>
				<path class="st18" d="M507.7,298.8c-0.7,0.4-1.7,1.2-3.1,2c-8.3,5.6-9,6.5-10.2,6.1c-2.8-0.9-1.2-6.5-6.1-12.3
					c-0.7-0.8-2.4-2.7-5.1-4.1c-4.5-2.4-8.9-2.1-10.2-2c-9,0.6-17.6,8.2-20.5,17.4c-1,3.1-3,9.9,1,15.4c3.4,4.5,9.8,6.5,16.4,5.1
					c0.3,2,0.7,4.1,1,6.1c0.5,0.6,4.6,4.9,10.9,4.6c4.9-0.2,9.4-3.2,11.7-7.7c-0.5-2.7-1.1-6.4-1.7-9.8c1,0.4,1.8,0.6,2.7,0.6
					c0,0,0.5,0,1.1,0c2.9-0.2,10-7,10.2-7.2c1.4-1.3,3.5-3.1,6.1-5.1C510.4,304.9,509,301.8,507.7,298.8z"/>
				<path class="st14" d="M489,313.3c0.6,1.6-1.2,3.9-3.3,4.7c-2,0.7-4.8,0.4-5.4-1.1c-0.6-1.6,1.2-3.9,3.3-4.7
					C485.5,311.5,488.4,311.8,489,313.3z"/>
				<ellipse class="st14" cx="471.3" cy="278.3" rx="8.7" ry="11.3"/>
				<path class="st14" d="M475.9,287c0.9,3.5,2.2,7.6,0,9.7c-1,1-2.7,1.4-4.1,1c-3.6-1.1-4-7.9-4.1-9.7c-0.2-4.3,0.7-10.5,2.8-10.7
					C472.7,277.1,475.1,283.7,475.9,287z"/>
				<path d="M480,271.1l-9.2,3.1l-1.6,20.1l-16.8-9.9c0.3-1.4,4.3-17.5,14.3-20.5c1.3-0.4,4.1-1.2,7.2,0
					C478.2,265.7,479.7,270.3,480,271.1z"/>
				
					<rect x="501.9" y="254.8" transform="matrix(0.9645 -0.2641 0.2641 0.9645 -50.7021 142.0305)" class="st9" width="1.9" height="9.5"/>
				
					<rect x="442.6" y="267.1" transform="matrix(0.9645 -0.2641 0.2641 0.9645 -56.0543 126.7866)" class="st9" width="1.9" height="9.5"/>
				
					<rect x="593" y="269.2" transform="matrix(0.9645 -0.2641 0.2641 0.9645 -51.2523 166.6002)" class="st9" width="1.9" height="9.5"/>
				
					<rect x="517.3" y="246.6" transform="matrix(0.9013 0.4332 -0.4332 0.9013 160.0341 -199.6695)" class="st9" width="1.9" height="9.5"/>
				
					<rect x="596.1" y="233.3" transform="matrix(0.9013 0.4332 -0.4332 0.9013 162.0481 -235.1239)" class="st4" width="1.9" height="9.5"/>
				
					<rect x="605.3" y="239.5" transform="matrix(0.6541 0.7564 -0.7564 0.6541 394.4828 -374.1193)" class="st9" width="1.9" height="9.5"/>
				
					<rect x="576.7" y="232.3" transform="matrix(0.9645 -0.2641 0.2641 0.9645 -42.1013 160.9662)" class="st9" width="1.9" height="9.5"/>
				
					<rect x="458.9" y="227.2" transform="matrix(0.9645 -0.2641 0.2641 0.9645 -44.9293 129.6947)" class="st9" width="1.9" height="9.5"/>
				
					<rect x="489.7" y="259.9" transform="matrix(0.8162 -0.5777 0.5777 0.8162 -62.7682 332.077)" class="st4" width="1.9" height="9.5"/>
				
					<rect x="470.2" y="243.6" transform="matrix(0.8162 -0.5777 0.5777 0.8162 -56.8803 317.831)" class="st9" width="1.9" height="9.5"/>
				
					<rect x="451.8" y="243.6" transform="matrix(0.8162 -0.5777 0.5777 0.8162 -60.2663 307.1861)" class="st19" width="1.9" height="9.5"/>
				
					<rect x="540.8" y="256.9" transform="matrix(0.8838 0.4679 -0.4679 0.8838 185.3759 -223.0873)" class="st9" width="1.9" height="9.5"/>
				
					<rect x="492.7" y="281.4" transform="matrix(0.8838 0.4679 -0.4679 0.8838 191.2795 -197.7219)" class="st9" width="1.9" height="9.5"/>
				
					<rect x="510.1" y="323.4" transform="matrix(0.8838 0.4679 -0.4679 0.8838 212.9385 -200.9867)" class="st9" width="1.9" height="9.5"/>
				
					<rect x="510.1" y="227.2" transform="matrix(0.8838 0.4679 -0.4679 0.8838 167.9177 -212.1688)" class="st9" width="1.9" height="9.5"/>
				
					<rect x="524.5" y="259.9" transform="matrix(0.7071 0.7071 -0.7071 0.7071 341.0586 -293.9847)" class="st9" width="1.9" height="9.5"/>
				
					<rect x="524.5" y="297.8" transform="matrix(0.7071 0.7071 -0.7071 0.7071 367.8397 -282.8916)" class="st9" width="1.9" height="9.5"/>
				
					<rect x="596.1" y="315.2" transform="matrix(0.7071 0.7071 -0.7071 0.7071 401.1315 -328.4618)" class="st4" width="1.9" height="9.5"/>
				
					<rect x="489.7" y="233.3" transform="matrix(0.7071 0.7071 -0.7071 0.7071 312.0458 -277.1702)" class="st9" width="1.9" height="9.5"/>
				
					<rect x="560.3" y="236.4" transform="matrix(0.7071 0.7071 -0.7071 0.7071 334.9044 -326.2139)" class="st4" width="1.9" height="9.5"/>
				
					<rect x="571.5" y="246.6" transform="matrix(0.9845 -0.1753 0.1753 0.9845 -35.2004 104.2327)" class="st9" width="1.9" height="9.5"/>
				
					<rect x="514.2" y="277.3" transform="matrix(-0.3749 0.9271 -0.9271 -0.3749 969.8126 -89.7445)" class="st19" width="1.9" height="9.5"/>
				
					<rect x="527.5" y="314.2" transform="matrix(-0.3749 0.9271 -0.9271 -0.3749 1022.2716 -51.4168)" class="st9" width="1.9" height="9.5"/>
				
					<rect x="534.7" y="243.6" transform="matrix(-0.3749 0.9271 -0.9271 -0.3749 966.6431 -155.1667)" class="st19" width="1.9" height="9.5"/>
				
					<rect x="442.6" y="284.5" transform="matrix(-0.3749 0.9271 -0.9271 -0.3749 877.9412 -13.4641)" class="st4" width="1.9" height="9.5"/>
				
					<rect x="593" y="249.7" transform="matrix(-0.3749 0.9271 -0.9271 -0.3749 1052.5558 -200.8147)" class="st19" width="1.9" height="9.5"/>
				
					<rect x="531.6" y="279.4" transform="matrix(0.9481 0.3181 -0.3181 0.9481 118.0547 -154.6528)" class="st9" width="1.9" height="9.5"/>
				
					<rect x="541.9" y="305" transform="matrix(0.9481 0.3181 -0.3181 0.9481 126.727 -156.5797)" class="st4" width="1.9" height="9.5"/>
				
					<rect x="611.5" y="256.9" transform="matrix(0.9481 0.3181 -0.3181 0.9481 115.0385 -181.2212)" class="st4" width="1.9" height="9.5"/>
				
					<rect x="611.5" y="305" transform="matrix(0.9481 0.3181 -0.3181 0.9481 130.3428 -178.7221)" class="st19" width="1.9" height="9.5"/>
				
					<rect x="540.8" y="229.2" transform="matrix(0.6541 0.7564 -0.7564 0.6541 364.43 -328.8783)" class="st9" width="1.9" height="9.5"/>
				<rect x="436" y="223" class="st20" width="198.6" height="147.4"/>
			</g>
			<path class="st12" d="M690.9,564.9c-0.2,0-0.4-0.1-0.6-0.2c-0.5-0.3-0.6-1-0.3-1.4l203.7-293.9c0.3-0.5,1-0.6,1.4-0.3
				c0.5,0.3,0.6,1,0.3,1.4L691.7,564.5C691.5,564.8,691.2,564.9,690.9,564.9z"/>
			<g id="_x32_nd_photo_window">
				<linearGradient id="SVGID_6_" gradientUnits="userSpaceOnUse" x1="870.7066" y1="353.4814" x2="865.5407" y2="149.4285">
					<stop  offset="0" style="stop-color:#D3E0DF"/>
					<stop  offset="2.997516e-02" style="stop-color:#D4E1DF"/>
					<stop  offset="0.6644" style="stop-color:#F1F0E2"/>
				</linearGradient>
				<rect x="784" y="179" class="st21" width="167.9" height="132.8"/>
				<path d="M902,229.7c-0.1,0.3-0.2,0.6-0.3,0.9c-2.3,7.1-5.2,14.1-8.4,20.8c-0.1,0.3-0.3,0.6-0.4,0.9l-1,0
					c0.2-0.3,0.3-0.6,0.4-0.9c3.4-6.9,6.3-14,8.7-21.2c0.1-0.3,0.2-0.7,0.3-1l0.5,0.5L902,229.7z"/>
				<path d="M905.8,214.6l0.3,0c-0.1,0.3-0.1,0.6-0.2,0.9c-0.8,3.5-1.7,7.1-2.7,10.5c-0.1,0.2-0.1,0.4-0.2,0.6
					c0,0.1-0.1,0.2-0.1,0.3l-1,0c0.1-0.2,0.1-0.4,0.2-0.6c0-0.1,0.1-0.2,0.1-0.3c1.1-3.6,2-7.2,2.8-10.9c0.1-0.4,0.2-0.9,0.3-1.3
					L905.8,214.6z"/>
				<path d="M908.9,196.6c-0.5,5-1.2,10-2.2,14.9c-0.1,0.3-0.1,0.6-0.2,0.9l-0.9,0c0.1-0.3,0.1-0.6,0.2-0.9c1-5,1.7-10,2.2-15
					c0-0.3,0.2-0.4,0.5-0.4C908.8,196.1,909,196.4,908.9,196.6z"/>
				<path d="M914.5,212.6l-0.9,0c0-0.3-0.1-0.6-0.1-0.9c-0.8-5-1.4-10-1.8-15c0-0.2,0.2-0.5,0.4-0.5c0.3,0,0.5,0.2,0.5,0.4
					c0.3,5,0.9,10.1,1.8,15.1C914.4,212,914.4,212.3,914.5,212.6z"/>
				<path d="M917.7,227.2l-1,0c0-0.1-0.1-0.2-0.1-0.3c-0.1-0.2-0.1-0.4-0.2-0.6c-0.9-3.5-1.7-7.1-2.4-10.6c-0.1-0.3-0.1-0.6-0.2-0.9
					l0.3,0l0.5-0.8c0.1,0.4,0.2,0.9,0.2,1.3c0.7,3.7,1.5,7.4,2.5,11c0,0.1,0.1,0.2,0.1,0.3C917.6,226.8,917.6,227,917.7,227.2z"/>
				<path d="M926.7,252.1l-1,0c-0.1-0.3-0.3-0.6-0.4-0.9c-2.9-6.6-5.5-13.4-7.5-20.4c-0.1-0.3-0.2-0.6-0.3-0.9l0.2,0l0.5-0.7
					c0.1,0.4,0.2,0.7,0.3,1.1c2.1,7.1,4.6,14.1,7.7,20.9C926.4,251.5,926.5,251.8,926.7,252.1z"/>
				<path d="M916.7,226.8c-0.1-0.2-0.1-0.4-0.2-0.6l-13.4-0.2c-0.1,0.2-0.1,0.4-0.2,0.6c0,0.1-0.1,0.2-0.1,0.3l13.9,0.2
					C916.7,227.1,916.7,226.9,916.7,226.8z M921.2,226.6c-0.1-0.2-0.2-0.3-0.4-0.3L898,226c-0.2,0-0.3,0.1-0.4,0.3
					c-0.1,0.2,0,0.4,0.1,0.5l3.3,3.4l0.3,0.3c0.1,0.1,0.2,0.1,0.3,0.1l16.4,0.3c0.1,0,0.3-0.1,0.4-0.2l0.3-0.3l2.5-3.3
					C921.2,226.9,921.2,226.7,921.2,226.6z M917.7,229.9l-16-0.3l-2.7-2.8l20.7,0.3L917.7,229.9z M916.7,226.8
					c-0.1-0.2-0.1-0.4-0.2-0.6l-13.4-0.2c-0.1,0.2-0.1,0.4-0.2,0.6c0,0.1-0.1,0.2-0.1,0.3l13.9,0.2
					C916.7,227.1,916.7,226.9,916.7,226.8z"/>
				<path d="M919.3,251.2c0,0.3,0,0.6-0.1,0.9l-0.9,0c0-0.3,0.1-0.6,0.1-0.9c0.5-6.8-1.9-12.5-6.1-14.2c-2.4-1-4.7-0.2-5.1-0.1
					c-4.3,1.6-6.9,7.4-6.6,14.3c0,0.3,0,0.6,0.1,0.9l-0.9,0c0-0.3,0-0.6-0.1-0.9c-0.3-7.3,2.5-13.5,7.2-15.2c0.5-0.2,3-1,5.8,0.1
					C917.1,238,919.7,244.1,919.3,251.2z"/>
				<path d="M912.1,197.1l-3.6-0.1c-0.2,0-0.4-0.1-0.4-0.3l-1.3-4.1c0-0.1,0-0.3,0.1-0.4c0.1-0.1,0.2-0.2,0.4-0.2l6.4,0.1
					c0.1,0,0.3,0.1,0.4,0.2c0.1,0.1,0.1,0.3,0.1,0.4l-1.4,4.1C912.5,196.9,912.3,197.1,912.1,197.1z M908.8,196.1l3,0l1.1-3.2
					l-5.1-0.1L908.8,196.1z"/>
				<path d="M910.4,192.9c-0.3,0-0.5-0.2-0.4-0.5l0.1-7.3c0-0.3,0.2-0.5,0.5-0.4c0.3,0,0.5,0.2,0.4,0.5l-0.1,7.3
					C910.8,192.7,910.6,192.9,910.4,192.9z"/>
				<path d="M916.8,211.9c-0.1-0.1-0.2-0.2-0.4-0.2l-12.7-0.2c-0.2,0-0.3,0.1-0.4,0.2c-0.1,0.1-0.1,0.3,0,0.5l1.7,2.9l0.1,0.2
					c0.1,0.1,0.2,0.2,0.4,0.2l9,0.1c0.2,0,0.3-0.1,0.4-0.2l0.1-0.2l1.8-2.9C916.9,212.3,916.9,212.1,916.8,211.9z M914.7,214
					l-0.5,0.8l-8.5-0.1l-0.5-0.8l-0.8-1.4l11.1,0.2L914.7,214z"/>
				<path d="M934.2,252.1c-0.2,0-0.4-0.2-0.4-0.5c0-0.3,0.2-0.5,0.5-0.5l3.5,0c0.3,0,0.5,0.2,0.5,0.5c0,0.3-0.2,0.5-0.5,0.5
					L934.2,252.1C934.2,252.1,934.2,252.1,934.2,252.1z"/>
				<path d="M932.7,251.6c0,0.3-0.2,0.5-0.5,0.5l-5.6,0l-1,0l-6.5,0l-0.9,0l-17.7,0.1l-0.9,0l-6.8,0l-1,0l-5,0l0,0
					c-0.2,0-0.4-0.2-0.4-0.5c0-0.2,0.2-0.5,0.5-0.5l5.4,0l1,0l6.3,0l0.9,0l17.8-0.1l0.9,0l6,0l1,0l6,0
					C932.5,251.2,932.7,251.4,932.7,251.6z"/>
				<path d="M817.4,252.6c-0.2,0-0.4-0.2-0.4-0.5c0-0.3,0.2-0.5,0.5-0.5c15-0.1,38.1-0.2,60.1-0.3c0.2,0,0.5,0.2,0.5,0.5
					c0,0.3-0.2,0.5-0.5,0.5C855.5,252.4,832.4,252.5,817.4,252.6C817.4,252.6,817.4,252.6,817.4,252.6z"/>
				<path d="M801.1,252.6c-0.3,0-0.5-0.2-0.4-0.5s0.2-0.5,0.5-0.4c0.1,0,1.7,0,11.9,0c0,0,0,0,0,0c0.2,0,0.4,0.2,0.4,0.5
					c0,0.3-0.2,0.5-0.5,0.5C805.3,252.6,801.3,252.6,801.1,252.6z"/>
				<path class="st16" d="M866.9,271.1c-0.1,0.6-0.7,2.1-2,3.1c-1.5,1.1-3.3,1.1-4.1,1l-23.3-5c0.9,21.2,0.8,29.6,0.8,29.6h-31.7
					c1.4-7.9,2.7-15.7,4.1-23.5c-3.4,9.6-6.8,19.1-10.2,28.7c-0.3-0.1-0.7-0.1-1-0.1c-1.7-0.2-3.4-0.5-5.1-0.7
					c-0.4-0.1-0.7-0.1-1.1-0.2c0.1-8.1,1.7-14.3,3.1-18.4c1.9-5.7,6.8-20.3,19.3-27.1c1-0.6,2.1-1.1,3.2-1.5c4.8-1.9,8.7-2,12.3-2
					c0.7,0,1.3,0,2,0C851.8,255.1,867.7,266.4,866.9,271.1z"/>
				<path d="M841,311.8h-14.6l-4.4-5.9c0,0-1,3.4-1.6,5.9h-15.5l1.7-12l31.9-2.4L841,311.8z"/>
				<path class="st22" d="M834.2,242.2c0,0.1,0,0.1,0,0.2c-0.1,5.1-3.5,9.2-7.7,9.2c-4.2,0-7.7-4.2-7.7-9.4c0-0.8,0.1-1.5,0.2-2.3
					c0.3-1.6,1-3.1,1.9-4.3c1.4-1.8,3.3-2.9,5.5-2.9c2.4,0,4.5,1.3,5.9,3.4C833.5,237.8,834.2,239.9,834.2,242.2z"/>
				<ellipse class="st22" cx="865.9" cy="274.7" rx="2" ry="4.6"/>
				<path class="st22" d="M831.1,256.8c-0.7,1.8-2.3,3-4.1,3.1c-2.5,0.1-4-1.9-4.1-2c0-3.8,0-7.5,0-11.3c2.4,0,4.8,0,7.2,0
					C830.4,250,830.8,253.4,831.1,256.8z"/>
				<path class="st22" d="M799.4,304.8v0.1c0,2.8-1.1,5.1-2.6,5.1c-1.4,0-2.6-2.3-2.6-5.1c0-0.3,0-0.6,0-0.9
					C796,304.3,797.7,304.5,799.4,304.8z"/>
				<path d="M834.2,242.2c0,0.1,0,0.1,0,0.2c-1.8-5.1-3.1-6.2-4.1-6.1c-1.5,0-2.1,3-4.1,3.1c-1.7,0.1-2.5-2.1-4.1-2
					c-1.2,0.1-2.2,1.4-2.8,2.6c0.3-1.6,1-3.1,1.9-4.3c1.4-1.8,3.3-2.9,5.5-2.9c2.4,0,4.5,1.3,5.9,3.4
					C833.5,237.8,834.2,239.9,834.2,242.2z"/>
				<path class="st17" d="M815.6,258.3l-1.8,41.5h-7.3c1.4-7.9,2.7-15.7,4.1-23.5c-3.4,9.6-6.8,19.1-10.2,28.7
					c-0.3-0.1-0.7-0.1-1-0.1c-1.7-0.2-3.4-0.5-5.1-0.7c-0.4-0.1-0.7-0.1-1.1-0.2c0.1-8.1,1.7-14.3,3.1-18.4
					C798.2,279.8,803.1,265.1,815.6,258.3z"/>
				<path class="st17" d="M866.9,271.1c-0.1,0.6-0.7,2.1-2,3.1c-1.5,1.1-3.3,1.1-4.1,1l-23.3-5c0.9,21.2,0.8,29.6,0.8,29.6h-6.1
					l0.9-45C851.8,255.1,867.7,266.4,866.9,271.1z"/>
				<polygon class="st2" points="862.3,311.8 834.8,311.8 837.3,301.8 858.8,301.8 				"/>
				<path class="st14" d="M887.4,266c0.3,1-1.9,2.7-4.1,3.1c-1.7,0.3-3.9-0.1-4.1-1c-0.2-1.1,2.5-3,5.1-3.1
					C885.4,265,887.2,265.2,887.4,266z"/>
				<path class="st4" d="M879.2,268.1c-1.8,3.9-3.2,7-4.1,9.2c-0.8,1.9-1.2,2.8-2,3.1c-1.6,0.4-3.3-1.9-7.2-6.1
					c-2.5-2.8-4.7-5-6.1-6.4c-0.3-0.3-0.7-0.6-1-0.7c-1.6-0.6-3.7,0.4-5.1-1c-1.9-1.9-0.7-6.2,1-10.2c-3.1,0.3-6.1,0.7-9.2,1
					c0.9,2.5,1.7,6.1,0,8.2c-1.4,1.7-3.4,1.3-6.1,2c-5.6,1.6-8.8,6.5-11.3,10.2c-2,3.1-7,10.8-4.1,15.4c1,1.6,2.5,2.1,5.1,3.1
					c7.1,2.6,15.2,1.5,15.4,0c0-0.2-0.1-0.6-3.1-2c-7.2-3.6-10.6-3.4-11.3-5.1c-0.6-1.4,0.5-3.9,7.2-9.2c0,7.5,0,15,0,22.5
					c7.2,0,14.3,0,21.5,0c1.6-8.8,2.5-15.6,2.8-20.7c4.6,5.1,9.4,7.7,12.6,6.4c2.5-1,3.9-4.1,6.1-9.2c1.6-3.6,2.5-6.9,3.1-9.2
					C882,268.7,880.6,268.4,879.2,268.1z"/>
				<ellipse class="st14" cx="849.5" cy="251.9" rx="8.3" ry="10"/>
				<path d="M845.2,247.2c0.7,0,8.7,0,8.7,0c0.3,4.9,0.5,9.8,0.8,14.7c3.1-1.8,6.1-3.6,9.2-5.3c-0.8-3.6-2.1-6.3-3.1-8.2
					c-1.9-3.5-4-7.4-7.6-7.8c-1.4-0.2-2.6,0.3-3.3,0.7c-0.9-0.4-2.3-0.8-4-0.7c-3,0.3-4.9,2.2-6,3.3c-5.2,5.3-4.8,14.5-4.7,16
					c3.1,0.7,6.2,1.3,9.3,2L845.2,247.2z"/>
				<path d="M840.9,305.1c-0.4-0.6-1.8-2.9-1.6-4.9c0.2-2,2.2-4.4,4.6-4.6c1.3-0.1,2.6,0.5,3.7,1.5c1.3,1.3,2.1,3.2,2,5.2l-1,0
					c0.1-1.7-0.6-3.3-1.7-4.4c-0.9-0.8-1.9-1.3-2.9-1.2c-1.9,0.1-3.5,2.1-3.6,3.6c-0.1,1.3,0.7,3.1,1.4,4.3l0,0.1L840.9,305.1z"/>
				<path class="st14" d="M845.5,294.7c0.6,1-0.1,2.5-1,3.1c-1.5,0.9-3.8,0-4.1-1.3c-0.2-1.2,1.4-2.8,3.1-2.8
					C843.5,293.6,844.9,293.7,845.5,294.7z"/>
				<path d="M855.7,308c0,0-2.2,1-2.2,1c-2,0.9-2.1,1-2.2,1c-0.8,0.4-2.3,0.9-5.4,1.8h-5.1c-0.8-2.1-1.7-4.2-2.5-6.4
					c0.3-0.1,3.6-2.6,7.6-3.6c0.7-0.2,1.8-0.4,3.3-1c1-0.4,1.7-0.8,2.2-1C852.8,302.5,854.2,305.2,855.7,308z"/>
				<path class="st23" d="M970.8,199"/>
				<rect x="784" y="179" class="st20" width="167.9" height="132.8"/>
			</g>
		</g>
		<g id="girl">
			<g id="body">
				<path class="st18" d="M895.5,658.6c-56.7-13.2-76.3-6.5-82.8,3.6c0,0,0,0,0,0l0,0c0,0,0,0,0,0c-2,9.5-3.8,19.8-5.3,30.7
					c-0.3,2-0.5,4.1-0.8,6.1c-2,16.6-2.9,32-3.1,46.1c-26.3,6.8-52.5,13.6-78.8,20.5c-12.1,2.4-35.7,5-61.4-5.1
					c-9.1-3.6-16.6-8-22.5-12.3c-12-20.3-11.4-30.9-8.2-36.9c7.7-14.4,11.3-19.4,11.3-19.4c0.7-1,2.9-4.1,3.1-8.4c0-0.2,0-0.4,0-0.8
					c0-5.1,0-7.7-1-9.2c-4-6-22.4-5.6-84.1,21.3c-2.5-4.6-4.9-11-3.9-18.2c0.6-4.5,2.4-8.2,10.5-20c6-8.7,9.2-12.9,12-16.9
					c10.2-14.1,18.3-25.3,25.6-34.9c10.4-13.9,19.1-24.8,29.7-36.7c4.5-5,8.7-9.7,12.7-13.9c39.8-42.3,56.8-47.2,68.2-48.5
					c8.6-1,15.9-0.3,20.5,0.5c0,0,15.3,1.3,30.9,7.7c0,0,0.5,0.2,1.2,0.5c0,0,1.4,0.6,2.7,1.2c3.2,1.5,7,3.9,11.1,6.9
					c27.4,20.2,70.7,69.1,70.7,69.1c6.6,7.5,12.3,13.8,17.2,19.8c2.1,2.5,4,5,5.8,7.4c0.1,0.2,0.3,0.3,0.4,0.5
					c0.2,0.3,0.4,0.6,0.7,0.9c0.1,0.1,0.1,0.2,0.2,0.2c0.3,0.4,0.6,0.8,0.8,1.1c1.7,2.4,3.6,5.2,5.6,8.5c0.1,0.1,0.2,0.3,0.3,0.4
					c2.4,4.1,4.7,8.4,7,13.3c0.5,1,0.9,2,1.3,2.9c0.7,2,1.3,4,1.8,6.3C894.9,654.3,895.3,656.2,895.5,658.6z"/>
				<linearGradient id="SVGID_7_" gradientUnits="userSpaceOnUse" x1="790.3528" y1="666.7261" x2="812.7052" y2="666.7261">
					<stop  offset="4.787660e-03" style="stop-color:#640042;stop-opacity:0.2"/>
					<stop  offset="0.9388" style="stop-color:#002544"/>
				</linearGradient>
				<path class="st24" d="M812.7,662.1C812.7,662.1,812.7,662.2,812.7,662.1L812.7,662.1C812.7,662.2,812.7,662.2,812.7,662.1
					c-2.1,9.6-3.9,19.8-5.4,30.7c-4-9.9-8-19.8-12-29.7c-5.8-17.5-5.5-21.8-4.1-22.5c1.6-0.8,5.5,3.5,13.3,12.3
					C807.2,656,810,659.1,812.7,662.1z"/>
				<linearGradient id="SVGID_8_" gradientUnits="userSpaceOnUse" x1="782.9074" y1="566.8474" x2="870.837" y2="566.8474">
					<stop  offset="4.787660e-03" style="stop-color:#640042;stop-opacity:0.2"/>
					<stop  offset="0.9388" style="stop-color:#002544"/>
				</linearGradient>
				<path class="st25" d="M870.8,611.3c-6.9-1.1-14.3-2.9-22.3-5.5c-35.5-11.4-56.3-56.8-65.6-83.5c27.4,20.2,70.7,69.1,70.7,69.1
					C860.3,599,865.9,605.3,870.8,611.3z"/>
				<linearGradient id="SVGID_9_" gradientUnits="userSpaceOnUse" x1="603.6631" y1="611.0004" x2="670.206" y2="611.0004">
					<stop  offset="4.787660e-03" style="stop-color:#640042;stop-opacity:0.2"/>
					<stop  offset="0.9388" style="stop-color:#002544"/>
				</linearGradient>
				<path class="st26" d="M670.2,615.4c-0.8,2.7-1.8,5.1-2.9,6.8c-11.2,18.8-60,16.7-63.5,5.1c-4-13.3,50.4-45.3,65.2-41.2
					c0,4,0.1,7.6,0.3,10.5C669.7,602.8,670,609,670.2,615.4z"/>
				<path class="st2" d="M785.1,590.5c0,0.7,0,1.5-0.1,2.2c-0.1,2.2-0.1,4.5-0.2,6.9c-0.1,2.2-0.1,4.5-0.2,6.8
					c0,1.6-0.1,3.2-0.1,4.8c0,1.6-0.1,3.3-0.1,5c0,0.2,0,0.4,0,0.6c-0.1,2.2-0.1,4.4-0.2,6.6c0,0.3,0,0.5,0,0.8
					c-0.1,2.2-0.1,4.4-0.2,6.7c0,1.6-0.1,3.2-0.2,4.8c-0.2,7.9-0.5,16.3-0.8,25c0,1.5-0.1,2.9-0.2,4.4c-0.1,2.3-0.1,4.7-0.2,7.1
					c-0.1,1.5-0.1,3-0.2,4.5c-0.1,2.8-0.2,5.6-0.3,8.5c0,1-0.1,2-0.1,3c0,0.8-0.1,1.6-0.1,2.4c0,1.1-0.1,2.1-0.1,3.2
					c-0.1,2.1-0.2,4.3-0.2,6.5c0,1.1-0.1,2.2-0.1,3.3c-0.1,1.5-0.1,2.9-0.2,4.4c-0.1,1.7-0.1,3.4-0.2,5.1c-0.1,2.3-0.2,4.7-0.3,7.1
					c0,1.1-0.1,2.2-0.2,3.3c-0.1,2.7-0.2,5.5-0.4,8.2c-0.4,9-0.8,18.4-1.3,27.9c0.1,0,0.1-0.1,0.1-0.1c0,0.1-3,4.6-8.3,10.8
					c-2.3,2.7-5.1,5.8-8.2,8.9c-5,5.1-10.9,10.4-17.4,15c-2.6,1.9-5.4,3.6-8.2,5.2c-4.9,2.8-10.1,5-15.4,6.3
					c-1.1,0.3-2.5,0.6-4.1,0.8c-2.3,0.4-5,0.6-8.2,0.6c-5.5,0-12.4-0.8-20.5-3.4c-2.6-0.8-5.3-1.9-8.2-3.1
					c-7.4-3.2-15.6-7.8-24.6-14.4c2.7-13.5,5.1-27.5,7.2-42c0.5-3.3,0.9-6.6,1.3-9.8c0.2-2,0.5-4,0.7-5.9c0.2-1.4,0.3-2.9,0.5-4.3
					c0.1-1.1,0.2-2.1,0.4-3.2c0.5-4.4,0.9-8.7,1.3-13c0.1-1.2,0.2-2.4,0.3-3.5c0-0.6,0.1-1.2,0.2-1.9c0.1-1.4,0.2-2.8,0.3-4.2
					c0.5-5.9,0.9-11.7,1.2-17.5c0.1-1.1,0.1-2.2,0.2-3.3c0-0.6,0.1-1.2,0.1-1.9c0.1-1,0.1-2.1,0.2-3.1c0.2-3.5,0.3-7,0.4-10.5
					c0.1-1.9,0.1-3.8,0.1-5.7c0-1.7,0.1-3.5,0.1-5.2c0-0.3,0-0.6,0-0.9c0-1.7,0-3.5,0.1-5.2c0-1.9,0-3.7,0-5.5c0-1.9,0-3.7,0-5.5
					c0-1,0-2.1,0-3.1c0-1.1,0-2.3,0-3.4v-0.2c0-1.9-0.1-3.9-0.1-5.8v0c0-2-0.1-3.9-0.2-5.9c-0.2-6.4-0.5-12.6-0.8-18.8
					c-0.2-2.9-0.4-6.5-0.3-10.5c0-0.9,0-1.9,0.1-2.9c0-0.5,0-1,0.1-1.5c0-0.5,0.1-1,0.1-1.5c0-0.1,0-0.1,0-0.2
					c0-0.8,0.1-1.6,0.2-2.4c0-0.3,0-0.6,0.1-0.9c0-0.5,0.1-0.9,0.1-1.3s0.1-0.9,0.1-1.4c0-0.2,0.1-0.5,0.1-0.7
					c0.1-0.6,0.1-1.2,0.2-1.8c0.2-1.2,0.3-2.3,0.5-3.6c0.1-0.6,0.2-1.2,0.3-1.8s0.2-1.2,0.4-1.8c0.1-0.6,0.2-1.2,0.4-1.9
					c0.1-0.6,0.3-1.2,0.4-1.9c0.1-0.6,0.3-1.2,0.4-1.8c0-0.1,0-0.1,0.1-0.2c0.2-0.6,0.3-1.2,0.5-1.8c0.1-0.5,0.3-1,0.4-1.5
					c0.1-0.3,0.2-0.7,0.3-1c0.2-0.5,0.3-1,0.5-1.5c0.1-0.4,0.2-0.8,0.4-1.1c0.1-0.3,0.2-0.6,0.3-0.8c0.2-0.5,0.4-1.1,0.6-1.6
					c0.2-0.7,0.5-1.3,0.8-1.9c0.3-0.6,0.5-1.3,0.8-1.9c0.3-0.6,0.6-1.3,0.9-1.9c0.3-0.6,0.5-1.2,0.8-1.7c0.5-1.1,1.1-2.2,1.7-3.3v0
					c0.5-0.9,1-1.7,1.5-2.6c0.4-0.6,0.8-1.3,1.1-1.9c0.8-1.3,1.6-2.5,2.5-3.8c0.9-1.3,2-2.8,3.1-4.2c3.8-5,8.9-10.3,16.6-14.2
					c1.3-0.7,2.6-1.2,3.9-1.7c2.8-1.1,5.5-1.8,8.2-2.3c7.1-1.3,13.9-0.9,19.5,0.1c3.2,0.6,6,1.3,8.2,2c1.6,0.5,2.9,1,3.9,1.4
					c0.3,0.1,0.7,0.3,1.2,0.5c5,2.2,9.1,5.3,12.3,8.6c3.7,3.8,6.4,7.9,8.2,11.1c0.9,1.5,1.5,2.8,2,3.8c0.4,0.9,0.9,1.7,1.3,2.6
					c0.2,0.4,0.4,0.9,0.6,1.3c0.8,1.7,1.5,3.5,2.2,5.2c0.2,0.4,0.3,0.9,0.5,1.3c0.5,1.3,0.9,2.6,1.4,3.9c0.4,1.1,0.7,2.3,1,3.4
					c0.1,0.4,0.2,0.8,0.3,1.1s0.2,0.8,0.3,1.2c0.1,0.2,0.1,0.5,0.2,0.7c0,0.1,0,0.1,0,0.2c0.3,1.1,0.6,2.2,0.8,3.3
					c0,0.2,0.1,0.4,0.1,0.5c0,0.2,0.1,0.3,0.1,0.5c0.3,1.4,0.6,2.8,0.9,4.1c0.1,0.5,0.2,0.9,0.3,1.4c0.1,0.5,0.2,0.9,0.2,1.3
					c0,0.2,0.1,0.4,0.1,0.6c0.3,1.5,0.5,3,0.7,4.4c0.1,0.7,0.2,1.3,0.2,2c0.1,0.5,0.1,1,0.2,1.5c0.2,1.4,0.3,2.7,0.4,3.9
					c0,0.5,0.1,1,0.1,1.4c0.1,1.6,0.2,3,0.2,4.3c0,0.2,0,0.3,0,0.5c0,0.5,0,1,0,1.4c0,0.1,0,0.3,0,0.4c0,0.3,0,0.5,0,0.8
					C785.1,589.8,785.1,590.5,785.1,590.5z"/>
				<path class="st27" d="M688.8,525.9v277.6c-2.6-0.8-5.3-1.9-8.2-3.1v-262c0.5-0.9,1-1.7,1.5-2.6c0.4-0.6,0.8-1.3,1.1-1.9
					c0.8-1.3,1.6-2.5,2.5-3.8C686.7,528.8,687.7,527.3,688.8,525.9z"/>
				<path class="st9" d="M717.5,507.6v298.7c-2.3,0.4-5,0.6-8.2,0.6V510C712.1,508.9,714.8,508.1,717.5,507.6z"/>
				<path class="st27" d="M745.1,509.8V794c-2.6,1.9-5.4,3.6-8.2,5.2V507.7C740.1,508.3,742.9,509.1,745.1,509.8z"/>
				<path class="st9" d="M770.7,531.4v238.7c-2.3,2.7-5.1,5.8-8.2,8.9V520.2C766.3,524.1,768.9,528.2,770.7,531.4z"/>
				<path class="st10" d="M785.1,590.5c0,0.7,0,1.5-0.1,2.2c-0.1,2.2-0.1,4.5-0.2,6.9c-0.1,2.2-0.1,4.5-0.2,6.8
					c0,1.6-0.1,3.2-0.1,4.8c0,1.6-0.1,3.3-0.1,5c0,0.2,0,0.4,0,0.6c-0.1,2.2-0.1,4.3-0.2,6.6c0,0.3,0,0.5,0,0.8
					c-0.1,2.2-0.1,4.4-0.2,6.7c0,1.6-0.1,3.2-0.2,4.8c-0.2,7.9-0.5,16.3-0.8,25c0,1.5-0.1,2.9-0.2,4.4c-0.1,2.3-0.2,4.7-0.2,7.1
					c-0.1,1.5-0.1,3-0.2,4.5c-0.1,2.8-0.2,5.6-0.3,8.5c0,1-0.1,2-0.1,3c0,0.8-0.1,1.6-0.1,2.4c0,1.1-0.1,2.1-0.1,3.2
					c-0.1,2.1-0.2,4.3-0.2,6.5c0,1.1-0.1,2.2-0.1,3.3c-0.1,1.5-0.1,2.9-0.2,4.4c-0.1,1.7-0.1,3.4-0.2,5.1c-0.1,3.4-0.3,6.9-0.4,10.4
					c-0.1,2.7-0.2,5.5-0.4,8.2c-0.4,9-0.8,18.4-1.3,27.9c0.1,0,0.1-0.1,0.1-0.1c0,0.1-3,4.6-8.3,10.8c-2.3,2.7-5.1,5.8-8.2,8.9
					c-5,5.1-10.9,10.4-17.4,15c-2.6,1.9-5.4,3.6-8.2,5.2c-4.9,2.8-10.1,5-15.4,6.3c-1.1,0.3-2.5,0.6-4.1,0.8c-2.3,0.4-5,0.6-8.2,0.6
					c-5.5,0-12.4-0.8-20.5-3.4c-2.6-0.8-5.3-1.9-8.2-3.1c-7.4-3.2-15.6-7.8-24.6-14.4c2.7-13.5,5.1-27.5,7.2-42
					c0.5-3.3,0.9-6.6,1.3-9.8c0.2-2,0.5-4,0.7-5.9c0.2-1.4,0.3-2.9,0.5-4.3c0.1-1.1,0.2-2.1,0.4-3.2c0.5-4.4,0.9-8.7,1.3-13
					c0.1-1.2,0.2-2.4,0.3-3.5c0-0.6,0.1-1.2,0.2-1.9c0.1-1.4,0.2-2.8,0.3-4.2c0.5-5.9,0.9-11.7,1.2-17.5c0.1-1.1,0.1-2.2,0.2-3.3
					c0-0.6,0.1-1.2,0.1-1.9c0.1-1,0.1-2.1,0.2-3.1c0.2-3.5,0.3-7,0.4-10.5c0.1-1.9,0.1-3.8,0.1-5.7c0-1.7,0.1-3.5,0.1-5.2
					c0-0.3,0-0.6,0-0.9c0-1.7,0-3.5,0.1-5.2c0-1.9,0-3.7,0-5.5c0-1.9,0-3.7,0-5.5c0-1,0-2.1,0-3.1c0-1.1,0-2.3,0-3.4v-0.2
					c0-1.9-0.1-3.9-0.1-5.8v0c0-2-0.1-3.9-0.2-5.9c-0.2-6.4-0.5-12.6-0.8-18.8c-0.2-2.9-0.4-6.5-0.3-10.5c0-0.9,0-1.9,0.1-2.9
					c0-0.5,0-1,0.1-1.5c0-0.5,0.1-1,0.1-1.5c0-0.1,0-0.1,0-0.2c0-0.8,0.1-1.6,0.2-2.4c0-0.3,0-0.6,0.1-0.9c0-0.5,0.1-0.9,0.1-1.3
					s0.1-0.9,0.1-1.4c0-0.2,0.1-0.5,0.1-0.7c0.1-0.6,0.1-1.2,0.2-1.8c0.2-1.2,0.3-2.3,0.5-3.6c0.1-0.6,0.2-1.2,0.3-1.8
					s0.2-1.2,0.4-1.8c0.1-0.6,0.2-1.2,0.4-1.9c0.1-0.6,0.3-1.2,0.4-1.9c0.1-0.6,0.3-1.2,0.4-1.8c0-0.1,0-0.1,0.1-0.2
					c0.2-0.6,0.3-1.2,0.5-1.8c0.1-0.5,0.3-1,0.4-1.5c0.1-0.3,0.2-0.7,0.3-1c0.2-0.5,0.3-1,0.5-1.5c0.1-0.4,0.2-0.8,0.4-1.1
					c0.1-0.3,0.2-0.6,0.3-0.8c0.2-0.5,0.4-1.1,0.6-1.6c0.2-0.7,0.5-1.3,0.8-1.9c0.3-0.6,0.5-1.3,0.8-1.9c0.3-0.6,0.6-1.3,0.9-1.9
					c0.3-0.6,0.5-1.2,0.8-1.7c0.5-1.1,1.1-2.2,1.7-3.3v0c0.5-0.9,1-1.7,1.5-2.6c0.4-0.6,0.8-1.3,1.1-1.9c0.8-1.3,1.6-2.5,2.5-3.8
					c0.9-1.3,2-2.8,3.1-4.2c3.8-5,8.9-10.3,16.6-14.2c1.3-0.7,2.6-1.2,3.9-1.7c2.8-1.1,5.5-1.8,8.2-2.3c7.1-1.3,13.9-0.9,19.5,0.1
					c3.2,0.6,6,1.3,8.2,2c1.6,0.5,2.9,1,3.9,1.4c0.3,0.1,0.7,0.3,1.2,0.5c5,2.2,9.1,5.3,12.3,8.6c3.7,3.8,6.4,7.9,8.2,11.1
					c0.9,1.5,1.5,2.8,2,3.8c0.4,0.9,0.9,1.7,1.3,2.6c0.2,0.4,0.4,0.9,0.6,1.3c0.8,1.7,1.5,3.5,2.2,5.2c0.2,0.4,0.3,0.9,0.5,1.3
					c0.5,1.3,0.9,2.6,1.4,3.9c0.4,1.1,0.7,2.3,1,3.4c0.1,0.4,0.2,0.8,0.3,1.1s0.2,0.8,0.3,1.2c0.1,0.2,0.1,0.5,0.2,0.7
					c0,0.1,0,0.1,0,0.2c0.3,1.1,0.6,2.2,0.8,3.3c0,0.2,0.1,0.4,0.1,0.5c0,0.2,0.1,0.3,0.1,0.5c0.3,1.4,0.6,2.8,0.9,4.1
					c0.1,0.5,0.2,0.9,0.3,1.4c0.1,0.5,0.2,0.9,0.2,1.3c0,0.2,0.1,0.4,0.1,0.6c0.3,1.5,0.5,3,0.7,4.4c0.1,0.7,0.2,1.3,0.2,2
					c0.1,0.5,0.1,1,0.2,1.5c0.2,1.4,0.3,2.7,0.4,3.9c0,0.5,0.1,1,0.1,1.4c0.1,1.6,0.2,3,0.2,4.3c0,0.2,0,0.3,0,0.5c0,0.5,0,1,0,1.4
					c0,0.1,0,0.3,0,0.4c0,0.3,0,0.5,0,0.8C785.1,589.8,785.1,590.5,785.1,590.5z"/>
				<path class="st16" d="M778.9,759.4c0.1,0,0.1-0.1,0.1-0.1c0,0.4-26.4,38.4-57.4,46.2c-8.9,2.2-31.8,5.3-65.5-19.4
					c2.7-13.5,5.1-27.5,7.2-42c0.5-3.3,0.9-6.6,1.3-9.8c15.1,4.5,36.2,8.4,61.1,5.7c23-2.5,41.5-9.7,54.9-16.7
					C780.1,734.8,779.5,746.9,778.9,759.4z"/>
				<linearGradient id="SVGID_10_" gradientUnits="userSpaceOnUse" x1="673.0923" y1="641.8731" x2="785.0676" y2="641.8731">
					<stop  offset="1.159261e-03" style="stop-color:#FFFFFF"/>
					<stop  offset="1" style="stop-color:#002544"/>
				</linearGradient>
				<path class="st28" d="M785.1,590.5c-0.9,31-2,75.1-4.3,129.4c-34.7,2.1-51,5.1-59.2,7.8c-1.2,0.4-4.8,1.6-9.7,1.9
					c-11.9,0.7-21.1-4.6-25.1-7c-5.6-3.3-10-5.9-12.3-11.3c-2.8-6.4-0.8-12.9,0-15.4c6.4-20.9,38.7-33.1,55.3-57.3
					c22.6-33.1,2.1-71.8,24.6-81.9c8.2-3.7,17.7-2.9,26.2-0.7C785.5,574.6,785.1,590.5,785.1,590.5z"/>
				<path class="st18" d="M683.4,613.9c-0.2-0.8-0.6-1.5-1-2.2c-0.8-1.5-2.9-5.2-7.2-7.6c-2.4-1.4-5.3-2-8.4-1.9
					c-9.3,0.1-21.3,6-33.4,14.5c-12.5,8.7-25,20.2-34.6,31c-2.9,3.2-6,6.7-9.1,10.4c-2.8,3.3-5.6,6.8-8.2,10.4
					c-3.4,4.7-6.3,9.6-8.5,14.5c-2.2,4.9-3.6,10-3.7,14.9c-0.1,3.1,0.3,6.3,1.3,9.3c1.6,4.9,4.8,9.9,9.2,13.8c2.2,2,4.7,3.8,7.5,5.1
					c11,5.5,23.3,3.5,28.5,0.6c0.3-0.2,1.9-1.1,4-2.4c0,0,4.1-2.7,8.1-6.3c3.6-3.1,11.2-11.7,19.9-24.4c0.7-1,1.4-2,2.1-3.1
					c0.4-0.6,0.8-1.3,1.2-1.9l5.3-9.2c8.4-17.3,14.7-29.9,19.1-38.6c0.3-0.5,0.5-1,0.7-1.5c2.3-4.6,4.7-9.1,6.2-13.4
					C684,621.6,684.6,617.6,683.4,613.9z"/>
				<path class="st18" d="M895.6,666.2c-0.3,4.4-1,14.1-8.2,22.5c-11.2,13.1-29.3,12.3-31.5,11.9c-1.7-0.3-3.3-0.7-3.3-0.7
					c-1-0.3-1.9-0.6-2.7-1c-0.3-0.1-0.6-0.3-0.9-0.4c-3.3-1.5-6.2-3.7-9.7-7.1c-6-5.7-13.4-14.8-26.4-29.1c-0.1-0.1-0.1-0.2-0.2-0.2
					c-18.9-20.7-32.4-33.9-40.4-44.1c-7-9-9.7-15.7-7.6-23.2c0.5-1.8,1.6-6,5.2-9.1c16.8-14.6,63.3,13.7,70.5,18.1
					c2.7,1.6,3,1.9,5,3.3c0,0,2,1.5,7.3,4.9c4.6,2.9,15.1,4,24.1,6.7c0.1,0.2,0.3,0.3,0.4,0.5c0.2,0.3,0.4,0.6,0.7,0.9
					c0.1,0.1,0.1,0.2,0.2,0.2c0.3,0.4,0.6,0.8,0.8,1.1c1.7,2.4,3.6,5.2,5.6,8.5c0.1,0.1,0.2,0.3,0.3,0.4c3.5,5.8,6.3,10.6,8.3,16.2
					c0.4,1.1,0.7,2.1,1,3.3c0.3,1,0.5,2,0.7,3c0.3,1.3,0.7,3.3,0.9,5.6C895.7,660.8,895.8,663.3,895.6,666.2z"/>
				<linearGradient id="SVGID_11_" gradientUnits="userSpaceOnUse" x1="772.3128" y1="654.7769" x2="839.3414" y2="654.7769">
					<stop  offset="0" style="stop-color:#FFFFFF"/>
					<stop  offset="0.7781" style="stop-color:#87AEB4"/>
				</linearGradient>
				<path class="st29" d="M839.3,691.5c-6-5.7-13.4-14.8-26.4-29.1c-0.1-0.1-0.1-0.2-0.2-0.2c-18.9-20.7-32.4-33.9-40.4-44.1
					c21.8,10.5,66.2,36.6,67,68.7C839.4,688.4,839.4,690,839.3,691.5z"/>
				<linearGradient id="SVGID_12_" gradientUnits="userSpaceOnUse" x1="849.955" y1="675.4137" x2="895.7271" y2="675.4137">
					<stop  offset="4.787660e-03" style="stop-color:#640042;stop-opacity:0.2"/>
					<stop  offset="0.9388" style="stop-color:#002544"/>
				</linearGradient>
				<path class="st30" d="M895.6,666.2c-0.3,4.4-1,14.1-8.2,22.5c-11.2,13.1-29.3,12.3-31.5,11.9c-1.7-0.3-3.3-0.7-3.3-0.7
					c-1-0.3-1.9-0.6-2.7-1c4-23.5,29.9-41.3,43.9-49c0.3,1,0.5,2,0.7,3c0.3,1.3,0.7,3.3,0.9,5.6
					C895.7,660.8,895.8,663.3,895.6,666.2z"/>
				
					<linearGradient id="SVGID_13_" gradientUnits="userSpaceOnUse" x1="542.0266" y1="823.6426" x2="622.2092" y2="823.6426" gradientTransform="matrix(0.9404 -0.3402 0.3402 0.9404 -218.9778 117.5422)">
					<stop  offset="4.787660e-03" style="stop-color:#640042;stop-opacity:0.2"/>
					<stop  offset="0.9388" style="stop-color:#002544"/>
				</linearGradient>
				<path class="st31" d="M650,690.5c-0.7,1.1-1.4,2.1-2.1,3.1c-8.7,12.7-16.3,21.3-19.9,24.4c-4.1,3.6-8.1,6.3-8.1,6.3
					c-2,1.4-3.6,2.3-3.9,2.5c-5.2,2.9-17.5,4.9-28.5-0.6c-2.8-1.4-5.3-3.1-7.5-5.2c-4.4-4-7.6-9-9.2-13.8c-1-3.1-1.4-6.2-1.3-9.3
					c0.1-5,1.5-10,3.7-14.9c2.2-5,5.2-9.8,8.5-14.5C601.3,667.6,632.1,670.5,650,690.5z"/>
				
					<linearGradient id="SVGID_14_" gradientUnits="userSpaceOnUse" x1="576.6782" y1="772.9602" x2="631.8517" y2="772.9602" gradientTransform="matrix(0.9404 -0.3402 0.3402 0.9404 -218.9778 117.5422)">
					<stop  offset="0" style="stop-color:#FFFFFF"/>
					<stop  offset="0.7781" style="stop-color:#87AEB4"/>
				</linearGradient>
				<path class="st32" d="M633.5,616.5c0.4,3,0.8,6.6,1,10.9c1.1,23.8-30.1,29.2-44.7,30.4c3.1-3.7,6.2-7.2,9.1-10.4
					C608.5,636.7,621,625.3,633.5,616.5z"/>
			</g>
			<g id="head">
				<linearGradient id="SVGID_15_" gradientUnits="userSpaceOnUse" x1="669.3871" y1="465.6157" x2="720.5684" y2="465.6157">
					<stop  offset="0" style="stop-color:#002544"/>
					<stop  offset="0.1924" style="stop-color:#00172A"/>
					<stop  offset="0.4174" style="stop-color:#000A13"/>
					<stop  offset="0.6287" style="stop-color:#000305"/>
					<stop  offset="0.8106" style="stop-color:#000000"/>
				</linearGradient>
				<path class="st33" d="M676.6,422.6l-7.2,75.7c15,3.4,30,6.8,45,10.2c2-21.2,4.1-42.3,6.1-63.5L676.6,422.6z"/>
				<g id="neck">
					<path class="st14" d="M750.3,522.9c-6.6,11.9-37.1,12.5-44,1c-1.9-3.2-0.8-5.4,0.4-9.9c0.1-0.3,0.1-0.5,0.2-0.8
						c0.1-0.3,0.2-0.7,0.2-1c0.1-0.2,0.1-0.5,0.2-0.7c0.1-0.3,0.1-0.6,0.2-0.9c0-0.2,0.1-0.5,0.1-0.7c0.4-2.1,0.6-4.5,0.7-7.4
						c0.1-2.2-0.1-4.9-0.3-7.7c0-0.2,0-0.2,0-0.2c-0.2-4.2,12.2-6.6,19.7-11.5c13.2-8.6,12.7-25.7,15.9-25.2
						c4.7,0.7,3.9,34.1,5.5,48.8C750.5,517.7,752.2,519.3,750.3,522.9z"/>
					<path class="st34" d="M732.9,484c0,0-3.1,24.6-24.6,29.7c-0.6,0.1-1.1,0.2-1.6,0.3c0.1-0.3,0.1-0.5,0.2-0.8
						c0.1-0.3,0.2-0.7,0.2-1c0.1-0.2,0.1-0.5,0.2-0.7c0.1-0.3,0.1-0.6,0.2-0.9c0-0.2,0.1-0.5,0.1-0.7c0.6-2.9,1-5.3,0.7-7.4
						c0.1-2.2-0.1-4.9-0.3-7.7c3,0.1,5.6-0.2,7.4-0.5c2.3-0.4,5.3-0.9,8.8-2.8C728.7,489.2,731.4,486,732.9,484z"/>
				</g>
				<g id="face_1_">
					<path id="face" class="st14" d="M751.1,435.4c4.9,22.4-3.4,51.9-22.3,59.9c-1.8,0.8-6.4,2.7-12.3,2
						c-19.9-2.1-33.2-30.7-35.8-52.2c-2.4-19.4,1.9-51.1,19-56.5C717.8,382.8,745.1,408.2,751.1,435.4z"/>
					<path id="nose" class="st18" d="M704,445.6c-0.3,3-0.9,7.6-1.9,13.2c-1.2,6.8-2.2,10-0.7,11.2c0.6,0.4,2.4,1.3,8.2-2.5
						C707.7,460.1,705.9,452.9,704,445.6z"/>
					<g id="eyes">
						<circle cx="718" cy="445.7" r="2.6"/>
						<circle cx="692.4" cy="448.7" r="2.6"/>
					</g>
					<path d="M709.7,479.8c-0.3,0-0.6-0.3-0.6-0.6c0-0.3,0.3-0.6,0.6-0.6c1.3,0,4.6-0.3,7.5-2.8c3.3-2.9,3.8-6.8,3.9-8
						c0-0.3,0.3-0.6,0.7-0.6c0.3,0,0.6,0.3,0.6,0.7c-0.1,1.3-0.6,5.6-4.3,8.8C714.9,479.5,711.2,479.8,709.7,479.8
						C709.7,479.8,709.7,479.8,709.7,479.8z"/>
					<g id="brows">
						<path d="M697.4,434.6c-2.2,1.1-4.5,2.3-6.7,3.4c-2.6,1.3-5.2,2.6-7.8,4c0.7-1,2.8-3.9,6.9-5.8
							C693.1,434.5,696.1,434.5,697.4,434.6z"/>
						<path d="M712.1,433.4c2.4,0.6,4.9,1.1,7.3,1.7c2.8,0.7,5.7,1.3,8.5,2c-0.9-0.8-3.7-3.1-8.1-4
							C716.2,432.4,713.3,433,712.1,433.4z"/>
					</g>
				</g>
				<linearGradient id="SVGID_16_" gradientUnits="userSpaceOnUse" x1="664.2689" y1="448.7201" x2="789.1515" y2="448.7201">
					<stop  offset="0" style="stop-color:#002544"/>
					<stop  offset="0.1924" style="stop-color:#00172A"/>
					<stop  offset="0.4174" style="stop-color:#000A13"/>
					<stop  offset="0.6287" style="stop-color:#000305"/>
					<stop  offset="0.8106" style="stop-color:#000000"/>
				</linearGradient>
				<path class="st35" d="M717.5,381.7c-18.7-0.4-33.8,12.3-33.8,12.3c-13.4,10.7-18,24.5-19.4,29.7c4.7,1.5,11.5,3.3,19.8,4.2
					c2.3-7.9,4.5-15.7,6.8-23.6c-1.7,7.8-3.4,15.7-5.1,23.5c4.3,0.5,9.7,0.7,15.7,0.3c0.6-7.3,1.1-14.5,1.7-21.8
					c0,7.2,0,14.3,0,21.5c0.7,0,1.4,0,2,0c7-0.2,13.2-1.9,18.4-4.1c-0.6-3.2-1.5-7.1-3.1-11.3c-1.9-5-4.1-9.1-6.1-12.3
					c1.7,2.3,3.5,5.1,5.1,8.2c2.9,5.5,4.7,10.6,5.8,15c2.5-0.9,5-1.9,7.6-2.9c0.7-0.3,1.3-0.5,2-0.8c2.5,22.2,4.8,44.3,7.2,66.5
					c1,9.9,2.1,19.8,3.1,29.7c14.7-16,29.3-32.1,44-48.1C776.2,416.9,746.8,382.4,717.5,381.7z"/>
			</g>
			<g>
				<g>
					<path class="st36" d="M792.6,879.9c-2.4,3.9-14.9,0.2-21.7-1.8c-16.7-4.8-39.4-15.2-48.9-25.6c-3.2-3.5-4.9-7.1-4.3-10.4
						c0.6-3.4,3.6-6.5,7.6-8.8c1.1-0.6,2.2-1.2,3.3-1.6c1.2-0.5,2.4-0.9,3.7-1.3c5.4-1.5,11.1-1.5,14.5,0.9c3.7,2.6,3,6.7,5.7,11.6
						c0.6,1.1,1.5,2.3,2.6,3.5c5.1,5.5,9.7,4.4,17.5,8.4c11.1,5.6,19.6,16.7,20.3,22.5C793.1,878.3,793,879.2,792.6,879.9z"/>
					<path class="st36" d="M704.7,848.5c0.3,14-37.4,25.6-62,28.4c-6.9,0.8-19.5,2.3-22.6-1.2c-0.2-0.2-0.4-0.5-0.5-0.8
						c-2-5,10.4-18.1,25.3-22.8c10.8-3.4,13.5-1,19.8-5.7c1.3-1,2.4-2,3.2-3c4.4-5.1,4-10.2,9.6-12.3c4.3-1.7,9.4-0.6,13.9,1.8v0
						c3.2,1.7,6.2,4,8.3,6.5C702.2,842.1,704.7,845,704.7,848.5z"/>
					
						<linearGradient id="SVGID_17_" gradientUnits="userSpaceOnUse" x1="614.6952" y1="879.2135" x2="700.9451" y2="879.2135" gradientTransform="matrix(0.9977 -6.822722e-02 6.822722e-02 0.9977 -54.0647 26.5992)">
						<stop  offset="0" style="stop-color:#153E5C"/>
						<stop  offset="0.9956" style="stop-color:#AAC0DC"/>
					</linearGradient>
					<path class="st37" d="M704.7,848.5c0.2,14-37.4,25.6-62,28.4c-6.9,0.8-19.5,2.3-22.5-1.2c24.8-4.6,65.4-27.9,79.7-36.4
						C702.7,842.2,704.7,845.4,704.7,848.5z"/>
					
						<linearGradient id="SVGID_18_" gradientUnits="userSpaceOnUse" x1="722.4733" y1="860.8289" x2="793.0494" y2="860.8289" gradientTransform="matrix(0.9999 -1.531888e-02 1.531888e-02 0.9999 -13.4901 5.469)">
						<stop  offset="0" style="stop-color:#153E5C"/>
						<stop  offset="0.9956" style="stop-color:#AAC0DC"/>
					</linearGradient>
					<path class="st38" d="M792.6,879.9c-2.4,3.9-15,0.2-21.7-1.8c-16.7-4.8-39.4-15.2-48.9-25.6l3.3-19.1l1-5.7
						c0,0,0.7,1.5,2.3,4.1c6.1,9.6,24.7,33.9,64.3,45.6C793.1,878.3,793,879.2,792.6,879.9z"/>
					<path class="st9" d="M691.5,832.8L691.5,832.8c-0.2,0.8-0.6,1.6-1.1,2.5c-4.7,7.7-15.1,8.5-22.3,8.1c4.4-5.1,4-10.2,9.6-12.3
						C681.8,829.4,686.9,830.5,691.5,832.8z"/>
					<path class="st9" d="M752.6,842.9L752.6,842.9c-14.2,4.5-18.9-7.2-20.3-12.5c5.4-1.5,11.1-1.5,14.5,0.9
						C750.6,833.9,749.8,838.1,752.6,842.9z"/>
				</g>
				<g>
					<path class="st19" d="M744.1,830c-1.5,4.6-4.1,10.9-8.9,17.4c-2.9,4-5.9,7.1-8.6,9.4c-11.3-6.1-21.9-12.4-31.7-18.7
						c0,0,0,0-0.1,0c-42.7-27.2-72.4-55.4-92-76.7c-24.1-26.3-63-68.7-50.2-95.2c0.8-1.6,1.8-3.2,2.9-4.6c5.5-7.1,14.7-12,23.7-12.8
						c3-0.2,7.7-0.2,16.8,6.3c12.5,8.9,33,29.8,68.1,78.6c8.7,12.1,14.9,21.2,20.7,29.3c4.2,5.9,8.2,11.3,12.7,17
						c3.6,4.6,6.8,8.4,9.1,11c0,0,1.7,2,3.6,4.1C715.1,800.5,727.4,813.4,744.1,830z"/>
					<linearGradient id="SVGID_19_" gradientUnits="userSpaceOnUse" x1="550.157" y1="759.2228" x2="735.2268" y2="759.2228">
						<stop  offset="0" style="stop-color:#153E5C"/>
						<stop  offset="1" style="stop-color:#271C41"/>
					</linearGradient>
					<path class="st39" d="M735.2,847.4c-2.9,3.1-5.8,6.3-8.6,9.4c-8.5-4.9-19.4-11.2-31.7-18.7c0,0,0,0-0.1,0
						c-42.7-27.2-72.4-55.4-92-76.7c-24.1-26.3-63-68.7-50.2-95.2c0.8-1.6,1.8-3.2,2.9-4.6c11.4,19.1,24.9,39.3,41.1,59.9
						C643.5,781,694.6,821.1,735.2,847.4z"/>
					<path class="st19" d="M865.9,746.1c-65.3,47.3-152.2,103.2-172.4,116.2c-2.9-3.3-5.9-7.3-8.9-11.9c-4.2-6.7-7.1-12.9-9.1-18.3
						c32.9-25.9,57.3-49.7,73.9-67.1c3.7-3.9,7.8-8.2,12.3-13c15.8-16.5,37-37.4,67.2-58.6c22.7-15.9,38.5-23.6,52.3-18
						c1.8,0.7,3.5,1.7,5.1,2.8c7.2,4.9,12.5,13.3,13.3,21.8C901.6,719.8,879,736.6,865.9,746.1z"/>
					<linearGradient id="SVGID_20_" gradientUnits="userSpaceOnUse" x1="684.6084" y1="770.2524" x2="899.8151" y2="770.2524">
						<stop  offset="0" style="stop-color:#153E5C"/>
						<stop  offset="1" style="stop-color:#271C41"/>
					</linearGradient>
					<path class="st40" d="M865.9,746.1c-65.3,47.3-152.2,103.2-172.4,116.2c-3-4-5.9-8-8.9-11.9c37.5-28.7,76.2-59.9,115.6-94
						c30.4-26.3,59.2-52.4,86.2-78.1c7.2,4.9,12.5,13.3,13.3,21.8C901.6,719.8,879,736.6,865.9,746.1z"/>
					<linearGradient id="SVGID_21_" gradientUnits="userSpaceOnUse" x1="761.8002" y1="722.6895" x2="829.6143" y2="722.6895">
						<stop  offset="0" style="stop-color:#FFFFFF"/>
						<stop  offset="0.7781" style="stop-color:#87AEB4"/>
					</linearGradient>
					<path class="st41" d="M828.7,708.2c-5.1,21.4-31.2,37.4-66.9,43.7c15.8-16.5,37-37.4,67.2-58.6
						C830,699.2,829.7,704.1,828.7,708.2z"/>
					<linearGradient id="SVGID_22_" gradientUnits="userSpaceOnUse" x1="596.1363" y1="710.0165" x2="684.9565" y2="710.0165">
						<stop  offset="0" style="stop-color:#FFFFFF"/>
						<stop  offset="0.7781" style="stop-color:#87AEB4"/>
					</linearGradient>
					<path class="st42" d="M685,763.1c-43.3,15.1-76.6-70.8-88.8-107.9c12.5,8.9,33,29.8,68.1,78.6C673,745.9,679.2,755,685,763.1z"
						/>
				</g>
			</g>
			<g id="smartphone">
				<path class="st36" d="M730.1,609.8L730.1,609.8c0.1-0.1,0.1-0.3,0-0.5l-19.3-40.5c-0.5-1.1-2.8-2.1-5.1-2.2l-22-1.2
					c-1.5-0.1-2.6,0.3-2.9,0.9c0,0,0,0,0,0c0,0.1-1.6,2.8-1.6,2.8l2.8-0.1l17.4,29.9l4.1,7.1c0.4,0.8,2.3,1.6,4.2,1.8l19,2.4
					l1.9,2.4L730.1,609.8z"/>
				
					<linearGradient id="SVGID_23_" gradientUnits="userSpaceOnUse" x1="595.7132" y1="418.042" x2="658.1844" y2="418.042" gradientTransform="matrix(0.9197 0.3926 -0.3926 0.9197 291.833 -40.7835)">
					<stop  offset="0.4713" style="stop-color:#19233D"/>
					<stop  offset="1" style="stop-color:#271C41"/>
				</linearGradient>
				<path class="st43" d="M728.4,612.3l-19.3-40.5c-0.5-1.1-2.8-2.1-5.1-2.2l-22-1.2c-1.5-0.1-2.6,0.3-2.9,0.9c0,0,0,0,0,0
					c0,0.1-0.1,0.2-0.1,0.3c0,0,0,0,0,0c0,0.1,0.1,0.3,0.1,0.4l4.4,7.7l4.9,8.4l9.2,15.8l4.1,7.1c0.4,0.8,2.3,1.6,4.2,1.8l19.4,2.4
					c1.5,0.2,2.6,0,2.9-0.4C728.5,612.7,728.5,612.6,728.4,612.3z"/>
			</g>
			<g id="hands">
				<path class="st14" d="M784,595c-0.5,1.2-1.2,2.2-2.1,3.1c-0.2,0.2-0.5,0.5-0.8,0.7c-1.5,1.3-3.4,2.2-5.3,2.5
					c-0.4,0.1-0.7,0.1-1.1,0c-0.2,0-0.4,0-0.5-0.1c-0.1,0-0.2-0.1-0.4-0.1c-0.3-0.1-0.5-0.1-0.8-0.2c-0.1,0-0.3-0.1-0.4-0.2
					c-0.2-0.1-0.3-0.1-0.5-0.2c-0.2-0.1-0.5-0.2-0.8-0.3c-0.3-0.1-0.5-0.3-0.8-0.4c-0.3-0.1-0.6-0.3-0.9-0.5
					c-1.2-0.7-2.6-1.5-4.1-2.5c-0.4-0.2-0.7-0.5-1.1-0.7c-0.8-0.5-1.6-1-2.4-1.6c-7-4.5-8.2-5.9-8.7-7.9c-0.3-1.4-0.4-3.4-0.1-5.3
					c0-0.3,0.1-0.5,0.1-0.7c0.1-0.4,0.1-0.9,0.2-1.3c0-0.1,0-0.1,0-0.2c0.3-1.5,0.8-2.7,0.8-3.9c-0.1,0-0.1,0-0.2,0.1
					c-0.4,0.1-0.8,0.2-1.3,0.3c-0.3,0.1-0.6,0.1-0.8,0.2c-1.5,0.3-3.1,0.7-4.6,1c-5.9,1.4-11.1,2.6-12.2,2.9c-1.1,0.4-2,0.4-2.7,0.1
					c-1-0.4-2.2-1.4-2.3-2.2c0-1.1,7.8-3.6,16.3-5.8c1.8-0.5,3.6-0.9,5.4-1.3c5.3-1.2,10.4-2.1,13.2-2.4c1-0.1,2.8-0.2,4.8,0.5
					c0.6,0.2,2.2,0.8,4.2,2.7c2.2,2,8.5,12.9,9.8,19.6C784.3,592.6,784.4,594,784,595z"/>
				<path class="st14" d="M723.9,592.2c0.7,0.6,0.3,1.9,0.2,2.4c-0.1,0.3-0.3,0.7-0.6,1.1c-0.5,0.6-1.2,1.2-2.2,1.8
					c-3.8,2.3-11,4.9-18.5,7.6c-0.9,0.3-1.8,0.7-2.8,1c-2.6,1-5.2,2-7.7,3.1c-2.1,0.9-4,1.8-5.5,2.5c-1.4,0.7-2.6,1.3-3.4,1.7
					c0,0.1,0,0.3,0,0.4c-0.2-0.8-0.6-1.5-1-2.2c-0.4-0.7-1.1-2.1-2.3-3.5c-1.2-1.4-2.7-3-4.9-4.2c-2.4-1.4-5.3-2-8.4-1.9
					c0.9-2.2,1.6-3.8,2.2-4.9c0.2-0.3,0.3-0.6,0.5-0.9c0.6-1,1.1-1.8,1.1-1.8c1.8-2.8,3.4-4.8,6-8c2-2.3,4.4-5.1,7.2-8.3l0,0
					c0.6,0.9,1.4,2.3,2.4,3.9c0.7,1.2,1.1,2,1.5,2.7c0,0,0,0.1,0.1,0.1c0.2,0.5,0.5,0.8,0.6,1.1c0,0,0,0,0,0
					c0.2,0.3,0.4,0.5,0.7,0.7c0.5,0.3,1.4,0.8,3.4,0.6c1.1-0.1,2.5-0.5,4.4-1.1c1.9-0.7,6.5-2.5,14.4-8.4c0.2-0.1,0.3-0.2,0.5-0.3
					c0.7-0.5,1.5-1.1,2.3-1.6c1.9-1.3,4.1-2.5,7-3.1c1.3-0.3,3.2-0.6,3.6,0c0.4,0.7-1.3,2.7-8.3,7.9c-0.7,0.5-1.5,1.1-2.3,1.6
					c-3.4,2.5-7.9,5.5-13.7,9.3c1.1-0.2,2.8-0.5,4.7-1.2c1.1-0.4,4.8-1.7,9.8-4.9c0.2-0.1,0.4-0.2,0.6-0.4c0.9-0.6,1.6-1.1,2.3-1.6
					c1.6-1.1,2.6-1.6,3.6-1.2c0.8,0.3,1.4,1.2,1.5,2c0.1,1.8-2.7,3.3-2.9,3.6c0,0,0,0,0,0.1c0,0,0,0,0,0c0.1-0.1,0.5-0.4,1-0.6
					c0,0,0,0,0,0c0.4-0.2,0.9-0.3,1.4-0.2c0.8,0.2,1.3,0.8,1.6,1.4c0.4,1.1-0.3,2.6-1.7,3.3C722.6,591.8,723.4,591.7,723.9,592.2z"
					/>
				<linearGradient id="SVGID_24_" gradientUnits="userSpaceOnUse" x1="752.9987" y1="587.7084" x2="781.1365" y2="587.7084">
					<stop  offset="0.1545" style="stop-color:#691B26"/>
					<stop  offset="0.8731" style="stop-color:#CD907F"/>
				</linearGradient>
				<path class="st44" d="M781.1,598.8c-1.5,1.3-3.4,2.2-5.3,2.5c-0.4,0.1-0.7,0.1-1.1,0c-0.2,0-0.4,0-0.5-0.1
					c-0.1,0-0.2-0.1-0.4-0.1c-0.3-0.1-0.5-0.1-0.8-0.2c-0.1,0-0.3-0.1-0.4-0.2c-0.2-0.1-0.3-0.1-0.5-0.2c-0.2-0.1-0.5-0.2-0.8-0.3
					c-0.3-0.1-0.5-0.3-0.8-0.4c-0.3-0.1-0.6-0.3-0.9-0.5c-1.2-0.7-2.6-1.5-4.1-2.5c-0.4-0.2-0.7-0.5-1.1-0.7c-0.8-0.5-1.6-1-2.4-1.6
					c-7-4.5-8.2-5.9-8.7-7.9c-0.3-1.4-0.4-3.4-0.1-5.3c0-0.3,0.1-0.5,0.1-0.7c0.1-0.5,0.2-0.7,0.2-1.3c0-0.1,0-0.1,0-0.2
					c0.3-1.5,0.8-2.7,0.8-3.9c-0.1,0-0.1,0-0.2,0.1c0.7-0.7,1.5-1.3,2.3-1.2c3.2,0.4,2.1,10.6,7.3,17.2
					C766.2,594.6,771,598,781.1,598.8z"/>
				<linearGradient id="SVGID_25_" gradientUnits="userSpaceOnUse" x1="680.1863" y1="600.5133" x2="724.3167" y2="600.5133">
					<stop  offset="0.1545" style="stop-color:#691B26"/>
					<stop  offset="0.8731" style="stop-color:#CD907F"/>
				</linearGradient>
				<path class="st45" d="M724.1,594.6c-0.1,0.3-0.3,0.7-0.6,1.1c-0.5,0.6-1.2,1.2-2.2,1.8c-3.8,2.3-11,4.9-18.5,7.6
					c-0.9,0.3-1.8,0.7-2.8,1c-2.6,1-5.2,2-7.7,3.1c-4.1,1.7-7.2,3.4-9,4.3c0,0.1,0,0.3,0,0.4c-0.2-0.8-0.6-1.5-1-2.2
					c-0.4-0.7-1.1-2.1-2.3-3.5c11.6-5.3,31.6-15,40.7-20.8c0,0,0,0,0,0c0.4-0.2,0.9-0.3,1.4-0.2c0.8,0.2,1.3,0.8,1.6,1.4
					c0.4,1.1-0.3,2.6-1.7,3.3c0.4-0.1,1.3-0.2,1.7,0.3C724.6,592.8,724.2,594.1,724.1,594.6z"/>
				<path class="st46" d="M686.9,611.7c-1.4,0.7-2.6,1.3-3.4,1.7c0,0.1,0,0.3,0,0.4c-0.2-0.8-0.6-1.5-1-2.2
					c-0.4-0.7-1.1-2.1-2.3-3.5c-1.2-1.4-2.7-3-4.9-4.2c-2.4-1.4-5.3-2-8.4-1.9c0.9-2.2,1.6-3.8,2.2-4.9c0.2-0.3,0.3-0.6,0.5-0.9
					c6.2,1.3,15.8,4.8,17.3,14.7C686.8,611.2,686.9,611.5,686.9,611.7z"/>
				<path class="st46" d="M784,595c-0.5,1.2-1.2,2.2-2.1,3.1c-0.2,0.2-0.5,0.5-0.8,0.7c-1.5,1.3-3.4,2.2-5.3,2.5
					c-1.6,0.2-3.4-0.4-6.2-2c4.2-0.8,11.5-2.9,14.4-8.3C784.3,592.6,784.4,594,784,595z"/>
			</g>
		</g>
	</g>
</g>
</svg>
