<?xml version="1.0" encoding="utf-8"?>
<!-- Generator: Adobe Illustrator 22.1.0, SVG Export Plug-In . SVG Version: 6.00 Build 0)  -->
<svg version="1.1" xmlns="http://www.w3.org/2000/svg" xmlns:xlink="http://www.w3.org/1999/xlink" x="0px" y="0px"
	 viewBox="0 0 1031.5 990.1" style="enable-background:new 0 0 1031.5 990.1;" xml:space="preserve">
<style type="text/css">
	.st0{fill:#EBDEDE;}
	.st1{opacity:0.42;fill:#BDD3DE;}
	.st2{fill:#87AEB4;}
	.st3{fill:#FFFFFF;}
	.st4{opacity:0.12;fill:url(#SVGID_1_);}
	.st5{opacity:0.35;fill:url(#SVGID_2_);}
	.st6{fill:#BDD3DE;}
	.st7{fill:#19233D;}
	.st8{fill:none;}
	.st9{opacity:9.000000e-02;fill:url(#SVGID_3_);}
	.st10{fill:#C5856E;}
	.st11{opacity:0.25;fill:#153E5C;}
	.st12{opacity:0.35;fill:url(#SVGID_4_);}
	.st13{opacity:0.12;fill:url(#SVGID_5_);}
	.st14{opacity:0.15;fill:url(#SVGID_6_);}
	.st15{opacity:0.12;fill:url(#SVGID_7_);}
	.st16{fill:#5A142A;}
	.st17{opacity:0.2;fill:url(#SVGID_8_);}
	.st18{opacity:0.22;fill:url(#SVGID_9_);}
	.st19{opacity:0.12;fill:url(#SVGID_10_);}
	.st20{opacity:0.12;fill:url(#SVGID_11_);}
	.st21{opacity:5.000000e-02;fill:url(#SVGID_12_);}
	.st22{opacity:9.000000e-02;fill:url(#SVGID_13_);}
	.st23{fill:#E4C9C2;}
	.st24{opacity:7.000000e-02;fill:#153E5C;}
	.st25{fill:#FC860A;}
	.st26{opacity:0.2;fill:#5A142A;}
	.st27{opacity:0.12;fill:url(#SVGID_14_);}
	.st28{opacity:4.000000e-02;fill:#153E5C;}
	.st29{opacity:0.12;fill:url(#SVGID_15_);}
	.st30{opacity:0.12;fill:url(#SVGID_16_);}
	.st31{opacity:9.000000e-02;fill:url(#SVGID_17_);}
	.st32{opacity:0.12;fill:url(#SVGID_18_);}
	.st33{opacity:0.12;fill:url(#SVGID_19_);}
	.st34{opacity:0.35;fill:url(#SVGID_20_);}
	.st35{fill:url(#SVGID_21_);}
	.st36{opacity:0.19;fill:url(#SVGID_22_);}
	.st37{fill:#4D142A;}
	.st38{opacity:0.26;fill:#4D142A;}
	.st39{fill:url(#SVGID_23_);}
	.st40{fill:url(#SVGID_24_);}
	.st41{fill:#791D2C;}
	.st42{opacity:0.7;fill:#FFFFFF;}
	.st43{opacity:0.85;fill:#FFFFFF;}
	.st44{opacity:0.87;fill:#FFFFFF;}
	.st45{opacity:0.93;fill:#FFFFFF;}
	.st46{opacity:0.83;fill:#FFFFFF;}
	.st47{fill:#302C34;}
	.st48{opacity:0.35;fill:#FFFFFF;}
</style>
<g id="background">
	<g id="general">
		<g id="figure1">
			<path class="st0" d="M1023.6,99c0,0.3,0,0.7,0,1c0,0.7,0,1.3,0,2c0,0.1,0,0.1,0,0.2c0,0.8-0.1,1.6-0.1,2.4c0,0.1,0,0.2,0,0.4
				c0,0.8-0.1,1.5-0.1,2.3c-0.1,0.9-0.1,1.7-0.2,2.6c-0.1,1.3-0.2,2.6-0.3,3.8c-0.1,0.7-0.1,1.4-0.2,2c-0.3,2.7-0.6,5.2-1,7.8
				c-0.1,0.8-0.2,1.6-0.4,2.3c-0.1,0.6-0.2,1.2-0.3,1.8c-0.1,0.6-0.2,1.1-0.3,1.7c-0.5,2.8-1,5.4-1.5,7.9c-0.1,0.5-0.2,1-0.3,1.5
				c-0.1,0.5-0.2,1-0.3,1.5c-0.1,0.5-0.2,1.1-0.4,1.6c-0.1,0.5-0.2,1-0.4,1.6c-0.1,0.5-0.2,1-0.4,1.5c-0.1,0.4-0.2,0.8-0.3,1.1
				c-0.1,0.4-0.2,0.8-0.3,1.1c-0.1,0.4-0.2,0.8-0.3,1.2c-0.2,0.6-0.3,1.3-0.5,1.9c-0.1,0.3-0.2,0.7-0.3,1c-0.1,0.3-0.2,0.6-0.2,0.9
				c-0.1,0.2-0.1,0.4-0.2,0.6c-0.4,1.5-0.8,2.8-1.1,3.8c0,0.1-0.1,0.2-0.1,0.4c-0.1,0.5-0.3,0.9-0.4,1.2c-0.8,2.6-1.7,5.2-2.6,7.8
				c-0.2,0.6-0.4,1.2-0.7,1.8c-0.4,1.1-0.8,2.2-1.2,3.2c0,0,0,0,0,0c-0.4,1.1-0.8,2.1-1.3,3.2c-0.2,0.4-0.3,0.9-0.5,1.3
				c-0.3,0.8-0.6,1.6-1,2.3c-0.3,0.7-0.6,1.3-0.8,2c-0.1,0.2-0.2,0.4-0.3,0.6c0,0.1,0,0.1-0.1,0.2c-0.5,1.1-1,2.3-1.6,3.4
				c-0.3,0.6-0.5,1.1-0.8,1.7c-0.3,0.7-0.7,1.4-1,2c-0.2,0.5-0.4,0.9-0.7,1.4c-0.3,0.6-0.6,1.2-0.9,1.8c-0.6,1.1-1.2,2.2-1.8,3.3
				c-0.4,0.7-0.8,1.4-1.2,2.1c-0.3,0.5-0.5,1-0.8,1.5c-0.6,1-1.2,2-1.8,3c-0.4,0.7-0.9,1.4-1.3,2.1c-0.5,0.8-1,1.6-1.6,2.5
				c-0.4,0.6-0.7,1.1-1.1,1.7c-0.5,0.7-0.9,1.4-1.4,2c-0.5,0.7-0.9,1.3-1.4,2c-0.2,0.3-0.5,0.7-0.7,1c-0.2,0.3-0.5,0.6-0.7,1
				c-0.5,0.7-1,1.3-1.4,2c0,0,0,0.1,0,0.1c-0.3,0.4-0.6,0.8-0.8,1.1c-0.1,0.1-0.2,0.2-0.3,0.3c-0.4,0.5-0.8,1-1.2,1.5
				c-0.4,0.5-0.8,1-1.2,1.5c-0.8,1-1.6,2-2.5,3c0,0,0,0.1-0.1,0.1c-0.8,1-1.6,2-2.5,2.9c-0.5,0.6-1,1.2-1.6,1.8
				c-1.4,1.5-2.7,3-4.1,4.5c-0.7,0.7-1.4,1.5-2.1,2.2c-1.8,1.9-3.7,3.7-5.6,5.5c-0.5,0.5-1.1,1-1.6,1.5c-0.2,0.2-0.4,0.4-0.6,0.6
				c-0.9,0.8-1.7,1.5-2.6,2.3c-0.4,0.4-0.9,0.8-1.3,1.1c-0.5,0.4-0.9,0.8-1.4,1.2c-1,0.8-2,1.7-3,2.5s-2,1.6-3,2.4
				c-0.7,0.5-1.3,1.1-2,1.6c-0.7,0.5-1.4,1-2.1,1.6c-0.9,0.7-1.8,1.4-2.8,2.1c-1,0.7-1.9,1.4-2.9,2.1c-0.9,0.6-1.8,1.3-2.8,1.9
				c-1.1,0.7-2.1,1.5-3.2,2.2c-0.4,0.2-0.8,0.5-1.1,0.7c-0.2,0.1-0.4,0.2-0.5,0.4c-1.1,0.7-2.2,1.4-3.4,2.2
				c-0.9,0.6-1.9,1.2-2.8,1.8c-1.5,0.9-3,1.9-4.6,2.8c-0.8,0.5-1.7,1-2.5,1.5c-0.6,0.4-1.3,0.8-2,1.1c-3.7,2.1-7.5,4.2-11.4,6.3
				c-1.1,0.5-2.1,1.1-3.2,1.7c-1.3,0.7-2.6,1.3-3.8,2c-0.8,0.4-1.7,0.8-2.5,1.3c0,0,0,0,0,0c-1.4,0.7-2.8,1.4-4.2,2.1
				c-2.8,1.4-5.7,2.7-8.6,4.1c-1.4,0.7-2.9,1.3-4.4,2c-1,0.4-2,0.9-3,1.3c-1,0.5-2,0.9-3,1.3c-1,0.4-1.9,0.9-2.9,1.3
				c-2.7,1.2-5.4,2.4-8.2,3.5c-0.7,0.3-1.3,0.6-2,0.8c-0.6,0.3-1.3,0.5-1.9,0.8c-1.8,0.8-3.7,1.5-5.5,2.3c-0.5,0.2-0.9,0.4-1.4,0.6
				c-1.5,0.6-3,1.2-4.5,1.8c-1.3,0.5-2.5,1-3.8,1.5c-2.9,1.2-5.8,2.3-8.8,3.5c-0.9,0.4-1.8,0.7-2.7,1.1c-2.7,1.1-5.5,2.2-8.3,3.2
				c-2.7,1-5.3,2.1-8,3.1c-3.8,1.5-7.6,3-11.4,4.5c-13.7,5.3-27.7,10.7-42,16.5c-1.7,0.7-3.4,1.4-5.1,2.1c-2.4,1-4.8,1.9-7.1,2.9
				c-2,0.8-3.9,1.6-5.9,2.5c-1.1,0.5-2.2,0.9-3.3,1.4c-1.7,0.7-3.5,1.5-5.2,2.2c-2.1,0.9-4.3,1.9-6.5,2.8c-4.2,1.8-8.4,3.7-12.6,5.6
				c-0.2,0.1-0.3,0.1-0.4,0.2c-4.5,2-9,4.1-13.5,6.2c-36.4,17.2-73.8,37.8-111.2,64.6c-1.3,0.9-2.6,1.8-3.9,2.8c0,0,0,0,0,0
				c-4.7,3.4-9.4,7-14.1,10.6c-0.3,0.2-0.6,0.5-0.9,0.7c-10.4,8-20.8,16.6-31.1,25.8c-1.2,1.1-2.5,2.2-3.7,3.3
				c-1,0.9-1.9,1.7-2.8,2.6c-0.1,0.1-0.1,0.1-0.2,0.2c-0.7,0.6-1.4,1.3-2.1,1.9c-1.8,1.7-3.6,3.3-5.3,5c-0.8,0.8-1.7,1.6-2.5,2.4
				c-0.8,0.8-1.7,1.6-2.5,2.4c-0.7,0.6-1.4,1.3-2,2c-6.7,6.5-13.2,13.1-19.4,19.8c-0.7,0.7-1.4,1.5-2,2.2c-1.6,1.7-3.2,3.4-4.7,5.2
				c-0.7,0.8-1.4,1.5-2,2.2c-0.1,0.2-0.3,0.3-0.4,0.5c-1.3,1.5-2.6,2.9-3.9,4.4c-4.4,5-8.8,10.1-13,15.1c-0.7,0.8-1.4,1.7-2.1,2.5
				c-0.7,0.8-1.4,1.7-2.1,2.5c-1,1.2-1.9,2.4-2.9,3.6c-5.2,6.5-10.3,13.1-15.2,19.7c-0.9,1.2-1.7,2.3-2.6,3.5
				c-2.7,3.7-5.3,7.3-7.9,11c-0.6,0.8-1.2,1.7-1.8,2.5c-3.3,4.7-6.5,9.4-9.7,14.2c-0.8,1.1-1.5,2.3-2.3,3.4
				c-0.4,0.6-0.8,1.2-1.2,1.8c-0.1,0.1-0.1,0.1-0.1,0.2c-1.5,2.3-3,4.6-4.5,6.9c-0.6,0.9-1.2,1.8-1.7,2.7c-3,4.7-5.9,9.4-8.7,14
				c-0.5,0.8-1,1.7-1.5,2.5c-1,1.7-2,3.4-3,5.1c-0.9,1.5-1.7,3-2.6,4.4c-1.2,2.1-2.5,4.3-3.7,6.4c-0.9,1.5-1.7,3-2.5,4.5
				c-2.9,5.1-5.7,10.2-8.4,15.2c-0.9,1.7-1.8,3.4-2.7,5.1c-0.8,1.4-1.5,2.8-2.2,4.2c-1,2-2.1,4-3.1,5.9c-2.4,4.7-4.8,9.3-7.2,13.9
				c-17.2,33.8-32.4,66.7-47.2,97.5c-0.5,0.9-0.9,1.8-1.3,2.8c-0.7,1.5-1.5,3-2.2,4.5c-0.8,1.6-1.5,3.2-2.3,4.8
				c-1.1,2.3-2.2,4.6-3.3,6.8c-6.2,12.5-12.3,24.5-18.6,36.1c-0.7,1.3-1.4,2.5-2.1,3.8c-1.6,2.9-3.2,5.7-4.8,8.5
				c-0.7,1.2-1.3,2.3-2,3.5c-0.3,0.6-0.7,1.1-1,1.7c-0.4,0.7-0.8,1.3-1.2,2c-3.1,5.3-6.3,10.4-9.5,15.4c-0.8,1.2-1.5,2.3-2.3,3.5
				c-1.4,2.1-2.8,4.2-4.3,6.3c-0.5,0.7-1,1.5-1.5,2.2c-1.9,2.7-3.8,5.4-5.8,8c-0.6,0.8-1.3,1.7-1.9,2.5c-2.1,2.7-4.2,5.4-6.3,8
				c-0.4,0.5-0.8,1-1.3,1.5c-1.5,1.9-3.1,3.7-4.7,5.5c-2.9,3.3-5.8,6.4-8.8,9.5c-26.2,26.8-57.7,46-99,54.3
				c-55.4,11.2-81.8-6.4-87-10C28,953.8,19.2,918.6,19.6,872.8c0-0.6,0-1.3,0-1.9c0-0.6,0-1.2,0-1.8c0-0.9,0-1.9,0.1-2.8
				c0.1-2.3,0.1-4.6,0.2-7c0-1.1,0.1-2.2,0.2-3.3c0.1-1.7,0.2-3.5,0.3-5.3c0-0.9,0.1-1.8,0.2-2.6c0.3-4.7,0.7-9.6,1.1-14.5
				c0.1-1,0.2-2,0.3-3c0.2-2.3,0.5-4.7,0.7-7.1c0.2-1.5,0.3-3,0.5-4.5c0.9-8.3,1.9-16.8,3.1-25.5c0.1-1.1,0.3-2.1,0.4-3.2
				c2.4-18.2,5.3-37.3,8.2-57c0.3-2.3,0.7-4.6,1-6.9c0.2-1.2,0.4-2.4,0.5-3.6c0.2-1.2,0.3-2.3,0.5-3.5c0.2-1.2,0.4-2.4,0.5-3.5
				c0.3-2.1,0.6-4.2,0.9-6.2c1.9-13.4,3.9-27,5.7-40.8v0c0.2-1.5,0.4-2.9,0.6-4.4v0c0.5-3.6,0.9-7.1,1.3-10.7
				c0.2-1.8,0.4-3.6,0.7-5.4c0.1-0.8,0.2-1.7,0.3-2.5c0.1-0.7,0.2-1.4,0.2-2.1c0.1-1,0.2-2,0.3-3.1c0.4-3.9,0.9-7.7,1.3-11.6
				c0.1-1.1,0.2-2.2,0.3-3.4c0.2-1.5,0.3-3,0.5-4.5c4.2-42.5,5.9-81.2,5.7-116.3c0-1.3,0-2.5,0-3.8c-0.3-32.3-2.2-61.7-5.1-88.6
				c0-0.5-0.1-1-0.2-1.6c-0.2-1.7-0.4-3.3-0.6-5c-0.5-4.1-1-8.1-1.5-12c-2.5-18.8-5.4-36.3-8.6-52.7c-0.6-3.3-1.3-6.7-2-9.9
				c-0.6-2.8-1.1-5.5-1.7-8.2C10.3,205.1-24.6,148,25.5,82.1c2.6-3.4,5.2-6.6,8-9.7c0.7-0.8,1.5-1.6,2.2-2.4
				c38.3-41,89.8-47.7,159.8-43.7c0.4,0,0.8,0,1.1,0.1c5.6,0.3,11.3,0.7,17.1,1.2c109.2,8.5,260.8,36.7,473,6.9
				c4.4-0.6,8.9-1.3,13.4-2c2-0.3,3.9-0.6,5.9-0.9c24.1-3.7,48.9-8.2,74.5-13.5c0.8-0.2,1.7-0.4,2.5-0.5c0.3-0.1,0.5-0.1,0.8-0.2
				c0.6-0.1,1.2-0.2,1.7-0.4c1.2-0.2,2.3-0.5,3.5-0.8c0.6-0.1,1.2-0.3,1.8-0.4c1.1-0.2,2.3-0.5,3.4-0.7c1.9-0.4,3.9-0.8,5.9-1.2
				c1.2-0.2,2.3-0.5,3.5-0.7c1.3-0.3,2.7-0.5,4-0.8c0.6-0.1,1.3-0.3,1.9-0.4c1.3-0.3,2.6-0.5,3.9-0.8c1.7-0.3,3.4-0.7,5.2-1
				c0.3-0.1,0.6-0.1,1-0.2c1-0.2,2-0.4,3-0.6c0.1,0,0.3-0.1,0.4-0.1c0.9-0.2,1.9-0.3,2.8-0.5c0.9-0.2,1.9-0.3,2.8-0.5
				c1.6-0.3,3.2-0.6,4.9-0.9c2.4-0.4,4.8-0.8,7.2-1.2c1.2-0.2,2.4-0.4,3.6-0.6c1.2-0.2,2.4-0.4,3.7-0.6c0.5-0.1,1-0.1,1.4-0.2
				c0.8-0.1,1.5-0.2,2.2-0.3c1.2-0.2,2.5-0.3,3.7-0.5c0.6-0.1,1.2-0.2,1.9-0.3c0.6-0.1,1.2-0.2,1.9-0.2c1.1-0.1,2.1-0.3,3.2-0.4
				c1.2-0.1,2.4-0.3,3.6-0.4c1-0.1,2-0.2,3-0.3c1-0.1,2-0.2,3-0.3c1-0.1,2-0.2,3-0.3c0.2,0,0.4,0,0.6-0.1c1.9-0.2,3.9-0.4,5.8-0.5
				c1.4-0.1,2.8-0.2,4.1-0.3c0.3,0,0.5,0,0.8-0.1c1.3-0.1,2.6-0.2,3.8-0.2c0.2,0,0.4,0,0.5,0c1.1-0.1,2.2-0.1,3.3-0.2
				c0.9,0,1.9-0.1,2.8-0.1c2.8-0.1,5.7-0.2,8.5-0.2c3.6,0,7.2,0,10.7,0.1c2.6,0.1,5.2,0.2,7.8,0.4c0.2,0,0.3,0,0.5,0
				c0.9,0.1,1.8,0.1,2.6,0.2c1,0.1,2.1,0.2,3.1,0.3c1,0.1,2.1,0.2,3.1,0.3c1.2,0.1,2.3,0.3,3.5,0.4c1.2,0.2,2.3,0.3,3.4,0.5
				c1.1,0.2,2.3,0.3,3.4,0.5c1.1,0.2,2.2,0.4,3.4,0.6c2.2,0.4,4.4,0.9,6.6,1.4c2.2,0.5,4.3,1.1,6.4,1.7c0.5,0.1,1,0.3,1.6,0.5
				c1,0.3,2.1,0.7,3.1,1c0.5,0.2,1,0.3,1.5,0.5c1,0.4,2,0.7,3,1.1s2,0.8,3,1.2c1,0.4,2,0.8,2.9,1.3c1,0.4,1.9,0.9,2.8,1.3
				c0.8,0.4,1.6,0.8,2.4,1.2c0.3,0.2,0.7,0.4,1,0.6c0.6,0.3,1.2,0.7,1.9,1.1c0.1,0,0.1,0.1,0.2,0.1c0.3,0.2,0.5,0.3,0.8,0.5
				c0.6,0.4,1.2,0.8,1.9,1.1c0.9,0.5,1.7,1.1,2.6,1.7c1.5,1.1,3,2.2,4.5,3.3c0.5,0.4,1.1,0.9,1.6,1.3c0.9,0.8,1.8,1.5,2.6,2.3
				c0.3,0.2,0.5,0.5,0.8,0.7c0.4,0.4,0.8,0.7,1.1,1.1c0.2,0.2,0.4,0.4,0.6,0.6c0.3,0.4,0.7,0.7,1,1.1c0.3,0.3,0.5,0.6,0.8,0.9
				c0.4,0.5,0.9,0.9,1.3,1.4c0.3,0.3,0.5,0.6,0.8,0.9c0.3,0.3,0.5,0.6,0.8,0.9C1019.7,52.8,1024,76.9,1023.6,99z"/>
		</g>
		<path id="figure2" class="st0" d="M1008.5,945.1c-22,25.9-51.3,37.4-127,42.1c-35.3,2.2-80.6,2.9-140,2.9
			c-323.1,0-376.6-20.7-391.9-38.1c-1.5-1.7-2.5-3.4-4.1-5.9c-13.1-20.5-32.8-71.1,92-287c42.3-73.3,63.5-109.9,93-141
			c7.8-8.3,28.4-29.4,67.4-56.5c26.1-18.1,60.3-39,104.6-60.5c14.9-7.2,29.1-14.2,42.7-20.7c115.6-55.6,184.5-83.6,232.3-54.3
			c21.7,13.3,29.8,32.4,33.8,78.1c3.4,38.9,3.8,97.2,6.9,187.7c1.2,34.7,2.9,74.2,5.2,119.2c2.3,44.1,4.8,79,6.3,107
			c0,0.8,0.1,1.6,0.1,2.4C1033.7,890,1031.8,917.8,1008.5,945.1z"/>
		<g id="dotted_lines">
			
				<rect x="177.5" y="167.1" transform="matrix(0.9767 0.2147 -0.2147 0.9767 41.6886 -38.5973)" class="st1" width="42" height="11"/>
			
				<rect x="247.5" y="183.1" transform="matrix(0.9615 0.2748 -0.2748 0.9615 62.1631 -66.5257)" class="st1" width="42" height="11"/>
			
				<rect x="314.5" y="198.1" transform="matrix(0.9953 9.669220e-02 -9.669220e-02 0.9953 21.2577 -31.4868)" class="st1" width="42" height="11"/>
			
				<rect x="163.5" y="304.1" transform="matrix(-0.4581 -0.8889 0.8889 -0.4581 -6.1569 615.4289)" class="st1" width="42" height="11"/>
			
				<rect x="192.5" y="360.1" transform="matrix(-0.4581 -0.8889 0.8889 -0.4581 -13.6485 722.8621)" class="st1" width="42" height="11"/>
			
				<rect x="277.5" y="432.1" transform="matrix(0.9808 0.1951 -0.1951 0.9808 91.1045 -49.8269)" class="st1" width="42" height="11"/>
			
				<rect x="339.5" y="441.1" transform="matrix(0.9968 8.002768e-02 -8.002768e-02 0.9968 36.8959 -27.418)" class="st1" width="42" height="11"/>
			<rect x="405.5" y="441.1" class="st1" width="42" height="11"/>
			
				<rect x="391.5" y="200.1" transform="matrix(0.9971 -7.662661e-02 7.662661e-02 0.9971 -14.5409 32.2133)" class="st1" width="42" height="11"/>
			
				<rect x="467.5" y="194.1" transform="matrix(0.9922 -0.1244 0.1244 0.9922 -21.0394 62.3386)" class="st1" width="42" height="11"/>
			<rect x="830.5" y="539.1" transform="matrix(0.866 -0.5 0.5 0.866 -158.2155 498.714)" class="st1" width="42" height="11"/>
			
				<rect x="898.5" y="919.1" transform="matrix(0.8415 -0.5403 0.5403 0.8415 -353.7931 643.3972)" class="st1" width="42" height="11"/>
			
				<rect x="948.5" y="880.1" transform="matrix(0.7317 -0.6817 0.6817 0.7317 -343.5235 898.5378)" class="st1" width="42" height="11"/>
			
				<rect x="985.5" y="829.1" transform="matrix(0.4492 -0.8934 0.8934 0.4492 -191.284 1358.8965)" class="st1" width="42" height="11"/>
			
				<rect x="895.5" y="511.1" transform="matrix(0.9693 -0.2459 0.2459 0.9693 -98.8814 241.2039)" class="st1" width="42" height="11"/>
			
				<rect x="958.5" y="495.1" transform="matrix(0.9788 -0.205 0.205 0.9788 -81.8052 211.3816)" class="st1" width="42" height="11"/>
			
				<rect x="543.5" y="183.1" transform="matrix(0.9724 -0.2333 0.2333 0.9724 -28.4231 136.931)" class="st1" width="42" height="11"/>
			<rect x="615.5" y="157.1" transform="matrix(0.866 -0.5 0.5 0.866 3.98 340.0357)" class="st1" width="42" height="11"/>
			<rect x="680.5" y="119.1" transform="matrix(0.866 -0.5 0.5 0.866 31.6883 367.4447)" class="st1" width="42" height="11"/>
		</g>
		<g id="map">
			<path class="st1" d="M1023.6,99c0,0.3,0,0.7,0,1c0,0.7,0,1.3,0,2c0,0.1,0,0.1,0,0.2c0,0.8-0.1,1.6-0.1,2.4c0,0.1,0,0.2,0,0.4
				c0,0.8-0.1,1.5-0.1,2.3c-0.1,0.9-0.1,1.7-0.2,2.6c-0.1,1.3-0.2,2.6-0.3,3.8c-0.1,0.7-0.1,1.4-0.2,2c-0.3,2.7-0.6,5.2-1,7.8
				c-0.1,0.8-0.2,1.6-0.4,2.3c-0.1,0.6-0.2,1.2-0.3,1.8c-0.1,0.6-0.2,1.1-0.3,1.7c-0.5,2.8-1,5.4-1.5,7.9c-0.1,0.5-0.2,1-0.3,1.5
				c-0.1,0.5-0.2,1-0.3,1.5c-0.1,0.5-0.2,1.1-0.4,1.6c-0.1,0.5-0.2,1-0.4,1.6c-0.1,0.5-0.2,1-0.4,1.5c-0.1,0.4-0.2,0.8-0.3,1.1
				c-0.1,0.4-0.2,0.8-0.3,1.1c-0.1,0.4-0.2,0.8-0.3,1.2c-0.2,0.6-0.3,1.3-0.5,1.9c-0.1,0.3-0.2,0.7-0.3,1c-0.1,0.3-0.2,0.6-0.2,0.9
				c-0.1,0.2-0.1,0.4-0.2,0.6c-0.4,1.5-0.8,2.8-1.1,3.8c0,0.1-0.1,0.2-0.1,0.4c-0.1,0.5-0.3,0.9-0.4,1.2c-0.8,2.6-1.7,5.2-2.6,7.8
				c-0.2,0.6-0.4,1.2-0.7,1.8c-0.4,1.1-0.8,2.2-1.2,3.2c0,0,0,0,0,0c-0.4,1.1-0.8,2.1-1.3,3.2c-0.2,0.4-0.3,0.9-0.5,1.3
				c-0.3,0.8-0.6,1.6-1,2.3c-0.3,0.7-0.6,1.3-0.8,2c-0.1,0.2-0.2,0.4-0.3,0.6c0,0.1,0,0.1-0.1,0.2c-0.5,1.1-1,2.3-1.6,3.4
				c-0.3,0.6-0.5,1.1-0.8,1.7c-0.3,0.7-0.7,1.4-1,2c-0.2,0.5-0.4,0.9-0.7,1.4c-0.3,0.6-0.6,1.2-0.9,1.8c-0.6,1.1-1.2,2.2-1.8,3.3
				c-0.4,0.7-0.8,1.4-1.2,2.1c-0.3,0.5-0.5,1-0.8,1.5c-0.6,1-1.2,2-1.8,3c-0.4,0.7-0.9,1.4-1.3,2.1c-0.5,0.8-1,1.6-1.6,2.5
				c-0.4,0.6-0.7,1.1-1.1,1.7c-0.5,0.7-0.9,1.4-1.4,2c-0.5,0.7-0.9,1.3-1.4,2c-0.2,0.3-0.5,0.7-0.7,1c-0.2,0.3-0.5,0.6-0.7,1
				c-0.5,0.7-1,1.3-1.4,2c0,0,0,0.1,0,0.1c-0.3,0.4-0.6,0.8-0.8,1.1c-0.1,0.1-0.2,0.2-0.3,0.3c-0.4,0.5-0.8,1-1.2,1.5
				c-0.4,0.5-0.8,1-1.2,1.5c-0.8,1-1.6,2-2.5,3c0,0,0,0.1-0.1,0.1c-0.8,1-1.6,2-2.5,2.9c-0.5,0.6-1,1.2-1.6,1.8
				c-1.4,1.5-2.7,3-4.1,4.5c-0.7,0.7-1.4,1.5-2.1,2.2c-1.8,1.9-3.7,3.7-5.6,5.5c-0.5,0.5-1.1,1-1.6,1.5c-0.2,0.2-0.4,0.4-0.6,0.6
				c-0.9,0.8-1.7,1.5-2.6,2.3c-0.4,0.4-0.9,0.8-1.3,1.1c-0.5,0.4-0.9,0.8-1.4,1.2c-1,0.8-2,1.7-3,2.5s-2,1.6-3,2.4
				c-0.7,0.5-1.3,1.1-2,1.6c-0.7,0.5-1.4,1-2.1,1.6c-0.9,0.7-1.8,1.4-2.8,2.1c-1,0.7-1.9,1.4-2.9,2.1c-0.9,0.6-1.8,1.3-2.8,1.9
				c-1.1,0.7-2.1,1.5-3.2,2.2c-0.4,0.2-0.8,0.5-1.1,0.7c-0.2,0.1-0.4,0.2-0.5,0.4c-1.1,0.7-2.2,1.4-3.4,2.2
				c-0.9,0.6-1.9,1.2-2.8,1.8c-1.5,0.9-3,1.9-4.6,2.8c-0.8,0.5-1.7,1-2.5,1.5c-0.6,0.4-1.3,0.8-2,1.1c-3.7,2.1-7.5,4.2-11.4,6.3
				c-1.1,0.5-2.1,1.1-3.2,1.7c-1.3,0.7-2.6,1.3-3.8,2c-0.8,0.4-1.7,0.8-2.5,1.3c0,0,0,0,0,0c-1.4,0.7-2.8,1.4-4.2,2.1
				c-2.8,1.4-5.7,2.7-8.6,4.1c-1.4,0.7-2.9,1.3-4.4,2c-1,0.4-2,0.9-3,1.3c-1,0.5-2,0.9-3,1.3c-1,0.4-1.9,0.9-2.9,1.3
				c-2.7,1.2-5.4,2.4-8.2,3.5c-0.7,0.3-1.3,0.6-2,0.8c-0.6,0.3-1.3,0.5-1.9,0.8c-1.8,0.8-3.7,1.5-5.5,2.3c-0.5,0.2-0.9,0.4-1.4,0.6
				c-1.5,0.6-3,1.2-4.5,1.8c-1.3,0.5-2.5,1-3.8,1.5c-2.9,1.2-5.8,2.3-8.8,3.5c-0.9,0.4-1.8,0.7-2.7,1.1c-2.7,1.1-5.5,2.2-8.3,3.2
				c-2.7,1-5.3,2.1-8,3.1c-3.8,1.5-7.6,3-11.4,4.5c-13.7,5.3-27.7,10.7-42,16.5c-1.7,0.7-3.4,1.4-5.1,2.1c-2.4,1-4.8,1.9-7.1,2.9
				c-2,0.8-3.9,1.6-5.9,2.5c-1.1,0.5-2.2,0.9-3.3,1.4c-1.7,0.7-3.5,1.5-5.2,2.2c-2.1,0.9-4.3,1.9-6.5,2.8c-4.2,1.8-8.4,3.7-12.6,5.6
				c-3.1-3.8-6.7-8.2-10.8-13.2c-14.6-17.7-30.2,1-40.5,0c-10.4-1-4.2-14.5,3.1-34.3c7.3-19.8,9.3-14.6,13.5-34.3
				c4.2-19.8-18.7-19.8-27-17.7c-8.3,2.1-26-9.4-33.3-25c-2.3-4.9-1.9-8.5,0.2-11.5c4-5.8,14.5-9,24.8-13.5c1.4-0.6,2.8-1.3,4.1-2
				c5.3-2.6,8.7-6,10.6-9.8c4.6-9.1-3.6-17.8-4.1-24.8c-0.1-1.3,0.1-2.6,0.7-3.8c3.7-7.1,17-2.8,35.3-6.2c7.8-1.5,16.8-4.5,24.9-8.7
				c4.7-2.5,9.2-5.4,13-8.7c0.8-0.7,1.6-1.4,2.3-2.2c3.4-3.5,6.1-7.3,7.6-11.6c5.6-15.4,5.1-44.2-16.6-49.9
				c-4.6-1.2-11.5-25.3-17.5-49.9c24.1-3.7,48.9-8.2,74.5-13.5c0.8-0.2,1.7-0.4,2.5-0.5c0.3-0.1,0.5-0.1,0.8-0.2
				c0.6-0.1,1.2-0.2,1.7-0.4c1.2-0.2,2.3-0.5,3.5-0.8c0.6-0.1,1.2-0.3,1.8-0.4c1.1-0.2,2.3-0.5,3.4-0.7c1.9-0.4,3.9-0.8,5.9-1.2
				c1.2-0.2,2.3-0.5,3.5-0.7c1.3-0.3,2.7-0.5,4-0.8c0.6-0.1,1.3-0.3,1.9-0.4c1.3-0.3,2.6-0.5,3.9-0.8c1.7-0.3,3.4-0.7,5.2-1
				c0.3-0.1,0.6-0.1,1-0.2c1-0.2,2-0.4,3-0.6c0.1,0,0.3-0.1,0.4-0.1c0.9-0.2,1.9-0.3,2.8-0.5c0.9-0.2,1.9-0.3,2.8-0.5
				c1.6-0.3,3.2-0.6,4.9-0.9c2.4-0.4,4.8-0.8,7.2-1.2c1.2-0.2,2.4-0.4,3.6-0.6c1.2-0.2,2.4-0.4,3.7-0.6c0.5-0.1,1-0.1,1.4-0.2
				c0.8-0.1,1.5-0.2,2.2-0.3c1.2-0.2,2.5-0.3,3.7-0.5c0.6-0.1,1.2-0.2,1.9-0.3c0.6-0.1,1.2-0.2,1.9-0.2c1.1-0.1,2.1-0.3,3.2-0.4
				c1.2-0.1,2.4-0.3,3.6-0.4c1-0.1,2-0.2,3-0.3c1-0.1,2-0.2,3-0.3c1-0.1,2-0.2,3-0.3c0.2,0,0.4,0,0.6-0.1c1.9-0.2,3.9-0.4,5.8-0.5
				c1.4-0.1,2.8-0.2,4.1-0.3c0.3,0,0.5,0,0.8-0.1c1.3-0.1,2.6-0.2,3.8-0.2c0.2,0,0.4,0,0.5,0c1.1-0.1,2.2-0.1,3.3-0.2
				c0.9,0,1.9-0.1,2.8-0.1c2.8-0.1,5.7-0.2,8.5-0.2c3.6,0,7.2,0,10.7,0.1c2.6,0.1,5.2,0.2,7.8,0.4c0.2,0,0.3,0,0.5,0
				c0.9,0.1,1.8,0.1,2.6,0.2c1,0.1,2.1,0.2,3.1,0.3c1,0.1,2.1,0.2,3.1,0.3c1.2,0.1,2.3,0.3,3.5,0.4c1.2,0.2,2.3,0.3,3.4,0.5
				c1.1,0.2,2.3,0.3,3.4,0.5c1.1,0.2,2.2,0.4,3.4,0.6c2.2,0.4,4.4,0.9,6.6,1.4c2.2,0.5,4.3,1.1,6.4,1.7c0.5,0.1,1,0.3,1.6,0.5
				c1,0.3,2.1,0.7,3.1,1c0.5,0.2,1,0.3,1.5,0.5c1,0.4,2,0.7,3,1.1s2,0.8,3,1.2c1,0.4,2,0.8,2.9,1.3c1,0.4,1.9,0.9,2.8,1.3
				c0.8,0.4,1.6,0.8,2.4,1.2c0.3,0.2,0.7,0.4,1,0.6c0.6,0.3,1.2,0.7,1.9,1.1c0.1,0,0.1,0.1,0.2,0.1c0.3,0.2,0.5,0.3,0.8,0.5
				c0.6,0.4,1.2,0.8,1.9,1.1c0.9,0.5,1.7,1.1,2.6,1.7c1.5,1.1,3,2.2,4.5,3.3c0.5,0.4,1.1,0.9,1.6,1.3c0.9,0.8,1.8,1.5,2.6,2.3
				c0.3,0.2,0.5,0.5,0.8,0.7c0.4,0.4,0.8,0.7,1.1,1.1c0.2,0.2,0.4,0.4,0.6,0.6c0.3,0.4,0.7,0.7,1,1.1c0.3,0.3,0.5,0.6,0.8,0.9
				c0.4,0.5,0.9,0.9,1.3,1.4c0.3,0.3,0.5,0.6,0.8,0.9c0.3,0.3,0.5,0.6,0.8,0.9C1019.7,52.8,1024,76.9,1023.6,99z"/>
			<path class="st1" d="M99.1,308.8c-20.6-6.5-28.2,5.4-29.2,27.1c-0.5,10.6-15.5,9.3-30.7,5.2c-0.6-3.3-1.3-6.7-2-9.9
				c-0.6-2.8-1.1-5.5-1.7-8.2C10.3,205.1-24.6,148,25.5,82.1c2.6-3.4,5.2-6.6,8-9.7c0.7-0.8,1.5-1.6,2.2-2.4
				c38.3-41,89.8-47.7,159.8-43.7c0.4,0,0.8,0,1.1,0.1c-11,20.4-21.7,43.8-15.2,47.4c9.4,5.1,4.7,34.3-4.1,60.8
				c-0.4,1.2-0.8,2.4-1.2,3.5c-2.1,5.9-4.3,11.7-6.6,16.9c-13,29.2,19.5,36.8,33.6,66.1C217.2,250.3,119.7,315.3,99.1,308.8z"/>
			<path class="st1" d="M592.6,404.9c-1.1,6.2-2.2,14.6-2.2,24.9c-1.3,0.9-2.6,1.8-3.9,2.8c0,0,0,0,0,0c-4.7,3.4-9.4,7-14.1,10.6
				c-0.3,0.2-0.6,0.5-0.9,0.7c-10.4,8-20.8,16.6-31.1,25.8c-1.2,1.1-2.5,2.2-3.7,3.3c-1,0.9-1.9,1.7-2.8,2.6
				c-0.1,0.1-0.1,0.1-0.2,0.2c-0.7,0.6-1.4,1.3-2.1,1.9c-1.8,1.7-3.6,3.3-5.3,5c-0.8,0.8-1.7,1.6-2.5,2.4c-0.8,0.8-1.7,1.6-2.5,2.4
				c-0.7,0.6-1.4,1.3-2,2c-6.7,6.5-13.2,13.1-19.4,19.8c-0.7,0.7-1.4,1.5-2,2.2c-1.6,1.7-3.2,3.4-4.7,5.2c-0.7,0.8-1.4,1.5-2,2.2
				c-0.1,0.2-0.3,0.3-0.4,0.5c-1.3,1.5-2.6,2.9-3.9,4.4c-4.4,5-8.8,10.1-13,15.1c-0.7,0.8-1.4,1.7-2.1,2.5c-0.7,0.8-1.4,1.7-2.1,2.5
				c-1,1.2-1.9,2.4-2.9,3.6c-5.2,6.5-10.3,13.1-15.2,19.7c-0.9,1.2-1.7,2.3-2.6,3.5c-2.7,3.7-5.3,7.3-7.9,11
				c-0.6,0.8-1.2,1.7-1.8,2.5c-3.3,4.7-6.5,9.4-9.7,14.2c-0.8,1.1-1.5,2.3-2.3,3.4c-0.4,0.6-0.8,1.2-1.2,1.8
				c-0.1,0.1-0.1,0.1-0.1,0.2c-1.5,2.3-3,4.6-4.5,6.9c-0.6,0.9-1.2,1.8-1.7,2.7c-3,4.7-5.9,9.4-8.7,14c-0.5,0.8-1,1.7-1.5,2.5
				c-1,1.7-2,3.4-3,5.1c-0.9,1.5-1.7,3-2.6,4.4c-1.2,2.1-2.5,4.3-3.7,6.4c-0.9,1.5-1.7,3-2.5,4.5c-2.9,5.1-5.7,10.2-8.4,15.2
				c-0.9,1.7-1.8,3.4-2.7,5.1c-0.8,1.4-1.5,2.8-2.2,4.2c-1,2-2.1,4-3.1,5.9c-2.4,4.7-4.8,9.3-7.2,13.9
				c-17.2,33.8-32.4,66.7-47.2,97.5c-0.5,0.9-0.9,1.8-1.3,2.8c-0.7,1.5-1.5,3-2.2,4.5c-0.8,1.6-1.5,3.2-2.3,4.8
				c-1.1,2.3-2.2,4.6-3.3,6.8c-6.2,12.5-12.3,24.5-18.6,36.1c-0.7,1.3-1.4,2.5-2.1,3.8c-1.6,2.9-3.2,5.7-4.8,8.5
				c-0.7,1.2-1.3,2.3-2,3.5c-0.3,0.6-0.7,1.1-1,1.7c-0.4,0.7-0.8,1.3-1.2,2c-3.1,5.3-6.3,10.4-9.5,15.4c-0.8,1.2-1.5,2.3-2.3,3.5
				c-1.4,2.1-2.8,4.2-4.3,6.3c-0.5,0.7-1,1.5-1.5,2.2c-1.9,2.7-3.8,5.4-5.8,8c-0.6,0.8-1.3,1.7-1.9,2.5c-2.1,2.7-4.2,5.4-6.3,8
				c-0.4,0.5-0.8,1-1.3,1.5c-1.5,1.9-3.1,3.7-4.7,5.5c-2.9,3.3-5.8,6.4-8.8,9.5c-26.2,26.8-57.7,46-99,54.3
				c-55.4,11.2-81.8-6.4-87-10C28,953.8,19.2,918.6,19.6,872.8c0-0.6,0-1.3,0-1.9c0-0.6,0-1.2,0-1.8c0-0.9,0-1.9,0.1-2.8
				c0.1-2.3,0.1-4.6,0.2-7c0-1.1,0.1-2.2,0.2-3.3c0.1-1.7,0.2-3.5,0.3-5.3c0-0.9,0.1-1.8,0.2-2.6c0.3-4.7,0.7-9.6,1.1-14.5
				c0.1-1,0.2-2,0.3-3c0.2-2.3,0.5-4.7,0.7-7.1c0.2-1.5,0.3-3,0.5-4.5c0.9-8.3,1.9-16.8,3.1-25.5c0.1-1.1,0.3-2.1,0.4-3.2
				c2.4-18.2,5.3-37.3,8.2-57c0.3-2.3,0.7-4.6,1-6.9c0.2-1.2,0.4-2.4,0.5-3.6c0.2-1.2,0.3-2.3,0.5-3.5c0.2-1.2,0.4-2.4,0.5-3.5
				c0.3-2.1,0.6-4.2,0.9-6.2c1.9-13.4,3.9-27,5.7-40.8v0c0.2-1.5,0.4-2.9,0.6-4.4v0c0.5-3.6,0.9-7.1,1.3-10.7
				c0.2-1.8,0.4-3.6,0.7-5.4c0.1-0.8,0.2-1.7,0.3-2.5c0.1-0.7,0.2-1.4,0.2-2.1c0.1-1,0.2-2,0.3-3.1c0.4-3.9,0.9-7.7,1.3-11.6
				c0.1-1.1,0.2-2.2,0.3-3.4c0.2-1.5,0.3-3,0.5-4.5c4.2-42.5,5.9-81.2,5.7-116.3c0-1.3,0-2.5,0-3.8c-0.3-32.3-2.2-61.7-5.1-88.6
				c0-0.5-0.1-1-0.2-1.6c-0.2-1.7-0.4-3.3-0.6-5c7.5,2.9,12.8,7,12.1,13c-2.2,18.2,17.2,32.2,21.5,18.2c4.3-13.9,31.1-6.4,26.8,5.4
				c-4.3,11.8,0,93.4,31.1,105.2c16.8,6.4,32.7,19,42,30.3l1.9,2.4c2.4,3.1,4.2,6.1,5.3,8.8c1.2,2.9,1.7,5.4,1.1,7.3
				c-0.3,1.1-1,2-2.1,2.7c-10.7,6.5-3.2,16.1,0,24.7c3.2,8.6,107.3-10.7,107.3-35.4c0-3,0.5-5.5,1.4-7.7c1-2.5,2.5-4.5,4.4-6.1
				c10.2-8.9,30.7-5.2,33.9,2c4.3,9.7,42.9-1.1,45.1-19.3c0.3-2.5,1.4-5.7,3-9.2c0.8-1.8,1.8-3.7,2.9-5.7
				c12.5-22.1,40.2-51.5,40.2-30.2c0,26.8,16.1,44,22.5,29c6.4-15,47.2-9.7,31.1-29c-0.1-0.1-0.4-0.5-0.8-1
				c-6.6-7.5-31.9-23.5-33.5-36.5c-1.6-13.3,22.3-16.4,29-41.9c2.3-8.6,0.3-12.3,4.3-20.4c1.2-2.3,9.4-19.2,22.5-20.4
				c14.2-1.3,31.8,15.8,49.1,24.3c0.9,0.4,1.9,0.9,3.1,0.8c6.7-0.7,5.5-16,15.4-24c7.1-5.8,18.7-6.5,22.5-2.1
				C595.1,393.7,593.9,398,592.6,404.9z"/>
			<path class="st1" d="M198.5,504.1c0,0-27-17-26-28s14-10,0-22s-16-14-13-26s4-16,11-30s8-24,18-16s5,12,15,21s12-1,26-5
				s14-5,19,5s5-2,7,18c2,20,5,28,12,33s14-1,7,15s-11,20-21,23c-10,3-34,15-36,17S198.5,504.1,198.5,504.1z"/>
			<path class="st1" d="M882.5,939.1c-7.7,25.9-19.7,27-1,48.1c-35.3,2.2-80.6,2.9-140,2.9c-323.1,0-376.6-20.7-391.9-38.1
				c-1.5-1.7-2.5-3.4-4.1-5.9c-13.1-20.5-32.8-71.1,92-287c42.3-73.3,63.5-109.9,93-141c7.8-8.3,28.4-29.4,67.4-56.5
				c4.6,1.4,10.2,2.7,16.6,3.5c19.3,2.6,25.3-1.8,31,3c11.4,9.6-2,35.5,8.6,42.5c1.8,1.2,4.6,4.1,17.4-1.5
				c17.9-7.8,37.6-13.2,42.7-6.2c1.8,2.5-0.5,4.6,0.3,9.2c0.9,4.8,6.1,14.6,51,24c31.4,6.5,31.5,2.2,39,7c15.5,9.8,18.2,33.3,23,80
				c3.6,34.8,5.2,52.7-1,75c-7.5,27-16.2,24.7-18,42c-4.9,45.5,52.8,86.2,42.6,97.3c-1.7,1.9-4.2,3.1-7.6,3.7c-26,4-28,23-22,40
				s21,49,33,35S890.5,912.1,882.5,939.1z"/>
			<path class="st1" d="M1011.3,404.2c-11.5,8.3-24.7,17.3-29.8,18.9c-10,3-25-19-43-20s-20,16-35,14s-42-10-33-20s-20-38-27-18
				c-5.9,16.8-76,5.4-98.3,1.3c115.6-55.6,184.5-83.6,232.3-54.3C999.2,339.4,1007.3,358.5,1011.3,404.2z"/>
			<path class="st1" d="M1029.8,818.1c-1.2-14.8-10.6-20.4-18.3-29c-8-9-6-12-15-18s-12-10-16-17s-3-13,6-28s0-21-5-34s-3-7-14-7
				s-5-10,0-22s8,1,27,0s11-24,1-32c-6.4-5.1,10-25.3,22.8-39.2c1.2,34.7,2.9,74.2,5.2,119.2C1025.8,755.2,1028.3,790,1029.8,818.1z
				"/>
		</g>
	</g>
</g>
<g id="main">
	<g id="general_2_">
		<g id="body">
			<path class="st2" d="M422,549.4c-1.3,0.8-2.8,1.7-4.3,2.8c-11.7,8.4-18.9,19.6-23.5,30.4c-2.9,6.7-4.9,13.2-6.4,18.7
				c-0.3,1.3-0.7,2.5-1,3.7c-1.4,5.2-2.7,10.4-4,15.7c-7.9,31.7-14.8,63.9-19.6,87.8c-2.8,13.7-4.9,24.7-6.1,31.4
				c-0.6,3-0.9,5.1-1.1,6.2c-2.4-0.6-4.6-1.2-6.9-1.7c-31.1-7.3-48.6-3.4-59.1,2.3c-5.2,2.8-22.3,12.9-40.4,8.6
				c-0.4-0.1-0.6-0.2-0.9-0.2c0,0,0,0,0,0c0,0,0,0,0,0c0,0-0.4-0.1-0.8-0.3c-0.5-0.2,26.4-76.3,25.2-132.3c-0.1-4.6-0.4-9-0.8-13.2
				c-0.5-4.6-1.2-9-2-13.1c-7.5-38.6-26.5-56.6-12.7-76.5c2.5-3.6,5.6-6.6,9.2-9.2c7.6-5.5,17.1-8.7,26.4-10.6
				c18.1-3.6,35.5-2.2,37.2-2.1c8.2,0.7,15.2,2.3,21.9,4.5c4.6,1.6,9.1,3.4,13.7,5.4c2.1,0.9,4.1,1.8,6.3,2.8
				c18.2,8.1,32.5,17.8,43.3,26.5C417.8,541.1,420,545.3,422,549.4z"/>
			<path class="st3" d="M338.6,532.2c-11.9,5.2-24.8-3.8-28.3-6.2c-12.5-8.7-16.1-21.9-17.1-26.3c18.1-3.6,35.5-2.2,37.2-2.1
				c8.2,0.7,15.2,2.3,21.9,4.5c0.5,2.5,1.6,9.6-1.9,17.3C349.5,521.5,346.2,528.9,338.6,532.2z"/>
			<path class="st3" d="M387.8,601.3c-0.3,1.3-0.7,2.5-1,3.7c-1.4,5.2-2.7,10.4-4,15.7l-110.5-11.6c-0.5-4.6-1.2-9-2-13.1
				L387.8,601.3z"/>
			<linearGradient id="SVGID_1_" gradientUnits="userSpaceOnUse" x1="247.8978" y1="633.2286" x2="372.7853" y2="633.2286">
				<stop  offset="0" style="stop-color:#FFFFFF;stop-opacity:0.5"/>
				<stop  offset="0.8362" style="stop-color:#F07125"/>
			</linearGradient>
			<path class="st4" d="M370.8,728.3c-3.5,0-6.9,0.1-10.4,0.1c2.7,1.7,5.5,3.3,8.6,4.8c0,0,0,0,0,0l0,0l-2.1,1.1l-4.5,2.5l-5.4,3
				l-5.2,2.9l-2.8,1.6c-0.8-0.2-1.5-0.4-2.2-0.5c-0.8-0.2-1.5-0.3-2.2-0.5c-0.6-0.1-1.2-0.2-1.8-0.4c-0.1,0-0.2,0-0.4-0.1
				c-1.4-0.3-2.8-0.5-4.2-0.8c-0.1,0-0.3,0-0.4-0.1c-1-0.2-2-0.3-3-0.5c-0.6-0.1-1.2-0.2-1.8-0.3c-0.4,0-0.7-0.1-1.1-0.1
				c-0.5-0.1-1-0.1-1.5-0.2c-0.6-0.1-1.2-0.1-1.8-0.2c-1.2-0.1-2.3-0.2-3.4-0.3c-2.9-0.2-5.6-0.3-8.1-0.2c-0.8,0-1.5,0-2.2,0.1
				c-0.4,0-0.8,0-1.1,0.1c-0.4,0-0.8,0-1.1,0.1c-0.2,0-0.4,0-0.5,0c-0.3,0-0.6,0-0.9,0.1c-0.4,0-0.8,0.1-1.1,0.1
				c-0.3,0-0.6,0.1-1,0.1c-0.2,0-0.5,0.1-0.7,0.1c-0.3,0-0.7,0.1-1,0.1c-0.9,0.1-1.8,0.3-2.7,0.4c-0.2,0-0.5,0.1-0.7,0.1h0
				c-0.6,0.1-1.2,0.2-1.8,0.4c-0.4,0.1-0.9,0.2-1.3,0.3c-1.1,0.3-2.1,0.6-3.1,0.9c-0.5,0.2-1,0.3-1.5,0.5c-0.9,0.3-1.8,0.7-2.7,1.1
				c-0.2,0.1-0.5,0.2-0.7,0.3c0,0-0.1,0-0.1,0.1c-0.1,0-0.1,0.1-0.2,0.1c-0.2,0.1-0.4,0.2-0.6,0.3c-0.7,0.3-1.3,0.6-1.9,1
				c-1,0.5-2.5,1.4-4.2,2.3c-0.4,0.2-0.8,0.4-1.2,0.6c0,0-0.1,0-0.1,0c-0.3,0.1-0.6,0.3-1,0.5c-0.3,0.2-0.7,0.3-1,0.5
				c-0.5,0.2-1,0.5-1.6,0.7c-0.8,0.4-1.6,0.7-2.5,1v0c-0.1,0-0.1,0-0.2,0.1c-0.7,0.3-1.4,0.5-2.1,0.8c-1.2,0.4-2.5,0.8-3.8,1.2
				c-0.6,0.2-1.2,0.3-1.8,0.5c0,0-0.1,0-0.1,0c-0.6,0.1-1.1,0.3-1.7,0.4c0,0-0.1,0-0.2,0c-0.4,0.1-0.9,0.2-1.3,0.2c0,0,0,0-0.1,0
				c0,0,0,0,0,0c-0.4,0.1-0.8,0.1-1.3,0.2c-0.6,0.1-1.1,0.2-1.7,0.2c-0.7,0.1-1.4,0.2-2.1,0.2c-0.3,0-0.7,0-1,0.1
				c-0.4,0-0.7,0-1.1,0c-0.7,0-1.3,0-2,0c-0.6,0-1.2,0-1.8-0.1c-0.3,0-0.6,0-0.9-0.1c-0.6,0-1.2-0.1-1.8-0.2c-0.4,0-0.7-0.1-1.1-0.2
				c0,0,0,0-0.1,0c0,0,0,0,0,0c-0.2,0-0.4-0.1-0.7-0.1c-0.7-0.1-1.3-0.2-2-0.4c-0.4-0.1-0.6-0.2-0.9-0.2c0,0,0,0,0,0c0,0,0,0,0,0
				c0,0-0.4-0.1-0.8-0.3c0,0,0,0,0-0.1c0,0,0,0,0-0.1c0-0.1,0-0.1,0.1-0.2c0-0.1,0.1-0.2,0.1-0.3c0.2-0.6,0.4-1.4,0.8-2.6
				c0.1-0.2,0.1-0.4,0.2-0.6c0.3-1.1,0.7-2.3,1.2-3.8c0.1-0.4,0.2-0.8,0.4-1.2c0-0.1,0.1-0.2,0.1-0.3c0-0.2,0.1-0.3,0.1-0.5
				c0.1-0.3,0.2-0.7,0.3-1.1c0.6-1.8,1.2-3.9,1.8-6.1c0.8-2.6,1.6-5.5,2.5-8.5c0.1-0.5,0.3-1,0.4-1.5c0.2-0.5,0.3-1.1,0.5-1.7
				c0-0.1,0-0.2,0.1-0.3c0.2-0.7,0.4-1.4,0.6-2.1c0.2-0.7,0.4-1.4,0.6-2.1c0.2-0.7,0.4-1.4,0.6-2.2c0.2-0.7,0.4-1.5,0.6-2.2
				c0.1-0.5,0.2-0.9,0.4-1.3c0.1-0.3,0.2-0.6,0.2-0.9c0.2-0.7,0.3-1.3,0.5-2c0-0.1,0.1-0.2,0.1-0.3c0.4-1.4,0.7-2.8,1.1-4.2
				c0-0.2,0.1-0.3,0.1-0.5c0.4-1.6,0.8-3.2,1.2-4.9c0.1-0.3,0.1-0.5,0.2-0.8c0.3-1.4,0.7-2.8,1-4.2c0.1-0.2,0.1-0.4,0.2-0.6
				c0.1-0.6,0.3-1.3,0.4-1.9c0.8-3.4,1.5-6.9,2.2-10.4c0.3-1.4,0.6-2.7,0.8-4.1c0.3-1.8,0.7-3.5,1-5.3c0.4-2,0.7-4,1.1-6.1
				c0.3-1.7,0.5-3.4,0.8-5.1c0.2-1.2,0.4-2.5,0.5-3.7c0-0.2,0.1-0.5,0.1-0.7c0.1-0.7,0.2-1.3,0.3-2c0.1-1.1,0.3-2.1,0.4-3.2
				c0.1-1.2,0.3-2.3,0.4-3.5c0.1-0.5,0.1-1,0.2-1.5c0-0.5,0.1-1,0.1-1.4c0-0.2,0-0.4,0-0.5c0.1-0.5,0.1-0.9,0.1-1.4
				c0.1-1.2,0.2-2.4,0.3-3.5c0.1-0.6,0.1-1.2,0.1-1.8c0,0,0-0.1,0-0.1c0-0.6,0.1-1.3,0.1-2c0-0.6,0.1-1.3,0.1-1.9
				c0-0.4,0-0.8,0.1-1.2c0.1-1.1,0.1-2.2,0.1-3.4c0-0.6,0-1.1,0-1.7c0.1-2.9,0.1-5.8,0-8.7c-0.1-4.6-0.4-9-0.8-13.2
				c-0.5-4.6-1.2-9-2-13.1c-0.3-1.8-0.7-3.6-1.1-5.3c-0.2-0.9-0.4-1.7-0.6-2.5c-0.1-0.3-0.1-0.5-0.2-0.8c-0.2-0.6-0.3-1.3-0.5-1.9
				c-0.2-0.7-0.4-1.5-0.6-2.2c-0.1-0.5-0.3-0.9-0.4-1.4c-0.1-0.4-0.2-0.9-0.4-1.3c-0.2-0.7-0.4-1.3-0.6-2c-0.3-1-0.6-1.9-0.9-2.9
				c-0.2-0.7-0.5-1.5-0.7-2.2c-0.3-0.8-0.5-1.6-0.8-2.4c-0.3-0.8-0.5-1.6-0.8-2.4c-0.2-0.5-0.3-0.9-0.5-1.4
				c-0.2-0.5-0.3-0.9-0.5-1.4c-0.3-0.9-0.7-1.8-1-2.6v0c-0.7-1.8-1.3-3.6-2-5.3c-0.4-0.9-0.7-1.8-1-2.7c-0.3-0.8-0.6-1.5-0.8-2.3
				c-0.2-0.5-0.4-1-0.5-1.5c-0.2-0.7-0.5-1.4-0.7-2.1c-0.1-0.4-0.3-0.8-0.4-1.2c-0.1-0.4-0.2-0.8-0.4-1.2c-0.2-0.6-0.3-1.1-0.5-1.7
				c-0.1-0.5-0.3-1.1-0.4-1.6c-0.1-0.3-0.1-0.5-0.2-0.8c0-0.2-0.1-0.4-0.1-0.6c-0.1-0.4-0.2-0.7-0.2-1c0-0.2-0.1-0.4-0.1-0.7
				c0-0.2-0.1-0.4-0.1-0.6c-0.1-0.9-0.3-1.8-0.3-2.7c0-0.1,0-0.2,0-0.3c0-0.4-0.1-0.7-0.1-1.1c0-0.8,0-1.5,0-2.2c0-0.3,0-0.6,0-0.9
				c0-0.3,0-0.6,0.1-0.9c0-0.3,0.1-0.6,0.1-0.9c0-0.3,0.1-0.6,0.1-0.9c0-0.3,0.1-0.5,0.2-0.8c0.1-0.3,0.1-0.6,0.2-0.8
				c0.1-0.3,0.2-0.7,0.3-1c0.1-0.3,0.2-0.6,0.3-0.9c0.1-0.3,0.2-0.5,0.3-0.8c0.1-0.2,0.2-0.5,0.3-0.7c0.1-0.2,0.2-0.4,0.2-0.6
				c0.1-0.2,0.2-0.4,0.3-0.6c0.1-0.3,0.3-0.6,0.4-0.9c0.2-0.3,0.4-0.7,0.6-1.1c0.1-0.2,0.3-0.5,0.4-0.8c0.2-0.3,0.4-0.6,0.6-0.9
				c0.2-0.3,0.3-0.5,0.5-0.8c0.3-0.4,0.6-0.8,0.9-1.2c0.1-0.1,0.1-0.2,0.2-0.3c0.2-0.3,0.5-0.6,0.7-0.9c0.1-0.2,0.3-0.3,0.4-0.5
				c0.3-0.3,0.6-0.7,0.9-1c0.3-0.4,0.7-0.8,1.1-1.1c0-0.1,0.1-0.1,0.2-0.1c0.1-0.1,0.1-0.1,0.2-0.2c0.3-0.3,0.6-0.6,0.9-0.9
				c0.3-0.3,0.7-0.6,1.1-0.9c0,0,0.1-0.1,0.1-0.1c0.8-0.7,1.7-1.4,2.6-2c4.6,9.4,9.7,19.9,15.1,31c1.6,3.2,3.2,6.5,4.8,9.9
				c0.2,0.3,0.3,0.6,0.5,0.9c7.1,14.7,14.7,30.2,22.2,45.7c0,0.1,0.1,0.2,0.1,0.3c2.5,5.3,5.1,10.5,7.6,15.8
				c5.8,12,11.6,23.8,17.1,35.1c0.9,1.7,1.7,3.4,2.5,5.1c1.7,3.5,3.4,6.9,5,10.3c0,0,0,0,0,0c2.9,6,5.7,11.8,8.3,17.2
				c3.7,7.5,7,14.5,10,20.6c1.1,2.2,2.1,4.3,3,6.3c0.2,0.4,0.4,0.8,0.6,1.2c3.5,7.1,6.2,12.7,7.9,16.3c0.4,0.9,0.8,1.7,1.1,2.3
				C372.1,728.3,371.5,728.3,370.8,728.3z"/>
			<linearGradient id="SVGID_2_" gradientUnits="userSpaceOnUse" x1="320.3994" y1="618.1611" x2="422.0316" y2="618.1611">
				<stop  offset="0.144" style="stop-color:#365588;stop-opacity:0.7"/>
				<stop  offset="1" style="stop-color:#002544;stop-opacity:0.4"/>
			</linearGradient>
			<path class="st5" d="M422,549.4c-1.5,0.9-2.9,1.8-4.3,2.8c-51.8,36.1-59.7,115-57.3,176.5c-13.3-6.1-26.7-12.1-40-18.2
				c15.2-67.6,30.4-135.3,45.6-202.9c2.1,0.9,4.1,1.8,6.3,2.8c18.2,8.1,32.5,17.8,43.3,26.5C417.7,541.1,419.9,545.2,422,549.4z"/>
			<path d="M337.8,404.4c1.3-1.1,5.2-4.4,10.8-5c14.4-1.6,26.5,16,27.3,17.3c3.7,5.6,2.5,6.5,7.3,14.6c4.9,8.2,8.2,10.5,12.7,16.4
				c12.4,16,6.2,22.3,16.4,32.8c9.5,9.8,17.8,7.3,21.8,16.4c3.1,6.9,0.8,14-1.8,21.8c-0.8,2.6-11.8,38-27.3,31.8
				c-13.6-5.5-15.5-3.6-32.8-16.4c-12.5-9.2-13.6-13.7-16.7-15.1c-2.2-1-3.7-0.2-5.1-0.4c-7.1-1-9.7-20.3-9.7-20.3
				C332.9,440.7,323.3,417,337.8,404.4z"/>
		</g>
		<g id="table">
			<polygon class="st6" points="934.5,877.9 928.1,899.8 199.4,958.9 177.8,918 89.3,750.6 89.3,730.5 448.4,793.2 			"/>
			<path class="st7" d="M934.5,877.9c-243.5,17.9-487,35.8-730.6,53.7c-7.4-13-14.8-26-22.3-39.1c-0.6-1-1.1-2-1.7-2.9h0
				c-9.3-16.3-18.6-32.6-27.8-48.8l-1.7-3c-5.4-9.4-10.7-18.8-16.1-28.3c-0.6-1-1.1-2-1.7-3c-11.1-19.4-22.2-38.9-33.2-58.3
				c-0.5-1-1.1-1.9-1.7-2.9c-2.8-4.9-5.6-9.8-8.4-14.8c73-0.6,146-1.2,219-1.8c7.2-0.1,14.5-0.1,21.7-0.2
				c10.2-0.1,20.3-0.2,30.5-0.2c2.9,0,5.8,0,8.8-0.1c40.9-0.3,81.8-0.7,122.7-1c46.8-0.4,93.5-0.8,140.3-1.1
				c82.6-0.7,165.3-1.3,247.9-2c5.1,14.5,10.2,29,15.4,43.5c0.3,1,0.7,2,1.1,3c3.6,10.3,7.3,20.6,10.9,30.9c0.4,1,0.7,2,1.1,3
				c3.9,11.1,7.8,22.1,11.7,33.2c0.4,1,0.7,2,1.1,3c2.3,6.4,4.5,12.8,6.8,19.2c0.3,1,0.7,2,1,3C931,867.9,932.7,872.9,934.5,877.9z"
				/>
			<path class="st6" d="M896.6,770.7c-279.8-9.4-724.9-23.5-797.2-22.5c-0.5-1-1.1-1.9-1.7-2.9c24.1-0.5,110.2,0.7,424.7,10.4
				c147.4,4.5,295.7,9.4,373.2,12C895.9,768.7,896.3,769.7,896.6,770.7z"/>
			<path class="st6" d="M908.6,804.6l-774.3,4.9c-0.6-1-1.1-2-1.7-3l774.9-4.9C907.9,802.6,908.2,803.6,908.6,804.6z"/>
			<path class="st6" d="M921.4,840.8H152.2l-1.7-3h769.9C920.7,838.8,921,839.8,921.4,840.8z"/>
			<path class="st6" d="M929.2,862.9l-747.5,29.6c-0.6-1-1.1-2-1.7-2.9L928.2,860C928.5,861,928.9,861.9,929.2,862.9z"/>
			<path class="st8" d="M934.5,877.9c-243.5,17.9-487,35.8-730.6,53.7c-7.4-13-14.8-26-22.3-39.1c-0.6-1-1.1-2-1.7-2.9h0
				c-9.3-16.3-18.6-32.6-27.8-48.8l-1.7-3c-5.4-9.4-10.7-18.8-16.1-28.3c-0.6-1-1.1-2-1.7-3c-11.1-19.4-22.2-38.9-33.2-58.3
				c-0.5-1-1.1-1.9-1.7-2.9c-2.8-4.9-5.6-9.8-8.4-14.8c73-0.6,146-1.2,219-1.8c7.2-0.1,14.5-0.1,21.7-0.2
				c10.2-0.1,20.3-0.2,30.5-0.2c2.9,0,5.8,0,8.8-0.1c40.9-0.3,81.8-0.7,122.7-1c46.8-0.4,93.5-0.8,140.3-1.1
				c82.6-0.7,165.3-1.3,247.9-2c5.1,14.5,10.2,29,15.4,43.5c0.3,1,0.7,2,1.1,3c3.6,10.3,7.3,20.6,10.9,30.9c0.4,1,0.7,2,1.1,3
				c3.9,11.1,7.8,22.1,11.7,33.2c0.4,1,0.7,2,1.1,3c2.3,6.4,4.5,12.8,6.8,19.2c0.3,1,0.7,2,1,3C931,867.9,932.7,872.9,934.5,877.9z"
				/>
			<linearGradient id="SVGID_3_" gradientUnits="userSpaceOnUse" x1="177.8086" y1="841.5364" x2="934.5052" y2="841.5364">
				<stop  offset="0" style="stop-color:#FFFFFF;stop-opacity:0.5"/>
				<stop  offset="0.8362" style="stop-color:#F07125"/>
			</linearGradient>
			<path class="st9" d="M934.5,877.9l-6.4,21.8l-728.7,59.1L177.8,918c4.3-2.8,8.9-5.6,13.6-8.4c63.3-37.6,161-79.4,257-116.5
				c66.1-25.5,131.3-48.8,183.9-67c82.6-0.7,165.3-1.3,247.9-2C898.3,775.4,916.4,826.7,934.5,877.9z"/>
		</g>
		<g id="hand_front">
			<path class="st10" d="M189.6,731.4c-0.3,2.6-0.7,5.3-1.3,7.9c-0.3,1.5-0.8,3-1.2,4.3c-1.5,4.4-3.8,7.9-7.1,8.7
				c-0.3,0.1-0.7,0.1-1.1,0.2c0,0,0,0,0,0c-5.6,0.8-24.4,3.2-27.6,0c-0.3-0.3-1.1-1.1-0.9-1.8c0.2-0.9,1.9-1.3,5.8-1.9
				c1.9-0.3,4.3-0.6,7.1-0.9c-2.2-0.3-4.7-0.8-7.5-1.7c-1.7-0.6-3.2-1.2-4.5-1.8c-2.3,0.7-4,1.6-5.2,2.3c-1.5,0.9-3,2.1-5.9,3.5
				c-0.3,0.2-0.6,0.3-0.7,0.3c-2.4,1.1-4.1,1.9-6.4,2.1c-2.5,0.2-5.4-0.2-5.5-0.9c-0.1-0.8,3.4-1,8.2-3.6c1.5-0.8,2.2-1.3,5.5-3.6
				c5.9-4.2,8.9-6.3,9.1-6.4c5.1-1.6,10.3,1.5,15.3,2.5c2.1,0.4,4.2,0.5,6.2-0.3c0.4-0.2,0.8-0.4,0.8-0.4c2.2-1.3,4.3-4.1,4.8-10.6
				C177.5,727.9,189.7,730.1,189.6,731.4z"/>
			<path class="st11" d="M189.6,731.4c-0.3,2.6-0.7,5.3-1.3,7.9c-0.3,1.5-0.8,3-1.2,4.3c-10.4,2.3-17.1,0-21.4-3.2
				c2.1,0.4,4.2,0.5,6.2-0.3c0.4-0.2,0.8-0.4,0.8-0.4c2.2-1.3,4.3-4.1,4.8-10.6C177.5,727.9,189.7,730.1,189.6,731.4z"/>
			<path class="st2" d="M289.5,547.7c-33.7,63.4-67.3,126.8-101,190.1c-0.7,0.5-4.9,3.8-10.7,4c-1.2,0-2.5-0.1-3.9-0.4
				c-5-1.1-8-4.2-9.1-5.5c11.4-27.8,22.7-55.7,34.1-83.5c16.2-39.7,32.4-79.4,48.6-119.1c2.1-5.2,4.3-10.5,6.4-15.7
				c6.7,5.6,13.4,11.3,20,16.9C279.2,539,284.3,543.3,289.5,547.7z"/>
			<linearGradient id="SVGID_4_" gradientUnits="userSpaceOnUse" x1="177.8086" y1="638.2082" x2="289.4666" y2="638.2082">
				<stop  offset="0.144" style="stop-color:#365588;stop-opacity:0.7"/>
				<stop  offset="1" style="stop-color:#002544;stop-opacity:0.4"/>
			</linearGradient>
			<path class="st12" d="M289.5,547.7c-33.7,63.4-67.3,126.8-101,190.1c-0.7,0.5-4.9,3.8-10.7,4L274,534.6
				C279.2,539,284.3,543.3,289.5,547.7z"/>
			<linearGradient id="SVGID_5_" gradientUnits="userSpaceOnUse" x1="198.9338" y1="592.9053" x2="247.571" y2="592.9053">
				<stop  offset="0" style="stop-color:#FFFFFF;stop-opacity:0.5"/>
				<stop  offset="0.8362" style="stop-color:#F07125"/>
			</linearGradient>
			<path class="st13" d="M247.6,533.3c-0.7,13.1-2.4,29.4-6.3,46.2c-5.3,22.7-25.9,52.2-42.3,72.9
				C215.1,612.8,231.4,573,247.6,533.3z"/>
		</g>
		<g id="head_1_">
			<path id="face_1_" class="st10" d="M374.1,466.7c-0.5,0.4-2.1,0.9-3.6,0.9c-1.2,0-2.2-0.3-2.9-0.5c-0.3,1.6-0.7,3-1,4.3
				c-0.5,2.3-1.2,5-2.1,7.7c-0.2,0.6-0.4,1.2-0.7,1.8c0,0,0,0,0,0c-0.8,2.3-3.2,7.7-8.5,9.8c-4.4,1.7-8.3,0.2-15.9-3
				c-6.3-2.6-17.4-8.4-25.2-18.5c-2.7-3.5-4.1-6.5-4.6-7.4c-1.5-3.3-2.7-6.9-3.3-10.9c-2.8-18.1,5.7-42,22.3-45.9
				c5.5-1.3,10.6,0.3,14.6,1.6c2.8,0.9,12.4,4.1,19.1,13.8c8.5,12.3,6,25.7,5.5,28.2C373.1,457.7,375.9,465.2,374.1,466.7z"/>
			
				<ellipse id="eye_1_" transform="matrix(0.2055 -0.9787 0.9787 0.2055 -152.836 709.2245)" cx="360.4" cy="448.7" rx="2.3" ry="2.3"/>
			<g id="neck_1_">
				<path class="st10" d="M347.7,485.8c-0.4,1.3-0.8,2.8-1.3,4.6c-0.7,2.6-1.5,5.6-2.4,9.1c-0.4,1.6-0.7,3-1.1,4.4
					c-3.4,14.3-3.2,17.6-6.2,19.2c-7,4-23.8-5.3-25.5-16.4c-0.4-2.7,0.3-4,7.3-19.1c6.6-14.4,7.5-16.6,10-17.3
					C336.5,468.2,346.8,484.4,347.7,485.8z"/>
				<path class="st11" d="M346.4,490.4c-0.7,2.6-1.5,5.6-2.4,9.1c-0.4,1.6-0.7,3-1.1,4.4c-7.4-2.9-8.2-18.4-8.2-18.4
					c1.8,0.6,3.7,1.4,5.7,2.2C342.6,488.5,344.6,489.5,346.4,490.4z"/>
			</g>
			<path d="M361.3,477.3c-0.1,0-0.1,0-0.2,0c-1.2-0.3-3.5-1.2-5.3-3.4c-2.3-2.8-2.5-6-2.4-7.2c0-0.3,0.3-0.6,0.6-0.6
				c0.3,0,0.6,0.3,0.6,0.6c0,1.1,0.1,3.9,2.1,6.4c1.6,1.9,3.6,2.7,4.7,3c0.3,0.1,0.5,0.4,0.4,0.7
				C361.8,477.1,361.6,477.3,361.3,477.3z"/>
			<path id="brow_1_" d="M363.3,437.3l-11.1,5.1C352.1,442.4,354.9,436.6,363.3,437.3z"/>
			<g id="HAIR">
				<path d="M349.5,407.6c-2.7,19-9.5,28.1-15.5,32.8c-2.5,2-3.2,1.9-4.5,3.6c-6.6,8.8,4.6,21.1,0,38.2
					c-4.4,16.6-13.5,15.6-16.4,31.8c-2.4,13.5,2.9,19.7-2.7,28.2c-3.6,5.4-10.4,9.7-17.3,10c-10.3,0.5-12.9-8.2-24.6-11.8
					c-4.9-1.5-9.2-1.5-13-0.9c-9.8,1.7-16.6,7.7-22.5,3.6c-10.8-7.6-8.2-42.3,8.2-53.7c5-3.5,12.6-5.6,20-14.6
					c3.5-4.3,5.4-8.1,6.4-10c10.4-21.1,19.8-40.1,34.6-52.8c5.1-4.3,19.6-16.8,34.6-12.7C342.8,401,347,404.8,349.5,407.6z"/>
				<linearGradient id="SVGID_6_" gradientUnits="userSpaceOnUse" x1="226.5762" y1="471.561" x2="336.7755" y2="471.561">
					<stop  offset="0" style="stop-color:#FFFFFF;stop-opacity:0.5"/>
					<stop  offset="0.8376" style="stop-color:#F07125;stop-opacity:0.8"/>
				</linearGradient>
				<path class="st14" d="M336.8,399.4c-44.8,23.5-73.1,111.6-81.2,140.2c-9.8,1.7-16.6,7.7-22.5,3.6c-10.8-7.6-8.2-42.3,8.2-53.7
					c5-3.5,12.6-5.6,20-14.6c3.5-4.3,5.4-8.1,6.4-10c10.4-21.1,19.8-40.1,34.6-52.8C307.3,407.8,321.8,395.3,336.8,399.4z"/>
			</g>
			<g id="ear_1_">
				<path class="st10" d="M337.7,451.7c0,1-0.2,2-0.4,2.9c-1.2,3.9-4.8,6.7-9.1,6.7c-5.3,0-9.6-4.3-9.6-9.6c0-2.9,1.3-5.5,3.4-7.3
					c1.7-1.4,3.8-2.3,6.2-2.3C333.4,442.1,337.7,446.4,337.7,451.7z"/>
				<linearGradient id="SVGID_7_" gradientUnits="userSpaceOnUse" x1="321.9733" y1="448.3585" x2="337.6853" y2="448.3585">
					<stop  offset="1.944953e-03" style="stop-color:#19233D;stop-opacity:0.5"/>
					<stop  offset="0.8362" style="stop-color:#F07125"/>
				</linearGradient>
				<path class="st15" d="M337.7,451.7c0,1-0.2,2-0.4,2.9L322,444.4c1.7-1.4,3.8-2.3,6.2-2.3C333.4,442.1,337.7,446.4,337.7,451.7z"
					/>
			</g>
		</g>
		<g id="credit_card">
			<path class="st16" d="M619.6,793.8l-44.6,4.9c-1,0.1-2.1-0.4-2.6-1.3l-2.5-4.3l-2.5-4.2l-2.9-4.8c-1-1.7,0.1-3.8,2-4l42.8-4.5
				c0.9-0.1,1.8,0.3,2.4,1l5.2,6.9l3.1,4.1l1.4,1.8C622.7,791.2,621.7,793.6,619.6,793.8z"/>
			<polygon class="st3" points="620.1,787.7 569.9,793.2 567.4,789 617,783.7 			"/>
			<path class="st3" d="M573,784.5c1.7-0.2,2.6-1.1,2-2c-0.6-0.9-2.4-1.5-4.1-1.4c-1.7,0.2-2.6,1.1-2,2
				C569.4,784.1,571.3,784.7,573,784.5z"/>
			<path class="st3" d="M580.1,781.5c-0.3,0-0.5-0.2-0.5-0.4c0-0.3,0.2-0.5,0.4-0.6l24.6-2.7c0.3,0,0.5,0.2,0.6,0.4
				c0,0.3-0.2,0.5-0.4,0.6L580.1,781.5C580.2,781.5,580.2,781.5,580.1,781.5z"/>
		</g>
		<g id="paper">
			<polygon class="st6" points="476.1,839.1 361,766.3 452,747.5 579.9,812.5 			"/>
			<path class="st7" d="M519.5,808.1c-1.7,0-3.3-0.1-4.9-0.2c-12.7-1-22.4-5.5-28.4-9.2c-0.2-0.1-0.3-0.3-0.2-0.5s0.2-0.4,0.4-0.4
				l6.4-0.9c0.3,0,0.5,0.2,0.6,0.4c0,0.3-0.2,0.5-0.4,0.6l-5,0.7c6,3.4,15.1,7.4,26.8,8.3c9.8,0.8,19.8-0.8,28.9-4.5
				c0.3-0.1,0.5,0,0.7,0.3s0,0.5-0.3,0.7C536.2,806.5,527.9,808.1,519.5,808.1z"/>
			<path class="st7" d="M488.3,804.3c-0.2,0-0.4-0.1-0.5-0.3l-1.8-5.5c-0.1-0.3,0.1-0.5,0.3-0.6c0.3-0.1,0.5,0.1,0.6,0.3l1.8,5.5
				c0.1,0.3-0.1,0.5-0.3,0.6C488.4,804.3,488.3,804.3,488.3,804.3z"/>
			<path class="st7" d="M467.3,824.3c-0.2,0-0.4-0.1-0.5-0.4c-0.7-2.4-1.3-4.9-1.8-7.3c-1-4.7-1.6-9.6-1.8-14.5l-1.8,3.7
				c-0.1,0.2-0.4,0.3-0.7,0.2c-0.2-0.1-0.3-0.4-0.2-0.7l2.7-5.5c0.1-0.2,0.3-0.3,0.6-0.3c0.2,0.1,0.4,0.2,0.4,0.5
				c0.1,5.5,0.7,11,1.8,16.3c0.5,2.4,1.1,4.9,1.8,7.2c0.1,0.3-0.1,0.5-0.3,0.6C467.4,824.3,467.4,824.3,467.3,824.3z"/>
			<path class="st7" d="M468.6,804.3c-0.1,0-0.2,0-0.3-0.1l-4.9-3.7c-0.2-0.2-0.3-0.5-0.1-0.7c0.2-0.2,0.5-0.3,0.7-0.1l4.9,3.7
				c0.2,0.2,0.3,0.5,0.1,0.7C468.9,804.3,468.8,804.3,468.6,804.3z"/>
			<path class="st7" d="M471.9,799.7c-0.2,0-0.4-0.1-0.5-0.3c-0.1-0.3,0-0.5,0.3-0.6c0.1-0.1,14.1-5.4,11.5-13
				c-2.6-7.7-15.7-6-15.8-6c-0.3,0-0.5-0.2-0.6-0.4c0-0.3,0.2-0.5,0.4-0.6c0.6-0.1,14.1-1.8,16.9,6.7c2.8,8.5-11.5,14-12.1,14.3
				C472,799.7,471.9,799.7,471.9,799.7z"/>
		</g>
		<g id="cup">
			<path class="st3" d="M279.8,749.2c-0.3-0.5-0.7-0.9-1.1-1.3c-0.4-0.4-0.9-0.7-1.4-1c-2.9-1.9-6.6-2.5-9.5-2.7
				c0-2.3,0-4.4-0.1-6.4c-0.4,0-0.8,0-1.2,0c-0.3,0-0.6,0-1,0c-2.5,0-6-0.1-10-0.1c-1.3,0-2.7,0-4.2,0h0c-0.6,0-1.3,0-1.9,0
				c-8.4,0-17.8,0-24.1,0c-1.1,0-2.1,0-3,0c-0.2,0-0.5,0-0.7,0c-0.7,0-1.2,0-1.8,0c-0.2,0-0.3,0-0.5,0c-0.3,5.3-0.2,11.8,0.8,19
				c0.1,0.6,0.2,1.1,0.2,1.7c0.2,1.5,0.5,3.1,0.8,4.7c0.9,4.5,2.1,8.7,3.4,12.6c0.6,1.9,1.3,3.8,2,5.5v0c2.4,5.9,5,10.9,7.3,14.7
				h19.1c0.8-1.4,1.8-3,2.7-4.7c0.3-0.6,0.6-1.2,1-1.9c2.1-4.2,4.3-9.2,6.2-15c0.3,0,0.6,0,1-0.1c0.3,0,0.7-0.1,1-0.1
				c0.4,0,0.7-0.1,1.1-0.2c0.4-0.1,0.7-0.2,1.1-0.3c0.8-0.2,1.5-0.5,2.3-0.8c0.4-0.2,0.8-0.3,1.2-0.6c0,0,0,0,0,0
				c0.4-0.2,0.8-0.4,1.2-0.7c0,0,0,0,0,0c0.4-0.2,0.8-0.5,1.2-0.8c0.6-0.5,1.2-1,1.8-1.5c2.1-2.1,4.1-4.9,5.6-8.9
				C282.1,755.9,281.9,752.1,279.8,749.2z M278.8,755.2L278.8,755.2c0,0.4-0.1,0.7-0.1,1c0,0.2-0.1,0.4-0.1,0.7
				c-0.2,0.8-0.5,1.8-0.8,2.7c-2.2,5.6-5.2,8.7-8.2,10.4c-0.5,0.3-1,0.5-1.4,0.7c-0.2,0.1-0.3,0.1-0.5,0.2c-1.4,0.5-2.7,0.8-3.9,0.9
				c0.1-0.2,0.1-0.4,0.2-0.6c0.2-0.6,0.4-1.3,0.5-1.9c0.4-1.4,0.8-2.9,1.1-4.5c0.1-0.5,0.2-1,0.3-1.5c0.2-0.9,0.4-1.9,0.5-2.8
				c0.2-1,0.3-1.9,0.4-2.8c0.1-1,0.3-2,0.4-2.9c0.1-1,0.2-2,0.3-3s0.2-2,0.2-2.9c0-0.6,0.1-1.3,0.1-1.9c3.5,0.3,7.9,1.2,9.9,3.9
				c0.2,0.3,0.4,0.5,0.5,0.8c0.2,0.3,0.3,0.6,0.4,0.9c0,0.2,0.1,0.3,0.1,0.5c0,0.1,0,0.2,0.1,0.4c0,0.2,0.1,0.4,0.1,0.6
				c0,0.1,0,0.2,0,0.3C278.8,754.7,278.8,754.9,278.8,755.2z"/>
			<path class="st16" d="M241.2,756c-1.8-0.9-3.6,1.8-3.6,1.8s-1.8-2.7-3.6-1.8c-1.8,0.9,3.6,6.4,3.6,6.4S243.1,756.9,241.2,756z"/>
			<path class="st16" d="M255.8,767.8c-1.8-0.9-3.6,1.8-3.6,1.8s-1.8-2.7-3.6-1.8c-1.8,0.9,3.6,6.4,3.6,6.4S257.6,768.8,255.8,767.8
				z"/>
			<path class="st16" d="M261.3,746.9c-1.8-0.9-3.6,1.8-3.6,1.8s-1.8-2.7-3.6-1.8s3.6,6.4,3.6,6.4S263.1,747.8,261.3,746.9z"/>
			<path class="st16" d="M266.8,757.7c-0.1,0.9-0.3,1.9-0.4,2.8c-0.8-1.2-1.2-2.3-0.5-2.7C266.1,757.7,266.5,757.6,266.8,757.7z"/>
			<path class="st16" d="M231.2,740.6c-1.8-0.9-3.6,1.8-3.6,1.8s-1.8-2.7-3.6-1.8c-1.8,0.9,3.6,6.4,3.6,6.4S233.1,741.5,231.2,740.6
				z"/>
			<path class="st16" d="M251.3,737.7c-0.5,0.6-0.9,1-0.9,1s-0.4-0.4-1-1C250,737.7,250.7,737.7,251.3,737.7z"/>
			<path class="st16" d="M227.6,782.4c0,0-0.4-0.4-1-1v0c-0.7-1.8-1.4-3.6-2-5.5c1.6-0.1,3,2,3,2s1.8-2.7,3.6-1.8
				C233.1,776.9,227.6,782.4,227.6,782.4z"/>
			<path class="st16" d="M220.4,758.6c-0.1-0.6-0.2-1.1-0.2-1.7c0.1,0,0.1,0,0.2,0.1C220.8,757.2,220.8,757.8,220.4,758.6z"/>
			<path class="st16" d="M245.8,786.9c-1.8-0.9-3.6,1.8-3.6,1.8s-1.8-2.7-3.6-1.8c-1.8,0.9,3.6,6.4,3.6,6.4S247.6,787.9,245.8,786.9
				z"/>
			<path class="st16" d="M256.7,789.5c-0.3,0.6-0.7,1.3-1,1.9c-0.4-0.8-0.5-1.4,0.1-1.7C256.1,789.5,256.4,789.5,256.7,789.5z"/>
			<path class="st8" d="M279.8,749.2c-0.3-0.5-0.7-0.9-1.1-1.3c-0.4-0.4-0.9-0.7-1.4-1c-2.9-1.9-6.6-2.5-9.5-2.7
				c0-2.3,0-4.4-0.1-6.4c-0.4,0-0.8,0-1.2,0c-0.3,0-0.6,0-1,0c-2.5,0-6-0.1-10-0.1c-1.3,0-2.7,0-4.2,0h0c-0.6,0-1.3,0-1.9,0
				c-8.4,0-17.8,0-24.1,0c-1.1,0-2.1,0-3,0c-0.2,0-0.5,0-0.7,0c-0.7,0-1.2,0-1.8,0c-0.2,0-0.3,0-0.5,0c-0.3,5.3-0.2,11.8,0.8,19
				c0.1,0.6,0.2,1.1,0.2,1.7c0.2,1.5,0.5,3.1,0.8,4.7c0.9,4.5,2.1,8.7,3.4,12.6c0.6,1.9,1.3,3.8,2,5.5v0c2.4,5.9,5,10.9,7.3,14.7
				h19.1c0.8-1.4,1.8-3,2.7-4.7c0.3-0.6,0.6-1.2,1-1.9c2.1-4.2,4.3-9.2,6.2-15c0.3,0,0.6,0,1-0.1c0.3,0,0.7-0.1,1-0.1
				c0.4,0,0.7-0.1,1.1-0.2c0.4-0.1,0.7-0.2,1.1-0.3c0.8-0.2,1.5-0.5,2.3-0.8c0.4-0.2,0.8-0.3,1.2-0.6c0,0,0,0,0,0
				c0.4-0.2,0.8-0.4,1.2-0.7c0,0,0,0,0,0c0.4-0.2,0.8-0.5,1.2-0.8c0.6-0.5,1.2-1,1.8-1.5c2.1-2.1,4.1-4.9,5.6-8.9
				C282.1,755.9,281.9,752.1,279.8,749.2z M278.8,755.2L278.8,755.2c0,0.4-0.1,0.7-0.1,1c0,0.2-0.1,0.4-0.1,0.7
				c-0.2,0.8-0.5,1.8-0.8,2.7c-2.2,5.6-5.2,8.7-8.2,10.4c-0.5,0.3-1,0.5-1.4,0.7c-0.2,0.1-0.3,0.1-0.5,0.2c-1.4,0.5-2.7,0.8-3.9,0.9
				v0c0.1-0.2,0.1-0.4,0.2-0.6c0.2-0.6,0.4-1.3,0.5-1.9c0.4-1.4,0.7-2.9,1.1-4.5c0.1-0.5,0.2-1,0.3-1.5c0.2-0.9,0.4-1.9,0.5-2.8
				c0.2-1,0.3-1.9,0.4-2.8c0.1-1,0.3-2,0.4-2.9c0.1-1,0.2-2,0.3-3c0.1-1,0.2-2,0.2-2.9c0-0.6,0.1-1.3,0.1-1.9
				c3.5,0.3,7.9,1.2,9.9,3.9c0.2,0.3,0.4,0.5,0.5,0.8c0.2,0.3,0.3,0.6,0.4,0.9c0,0.2,0.1,0.3,0.1,0.5c0,0.1,0,0.2,0.1,0.4
				c0,0.2,0.1,0.4,0.1,0.6c0,0.1,0,0.2,0,0.3C278.8,754.7,278.8,754.9,278.8,755.2z"/>
			<linearGradient id="SVGID_8_" gradientUnits="userSpaceOnUse" x1="248.3625" y1="766.8839" x2="281.5347" y2="766.8839">
				<stop  offset="0.144" style="stop-color:#365588;stop-opacity:0.7"/>
				<stop  offset="1" style="stop-color:#002544;stop-opacity:0.4"/>
			</linearGradient>
			<path class="st17" d="M279.8,749.2c-2.7-3.7-8.2-4.8-12-5c0-2.3,0-4.4-0.1-6.4c-3-0.1-10-0.1-17.8-0.1
				c2.1,15.6,4.1,41.3-1.4,58.3h4.7c3.1-5.2,6.9-12.5,9.8-21.5c4.9-0.2,12.9-2.4,17.4-13.9C282.1,755.9,281.9,752.1,279.8,749.2z
				 M277.7,759.6c-3.7,9.5-9.8,11.8-14,12.2c0.8-2.7,1.5-5.5,2.1-8.5c1.2-5.9,1.7-11.4,1.9-16.4c3.5,0.3,7.9,1.2,9.9,3.9
				C279.1,752.9,279.2,755.9,277.7,759.6z"/>
			<linearGradient id="SVGID_9_" gradientUnits="userSpaceOnUse" x1="232.3867" y1="766.8809" x2="281.5347" y2="766.8809">
				<stop  offset="4.787660e-03" style="stop-color:#640042;stop-opacity:0.2"/>
				<stop  offset="0.9388" style="stop-color:#002544"/>
			</linearGradient>
			<path class="st18" d="M279.8,749.2c-2.7-3.7-8.2-4.8-12-5c0-2.3,0-4.4-0.1-6.4c-3-0.1-10-0.1-17.8-0.1c-5.8,0-12,0-17.4,0
				l17.2,58.3h3.5c3.1-5.2,6.9-12.5,9.8-21.5c4.9-0.2,12.9-2.4,17.4-13.9C282.1,755.9,281.9,752.1,279.8,749.2z M277.7,759.6
				c-3.7,9.5-9.8,11.8-14,12.2c0.8-2.7,1.5-5.5,2.1-8.5c1.2-5.9,1.7-11.4,1.9-16.4c3.5,0.3,7.9,1.2,9.9,3.9
				C279.1,752.9,279.2,755.9,277.7,759.6z"/>
		</g>
		<g id="pen">
			<path class="st3" d="M474.6,789.5c-0.2,0.1-0.6-0.2-1.5-1.1c-0.8-0.8-1.5-1.4-1.9-1.9c-5.2-9.9-10.4-19.8-15.6-29.7
				c1.5,0.5,2.8,1.3,5.2,2.9c1.4,2.5,2.8,5,4.1,7.6c0.1,0.3,0.3,0.5,0.4,0.8c1.6,5.4,2.7,7.2,3.3,8.2c0.1,0.1,0.4,0.6,1,1.3
				c0.5,0.7,1.2,1.4,1.7,1.9l0.1,0.2l2.8,5.3c0.1,0.6,0.3,1.5,0.4,2.6C474.8,788.9,474.8,789.4,474.6,789.5z"/>
		</g>
		<g id="man">
			<g>
				<path class="st16" d="M453,744.2C453,744.2,453.1,744.2,453,744.2l-2.2-0.1l-1-0.1l-7-13.7c-0.2-0.7,0-1.4,0.5-1.8
					c0.6-0.5,1.6-0.4,2.2,0.3C445.5,728.8,450.9,739.9,453,744.2z"/>
				<path class="st16" d="M567.9,634.1c-3.5,2.1-7.1,4.2-10.6,6.2c-13.9,8.2-27.9,16.4-41.8,24.5c0,0,0,0.1,0,0.1c0,0,0,0,0,0.1
					c-7.8,20.8-15.6,41.5-23.5,62.2c-39.7,0.3-79.4,0.6-119.2,1c-0.7,0-1.3,0-2,0c-3.5,0-6.9,0.1-10.4,0.1c2.7,1.7,5.5,3.3,8.6,4.8
					c0,0,0,0,0,0c3.5,1.8,7.3,3.5,11.2,5.1l-17.8-1.5l-4.8-0.4l-12.2-1c0.1-1.2,0.3-2.4,0.4-3.7c0.1-1.1,0.2-2.2,0.4-3.3
					c0.2-1.9,0.4-3.9,0.6-5.9c0-0.3,0-0.5,0.1-0.8c0.2-1.5,0.3-3,0.4-4.6c0.1-0.7,0.1-1.5,0.2-2.2c0.6-6.4,1.1-13.1,1.6-19.5
					c0.1-1,0.1-2,0.2-2.9c0-0.1,0-0.2,0-0.3c0.1-1,0.2-2,0.2-3c0.1-1.6,0.2-3.1,0.3-4.6c0-0.6,0.1-1.2,0.1-1.8
					c0-0.4,0.1-0.9,0.1-1.3c0.1-0.8,0.1-1.6,0.2-2.4c0-0.4,0.1-0.9,0.1-1.3c0.1-2.1,0.3-4,0.4-5.7c0-0.2,0-0.4,0-0.6
					c0.1-2.1,0.2-3.8,0.3-5c0-0.1,0-0.2,0-0.3c0-0.6,0.1-1.1,0.1-1.3v0c0-0.2,0-0.3,0-0.3c-0.6-0.4-5.7-4.1-6.3-4.6
					c-2.7-2-5.4-4-8.2-5.9c-1-0.8-2.1-1.5-3.1-2.3c-4.9-3.5-9.7-7.1-14.6-10.6c-8.6-6.3-17.3-12.6-25.9-18.9c1.7-2.6,4-6.1,6.8-10.3
					c0.7-1.1,1.5-2.2,2.3-3.4c0,0,3.4-4.9,7.3-10.6c0-0.1,0.1-0.2,0.2-0.3c1.7-2.5,3.5-5,5.2-7.4c5.9-8.2,12.1-15.4,18.1-21.6
					c3.2-3.3,6.3-6.3,9.3-9.1c0.5-0.5,1-0.9,1.5-1.4c0.6-0.6,1.2-1.1,1.8-1.6c0.6-0.5,1.2-1,1.8-1.5c0.4-0.3,0.8-0.6,1.2-1
					c0.8-0.6,1.5-1.3,2.3-1.9c1.4-1.1,2.7-2.1,4-3.2c0.5-0.4,1-0.8,1.5-1.2c0.2-0.1,0.3-0.2,0.4-0.3h0c0.6-0.4,1.1-0.8,1.7-1.2
					c0.5-0.4,1-0.8,1.6-1.1c1-0.7,2-1.4,3-2.1c1-0.7,1.9-1.3,2.9-1.9c1.4-0.9,2.8-1.8,4-2.5c0.6-0.3,1.1-0.7,1.6-1
					c1.1-0.6,2.1-1.2,3.1-1.8c0.5-0.3,0.9-0.5,1.4-0.8c1-0.5,1.9-1,2.8-1.5c0.5-0.2,0.9-0.5,1.3-0.7c2.4-1.2,3.8-1.8,3.8-1.8
					c2.3-1,6.4-2.6,11.8-4.4c1.3-0.4,2.8-0.9,4.3-1.3c6.2-1.8,13.6-3.4,21.8-4.3c3.1-0.3,6.4-0.5,9.7-0.6c4.6-0.1,9.3,0.1,14.2,0.8
					h0c6.9,0.9,14,2.5,21.2,5.3c0.1,0,0.3,0.1,0.4,0.1c6.7,2.6,12.6,5.9,17.8,9.2h0c6.8,4.4,12.2,8.9,16.3,12.4
					c1.4,1.2,2.9,2.5,4.8,4.2c0.7,0.6,1.3,1.3,2.1,2c0.2,0.2,0.5,0.5,0.7,0.7l0,0c0.8,0.8,1.6,1.7,2.5,2.7
					c5.5,6,13.1,15.1,24.5,30.3C544.5,600,555.6,615.3,567.9,634.1z"/>
				<path class="st3" d="M363.9,556.7c-0.1,0.1-0.2,0.1-0.3,0.1c-0.2,0-0.3-0.1-0.4-0.2l-5.9-9.2c0.3-0.2,0.5-0.4,0.8-0.6l5.9,9.2
					C364.2,556.3,364.1,556.6,363.9,556.7z"/>
				<path class="st3" d="M387.7,561.1l-10,15.5c-0.1,0.1-0.3,0.2-0.4,0.2c-0.1,0-0.2,0-0.3-0.1c-0.2-0.1-0.3-0.5-0.1-0.7l10-15.5
					c0.1-0.2,0.5-0.3,0.7-0.1C387.8,560.6,387.8,560.9,387.7,561.1z"/>
				<path class="st3" d="M436,565.4c0,0.3-0.2,0.5-0.5,0.5h-17.3c-0.3,0-0.5-0.2-0.5-0.5c0-0.3,0.2-0.5,0.5-0.5h17.3
					C435.8,564.9,436,565.1,436,565.4z"/>
				<path class="st3" d="M433.2,528.3l-5.5,12.7c-0.1,0.2-0.3,0.3-0.5,0.3c-0.1,0-0.1,0-0.2,0c-0.3-0.1-0.4-0.4-0.3-0.7l5.5-12.7
					c0.1-0.3,0.4-0.4,0.7-0.3C433.2,527.8,433.3,528.1,433.2,528.3z"/>
				<path class="st3" d="M414,604.9c-0.1,0.1-0.2,0.1-0.3,0.1c-0.2,0-0.3-0.1-0.4-0.2l-10.9-14.6c-0.2-0.2-0.1-0.5,0.1-0.7
					c0.2-0.2,0.5-0.1,0.7,0.1l10.9,14.6C414.2,604.5,414.2,604.8,414,604.9z"/>
				<path class="st3" d="M355,609.9c0,0.3-0.2,0.5-0.5,0.5h0c-0.2,0-0.5-0.2-0.5-0.4l-1.8-17.3c0-0.3,0.2-0.5,0.5-0.5
					c0.3,0,0.5,0.2,0.5,0.5L355,609.9z"/>
				<path class="st3" d="M471.4,567.5c-1.1,2.3-6.5,13.8-7.4,14.7c-0.1,0.1-0.2,0.2-0.3,0.2c-0.1,0-0.3-0.1-0.4-0.2
					c-0.2-0.2-0.2-0.5,0-0.7c0.6-0.6,4.7-9.2,7.2-14.4c0.1-0.2,0.4-0.4,0.7-0.2S471.5,567.2,471.4,567.5z"/>
				<path class="st3" d="M477.8,543.9c-0.1,0.1-0.2,0.2-0.4,0.2c-0.1,0-0.2,0-0.3-0.1l-15.5-10c-0.2-0.1-0.3-0.5-0.1-0.7
					c0.1-0.2,0.5-0.3,0.7-0.1l15.5,10C477.8,543.3,477.9,543.6,477.8,543.9z"/>
				<path class="st3" d="M399.6,630.1c0,0.2-0.2,0.4-0.5,0.4c0,0-0.1,0-0.1,0l-19.1-3.6c-0.3,0-0.5-0.3-0.4-0.6
					c0.1-0.3,0.3-0.5,0.6-0.4l19.1,3.6C399.5,629.6,399.6,629.8,399.6,630.1z"/>
				<path class="st3" d="M483.3,655.6c0,0.2-0.2,0.4-0.5,0.4c0,0-0.1,0-0.1,0l-19.1-3.6c-0.3-0.1-0.5-0.3-0.4-0.6
					c0.1-0.3,0.3-0.5,0.6-0.4l19.1,3.6C483.2,655,483.3,655.3,483.3,655.6z"/>
				<path class="st3" d="M327.5,607.7l-20.9,10.9c-0.1,0-0.2,0-0.2,0c-0.2,0-0.3-0.1-0.4-0.3c-0.1-0.2,0-0.5,0.2-0.7l20.9-10.9
					c0.2-0.1,0.5,0,0.7,0.2C327.8,607.3,327.7,607.6,327.5,607.7z"/>
				<path class="st3" d="M340.5,640v16.8c-0.3-0.2-0.7-0.5-1-0.7v-16c0-0.3,0.2-0.5,0.5-0.5C340.2,639.5,340.5,639.7,340.5,640z"/>
				<path class="st3" d="M382.3,650.3l-10.9,20.9c-0.1,0.2-0.3,0.3-0.4,0.3c-0.1,0-0.2,0-0.2-0.1c-0.2-0.1-0.3-0.4-0.2-0.7
					l10.9-20.9c0.1-0.2,0.4-0.3,0.7-0.2C382.3,649.7,382.4,650,382.3,650.3z"/>
				<path class="st3" d="M498.7,673l-10.9,20.9c-0.1,0.2-0.3,0.3-0.4,0.3c-0.1,0-0.2,0-0.2,0c-0.2-0.1-0.3-0.4-0.2-0.7l10.9-20.9
					c0.1-0.2,0.4-0.3,0.7-0.2C498.7,672.5,498.8,672.8,498.7,673z"/>
				<path class="st3" d="M428.5,661.6c0,0.3-0.2,0.5-0.5,0.5c0,0,0,0,0,0c-0.3,0-0.5-0.2-0.5-0.5l-0.5-23.2c0-0.3,0.2-0.5,0.5-0.5
					c0,0,0,0,0,0c0.3,0,0.5,0.2,0.5,0.5L428.5,661.6z"/>
				<path class="st3" d="M462.3,616.6c-0.1,0.2-0.3,0.3-0.5,0.3c-0.1,0-0.1,0-0.2,0c-7.8-3.2-19.8-8-20.8-8.2
					c-0.3,0-0.5-0.2-0.5-0.5c0-0.3,0.2-0.5,0.5-0.5c0.9,0,16.4,6.3,21.1,8.2C462.3,616,462.4,616.3,462.3,616.6z"/>
				<path class="st3" d="M477.8,581.8v19.1c0,0.3-0.2,0.5-0.5,0.5c-0.3,0-0.5-0.2-0.5-0.5v-19.1c0-0.3,0.2-0.5,0.5-0.5
					C477.6,581.3,477.8,581.5,477.8,581.8z"/>
				<path class="st3" d="M493.3,560.9V580c0,0.3-0.2,0.5-0.5,0.5c-0.3,0-0.5-0.2-0.5-0.5v-19.1c0-0.3,0.2-0.5,0.5-0.5
					C493.1,560.4,493.3,560.6,493.3,560.9z"/>
				<path class="st3" d="M392.3,699.7c-0.1,0-0.1,0-0.2,0c-0.2,0-0.4-0.1-0.5-0.3l-6.8-16.9c-0.1-0.3,0-0.5,0.3-0.6
					c0.2-0.1,0.5,0,0.7,0.3l6.8,16.9C392.7,699.3,392.6,699.6,392.3,699.7z"/>
				<path class="st3" d="M457.6,678.4c-1.6,1.9-9.8,11.6-10.9,12.3c-0.1,0-0.2,0.1-0.2,0.1c-0.2,0-0.3-0.1-0.4-0.2
					c-0.1-0.2-0.1-0.6,0.2-0.7c0.8-0.4,7-7.6,10.7-12.1c0.2-0.2,0.5-0.2,0.7-0.1C457.7,677.8,457.7,678.1,457.6,678.4z"/>
				<path class="st3" d="M372,720.3c-0.1,0.2-0.3,0.3-0.5,0.3c-0.1,0-0.2,0-0.2,0l-17.5-8.5c-0.2-0.1-0.4-0.4-0.2-0.7
					s0.4-0.3,0.7-0.2l17.5,8.5C372,719.8,372.1,720.1,372,720.3z"/>
				<path class="st3" d="M436.1,723.4c-0.1,0.1-0.2,0.2-0.4,0.2c-0.1,0-0.2,0-0.3-0.1c-6.7-5.1-17.1-12.9-18-13.2
					c-0.3-0.1-0.4-0.3-0.3-0.6c0.1-0.3,0.4-0.4,0.6-0.3c0.9,0.2,14.2,10.3,18.3,13.4C436.2,722.9,436.2,723.2,436.1,723.4z"/>
				<path class="st3" d="M466.4,703l-4.9,18.4c-0.1,0.2-0.3,0.4-0.5,0.4c0,0-0.1,0-0.1,0c-0.3-0.1-0.4-0.4-0.3-0.6l4.9-18.5
					c0.1-0.3,0.3-0.4,0.6-0.4C466.3,702.4,466.5,702.7,466.4,703z"/>
				<path class="st3" d="M553.3,612.6l-13,6.3c-0.1,0-0.1,0-0.2,0c-0.2,0-0.4-0.1-0.5-0.3c-0.1-0.2,0-0.5,0.2-0.7l12.9-6.3
					C552.9,612,553.1,612.3,553.3,612.6z"/>
				<path class="st3" d="M525.5,581.5l-7.2,18.1c-0.1,0.2-0.3,0.3-0.5,0.3c-0.1,0-0.1,0-0.2,0c-0.3-0.1-0.4-0.4-0.3-0.6l7.2-18.1
					c0.1-0.3,0.4-0.4,0.6-0.3C525.4,580.9,525.6,581.2,525.5,581.5z"/>
				<path class="st3" d="M504.7,625.7c0,0.2-0.2,0.4-0.5,0.4c0,0-0.1,0-0.1,0l-22.9-3.9c-0.3,0-0.5-0.3-0.4-0.6
					c0-0.3,0.3-0.4,0.6-0.4l22.9,3.9C504.5,625.2,504.7,625.5,504.7,625.7z"/>
				<path class="st3" d="M531.8,644.7c-0.2,0.8-6.8,11.1-10.5,16.8c-0.7,0.4-1.3,0.8-1.9,1.1c4.6-7.1,11.2-17.3,11.5-18.1
					c0-0.3,0.3-0.4,0.6-0.4C531.7,644.1,531.9,644.4,531.8,644.7z"/>
				<path class="st8" d="M327.7,607c0.1,0.2,0,0.5-0.2,0.7l-20.9,10.9c-0.1,0-0.2,0-0.2,0c-0.2,0-0.3-0.1-0.4-0.3
					c-0.1-0.2,0-0.5,0.2-0.7l20.9-10.9C327.2,606.7,327.5,606.8,327.7,607z"/>
				<path class="st8" d="M340.5,640v16.8c-0.3-0.2-0.7-0.5-1-0.7v-16c0-0.3,0.2-0.5,0.5-0.5C340.2,639.5,340.5,639.7,340.5,640z"/>
				<path class="st8" d="M354,610.1l-1.8-17.3c0-0.3,0.2-0.5,0.5-0.5c0.3,0,0.5,0.2,0.5,0.5l1.8,17.3c0,0.3-0.2,0.5-0.5,0.5h0
					C354.3,610.5,354,610.3,354,610.1z"/>
				<path class="st8" d="M363.9,556.7c-0.1,0.1-0.2,0.1-0.3,0.1c-0.2,0-0.3-0.1-0.4-0.2l-5.9-9.2c0.3-0.2,0.5-0.4,0.8-0.6l5.9,9.2
					C364.2,556.3,364.1,556.6,363.9,556.7z"/>
				<path class="st8" d="M372,720.3c-0.1,0.2-0.3,0.3-0.5,0.3c-0.1,0-0.2,0-0.2,0l-17.5-8.5c-0.2-0.1-0.4-0.4-0.2-0.7
					s0.4-0.3,0.7-0.2l17.5,8.5C372,719.8,372.1,720.1,372,720.3z"/>
				<path class="st8" d="M382.3,650.3l-10.9,20.9c-0.1,0.2-0.3,0.3-0.4,0.3c-0.1,0-0.2,0-0.2-0.1c-0.2-0.1-0.3-0.4-0.2-0.7
					l10.9-20.9c0.1-0.2,0.4-0.3,0.7-0.2C382.3,649.7,382.4,650,382.3,650.3z"/>
				<path class="st8" d="M376.8,576.1l10-15.5c0.1-0.2,0.5-0.3,0.7-0.1c0.2,0.2,0.3,0.5,0.1,0.7l-10,15.5c-0.1,0.1-0.3,0.2-0.4,0.2
					c-0.1,0-0.2,0-0.3-0.1C376.8,576.6,376.7,576.3,376.8,576.1z"/>
				<path class="st8" d="M392.6,699.1c0.1,0.3,0,0.5-0.3,0.7c-0.1,0-0.1,0-0.2,0c-0.2,0-0.4-0.1-0.5-0.3l-6.8-16.9
					c-0.1-0.3,0-0.5,0.3-0.6c0.2-0.1,0.5,0,0.7,0.3L392.6,699.1z"/>
				<path class="st8" d="M399.6,630.1c0,0.2-0.2,0.4-0.5,0.4c0,0-0.1,0-0.1,0l-19.1-3.6c-0.3,0-0.5-0.3-0.4-0.6
					c0.1-0.3,0.3-0.5,0.6-0.4l19.1,3.6C399.5,629.6,399.6,629.8,399.6,630.1z"/>
				<path class="st8" d="M414.1,604.2c0.2,0.2,0.1,0.5-0.1,0.7c-0.1,0.1-0.2,0.1-0.3,0.1c-0.2,0-0.3-0.1-0.4-0.2l-10.9-14.6
					c-0.2-0.2-0.1-0.5,0.1-0.7c0.2-0.2,0.5-0.1,0.7,0.1L414.1,604.2z"/>
				<path class="st8" d="M428,638.4l0.5,23.2c0,0.3-0.2,0.5-0.5,0.5c0,0,0,0,0,0c-0.3,0-0.5-0.2-0.5-0.5l-0.5-23.2
					c0-0.3,0.2-0.5,0.5-0.5c0,0,0,0,0,0C427.8,637.9,428,638.1,428,638.4z"/>
				<path class="st8" d="M426.8,540.7l5.5-12.7c0.1-0.3,0.4-0.4,0.7-0.3c0.2,0.1,0.4,0.4,0.3,0.7l-5.5,12.7
					c-0.1,0.2-0.3,0.3-0.5,0.3c-0.1,0-0.1,0-0.2,0C426.8,541.2,426.7,540.9,426.8,540.7z"/>
				<path class="st8" d="M417.7,565.4c0-0.3,0.2-0.5,0.5-0.5h17.3c0.3,0,0.5,0.2,0.5,0.5c0,0.3-0.2,0.5-0.5,0.5h-17.3
					C417.9,565.9,417.7,565.7,417.7,565.4z"/>
				<path class="st8" d="M436,722.7c0.2,0.2,0.3,0.5,0.1,0.7c-0.1,0.1-0.2,0.2-0.4,0.2c-0.1,0-0.2,0-0.3-0.1
					c-6.7-5.1-17.1-12.9-18-13.2c-0.3-0.1-0.4-0.3-0.3-0.6c0.1-0.3,0.4-0.4,0.6-0.3C418.6,709.6,431.9,719.7,436,722.7z"/>
				<path class="st8" d="M457.5,677.7c0.2,0.2,0.2,0.5,0.1,0.7c-1.6,1.9-9.8,11.6-10.9,12.3c-0.1,0-0.2,0.1-0.2,0.1
					c-0.2,0-0.3-0.1-0.4-0.2c-0.1-0.2-0.1-0.6,0.2-0.7c0.8-0.4,7-7.6,10.7-12.1C457,677.5,457.3,677.5,457.5,677.7z"/>
				<path class="st8" d="M461.7,616.8c-7.8-3.2-19.8-8-20.8-8.2c-0.3,0-0.5-0.2-0.5-0.5c0-0.3,0.2-0.5,0.5-0.5
					c0.9,0,16.4,6.3,21.1,8.2c0.2,0.1,0.4,0.4,0.3,0.6c-0.1,0.2-0.3,0.3-0.5,0.3C461.8,616.9,461.7,616.9,461.7,616.8z"/>
				<path class="st8" d="M466.4,703l-4.9,18.4c-0.1,0.2-0.3,0.4-0.5,0.4c0,0-0.1,0-0.1,0c-0.3-0.1-0.4-0.4-0.3-0.6l4.9-18.5
					c0.1-0.3,0.3-0.4,0.6-0.4C466.3,702.4,466.5,702.7,466.4,703z"/>
				<path class="st8" d="M463.7,582.3c-0.1,0-0.3-0.1-0.4-0.2c-0.2-0.2-0.2-0.5,0-0.7c0.6-0.6,4.7-9.2,7.2-14.4
					c0.1-0.2,0.4-0.4,0.7-0.2s0.4,0.4,0.2,0.7c-1.1,2.3-6.5,13.8-7.4,14.7C463.9,582.2,463.8,582.3,463.7,582.3z"/>
				<path class="st8" d="M461.5,533.3c0.1-0.2,0.5-0.3,0.7-0.1l15.5,10c0.2,0.1,0.3,0.5,0.2,0.7c-0.1,0.1-0.2,0.2-0.4,0.2
					c-0.1,0-0.2,0-0.3-0.1l-15.5-10C461.4,533.8,461.3,533.5,461.5,533.3z"/>
				<path class="st8" d="M477.8,581.8v19.1c0,0.3-0.2,0.5-0.5,0.5c-0.3,0-0.5-0.2-0.5-0.5v-19.1c0-0.3,0.2-0.5,0.5-0.5
					C477.6,581.3,477.8,581.5,477.8,581.8z"/>
				<path class="st8" d="M463.2,651.8c0.1-0.3,0.3-0.5,0.6-0.4l19.1,3.6c0.3,0.1,0.5,0.3,0.4,0.6c0,0.2-0.2,0.4-0.5,0.4
					c0,0-0.1,0-0.1,0l-19.1-3.6C463.3,652.3,463.1,652,463.2,651.8z"/>
				<path class="st8" d="M492.3,580v-19.1c0-0.3,0.2-0.5,0.5-0.5c0.3,0,0.5,0.2,0.5,0.5V580c0,0.3-0.2,0.5-0.5,0.5
					C492.5,580.5,492.3,580.3,492.3,580z"/>
				<path class="st8" d="M498.7,673l-10.9,20.9c-0.1,0.2-0.3,0.3-0.4,0.3c-0.1,0-0.2,0-0.2,0c-0.2-0.1-0.3-0.4-0.2-0.7l10.9-20.9
					c0.1-0.2,0.4-0.3,0.7-0.2C498.7,672.5,498.8,672.8,498.7,673z"/>
				<path class="st8" d="M504.7,625.7c0,0.2-0.2,0.4-0.5,0.4c0,0-0.1,0-0.1,0l-22.9-3.9c-0.3,0-0.5-0.3-0.4-0.6
					c0-0.3,0.3-0.4,0.6-0.4l22.9,3.9C504.5,625.2,504.7,625.5,504.7,625.7z"/>
				<path class="st8" d="M525.5,581.5l-7.2,18.1c-0.1,0.2-0.3,0.3-0.5,0.3c-0.1,0-0.1,0-0.2,0c-0.3-0.1-0.4-0.4-0.3-0.6l7.2-18.1
					c0.1-0.3,0.4-0.4,0.6-0.3C525.4,580.9,525.6,581.2,525.5,581.5z"/>
				<path class="st8" d="M531.8,644.7c-0.2,0.8-6.8,11.1-10.5,16.8c-0.7,0.4-1.3,0.8-1.9,1.1c4.6-7.1,11.2-17.3,11.5-18.1
					c0-0.3,0.3-0.4,0.6-0.4C531.7,644.1,531.9,644.4,531.8,644.7z"/>
				<path class="st8" d="M553.3,612.6l-13,6.3c-0.1,0-0.1,0-0.2,0c-0.2,0-0.4-0.1-0.5-0.3c-0.1-0.2,0-0.5,0.2-0.7l12.9-6.3
					C552.9,612,553.1,612.3,553.3,612.6z"/>
				<linearGradient id="SVGID_10_" gradientUnits="userSpaceOnUse" x1="442.7358" y1="736.2116" x2="453.0853" y2="736.2116">
					<stop  offset="0" style="stop-color:#FFFFFF;stop-opacity:0.5"/>
					<stop  offset="0.8362" style="stop-color:#F07125"/>
				</linearGradient>
				<path class="st19" d="M453,744.2C453,744.2,453.1,744.2,453,744.2l-2.2-0.1l-1-0.1l-7-13.7c-0.2-0.7,0-1.4,0.5-1.8
					c0.6-0.5,1.6-0.4,2.2,0.3C445.5,728.8,450.9,739.9,453,744.2z"/>
				<linearGradient id="SVGID_11_" gradientUnits="userSpaceOnUse" x1="345.4653" y1="661.022" x2="515.4152" y2="661.022">
					<stop  offset="0" style="stop-color:#FFFFFF;stop-opacity:0.5"/>
					<stop  offset="0.8362" style="stop-color:#F07125"/>
				</linearGradient>
				<path class="st20" d="M515.4,665C515.4,665,515.4,665,515.4,665c-7.8,20.8-15.6,41.6-23.5,62.3c-39.7,0.3-79.4,0.6-119.2,1
					c-0.7,0-1.3,0-2,0c-3.5,0-6.9,0.1-10.4,0.1c2.7,1.7,5.5,3.3,8.6,4.8c0,0,0,0,0,0c3.5,1.8,7.3,3.5,11.2,5.1l-17.8-1.5l-4.8-0.4
					l-12.2-1c0.1-1.2,0.3-2.4,0.4-3.7c0.1-1.1,0.2-2.2,0.4-3.3c0.2-1.9,0.4-3.9,0.6-5.9c0-0.3,0-0.5,0.1-0.8c0.9-0.6,1.8-1.3,2.8-2
					c3.2-2.2,6.7-4.7,10.3-7.4c0.9-0.7,1.8-1.3,2.7-2c0.3-0.2,0.6-0.5,1-0.7c5.2-3.9,10.7-8.2,16.2-12.8
					c24.6-20.5,50.1-47.2,56-74.6c9.6-45,36.5-42.2,52.2-33.2c0.7,0.4,1.3,0.8,2,1.2c2.8,1.8,5.1,3.7,6.8,5.6
					c10.9,11.8,18.2,67.3,18.2,67.3L515.4,665z"/>
				<linearGradient id="SVGID_12_" gradientUnits="userSpaceOnUse" x1="345.9053" y1="696.8961" x2="382.4946" y2="696.8961">
					<stop  offset="4.787660e-03" style="stop-color:#640042;stop-opacity:0.2"/>
					<stop  offset="0.9388" style="stop-color:#002544"/>
				</linearGradient>
				<path class="st21" d="M380,696.8c-2.3,10.9-5.8,21.8-8.3,29.1c-0.3,0.8-0.6,1.6-0.8,2.3c-3.5,0-6.9,0.1-10.4,0.1
					c2.7,1.7,5.5,3.3,8.6,4.8c0,0,0,0,0,0.1c-0.3,0.9-0.5,1.3-0.5,1.3l-1.6-0.2l-8.7-1.1l-12.4-1.5c0.1-1.1,0.2-2.2,0.4-3.3
					c0.2-1.9,0.4-3.9,0.6-5.9c0-0.3,0-0.5,0.1-0.8c0.2-1.5,0.3-3,0.4-4.6c0.1-0.7,0.1-1.5,0.2-2.2c0.6-6.4,1.1-13.1,1.6-19.5
					c0.1-1,0.1-2,0.2-2.9c0-0.1,0-0.2,0-0.3c0.1-1,0.2-2,0.2-3c0.1-1.6,0.2-3.1,0.3-4.6c0-0.6,0.1-1.2,0.1-1.8
					c0-0.4,0.1-0.9,0.1-1.3c0.1-0.8,0.1-1.6,0.2-2.4c0-0.4,0.1-0.9,0.1-1.3c0.1-2.1,0.3-4,0.4-5.7c0-0.2,0-0.4,0-0.6
					c0.1-2.1,0.2-3.8,0.3-5c0-0.1,0-0.2,0-0.3c0-0.6,0.1-1.1,0.1-1.3v0c3.6-2.1,7.8-4,12-5c3.5-0.8,7.1-1,10.3,0.1
					c1.8,0.6,3.6,1.7,5.1,3.2C384.1,668.7,383,682.7,380,696.8z"/>
				<linearGradient id="SVGID_13_" gradientUnits="userSpaceOnUse" x1="333.0454" y1="547.8618" x2="400.4682" y2="547.8618">
					<stop  offset="0" style="stop-color:#FFFFFF"/>
					<stop  offset="0.7781" style="stop-color:#87AEB4"/>
				</linearGradient>
				<path class="st22" d="M400.5,534.9c-0.7,24.4-46.7,31.8-67.4,33.9c26.3-27.3,51-37.5,51-37.5c2.3-1,6.4-2.6,11.8-4.4
					C398.9,527.7,400.6,530.2,400.5,534.9z"/>
			</g>
			<g id="head">
				<path id="face" class="st23" d="M450.4,418c-13.1-1.9-25.3,12.5-29.2,17.1c-5.2,6.1-8,13.7-10.7,25.3c-1.5,1.4-3.6,3.2-6,5.5
					c-6.5,6.2-7.2,7.4-7.1,8.6c0.5,3.4,7.6,5,8.7,5.2c-0.3,2.1-0.6,5.2-0.7,9.1c-0.2,9-0.6,23.2,7,27.9c2.2,1.4,4.8,1.8,8.1,1.5
					c5.4-0.5,45.5-6.6,54.8-39.8C482.5,452.4,467.9,420.5,450.4,418z"/>
				<g id="neck">
					<path class="st23" d="M463.9,546.2c-1.1,1.8-5.6,9.4-14.6,11.6c-9.1,2.3-18.9-1.6-24-8.3c-1.6-2-2.4-5-2.8-9.4
						c-0.4-4.2-0.5-9.9-0.6-17.3c0-1.8,0-3.5,0-5.2c0.2-7.2,1.4-13.6,5.2-19.9c0.2-0.3,0.3-0.5,0.4-0.7c7.7-11.6,32.6-14.8,40.5-5.3
						c3.1,3.7,0.6,5.7-0.6,31C466.9,535.9,467.4,540.4,463.9,546.2z"/>
					<path class="st24" d="M456.8,507.5c0,0-20.9,30-34.3,32.7c-0.4-4.2-0.5-9.9-0.6-17.3c0-1.8,0-3.5,0-5.2
						c2.5-0.4,5.1-0.9,7.8-1.5C440.2,513.9,449.3,510.7,456.8,507.5z"/>
				</g>
				
					<rect id="brow" x="415.7" y="448.2" transform="matrix(0.9438 0.3304 -0.3304 0.9438 172.5978 -114.4665)" class="st25" width="14.6" height="4.5"/>
				<circle id="eye" cx="415.5" cy="459" r="2.3"/>
				<path d="M410.5,498.2c-0.3,0-0.6-0.2-0.6-0.6c0-0.3,0.2-0.6,0.6-0.6c2.2-0.2,6.5-0.9,10-4.4c1.4-1.3,2.4-3,3.2-4.8
					c0.1-0.3,0.5-0.5,0.8-0.3c0.3,0.1,0.5,0.5,0.3,0.8c-0.8,2-2,3.7-3.4,5.2C417.5,497.2,412.9,498.1,410.5,498.2
					C410.5,498.2,410.5,498.2,410.5,498.2z"/>
				<g>
					<path class="st25" d="M477.1,481.6c-1.9,9-4.7,21.6-9,23.6c-0.3,0.2-0.7,0.2-1,0.3c-5.9,0.3-11.6-19.1-11.6-26.5
						c0-2.8,0.4-5.4,0.4-5.4c0.5-1.1,1-2.6,1.1-4.6c0.1-1.2,0-2.3-0.1-3.1c-0.2-0.5-0.6-1.1-1.2-1.4c-4.2-1.9-12.9,13.1-17,11.4
						c-2-0.8-2.4-5.5-1.8-9.1c1.8-12,15.8-24.9,15.5-25.9c-0.1-0.3-0.3-0.6-0.3-0.6c-0.1-0.2-0.2-0.4-0.4-0.6
						c-1.2-1.5-3.3-2-9.5-6.2c-8.3-5.6-15.1-10.2-17.4-17.2c-4-12.2,3.9-23.8,3.9-23.8l15.9,20.4c-0.3-0.5-6.4-12.3-1-19.2
						l12.8,17.6c-0.3-0.7-4.1-8.9-0.5-15c2.1,2.3,5,5.8,8.2,10.4c6.5,9.5,13.8,23.6,15.8,41.5C481.3,462.3,478.9,473.5,477.1,481.6z
						"/>
					<path class="st26" d="M477.1,481.6c-1.9,9-4.7,21.6-9,23.6c9.3-42.9,1.4-80.1-4.1-98.7c6.5,9.5,13.8,23.6,15.8,41.5
						C481.3,462.3,478.9,473.5,477.1,481.6z"/>
				</g>
				<g id="ear">
					<path class="st23" d="M458.3,477.6c-2.8,5.8-9.1,8.4-14.1,6c-3.4-1.7-5.3-5.3-5.2-9.3c0-1.8,0.5-3.7,1.4-5.5
						c2.8-5.8,9.1-8.5,14.1-6c1.4,0.7,2.6,1.8,3.4,3C460.1,468.9,460.3,473.5,458.3,477.6z"/>
					
						<linearGradient id="SVGID_14_" gradientUnits="userSpaceOnUse" x1="480.9621" y1="482.1166" x2="495.3549" y2="482.1166" gradientTransform="matrix(0.8968 0.4423 -0.4423 0.8968 223.7144 -179.0998)">
						<stop  offset="1.944953e-03" style="stop-color:#19233D;stop-opacity:0.5"/>
						<stop  offset="0.8362" style="stop-color:#F07125"/>
					</linearGradient>
					<path class="st27" d="M458,465.8l-18.9,8.5c0-1.8,0.5-3.7,1.4-5.5c2.8-5.8,9.1-8.5,14.1-6C456,463.4,457.1,464.5,458,465.8z"/>
				</g>
			</g>
			<g id="hands">
				<path class="st23" d="M729.4,620.7c0,0.1-0.1,0.1-0.2,0.1c0,0,0,0,0,0c-1.2,0.2-6-2.6-11.2-5.8c0,0-17.9-10.7-19.6-9.7
					c-0.1,0-0.1,0.1-0.2,0.1c0,0-0.1,0.1-0.1,0.1c-0.3,0.3-0.3,0.7-0.9,1.7c-1.7,2.8-4.1,4.2-5.7,5.1c-7.2,4.1-30,11.8-30,11.8
					c-2.6,0.9-4.8,2.3-6.9,4.1c-16.3,14.9-18.4,59.6-45,105.9c-1.6,2.7-3.4,5.8-6.2,7.9c-0.2,0.1-0.4,0.3-0.6,0.4
					c-0.4,0.3-0.9,0.6-1.4,0.9c-0.1,0.1-0.3,0.2-0.5,0.2c-0.1,0-0.1,0.1-0.2,0.1c-0.1,0.1-0.3,0.1-0.4,0.2c-0.3,0.1-0.5,0.2-0.8,0.3
					c-17.9,6.2-45.3-27.5-61-46.4c-1.5-1.8-4.6-5.6-8.7-11.1c-2.5-3.4-5.3-7.4-8.4-11.9c-2-3-4.1-6.2-6.3-9.7c0-0.1,0-0.1,0.1-0.2
					c13.9-8.2,27.8-16.4,41.8-24.5c2,3.2,4,6.4,6,9.6c7.1,11.5,14.3,23,21.4,34.5c31.4-45.9,48.1-63.7,57.8-70.9
					c6.1-4.5,40.2-29.9,40.7-29.6c0,0,0,0,0,0C705.7,596.3,731.2,618.6,729.4,620.7z"/>
				<path class="st28" d="M563.2,650l-41.5,24.8c-2-3-4.1-6.2-6.3-9.7c0-0.1,0-0.1,0.1-0.2c13.9-8.2,27.8-16.4,41.8-24.5
					C559.2,643.6,561.2,646.8,563.2,650z"/>
				<linearGradient id="SVGID_15_" gradientUnits="userSpaceOnUse" x1="530.0778" y1="686.3333" x2="654.7004" y2="686.3333">
					<stop  offset="1.944953e-03" style="stop-color:#19233D;stop-opacity:0.5"/>
					<stop  offset="0.8362" style="stop-color:#F07125"/>
				</linearGradient>
				<path class="st29" d="M654.7,628.2c-16.3,14.9-18.4,59.6-45,105.9c-1.9,3.1-3.8,6.2-6.7,8.3c-0.4,0.3-0.9,0.6-1.4,0.9
					c-0.1,0.1-0.3,0.2-0.5,0.2c-0.1,0-0.1,0.1-0.2,0.1c-0.1,0.1-0.3,0.1-0.4,0.2c-0.3,0.1-0.5,0.2-0.8,0.3
					c-17.9,6.2-45.3-27.5-61-46.4c-1.5-1.8-4.6-5.6-8.7-11.1c29.9,33.3,48.4,36.7,59.6,33.9c36.2-9.1,42.7-94.1,62.8-92.8
					C653.2,627.8,654,628,654.7,628.2z"/>
				<linearGradient id="SVGID_16_" gradientUnits="userSpaceOnUse" x1="697.3711" y1="612.2349" x2="729.2029" y2="612.2349">
					<stop  offset="1.944953e-03" style="stop-color:#19233D;stop-opacity:0.5"/>
					<stop  offset="0.8362" style="stop-color:#F07125"/>
				</linearGradient>
				<path class="st30" d="M729.2,620.8c-1.2,0.2-6-2.6-11.2-5.8c0,0-17.9-10.7-19.6-9.7c-0.1,0-0.1,0.1-0.2,0.1
					c-0.6-0.5-1-1-0.8-1.4c0.4-1,6.3,0.5,7.8,1C709.6,606.2,717.7,609.5,729.2,620.8z"/>
				<linearGradient id="SVGID_17_" gradientUnits="userSpaceOnUse" x1="642.3546" y1="598.8224" x2="683.1039" y2="598.8224">
					<stop  offset="0" style="stop-color:#FFFFFF"/>
					<stop  offset="0.7781" style="stop-color:#87AEB4"/>
				</linearGradient>
				<path class="st31" d="M683.1,584c-0.5,1.5-1.3,3.4-2.4,5.5c-6,11.2-15.7,16.4-19.5,18.5c-6.4,3.4-12.9,5-18.8,5.6
					C648.5,609.1,682.5,583.7,683.1,584C683.1,584,683.1,584,683.1,584z"/>
				<path class="st23" d="M444.1,757.8c-2.1,2.7-4.2,5.3-6.4,8c-2.7,3.3-5.3,6.7-8,10c-0.1,0.1-0.1,0.2-0.2,0.2
					c-3.8-0.1-7.5-0.3-11.2-0.5h0c-3-0.2-5.8-0.4-8.7-0.7c-0.8-0.1-1.5-0.1-2.3-0.2c-0.5,0-1-0.1-1.5-0.1c-0.5-0.1-1-0.1-1.4-0.2
					c-5.5-0.6-10.8-1.2-15.9-2c-0.8-0.1-1.7-0.3-2.5-0.4c-4.3-0.7-8.4-1.5-12.4-2.3c-0.7-0.1-1.3-0.3-2-0.4c-0.7-0.1-1.3-0.3-2-0.4
					c-2.6-0.6-5.2-1.2-7.7-1.8h0c-10.1-2.5-19-5.4-26.8-8.2c-0.9-0.3-1.8-0.7-2.6-1c-9-3.5-16.4-6.9-22.2-9.9
					c-2.8-1.4-5.2-2.8-7.5-4.2c-0.4-0.2-0.7-0.4-1.1-0.7c-0.4-0.2-0.7-0.5-1.1-0.7c-1.6-1-3-2-4.3-3c-0.3-0.2-0.6-0.5-0.9-0.8
					c-0.3-0.2-0.6-0.5-0.9-0.8c-0.5-0.4-0.9-0.8-1.4-1.2c-0.2-0.2-0.3-0.3-0.5-0.5c-0.2-0.2-0.4-0.3-0.5-0.5
					c-0.3-0.3-0.5-0.5-0.8-0.8c-1-1-1.9-2.1-2.7-3.2c-0.3-0.4-0.6-0.8-0.9-1.2c0-0.1-0.1-0.1-0.1-0.2c-0.3-0.4-0.5-0.8-0.8-1.2
					c0,0,0,0,0,0c0-0.1-0.1-0.2-0.2-0.2c-13.4-21-0.8-66.4,6.9-89c1.3-3.8,2.4-6.9,3.3-9.2c0-0.1,0-0.1,0.1-0.2
					c0-0.1,0.1-0.2,0.1-0.2c0-0.1,0.1-0.3,0.2-0.4c0,0,0-0.1,0.1-0.2c0.1-0.3,0.3-0.7,0.4-1c0.2-0.5,0.4-0.9,0.5-1.3
					c0.1-0.2,0.2-0.5,0.3-0.7c0,0,0-0.1,0.1-0.2c0,0,0-0.1,0-0.1c6.8,5,13.6,9.9,20.4,14.8c4.9,3.5,9.7,7.1,14.6,10.6
					c1,0.8,2.1,1.5,3.1,2.3c2.7,2,5.4,4,8.2,5.9c-0.8,1-2,2.5-3.1,4.4c0,0,0,0,0,0c-0.2,0.2-0.3,0.4-0.4,0.7c-0.5,0.7-1.2,2-2.1,3.6
					c-1.3,2.4-2.7,5.6-3.8,9.4c-1.5,5.4-2.3,11.9-0.5,18.8c0,0.1,0,0.1,0.1,0.2c0,0.1,0.1,0.3,0.1,0.5c1.3,4.7,3.6,7.9,7.1,12.9
					c0,0,0,0,0,0c0.2,0.2,2.3,3.3,5.1,6.6c0.8,0.9,1.5,1.8,2.4,2.7c0.2,0.2,0.5,0.5,0.7,0.7c2.4,2.5,5.5,4.8,8.9,7.1
					c0.3,0.2,0.7,0.5,1,0.7c0,0,0,0,0.1,0c2.7,1.7,5.5,3.3,8.6,4.8c0,0,0,0,0,0c3.5,1.8,7.3,3.5,11.2,5.1
					c16.8,7,35.3,12.2,44.8,14.8c0.3,0.1,0.5,0.2,0.8,0.2c0.8,0.2,1.7,0.4,2.6,0.7c0.6,0.2,1.2,0.3,1.9,0.5
					C434.4,755.5,439,756.6,444.1,757.8z"/>
				<path class="st28" d="M409.7,774.8c-49.3-4.3-81.6-17.8-99.3-27c-12-6.2-18.7-11.3-23.7-19.1c-13.4-21-0.8-66.4,6.9-89
					c1.3-3.7,2.4-6.9,3.3-9.2c0-0.1,0-0.1,0.1-0.2c0-0.1,0.1-0.1,0.1-0.2c0.1-0.1,0.1-0.3,0.2-0.4c0-0.1,0-0.1,0.1-0.2
					c0.4-1,0.8-2,1.2-2.9c0-0.1,0-0.1,0.1-0.2c0,0,0-0.1,0-0.1c15.4,11.2,30.9,22.5,46.3,33.7c-0.9,1.2-2.2,2.9-3.6,5
					c-9.6,5.8-26.7-18.2-37.3-14.6c-11.9,4.1-18.4,43.8-0.9,71.9c9.2,14.7,30.3,22.8,71,39.1C390.4,768,402.2,772.1,409.7,774.8z"/>
				<linearGradient id="SVGID_18_" gradientUnits="userSpaceOnUse" x1="315.675" y1="718.3144" x2="428.5253" y2="718.3144">
					<stop  offset="1.944953e-03" style="stop-color:#19233D;stop-opacity:0.5"/>
					<stop  offset="0.8362" style="stop-color:#F07125"/>
				</linearGradient>
				<path class="st32" d="M428.5,754c-0.6,0.2-1.2,0.5-1.9,0.7c-9,3.3-18.5,4.4-28,3.8c0,0,0,0,0,0c-14.9-0.9-29.7-6.1-42.6-13.4
					c-1.4-0.8-2.8-1.6-4.2-2.5c-6.8-4.3-13-9.1-18.2-14.2c-3.3-3.2-6.2-6.5-8.7-9.9c-10.3-14.1-9.4-24.6-9.1-27.3
					c0.6-5,2.5-7.6,3.6-8.8c2.2-2.4,5.2-3.7,8.2-4.2c2.8-0.6,5.7-0.5,7.8-0.3c-1.5,5.4-2.3,11.9-0.5,18.8c0,0.1,0,0.1,0.1,0.2
					c0,0.1,0.1,0.3,0.1,0.5c0.7,2.6,2.5,8.1,7.1,12.9c0,0,0,0,0,0c0.2,0.2,2.3,3.3,5.1,6.6c0.8,0.9,1.5,1.8,2.4,2.7
					c0.2,0.2,0.5,0.5,0.7,0.7c2.4,2.5,5.5,4.8,8.9,7.1c0.3,0.2,0.7,0.5,1,0.7c0,0,0,0,0.1,0c2.7,1.7,5.5,3.3,8.6,4.8c0,0,0,0,0,0
					c3.5,1.8,7.3,3.5,11.2,5.1c16.8,7,35.3,12.2,44.8,14.8c0.3,0.1,0.5,0.2,0.8,0.2C426.8,753.5,427.6,753.7,428.5,754z"/>
				<path class="st23" d="M472.3,779.1c0,0.4-0.2,0.6-0.4,0.7c-0.2,0.1-0.4,0-0.6-0.1c-0.2-0.1-0.3-0.2-0.5-0.3
					c-0.1-0.1-0.2-0.2-0.3-0.3c-0.5-0.5-1-1.1-1.4-1.7c-0.5-0.7-0.9-1.2-0.9-1.3c-0.6-0.9-1.7-2.8-3.2-8.2c0,0,0,0,0-0.1
					c0-0.2-0.1-0.3-0.1-0.5c-0.8-2.6-1.4-4.5-2-6c-0.5-0.3-1.1-0.9-2-1.4c0,0-0.1-0.1-0.2-0.1c0,0-0.1,0-0.1-0.1
					c-2.4-1.7-3.6-2.4-5.2-2.9h0c-1.5-0.5-3-0.6-4.1,0c-1.4,0.7-1.8,2.2-2,4.1c-0.2,3,0.4,7-0.6,10.2c-0.4,1.3-1.1,2.5-2.1,3.5
					c-3.6,3.2-10.2,2.9-16.8,1.2c-3.4-0.9-6.8-2-9.8-3.3c-2.8-1.1-5.2-2.3-7.1-3.3c-0.7-0.4-1.3-0.7-1.7-0.9c2-1.7,4.1-3.4,6.4-5.1
					c0.8-0.6,1.7-1.3,2.6-1.9c3.2-2.3,6.6-4.6,10.3-6.8c1.2-0.7,2.3-1.4,3.5-2.1c1.1-0.6,2.2-1.2,3.2-1.8c0.9-0.5,1.7-0.9,2.6-1.4
					c3.3-1.7,6.4-3.2,9.5-4.5c0.2-0.1,0.5-0.2,0.7-0.3c0.3-0.1,0.5-0.2,0.8-0.3c0.4-0.2,0.8-0.3,1.2-0.5c0,0,0.1,0,0.1,0.1
					c0.2,0.1,0.4,0.2,0.5,0.3c0.1,0.1,0.2,0.1,0.3,0.2c0,0,0,0,0.1,0c1.7,1.2,3.6,2.6,5.6,4.3c0.5,0.4,1,0.9,1.5,1.4
					c1.2,1.2,2.3,2.3,3.3,3.4c1.9,2.2,3.5,4.2,4.7,6.1c0.2,0.8,0.5,1.6,0.7,2.4c1.3,4.6,2.2,8.5,2.8,11.5
					C472.2,776.3,472.5,778.2,472.3,779.1z"/>
				<path class="st23" d="M431.7,764.8c1.7,0.1,4.1,0.4,7,1.2c7.2,2,7.4,4.7,13.3,6.4c6.6,1.9,10.6-0.2,14.2,3.3
					c0.5,0.5,1.6,1.6,1.3,2.4c-0.6,1.7-5.9,1.2-10.4,0.9c-12.8-0.9-7.6,0-13.1-0.5c-11-1-21.5-2.5-28-3.4
					C421.2,771.7,426.4,768.3,431.7,764.8z"/>
				<linearGradient id="SVGID_19_" gradientUnits="userSpaceOnUse" x1="439.7853" y1="746.6986" x2="458.6553" y2="746.6986">
					<stop  offset="1.944953e-03" style="stop-color:#19233D;stop-opacity:0.5"/>
					<stop  offset="0.8362" style="stop-color:#F07125"/>
				</linearGradient>
				<path class="st33" d="M458.7,748.5c-1.1,0.3-2.1,0.5-3.2,0.7c-4.7,0.8-9.3,0.7-13.2,0.3c-0.9-0.1-1.7-0.2-2.5-0.3
					c3.3-1.7,6.4-3.2,9.5-4.5c0.2-0.1,0.5-0.2,0.7-0.3c0.3-0.1,0.5-0.2,0.8-0.3c0.4-0.2,0.8-0.3,1.2-0.5c0,0,0.1,0,0.1,0.1
					c0.2,0.1,0.4,0.2,0.5,0.3c0.1,0.1,0.2,0.1,0.3,0.2c0,0,0,0,0.1,0C454.8,745.4,456.7,746.8,458.7,748.5z"/>
			</g>
			<path class="st3" d="M453,744.2c-0.1-0.1-0.2-0.2-0.3-0.2c-0.2-0.1-0.4-0.2-0.5-0.3c-0.1,0-0.1,0-0.1-0.1
				c-0.4,0.2-0.8,0.3-1.2,0.5c-0.3,0.1-0.5,0.2-0.8,0.3l-0.2-0.4l-7-13.7c-0.2-0.7,0-1.4,0.5-1.8c0.6-0.5,1.6-0.4,2.2,0.3
				C445.5,728.8,450.9,739.9,453,744.2z"/>
		</g>
		<g id="hands_1_">
			<path class="st10" d="M509.3,556.3c-0.3,1.2-0.6,2.2-0.8,3.2c0,0.1-0.1,0.3-0.1,0.4c-0.1,0.7-0.3,1.4-0.4,2
				c-0.4,2.7-0.6,5-0.6,7.3c-0.1,4.3,0.2,8.8-0.3,16.1c-0.1,1.2-0.3,3.8-1.3,4.1c-0.2,0-0.5,0.1-0.8-0.1c-0.7-0.4-0.7-1.7-0.7-2.2
				c0-1.4-0.1-6.8-0.4-14.8c0,0-0.1,0-0.1,0c-0.3,3.9-0.8,9.9-1.2,15.7c-0.1,1.2-0.3,3.8-1.5,4.2c-0.2,0-0.6,0.1-0.9-0.1
				c-1-0.5-0.9-2.4-0.9-3.1v-0.8c0-2.7,0.1-8.5,0.2-16.2c-0.1,0-0.3,0-0.4-0.1c-0.5,3.8-1.3,10.6-2.2,17.1c-0.2,1.2-0.5,3.8-1.7,4.1
				c0,0-0.4,0.1-0.9-0.1c-0.7-0.4-1.4-3.6,1.1-22c-0.1,0-0.3-0.1-0.4-0.1c-2.3,9.3-3.6,16.8-4,17.9c-0.3,0.8-0.7,1.4-1.3,1.5
				c0,0-0.4,0.1-0.8-0.2c-1.5-0.9-0.4-6.1-0.4-6.1c0.4-2.2,1-5.2,1.6-9.1c0.6-3.9,1.3-8.7,2-14.3c-0.6,0.8-1.4,2-2.2,3.6
				c-1,2.2-0.9,3.1-1.9,4.7c-1,1.6-2.9,3.5-3.7,3.1c-1.5-0.8,1.8-10,3.1-12.4c0.3-0.5,0.6-1.1,0.6-1.1c0.2-0.3,0.4-0.7,0.6-1
				c0.5-0.8,0.9-1.6,1.4-2.2c0.9-1.4,1.7-2.5,2.6-3.5l16.3,3L509.3,556.3z"/>
			<path class="st11" d="M509.3,556.3c-0.3,1.2-0.6,2.2-0.8,3.2c0,0.1-0.1,0.3-0.1,0.4c-0.1,0.7-0.3,1.4-0.4,2
				c-11.4,1.9-17.2-1.8-19.7-4.3c0.5-0.8,0.9-1.6,1.4-2.2c0.9-1.4,1.7-2.5,2.6-3.5l16.3,3L509.3,556.3z"/>
			<path class="st2" d="M511.5,558.6c-1.1,0.5-4.3,1.9-8.5,2.1c-2.4,0.1-5.1-0.1-7.9-1.2c-4.1-1.5-6.8-3.9-8.2-5.5
				c0.1-2,0.1-4.1,0-6.4c-0.2-4.5-1-8.5-1.8-11.8c5-2.7,10.6-3.1,15.4-1.7c3.5,1,6.6,3,8.9,5.9C513.3,545.1,514,552.2,511.5,558.6z"
				/>
			<linearGradient id="SVGID_20_" gradientUnits="userSpaceOnUse" x1="500.5098" y1="547.4069" x2="512.975" y2="547.4069">
				<stop  offset="0.144" style="stop-color:#365588;stop-opacity:0.7"/>
				<stop  offset="1" style="stop-color:#002544;stop-opacity:0.4"/>
			</linearGradient>
			<path class="st34" d="M511.5,558.6c-1.1,0.5-4.3,1.9-8.5,2.1c0.1-0.3,0.3-0.6,0.5-0.9c6.2-10.6,2-19.7-3-25.6
				c3.5,1,6.6,3,8.9,5.9C513.3,545.1,514,552.2,511.5,558.6z"/>
		</g>
		<g id="monitor">
			<path class="st6" d="M917.1,630c0.2,0.1,0.2,0.5,0.1,0.5c-0.1,0-0.6-1.2-0.9-1.8c-0.6-1.1-5.5-3.6-5.8-3.8c0,0,0,0,0,0v0
				c-0.8-0.5-1.8-0.8-2.8-0.7L705.1,632c-3.9,0.2-7.2,3.7-7.2,7.9v156.6c0,1.5,0.4,2.9,1.2,4l0,0c0,0,0.1,0.1,0.2,0.3
				c0.4,0.5,0.9,1,1.4,1.3c1.9,1.7,4.8,3.9,6.1,3.5c0.7-0.2,0.9-1.3,1-2.7l199.9-23.4c3.2-0.4,5.9-3.8,5.9-7.6V631.7
				C915.9,630,916.8,629.7,917.1,630z"/>
			<linearGradient id="SVGID_21_" gradientUnits="userSpaceOnUse" x1="702.5097" y1="716.4424" x2="918.1291" y2="716.4424">
				<stop  offset="0" style="stop-color:#FFFFFF"/>
				<stop  offset="1" style="stop-color:#BDD3DE"/>
			</linearGradient>
			<path class="st35" d="M918.1,633.5v141.2c0,3.8-2.6,7.2-5.9,7.6L709.7,806c-0.3,0-0.7,0.1-1,0c-3.5-0.1-6.2-3-6.2-6.8V642.6
				c0-4.2,3.2-7.7,7.2-7.9l202.6-7.9c2.9-0.1,5.3,2.2,5.8,5.4C918.1,632.6,918.1,633,918.1,633.5z"/>
			<path class="st16" d="M875.4,814.2c-2.3,3.7-5.6,5.9-9.5,7.6c-2.9,1.3-6.1,2.2-9.6,3.3c-7.1,2.2-14,3-20.3,3
				c-10,0-18.5-2-24.3-3.9c10.6-8.6,19.3-10.7,25.5-10.9h0.2c3.6-0.1,5.4,0.4,7.1-0.9c0,0,0,0,0.1,0c0,0,0.1-0.1,0.1-0.1
				c0,0,0.1-0.1,0.1-0.1c0.7-0.7,1.2-1.6,1.5-2.7c0.1-0.4,0.2-0.8,0.2-1.2c0,0,0,0,0,0c1.2-9.5-8.4-29.4-12.9-38.6
				c-8.1-16.5-16.7-29.1-22.7-37.3c8.7-0.2,17.4-0.5,26-0.7c2.5-0.1,5.1-0.1,7.6-0.2c9.9,13.7,16.5,26.1,20.9,35.5
				C874.9,787.3,882.3,803.2,875.4,814.2z"/>
			<linearGradient id="SVGID_22_" gradientUnits="userSpaceOnUse" x1="702.5097" y1="716.4389" x2="918.029" y2="716.4389">
				<stop  offset="0.144" style="stop-color:#365588;stop-opacity:0.7"/>
				<stop  offset="1" style="stop-color:#002544;stop-opacity:0.4"/>
			</linearGradient>
			<path class="st36" d="M918,632.2L708.7,806c-3.5-0.1-6.2-3-6.2-6.8V642.6c0-4.2,3.2-7.7,7.2-7.9l202.6-7.9
				C915.1,626.7,917.5,629.1,918,632.2z"/>
			<path class="st37" d="M844.4,822.4c-1.4,2.3-3.3,3.6-3.3,3.6c-2,1.4-4,1.9-5.1,2c-10,0-18.5-2-24.3-3.9
				c10.6-8.6,19.3-10.7,25.5-10.9h0.2c3.6-0.1,5.4,0.4,7.1-0.9c0,0,0,0,0.1,0c0,0,0.1-0.1,0.1-0.1c0,0,0.1-0.1,0.1-0.1
				c0.7-0.7,1.2-1.6,1.5-2.7c0.1-0.4,0.2-0.8,0.2-1.2C846.8,814.9,846,819.9,844.4,822.4z"/>
			<path class="st38" d="M875.4,814.2c-2.3,3.7-5.6,5.9-9.5,7.6c5.6-20.9-24.5-81.3-29-90.2c2.5-0.1,5.1-0.1,7.6-0.2
				c9.9,13.7,16.5,26.1,20.9,35.5C874.9,787.3,882.3,803.2,875.4,814.2z"/>
		</g>
		<g id="bubbles_1_">
			<g id="bubbles">
				
					<linearGradient id="SVGID_23_" gradientUnits="userSpaceOnUse" x1="597.8879" y1="559.3329" x2="591.7633" y2="317.4094" gradientTransform="matrix(0.981 0.194 -0.194 0.981 77.0171 -113.5027)">
					<stop  offset="0" style="stop-color:#F1F0E2"/>
					<stop  offset="0.6079" style="stop-color:#F0F0E2"/>
					<stop  offset="1" style="stop-color:#D3E0DF"/>
				</linearGradient>
				<path class="st39" d="M592.4,345.1c-41.1-8.1-81.1,18.6-89.2,59.7c-4.7,23.9,2.3,47.4,17.1,64.5L497,493.6l41.5-9
					c7.3,4.4,15.5,7.7,24.4,9.4c41.1,8.1,81.1-18.6,89.2-59.7C660.2,393.2,633.5,353.3,592.4,345.1z"/>
				<linearGradient id="SVGID_24_" gradientUnits="userSpaceOnUse" x1="224.6904" y1="470.9473" x2="219.2992" y2="257.9938">
					<stop  offset="0" style="stop-color:#F1F0E2"/>
					<stop  offset="0.5884" style="stop-color:#F0F0E2"/>
					<stop  offset="1" style="stop-color:#D3E0DF"/>
				</linearGradient>
				<path class="st40" d="M281.2,381.2c-0.1,0.3-0.3,0.6-0.4,0.9c-3.1,6.2-7.3,11.9-12.2,16.9l11.9,29.2L250.3,412
					c-4.1,2-8.5,3.6-13.1,4.7c-29.5,7.2-59.2-6.6-73.3-31.8c-0.2-0.3-0.4-0.6-0.5-1l-0.1-0.2l-0.4-0.8c-0.3-0.6-0.6-1.2-0.9-1.8
					c-0.3-0.6-0.6-1.2-0.8-1.8c-0.3-0.6-0.5-1.2-0.8-1.8c-0.2-0.5-0.4-0.9-0.6-1.4c-0.3-0.9-0.7-1.8-1-2.7c-0.2-0.5-0.3-0.9-0.4-1.4
					c-0.4-1.3-0.7-2.6-1.1-3.9c-0.2-0.8-0.4-1.7-0.6-2.5c-1.8-9-1.7-17.9,0-26.4c0.1-0.6,0.3-1.3,0.4-1.9
					c5.6-23.4,23.8-42.8,48.7-48.9c31.4-7.6,63.1,8.5,75.8,36.9c0.1,0.3,0.3,0.6,0.4,0.8c1.5,3.4,2.7,6.9,3.6,10.7
					C289.7,352.4,287.6,367.9,281.2,381.2z"/>
			</g>
			<g id="train_and_landscape">
				<path d="M281.2,381.2c-0.1,0.3-0.3,0.6-0.4,0.9l-4.1,0.1c0,0,0,0,0,0c-0.2,0-0.4-0.2-0.5-0.4c0-0.2,0.2-0.5,0.5-0.5L281.2,381.2
					z"/>
				<path d="M261,382.4c-0.2,0-0.5-0.2-0.5-0.4c0-0.3,0.2-0.5,0.4-0.5l11.8-0.2c0.2,0,0.5,0.2,0.5,0.4c0,0.3-0.2,0.5-0.4,0.5
					L261,382.4C261,382.4,261,382.4,261,382.4z"/>
				<path d="M163,382.9l91.2-1.3c0.2,0,0.5,0.2,0.5,0.5c0,0.2-0.2,0.5-0.5,0.5l-90.7,1.3L163,382.9z"/>
				<path d="M187.7,382.1h-0.2c-1.4,0-2.6-1.2-2.6-2.6v-8.4c0-1.4,1.2-2.6,2.6-2.6h0.2c1.4,0,2.6,1.2,2.6,2.6v8.4
					C190.3,380.9,189.1,382.1,187.7,382.1z"/>
				<path class="st41" d="M186.7,369.2v12.2c0,1.9-1.6,3.5-3.5,3.5H164c-0.7-1.2-1.3-2.4-1.9-3.6c-0.3-0.6-0.6-1.2-0.8-1.8
					c-0.3-0.6-0.5-1.2-0.8-1.8c-0.2-0.5-0.4-0.9-0.6-1.4c-0.3-0.9-0.7-1.8-1-2.7c-0.2-0.5-0.3-0.9-0.4-1.4c-0.4-1.3-0.7-2.6-1.1-3.9
					c-0.2-0.8-0.4-1.7-0.6-2.5h26.3C185.1,365.7,186.7,367.3,186.7,369.2z"/>
				<path class="st41" d="M247.6,384.8h-55.7c-1.9,0-3.5-1.6-3.5-3.5v-12.2c0-1.9,1.6-3.5,3.5-3.5h29.3c5.9,0,11.1,0.3,14.6,1.8
					c4.9,2.2,8.1,7.7,9.9,11.8c0.3,0.6,0.5,1.3,0.7,1.8C247.2,383.1,247.5,384.5,247.6,384.8z"/>
				<path class="st7" d="M184.8,374.4v0.9c0,1.3-1,2.3-2.3,2.3h-22c-0.2-0.5-0.4-0.9-0.6-1.4c-0.3-0.9-0.7-1.8-1-2.7
					c-0.2-0.5-0.3-0.9-0.4-1.4h24C183.8,372.1,184.8,373.1,184.8,374.4z"/>
				<path class="st7" d="M229.4,374.4v0.9c0,1.3-1,2.3-2.3,2.3h-30.9c-1.3,0-2.3-1-2.3-2.3v-0.9c0-1.3,1-2.3,2.3-2.3h30.9
					C228.4,372.1,229.4,373.1,229.4,374.4z"/>
				<path class="st7" d="M237.6,374.4v0.9c0,1.3-1,2.3-2.3,2.3h-1.8c-0.3,0-0.6-0.1-0.9-0.2c-0.2-0.1-0.3-0.2-0.4-0.3l-0.3-0.2
					c-0.4-0.4-0.7-1-0.7-1.6v-0.9c0-1.3,1-2.3,2.3-2.3h1.8c0.2,0,0.4,0,0.6,0.1C236.9,372.4,237.6,373.3,237.6,374.4z"/>
				<path class="st42" d="M159.5,372.1l-0.5,1.4c-0.2-0.5-0.3-0.9-0.4-1.4H159.5z"/>
				<path class="st43" d="M162.8,372.1l-2.2,5.5h-0.2c-0.2-0.5-0.4-0.9-0.6-1.4l1.6-4.1H162.8z"/>
				<polygon class="st44" points="205,372.1 202.9,377.5 201.6,377.5 203.8,372.1 				"/>
				<polygon class="st42" points="218.3,372.1 216.1,377.5 216.5,377.5 218.7,372.1 				"/>
				<polygon class="st42" points="217.4,372.1 215.2,377.5 215.6,377.5 217.8,372.1 				"/>
				<polygon class="st42" points="231.9,376.9 233.8,372.1 234.1,372.1 232.2,377.1 				"/>
				<path class="st45" d="M235.9,372.2l-2.1,5.4h-0.3c-0.3,0-0.6-0.1-0.9-0.2l2.1-5.3h0.6C235.5,372.1,235.7,372.1,235.9,372.2z"/>
				<polygon class="st42" points="208.9,372.1 206.7,377.5 204.9,377.5 207,372.1 				"/>
				<polygon class="st42" points="175.6,372.1 173.4,377.5 167,377.5 169.2,372.1 				"/>
				<polygon class="st46" points="222.3,372.1 220.1,377.5 217.1,377.5 219.2,372.1 				"/>
				<path class="st3" d="M186.7,379.4v1.8h-24.5c-0.3-0.6-0.6-1.2-0.8-1.8H186.7z"/>
				<path class="st3" d="M246.4,381.2h-58v-1.8h57.2C246,380,246.2,380.6,246.4,381.2z"/>
				<path d="M282,325.5c-7.9,2.6-12.4,7.7-16.4,12.3c-3.8,4.2-7.3,8.3-13,9.8c-6.1,1.7-15.2-2.8-33.3-11.8
					c-9-4.4-14.6-7.8-18.8-10.2c-5.9-3.5-8.6-5.1-13.3-5.3c-9.5-0.4-19.4,5.3-29.7,17.2c-0.1,0.6-0.3,1.3-0.4,1.9
					c10.5-12.6,20.6-18.7,30.1-18.2c4.5,0.2,7.1,1.8,12.8,5.2c4.1,2.4,9.8,5.8,18.8,10.3c18.3,9.1,27.5,13.6,34,11.9
					c6-1.6,9.6-5.7,13.5-10.1c4.1-4.7,8.4-9.5,16.1-12L282,325.5z"/>
				<path class="st3" d="M206.7,334.8H244c0.2-2.7-1.3-5.2-3.6-6.4c-2.4-1.2-5.3-0.8-7.3,0.9c0-0.7-0.2-1.9-1-3.1
					c-1.4-2-4.2-2.8-6.3-2.4c-4.5,0.9-7.3,5.5-7.3,5.5c-0.2-0.3-1.8-2.4-4.5-2.7c-0.3,0-3.2-0.4-5.5,1.8
					C205.9,331,206.6,334.6,206.7,334.8z"/>
				<path class="st3" d="M246.7,312h15.5c0,0-4.5-3.6-6.4-1.8c0,0-2.7-2.7-4.5-0.9c0,0-1.8-1.8-3.6-0.9
					C245.8,309.3,246.7,312,246.7,312z"/>
			</g>
			<g id="tickets">
				<path class="st2" d="M618.7,423l-8.1,25.5c-1.4,4.3-6,6.7-10.2,5.3L531.5,432c-4.3-1.4-6.7-6-5.3-10.2l8.1-25.5
					c1.4-4.3,6-6.7,10.2-5.3l68.8,21.8C617.6,414.1,620,418.8,618.7,423z"/>
				<path class="st47" d="M553.3,410c-1.7-0.8-4.1-1.9-7.1-3c-1.5-0.5-8.4-2.9-8.8-2c-0.3,0.6,2,2.7,13.6,9.6
					C551.8,413.1,552.5,411.6,553.3,410z"/>
				<path class="st47" d="M553.2,409.9c0.9,1.7,2,4,3.1,7c0.6,1.5,3.1,8.3,2.2,8.8c-0.6,0.3-2.7-1.9-10-13.3
					C550.1,411.5,551.6,410.7,553.2,409.9z"/>
				<path class="st47" d="M557.5,406.5c0,0-1.9-1.3-4.9,1.3c-3,2.7-13.2,12.6-12,13.8c1.1,1.3,12.1-7.8,15.1-10.5
					C558.6,408.6,557.5,406.5,557.5,406.5z"/>
				<path class="st47" d="M545.3,418.4c-0.4,3.5-0.8,5.3-1.4,5.3c-0.4,0-0.9-1.2-1.5-3.6C543.4,419.5,544.4,419,545.3,418.4z"/>
				<path class="st47" d="M544.2,417.4c-3.5-0.5-5.3-0.5-5.5,0c-0.1,0.4,0.9,1.2,3.1,2.3C542.7,418.9,543.4,418.2,544.2,417.4z"/>
				<path d="M563.1,434.2c0,0-0.1,0-0.1,0c-0.3-0.1-0.4-0.4-0.3-0.6l8.2-26.1c0.1-0.3,0.4-0.4,0.6-0.3c0.3,0.1,0.4,0.4,0.3,0.6
					l-8.2,26.1C563.5,434.1,563.3,434.2,563.1,434.2z"/>
				<path d="M614.2,421c0,0-0.1,0-0.1,0l-5-1.5c-0.3-0.1-0.4-0.4-0.3-0.6c0.1-0.3,0.4-0.4,0.6-0.3l5,1.5c0.3,0.1,0.4,0.4,0.3,0.6
					C614.6,420.8,614.4,421,614.2,421z"/>
				<path d="M604.2,417.9c0,0-0.1,0-0.1,0l-4.6-1.4c-0.3-0.1-0.4-0.4-0.3-0.6c0.1-0.3,0.4-0.4,0.6-0.3l4.6,1.4
					c0.3,0.1,0.4,0.4,0.3,0.6C604.6,417.8,604.4,417.9,604.2,417.9z"/>
				<path d="M591.1,413.9c0,0-0.1,0-0.1,0l-5.8-1.8c-0.3-0.1-0.4-0.4-0.3-0.6c0.1-0.3,0.4-0.4,0.6-0.3l5.8,1.8
					c0.3,0.1,0.4,0.4,0.3,0.6C591.5,413.8,591.3,413.9,591.1,413.9z"/>
				<path d="M580.4,410.6c0,0-0.1,0-0.1,0l-2.7-0.8c-0.3-0.1-0.4-0.4-0.3-0.6c0.1-0.3,0.4-0.4,0.6-0.3l2.7,0.8
					c0.3,0.1,0.4,0.4,0.3,0.6C580.8,410.5,580.6,410.6,580.4,410.6z"/>
				<path d="M611.1,425.8c0,0-0.1,0-0.1,0l-6.8-2.1c-0.3-0.1-0.4-0.4-0.3-0.6c0.1-0.3,0.4-0.4,0.6-0.3l6.8,2.1
					c0.3,0.1,0.4,0.4,0.3,0.6C611.5,425.7,611.3,425.8,611.1,425.8z"/>
				<path d="M595.4,421c0,0-0.1,0-0.1,0l-3.5-1.1c-0.3-0.1-0.4-0.4-0.3-0.6c0.1-0.3,0.4-0.4,0.6-0.3l3.5,1.1
					c0.3,0.1,0.4,0.4,0.3,0.6C595.8,420.9,595.6,421,595.4,421z"/>
				<path d="M582.4,417.2c0,0-0.1,0-0.1,0l-4.9-1.5c-0.3-0.1-0.4-0.4-0.3-0.6c0.1-0.3,0.4-0.4,0.6-0.3l4.9,1.5
					c0.3,0.1,0.4,0.4,0.3,0.6C582.8,417.1,582.6,417.2,582.4,417.2z"/>
				<path d="M609,430.7c0,0-0.1,0-0.1,0l-6.1-1.9c-0.3-0.1-0.4-0.4-0.3-0.6c0.1-0.3,0.4-0.4,0.6-0.3l6.1,1.9
					c0.3,0.1,0.4,0.4,0.3,0.6C609.4,430.6,609.2,430.7,609,430.7z"/>
				<path d="M595,426.4c0,0-0.1,0-0.1,0l-6.9-2.1c-0.3-0.1-0.4-0.4-0.3-0.6c0.1-0.3,0.4-0.4,0.6-0.3l6.9,2.1
					c0.3,0.1,0.4,0.4,0.3,0.6C595.4,426.2,595.2,426.4,595,426.4z"/>
				<path d="M580,421.9c0,0-0.1,0-0.1,0l-5.9-1.8c-0.3-0.1-0.4-0.4-0.3-0.6c0.1-0.3,0.4-0.4,0.6-0.3l5.9,1.8
					c0.3,0.1,0.4,0.4,0.3,0.6C580.4,421.8,580.2,421.9,580,421.9z"/>
				<path d="M606.8,442.6c0,0-0.1,0-0.1,0l-16.5-5.1c-0.3-0.1-0.4-0.4-0.3-0.6c0.1-0.3,0.4-0.4,0.6-0.3l16.5,5.1
					c0.3,0.1,0.4,0.4,0.3,0.6C607.2,442.4,607,442.6,606.8,442.6z"/>
				<path d="M588.6,437c0,0-0.1,0-0.1,0l-18.4-5.6c-0.3-0.1-0.4-0.4-0.3-0.6c0.1-0.3,0.4-0.4,0.6-0.3l18.4,5.6
					c0.3,0.1,0.4,0.4,0.3,0.6C589,436.8,588.8,437,588.6,437z"/>
				<path class="st6" d="M636.2,423.3l-13.1,23.3c-2.2,3.9-7.2,5.3-11.1,3.1l-62.9-35.4c-3.9-2.2-5.3-7.2-3.1-11.1l13.1-23.3
					c2.2-3.9,7.2-5.3,11.1-3.1l62.9,35.4C637,414.4,638.4,419.4,636.2,423.3z"/>
				<path class="st47" d="M574.9,397.3c-1.5-1.2-3.6-2.7-6.3-4.3c-1.4-0.8-7.6-4.5-8.2-3.8c-0.4,0.5,1.4,3,11.3,12.2
					C572.7,400,573.8,398.6,574.9,397.3z"/>
				<path class="st47" d="M574.8,397.1c0.5,1.8,1.2,4.4,1.6,7.5c0.2,1.6,1.3,8.8,0.4,9.1c-0.6,0.2-2.3-2.4-7.1-15.1
					C571.4,398.1,573.1,397.6,574.8,397.1z"/>
				<path class="st47" d="M579.7,394.7c0,0-1.6-1.7-5.1,0.3c-3.4,2-15.5,9.6-14.6,11.1c0.9,1.5,13.4-5.2,16.9-7.2
					C580.3,396.9,579.7,394.7,579.7,394.7z"/>
				<path class="st47" d="M565.3,403.8c-1.1,3.4-1.9,5-2.4,4.9c-0.4-0.1-0.7-1.3-0.7-3.8C563.3,404.5,564.3,404.2,565.3,403.8z"/>
				<path class="st47" d="M564.5,402.6c-3.3-1.2-5.1-1.6-5.3-1.1c-0.2,0.4,0.6,1.4,2.6,2.9C562.6,403.8,563.6,403.2,564.5,402.6z"/>
				<path d="M579.6,423c-0.1,0-0.2,0-0.2-0.1c-0.2-0.1-0.3-0.4-0.2-0.7l13.3-23.9c0.1-0.2,0.4-0.3,0.7-0.2c0.2,0.1,0.3,0.4,0.2,0.7
					l-13.3,23.9C580,422.9,579.8,423,579.6,423z"/>
				<path d="M632.3,420.4c-0.1,0-0.2,0-0.2-0.1l-4.6-2.5c-0.2-0.1-0.3-0.4-0.2-0.7c0.1-0.2,0.4-0.3,0.7-0.2l4.6,2.5
					c0.2,0.1,0.3,0.4,0.2,0.7C632.7,420.3,632.5,420.4,632.3,420.4z"/>
				<path d="M623.2,415.4c-0.1,0-0.2,0-0.2-0.1l-4.3-2.3c-0.2-0.1-0.3-0.4-0.2-0.7c0.1-0.2,0.4-0.3,0.7-0.2l4.3,2.3
					c0.2,0.1,0.3,0.4,0.2,0.7C623.5,415.3,623.3,415.4,623.2,415.4z"/>
				<path d="M611.2,408.8c-0.1,0-0.2,0-0.2-0.1l-5.3-2.9c-0.2-0.1-0.3-0.4-0.2-0.7c0.1-0.2,0.4-0.3,0.7-0.2l5.3,2.9
					c0.2,0.1,0.3,0.4,0.2,0.7C611.6,408.7,611.4,408.8,611.2,408.8z"/>
				<path d="M601.3,403.4c-0.1,0-0.2,0-0.2-0.1l-2.5-1.4c-0.2-0.1-0.3-0.4-0.2-0.7c0.1-0.2,0.4-0.3,0.7-0.2l2.5,1.4
					c0.2,0.1,0.3,0.4,0.2,0.7C601.7,403.3,601.5,403.4,601.3,403.4z"/>
				<path d="M628.3,424.5c-0.1,0-0.2,0-0.2-0.1l-6.3-3.5c-0.2-0.1-0.3-0.4-0.2-0.7c0.1-0.2,0.4-0.3,0.7-0.2l6.3,3.5
					c0.2,0.1,0.3,0.4,0.2,0.7C628.7,424.4,628.5,424.5,628.3,424.5z"/>
				<path d="M614,416.6c-0.1,0-0.2,0-0.2-0.1l-3.2-1.8c-0.2-0.1-0.3-0.4-0.2-0.7c0.1-0.2,0.4-0.3,0.7-0.2l3.2,1.8
					c0.2,0.1,0.3,0.4,0.2,0.7C614.3,416.5,614.1,416.6,614,416.6z"/>
				<path d="M602,410.3c-0.1,0-0.2,0-0.2-0.1l-4.5-2.5c-0.2-0.1-0.3-0.4-0.2-0.7c0.1-0.2,0.4-0.3,0.7-0.2l4.5,2.5
					c0.2,0.1,0.3,0.4,0.2,0.7C602.4,410.2,602.2,410.3,602,410.3z"/>
				<path d="M625.2,428.9c-0.1,0-0.2,0-0.2-0.1l-5.6-3.1c-0.2-0.1-0.3-0.4-0.2-0.7c0.1-0.2,0.4-0.3,0.7-0.2l5.6,3.1
					c0.2,0.1,0.3,0.4,0.2,0.7C625.6,428.8,625.4,428.9,625.2,428.9z"/>
				<path d="M612.5,421.8c-0.1,0-0.2,0-0.2-0.1l-6.3-3.5c-0.2-0.1-0.3-0.4-0.2-0.7c0.1-0.2,0.4-0.3,0.7-0.2l6.3,3.5
					c0.2,0.1,0.3,0.4,0.2,0.7C612.8,421.7,612.6,421.8,612.5,421.8z"/>
				<path d="M598.7,414.4c-0.1,0-0.2,0-0.2-0.1l-5.5-3c-0.2-0.1-0.3-0.4-0.2-0.7c0.1-0.2,0.4-0.3,0.7-0.2l5.5,3
					c0.2,0.1,0.3,0.4,0.2,0.7C599,414.3,598.8,414.4,598.7,414.4z"/>
				<path d="M620.7,440c-0.1,0-0.2,0-0.2-0.1l-15.1-8.3c-0.2-0.1-0.3-0.4-0.2-0.7c0.1-0.2,0.4-0.3,0.7-0.2l15.1,8.3
					c0.2,0.1,0.3,0.4,0.2,0.7C621.1,440,620.9,440,620.7,440z"/>
				<path d="M604,430.9c-0.1,0-0.2,0-0.2-0.1l-16.8-9.3c-0.2-0.1-0.3-0.4-0.2-0.7c0.1-0.2,0.4-0.3,0.7-0.2l16.8,9.3
					c0.2,0.1,0.3,0.4,0.2,0.7C604.4,430.8,604.2,430.9,604,430.9z"/>
			</g>
			<g id="shadows">
				<path class="st48" d="M281.2,381.2c-0.1,0.3-0.3,0.6-0.4,0.9c-3.1,6.2-7.3,11.9-12.2,16.9l11.9,29.2L250.3,412
					c-4.1,2-8.5,3.6-13.1,4.7c-29.5,7.2-59.2-6.6-73.3-31.8c-0.2-0.3-0.4-0.6-0.5-1l-0.1-0.2l-0.4-0.8c-0.3-0.6-0.6-1.2-0.9-1.8
					c-0.3-0.6-0.6-1.2-0.8-1.8c-0.3-0.6-0.5-1.2-0.8-1.8c-0.2-0.5-0.4-0.9-0.6-1.4c-0.3-0.9-0.7-1.8-1-2.7c-0.2-0.5-0.3-0.9-0.4-1.4
					c-0.4-1.3-0.7-2.6-1.1-3.9c-0.2-0.8-0.4-1.7-0.6-2.5c-1.8-9-1.7-17.9,0-26.4c0.1-0.6,0.3-1.3,0.4-1.9
					c5.6-23.4,23.8-42.8,48.7-48.9c31.4-7.6,63.1,8.5,75.8,36.9c0.1,0.3,0.3,0.6,0.4,0.8c1.5,3.4,2.7,6.9,3.6,10.7
					C289.7,352.4,287.6,367.9,281.2,381.2z"/>
				<path class="st48" d="M592.4,345.1c-41.1-8.1-81.1,18.6-89.2,59.7c-4.7,23.9,2.3,47.4,17.1,64.5L497,493.6l41.5-9
					c7.3,4.4,15.5,7.7,24.4,9.4c41.1,8.1,81.1-18.6,89.2-59.7C660.2,393.2,633.5,353.3,592.4,345.1z"/>
			</g>
		</g>
	</g>
</g>
</svg>
