<?xml version="1.0" encoding="utf-8"?>
<!-- Generator: Adobe Illustrator 22.1.0, SVG Export Plug-In . SVG Version: 6.00 Build 0)  -->
<svg version="1.1" xmlns="http://www.w3.org/2000/svg" xmlns:xlink="http://www.w3.org/1999/xlink" x="0px" y="0px"
	 viewBox="0 0 1019.8 1012.1" style="enable-background:new 0 0 1019.8 1012.1;" xml:space="preserve">
<style type="text/css">
	.st0{fill:#EEEDEE;}
	.st1{opacity:0.42;fill:#BDD3DE;}
	.st2{fill:#FFFFFF;}
	.st3{fill:#153E5C;}
	.st4{fill:url(#SVGID_1_);}
	.st5{fill:#302C34;}
	.st6{fill:#BDD3DE;}
	.st7{fill:none;}
	.st8{fill:#FC860A;}
	.st9{fill:url(#SVGID_2_);}
	.st10{fill:#C5856E;}
	.st11{fill:url(#SVGID_3_);}
	.st12{opacity:0.43;fill:url(#SVGID_4_);}
	.st13{opacity:0.25;fill:url(#SVGID_5_);}
	.st14{opacity:0.25;fill:#153E5C;}
	.st15{fill:url(#SVGID_6_);}
	.st16{fill:#8677A7;}
	.st17{fill:#0D2A28;}
	.st18{opacity:0.31;fill:url(#SVGID_7_);}
	.st19{opacity:7.000000e-02;fill:url(#SVGID_8_);}
	.st20{opacity:0.15;fill:url(#SVGID_9_);}
	.st21{opacity:8.000000e-02;fill:#153E5C;}
	.st22{fill:#F2BE54;}
	.st23{opacity:0.28;fill:url(#SVGID_10_);}
	.st24{opacity:0.14;fill:url(#SVGID_11_);}
	.st25{opacity:9.000000e-02;fill:url(#SVGID_12_);}
	.st26{opacity:0.12;fill:url(#SVGID_13_);}
	.st27{opacity:0.12;fill:url(#SVGID_14_);}
	.st28{opacity:0.53;fill:url(#SVGID_15_);}
	.st29{opacity:0.43;fill:url(#SVGID_16_);}
	.st30{opacity:0.14;fill:url(#SVGID_17_);}
	.st31{opacity:0.53;fill:url(#SVGID_18_);}
	.st32{fill:url(#SVGID_19_);}
	.st33{fill:url(#SVGID_20_);}
	.st34{opacity:0.48;}
	.st35{opacity:0.4;fill:url(#SVGID_21_);}
	.st36{opacity:0.4;fill:url(#SVGID_22_);}
	.st37{opacity:0.4;fill:url(#SVGID_23_);}
	.st38{fill:url(#face_2_);}
	.st39{fill:url(#SVGID_24_);}
	.st40{opacity:0.17;fill:#153E5C;}
	.st41{fill:#B47365;}
	.st42{fill:url(#ear_1_);}
</style>
<g id="background">
	<g id="general">
		<path id="figure3" class="st0" d="M1009.7,862.4c-7.6,24.3-19.7,49.2-36.4,71v0c-3.4,4.4-6.9,8.6-10.7,12.7
			c-57,62.2-148.7,77.6-222,58c-2.6-0.7-14-3.9-29.6-10c-19.4-7.7-45.3-20-68.6-38c-16.5-12.7-31.7-28.3-42.4-47
			c-8.6-15-14.3-32.2-15.4-51.5c-4.2-72,56.8-143.5,109.8-150.9c3.1-0.4,6.2-0.7,9.2-0.6c30.8,0.2,36.7,24.3,84,43.1
			c5.2,2,10.8,4,17,5.9c50,15.2,96.6,11.5,111,10c22.8-2.4,38.8-6.8,50.8-10.7c18-5.9,27-10.4,36.2-4.3
			C1022.3,763,1025.6,811.6,1009.7,862.4z"/>
		<path class="st0" d="M1019.2,181.1c0,1,0,2,0,3c0,1,0,2,0,3c0,2,0,4.1,0,6.2c0,1.1,0,2.2,0,3.3c-0.1,13.3-0.3,27.9-0.6,43.9
			c0,1.2,0,2.3-0.1,3.5c-0.3,17.3-0.6,36.2-0.9,57c0,1.1,0,2.2-0.1,3.4c-0.1,8.3-0.3,16.9-0.4,25.9c-0.3,20.3-0.6,42.1-0.9,65.8
			c-0.2,15.9-0.4,32.7-0.6,50.2c-0.3,30.8-0.2,57.9-0.1,81.9v0c0.7,120.4,3.3,161.5-30.9,187c-6,4.5-12.5,8.1-19.3,10.9
			c-45,18.4-108.1,3.9-164.3-19.8c-32.3-13.6-62.3-30.1-85.3-45.1c-2.1-1.4-4.1-2.7-6.1-4c-45.8-30.9-79.2-67-100.8-93.3
			c-7.7-9.3-13.8-17.5-18.5-23.7c-10.2-13.6-19.2-26.4-27.4-38.8c-0.3-0.4-0.6-0.9-0.9-1.3c-31.6-47.9-51.6-88-88.3-130.2
			c-0.5-0.5-0.9-1.1-1.4-1.6c-10.8-12.3-23-24.7-37.3-37.6c-9.6-8.6-26.9-20.5-50.8-33.5c-123.4-67.3-219.5-25.1-286.6-51.3
			c-10.4-4-20.1-9.7-29-17.7c-1.5-1.3-3-2.7-4.4-4.1c-1.3-1.3-2.6-2.7-3.8-4.1c-16.6-18.4-28.4-43.7-34-70.3
			c-7.4-34.6-4.5-71.4,11.3-98.5c0.3-0.5,0.6-1,0.9-1.6c0.8-1.3,1.7-2.6,2.5-3.9c0.4-0.6,0.8-1.1,1.2-1.7c0.3-0.5,0.7-0.9,1-1.3
			c0.3-0.4,0.7-0.9,1-1.3c0.3-0.4,0.7-0.9,1-1.3c0.3-0.4,0.6-0.7,0.9-1.1l0.3-0.4c0.3-0.3,0.6-0.6,0.9-1c0-0.1,0.1-0.1,0.1-0.2
			c0.3-0.4,0.7-0.8,1-1.1c0.3-0.4,0.7-0.7,1-1.1c0.1-0.1,0.2-0.2,0.3-0.3c0.3-0.3,0.6-0.6,0.9-0.9c1.2-1.2,2.4-2.3,3.6-3.4
			c0.4-0.3,0.8-0.7,1.2-1C86.3,4.1,139.2,0.2,228.8,1.8c1,0,2,0,3,0.1c4.9,0.1,10,0.2,15.1,0.3c3.4,0.1,6.8,0.2,10.3,0.3
			c2.6,0.1,5.2,0.1,7.9,0.2c1.3,0,2.6,0.1,4,0.1c10.9,0.3,22.2,0.7,34,1c2.1,0.1,4.3,0.1,6.5,0.2c2,0.1,4,0.1,6.1,0.2
			c1.5,0,3,0.1,4.5,0.1h0c1,0,2.1,0.1,3.2,0.1h0c8.1,0.2,16.5,0.5,25,0.8c14.8,0.4,30.2,0.9,46.2,1.2c44.6,1.1,94.5,1.8,150,1.7
			c11.3,0,22.4-0.1,33.1-0.2c3.8,0,7.5-0.1,11.2-0.1c35.1-0.4,66.9-1.2,95.8-2.1c6.1-0.2,12-0.4,17.8-0.6c0.4,0,0.8,0,1.2,0
			c49.6-1.7,90-3.6,123.5-4.5c0.5,0,1.1,0,1.6,0c43.3-1.2,74.9-0.7,99.8,4.2c1,0.2,2,0.4,3,0.6c26.3,5.6,44.9,16.4,62,35.8
			c16.7,18.9,23.2,36.1,25.1,85.5c0,1,0.1,2,0.1,3.1C1019.2,144,1019.4,160.9,1019.2,181.1z"/>
		<path id="figure1" class="st0" d="M669.6,666.1c-2.2,24.6-37.1,22.5-72,62c-36.4,41.1-51.6,102.3-42,152
			c2.3,11.8,5.8,22.1,10,31.2c5.6,12.1,12.4,22,19.2,30.4c17.3,21.5,34.2,33.4,28.8,47.4c-5,13.1-24.7,16.3-57.9,14.9
			c-40.5-1.8-100.9-10.5-179-17.1c-35.8-3-75.2-5.6-118.2-6.8c-21.1-0.6-40.1-0.8-57.3-0.8c-107.7,0.2-144.7,8.4-176.7-24.2
			c-7-7.1-12.1-14.6-15.9-22.8c-20.6-44.6,1.1-109,7.9-240.2c0-0.2,0-0.3,0-0.4C20.5,617.1,18,551.4,14,495
			C4.3,359.4-14.3,278.5,25.6,260.1c28.5-13.1,47,24.1,138,30c7.5,0.5,14.3,0.7,20.5,0.6c45.6-0.2,56.4-12.2,98.6-1.6
			c52.6,13.2,92,46.3,115,65c4.8,3.9,14.2,11.9,28.8,26.8c6.3,6.4,13.5,14.2,21.7,23.4c51.3,57.9,63.4,88.3,83.5,119.5
			c8.8,13.8,19.2,27.7,35.1,44.3c6.7,6.9,13.2,13.1,19.5,18.8C635,630.6,672,639.2,669.6,666.1z"/>
		<g id="disco_ball">
			<path class="st1" d="M1019.2,193.2c0,1.1,0,2.2,0,3.3c-0.1,13.3-0.3,27.9-0.6,43.9c0,1.2,0,2.3-0.1,3.5
				c-0.3,17.3-0.6,36.2-0.9,57c0,1.1,0,2.2-0.1,3.4c-0.1,8.3-0.3,16.9-0.4,25.9c-7.2,6.9-15.1,13.1-23.6,18.5c-1,0.6-2,1.2-3,1.8
				c-11.5,6.8-24.1,12-37.4,15.4c-1,0.2-2.1,0.5-3.1,0.8c-10.2,2.3-20.9,3.6-31.8,3.6c-2.3,0-4.6,0-6.9-0.2
				c-1.1-0.1-2.3-0.1-3.4-0.2c-14.3-1-28-4.2-40.8-9.1h0c-1.4-0.5-2.8-1.1-4.2-1.7c-5.8-2.4-11.3-5.2-16.7-8.4
				c-1.3-0.8-2.5-1.5-3.8-2.3c-11.7-7.4-22.3-16.4-31.4-26.8c-0.8-0.9-1.5-1.7-2.2-2.6c-15.7-18.8-26.6-41.6-30.9-66.7
				c-0.2-1-0.4-2.1-0.5-3.2c-1.1-7-1.6-14.1-1.6-21.3c0-10.2,1.1-20.1,3.1-29.7c0.3-1.2,0.5-2.4,0.8-3.6c1.4-6,3.2-11.8,5.4-17.4
				c0.5-1.4,1.1-2.8,1.7-4.2c4.7-11.2,10.7-21.7,18-31.2c1.2-1.6,2.4-3.1,3.7-4.6h0v0c7.1-8.6,15.2-16.4,24.1-23.1
				c0.9-0.7,1.8-1.4,2.8-2c17.9-12.9,39-21.7,61.8-25.1c1-0.2,2.1-0.3,3.2-0.4c5.9-0.7,11.9-1.1,18-1.1c11.3,0,22.4,1.3,33,3.8h0
				c1.9,0.5,3.8,1,5.7,1.5h0c1.5,0.4,3,0.9,4.5,1.4c1.1,0.3,2.3,0.7,3.4,1.1c20.5,7.1,38.8,18.7,53.8,33.6c0.1,0.1,0.1,0.1,0.2,0.2
				c0,1,0.1,2,0.1,3.1C1019.3,146.8,1019.4,167.5,1019.2,193.2z"/>
			<path class="st2" d="M1018.8,129.8l-48.4,13.7l-3.1,0.9L914,159.5l-3.1,0.9l-56.7,16.1l-3.1,0.9l-55.8,15.8l-3.1,0.9l-13.5,3.8
				c0.3-1.2,0.5-2.4,0.8-3.6l11.4-3.2l3.1-0.9v0l56.1-15.9l3.1-0.9l57-16.2l3.1-0.9l53.5-15.2l3.1-0.9l48.5-13.8
				c0.1,0.1,0.1,0.1,0.2,0.2C1018.7,127.7,1018.7,128.7,1018.8,129.8z"/>
			<path class="st2" d="M956.8,90.4l-52.5,17.6l-3.1,1l-60.8,20.4l-3.1,1l-32.8,11c1.2-1.6,2.4-3.1,3.7-4.6h0v0l28.2-9.4l3.1-1
				l61.1-20.5l3.1-1L951,89h0C953,89.4,954.9,89.9,956.8,90.4z"/>
			<path class="st2" d="M866.9,360.7c-1.4-0.5-2.8-1.1-4.2-1.7l-4.9-11.5l-1.3-3l-14.7-34.5v0l-1.3-3l-27-63.1l-1.3-3l-20-46.8
				l-1.3-3l-6.1-14.2c0.5-1.4,1.1-2.8,1.7-4.2l7.5,17.5v0l1.3,3l20.1,46.9l1.3,3l26.8,62.7l1.3,3l14.9,34.8l1.3,3L866.9,360.7z"/>
			<path class="st2" d="M911.1,370c-1.1-0.1-2.3-0.1-3.4-0.2l-9.8-33.2l-0.9-3.1l-11.7-39.8l-0.9-3.1l-17.4-59l-0.9-3.1l-15-51.1
				l-0.9-3.1l-12.9-43.8l-0.9-3.1l-4-13.6c0.9-0.7,1.8-1.4,2.8-2l4.3,14.6l0.9,3.1l12.9,43.9l0.9,3.1l15.1,51.2l0.9,3.1l17.2,58.6
				l0.9,3.1l11.8,40.1l0.9,3.1L911.1,370z"/>
			<path class="st2" d="M953.1,365.8c-1,0.3-2.1,0.5-3.1,0.8l-7.9-41.9l-0.6-3.2l-8.6-45.6l-0.6-3.2L922,218.9l-0.6-3.2l-10.5-55.3
				l-0.6-3.2l-9.1-48.1l-0.6-3.2l-3.6-19.2c1.1-0.2,2.1-0.3,3.2-0.4l3.5,18.6l0.6,3.2l9.1,48.3l0.6,3.2l10.5,55.5l0.6,3.2l10.1,53.4
				l0.6,3.2l8.7,45.8l0.6,3.2L953.1,365.8z"/>
			<path class="st2" d="M993.5,348.6c-1,0.6-2,1.2-3,1.8l-4.2-37.7l-0.4-3.2l-5.8-51.2l-0.4-3.3l-5.4-48.1l-0.4-3.2l-6.7-59.2
				l-0.4-3.2l-5.6-49.4c1.1,0.4,2.3,0.7,3.4,1.1l5.3,47.3l0.4,3.2l6.7,59.4l0.4,3.2l5.4,47.6l0.4,3.3l5.8,51.5l0.4,3.2L993.5,348.6z
				"/>
			<path class="st2" d="M1019.2,193.2c0,1.1,0,2.2,0,3.3l-41.7,9.6l-3.2,0.7l-49.2,11.3l-3.1,0.7l-51.8,11.9l-3.2,0.7l-50.4,11.6
				l-3.2,0.7l-35.8,8.2c-0.2-1-0.4-2.1-0.5-3.2l35-8.1l3.2-0.7l50.8-11.7l3.2-0.7l52.1-12l3.1-0.7l49.4-11.4l3.2-0.7L1019.2,193.2z"
				/>
			<path class="st2" d="M1018.5,240.4c0,1.2,0,2.3-0.1,3.5l-35.3,13.2l-3.1,1.2l-44.2,16.5l-3.1,1.1l-44.4,16.6l-3,1.1l-40.6,15.2
				l-3,1.1v0l-30.9,11.5c-0.8-0.9-1.5-1.7-2.2-2.6l31.8-11.9l3-1.1l41-15.3l3-1.1l44.7-16.7l3.1-1.1l44.5-16.6l3.1-1.2L1018.5,240.4
				z"/>
			<path class="st2" d="M1017.5,300.9c0,1.1,0,2.2-0.1,3.4l-28.1,7.6l-3.2,0.8l-41.1,11.1l-3.1,0.8l-40.9,11l-3.1,0.8l-37.1,10
				l-3.2,0.8l-11.7,3.2c-1.3-0.8-2.5-1.5-3.8-2.3l14.2-3.8l3.1-0.8l37.4-10.1l3.1-0.8l41.2-11.1l3.1-0.8l41.3-11.2l3.2-0.8
				L1017.5,300.9z"/>
			<path class="st1" d="M931.5,5.3l-0.2,80.8h-3l0.2-81.4C929.5,4.9,930.5,5.1,931.5,5.3z"/>
		</g>
		<g id="lines">
			<path class="st1" d="M448,404.3c51.3,57.9,63.4,88.3,83.5,119.5C357.2,660,182.9,796.2,8.7,932.3c-20.6-44.6,1.1-109,7.9-240.2
				C20.5,617.4,18,551.5,14,495c137.5-38,274.9-76.1,412.4-114.1C432.6,387.4,439.8,395.1,448,404.3z"/>
			<path class="st1" d="M669.6,666.1c-2.2,24.6-37.1,22.5-72,62c-36.4,41.1-51.6,102.3-42,152c5.3,27.6,17.3,46.9,29.2,61.6
				c-9.7,20.8-19.4,41.5-29,62.2c-59-2.6-160.6-20.1-297.1-23.9c-21.1-0.6-40.1-0.8-57.3-0.8c128.3-130.8,256.5-261.6,384.8-392.5
				C635,630.6,672,639.2,669.6,666.1z"/>
			<path class="st1" d="M694.4,706.8c-31.5,67.4-63,134.9-94.4,202.4c-8.6-15-14.3-32.2-15.4-51.5
				C580.4,785.6,641.4,714.1,694.4,706.8z"/>
			<path class="st1" d="M973.3,933.4L973.3,933.4c-3.4,4.4-6.9,8.6-10.7,12.7c-57,62.2-148.7,77.6-222,58c-2.6-0.7-14-3.9-29.6-10
				c25.5-81.6,51-163.3,76.5-244.9c5.2,2,10.8,4,17,5.9c50,15.2,96.6,11.5,111,10c22.8-2.4,38.8-6.8,50.8-10.7
				C968.6,814.1,971,873.7,973.3,933.4z"/>
			<path class="st1" d="M1015.6,446.1c-0.3,30.8-0.2,57.9-0.1,81.9l-8.9-127.9l9.6-4.2C1015.9,411.8,1015.8,428.5,1015.6,446.1z"/>
			<path class="st1" d="M847.8,42.3c-20.7,5.3-40.1,13.8-57.6,25c-29.2-20.7-58.5-41.5-87.7-62.2c0.4,0,0.8,0,1.2,0
				c49.6-1.7,90-3.6,123.5-4.5c0.5,0,1.1,0,1.6,0c2.5,7.2,5.5,14.8,9.2,22.7C841.1,30.2,844.4,36.5,847.8,42.3z"/>
			<path class="st1" d="M756,99.3c-14.2,15.5-26,33.2-34.8,52.6c-123.6-45.5-247.2-91-370.9-136.4c-10-3.7-20.1-7.4-30.1-11.1
				c1,0,2.1,0.1,3.2,0.1h0c8.1,0.2,16.5,0.5,25,0.8c14.8,0.4,30.2,0.9,46.2,1.2c44.6,1.1,94.5,1.8,150,1.7c11.3,0,22.4-0.1,33.1-0.2
				c3.8,0,7.5-0.1,11.2-0.1C644.6,38.3,700.3,68.8,756,99.3z"/>
			<path class="st1" d="M703.6,233.6c0,7.9,0.5,15.7,1.4,23.4c-159.1-8.2-318.1-16.4-477.2-24.6h0c-21.4-1.1-42.8-2.2-64.2-3.3h0
				c-5.4-0.3-10.7-0.5-16.1-0.8c-27.8-1.4-55.6-2.9-83.3-4.3c-1.3-1.3-2.6-2.7-3.8-4.1c-16.6-18.4-28.4-43.7-34-70.3
				c-7.4-34.6-4.5-71.4,11.3-98.5c0.3-0.5,0.6-1,0.9-1.6c0.8-1.3,1.7-2.6,2.5-3.9c0.4-0.6,0.8-1.1,1.2-1.7c0.3-0.5,0.7-0.9,1-1.3
				c0.3-0.4,0.7-0.9,1-1.3c0.3-0.4,0.7-0.9,1-1.3c0.3-0.4,0.6-0.7,0.9-1.1l0.3-0.4c0.3-0.3,0.6-0.6,0.9-1c0-0.1,0.1-0.1,0.1-0.2
				c0.3-0.4,0.7-0.8,1-1.1c0.3-0.4,0.7-0.7,1-1.1c0.1-0.1,0.2-0.2,0.3-0.3c0.3-0.3,0.6-0.6,0.9-0.9c1.2-1.2,2.4-2.3,3.6-3.4
				C125.6,48.7,196.7,66.9,267.8,85c146.4,37.3,292.8,74.6,439.2,111.9C704.8,208.7,703.6,221,703.6,233.6z"/>
			<path class="st1" d="M745.1,358.9c-60.8,47.5-121.5,95-182.3,142.5c-0.3-0.4-0.6-0.9-0.9-1.3c-31.6-47.9-51.6-88-88.3-130.2
				c79.9-22.1,159.7-44.2,239.6-66.3C720.9,323.8,731.7,342.4,745.1,358.9z"/>
			<path class="st1" d="M778.1,391c-56.5,57.6-112.9,115.2-169.4,172.8c21.6,26.3,55.1,62.4,100.8,93.3c2,1.3,4,2.7,6.1,4
				c37.6-80.7,75.3-161.3,112.9-241.9C810.3,412.3,793.3,402.7,778.1,391z"/>
			<path class="st1" d="M899.1,432.1c-4.2,0-8.3-0.1-12.4-0.4c-28.6,91.5-57.2,183-85.8,274.5c56.2,23.6,119.2,38.2,164.3,19.8
				c-3.9-100.5-7.8-201-11.7-301.4C936.2,429.5,918,432.1,899.1,432.1z"/>
		</g>
		<g id="smoke">
			<path class="st1" d="M1009.7,862.4c-7.6,24.3-19.7,49.2-36.4,71v0c-3.4,4.4-6.9,8.6-10.7,12.7c-57,62.2-148.7,77.6-222,58
				c-2.6-0.7-14-3.9-29.6-10c-19.4-7.7-45.3-20-68.6-38c0.5-1.1,1.1-2.1,1.8-3.2c14.6-24.5,44.2-34.2,68.2-23
				c0.1-0.2,0.2-0.4,0.3-0.6c4.1-6.8,9.3-12.5,15.2-16.9c-11.5-19.9-11.8-46,1.3-68.1c18.9-31.8,58.5-43.2,88.5-25.4
				c15.7,9.3,25.7,24.9,28.9,42.1c13.2-8.2,28.8-11.5,43.8-9.2c0.7-1.4,1.5-2.8,2.3-4.2c18.9-31.8,58.5-43.2,88.5-25.4
				C996.3,831.3,1006.1,846,1009.7,862.4z"/>
			<path class="st1" d="M324,72.4c-17.5,12.1-39.2,13.9-57.6,6.6c0,0,0,0.1-0.1,0.1c0.6,1.9,1.1,3.9,1.5,5.8
				c4.3,21-2.6,43.2-19.1,58c0.1,0.1,0.2,0.3,0.3,0.4c19.3,27.9,12.3,66.2-15.6,85.6c-1.8,1.3-3.7,2.4-5.6,3.4h0
				c-20.6,11.3-45.5,9.5-64.2-3.3h0c-3.5-2.4-6.7-5.1-9.7-8.3c-1.9,2.6-4,5.1-6.4,7.4c-2.5,2.5-5.4,4.9-8.4,7
				c-12.6,8.7-27.3,12.1-41.5,10.6c-10.4-4-20.1-9.7-29-17.7c-1.5-1.3-3-2.7-4.4-4.1c-1.3-1.3-2.6-2.7-3.8-4.1
				c-16.6-18.4-28.4-43.7-34-70.3c-7.4-34.6-4.5-71.4,11.3-98.5c0.3-0.5,0.6-1,0.9-1.6c0.8-1.3,1.7-2.6,2.5-3.9
				c0.4-0.6,0.8-1.1,1.2-1.7c0.3-0.5,0.7-0.9,1-1.3c0.3-0.4,0.7-0.9,1-1.3c0.3-0.4,0.7-0.9,1-1.3c0.3-0.4,0.6-0.7,0.9-1.1l0.3-0.4
				c0.3-0.3,0.6-0.6,0.9-1c0-0.1,0.1-0.1,0.1-0.2c0.3-0.4,0.7-0.8,1-1.1c0.3-0.4,0.7-0.7,1-1.1c0.1-0.1,0.2-0.2,0.3-0.3
				c0.3-0.3,0.6-0.6,0.9-0.9c1.2-1.2,2.4-2.3,3.6-3.4c0.4-0.3,0.8-0.7,1.2-1C86.3,4.1,139.2,0.2,228.8,1.8c1,0,2,0,3,0.1
				c4.9,0.1,10,0.2,15.1,0.3c3.4,0.1,6.8,0.2,10.3,0.3c2.6,0.1,5.2,0.1,7.9,0.2c1.3,0,2.6,0.1,4,0.1c10.9,0.3,22.2,0.7,34,1
				c2.1,0.1,4.3,0.1,6.5,0.2c2,0.1,4,0.1,6.1,0.2c1.5,0,3,0.1,4.5,0.1h0c1,0,2.1,0.1,3.2,0.1h0c8.1,0.2,16.5,0.5,25,0.8
				c0.9,3.4,1.6,6.8,1.9,10.2C352.5,37.1,343.2,59.2,324,72.4z"/>
			<path class="st1" d="M1019.2,181.1c-14.2,4.9-30.2,4.5-44.9-2c-1.2-0.5-2.3-1.1-3.4-1.7c-11.8-6.2-20.8-15.6-26.4-26.6
				c-0.5-1-1-1.9-1.4-2.9c-2.6-5.8-4.2-12-4.9-18.3c0,0-0.1,0-0.1,0c-7.5,7.5-16.8,12.9-26.8,15.7c-1,0.3-2.1,0.6-3.1,0.8
				c-11.3,2.5-23.3,1.9-34.8-2.3c-0.1,0.1-0.1,0.3-0.2,0.5c-5.2,10-12.7,17.9-21.6,23.5c-0.9,0.6-1.9,1.2-2.9,1.7
				c-17.5,9.8-39.4,10.9-58.5,0.9c-0.7-0.4-1.4-0.8-2.1-1.2c-25.7-14.7-37-45.5-27.8-72.9c-2.8,3.4-11.7,13.1-25.7,14.9
				c-19.2,2.5-38.7-10.9-45-30c-6.2-18.6,1.2-39.7,18.2-51.2c-10.1-6-18-14.4-23.1-24.2c6.1-0.2,12-0.4,17.8-0.6c0.4,0,0.8,0,1.2,0
				c49.6-1.7,90-3.6,123.5-4.5c0.5,0,1.1,0,1.6,0c43.3-1.2,74.9-0.7,99.8,4.2c1,0.2,2,0.4,3,0.6c26.3,5.6,44.9,16.4,62,35.8
				c16.7,18.9,23.2,36.1,25.1,85.5c0,1,0.1,2,0.1,3.1C1019.2,144,1019.4,160.9,1019.2,181.1z"/>
			<path class="st1" d="M613.6,989.1c-5,13.1-24.7,16.3-57.9,14.9c-40.5-1.8-100.9-10.5-179-17.1c-35.8-3-75.2-5.6-118.2-6.8
				c-21.1-0.6-40.1-0.8-57.3-0.8c-107.7,0.2-144.7,8.4-176.7-24.2c-7-7.1-12.1-14.6-15.9-22.8c-20.6-44.6,1.1-109,7.9-240.2
				c0-0.2,0-0.3,0-0.4C20.5,617.1,18,551.4,14,495C4.3,359.4-14.3,278.5,25.6,260.1c28.5-13.1,47,24.1,138,30
				c7.5,0.5,14.3,0.7,20.5,0.6c3.9,6.9,6,14.6,6,22.7c0,29.2-28,52.9-62.5,52.9c-9.2,0-17.9-1.7-25.7-4.7
				c11.8,10,19.2,24.2,19.2,39.9c0,10.4-3.2,20.1-8.8,28.4c32.6,3.3,57.8,26.5,57.8,54.6c0,22-15.5,40.9-37.8,49.7
				c1.3,3.9,2.2,8.1,2.6,12.4c1.8,20.3-7.7,39.1-23.3,50c1.2-0.1,2.3-0.1,3.5-0.1c25.7,0,47.2,17.6,53.3,41.3
				c10.7-9.5,24.8-15.3,40.2-15.3c33.4,0,60.5,27.1,60.5,60.5c0,14.2-4.9,27.2-13.1,37.6c6.1-3.2,12.9-5.5,20.3-6.6
				c21.7-3.3,41.9,4.4,53,18.2c7-2.4,14.5-3.7,22.3-3.7c37.8,0,68.5,30.7,68.5,68.5c0,0.9,0,1.9-0.1,2.8
				c24.6,5.5,43.1,27.4,43.1,53.7c0,10.3-2.8,19.9-7.7,28.1c2.6,2.3,5.1,4.6,7.6,6.9h0.1c25.6,0,47.1,17.5,53.2,41.1
				c11.2-11.5,26.9-18.6,44.3-18.6c1.7,0,3.3,0.1,5,0.2c5.6,12.1,12.4,22,19.2,30.4C602,963.3,618.9,975.1,613.6,989.1z"/>
		</g>
	</g>
</g>
<g id="main">
	<g id="general_1_">
		<path class="st3" d="M812.7,693.3H372.4c-0.8,0-1.5-0.7-1.5-1.5s0.7-1.5,1.5-1.5h440.4c0.8,0,1.5,0.7,1.5,1.5
			S813.6,693.3,812.7,693.3z"/>
		<g id="notes_and_music_center">
			<g id="music_center">
				<linearGradient id="SVGID_1_" gradientUnits="userSpaceOnUse" x1="410.0782" y1="679.6252" x2="576.3343" y2="679.6252">
					<stop  offset="0" style="stop-color:#19233D"/>
					<stop  offset="0.9994" style="stop-color:#FC860A"/>
				</linearGradient>
				<path class="st4" d="M564.3,728.8H422.1c-6.6,0-12-5.4-12-12v-74.3c0-6.6,5.4-12,12-12h142.3c6.6,0,12,5.4,12,12v74.3
					C576.3,723.4,570.9,728.8,564.3,728.8z"/>
				<path class="st5" d="M570.7,645.9v67.6c0,0.5,0,1-0.1,1.5c0,0.1,0,0.2,0,0.4c0,0.1,0,0.2-0.1,0.4c-0.4,2.3-1.5,4.4-3.1,6
					c-0.2,0.2-0.4,0.4-0.5,0.6c-0.1,0.1-0.1,0.1-0.2,0.2c-0.2,0.2-0.5,0.4-0.7,0.6c-1.9,1.4-4.2,2.3-6.6,2.5c-0.2,0-0.4,0-0.6,0
					H427.8c-2.7,0-5.2-0.9-7.2-2.4c0,0,0,0,0,0c0,0-0.1-0.1-0.1-0.1c-0.2-0.2-0.4-0.4-0.7-0.5c-0.1-0.1-0.2-0.1-0.2-0.2
					c-1.8-1.7-3.2-4-3.6-6.6c0-0.2-0.1-0.5-0.1-0.8c-0.1-0.5-0.1-1-0.1-1.5v-67.6c0-1.5,0.3-2.8,0.7-4.1c0.1-0.3,0.2-0.5,0.3-0.8
					c0.6-1.4,1.5-2.6,2.6-3.7c0.2-0.2,0.5-0.4,0.7-0.6c2-1.7,4.5-2.7,7.3-2.8c0.1,0,0.2,0,0.4,0h130.9c2.8,0,5.4,1,7.5,2.6
					c0.2,0.2,0.5,0.4,0.7,0.6c1.2,1.1,2.1,2.4,2.7,3.9c0.1,0.2,0.2,0.5,0.3,0.8C570.4,643.1,570.7,644.5,570.7,645.9z"/>
				<path class="st6" d="M420.6,722.3v0.8c0,0,0,0,0,0c0,0-0.1-0.1-0.1-0.1c-0.2-0.2-0.4-0.4-0.7-0.5v-3c0-1.2,0-2.5,0-3.8v-4
					c0-1.1,0-2.2,0-3.3v-0.8c0-1,0-1.9,0-2.9c0-0.3,0-0.5,0-0.8c0-2.6,0-5.2,0-7.8v-0.8c0-2.3,0-4.6,0-6.9v-0.8c0-2.3,0-4.6,0-6.9
					V680c0-2.3,0-4.7,0-6.9v-0.8c0-2.4,0-4.7,0-7v-0.8c0-2.4,0-4.7,0-6.9v-0.8c0-2.4,0-4.7-0.1-6.9c0-0.3,0-0.5,0-0.8
					c0-2.5,0-4.8-0.1-6.9c0-0.3,0-0.5,0-0.8c0-1.4,0-2.7-0.1-3.9c0.2-0.2,0.5-0.5,0.7-0.7c0,1.4,0.1,2.9,0.1,4.6c0,0.3,0,0.5,0,0.8
					c0,2.1,0.1,4.4,0.1,6.9c0,0.3,0,0.5,0,0.8c0,2.2,0,4.5,0.1,6.9v0.8c0,2.2,0,4.6,0.1,6.9v0.8c0,2.3,0,4.6,0,7c0,0.3,0,0.5,0,0.8
					c0,2.3,0,4.6,0,6.9v0.8c0,2.3,0,4.6,0,6.9v0.8c0,2.3,0,4.6,0,6.9v0.8c0,2.6,0,5.2,0,7.8v0.8c0,1,0,1.9,0,2.9c0,0.2,0,0.5,0,0.8
					v3.3c0,0.3,0,0.5,0,0.8c0,0.8,0,1.6,0,2.4c0,0.2,0,0.5,0,0.8c0,1.3,0,2.5,0,3.8v0.8C420.6,721,420.6,721.6,420.6,722.3z"/>
				<path class="st6" d="M428.7,722.3v0.8c0,0.6,0,1.2,0,1.8c0,0.2,0,0.5,0,0.7h-0.8c0-0.2,0-0.5,0-0.7V715c0-1.5,0-3,0-4.5v-2.1
					c0-0.2,0-0.5,0-0.8c0-1.5,0-3.1,0-4.7c0-0.3,0-0.5,0-0.8c0-2.5,0-5,0-7.6v-0.8c0-2.3,0-4.5,0-6.8v-0.8c0-2.3,0-4.5,0-6.8v-0.8
					c0-2.3,0-4.5,0-6.8v-0.8c0-2.3,0-4.5,0-6.8v-0.8c0-2.3,0-4.6,0-6.8c0-0.3,0-0.5,0-0.8c0-2.4,0-4.6-0.1-6.8v-0.8
					c0-2.4-0.1-4.7-0.1-6.8c0-0.2,0-0.5,0-0.8c0-3-0.1-5.5-0.1-7.3c0.1,0,0.2,0,0.4,0h0.3c0.1,1.9,0.1,4.4,0.2,7.3
					c0,0.3,0,0.5,0,0.8c0,2.1,0.1,4.3,0.1,6.8c0,0.3,0,0.5,0,0.8c0,2.1,0,4.4,0.1,6.8v0.8c0,2.2,0,4.4,0.1,6.8v0.8
					c0,2.2,0,4.5,0,6.8c0,0.3,0,0.5,0,0.8c0,2.2,0,4.5,0,6.8v0.8c0,2.2,0,4.5,0,6.8v0.8c0,2.2,0,4.5,0,6.8v0.8c0,2.5,0,5.1,0,7.6
					v0.8c0,1.6,0,3.1,0,4.7v2.1c0,0.3,0,0.5,0,0.8c0,1.5,0,3,0,4.5v3.1C428.7,719.5,428.7,720.9,428.7,722.3z"/>
				<path class="st6" d="M436.8,722.3v3.2h-0.8c0-0.2,0-0.5,0-0.7c0-0.6,0-1.2,0-1.8v-0.8c0-1.4,0-2.8,0-4.2V715c0-1.5,0-3,0-4.5
					v-2.9c0-1.5,0-3.1,0-4.7c0-0.3,0-0.5,0-0.8c0-2.5,0-5,0-7.6c0-0.3,0-0.5,0-0.8c0-2.2,0-4.5,0-6.8c0-0.3,0-0.5,0-0.8
					c0-2.3,0-4.5,0-6.8v-0.8c0-2.3,0-4.5,0-6.8v-0.8c0-2.3,0-4.5,0-6.8v-0.8c0-2.3,0-4.6,0-6.8v-0.8c0-2.4,0-4.6-0.1-6.8
					c0-0.3,0-0.5,0-0.8c0-2.4,0-4.7-0.1-6.8c0-0.2,0-0.5,0-0.8c0-2.9-0.1-5.3-0.1-7.3h0.7c0.1,2,0.1,4.5,0.2,7.3c0,0.3,0,0.5,0,0.8
					c0,2.1,0.1,4.3,0.1,6.8c0,0.3,0,0.5,0,0.8c0,2.1,0,4.4,0.1,6.8c0,0.2,0,0.5,0,0.8c0,2.2,0,4.4,0,6.8v0.8c0,2.2,0,4.5,0,6.8
					c0,0.3,0,0.5,0,0.8c0,2.2,0,4.5,0,6.8v0.8c0,2.2,0,4.5,0,6.8c0,0.2,0,0.5,0,0.8c0,2.2,0,4.5,0,6.8c0,0.2,0,0.5,0,0.8
					c0,2.5,0,5.1,0,7.6c0,0.2,0,0.5,0,0.8c0,1.6,0,3.1,0,4.7v2.1c0,0.3,0,0.5,0,0.8c0,1.5,0,3,0,4.5v2.3c0,0.3,0,0.5,0,0.8
					C436.8,719.5,436.8,720.9,436.8,722.3z"/>
				<path class="st6" d="M444.9,722.3v3.2h-0.8c0-0.2,0-0.5,0-0.7c0-0.6,0-1.2,0-1.8v-0.8c0-1.4,0-2.8,0-4.2V715c0-1.5,0-3,0-4.5
					v-2.9c0-1.5,0-3.1,0-4.7v-0.8c0-2.5,0-5,0-7.6c0-0.3,0-0.5,0-0.8c0-2.2,0-4.5,0-6.8c0-0.3,0-0.5,0-0.8c0-2.3,0-4.5,0-6.8v-0.8
					c0-2.3,0-4.5,0-6.8v-0.8c0-2.3,0-4.5,0-6.8v-0.8c0-2.3,0-4.6,0-6.8v-0.8c0-2.4,0-4.6-0.1-6.8c0-0.3,0-0.5,0-0.8
					c0-2.4,0-4.7-0.1-6.8v-0.8c0-2.9-0.1-5.3-0.1-7.3h0.7c0.1,2,0.1,4.5,0.2,7.3c0,0.3,0,0.5,0,0.8c0,2.1,0.1,4.3,0.1,6.8
					c0,0.3,0,0.5,0,0.8c0,2.1,0,4.4,0.1,6.8c0,0.2,0,0.5,0,0.8c0,2.2,0,4.4,0,6.8v0.8c0,2.2,0,4.5,0,6.8c0,0.3,0,0.5,0,0.8
					c0,2.2,0,4.5,0,6.8v0.8c0,2.2,0,4.5,0,6.8c0,0.2,0,0.5,0,0.8c0,2.2,0,4.5,0,6.8c0,0.2,0,0.5,0,0.8c0,2.5,0,5.1,0,7.6
					c0,0.2,0,0.5,0,0.8c0,1.6,0,3.1,0,4.7v2.1c0,0.3,0,0.5,0,0.8c0,1.5,0,3,0,4.5v2.3c0,0.3,0,0.5,0,0.8
					C444.9,719.5,444.9,720.9,444.9,722.3z"/>
				<path class="st6" d="M453,722.3v3.2h-0.8c0-0.2,0-0.5,0-0.7c0-0.6,0-1.2,0-1.8v-0.8c0-1.4,0-2.8,0-4.2V715c0-1.5,0-3,0-4.5v-2.9
					c0-1.5,0-3.1,0-4.7c0-0.3,0-0.5,0-0.8c0-2.5,0-5,0-7.6c0-0.3,0-0.5,0-0.8c0-2.2,0-4.5,0-6.8c0-0.3,0-0.5,0-0.8
					c0-2.3,0-4.5,0-6.8v-0.8c0-2.3,0-4.5,0-6.8v-0.8c0-2.3,0-4.5,0-6.8v-0.8c0-2.3,0-4.6-0.1-6.8v-0.8c0-2.4,0-4.6-0.1-6.8
					c0-0.3,0-0.5,0-0.8c0-2.4,0-4.7-0.1-6.8c0-0.2,0-0.5,0-0.8c0-2.9-0.1-5.3-0.1-7.3h0.7c0,2,0.1,4.5,0.1,7.3c0,0.3,0,0.5,0,0.8
					c0,2.1,0.1,4.3,0.1,6.8c0,0.3,0,0.5,0,0.8c0,2.1,0,4.4,0.1,6.8c0,0.2,0,0.5,0,0.8c0,2.2,0,4.4,0.1,6.8v0.8c0,2.2,0,4.5,0,6.8
					c0,0.3,0,0.5,0,0.8c0,2.2,0,4.5,0,6.8v0.8c0,2.2,0,4.5,0,6.8c0,0.2,0,0.5,0,0.8c0,2.2,0,4.5,0,6.8c0,0.2,0,0.5,0,0.8
					c0,2.5,0,5.1,0,7.6c0,0.2,0,0.5,0,0.8c0,1.6,0,3.1,0,4.7v2.1c0,0.3,0,0.5,0,0.8c0,1.5,0,3,0,4.5v2.3c0,0.3,0,0.5,0,0.8
					C453,719.5,453,720.9,453,722.3z"/>
				<path class="st6" d="M461.1,723.1v2.5h-0.8c0-0.8,0-1.6,0-2.5v-0.8c0-1.1,0-2.2,0-3.3v-4c0-1.2,0-2.4,0-3.6v-3.7
					c0-1.3,0-2.6,0-3.9V703c0-2.5,0-5.1,0-7.7c0-0.3,0-0.5,0-0.8c0-2.3,0-4.5,0-6.8c0-0.3,0-0.5,0-0.8c0-2.3,0-4.6,0-6.8v-0.8
					c0-2.3,0-4.6,0-6.8v-0.8c0-2.3,0-4.6,0-6.8v-0.8c0-2.3,0-4.6,0-6.8v-0.8c0-2.4,0-4.6-0.1-6.8c0-0.3,0-0.5,0-0.8
					c0-2.4,0-4.7-0.1-6.8v-0.8c0-2.9-0.1-5.4-0.1-7.4h0.7c0,2,0.1,4.5,0.1,7.4c0,0.3,0,0.5,0,0.8c0,2.1,0.1,4.4,0.1,6.8
					c0,0.3,0,0.5,0,0.8c0,2.2,0,4.4,0.1,6.8c0,0.3,0,0.5,0,0.8c0,2.2,0,4.5,0,6.8v0.8c0,2.2,0,4.5,0,6.8c0,0.3,0,0.5,0,0.8
					c0,2.2,0,4.5,0,6.8v0.8c0,2.2,0,4.5,0,6.8c0,0.3,0,0.5,0,0.8c0,2.3,0,4.6,0,6.8c0,0.3,0,0.5,0,0.8c0,2.6,0,5.1,0,7.7
					c0,0.3,0,0.5,0,0.8c0,1.3,0,2.6,0,3.9v2.9c0,0.3,0,0.5,0,0.8c0,1.2,0,2.4,0,3.6v3.2c0,0.3,0,0.5,0,0.8c0,1.1,0,2.2,0,3.3
					C461.1,722.6,461.1,722.8,461.1,723.1z"/>
				<path class="st6" d="M469.2,722.3v0.8c0,0.6,0,1.2,0,1.8c0,0.2,0,0.5,0,0.7h-0.8c0-0.2,0-0.5,0-0.7V715c0-1.5,0-3,0-4.5v-2.1
					c0-0.2,0-0.5,0-0.8c0-1.5,0-3.1,0-4.7c0-0.3,0-0.5,0-0.8c0-2.5,0-5,0-7.6v-0.8c0-2.3,0-4.5,0-6.8v-0.8c0-2.3,0-4.5,0-6.8v-0.8
					c0-2.3,0-4.5,0-6.8v-0.8c0-2.3,0-4.5,0-6.8v-0.8c0-2.3,0-4.6,0-6.8v-0.8c0-2.4,0-4.6-0.1-6.8c0-0.3,0-0.5,0-0.8
					c0-2.4,0-4.7-0.1-6.8c0-0.2,0-0.5,0-0.8c-0.1-3-0.1-5.5-0.2-7.3h0.7c0.1,1.9,0.1,4.4,0.2,7.3c0,0.3,0,0.5,0,0.8
					c0,2.1,0.1,4.3,0.1,6.8c0,0.3,0,0.5,0,0.8c0,2.1,0,4.4,0.1,6.8v0.8c0,2.2,0,4.4,0.1,6.8v0.8c0,2.2,0,4.5,0,6.8
					c0,0.3,0,0.5,0,0.8c0,2.2,0,4.5,0,6.8v0.8c0,2.2,0,4.5,0,6.8v0.8c0,2.2,0,4.5,0,6.8v0.8c0,2.5,0,5.1,0,7.6v0.8
					c0,1.6,0,3.1,0,4.7v2.1c0,0.3,0,0.5,0,0.8c0,1.5,0,3,0,4.5v3.1C469.2,719.5,469.2,720.9,469.2,722.3z"/>
				<path class="st6" d="M477.4,725.5h-0.8c0-0.8,0-1.6,0-2.5c0-0.2,0-0.5,0-0.8c0-2.1,0-4.3,0-6.6V715c0-2.1,0-4.3,0-6.6v-0.8
					c0-2.2,0-4.4,0-6.6c0-0.2,0-0.5,0-0.8c0-2.4,0-4.9,0-7.4v-0.8c0-2.2,0-4.4,0-6.6v-0.8c0-2.2,0-4.4,0-6.6v-0.8c0-2.2,0-4.4,0-6.6
					v-0.8c0-2.2,0-4.4,0-6.6c0-0.2,0-0.5,0-0.7c0-2.3,0-4.5,0-6.6c0-0.2,0-0.5,0-0.8c0-2.3,0-4.5-0.1-6.6c0-0.2,0-0.5,0-0.8
					c0-2.4,0-4.6-0.1-6.6c0-0.2,0-0.5,0-0.8c0-2.9-0.1-5.3-0.2-7.1h0.7c0.1,1.8,0.1,4.3,0.2,7.1c0,0.2,0,0.5,0,0.8
					c0,2,0.1,4.2,0.1,6.6c0,0.2,0,0.5,0,0.8c0,2.1,0.1,4.3,0.1,6.6c0,0.2,0,0.5,0,0.8c0,2.1,0,4.3,0.1,6.6v0.7c0,2.1,0,4.3,0,6.6
					c0,0.2,0,0.5,0,0.8c0,2.1,0,4.3,0,6.6v0.8c0,2.2,0,4.3,0,6.6v0.8c0,2.2,0,4.4,0,6.6v0.8c0,2.5,0,4.9,0,7.4v0.8
					c0,2.2,0,4.4,0,6.6c0,0.2,0,0.5,0,0.8c0,2.2,0,4.4,0,6.6v0.8c0,2.2,0,4.4,0,6.6c0,0.2,0,0.5,0,0.8
					C477.4,723.9,477.4,724.7,477.4,725.5z"/>
				<path class="st6" d="M485.5,722.3v3.2h-0.8v-2.5c0-0.2,0-0.5,0-0.8c0-2.1,0-4.3,0-6.6V715c0-2.1,0-4.3,0-6.6v-0.8
					c0-2.2,0-4.4,0-6.6v-0.8c0-2.4,0-4.9,0-7.4c0-0.2,0-0.5,0-0.8c0-2.2,0-4.4,0-6.6c0-0.2,0-0.5,0-0.8c0-2.2,0-4.4,0-6.6v-0.8
					c0-2.2,0-4.4,0-6.6v-0.8c0-2.2,0-4.4,0-6.6V663c0-2.2,0-4.5,0-6.6c0-0.2,0-0.5,0-0.8c0-2.3,0-4.5,0-6.6c0-0.2,0-0.5,0-0.8
					c0-2.4,0-4.5-0.1-6.6c0-0.2,0-0.5,0-0.8c0-2.8-0.1-5.2-0.1-7.1h0.7c0.1,2,0.1,4.4,0.2,7.1c0,0.2,0,0.5,0,0.8
					c0,2,0.1,4.2,0.1,6.6c0,0.2,0,0.5,0,0.8c0,2.1,0.1,4.3,0.1,6.6c0,0.2,0,0.5,0,0.8c0,2.1,0,4.3,0,6.6v0.7c0,2.1,0,4.3,0,6.6
					c0,0.2,0,0.5,0,0.8c0,2.1,0,4.3,0,6.6v0.8c0,2.2,0,4.4,0,6.6c0,0.2,0,0.5,0,0.8c0,2.2,0,4.4,0,6.6c0,0.2,0,0.5,0,0.8
					c0,2.5,0,4.9,0,7.4c0,0.2,0,0.5,0,0.8c0,2.2,0,4.4,0,6.6c0,0.2,0,0.5,0,0.8c0,2.2,0,4.4,0,6.6c0,0.2,0,0.5,0,0.8
					C485.5,718,485.5,720.2,485.5,722.3z"/>
				<path class="st6" d="M493.6,722.3v3.2h-0.8v-2.5c0-0.2,0-0.5,0-0.8c0-2.1,0-4.3,0-6.6V715c0-2.1,0-4.3,0-6.6v-0.8
					c0-2.2,0-4.4,0-6.6v-0.8c0-2.4,0-4.9,0-7.4c0-0.2,0-0.5,0-0.8c0-2.2,0-4.4,0-6.6c0-0.2,0-0.5,0-0.8c0-2.2,0-4.4,0-6.6v-0.8
					c0-2.2,0-4.4,0-6.6v-0.8c0-2.2,0-4.4,0-6.6V663c0-2.2,0-4.5,0-6.6v-0.8c0-2.3,0-4.5-0.1-6.6c0-0.2,0-0.5,0-0.8
					c0-2.4,0-4.5-0.1-6.6v-0.8c0-2.8-0.1-5.2-0.1-7.1h0.7c0,2,0.1,4.4,0.1,7.1c0,0.2,0,0.5,0,0.8c0,2,0.1,4.2,0.1,6.6
					c0,0.2,0,0.5,0,0.8c0,2.1,0,4.3,0.1,6.6c0,0.2,0,0.5,0,0.8c0,2.1,0,4.3,0,6.6v0.7c0,2.1,0,4.3,0,6.6c0,0.2,0,0.5,0,0.8
					c0,2.1,0,4.3,0,6.6v0.8c0,2.2,0,4.4,0,6.6c0,0.2,0,0.5,0,0.8c0,2.2,0,4.4,0,6.6c0,0.2,0,0.5,0,0.8c0,2.5,0,4.9,0,7.4
					c0,0.2,0,0.5,0,0.8c0,2.2,0,4.4,0,6.6c0,0.2,0,0.5,0,0.8c0,2.2,0,4.4,0,6.6c0,0.2,0,0.5,0,0.8
					C493.6,718,493.6,720.2,493.6,722.3z"/>
				<path class="st6" d="M501.7,723.1c0-0.2,0-0.5,0-0.8c0-2.1,0-4.3,0-6.6c0-0.2,0-0.5,0-0.8c0-2.1,0-4.3,0-6.6c0-0.2,0-0.5,0-0.8
					c0-2.2,0-4.4,0-6.6v-0.8c0-2.4,0-4.9,0-7.4v-0.8c0-2.2,0-4.4,0-6.6v-0.8c0-2.2,0-4.4,0-6.6v-0.8c0-2.2,0-4.4,0-6.6
					c0-0.2,0-0.5,0-0.8c0-2.2,0-4.4,0-6.6c0-0.2,0-0.5,0-0.7c0-2.3,0-4.5,0-6.6c0-0.2,0-0.5,0-0.8c0-2.3,0-4.5-0.1-6.6
					c0-0.2,0-0.5,0-0.8c0-2.4-0.1-4.6-0.1-6.6c0-0.3,0-0.5,0-0.8c-0.1-3.1-0.1-5.5-0.2-7.1h0.7c0.1,1.7,0.2,4.1,0.2,7.1
					c0,0.2,0,0.5,0,0.8c0,2,0.1,4.2,0.1,6.6c0,0.2,0,0.5,0,0.8c0,2.1,0.1,4.2,0.1,6.6c0,0.2,0,0.5,0,0.8c0,2.1,0,4.3,0,6.6
					c0,0.2,0,0.5,0,0.7c0,2.1,0,4.3,0,6.6c0,0.2,0,0.5,0,0.8c0,2.1,0,4.3,0,6.6c0,0.2,0,0.5,0,0.8c0,2.2,0,4.3,0,6.6
					c0,0.2,0,0.5,0,0.8c0,2.2,0,4.4,0,6.6v0.8c0,2.5,0,4.9,0,7.4c0,0.2,0,0.5,0,0.8c0,2.2,0,4.4,0,6.6v0.8c0,2.2,0,4.4,0,6.6v0.8
					c0,2.2,0,4.4,0,6.6c0,0.2,0,0.5,0,0.8c0,0.8,0,1.7,0,2.5h-0.8C501.8,724.7,501.8,723.9,501.7,723.1z"/>
				<path class="st6" d="M509.9,723.1c0-0.2,0-0.5,0-0.8c0-2.1,0-4.3,0-6.6c0-0.2,0-0.5,0-0.8c0-2.1,0-4.3,0-6.6c0-0.2,0-0.5,0-0.8
					c0-2.2,0-4.4,0-6.6v-0.8c0-2.4,0-4.9,0-7.4v-0.8c0-2.2,0-4.4,0-6.6v-0.8c0-2.2,0-4.4,0-6.6v-0.8c0-2.2,0-4.4,0-6.6
					c0-0.2,0-0.5,0-0.8c0-2.2,0-4.4,0-6.6c0-0.2,0-0.5,0-0.7c0-2.3,0-4.5,0-6.6v-0.8c0-2.3,0-4.5-0.1-6.6c0-0.2,0-0.5,0-0.8
					c0-2.4,0-4.6-0.1-6.6c0-0.3,0-0.5,0-0.8c0-3.1-0.1-5.5-0.2-7.1h0.7c0.1,1.7,0.2,4.1,0.2,7.1c0,0.2,0,0.5,0,0.8
					c0,2,0.1,4.2,0.1,6.6c0,0.2,0,0.5,0,0.8c0,2.1,0,4.2,0.1,6.6c0,0.2,0,0.5,0,0.8c0,2.1,0,4.3,0.1,6.6c0,0.2,0,0.5,0,0.7
					c0,2.1,0,4.3,0,6.6c0,0.2,0,0.5,0,0.8c0,2.1,0,4.3,0,6.6c0,0.2,0,0.5,0,0.8c0,2.2,0,4.3,0,6.6c0,0.2,0,0.5,0,0.8
					c0,2.2,0,4.4,0,6.6v0.8c0,2.5,0,4.9,0,7.4c0,0.2,0,0.5,0,0.8c0,2.2,0,4.4,0,6.6v0.8c0,2.2,0,4.4,0,6.6v0.8c0,2.2,0,4.4,0,6.6
					c0,0.2,0,0.5,0,0.8c0,0.8,0,1.7,0,2.5h-0.8C509.9,724.7,509.9,723.9,509.9,723.1z"/>
				<path class="st6" d="M518.7,725.5H518c0-0.8,0-1.6,0-2.5c0-0.2,0-0.5,0-0.8c0-2.1,0-4.3,0-6.6V715c0-2.1,0-4.3,0-6.6v-0.8
					c0-2.2,0-4.4,0-6.6c0-0.2,0-0.5,0-0.8c0-2.4,0-4.9,0-7.4v-0.8c0-2.2,0-4.4,0-6.6v-0.8c0-2.2,0-4.4,0-6.6v-0.8c0-2.2,0-4.4,0-6.6
					v-0.8c0-2.2,0-4.4,0-6.6c0-0.2,0-0.5,0-0.7c0-2.3,0-4.5,0-6.6c0-0.2,0-0.5,0-0.8c0-2.3,0-4.5-0.1-6.6c0-0.2,0-0.5,0-0.8
					c0-2.4,0-4.6-0.1-6.6c0-0.2,0-0.5,0-0.8c0-2.9-0.1-5.3-0.1-7.1h0.7c0.1,1.8,0.1,4.3,0.2,7.1c0,0.2,0,0.5,0,0.8
					c0,2,0.1,4.2,0.1,6.6c0,0.2,0,0.5,0,0.8c0,2.1,0,4.3,0.1,6.6v0.8c0,2.1,0,4.3,0.1,6.6v0.7c0,2.1,0,4.3,0,6.6c0,0.2,0,0.5,0,0.8
					c0,2.1,0,4.3,0,6.6v0.8c0,2.2,0,4.3,0,6.6v0.8c0,2.2,0,4.4,0,6.6v0.8c0,2.5,0,4.9,0,7.4v0.8c0,2.2,0,4.4,0,6.6
					c0,0.2,0,0.5,0,0.8c0,2.2,0,4.4,0,6.6v0.8c0,2.2,0,4.4,0,6.6c0,0.2,0,0.5,0,0.8C518.7,723.9,518.7,724.7,518.7,725.5z"/>
				<path class="st6" d="M526.8,725.5h-0.8c0-0.8,0-1.6,0-2.5c0-0.2,0-0.5,0-0.8c0-2.1,0-4.3,0-6.6V715c0-2.1,0-4.3,0-6.6v-0.8
					c0-2.2,0-4.4,0-6.6c0-0.2,0-0.5,0-0.8c0-2.4,0-4.9,0-7.4v-0.8c0-2.2,0-4.4,0-6.6v-0.8c0-2.2,0-4.4,0-6.6v-0.8c0-2.2,0-4.4,0-6.6
					v-0.8c0-2.2,0-4.4,0-6.6c0-0.2,0-0.5,0-0.7c0-2.3,0-4.5,0-6.6c0-0.2,0-0.5,0-0.8c0-2.3,0-4.5-0.1-6.6c0-0.2,0-0.5,0-0.8
					c0-2.4,0-4.6-0.1-6.6c0-0.2,0-0.5,0-0.8c0-2.9-0.1-5.3-0.1-7.1h0.7c0.1,1.8,0.1,4.3,0.2,7.1c0,0.2,0,0.5,0,0.8
					c0,2,0.1,4.2,0.1,6.6c0,0.2,0,0.5,0,0.8c0,2.1,0,4.3,0.1,6.6v0.8c0,2.1,0,4.3,0.1,6.6v0.7c0,2.1,0,4.3,0,6.6c0,0.2,0,0.5,0,0.8
					c0,2.1,0,4.3,0,6.6v0.8c0,2.2,0,4.3,0,6.6v0.8c0,2.2,0,4.4,0,6.6v0.8c0,2.5,0,4.9,0,7.4v0.8c0,2.2,0,4.4,0,6.6
					c0,0.2,0,0.5,0,0.8c0,2.2,0,4.4,0,6.6v0.8c0,2.2,0,4.4,0,6.6c0,0.2,0,0.5,0,0.8C526.8,723.9,526.8,724.7,526.8,725.5z"/>
				<path class="st6" d="M534.9,725.5h-0.8c0-0.8,0-1.6,0-2.5c0-0.2,0-0.5,0-0.8c0-2.1,0-4.3,0-6.6V715c0-2.1,0-4.3,0-6.6v-0.8
					c0-2.2,0-4.4,0-6.6c0-0.2,0-0.5,0-0.8c0-2.4,0-4.9,0-7.4v-0.8c0-2.2,0-4.4,0-6.6v-0.8c0-2.2,0-4.4,0-6.6v-0.8c0-2.2,0-4.4,0-6.6
					v-0.8c0-2.2,0-4.4,0-6.6c0-0.2,0-0.5,0-0.7c0-2.3,0-4.5,0-6.6c0-0.2,0-0.5,0-0.8c0-2.3,0-4.5-0.1-6.6c0-0.2,0-0.5,0-0.8
					c0-2.4,0-4.6-0.1-6.6c0-0.2,0-0.5,0-0.8c-0.1-2.9-0.1-5.3-0.2-7.1h0.7c0.1,1.8,0.1,4.3,0.2,7.1c0,0.2,0,0.5,0,0.8
					c0,2,0.1,4.2,0.1,6.6c0,0.2,0,0.5,0,0.8c0,2.1,0,4.3,0.1,6.6v0.8c0,2.1,0,4.3,0.1,6.6v0.7c0,2.1,0,4.3,0,6.6c0,0.2,0,0.5,0,0.8
					c0,2.1,0,4.3,0,6.6v0.8c0,2.2,0,4.3,0,6.6v0.8c0,2.2,0,4.4,0,6.6v0.8c0,2.5,0,4.9,0,7.4v0.8c0,2.2,0,4.4,0,6.6
					c0,0.2,0,0.5,0,0.8c0,2.2,0,4.4,0,6.6v0.8c0,2.2,0,4.4,0,6.6c0,0.2,0,0.5,0,0.8C534.9,723.9,534.9,724.7,534.9,725.5z"/>
				<path class="st6" d="M543.1,725.5h-0.8c0-0.8,0-1.6,0-2.5c0-0.2,0-0.5,0-0.8c0-2.1,0-4.3,0-6.6V715c0-2.1,0-4.3,0-6.6v-0.8
					c0-2.2,0-4.4,0-6.6c0-0.2,0-0.5,0-0.8c0-2.4,0-4.9,0-7.4v-0.8c0-2.2,0-4.4,0-6.6v-0.8c0-2.2,0-4.4,0-6.6v-0.8c0-2.2,0-4.4,0-6.6
					v-0.8c0-2.2,0-4.4,0-6.6V663c0-2.3,0-4.5,0-6.6c0-0.2,0-0.5,0-0.8c0-2.3,0-4.5-0.1-6.6v-0.8c0-2.4-0.1-4.6-0.1-6.6v-0.8
					c0-2.9-0.1-5.3-0.2-7.1h0.7c0.1,1.8,0.1,4.3,0.2,7.1c0,0.2,0,0.5,0,0.8c0,2,0.1,4.2,0.1,6.6c0,0.2,0,0.5,0,0.8
					c0,2.1,0,4.3,0.1,6.6v0.8c0,2.1,0,4.3,0.1,6.6v0.7c0,2.1,0,4.3,0,6.6c0,0.2,0,0.5,0,0.8c0,2.1,0,4.3,0,6.6v0.8
					c0,2.2,0,4.3,0,6.6v0.8c0,2.2,0,4.4,0,6.6v0.8c0,2.5,0,4.9,0,7.4v0.8c0,2.2,0,4.4,0,6.6c0,0.2,0,0.5,0,0.8c0,2.2,0,4.4,0,6.6
					v0.8c0,2.2,0,4.4,0,6.6c0,0.2,0,0.5,0,0.8C543.1,723.9,543.1,724.7,543.1,725.5z"/>
				<path class="st6" d="M550.4,723.1c0-0.2,0-0.5,0-0.8c0-2.1,0-4.3,0-6.6c0-0.2,0-0.5,0-0.8c0-2.1,0-4.3,0-6.6c0-0.2,0-0.5,0-0.8
					c0-2.2,0-4.4,0-6.6v-0.8c0-2.4,0-4.9,0-7.4v-0.8c0-2.2,0-4.4,0-6.6v-0.8c0-2.2,0-4.4,0-6.6v-0.8c0-2.2,0-4.4,0-6.6
					c0-0.2,0-0.5,0-0.8c0-2.2,0-4.4,0-6.6c0-0.2,0-0.5,0-0.7c0-2.3,0-4.5,0-6.6v-0.8c0-2.3,0-4.5-0.1-6.6c0-0.2,0-0.5,0-0.8
					c0-2.4,0-4.6-0.1-6.6c0-0.3,0-0.5,0-0.8c-0.1-3.1-0.1-5.5-0.2-7.1h0.7c0.1,1.7,0.2,4.1,0.2,7.1c0,0.2,0,0.5,0,0.8
					c0,2,0.1,4.2,0.1,6.6c0,0.2,0,0.5,0,0.8c0,2.1,0,4.2,0.1,6.6c0,0.2,0,0.5,0,0.8c0,2.1,0,4.3,0,6.6c0,0.2,0,0.5,0,0.7
					c0,2.1,0,4.3,0,6.6c0,0.2,0,0.5,0,0.8c0,2.1,0,4.3,0,6.6c0,0.2,0,0.5,0,0.8c0,2.2,0,4.3,0,6.6c0,0.2,0,0.5,0,0.8
					c0,2.2,0,4.4,0,6.6v0.8c0,2.5,0,4.9,0,7.4c0,0.2,0,0.5,0,0.8c0,2.2,0,4.4,0,6.6v0.8c0,2.2,0,4.4,0,6.6v0.8c0,2.2,0,4.4,0,6.6
					c0,0.2,0,0.5,0,0.8c0,0.8,0,1.7,0,2.5h-0.8C550.4,724.7,550.4,723.9,550.4,723.1z"/>
				<path class="st6" d="M559.3,725.5c-0.2,0-0.4,0-0.6,0h-0.1c0-0.8,0-1.6,0-2.5c0-0.2,0-0.5,0-0.8c0-2.1,0-4.3,0-6.6
					c0-0.2,0-0.5,0-0.8c0-2.1,0-4.3,0-6.6c0-0.2,0-0.5,0-0.8c0-2.2,0-4.4,0-6.6v-0.8c0-2.4,0-4.9,0-7.4v-0.8c0-2.2,0-4.4,0-6.6v-0.8
					c0-2.2,0-4.4,0-6.6v-0.8c0-2.2,0-4.4,0-6.6c0-0.2,0-0.5,0-0.8c0-2.2,0-4.4,0-6.6V663c0-2.3,0-4.5,0-6.6c0-0.2,0-0.5,0-0.8
					c0-2.3,0-4.5-0.1-6.6c0-0.2,0-0.5,0-0.8c0-2.4-0.1-4.6-0.1-6.6c0-0.3,0-0.5,0-0.8c-0.1-3.1-0.1-5.5-0.2-7.1h0.7
					c0.1,1.7,0.2,4.1,0.2,7.1c0,0.2,0,0.5,0,0.8c0,2,0.1,4.2,0.1,6.6c0,0.2,0,0.5,0,0.8c0,2.1,0,4.2,0.1,6.6c0,0.2,0,0.5,0,0.8
					c0,2.1,0,4.3,0,6.6c0,0.2,0,0.5,0,0.7c0,2.1,0,4.3,0,6.6c0,0.2,0,0.5,0,0.8c0,2.1,0,4.3,0,6.6c0,0.2,0,0.5,0,0.8
					c0,2.2,0,4.3,0,6.6c0,0.2,0,0.5,0,0.8c0,2.2,0,4.4,0,6.6v0.8c0,2.5,0,4.9,0,7.4c0,0.2,0,0.5,0,0.8c0,2.2,0,4.4,0,6.6v0.8
					c0,2.2,0,4.4,0,6.6v0.8c0,2.2,0,4.4,0,6.6c0,0.2,0,0.5,0,0.8C559.3,723.9,559.3,724.7,559.3,725.5z"/>
				<path class="st6" d="M567.4,721.7c-0.2,0.2-0.4,0.4-0.5,0.6c-0.1,0.1-0.1,0.1-0.2,0.2c0-0.1,0-0.1,0-0.2c0-2.1,0-4.3,0-6.6V715
					c0-2.1,0-4.3,0-6.6v-0.8c0-2.2,0-4.4,0-6.6c0-0.2,0-0.5,0-0.8c0-2.4,0-4.9,0-7.4v-0.8c0-2.2,0-4.4,0-6.6v-0.8c0-2.2,0-4.4,0-6.6
					v-0.8c0-2.2,0-4.4,0-6.6v-0.8c0-2.2,0-4.4,0-6.6c0-0.2,0-0.5,0-0.7c0-2.3,0-4.5,0-6.6c0-0.2,0-0.5,0-0.8c0-2.3,0-4.5-0.1-6.6
					c0-0.2,0-0.5,0-0.8c0-2.4,0-4.6-0.1-6.6c0-0.2,0-0.5,0-0.8c0-1.7-0.1-3.2-0.1-4.5c0.2,0.2,0.5,0.4,0.7,0.6c0,1.2,0,2.5,0.1,3.9
					c0,0.2,0,0.5,0,0.8c0,2,0.1,4.2,0.1,6.6c0,0.2,0,0.5,0,0.8c0,2.1,0,4.3,0.1,6.6v0.8c0,2.1,0,4.3,0.1,6.6v0.7c0,2.1,0,4.3,0,6.6
					c0,0.2,0,0.5,0,0.8c0,2.1,0,4.3,0,6.6v0.8c0,2.2,0,4.3,0,6.6v0.8c0,2.2,0,4.4,0,6.6v0.8c0,2.5,0,4.9,0,7.4v0.8
					c0,2.2,0,4.4,0,6.6c0,0.2,0,0.5,0,0.8c0,2.2,0,4.4,0,6.6v0.8C567.4,717.8,567.4,719.8,567.4,721.7z"/>
				<path class="st6" d="M569.9,641.8H416.5c0.1-0.3,0.2-0.5,0.3-0.8h152.8C569.7,641.3,569.8,641.6,569.9,641.8z"/>
				<rect x="415.8" y="648.4" class="st6" width="154.9" height="0.8"/>
				<rect x="415.8" y="655.7" class="st6" width="154.9" height="0.8"/>
				<rect x="415.8" y="663" class="st6" width="154.9" height="0.7"/>
				<rect x="415.8" y="670.3" class="st6" width="154.9" height="0.8"/>
				<rect x="415.8" y="677.6" class="st6" width="154.9" height="0.8"/>
				<rect x="415.8" y="684.9" class="st6" width="154.9" height="0.8"/>
				<rect x="415.8" y="692.2" class="st6" width="154.9" height="0.8"/>
				<rect x="415.8" y="700.4" class="st6" width="154.9" height="0.8"/>
				<rect x="415.8" y="707.7" class="st6" width="154.9" height="0.8"/>
				<path class="st6" d="M570.6,715c0,0.1,0,0.2,0,0.4c0,0.1,0,0.2-0.1,0.4H416c0-0.2-0.1-0.5-0.1-0.8H570.6z"/>
				<path class="st6" d="M566.8,722.3c-0.1,0.1-0.1,0.1-0.2,0.2c-0.2,0.2-0.5,0.4-0.7,0.6H420.5c-0.2-0.2-0.4-0.4-0.7-0.5
					c-0.1-0.1-0.2-0.1-0.2-0.2H566.8z"/>
				<path class="st7" d="M570.7,645.9v67.6c0,0.5,0,1-0.1,1.5c0,0.3-0.1,0.5-0.1,0.8c-0.4,2.3-1.5,4.4-3.1,6
					c-0.2,0.2-0.4,0.4-0.5,0.6c-0.1,0.1-0.1,0.1-0.2,0.2c-0.2,0.2-0.5,0.4-0.7,0.6c-1.9,1.4-4.2,2.3-6.6,2.5c-0.2,0-0.4,0-0.6,0
					H427.8c-2.7,0-5.2-0.9-7.2-2.4c0,0-0.1-0.1-0.1-0.1c-0.2-0.2-0.4-0.4-0.7-0.5c-0.1-0.1-0.2-0.1-0.2-0.2
					c-2.4-2.2-3.8-5.3-3.8-8.8v-67.6c0-1.5,0.3-2.8,0.7-4.1c0.1-0.3,0.2-0.5,0.3-0.8c0.6-1.4,1.5-2.6,2.6-3.7
					c0.2-0.2,0.5-0.4,0.7-0.6c2-1.7,4.5-2.7,7.3-2.8c0.1,0,0.2,0,0.4,0h130.9c2.8,0,5.4,1,7.5,2.6c0.2,0.2,0.5,0.4,0.7,0.6
					c1.2,1.1,2.1,2.4,2.7,3.9c0.1,0.2,0.2,0.5,0.3,0.8C570.4,643.1,570.7,644.5,570.7,645.9z"/>
			</g>
			<path class="st8" d="M523.9,453c-0.8-0.7-1.7-1.1-2.5-1l5.7-11c0.1-0.2,0-0.4-0.1-0.5l-12.9-11.7c-0.1-0.1-0.2-0.1-0.3-0.1
				s-0.2,0.1-0.3,0.2l-6.2,12c0,0,0,0,0,0c-0.7,0.9-0.4,2.4,0.9,3.5c1.3,1.1,2.9,1.3,3.7,0.4c0.8-0.9,0.5-2.5-0.8-3.6
				c-0.8-0.7-1.7-1.1-2.5-1l5.4-10.5l12.3,11.1l-6,11.7c0,0,0,0,0,0c-0.7,0.9-0.4,2.4,0.9,3.5c1.3,1.1,2.9,1.3,3.7,0.4
				C525.5,455.7,525.1,454.1,523.9,453z M510.4,441.8c0.9,0.8,1.2,1.9,0.7,2.5c-0.5,0.5-1.6,0.3-2.5-0.5c-0.9-0.8-1.2-1.9-0.7-2.5
				C508.4,440.8,509.5,441,510.4,441.8z M521.5,455.5c-0.9-0.8-1.2-1.9-0.7-2.5c0.5-0.5,1.6-0.3,2.5,0.5c0.9,0.8,1.2,1.9,0.7,2.5
				C523.6,456.6,522.4,456.3,521.5,455.5z"/>
			<path class="st8" d="M518.5,558.2c0.7,1.5,2.8,2,4.9,1.1c2.1-0.9,3.2-2.7,2.6-4.2c0,0,0,0,0,0l-2.7-17.8l20.7-9l2.4,16
				c-1-0.4-2.3-0.4-3.6,0.2c-2.1,0.9-3.3,2.8-2.6,4.3c0.7,1.5,2.8,2,4.9,1.1c2.1-0.9,3.2-2.7,2.6-4.2c0,0,0,0,0,0l-2.7-18.2
				c0-0.2-0.1-0.3-0.3-0.4c-0.2-0.1-0.3-0.1-0.5,0l-21.7,9.4c-0.2,0.1-0.4,0.3-0.3,0.6l2.5,16.7c-1-0.4-2.3-0.4-3.6,0.2
				C519,554.8,517.8,556.7,518.5,558.2z M546.7,545.9c0.4,0.9-0.5,2.2-2,2.9c-1.5,0.6-3.1,0.4-3.5-0.5c-0.4-0.9,0.5-2.2,2-2.9
				C544.7,544.8,546.3,545,546.7,545.9z M519.5,557.7c-0.4-0.9,0.5-2.2,2-2.9c1.5-0.6,3.1-0.4,3.5,0.5c0.4,0.9-0.5,2.2-2,2.9
				C521.5,558.9,519.9,558.6,519.5,557.7z"/>
			<path class="st8" d="M468.9,515.7c-1.3-0.6-2.7-0.6-3.6-0.2l2.5-16.7c0-0.3-0.1-0.5-0.3-0.6l-21.7-9.4c-0.2-0.1-0.3-0.1-0.5,0
				s-0.3,0.2-0.3,0.4l-2.7,18.2c0,0,0,0,0,0c-0.5,1.5,0.6,3.3,2.6,4.2c2.1,0.9,4.3,0.5,4.9-1.1c0.7-1.5-0.5-3.4-2.6-4.3
				c-1.3-0.6-2.7-0.6-3.6-0.2l2.4-16l20.7,9l-2.7,17.8c0,0,0,0,0,0c-0.5,1.5,0.6,3.3,2.6,4.2c2.1,0.9,4.3,0.5,4.9-1.1
				C472.2,518.5,471,516.6,468.9,515.7z M446.7,507.3c1.5,0.6,2.4,2,2,2.9c-0.4,0.9-2,1.1-3.5,0.5c-1.5-0.6-2.4-2-2-2.9
				C443.6,506.8,445.2,506.6,446.7,507.3z M467,520c-1.5-0.6-2.4-2-2-2.9c0.4-0.9,2-1.1,3.5-0.5c1.5,0.6,2.4,2,2,2.9
				C470.1,520.5,468.5,520.7,467,520z"/>
			<path class="st8" d="M610.2,522.3c-0.8-0.8-1.9-1.2-2.7-1.1l6.2-12c0.1-0.2,0.1-0.4-0.1-0.5l-14-12.8c-0.1-0.1-0.2-0.1-0.4-0.1
				c-0.1,0-0.3,0.1-0.3,0.2l-6.8,13.1c0,0,0,0,0,0c-0.8,1-0.4,2.7,0.9,3.9c1.4,1.2,3.1,1.5,4,0.5c0.9-1,0.5-2.7-0.8-4
				c-0.8-0.8-1.9-1.2-2.7-1.1l6-11.4l13.3,12.2l-6.6,12.8c0,0,0,0,0,0c-0.8,1-0.4,2.7,0.9,3.9c1.4,1.2,3.1,1.5,4,0.5
				C611.9,525.3,611.6,523.6,610.2,522.3z M595.6,510.2c1,0.9,1.3,2.1,0.8,2.7s-1.8,0.3-2.7-0.6c-1-0.9-1.3-2.1-0.8-2.7
				S594.6,509.3,595.6,510.2z M607.6,525.1c-1-0.9-1.3-2.1-0.8-2.7c0.5-0.6,1.8-0.3,2.7,0.6s1.3,2.1,0.8,2.7
				C609.9,526.3,608.6,526,607.6,525.1z"/>
			<path class="st8" d="M528.9,593.5c-0.2-0.1-0.4-0.2-0.5-0.1l-14.8,4.3c-0.3,0.1-0.5,0.3-0.5,0.6l0.3,10.5c0,0-0.1,0-0.1,0
				c-0.6-0.2-1.3-0.2-2.1,0c-1.6,0.5-2.5,1.7-2.2,2.9c0.2,0.6,0.7,1.1,1.4,1.3c0.6,0.2,1.3,0.2,2.1,0c0.5-0.1,0.9-0.4,1.3-0.6
				c0.2-0.1,0.3-0.3,0.5-0.5c0.4-0.5,0.6-1.1,0.5-1.7c0,0,0,0,0,0l-0.2-9.2l13.5-4l0.2,7.5c0,0-0.1,0-0.1,0c-0.6-0.2-1.3-0.2-2.1,0
				c-0.7,0.2-1.3,0.6-1.7,1.1c-0.5,0.6-0.6,1.2-0.5,1.8c0.2,0.6,0.7,1.1,1.4,1.3c0.6,0.2,1.3,0.2,2.1,0c0.5-0.1,0.9-0.4,1.3-0.6
				c0.7-0.6,1.1-1.3,1-2.1c0,0,0,0,0,0l-0.3-12C529.2,593.8,529.1,593.6,528.9,593.5z M513.3,611.1c-0.3,0.3-0.7,0.6-1.1,0.7
				c-0.5,0.1-1,0.1-1.3,0c-0.1,0-0.5-0.2-0.5-0.4l0,0c-0.1-0.3,0.1-0.6,0.5-0.9c0.2-0.2,0.5-0.3,0.8-0.4c0.5-0.1,1-0.1,1.3,0
				c0.1,0,0.5,0.2,0.5,0.4C513.6,610.7,513.4,611,513.3,611.1z M514.5,599.7l0-0.9l13.5-4l0,0.9L514.5,599.7z M526.9,607.5
				c-0.5,0.1-1,0.1-1.3,0c-0.1,0-0.5-0.2-0.5-0.4c0,0,0,0,0,0c-0.1-0.3,0.1-0.5,0.2-0.7c0.1-0.1,0.2-0.2,0.3-0.3
				c0.2-0.2,0.5-0.3,0.8-0.4c0.5-0.1,1-0.1,1.3,0c0.1,0,0.5,0.2,0.5,0.4C528.4,606.5,527.8,607.2,526.9,607.5z"/>
			<path class="st8" d="M594.2,438.7c-0.1-0.2-0.2-0.3-0.4-0.4l-14.4-5.5c-0.3-0.1-0.6,0-0.7,0.2l-6.2,8.5c0,0,0-0.1-0.1-0.1
				c-0.4-0.5-1-1-1.6-1.2c-1.5-0.6-3.1-0.2-3.5,1c-0.2,0.6-0.1,1.3,0.3,1.9c0.4,0.5,1,1,1.6,1.2c0.5,0.2,0.9,0.3,1.4,0.3
				c0.2,0,0.5,0,0.7-0.1c0.6-0.1,1.1-0.5,1.4-1c0,0,0,0,0,0l5.4-7.5l13.1,5.1l-4.4,6.1c0,0,0-0.1-0.1-0.1c-0.4-0.5-1-1-1.6-1.2
				c-0.7-0.3-1.4-0.3-2-0.2c-0.7,0.2-1.2,0.6-1.5,1.2c-0.2,0.6-0.1,1.3,0.3,1.9c0.4,0.5,1,1,1.6,1.2c0.5,0.2,0.9,0.3,1.4,0.3
				c0.9,0,1.7-0.4,2-1.1c0,0,0,0,0,0l7-9.7C594.2,439.1,594.2,438.9,594.2,438.7z M571,443.1c-0.4,0.1-0.9,0-1.3-0.1
				c-0.5-0.2-0.8-0.5-1.1-0.8c-0.1-0.1-0.3-0.4-0.2-0.7v0c0.1-0.3,0.5-0.4,1-0.4c0.3,0,0.6,0.1,0.9,0.2c0.5,0.2,0.8,0.5,1.1,0.8
				c0.1,0.1,0.3,0.4,0.2,0.7C571.5,443,571.1,443.1,571,443.1z M578.9,434.8l0.5-0.8l13.1,5.1l-0.5,0.8L578.9,434.8z M584,448.5
				c-0.5-0.2-0.8-0.5-1.1-0.8c-0.1-0.1-0.3-0.4-0.2-0.7c0,0,0,0,0,0c0.1-0.3,0.4-0.4,0.6-0.4c0.1,0,0.3,0,0.4,0
				c0.3,0,0.6,0.1,0.9,0.2c0.5,0.2,0.8,0.5,1.1,0.8c0.1,0.1,0.3,0.4,0.2,0.7C585.8,448.7,584.9,448.9,584,448.5z"/>
			<path class="st8" d="M479.9,559.3c-1.1,0.9-1.8,2-1.9,3.1l-13.4-10.7c-0.2-0.2-0.5-0.1-0.7,0.1c-0.2,0.2-0.1,0.5,0.1,0.7
				l14.6,11.7c0,0,0,0,0,0c1,1.2,3.1,1.1,4.8-0.2c1.8-1.3,2.4-3.4,1.5-4.7C483.8,557.9,481.6,558,479.9,559.3z M482.7,563.1
				c-1.3,1-2.9,1.1-3.5,0.3c-0.6-0.8,0-2.3,1.3-3.3c1.3-1,2.9-1.1,3.5-0.3C484.5,560.6,483.9,562.1,482.7,563.1z"/>
			<path class="st8" d="M593.8,573.5c-1.1-0.9-2.4-1.2-3.5-1l6.6-15.9c0.1-0.3,0-0.6-0.3-0.7c-0.3-0.1-0.6,0-0.7,0.3l-7.2,17.2
				c0,0,0,0,0,0c-0.8,1.3-0.2,3.2,1.5,4.6c1.8,1.3,3.9,1.4,4.9,0.1C596.3,576.9,595.6,574.9,593.8,573.5z M591,577.2
				c-1.3-1-1.9-2.5-1.3-3.3c0.6-0.8,2.2-0.6,3.5,0.3s1.9,2.5,1.3,3.3C593.9,578.4,592.3,578.2,591,577.2z"/>
			<path class="st8" d="M564.9,490.1c-1.5,0.1-2.7,0.6-3.4,1.5l-5.1-17.1c-0.1-0.3-0.4-0.4-0.6-0.3c-0.3,0.1-0.4,0.4-0.3,0.7
				l5.6,18.5c0,0,0,0,0,0c0.2,1.6,2,2.7,4.2,2.6c2.3-0.1,4.1-1.5,4-3.1C569.1,491.3,567.2,490.1,564.9,490.1z M565.1,495
				c-1.7,0.1-3.1-0.7-3.2-1.8c0-1,1.3-1.9,3-2s3.1,0.7,3.2,1.8C568.1,494,566.8,494.9,565.1,495z"/>
			<path class="st8" d="M575.2,607C575.2,607,575.2,607,575.2,607l-12.3-9.7l5.8-4.1c0.3-0.2,0.4-0.7,0.2-1c-0.2-0.3-0.7-0.4-1-0.2
				l-6.2,4.4l-0.7-0.6l5.3-3.7c0.3-0.2,0.4-0.7,0.2-1c-0.2-0.3-0.7-0.4-1-0.2l-6.1,4.2c-0.2,0.1-0.3,0.3-0.3,0.6
				c0,0.2,0.1,0.4,0.3,0.6l13.5,10.7c-1,0.4-1.8,1.3-2.4,2.6c-0.4,1-0.6,2.1-0.4,3c0.2,1,0.7,1.8,1.5,2.2c0.4,0.2,0.8,0.2,1.3,0.2
				c0.5-0.1,0.9-0.2,1.4-0.5c0.8-0.5,1.5-1.3,1.9-2.3C577,610,576.6,607.8,575.2,607z M574.8,611.5c-0.3,0.7-0.8,1.4-1.4,1.7
				c-0.3,0.2-0.8,0.4-1.3,0.2c-0.5-0.2-0.6-0.8-0.7-1.1c-0.1-0.6,0-1.4,0.3-2.2c0.5-1.1,1.4-1.9,2.1-2c0.2,0,0.4,0,0.5,0.1
				C575.2,608.6,575.4,610.1,574.8,611.5z"/>
			<path class="st8" d="M653.1,551.3c1.1-0.1,2.1-0.4,2.8-1c0.4-0.3,0.7-0.7,0.9-1.1c0.2-0.4,0.3-0.8,0.3-1.3
				c-0.1-0.9-0.6-1.7-1.5-2.2c-0.8-0.5-1.9-0.7-3-0.6c-1.4,0.1-2.5,0.6-3.2,1.4l-5.4-16.4c-0.1-0.2-0.2-0.4-0.5-0.5
				c-0.2-0.1-0.5,0-0.6,0.1l-6.1,4.3c-0.3,0.2-0.4,0.7-0.2,1c0.2,0.3,0.7,0.4,1,0.2l5.3-3.8l0.3,0.9l-6.2,4.3
				c-0.3,0.2-0.4,0.7-0.2,1c0.2,0.3,0.7,0.4,1,0.2l5.9-4.1l4.9,14.9c0,0,0,0,0,0C648.9,550.3,650.8,551.4,653.1,551.3z M650.1,548.4
				c0-0.2,0-0.4,0.1-0.5c0.3-0.7,1.4-1.2,2.6-1.3c0.8-0.1,1.6,0.1,2.2,0.4c0.3,0.2,0.8,0.5,0.8,1c0,0.5-0.4,0.9-0.7,1.1
				c-0.5,0.4-1.3,0.7-2.1,0.7C651.5,549.9,650.1,549.3,650.1,548.4z"/>
			<path class="st8" d="M507.4,508.5C507.4,508.5,507.4,508.5,507.4,508.5l-6-14.5l7.1-0.8c0.4,0,0.7-0.4,0.6-0.8
				c0-0.4-0.4-0.7-0.8-0.6l-7.5,0.8l-0.4-0.8l6.5-0.6c0.4,0,0.7-0.4,0.6-0.8c0-0.4-0.4-0.7-0.8-0.6l-7.4,0.7c-0.2,0-0.4,0.1-0.5,0.3
				c-0.1,0.2-0.1,0.4,0,0.6l6.6,15.9c-1-0.1-2.3,0.3-3.3,1.1c-0.9,0.7-1.5,1.5-1.8,2.4c-0.3,1-0.2,1.9,0.3,2.6
				c0.3,0.3,0.6,0.6,1,0.8c0.4,0.2,0.9,0.2,1.4,0.2c0.9-0.1,1.9-0.5,2.8-1.1C507.7,512,508.3,509.9,507.4,508.5z M505,512.3
				c-0.6,0.5-1.4,0.8-2,0.8c-0.3,0-0.9,0-1.2-0.4c-0.3-0.4-0.2-1-0.1-1.3c0.2-0.6,0.7-1.3,1.3-1.7c1-0.7,2.1-1,2.8-0.7
				c0.2,0.1,0.3,0.2,0.4,0.3C506.8,509.9,506.2,511.4,505,512.3z"/>
			<path class="st8" d="M456.4,606C456.4,606,456.4,606,456.4,606l-6-14.5l7.1-0.8c0.4,0,0.7-0.4,0.6-0.8c0-0.4-0.4-0.7-0.8-0.6
				l-7.5,0.8l-0.4-0.8l6.5-0.6c0.4,0,0.7-0.4,0.6-0.8c0-0.4-0.4-0.7-0.8-0.6l-7.4,0.7c-0.2,0-0.4,0.1-0.5,0.3
				c-0.1,0.2-0.1,0.4,0,0.6l6.6,15.9c-1-0.1-2.3,0.3-3.3,1.1c-0.9,0.7-1.5,1.5-1.8,2.4c-0.3,1-0.2,1.9,0.3,2.6
				c0.3,0.3,0.6,0.6,1,0.8c0.4,0.2,0.9,0.2,1.4,0.2c0.9-0.1,1.9-0.5,2.8-1.1C456.6,609.5,457.2,607.4,456.4,606z M453.9,609.8
				c-0.6,0.5-1.4,0.8-2,0.8c-0.3,0-0.9,0-1.2-0.4c-0.3-0.4-0.2-1-0.1-1.3c0.2-0.6,0.7-1.3,1.3-1.7c1-0.7,2.1-1,2.8-0.7
				c0.2,0.1,0.3,0.2,0.4,0.3C455.7,607.4,455.1,608.8,453.9,609.8z"/>
			<path class="st8" d="M633.2,459C633.2,459,633.2,459,633.2,459l-6-14.5l7.1-0.8c0.4,0,0.7-0.4,0.6-0.8c0-0.4-0.4-0.7-0.8-0.6
				l-7.5,0.8l-0.4-0.8l6.5-0.6c0.4,0,0.7-0.4,0.6-0.8c0-0.4-0.4-0.7-0.8-0.6l-7.4,0.7c-0.2,0-0.4,0.1-0.5,0.3
				c-0.1,0.2-0.1,0.4,0,0.6l6.6,15.9c-1-0.1-2.3,0.3-3.3,1.1c-0.9,0.7-1.5,1.5-1.8,2.4c-0.3,1-0.2,1.9,0.3,2.6
				c0.3,0.3,0.6,0.6,1,0.8c0.4,0.2,0.9,0.2,1.4,0.2c0.9-0.1,1.9-0.5,2.8-1.1C633.4,462.5,634,460.4,633.2,459z M630.7,462.7
				c-0.6,0.5-1.4,0.8-2,0.8c-0.3,0-0.9,0-1.2-0.4c-0.3-0.4-0.2-1-0.1-1.3c0.2-0.6,0.7-1.3,1.3-1.7c1-0.7,2.1-1,2.8-0.7
				c0.2,0.1,0.3,0.2,0.4,0.3C632.5,460.4,631.9,461.8,630.7,462.7z"/>
		</g>
		<g id="women">
			<g id="legs_1_">
				<linearGradient id="SVGID_2_" gradientUnits="userSpaceOnUse" x1="604.4233" y1="863.1654" x2="694.1815" y2="863.1654">
					<stop  offset="0" style="stop-color:#271C41"/>
					<stop  offset="1" style="stop-color:#19233D"/>
				</linearGradient>
				<path class="st9" d="M658.4,787.7c-0.1,0.1-0.2,0.2-0.2,0.3c0.8,6.2,0.9,103,17.9,191.8c-3.9,0.6-7.8,1.3-11.7,1.9l-0.5-3.5
					l-3.6,4.2c-13.9,2.3-27.8,4.7-41.8,7.1c-4.6,0.8-9.2,1.6-13.8,2.4c-0.3-1.1-0.5-2.9,0-4.9c1.6-6,8.8-8.5,22.7-13.8
					c4.1-1.6,11.4-4.3,21.1-8.1c-0.4-1.7-0.7-3.4-1.1-5.1c-21.1-100.6-40.8-181.6-39.5-188c0,0,0,0,0,0c0-0.1,0-0.2,0-0.2
					c0.1-0.3,0.2-0.6,0.3-1c0.4-1.5,0.9-2.9,1.4-4.3c2.4-3.3,4.9-6.6,7.3-10.1c5.1-7.1,10.3-14.5,15.6-22.2
					c3.7,0.2,7.5,0.4,11.3,0.6c16.8,0.9,33.5,1.9,50.3,2.8c-2.8,4-5.7,7.9-8.5,11.9c-5,7-10,13.9-15,20.9
					C666.6,776.3,662.5,782,658.4,787.7z"/>
				<path class="st10" d="M685.7,749.7c-5,7-10,13.9-15,20.9c-4.1,5.7-8.2,11.4-12.3,17.1L608,772.1c0-0.1,0-0.1,0-0.2
					c0.1-0.3,0.2-0.6,0.3-1c0.4-1.5,0.9-2.9,1.4-4.3c7.5-10.2,15.2-20.9,22.9-32.2c3.8,0.2,7.5,0.4,11.3,0.6L685.7,749.7z"/>
				<linearGradient id="SVGID_3_" gradientUnits="userSpaceOnUse" x1="693.522" y1="849.9399" x2="869.1074" y2="849.9399">
					<stop  offset="0" style="stop-color:#271C41"/>
					<stop  offset="1" style="stop-color:#19233D"/>
				</linearGradient>
				<path class="st11" d="M867.5,900.5l-4-1.2l2.7,6.6c-3.9,16.2-7.8,32.4-11.7,48.7c-1.3-0.1-3.1-0.4-4.9-1.6
					c-4.8-3.2-5.2-10.4-4.9-27.6c0.1-6.6,0.4-14.5,0.8-23.6l0,0c-13.4-7.7-26.9-15.4-40.5-23.1c-6.5-3.7-13-7.4-19.5-11
					c0,0-27.2-15.2-64.9-40.6c-12.1-8.2-24.5-16.9-26.8-30.7c-1.2-7.5,0.6-16.1,0.9-17.2c0.8-3.2,1.9-6.3,3.1-9.2
					c1.7-3.9,3.7-7.4,5.8-10.6c4.4-6.7,9.1-11.7,11.5-14.2c0.9,0,1.8,0.1,2.7,0.1c16.3,0.7,32.6,1.5,48.9,2.2l-0.6,1.3
					c0,0,0,0.1-0.1,0.1c-0.4,1.1-0.9,2.2-1.4,3.2c-0.8,1.9-1.7,3.9-2.5,5.9c-5.4,12.3-16.8,35.5-16.8,35.5
					c41.2,33.3,82.4,66.6,123.6,100C868.6,896,868,898.2,867.5,900.5z"/>
				<path class="st10" d="M764.9,752.3c-0.8,1.9-1.7,3.9-2.5,5.9c-4.7,10.8-9.6,21.1-14.7,31c-17.6-3.3-35.3-6.6-52.9-9.9
					c1.8-7.5,5.3-14.2,8.9-19.8c4.4-6.7,9.1-11.7,11.5-14.1c0.9,0,1.8,0.1,2.7,0.1L764.9,752.3z"/>
				<linearGradient id="SVGID_4_" gradientUnits="userSpaceOnUse" x1="607.8918" y1="868.6367" x2="649.3248" y2="868.6367">
					<stop  offset="0" style="stop-color:#FFFFFF"/>
					<stop  offset="0.9801" style="stop-color:#87AEB4;stop-opacity:0.4"/>
				</linearGradient>
				<path class="st12" d="M649.3,965.2l-1.9-5.1c-21.1-100.6-40.8-181.6-39.5-188c2.2,0.8,4.4,2.2,5.7,3c14,8.8,14.5,28.2,18.7,65.8
					c1.6,14.9,4,29.8,5.7,44.7C640.2,904.7,643.7,931.9,649.3,965.2z"/>
				<linearGradient id="SVGID_5_" gradientUnits="userSpaceOnUse" x1="693.522" y1="835.9142" x2="845.5638" y2="835.9142">
					<stop  offset="0" style="stop-color:#FFFFFF"/>
					<stop  offset="0.9801" style="stop-color:#87AEB4;stop-opacity:0.4"/>
				</linearGradient>
				<path class="st13" d="M845.6,901.8c-13.4-7.7-26.9-15.4-40.5-23.1c-6.5-3.7-13-7.4-19.5-11c0,0-27.2-15.2-64.9-40.6
					c-12.1-8.2-24.5-16.9-26.8-30.7c-1.2-7.5,0.6-16.1,0.9-17.2c0.8-3.2,1.9-6.3,3.1-9.2l5.7,1c0,0-8.1,27.6,22.7,47.9
					C756.9,839.1,844,900.7,845.6,901.8z"/>
			</g>
			<path class="st10" d="M705.2,453.6c0,0-10.2-27.3-17-30c-6.8-2.7-30-12.3-30-9.5s27.9,14.3,28.6,15.7c0.7,1.4,2.7,10.2-1.4,10.2
				c-4.1,0-15-4.8-15.7-2.7s27.9,21.8,27.9,21.8L705.2,453.6z"/>
			<g id="neck_1_">
				<path class="st10" d="M821.6,425c-6.5,8.7-21.8,11.7-28.1,5.8c-3.2-3-3.3-7.7-3.3-12.7c0-0.4,0-0.9,0-1.3
					c0-5.1,0.1-10.7,0.2-16.8c0.2-7.6,0.4-15.9,0.9-25c11.1-2.3,22.1-4.7,33.2-7c0.2,10,0.4,23.1,0.4,38.7
					C824.9,415.9,824.9,420.6,821.6,425z"/>
				<path class="st14" d="M812.3,394.1c0,0-11.7,21.8-22.1,22.7c0-5.1,0.1-10.7,0.2-16.8C795.1,399.5,803.2,398.4,812.3,394.1z"/>
			</g>
			<g id="dress">
				<linearGradient id="SVGID_6_" gradientUnits="userSpaceOnUse" x1="785.7122" y1="496.9375" x2="904.6345" y2="496.9375">
					<stop  offset="0" style="stop-color:#271C41"/>
					<stop  offset="1" style="stop-color:#19233D"/>
				</linearGradient>
				<path class="st15" d="M829.4,424.9c14.3,12,35.8,32.5,54.3,63.4c14.1,23.6,25.1,42.1,19.4,56.6c-8.8,22.1-54.5,29.7-111.8,19.8
					c-1.8-9-3.7-18.1-5.5-27.1c21.6-2.8,39.3-6.4,52.6-9.4c11.1-2.5,14.1-3.6,15.4-6.5c4.3-9.3-15.4-23.5-41.2-60.5
					c-4.2-6-7.4-11.1-9.4-14.1L829.4,424.9z"/>
				<path class="st16" d="M855.9,461.1c0,0.4,0,0.8,0,1.2c0,0.5,0,1-0.1,1.5c0,0.6-0.1,1.1-0.1,1.7c0,0.2,0,0.3,0,0.5
					c0,0.4,0,0.9-0.1,1.3c-0.1,1.7-0.2,3.4-0.4,5.2c0,0.2,0,0.3,0,0.5v0.1c0,0.2,0,0.5-0.1,0.8c-0.3,3-0.7,6.1-1.1,9.3
					c-0.1,0.6-0.2,1.2-0.2,1.8c-0.4,2.7-0.8,5.4-1.3,8.2c-0.2,1-0.4,2.1-0.5,3.1c0,0.2-0.1,0.4-0.1,0.6c-0.1,0.6-0.2,1.3-0.4,2
					c-0.9,4.6-1.8,9.5-3,14.6c-0.1,0.6-0.3,1.2-0.4,1.8c-0.2,0.9-0.4,1.8-0.6,2.6c-0.2,1-0.5,2-0.7,3c-0.1,0.6-0.3,1.3-0.5,1.9
					c-0.3,1.3-0.6,2.6-0.9,3.9c-0.1,0.6-0.3,1.2-0.4,1.8c-1,4-2.1,8.1-3.2,12.4c-0.2,0.7-0.4,1.4-0.6,2.1c-0.3,1.3-0.7,2.6-1.1,4
					c-0.7,2.5-1.4,5-2.1,7.5c-0.3,1.1-0.6,2.1-0.9,3.2c-2.5,8.5-5.2,17.5-8.3,27v0c-0.7,2-1.3,4.1-2,6.1c-1.4,4.2-2.8,8.4-4.3,12.8
					c-0.4,1-0.7,2.1-1.1,3.2c-0.2,0.7-0.5,1.3-0.7,2c-0.7,2.1-1.5,4.2-2.2,6.4c-2.4,6.8-4.9,13.8-7.5,21c-0.7,2-1.4,3.9-2.2,5.9
					c-4.1,11.2-8.5,22.9-13.3,35.1v0c-0.7,1.7-1.3,3.4-2,5.1v0c-2.3,6-4.8,12.1-7.3,18.3c-0.5,1.3-1,2.6-1.6,3.9
					c-3.7,9.2-7.5,18.6-11.6,28.3c-0.6,1.4-1.2,2.8-1.7,4.2c-2.7,6.4-5.4,13-8.3,19.7c-0.2,0.6-0.5,1.2-0.8,1.8l-0.6,1.3
					c0,0.1,0,0.1,0,0.1c-0.2,0.5-0.4,1-0.6,1.5c0,0,0,0,0,0c-1.1,2.5-2.2,5.1-3.3,7.6c-2.1,4.1-4.1,8.3-6.2,12.4
					c-7.7,0.5-15.8,0.9-24.2,1c-0.7,0-1.3,0-2,0c-2,0-4,0-6,0c-2.4,0-4.9,0-7.4-0.1h-0.1c-1.9,0-3.8-0.1-5.6-0.1c-0.6,0-1.3,0-2-0.1
					c-1.7,0-3.5-0.1-5.2-0.2c-0.8,0-1.7-0.1-2.5-0.1c-0.8,0-1.7-0.1-2.5-0.1c-0.7,0-1.3-0.1-2-0.1c-0.4,0-0.8,0-1.2-0.1
					c-2.9-0.2-5.8-0.4-8.6-0.6c-4.2-0.3-8.4-0.7-12.5-1.2c-2.7-0.3-5.4-0.7-8.1-1c-0.7-0.1-1.3-0.2-2-0.2c-10.7-1.3-21.4-2.7-32.1-4
					c-0.7-0.1-1.3-0.2-2-0.2c-5.9-0.7-11.7-1.5-17.6-2.2l-2.3,0c0.2-0.3,0.5-0.6,0.7-0.9c0.5-0.7,1.1-1.5,1.6-2.2
					c0.6-0.7,1.1-1.5,1.7-2.2c4.7-6.4,9.5-13,14.2-19.8c0.6-0.8,1.1-1.6,1.7-2.4c0,0,0,0,0,0c0.7-0.9,1.3-1.9,2-2.9c0,0,0,0,0,0
					c1.7-2.4,3.3-4.8,5-7.2c2-3,4.1-6,6.1-9c1.6-2.5,3.3-5,4.9-7.5c0.9-1.4,1.8-2.8,2.8-4.2c1.8-2.8,3.7-5.7,5.5-8.6
					c2.6-4,5.1-8.1,7.7-12.3c0.7-1.1,1.3-2.2,2-3.2c4-6.4,7.9-13,11.8-19.8c0.7-1.2,1.4-2.3,2-3.5c2.8-4.8,5.6-9.7,8.3-14.7
					c0.6-1.1,1.2-2.2,1.8-3.3c1.4-2.4,2.7-4.9,4-7.4c0.7-1.2,1.4-2.5,2-3.7c0.1-0.2,0.2-0.5,0.4-0.7v0c0.7-1.2,1.3-2.5,2-3.8
					c1.2-2.3,2.4-4.6,3.6-6.9c0.7-1.3,1.4-2.7,2.1-4.1c1.1-2.2,2.2-4.3,3.4-6.5c2.1-4.1,4.2-8.3,6.3-12.6c1.7-3.4,3.4-6.9,5-10.4
					c0.7-1.5,1.4-2.9,2.1-4.4c1.1-2.4,2.2-4.8,3.4-7.2c1.6-3.4,3.4-7,5.4-10.9c0,0,0,0,0,0c0.6-1.2,1.3-2.5,2-3.8c0,0,0,0,0,0
					c0.3-0.6,0.7-1.2,1-1.9c0.3-0.6,0.7-1.2,1-1.8c8.6-15.8,19.7-34.3,31.7-52.8c0.7-1,1.3-2.1,2-3.1c10-15.4,20.5-30.7,30.4-44.4
					c0.7-0.9,1.3-1.8,2-2.8c7.3-10,14.2-19,20.4-26.5c0.7-0.8,1.4-1.7,2-2.5c0.3-0.3,0.6-0.7,0.9-1c2.8-3.3,5.5-6.3,7.9-8.8v0
					c0.2-0.2,0.3-0.4,0.5-0.5c0.3-0.3,0.5-0.5,0.8-0.8c0.2-0.2,0.5-0.5,0.7-0.7c1.6-1.6,3.1-3,4.5-4.1c0.2-0.2,0.4-0.3,0.6-0.5
					c0.5-0.4,1-0.8,1.4-1.1c0.3-0.2,0.7-0.5,1-0.7c0.2-0.1,0.4-0.2,0.5-0.3c0.2-0.1,0.3-0.2,0.5-0.3c0.2-0.1,0.3-0.1,0.5-0.2
					c0.2-0.1,0.5-0.2,0.7-0.2c0.1,0,0.2,0,0.3-0.1c0.1,0,0.2,0,0.3,0c0,0,0,0,0,0c0.1,0,0.1,0,0.2,0c0.2,0,0.4,0,0.5,0
					c0.1,0,0.2,0,0.3,0.1c0.1,0,0.2,0.1,0.3,0.1s0.2,0.1,0.2,0.1c0.6,0.4,1.1,0.8,1.7,1.3c0.6,0.5,1.1,1,1.6,1.5
					c5.5,5.3,9.5,13.8,11.2,26.4C855.9,446.2,856.2,453.1,855.9,461.1z"/>
				<path class="st16" d="M742.3,564.6c-4.7-0.1-9-1.1-12.9-2.6c-4.3-1.7-8.4-3.9-12.5-6.3c-35.1-19.8-47.4-55.4-51-67.8l8.3-11
					l26.2-34.8c13.5,26,26.9,51.9,40.4,77.9c5.8-19,11.4-35.7,16.1-49.2c6-16.8,10.8-28.5,13.7-33.4c3.4-5.7,8.1-9.1,8.1-9.1
					c5.2-3.7,10.6-4.8,13.5-5c11.9-1.1,22.8,7.8,26.5,12.3c1.5,1.9,2.7,4.2,3.5,6.7C833.5,476.3,788.8,565.5,742.3,564.6z"/>
				<path class="st17" d="M694.1,450.3v87.5c-0.7-0.7-1.3-1.4-2-2.2V453L694.1,450.3z"/>
				<path class="st17" d="M694.1,632.6v149c-0.7,0-1.3-0.1-2-0.1V636.3C692.8,635.1,693.4,633.8,694.1,632.6z"/>
				<path class="st17" d="M661.7,689.4v89.2c-0.7-0.1-1.3-0.2-2-0.2v-85.7C660.3,691.6,661,690.5,661.7,689.4z"/>
				<path class="st17" d="M627.6,741.6v32.8c-0.7-0.1-1.3-0.2-2-0.2v-29.6c0,0,0,0,0,0C626.3,743.5,626.9,742.6,627.6,741.6z"/>
				<path class="st17" d="M727.4,494v67.1c-0.7-0.3-1.3-0.6-2-0.9v-70C726,491.5,726.7,492.8,727.4,494z"/>
				<path class="st17" d="M727.4,565.7v216.5c-0.7,0-1.3,0-2,0V569.6c0,0,0,0,0,0C726,568.3,726.7,567,727.4,565.7z"/>
				<path class="st17" d="M795.5,423.1V677c-0.7,1.7-1.3,3.4-2,5.1v-259C794.2,423.1,794.8,423.1,795.5,423.1z"/>
				<path class="st17" d="M763.1,454.2v302.2c-0.2,0.6-0.5,1.2-0.8,1.8l-0.6,1.3c0,0.1,0,0.1,0,0.1c-0.2,0.5-0.4,1-0.6,1.5V459.4
					C761.7,457.6,762.4,455.9,763.1,454.2z"/>
				<path class="st17" d="M828.7,418.2v166.3c-0.7,2-1.3,4.1-2,6.1V420.3c0.2-0.2,0.3-0.4,0.5-0.5c0.3-0.3,0.5-0.5,0.8-0.8
					C828.3,418.7,828.5,418.5,828.7,418.2z"/>
				<path class="st17" d="M855.9,461.1c0,0.4,0,0.8,0,1.2c0,0.5,0,1-0.1,1.5c0,0.6-0.1,1.1-0.1,1.7c0,0.2,0,0.3,0,0.5
					c0,0.4,0,0.9-0.1,1.3c-0.1,1.7-0.2,3.4-0.4,5.2c0,0.2,0,0.4,0,0.6v-32.9C855.9,446.2,856.2,453.1,855.9,461.1z"/>
				<path class="st7" d="M855.9,461.1c0,0.4,0,0.8,0,1.2c0,0.5,0,1-0.1,1.5c0,0.6-0.1,1.1-0.1,1.7c0,0.2,0,0.3,0,0.5
					c0,0.4,0,0.9-0.1,1.3c-0.1,1.7-0.2,3.4-0.4,5.2c0,0.2,0,0.3,0,0.5c0,0.3,0,0.5-0.1,0.8c-0.3,3-0.7,6.1-1.1,9.3
					c-0.1,0.6-0.2,1.2-0.2,1.8c-0.4,2.7-0.8,5.4-1.3,8.2c-0.2,1-0.4,2.1-0.5,3.1c0,0.2-0.1,0.4-0.1,0.6c-0.1,0.6-0.2,1.3-0.4,2
					c-0.9,4.6-1.8,9.5-3,14.6c-0.1,0.6-0.3,1.2-0.4,1.8c-0.2,0.9-0.4,1.8-0.6,2.6c-0.2,1-0.5,2-0.7,3c-0.1,0.6-0.3,1.3-0.5,1.9
					c-0.3,1.3-0.6,2.6-0.9,3.9c-0.1,0.6-0.3,1.2-0.4,1.8c-1,4-2.1,8.1-3.2,12.4c-0.2,0.7-0.4,1.4-0.6,2.1c-0.3,1.3-0.7,2.6-1.1,4
					c-0.7,2.5-1.4,5-2.1,7.5c-0.3,1.1-0.6,2.1-0.9,3.2c-2.5,8.5-5.2,17.5-8.3,27v0c-0.7,2-1.3,4.1-2,6.1c-1.4,4.2-2.8,8.4-4.3,12.8
					c-0.4,1-0.7,2.1-1.1,3.2c-0.2,0.7-0.5,1.3-0.7,2c-0.7,2.1-1.5,4.2-2.2,6.4c-2.4,6.8-4.9,13.8-7.5,21c-0.7,2-1.4,3.9-2.2,5.9
					c-4.1,11.2-8.5,22.9-13.3,35.1v0c-0.7,1.7-1.3,3.4-2,5.1v0c-2.3,6-4.8,12.1-7.3,18.3c-0.5,1.3-1,2.6-1.6,3.9
					c-3.7,9.2-7.5,18.6-11.6,28.3c-0.6,1.4-1.2,2.8-1.7,4.2c-2.7,6.4-5.4,13-8.3,19.7c-0.2,0.6-0.5,1.2-0.8,1.8l-0.6,1.3
					c0,0.1,0,0.1,0,0.1c-0.2,0.5-0.4,1-0.6,1.5c0,0,0,0,0,0c-1.1,2.5-2.2,5.1-3.3,7.6c-2.1,4.1-4.1,8.3-6.2,12.4
					c-7.7,0.5-15.8,0.9-24.2,1c-0.7,0-1.3,0-2,0v0c-2,0-4,0-6,0c-2.4,0-4.9,0-7.4-0.1h-0.1c-1.9,0-3.8-0.1-5.6-0.1c-0.7,0-1.3,0-2,0
					c-1.7-0.1-3.5-0.1-5.2-0.2c-0.8,0-1.7-0.1-2.5-0.1c-0.8,0-1.7-0.1-2.5-0.1c-0.7,0-1.3-0.1-2-0.1c-0.4,0-0.8,0-1.2-0.1
					c-2.9-0.2-5.8-0.4-8.6-0.6c-4.2-0.3-8.4-0.7-12.5-1.2c-2.7-0.3-5.4-0.7-8.1-1c-0.7-0.1-1.3-0.2-2-0.2c-10.7-1.3-21.4-2.7-32.1-4
					c-0.7-0.1-1.3-0.2-2-0.2c-5.9-0.7-11.7-1.5-17.6-2.2l-2.3,0c0.2-0.3,0.5-0.6,0.7-0.9c0.5-0.7,1.1-1.5,1.6-2.2
					c0.6-0.7,1.1-1.5,1.7-2.2c4.7-6.4,9.5-13,14.2-19.8c0.6-0.8,1.1-1.6,1.7-2.4c0,0,0,0,0,0c0.7-0.9,1.3-1.9,2-2.9c0,0,0,0,0,0
					c1.7-2.4,3.3-4.8,5-7.2c2-3,4.1-6,6.1-9c1.6-2.5,3.3-5,4.9-7.5c0.9-1.4,1.8-2.8,2.8-4.2c1.8-2.8,3.7-5.7,5.5-8.6
					c2.6-4,5.1-8.1,7.7-12.3c0.7-1.1,1.3-2.2,2-3.2c4-6.4,7.9-13,11.8-19.8c0.7-1.2,1.4-2.3,2-3.5c2.8-4.8,5.6-9.7,8.3-14.7
					c0.6-1.1,1.2-2.2,1.8-3.3c1.4-2.4,2.7-4.9,4-7.4c0.7-1.2,1.4-2.5,2-3.7c0.1-0.2,0.2-0.5,0.4-0.7v0c0.7-1.2,1.3-2.5,2-3.7
					c1.2-2.3,2.4-4.6,3.6-6.9c0.7-1.3,1.4-2.7,2.1-4.1c1.1-2.2,2.2-4.3,3.4-6.5c2.1-4.1,4.2-8.3,6.3-12.6c1.7-3.4,3.4-6.9,5-10.4
					c0.7-1.5,1.4-2.9,2.1-4.4c1.1-2.4,2.2-4.8,3.4-7.2c1.6-3.4,3.4-7,5.4-10.9c0,0,0,0,0,0c0.6-1.2,1.3-2.5,2-3.8c0,0,0,0,0,0
					c0.3-0.6,0.7-1.2,1-1.9c0.3-0.6,0.7-1.3,1-1.9c-0.7-0.3-1.4-0.5-2-0.8c-0.7-0.3-1.3-0.6-2-0.9c-2.8-1.4-5.6-2.9-8.4-4.5
					c-9-5.1-16.6-11.3-22.8-17.8c-0.7-0.7-1.3-1.4-2-2.2c-16.6-18.3-23.6-39-26.2-47.9l26.2-34.8l2-2.7l6.3-8.3
					c8.3,16.1,16.6,32.1,25,48.2c0.7,1.3,1.3,2.6,2,3.9c4.5,8.6,8.9,17.2,13.4,25.9c7.6-24.8,14.7-45.6,20.3-60.5
					c0.7-1.8,1.4-3.5,2-5.2c3.2-8.1,5.8-13.8,7.6-16.9c3.4-5.7,8.1-9,8.1-9c5.2-3.7,10.6-4.8,13.5-5c0.4,0,0.8-0.1,1.2-0.1
					c0.7,0,1.3,0,2,0c8.4,0.4,16,5.3,20.4,9.4c0.7-0.8,1.4-1.7,2-2.5c0.3-0.3,0.6-0.7,0.9-1c2.8-3.3,5.5-6.3,7.9-8.8v0
					c0.2-0.2,0.3-0.4,0.5-0.5c0.3-0.3,0.5-0.5,0.8-0.8c0.2-0.2,0.5-0.5,0.7-0.7c1.6-1.6,3.1-3,4.5-4.1c0.2-0.2,0.4-0.3,0.6-0.5
					c0.5-0.4,1-0.8,1.4-1.1c0.3-0.2,0.7-0.5,1-0.7c0.2-0.1,0.4-0.2,0.5-0.3c0.2-0.1,0.3-0.2,0.5-0.3c0.2-0.1,0.3-0.1,0.5-0.2
					c0.2-0.1,0.5-0.2,0.7-0.2c0.1,0,0.2,0,0.3-0.1c0.1,0,0.2,0,0.3,0c0,0,0,0,0,0c0.1,0,0.1,0,0.2,0c0.2,0,0.4,0,0.5,0
					c0.1,0,0.2,0,0.3,0.1c0.1,0,0.2,0.1,0.3,0.1s0.2,0.1,0.2,0.1c0.6,0.4,1.1,0.8,1.7,1.3c0.6,0.5,1.1,1,1.6,1.5
					c5.5,5.3,9.5,13.8,11.2,26.4C855.9,446.2,856.2,453.1,855.9,461.1z"/>
				<linearGradient id="SVGID_7_" gradientUnits="userSpaceOnUse" x1="697.7581" y1="571.4913" x2="824.5021" y2="571.4913">
					<stop  offset="0.4713" style="stop-color:#19233D"/>
					<stop  offset="1" style="stop-color:#271C41"/>
				</linearGradient>
				<path class="st18" d="M824.5,514.3c0,0-23.5,124.3-108.7,113.7c-6.5-0.8-12.5-1.6-18.1-2.4c7.6-14.5,15-29.5,22.2-45.2
					c2.6-5.5,5.7-11.7,9.4-18.4C754.6,571.5,790.3,569.5,824.5,514.3z"/>
				<linearGradient id="SVGID_8_" gradientUnits="userSpaceOnUse" x1="605.7495" y1="708.9349" x2="811.1367" y2="708.9349">
					<stop  offset="0.4713" style="stop-color:#19233D"/>
					<stop  offset="1" style="stop-color:#271C41"/>
				</linearGradient>
				<path class="st19" d="M811.1,635.6c-12.9,35.4-29,76-48.8,122.6l-0.6,1.3c0,0,0,0.1-0.1,0.1c-1.3,3-2.6,6.1-3.9,9.1
					c-2.1,4.1-4.1,8.3-6.2,12.4c-14.4,1-30.3,1.4-47.2,0.9c-12.2-0.4-23.7-1.3-34.5-2.4c-20.6-2.6-41.2-5.2-61.8-7.7l-2.3,0
					c0.2-0.3,0.4-0.6,0.7-0.9C646.8,744.2,749.5,676.2,811.1,635.6z"/>
				<linearGradient id="SVGID_9_" gradientUnits="userSpaceOnUse" x1="756.9128" y1="446.9122" x2="822.2394" y2="446.9122">
					<stop  offset="0" style="stop-color:#FFFFFF"/>
					<stop  offset="0.9801" style="stop-color:#87AEB4;stop-opacity:0.4"/>
				</linearGradient>
				<path class="st20" d="M822.2,442.2c-9.4,21.4-46.1,27-65.3,28.5c6-16.8,10.8-28.5,13.7-33.4c3.4-5.7,8.1-9.1,8.1-9.1
					c5.2-3.7,10.6-4.8,13.5-5c11.9-1.1,22.8,7.8,26.5,12.3C820.2,437.4,821.4,439.7,822.2,442.2z"/>
				<path class="st21" d="M729.4,562c-4.3-1.7-8.4-3.9-12.5-6.3c-35.1-19.8-47.4-55.4-51-67.8l8.3-11
					C692.6,505.2,711,533.6,729.4,562z"/>
			</g>
			<g id="head_1_">
				<path id="face_1_" class="st10" d="M834.3,358.9c-1.6,5.8-5,15.7-13.3,24.8c-2.5,2.7-18.7,20.9-30.6,16.1
					c-5.1-2.1-8.5-8-10.7-13.6c-0.2-0.6-0.4-1.2-0.6-1.8c-1.3-3.9-2.1-7.4-2.5-9c-0.4-2-0.7-3.7-0.8-4.9c-2-1.5-3.3-2.9-4-4.1
					c-0.5-0.8-0.9-1.9-0.8-3.2c0.2-2.1,1.8-3.1,3.2-4.9c1.4-1.7,2-3.6,3.2-7.3c1.1-3.3,1.3-6.5,1.2-9.2c0-0.6,0-1.2-0.1-1.7
					c-0.1-1.4-0.2-2.7-0.3-3.7c-0.4-5.2,0.6-12.8,6.5-22.7C801.3,328.7,817.8,343.8,834.3,358.9z"/>
				<path d="M785.2,384.8c-0.5,0-1,0-1.3-0.1c-0.3,0-0.6-0.4-0.5-0.7c0-0.3,0.4-0.6,0.7-0.5c1,0.1,2.9,0.2,4.9-0.8
					c2.6-1.3,3.6-3.6,4-4.5c0.1-0.3,0.5-0.5,0.8-0.3c0.3,0.1,0.5,0.5,0.3,0.8c-0.4,1-1.6,3.6-4.6,5.1
					C787.9,384.6,786.4,384.8,785.2,384.8z"/>
				<path id="brow" d="M787.9,345.8c-1.1-0.9-2.7-1.9-4.7-2.8c-1.6-0.7-3.1-1-4.5-1.2c0-0.6,0-1.2-0.1-1.7c1.6-0.3,3.2-0.2,4.8,0.5
					C786.7,342,787.7,345.3,787.9,345.8z"/>
				<ellipse id="eye" cx="781.9" cy="350.6" rx="2" ry="2"/>
				<g id="hair_1_">
					<path class="st22" d="M905.5,447.9c-7.1,21.5-31.6,49.6-53.5,46.1c-25-4-34.7-45.5-38.7-62.5c-6.5-27.3-0.4-37.4-7.5-65.1
						c-5.7-22.3-15.6-39.1-22.8-49.6c1.9-6.9,5.6-10.6,7.4-12.2c11.5-9.9,28.8-3.9,29.5-3.6c0.5,0.2,0.8,0.3,1,0.4
						c27.2,10.9,37.6,51.9,39.2,58.6c0.7,2.9,1.2,5.7,1.7,8.4c0,0,0,0.1,0,0.1c1.8,10.1,3,18.9,9.8,28.4c0.1,0.1,0.2,0.3,0.3,0.4
						c0,0.1,0.1,0.1,0.2,0.2c0.1,0.1,0.1,0.2,0.2,0.3c0.1,0.1,0.2,0.2,0.2,0.3c4.9,6.5,12.9,14,14.6,15.6
						c12.7,11.9,16.7,11.9,18.9,16.2C908.4,434.2,907.9,440.6,905.5,447.9z"/>
					<linearGradient id="SVGID_10_" gradientUnits="userSpaceOnUse" x1="821.0147" y1="374.6713" x2="907.6044" y2="374.6713">
						<stop  offset="0" style="stop-color:#FFFFFF;stop-opacity:0.1"/>
						<stop  offset="0.8362" style="stop-color:#F07125"/>
					</linearGradient>
					<path class="st23" d="M905.5,447.9c-45.7-27.3-58-51.5-60.2-69.3c-0.6-4.8-0.3-8.3-1.4-16.2c-3.4-26.8-14.1-47.4-23-60.9
						c27.2,10.9,37.6,51.9,39.2,58.6c0.6,3,1.2,5.8,1.7,8.4c0,0,0,0.1,0,0.1c4,18.5,7.5,25.1,9.8,28.4c0.1,0.1,0.2,0.3,0.3,0.4
						c0,0.1,0.1,0.1,0.2,0.2c0.1,0.1,0.1,0.2,0.2,0.3c0.1,0.1,0.2,0.2,0.2,0.3c4.9,6.5,12.9,14,14.6,15.6
						c12.7,11.9,16.7,11.9,18.9,16.2C908.4,434.2,907.9,440.6,905.5,447.9z"/>
				</g>
			</g>
		</g>
		<g id="man">
			<g id="legs_and_shoes">
				<g id="shoes">
					<path class="st8" d="M295.6,840c2.5,6.2,4.9,12.5,7.4,18.7c5.7-3.2,11.4-6.5,17-9.7c-1.3-5.4-2.5-10.9-3.8-16.3
						C309.4,835.1,302.5,837.6,295.6,840z"/>
					<path class="st17" d="M329,875.8c-5.9,1.8-11.9,3.7-17.8,5.5c-17.7,5.5-35.3,10.9-53,16.4c0-1.6,0.1-3.4,0.4-5.4
						c0.3-1.8,0.7-3.6,1.3-5.5c0.8-2.2,1.9-4.5,3.5-6.7c1.2-1.6,3-3.7,11-8.4c0.7-0.4,1.4-0.8,2.1-1.3c0.9-0.5,1.8-1,2.7-1.5
						c0.3-0.2,0.5-0.3,0.8-0.4c0.9-0.5,1.7-0.9,2.5-1.3l0.7-0.4c1.5-0.8,2.9-1.5,4.3-2.2c0.3-0.1,0.5-0.3,0.8-0.4
						c1-0.5,1.9-0.9,2.7-1.3c0.3-0.1,0.5-0.2,0.7-0.3c7.7-3.6,11.6-5.3,13.7-9.7c0.3-0.7,1.9-4.2,5.2-7c0.2-0.1,0.3-0.3,0.5-0.4
						c1.8-1.4,3.3-2,4.7-2.2c1.3-0.2,2.4-0.1,3.2,0l5.9,19.2L329,875.8z"/>
					<path class="st2" d="M329,875.8c-23.6,7.3-47.2,14.6-70.8,21.9c0-1.6,0.1-3.4,0.4-5.4c32.3-8.2,44-14.5,47.7-19.1
						c0.5-0.6,2.4-3.1,5.7-5.5c4.6-3.3,9.5-4.5,13-5C326.3,867.1,327.6,871.5,329,875.8z"/>
					<path class="st2" d="M282.5,867.3l2.6,4.8l-5.1-3.4c-0.3,0.1-0.5,0.3-0.8,0.4l6.8,4.6c0,0,0.1,0,0.2,0.1c0.1,0,0.2,0,0.3-0.1
						c0.1-0.1,0.2-0.3,0.1-0.5l-3.3-6.2L282.5,867.3z"/>
					<path class="st2" d="M294.1,870.7c-0.2,0.1-0.4,0.1-0.5,0l-6.1-5.9c0.3-0.1,0.5-0.3,0.8-0.4l4.7,4.5c-0.6-1.8-1.3-3.9-2-5.9
						c0.3-0.1,0.5-0.2,0.7-0.3c0.9,2.6,1.8,5.4,2.6,7.5C294.3,870.4,294.3,870.6,294.1,870.7z"/>
					<linearGradient id="SVGID_11_" gradientUnits="userSpaceOnUse" x1="259.9043" y1="879.3642" x2="274.3564" y2="879.3642">
						<stop  offset="0" style="stop-color:#FFFFFF;stop-opacity:0.5"/>
						<stop  offset="0.8362" style="stop-color:#F07125"/>
					</linearGradient>
					<path class="st24" d="M274.4,871.8c-0.8,5.5-3.9,13.8-14.5,15c0.8-2.2,1.9-4.5,3.5-6.7C264.6,878.6,266.4,876.6,274.4,871.8z"
						/>
					<path class="st8" d="M455.2,819.2c1,6.6,1.9,13.3,2.9,19.9c-6.8-0.5-13.6-1-20.5-1.5c-1.4-5.4-2.7-10.8-4.1-16.2
						C440.8,820.7,448,820,455.2,819.2z"/>
					<path class="st17" d="M516.4,850.5c-5.7,1.3-11.4,2.6-17.1,3.9c-18.4,4.2-36.8,8.4-55.2,12.6l-3-13.4l-4.5-19.6
						c0.6-0.5,1.5-1.1,2.7-1.6c1.5-0.6,3.3-0.8,5.8-0.3c4.3,0.8,7.4,3,8,3.4c3.9,2.7,8.2,2.2,16.6,1.5c0.3,0,0.5,0,0.8-0.1
						c1-0.1,2-0.2,3-0.2c0.3,0,0.6,0,0.9,0c0.2,0,0.4,0,0.6,0c1.3-0.1,2.7-0.2,4.2-0.2l0.8,0c0.9,0,1.9-0.1,2.8-0.1
						c0.3,0,0.6,0,0.9,0c1,0,2,0,3,0c0.9,0,1.7,0,2.5,0c9.2,0.1,11.8,1,13.7,1.8c2.4,1.1,4.5,2.5,6.3,4c1.5,1.3,2.8,2.7,3.9,4.1
						C514.7,847.6,515.7,849.1,516.4,850.5z"/>
					<path class="st2" d="M444.2,867c24.1-5.5,48.2-11,72.3-16.5c-0.8-1.4-1.8-2.9-3-4.5c-32.1,9.1-45.4,9.5-50.9,7.3
						c-0.7-0.3-3.6-1.5-7.7-1.9c-5.6-0.5-10.4,0.8-13.7,2.2C442.1,858,443.2,862.5,444.2,867z"/>
					<path class="st2" d="M479.4,836.3l0.2,7.1c0,0.2,0.1,0.4,0.3,0.4c0.1,0,0.3,0,0.3-0.1c0,0,0.1-0.1,0.1-0.1l3.6-7.4
						c-0.3,0-0.6,0-0.9,0l-2.7,5.5l-0.2-5.4L479.4,836.3z"/>
					<path class="st2" d="M471.8,845.1c0.2,0,0.4-0.1,0.4-0.3l2.4-8.2c-0.3,0-0.6,0-0.9,0.1l-1.8,6.3c-0.4-1.9-0.8-4.1-1.2-6.1
						c-0.3,0-0.5,0-0.8,0.1c0.5,2.7,1.1,5.6,1.5,7.8C471.5,844.9,471.6,845.1,471.8,845.1z"/>
					
						<linearGradient id="SVGID_12_" gradientUnits="userSpaceOnUse" x1="132.9814" y1="935.4248" x2="147.4287" y2="935.4248" gradientTransform="matrix(-0.8662 0.4997 0.4997 0.8662 153.4801 -41.2545)">
						<stop  offset="0" style="stop-color:#FFFFFF;stop-opacity:0.5"/>
						<stop  offset="0.8362" style="stop-color:#F07125"/>
					</linearGradient>
					<path class="st25" d="M489.5,836.2c3.5,4.3,10.2,10,20,5.8c-1.8-1.5-3.9-2.9-6.3-4C501.3,837.1,498.7,836.3,489.5,836.2z"/>
					<linearGradient id="SVGID_13_" gradientUnits="userSpaceOnUse" x1="436.6386" y1="849.3555" x2="499.3699" y2="849.3555">
						<stop  offset="0.4713" style="stop-color:#19233D"/>
						<stop  offset="1" style="stop-color:#271C41"/>
					</linearGradient>
					<path class="st26" d="M499.4,854.4c-18.4,4.2-36.8,8.4-55.2,12.6l-3-13.4l-4.5-19.6c0.6-0.5,1.5-1.1,2.7-1.6
						c1.5-0.6,3.3-0.8,5.8-0.3c4.3,0.8,7.4,3,8,3.4c3.9,2.7,8.2,2.2,16.6,1.5c0.3,0,0.5,0,0.8-0.1c1-0.1,2-0.2,3-0.2
						c0.3,0,0.6,0,0.9,0c0.2,0,0.4,0,0.6,0L499.4,854.4z"/>
					<linearGradient id="SVGID_14_" gradientUnits="userSpaceOnUse" x1="311.1355" y1="862.3417" x2="328.9776" y2="862.3417">
						<stop  offset="0.4713" style="stop-color:#19233D"/>
						<stop  offset="1" style="stop-color:#271C41"/>
					</linearGradient>
					<path class="st27" d="M329,875.8c-5.9,1.8-11.9,3.7-17.8,5.5v-35.7c1.8-1.4,3.3-2,4.7-2.2c1.3-0.2,2.4-0.1,3.2,0l5.9,19.2
						L329,875.8z"/>
				</g>
				<g id="legs">
					<path class="st6" d="M455.5,821.4c-2.1,1.5-5.1,3.4-8.9,4.9c-0.6,0.2-1.1,0.4-1.7,0.6c-3.8,1.3-7.2,1.7-9.7,1.8
						c-32.8-87.4-44.5-131.9-47.8-156c-0.4-3-1.5-11-4.1-21.9c-5.4-22.5-12.3-35.8-25.1-64.2c-4.7-10.3-11.5-25.7-19.5-44.7
						c-10.6,15.2-21.7,32.5-32.4,52c-11.1,20.1-20.2,39.3-27.6,56.9c2,4.6,5,11.6,8.1,20.3c13,36.8,13.8,62.7,19.5,103.2
						c2,14.6,5.3,35.3,10.6,60.4c0.3,1.2,0.5,2.5,0.8,3.8c-0.1,0.1-0.2,0.2-0.3,0.3c-0.2,0.2-0.4,0.3-0.6,0.6
						c-1.8,1.6-5.7,4.5-11.3,4.8c-4.1,0.3-7.3-0.9-8.9-1.6c-9.5-25.5-24.2-64.9-42.2-113.7c-24.2-65.6-27.4-74.9-26.8-92.6
						c1.3-37.5,18.5-74.8,34.5-109.6c7.4-16.1,17.5-37.1,17.5-37.1c2.9-6.2,5.8-12,8.5-17.6l123.2,14.1l11.1,1.3
						c0.3,6.6,0.6,13,1,19.2c0,0,0.8,12.2,1.9,24.6C426.9,547.1,438.8,662.8,455.5,821.4z"/>
					<linearGradient id="SVGID_15_" gradientUnits="userSpaceOnUse" x1="264.2043" y1="691.429" x2="338.7097" y2="691.429">
						<stop  offset="0" style="stop-color:#365588;stop-opacity:0.7"/>
						<stop  offset="1" style="stop-color:#002544;stop-opacity:0"/>
					</linearGradient>
					<path class="st28" d="M317.3,838.7c0.1,0.7,0.2,1.4,0.3,2.2c-0.1,0-0.2,0-0.3,0c-0.2-0.5-0.4-1.1-0.6-1.6
						c-10.4-31.1-22.2-67.4-34.8-108.1c-16-51.7-20.5-68.8-16.2-92.6c6.5-36.6,28.6-61.5,34.1-67.4c14.2-15.3,29-24.2,38.9-29.2
						c-10.6,15.2-21.7,32.5-32.4,52c-11.1,20.1-20.2,39.3-27.6,56.9c2,4.6,5,11.6,8.1,20.3c13,36.8,13.8,62.7,19.5,103.2
						c2,14.6,5.3,35.3,10.6,60.4C317,836,317.2,837.3,317.3,838.7z"/>
					<linearGradient id="SVGID_16_" gradientUnits="userSpaceOnUse" x1="228.64" y1="519.7576" x2="336.0739" y2="519.7576">
						<stop  offset="0" style="stop-color:#FFFFFF"/>
						<stop  offset="0.9801" style="stop-color:#87AEB4;stop-opacity:0.4"/>
					</linearGradient>
					<path class="st29" d="M333,489.1c-17.6,61.1-78.1,102.1-104.4,117.5c9.1-28.9,26.3-65.3,51-117.2
						c11.3-23.7,21.6-43.1,29.1-56.6C328.4,440.2,342.6,456.1,333,489.1z"/>
					<linearGradient id="SVGID_17_" gradientUnits="userSpaceOnUse" x1="262.1183" y1="499.2004" x2="423.5571" y2="499.2004">
						<stop  offset="0.4713" style="stop-color:#19233D"/>
						<stop  offset="1" style="stop-color:#271C41"/>
					</linearGradient>
					<path class="st30" d="M423.6,506.4l-161.4,20.1c5.3-11.4,11.2-23.8,17.5-37.1c2.9-6.2,5.8-12,8.5-17.6l134.3,15.4
						C422.8,493.8,423.2,500.2,423.6,506.4z"/>
					<linearGradient id="SVGID_18_" gradientUnits="userSpaceOnUse" x1="411.4406" y1="656.3994" x2="455.4945" y2="656.3994">
						<stop  offset="0" style="stop-color:#365588;stop-opacity:0.7"/>
						<stop  offset="1" style="stop-color:#002544;stop-opacity:0"/>
					</linearGradient>
					<path class="st31" d="M455.5,821.4c-2.1,1.5-5.1,3.4-8.9,4.9c-0.6,0.2-1.1,0.4-1.7,0.6l-33.4-340.9l11.1,1.3
						c0.3,6.6,0.6,13,1,19.2c0,0,0.8,12.2,1.9,24.6C426.9,547.1,438.8,662.8,455.5,821.4z"/>
				</g>
			</g>
			<g id="hands">
				
					<linearGradient id="SVGID_19_" gradientUnits="userSpaceOnUse" x1="227.6699" y1="44.4915" x2="293.4955" y2="44.4915" gradientTransform="matrix(0.8271 0.5621 -0.5621 0.8271 61.316 -26.2088)">
					<stop  offset="0" style="stop-color:#F2A095"/>
					<stop  offset="0.1662" style="stop-color:#F2A89C"/>
					<stop  offset="0.4218" style="stop-color:#F1BDAF"/>
					<stop  offset="0.7068" style="stop-color:#EFDDCB"/>
				</linearGradient>
				<path class="st32" d="M270.6,166.9c-0.3-1-4.5-1.7-7.8-0.2c-2,0.9-2.9,2.2-5.3,2.7c-1.5,0.3-2.8,0.1-3.7-0.1
					c0.4-0.7,16-17.8,18.8-20.6c0,0,3.3-3.3,2.6-4.7c-0.3-0.5-0.7-0.7-0.7-0.7c-0.6-0.3-1.4,0.1-2.2,0.7c-1.1,0.8-7.1,7.1-15,14.6
					c-0.1-0.1-0.2-0.2-0.3-0.4c13.9-16.1,15.2-19.6,14.7-20.4c-0.3-0.5-0.8-0.7-0.8-0.7c-1.4-0.4-3.3,1.8-4.2,2.9
					c-4.9,5.7-9.9,11.7-12.8,15.1c-0.1-0.1-0.2-0.2-0.3-0.3c5.5-8.3,9.4-14.2,10.8-16.3c0.4-0.7,1.7-2.5,1-3.5
					c-0.2-0.4-0.6-0.5-0.8-0.6c-1.4-0.4-3.2,2-4.1,3.1c-4.1,5.3-8.2,10.7-11,14.3c0,0-0.1,0-0.1-0.1c4.8-7.8,8-13.2,8.9-14.5
					c0.3-0.4,1.1-1.7,0.7-2.5c-0.2-0.3-0.5-0.5-0.7-0.6c-1.2-0.3-3,2-3.8,3.2c-3.3,4.3-6.6,8.8-9.2,12.3c0,0,0,0-0.1,0
					c-5.2,5.8-8.8,10.9-11.2,14.6c-1.8,2.9-3.3,5.3-2.8,8.3c0.6,3.5,3.3,5.7,3.9,6.1c0.6,0.5,2.7,1.9,6.4,2.1
					c5,0.3,7.7-1.9,17.5-7.1C267.6,169.1,270.8,167.9,270.6,166.9z"/>
				
					<linearGradient id="SVGID_20_" gradientUnits="userSpaceOnUse" x1="314.9026" y1="100.4129" x2="380.8059" y2="100.4129" gradientTransform="matrix(-0.5655 -0.8248 -0.8248 0.5655 873.9985 548.7727)">
					<stop  offset="0.2932" style="stop-color:#EFDDCB"/>
					<stop  offset="0.5782" style="stop-color:#F1BDAF"/>
					<stop  offset="0.8338" style="stop-color:#F2A89C"/>
					<stop  offset="1" style="stop-color:#F2A095"/>
				</linearGradient>
				<path class="st33" d="M584.6,299.9c1,0.3,1.7,4.5,0.2,7.8c-0.9,2-2.2,2.9-2.7,5.4c-0.3,1.5-0.1,2.8,0.1,3.7
					c0.7-0.4,17.7-16.1,20.5-18.9c0,0,3.2-3.3,4.6-2.6c0.5,0.3,0.7,0.7,0.7,0.7c0.3,0.6-0.1,1.4-0.6,2.2c-0.8,1.1-7.1,7.1-14.6,15.1
					c0.1,0.1,0.2,0.2,0.4,0.3c16-14,19.5-15.3,20.4-14.8c0.5,0.3,0.7,0.8,0.7,0.8c0.4,1.4-1.8,3.3-2.9,4.2c-5.7,4.9-11.7,10-15,12.8
					c0.1,0.1,0.2,0.2,0.3,0.3c8.2-5.5,14.1-9.5,16.2-10.9c0.7-0.5,2.4-1.7,3.5-1c0.4,0.2,0.5,0.6,0.6,0.8c0.4,1.4-2,3.2-3.1,4.1
					c-5.2,4.1-10.7,8.3-14.3,11.1c0,0,0.1,0.1,0.1,0.1c7.8-4.8,13.1-8.1,14.4-9c0.4-0.3,1.7-1.1,2.5-0.7c0.3,0.2,0.5,0.5,0.6,0.7
					c0.3,1.2-2,3-3.1,3.9c-4.3,3.3-8.8,6.7-12.3,9.3c0,0,0,0,0,0.1c-5.8,5.2-10.8,8.8-14.5,11.3c-2.8,1.9-5.3,3.3-8.3,2.8
					c-3.8-0.6-6-3.6-6.1-3.9c-1.1-1.6-1.6-3.5-1.5-6.4c0.1-5.2,1.9-8.7,6.4-17.6C582.8,301.8,583.8,299.7,584.6,299.9z"/>
			</g>
			<g id="body">
				<path class="st17" d="M587.7,336.4c-3,3.8-6.3,7.6-9.8,11.6c-0.2,0.2-0.3,0.4-0.5,0.6c-3.1,3.5-6.4,7-9.9,10.6
					c-5.2,5.3-10.4,10.2-15.4,14.6c-5.7,5.9-29.2,28.7-57.6,24.4c-9.1-1.4-15.6-5.1-23.5-9.8c-4.7-2.7-10.5-6.5-16.8-11.5
					c-0.7-0.5-1.3-1.1-2-1.6c-9.1-7.5-19.2-17.7-29-31.5c0,0-0.1-0.1-0.1-0.1c-0.7,17.4-1,30.3-1.1,35.1c-0.1,4.9-0.2,10.2-0.2,10.2
					c0,1.1,0,2.3,0,3.7c0,4.4,0,8.4,0,12c0,6.7,0.1,12.3,0.3,25.6c0,1,0,2,0,3.1c0,1.8,0,3.7,0.1,5.7c0,0,0,0,0,0c0,0.9,0,1.9,0,2.9
					c0,1.4,0,2.9,0.1,4.5c0.2,17.7,0.5,35.3,0.8,53c-24.9,2.7-55.4,3.8-89.8,0c-15-1.7-28.9-4-41.7-6.8c-4.1-0.9-8-1.8-11.9-2.7
					c4.6-31.9,7.9-67,9-104.9c0.1-4.4,0.2-8.7,0.3-12.9c0-2.6,0.1-5.1,0.1-7.6v0c0.1-12.5-0.1-24.8-0.4-36.6c-0.1,0-0.3-0.1-0.4-0.1
					c-12-2.5-30.3-7.5-49.8-18.3c-19.5-10.8-33.6-18.5-40.6-34.6c-7.6-17.4-2.5-34,5.2-58.6c0.1-0.4,0.2-0.7,0.3-0.8
					c2.6-8.1,6.4-16.9,11.7-26c1.3-2.2,2.7-4.5,4.2-6.7c4.5-6.8,10-13.8,16.5-20.9c5.7,5.1,11.3,10.3,17,15.4
					c-25.3,33.7-32.8,67.4-21.1,79.6c8.8,9.2,32.6,10.8,46.1,11.2c7.2,0.2,13.9,0,13.9,0c0.7,0,1.5-0.1,2.1-0.1
					c3.3-0.2,6.3-0.5,9.5-0.8c2.2-0.2,4.5-0.4,7.1-0.5c1.5-0.1,3-0.2,4.5-0.2c0,0,5.7-0.2,11.5-0.2c19.1,0.1,34.8,0.2,48.5,1.5
					c3,0.3,5.9,0.6,8.7,1c12.5,1.8,23.3,5.1,33.8,10.9c7,3.9,11.4,7.7,20.3,15.4c39.2,34,40.6,59.5,59.2,66.6c5.2,2,12,2.6,20.7,0.1
					c2.2-0.6,4.6-1.5,7.1-2.6c12.2-5.3,27.7-16.1,47.7-35.7c4.4,3.7,8.9,7.5,13.3,11.2C586.3,335.2,587,335.8,587.7,336.4z"/>
				<g class="st34">
					<path class="st8" d="M307.1,463.9l5.6-5.6l-7.1,2l-1.4-8l-2.7,7.6l-6.3-4.7l3.6,8.1c-1.3,2.4-2.7,4.9-4,7.3l7.8-4.8l7.2,6.5
						C309,469.5,308.1,466.7,307.1,463.9z"/>
					<path class="st8" d="M345.2,404.6l5.6-5.6l-7.1,2l-1.4-8l-2.7,7.6l-6.3-4.7l3.6,8.1c-1.3,2.4-2.7,4.9-4,7.3l7.8-4.8l7.2,6.5
						C347.1,410.2,346.2,407.4,345.2,404.6z"/>
					<path class="st8" d="M294.1,369.6c0.9,2.8,1.9,5.6,2.8,8.4l-7.2-6.5L289,372c0-2.6,0.1-5.1,0.1-7.6v0l2.2-6.3l1.4,8l7.1-2
						L294.1,369.6z"/>
					<path class="st8" d="M349.3,325.8l5.6-5.6l-7.1,2l-1.4-8l-2.7,7.6l-6.3-4.7l3.6,8.1c-1.3,2.4-2.7,4.9-4,7.3l7.8-4.8l7.2,6.5
						C351.2,331.4,350.2,328.6,349.3,325.8z"/>
					<path class="st8" d="M401.2,363.1l5.6-5.6l-7.1,2l-1.4-8l-2.7,7.6l-6.3-4.7l3.6,8.1c-1.3,2.4-2.7,4.9-4,7.3l7.8-4.8l7.2,6.5
						C403.1,368.7,402.1,365.9,401.2,363.1z"/>
					<path class="st8" d="M422.2,441.8l-5.9-5.3l-7.8,4.8c1.3-2.4,2.7-4.9,4-7.3l-3.6-8.1l6.3,4.7l2.7-7.6l1.4,8l2.8-0.8
						c0,1,0,2,0,3.1l-1.4,1.4c0.5,1.4,1,2.9,1.4,4.3c0,0,0,0,0,0C422.1,439.9,422.1,440.8,422.2,441.8z"/>
					<path class="st8" d="M380.9,476.9l5.6-5.6l-7.1,2l-1.4-8l-2.7,7.6l-6.3-4.7l3.6,8.1c-1.3,2.4-2.7,4.9-4,7.3l7.8-4.8l7.2,6.5
						C382.8,482.5,381.9,479.7,380.9,476.9z"/>
					<path class="st8" d="M438.5,316l5.6-5.6l-7.1,2l-1.4-8L433,312l-6.3-4.7l3.6,8.1c-1.3,2.4-2.7,4.9-4,7.3l7.8-4.8l7.2,6.5
						C440.4,321.6,439.4,318.8,438.5,316z"/>
					<path class="st8" d="M386.2,277.3l-7.2-6.5l-7.8,4.8c1.3-2.4,2.7-4.9,4-7.3l-0.3-0.7c3,0.3,5.9,0.6,8.7,1l-0.2,0.2
						C384.3,271.7,385.2,274.5,386.2,277.3z"/>
					<path class="st8" d="M305.9,274.8l-7.2-6.5l-7.8,4.8c1-1.8,1.9-3.5,2.9-5.3c3.3-0.2,6.3-0.5,9.5-0.8
						C304.1,269.7,305,272.3,305.9,274.8z"/>
					<path class="st8" d="M240.6,289.2l5.6-5.6l-7.1,2l-1.4-8l-2.7,7.6l-6.3-4.7l3.6,8.1c-1.3,2.4-2.7,4.9-4,7.3l7.8-4.8l7.2,6.5
						C242.5,294.8,241.6,292,240.6,289.2z"/>
					<path class="st8" d="M218.7,186.8c0.9,2.8,1.9,5.6,2.8,8.4l-6.5-5.9c1.3-2.2,2.7-4.5,4.2-6.7l5.2-1.4L218.7,186.8z"/>
					<path class="st8" d="M462,372.9l2.8,8.4l-7.2-6.5l-3.5,2.1c-0.7-0.5-1.3-1.1-2-1.6c0.6-1,1.1-2,1.7-3l-3.6-8.1l6.3,4.7l2.7-7.6
						l1.4,8l7-2L462,372.9z"/>
					<path class="st8" d="M526.1,363.1c0.9,2.8,1.9,5.6,2.8,8.4l-7.2-6.5l-7.8,4.8c1.3-2.4,2.7-4.9,4-7.3l-0.4-0.9
						c2.2-0.6,4.6-1.5,7.1-2.6l0.1,0.4l7.1-2L526.1,363.1z"/>
					<path class="st8" d="M577.9,348c-0.2,0.2-0.3,0.4-0.5,0.6l-0.6-1.4L577.9,348z"/>
				</g>
				<linearGradient id="SVGID_21_" gradientUnits="userSpaceOnUse" x1="291.5091" y1="438.6189" x2="422.9893" y2="438.6189">
					<stop  offset="0.4713" style="stop-color:#19233D"/>
					<stop  offset="1" style="stop-color:#271C41"/>
				</linearGradient>
				<path class="st35" d="M423,499.3c-24.9,2.7-55.4,3.8-89.8,0c-15-1.6-28.9-4-41.7-6.8c2.7-24.1,15.4-94.9,69.9-110.6
					c30.9-8.9,48.7-7.1,60.6-3.1c-0.2,10.1-0.2,18.8-0.2,25.8c0,8.9,0.1,15.9,0.5,41.7C422.4,464,422.7,481.6,423,499.3z"/>
				<linearGradient id="SVGID_22_" gradientUnits="userSpaceOnUse" x1="194" y1="271.9097" x2="288.4273" y2="271.9097">
					<stop  offset="0.4713" style="stop-color:#19233D"/>
					<stop  offset="1" style="stop-color:#271C41"/>
				</linearGradient>
				<path class="st36" d="M288.4,327.5c0,0-0.1,0.1-0.2,0.2c-12-2.5-30.3-7.5-49.8-18.3c-19.5-10.7-33.6-18.5-40.6-34.6
					c-7.6-17.4-2.5-34,5.2-58.6C204.2,243.1,216.3,291.3,288.4,327.5z"/>
				<linearGradient id="SVGID_23_" gradientUnits="userSpaceOnUse" x1="423.0166" y1="366.6437" x2="587.6884" y2="366.6437">
					<stop  offset="0.4713" style="stop-color:#19233D"/>
					<stop  offset="1" style="stop-color:#271C41"/>
				</linearGradient>
				<path class="st37" d="M587.7,336.4c-5.9,7.3-12.6,15-20.3,22.7c-5.2,5.3-10.4,10.2-15.4,14.6c-5.7,5.9-29.2,28.7-57.6,24.4
					c-9.1-1.4-15.6-5.1-23.5-9.7c-11.8-6.9-30.4-20.1-47.8-44.6c-0.3-4.2-0.1-7.4,1.5-8.2c6.9-3.4,24.8,45.1,64.1,52.8
					c6.6,1.3,11.7,1,15.4,0.8c37.6-2.1,67.5-35.9,81.4-54.6C586.3,335.2,587,335.8,587.7,336.4z"/>
				<path class="st17" d="M698.8,332.3"/>
			</g>
			<g id="head">
				<linearGradient id="face_2_" gradientUnits="userSpaceOnUse" x1="334.3498" y1="209.8004" x2="383.9145" y2="209.8004">
					<stop  offset="0" style="stop-color:#EFDDCB"/>
					<stop  offset="0.331" style="stop-color:#F1BDAF"/>
					<stop  offset="0.6278" style="stop-color:#F2A89C"/>
					<stop  offset="0.8209" style="stop-color:#F2A095"/>
				</linearGradient>
				<path id="face" class="st38" d="M383.9,220.1c-0.1,16.8-0.3,25.3-5.3,28.6c-3,2-6.2,2-12.4,2c-0.6,0-11.3-0.2-21.2-6.4
					c-1.6-1-2.3-1.6-2.8-2.1c-4.4-4.3-4.5-10.7-4.6-13.4c-0.7-25-5.9-27.1-1.5-37.2c4.2-9.8,14.7-23.4,27.8-22.6
					c8.3,0.5,14,6.4,15,7.5c3.8,4.1,4.7,12.2,4.9,26.5c0,1,0,2.1,0,3.2C383.9,210.2,383.9,214.9,383.9,220.1z"/>
				<g id="neck">
					<linearGradient id="SVGID_24_" gradientUnits="userSpaceOnUse" x1="336.876" y1="261.3556" x2="373.0096" y2="261.3556">
						<stop  offset="0" style="stop-color:#EFDDCB"/>
						<stop  offset="0.331" style="stop-color:#F1BDAF"/>
						<stop  offset="0.6278" style="stop-color:#F2A89C"/>
						<stop  offset="0.8209" style="stop-color:#F2A095"/>
					</linearGradient>
					<path class="st39" d="M371.1,280.3c-0.3,0.5-3.8,6.4-10.5,8.1c-7,1.7-14.4-1.8-18.7-6.5c-5.5-6.1-5.3-15.3-4.9-33.3
						c0.2-6.3,0.6-11.4,1-14.9l33.9,10c0,0.9,0,2.3,0,4.1c0,1,0,1.9,0,2.8c0.1,3.2,0.2,6.1,0.3,8.6
						C372.9,271.3,373.9,275.5,371.1,280.3z"/>
					<path class="st40" d="M372.3,259.2c-10.9-1.3-20.2-11.2-20.5-11.6c5.4,3.1,14.6,3.2,20.2,3
						C372.1,253.9,372.2,256.7,372.3,259.2z"/>
				</g>
				<path class="st5" d="M368.2,236.6c-1.3,0-2.9-0.2-4.6-1c-3.5-1.6-5.1-4.6-5.7-5.8c-0.1-0.3,0-0.7,0.3-0.8c0.3-0.1,0.7,0,0.8,0.3
					c0.5,1.1,1.9,3.8,5.1,5.2c2.2,1,4.3,1,5.6,0.7c0.3-0.1,0.6,0.2,0.7,0.5c0.1,0.3-0.2,0.6-0.5,0.7
					C369.5,236.6,368.9,236.6,368.2,236.6z"/>
				<g id="eyes">
					<ellipse class="st5" cx="361.9" cy="210.1" rx="2" ry="2"/>
					<ellipse class="st5" cx="377.6" cy="210" rx="2" ry="2"/>
				</g>
				<path id="nose" class="st41" d="M371.1,208c0.5,2.1,1.4,5.3,3.2,8.9c2.4,4.7,4.8,6.9,4.1,8.1c-0.5,0.9-2.5,1.4-9.7-0.8
					C369.5,218.9,370.3,213.5,371.1,208z"/>
				<g id="brows">
					
						<rect x="351.8" y="201.6" transform="matrix(0.9985 -5.565013e-02 5.565013e-02 0.9985 -10.7502 20.292)" class="st5" width="14.4" height="3.2"/>
					<path class="st5" d="M383.9,206.1l-10.4-1.6l0.5-3.1l9.9,1.6C383.9,203.9,383.9,205,383.9,206.1z"/>
				</g>
				<path id="hair" class="st5" d="M381.1,187c1.7-1.2,7-5,9.9-12c2.5-6.3,3.3-15.7-0.7-18.4c-0.3-0.2-1.6-1.1-2.8-0.7
					c-2.3,0.7-1.7,4.7-4.9,8.5c-1.5,1.8-3.7,3.3-4.2,2.8c-1.2-0.9,7-9.4,4.2-15.6c-0.8-1.9-2.8-3.8-4.2-3.5c-1.5,0.3-1.9,2.7-2.8,5
					c-1.1,2.7-3.3,6.3-8.5,9.9c0.5-0.8,5.6-8.9,2.1-14.9c-0.6-1-1.2-2-2.1-2.1c-3.4-0.4-3.9,11.7-12,19.8c-8.1,8.1-15.2,4.6-21.9,12
					c-1.7,1.9-5.4,6.8-5.7,23.4c-0.3,22.9,6.2,46.3,9.7,45.9c2.2-0.3,3.1-14,4.9-41.4c0.5-7,0.8-12.9,0.9-17.2
					C345.4,189.4,365.9,197.5,381.1,187z"/>
				<linearGradient id="ear_1_" gradientUnits="userSpaceOnUse" x1="331.4106" y1="215.3521" x2="346.0087" y2="215.3521">
					<stop  offset="0.1791" style="stop-color:#F2A095"/>
					<stop  offset="0.3722" style="stop-color:#F2A89C"/>
					<stop  offset="0.669" style="stop-color:#F1BDAF"/>
					<stop  offset="1" style="stop-color:#EFDDCB"/>
				</linearGradient>
				<ellipse id="ear" class="st42" cx="338.7" cy="215.4" rx="7.3" ry="7.3"/>
			</g>
		</g>
	</g>
</g>
</svg>
